<?xml version="1.0" encoding="utf-8" standalone="no"?>
<!DOCTYPE svg PUBLIC "-//W3C//DTD SVG 1.1//EN"
  "http://www.w3.org/Graphics/SVG/1.1/DTD/svg11.dtd">
<svg height="316.31125pt" version="1.1" viewBox="0 0 490.468875 316.31125" width="490.468875pt" xmlns="http://www.w3.org/2000/svg" xmlns:xlink="http://www.w3.org/1999/xlink">
 <metadata>
  <rdf:RDF xmlns:cc="http://creativecommons.org/ns#" xmlns:dc="http://purl.org/dc/elements/1.1/" xmlns:rdf="http://www.w3.org/1999/02/22-rdf-syntax-ns#">
   <cc:Work>
    <dc:type rdf:resource="http://purl.org/dc/dcmitype/StillImage"/>
    <dc:date>2021-05-02T01:25:13.395282</dc:date>
    <dc:format>image/svg+xml</dc:format>
    <dc:creator>
     <cc:Agent>
      <dc:title>Matplotlib v3.4.1, https://matplotlib.org/</dc:title>
     </cc:Agent>
    </dc:creator>
   </cc:Work>
  </rdf:RDF>
 </metadata>
 <defs>
  <style type="text/css">*{stroke-linecap:butt;stroke-linejoin:round;}</style>
 </defs>
 <g id="figure_1">
  <g id="patch_1">
   <path d="M 0 316.31125 
L 490.468875 316.31125 
L 490.468875 0 
L 0 0 
z
" style="fill:#ffffff;"/>
  </g>
  <g id="axes_1">
   <g id="patch_2">
    <path d="M 36.868875 292.2945 
L 483.268875 292.2945 
L 483.268875 20.4945 
L 36.868875 20.4945 
z
" style="fill:#eaeaf2;"/>
   </g>
   <g id="matplotlib.axis_1">
    <g id="xtick_1">
     <g id="line2d_1">
      <path clip-path="url(#p90a2318b58)" d="M 57.159784 292.2945 
L 57.159784 20.4945 
" style="fill:none;stroke:#ffffff;stroke-dasharray:2.96,1.28;stroke-dashoffset:0;stroke-width:0.8;"/>
     </g>
     <g id="text_1">
      <!-- 0.0 -->
      <g style="fill:#262626;" transform="translate(50.162409 307.281125)scale(0.088 -0.088)">
       <defs>
        <path d="M 2034 4250 
Q 1547 4250 1301 3770 
Q 1056 3291 1056 2328 
Q 1056 1369 1301 889 
Q 1547 409 2034 409 
Q 2525 409 2770 889 
Q 3016 1369 3016 2328 
Q 3016 3291 2770 3770 
Q 2525 4250 2034 4250 
z
M 2034 4750 
Q 2819 4750 3233 4129 
Q 3647 3509 3647 2328 
Q 3647 1150 3233 529 
Q 2819 -91 2034 -91 
Q 1250 -91 836 529 
Q 422 1150 422 2328 
Q 422 3509 836 4129 
Q 1250 4750 2034 4750 
z
" id="DejaVuSans-30" transform="scale(0.015625)"/>
        <path d="M 684 794 
L 1344 794 
L 1344 0 
L 684 0 
L 684 794 
z
" id="DejaVuSans-2e" transform="scale(0.015625)"/>
       </defs>
       <use xlink:href="#DejaVuSans-30"/>
       <use x="63.623047" xlink:href="#DejaVuSans-2e"/>
       <use x="95.410156" xlink:href="#DejaVuSans-30"/>
      </g>
     </g>
    </g>
    <g id="xtick_2">
     <g id="line2d_2">
      <path clip-path="url(#p90a2318b58)" d="M 138.32342 292.2945 
L 138.32342 20.4945 
" style="fill:none;stroke:#ffffff;stroke-dasharray:2.96,1.28;stroke-dashoffset:0;stroke-width:0.8;"/>
     </g>
     <g id="text_2">
      <!-- 0.2 -->
      <g style="fill:#262626;" transform="translate(131.326045 307.281125)scale(0.088 -0.088)">
       <defs>
        <path d="M 1228 531 
L 3431 531 
L 3431 0 
L 469 0 
L 469 531 
Q 828 903 1448 1529 
Q 2069 2156 2228 2338 
Q 2531 2678 2651 2914 
Q 2772 3150 2772 3378 
Q 2772 3750 2511 3984 
Q 2250 4219 1831 4219 
Q 1534 4219 1204 4116 
Q 875 4013 500 3803 
L 500 4441 
Q 881 4594 1212 4672 
Q 1544 4750 1819 4750 
Q 2544 4750 2975 4387 
Q 3406 4025 3406 3419 
Q 3406 3131 3298 2873 
Q 3191 2616 2906 2266 
Q 2828 2175 2409 1742 
Q 1991 1309 1228 531 
z
" id="DejaVuSans-32" transform="scale(0.015625)"/>
       </defs>
       <use xlink:href="#DejaVuSans-30"/>
       <use x="63.623047" xlink:href="#DejaVuSans-2e"/>
       <use x="95.410156" xlink:href="#DejaVuSans-32"/>
      </g>
     </g>
    </g>
    <g id="xtick_3">
     <g id="line2d_3">
      <path clip-path="url(#p90a2318b58)" d="M 219.487057 292.2945 
L 219.487057 20.4945 
" style="fill:none;stroke:#ffffff;stroke-dasharray:2.96,1.28;stroke-dashoffset:0;stroke-width:0.8;"/>
     </g>
     <g id="text_3">
      <!-- 0.4 -->
      <g style="fill:#262626;" transform="translate(212.489682 307.281125)scale(0.088 -0.088)">
       <defs>
        <path d="M 2419 4116 
L 825 1625 
L 2419 1625 
L 2419 4116 
z
M 2253 4666 
L 3047 4666 
L 3047 1625 
L 3713 1625 
L 3713 1100 
L 3047 1100 
L 3047 0 
L 2419 0 
L 2419 1100 
L 313 1100 
L 313 1709 
L 2253 4666 
z
" id="DejaVuSans-34" transform="scale(0.015625)"/>
       </defs>
       <use xlink:href="#DejaVuSans-30"/>
       <use x="63.623047" xlink:href="#DejaVuSans-2e"/>
       <use x="95.410156" xlink:href="#DejaVuSans-34"/>
      </g>
     </g>
    </g>
    <g id="xtick_4">
     <g id="line2d_4">
      <path clip-path="url(#p90a2318b58)" d="M 300.650693 292.2945 
L 300.650693 20.4945 
" style="fill:none;stroke:#ffffff;stroke-dasharray:2.96,1.28;stroke-dashoffset:0;stroke-width:0.8;"/>
     </g>
     <g id="text_4">
      <!-- 0.6 -->
      <g style="fill:#262626;" transform="translate(293.653318 307.281125)scale(0.088 -0.088)">
       <defs>
        <path d="M 2113 2584 
Q 1688 2584 1439 2293 
Q 1191 2003 1191 1497 
Q 1191 994 1439 701 
Q 1688 409 2113 409 
Q 2538 409 2786 701 
Q 3034 994 3034 1497 
Q 3034 2003 2786 2293 
Q 2538 2584 2113 2584 
z
M 3366 4563 
L 3366 3988 
Q 3128 4100 2886 4159 
Q 2644 4219 2406 4219 
Q 1781 4219 1451 3797 
Q 1122 3375 1075 2522 
Q 1259 2794 1537 2939 
Q 1816 3084 2150 3084 
Q 2853 3084 3261 2657 
Q 3669 2231 3669 1497 
Q 3669 778 3244 343 
Q 2819 -91 2113 -91 
Q 1303 -91 875 529 
Q 447 1150 447 2328 
Q 447 3434 972 4092 
Q 1497 4750 2381 4750 
Q 2619 4750 2861 4703 
Q 3103 4656 3366 4563 
z
" id="DejaVuSans-36" transform="scale(0.015625)"/>
       </defs>
       <use xlink:href="#DejaVuSans-30"/>
       <use x="63.623047" xlink:href="#DejaVuSans-2e"/>
       <use x="95.410156" xlink:href="#DejaVuSans-36"/>
      </g>
     </g>
    </g>
    <g id="xtick_5">
     <g id="line2d_5">
      <path clip-path="url(#p90a2318b58)" d="M 381.81433 292.2945 
L 381.81433 20.4945 
" style="fill:none;stroke:#ffffff;stroke-dasharray:2.96,1.28;stroke-dashoffset:0;stroke-width:0.8;"/>
     </g>
     <g id="text_5">
      <!-- 0.8 -->
      <g style="fill:#262626;" transform="translate(374.816955 307.281125)scale(0.088 -0.088)">
       <defs>
        <path d="M 2034 2216 
Q 1584 2216 1326 1975 
Q 1069 1734 1069 1313 
Q 1069 891 1326 650 
Q 1584 409 2034 409 
Q 2484 409 2743 651 
Q 3003 894 3003 1313 
Q 3003 1734 2745 1975 
Q 2488 2216 2034 2216 
z
M 1403 2484 
Q 997 2584 770 2862 
Q 544 3141 544 3541 
Q 544 4100 942 4425 
Q 1341 4750 2034 4750 
Q 2731 4750 3128 4425 
Q 3525 4100 3525 3541 
Q 3525 3141 3298 2862 
Q 3072 2584 2669 2484 
Q 3125 2378 3379 2068 
Q 3634 1759 3634 1313 
Q 3634 634 3220 271 
Q 2806 -91 2034 -91 
Q 1263 -91 848 271 
Q 434 634 434 1313 
Q 434 1759 690 2068 
Q 947 2378 1403 2484 
z
M 1172 3481 
Q 1172 3119 1398 2916 
Q 1625 2713 2034 2713 
Q 2441 2713 2670 2916 
Q 2900 3119 2900 3481 
Q 2900 3844 2670 4047 
Q 2441 4250 2034 4250 
Q 1625 4250 1398 4047 
Q 1172 3844 1172 3481 
z
" id="DejaVuSans-38" transform="scale(0.015625)"/>
       </defs>
       <use xlink:href="#DejaVuSans-30"/>
       <use x="63.623047" xlink:href="#DejaVuSans-2e"/>
       <use x="95.410156" xlink:href="#DejaVuSans-38"/>
      </g>
     </g>
    </g>
    <g id="xtick_6">
     <g id="line2d_6">
      <path clip-path="url(#p90a2318b58)" d="M 462.977966 292.2945 
L 462.977966 20.4945 
" style="fill:none;stroke:#ffffff;stroke-dasharray:2.96,1.28;stroke-dashoffset:0;stroke-width:0.8;"/>
     </g>
     <g id="text_6">
      <!-- 1.0 -->
      <g style="fill:#262626;" transform="translate(455.980591 307.281125)scale(0.088 -0.088)">
       <defs>
        <path d="M 794 531 
L 1825 531 
L 1825 4091 
L 703 3866 
L 703 4441 
L 1819 4666 
L 2450 4666 
L 2450 531 
L 3481 531 
L 3481 0 
L 794 0 
L 794 531 
z
" id="DejaVuSans-31" transform="scale(0.015625)"/>
       </defs>
       <use xlink:href="#DejaVuSans-31"/>
       <use x="63.623047" xlink:href="#DejaVuSans-2e"/>
       <use x="95.410156" xlink:href="#DejaVuSans-30"/>
      </g>
     </g>
    </g>
   </g>
   <g id="matplotlib.axis_2">
    <g id="ytick_1">
     <g id="line2d_7">
      <path clip-path="url(#p90a2318b58)" d="M 36.868875 260.486248 
L 483.268875 260.486248 
" style="fill:none;stroke:#ffffff;stroke-dasharray:2.96,1.28;stroke-dashoffset:0;stroke-width:0.8;"/>
     </g>
     <g id="text_7">
      <!-- −2.0 -->
      <g style="fill:#262626;" transform="translate(7.2 263.829561)scale(0.088 -0.088)">
       <defs>
        <path d="M 678 2272 
L 4684 2272 
L 4684 1741 
L 678 1741 
L 678 2272 
z
" id="DejaVuSans-2212" transform="scale(0.015625)"/>
       </defs>
       <use xlink:href="#DejaVuSans-2212"/>
       <use x="83.789062" xlink:href="#DejaVuSans-32"/>
       <use x="147.412109" xlink:href="#DejaVuSans-2e"/>
       <use x="179.199219" xlink:href="#DejaVuSans-30"/>
      </g>
     </g>
    </g>
    <g id="ytick_2">
     <g id="line2d_8">
      <path clip-path="url(#p90a2318b58)" d="M 36.868875 227.432306 
L 483.268875 227.432306 
" style="fill:none;stroke:#ffffff;stroke-dasharray:2.96,1.28;stroke-dashoffset:0;stroke-width:0.8;"/>
     </g>
     <g id="text_8">
      <!-- −1.5 -->
      <g style="fill:#262626;" transform="translate(7.2 230.775619)scale(0.088 -0.088)">
       <defs>
        <path d="M 691 4666 
L 3169 4666 
L 3169 4134 
L 1269 4134 
L 1269 2991 
Q 1406 3038 1543 3061 
Q 1681 3084 1819 3084 
Q 2600 3084 3056 2656 
Q 3513 2228 3513 1497 
Q 3513 744 3044 326 
Q 2575 -91 1722 -91 
Q 1428 -91 1123 -41 
Q 819 9 494 109 
L 494 744 
Q 775 591 1075 516 
Q 1375 441 1709 441 
Q 2250 441 2565 725 
Q 2881 1009 2881 1497 
Q 2881 1984 2565 2268 
Q 2250 2553 1709 2553 
Q 1456 2553 1204 2497 
Q 953 2441 691 2322 
L 691 4666 
z
" id="DejaVuSans-35" transform="scale(0.015625)"/>
       </defs>
       <use xlink:href="#DejaVuSans-2212"/>
       <use x="83.789062" xlink:href="#DejaVuSans-31"/>
       <use x="147.412109" xlink:href="#DejaVuSans-2e"/>
       <use x="179.199219" xlink:href="#DejaVuSans-35"/>
      </g>
     </g>
    </g>
    <g id="ytick_3">
     <g id="line2d_9">
      <path clip-path="url(#p90a2318b58)" d="M 36.868875 194.378364 
L 483.268875 194.378364 
" style="fill:none;stroke:#ffffff;stroke-dasharray:2.96,1.28;stroke-dashoffset:0;stroke-width:0.8;"/>
     </g>
     <g id="text_9">
      <!-- −1.0 -->
      <g style="fill:#262626;" transform="translate(7.2 197.721676)scale(0.088 -0.088)">
       <use xlink:href="#DejaVuSans-2212"/>
       <use x="83.789062" xlink:href="#DejaVuSans-31"/>
       <use x="147.412109" xlink:href="#DejaVuSans-2e"/>
       <use x="179.199219" xlink:href="#DejaVuSans-30"/>
      </g>
     </g>
    </g>
    <g id="ytick_4">
     <g id="line2d_10">
      <path clip-path="url(#p90a2318b58)" d="M 36.868875 161.324422 
L 483.268875 161.324422 
" style="fill:none;stroke:#ffffff;stroke-dasharray:2.96,1.28;stroke-dashoffset:0;stroke-width:0.8;"/>
     </g>
     <g id="text_10">
      <!-- −0.5 -->
      <g style="fill:#262626;" transform="translate(7.2 164.667734)scale(0.088 -0.088)">
       <use xlink:href="#DejaVuSans-2212"/>
       <use x="83.789062" xlink:href="#DejaVuSans-30"/>
       <use x="147.412109" xlink:href="#DejaVuSans-2e"/>
       <use x="179.199219" xlink:href="#DejaVuSans-35"/>
      </g>
     </g>
    </g>
    <g id="ytick_5">
     <g id="line2d_11">
      <path clip-path="url(#p90a2318b58)" d="M 36.868875 128.270479 
L 483.268875 128.270479 
" style="fill:none;stroke:#ffffff;stroke-dasharray:2.96,1.28;stroke-dashoffset:0;stroke-width:0.8;"/>
     </g>
     <g id="text_11">
      <!-- 0.0 -->
      <g style="fill:#262626;" transform="translate(14.574125 131.613792)scale(0.088 -0.088)">
       <use xlink:href="#DejaVuSans-30"/>
       <use x="63.623047" xlink:href="#DejaVuSans-2e"/>
       <use x="95.410156" xlink:href="#DejaVuSans-30"/>
      </g>
     </g>
    </g>
    <g id="ytick_6">
     <g id="line2d_12">
      <path clip-path="url(#p90a2318b58)" d="M 36.868875 95.216537 
L 483.268875 95.216537 
" style="fill:none;stroke:#ffffff;stroke-dasharray:2.96,1.28;stroke-dashoffset:0;stroke-width:0.8;"/>
     </g>
     <g id="text_12">
      <!-- 0.5 -->
      <g style="fill:#262626;" transform="translate(14.574125 98.55985)scale(0.088 -0.088)">
       <use xlink:href="#DejaVuSans-30"/>
       <use x="63.623047" xlink:href="#DejaVuSans-2e"/>
       <use x="95.410156" xlink:href="#DejaVuSans-35"/>
      </g>
     </g>
    </g>
    <g id="ytick_7">
     <g id="line2d_13">
      <path clip-path="url(#p90a2318b58)" d="M 36.868875 62.162595 
L 483.268875 62.162595 
" style="fill:none;stroke:#ffffff;stroke-dasharray:2.96,1.28;stroke-dashoffset:0;stroke-width:0.8;"/>
     </g>
     <g id="text_13">
      <!-- 1.0 -->
      <g style="fill:#262626;" transform="translate(14.574125 65.505908)scale(0.088 -0.088)">
       <use xlink:href="#DejaVuSans-31"/>
       <use x="63.623047" xlink:href="#DejaVuSans-2e"/>
       <use x="95.410156" xlink:href="#DejaVuSans-30"/>
      </g>
     </g>
    </g>
    <g id="ytick_8">
     <g id="line2d_14">
      <path clip-path="url(#p90a2318b58)" d="M 36.868875 29.108653 
L 483.268875 29.108653 
" style="fill:none;stroke:#ffffff;stroke-dasharray:2.96,1.28;stroke-dashoffset:0;stroke-width:0.8;"/>
     </g>
     <g id="text_14">
      <!-- 1.5 -->
      <g style="fill:#262626;" transform="translate(14.574125 32.451965)scale(0.088 -0.088)">
       <use xlink:href="#DejaVuSans-31"/>
       <use x="63.623047" xlink:href="#DejaVuSans-2e"/>
       <use x="95.410156" xlink:href="#DejaVuSans-35"/>
      </g>
     </g>
    </g>
   </g>
   <g id="line2d_15">
    <path clip-path="url(#p90a2318b58)" d="M 57.159784 62.162595 
L 61.258958 92.765851 
L 65.358131 120.555653 
L 69.457305 145.657175 
L 73.556478 168.1932 
L 77.655652 188.284114 
L 81.754825 206.047907 
L 85.853999 221.600177 
L 89.953173 235.054125 
L 94.052346 246.520557 
L 98.15152 256.107885 
L 102.250693 263.922125 
L 106.349867 270.0669 
L 110.44904 274.643436 
L 114.548214 277.750565 
L 118.647387 279.484724 
L 122.746561 279.939955 
L 126.845735 279.207905 
L 130.944908 277.377826 
L 135.044082 274.536577 
L 139.143255 270.768618 
L 143.242429 266.156018 
L 147.341602 260.778449 
L 151.440776 254.713188 
L 155.539949 248.035119 
L 159.639123 240.816729 
L 163.738296 233.128111 
L 167.83747 225.036962 
L 171.936644 216.608586 
L 176.035817 207.905891 
L 180.134991 198.989389 
L 184.234164 189.9172 
L 188.333338 180.745046 
L 192.432511 171.526256 
L 196.531685 162.311762 
L 200.630858 153.150105 
L 204.730032 144.087426 
L 208.829206 135.167476 
L 212.928379 126.431607 
L 217.027553 117.918778 
L 221.126726 109.665553 
L 225.2259 101.706102 
L 229.325073 94.072198 
L 233.424247 86.793221 
L 237.52342 79.896153 
L 241.622594 73.405586 
L 245.721768 67.343713 
L 249.820941 61.730333 
L 253.920115 56.582852 
L 258.019288 51.916278 
L 262.118462 47.743226 
L 266.217635 44.073916 
L 270.316809 40.916173 
L 274.415982 38.275427 
L 278.515156 36.154712 
L 282.61433 34.554669 
L 286.713503 33.473543 
L 290.812677 32.907183 
L 294.91185 32.849045 
L 299.011024 33.29019 
L 303.110197 34.219283 
L 307.209371 35.622594 
L 311.308544 37.484 
L 315.407718 39.784979 
L 319.506892 42.504619 
L 323.606065 45.61961 
L 327.705239 49.104248 
L 331.804412 52.930433 
L 335.903586 57.067672 
L 340.002759 61.483077 
L 344.101933 66.141362 
L 348.201106 71.00485 
L 352.30028 76.033466 
L 356.399454 81.184742 
L 360.498627 86.413815 
L 364.597801 91.673426 
L 368.696974 96.913921 
L 372.796148 102.083253 
L 376.895321 107.126978 
L 380.994495 111.988258 
L 385.093668 116.60786 
L 389.192842 120.924156 
L 393.292015 124.873122 
L 397.391189 128.388342 
L 401.490363 131.401002 
L 405.589536 133.839895 
L 409.68871 135.631418 
L 413.787883 136.699573 
L 417.887057 136.965969 
L 421.98623 136.349817 
L 426.085404 134.767935 
L 430.184577 132.134746 
L 434.283751 128.362279 
L 438.382925 123.360165 
L 442.482098 117.035643 
L 446.581272 109.293556 
L 450.680445 100.036352 
L 454.779619 89.164084 
L 458.878792 76.57441 
L 462.977966 62.162595 
" style="fill:none;stroke:#4c72b0;stroke-linecap:round;stroke-width:1.2;"/>
   </g>
   <g id="line2d_16">
    <defs>
     <path d="M 0 2.4 
C 0.636487 2.4 1.246992 2.147121 1.697056 1.697056 
C 2.147121 1.246992 2.4 0.636487 2.4 0 
C 2.4 -0.636487 2.147121 -1.246992 1.697056 -1.697056 
C 1.246992 -2.147121 0.636487 -2.4 0 -2.4 
C -0.636487 -2.4 -1.246992 -2.147121 -1.697056 -1.697056 
C -2.147121 -1.246992 -2.4 -0.636487 -2.4 0 
C -2.4 0.636487 -2.147121 1.246992 -1.697056 1.697056 
C -1.246992 2.147121 -0.636487 2.4 0 2.4 
z
" id="mbde73a1e41" style="stroke:#dd8452;"/>
    </defs>
    <g clip-path="url(#p90a2318b58)">
     <use style="fill:#dd8452;stroke:#dd8452;" x="253.225519" xlink:href="#mbde73a1e41" y="54.595635"/>
     <use style="fill:#dd8452;stroke:#dd8452;" x="421.130346" xlink:href="#mbde73a1e41" y="120.024028"/>
     <use style="fill:#dd8452;stroke:#dd8452;" x="380.7749" xlink:href="#mbde73a1e41" y="104.243406"/>
     <use style="fill:#dd8452;stroke:#dd8452;" x="112.052475" xlink:href="#mbde73a1e41" y="247.102602"/>
     <use style="fill:#dd8452;stroke:#dd8452;" x="92.799239" xlink:href="#mbde73a1e41" y="230.038571"/>
     <use style="fill:#dd8452;stroke:#dd8452;" x="168.858452" xlink:href="#mbde73a1e41" y="218.709235"/>
     <use style="fill:#dd8452;stroke:#dd8452;" x="143.592864" xlink:href="#mbde73a1e41" y="243.327097"/>
     <use style="fill:#dd8452;stroke:#dd8452;" x="154.259829" xlink:href="#mbde73a1e41" y="230.081844"/>
     <use style="fill:#dd8452;stroke:#dd8452;" x="176.91026" xlink:href="#mbde73a1e41" y="205.461279"/>
     <use style="fill:#dd8452;stroke:#dd8452;" x="94.929996" xlink:href="#mbde73a1e41" y="235.762525"/>
     <use style="fill:#dd8452;stroke:#dd8452;" x="209.496011" xlink:href="#mbde73a1e41" y="121.692317"/>
     <use style="fill:#dd8452;stroke:#dd8452;" x="306.22638" xlink:href="#mbde73a1e41" y="70.565407"/>
     <use style="fill:#dd8452;stroke:#dd8452;" x="81.487065" xlink:href="#mbde73a1e41" y="192.097921"/>
     <use style="fill:#dd8452;stroke:#dd8452;" x="346.797299" xlink:href="#mbde73a1e41" y="89.659602"/>
     <use style="fill:#dd8452;stroke:#dd8452;" x="213.892588" xlink:href="#mbde73a1e41" y="114.056157"/>
     <use style="fill:#dd8452;stroke:#dd8452;" x="224.846804" xlink:href="#mbde73a1e41" y="97.113741"/>
     <use style="fill:#dd8452;stroke:#dd8452;" x="92.723157" xlink:href="#mbde73a1e41" y="229.801465"/>
     <use style="fill:#dd8452;stroke:#dd8452;" x="462.712326" xlink:href="#mbde73a1e41" y="136.290316"/>
     <use style="fill:#dd8452;stroke:#dd8452;" x="388.680935" xlink:href="#mbde73a1e41" y="107.334994"/>
     <use style="fill:#dd8452;stroke:#dd8452;" x="372.977713" xlink:href="#mbde73a1e41" y="101.194393"/>
     <use style="fill:#dd8452;stroke:#dd8452;" x="300.579951" xlink:href="#mbde73a1e41" y="67.760872"/>
     <use style="fill:#dd8452;stroke:#dd8452;" x="383.034579" xlink:href="#mbde73a1e41" y="105.127036"/>
     <use style="fill:#dd8452;stroke:#dd8452;" x="411.274343" xlink:href="#mbde73a1e41" y="116.169933"/>
     <use style="fill:#dd8452;stroke:#dd8452;" x="337.442919" xlink:href="#mbde73a1e41" y="85.302882"/>
     <use style="fill:#dd8452;stroke:#dd8452;" x="240.097759" xlink:href="#mbde73a1e41" y="80.433993"/>
     <use style="fill:#dd8452;stroke:#dd8452;" x="162.056386" xlink:href="#mbde73a1e41" y="224.293457"/>
     <use style="fill:#dd8452;stroke:#dd8452;" x="133.572807" xlink:href="#mbde73a1e41" y="247.201788"/>
     <use style="fill:#dd8452;stroke:#dd8452;" x="269.468922" xlink:href="#mbde73a1e41" y="62.667139"/>
     <use style="fill:#dd8452;stroke:#dd8452;" x="322.675266" xlink:href="#mbde73a1e41" y="78.368984"/>
     <use style="fill:#dd8452;stroke:#dd8452;" x="359.822305" xlink:href="#mbde73a1e41" y="95.692016"/>
     <use style="fill:#dd8452;stroke:#dd8452;" x="67.063897" xlink:href="#mbde73a1e41" y="105.077026"/>
     <use style="fill:#dd8452;stroke:#dd8452;" x="301.773588" xlink:href="#mbde73a1e41" y="68.325597"/>
     <use style="fill:#dd8452;stroke:#dd8452;" x="208.825066" xlink:href="#mbde73a1e41" y="122.797835"/>
     <use style="fill:#dd8452;stroke:#dd8452;" x="203.204325" xlink:href="#mbde73a1e41" y="130.672098"/>
     <use style="fill:#dd8452;stroke:#dd8452;" x="85.646069" xlink:href="#mbde73a1e41" y="203.853377"/>
     <use style="fill:#dd8452;stroke:#dd8452;" x="125.321104" xlink:href="#mbde73a1e41" y="247.164513"/>
     <use style="fill:#dd8452;stroke:#dd8452;" x="130.855696" xlink:href="#mbde73a1e41" y="247.190125"/>
     <use style="fill:#dd8452;stroke:#dd8452;" x="200.636241" xlink:href="#mbde73a1e41" y="138.155059"/>
     <use style="fill:#dd8452;stroke:#dd8452;" x="194.305551" xlink:href="#mbde73a1e41" y="162.658746"/>
     <use style="fill:#dd8452;stroke:#dd8452;" x="89.202021" xlink:href="#mbde73a1e41" y="216.397337"/>
     <use style="fill:#dd8452;stroke:#dd8452;" x="411.893088" xlink:href="#mbde73a1e41" y="116.41189"/>
     <use style="fill:#dd8452;stroke:#dd8452;" x="294.177264" xlink:href="#mbde73a1e41" y="64.892488"/>
     <use style="fill:#dd8452;stroke:#dd8452;" x="63.721055" xlink:href="#mbde73a1e41" y="104.988281"/>
     <use style="fill:#dd8452;stroke:#dd8452;" x="178.985151" xlink:href="#mbde73a1e41" y="200.789095"/>
     <use style="fill:#dd8452;stroke:#dd8452;" x="167.051947" xlink:href="#mbde73a1e41" y="220.268214"/>
     <use style="fill:#dd8452;stroke:#dd8452;" x="235.4055" xlink:href="#mbde73a1e41" y="86.797822"/>
     <use style="fill:#dd8452;stroke:#dd8452;" x="105.225075" xlink:href="#mbde73a1e41" y="246.895537"/>
     <use style="fill:#dd8452;stroke:#dd8452;" x="180.90868" xlink:href="#mbde73a1e41" y="195.75734"/>
     <use style="fill:#dd8452;stroke:#dd8452;" x="148.183537" xlink:href="#mbde73a1e41" y="237.690319"/>
     <use style="fill:#dd8452;stroke:#dd8452;" x="240.908151" xlink:href="#mbde73a1e41" y="79.10775"/>
     <use style="fill:#dd8452;stroke:#dd8452;" x="100.159806" xlink:href="#mbde73a1e41" y="243.594229"/>
     <use style="fill:#dd8452;stroke:#dd8452;" x="170.32784" xlink:href="#mbde73a1e41" y="217.120539"/>
     <use style="fill:#dd8452;stroke:#dd8452;" x="334.321495" xlink:href="#mbde73a1e41" y="83.83727"/>
     <use style="fill:#dd8452;stroke:#dd8452;" x="287.182391" xlink:href="#mbde73a1e41" y="60.346951"/>
     <use style="fill:#dd8452;stroke:#dd8452;" x="382.120369" xlink:href="#mbde73a1e41" y="104.769545"/>
     <use style="fill:#dd8452;stroke:#dd8452;" x="391.891059" xlink:href="#mbde73a1e41" y="108.590285"/>
     <use style="fill:#dd8452;stroke:#dd8452;" x="170.518071" xlink:href="#mbde73a1e41" y="216.892244"/>
     <use style="fill:#dd8452;stroke:#dd8452;" x="389.844942" xlink:href="#mbde73a1e41" y="107.790166"/>
     <use style="fill:#dd8452;stroke:#dd8452;" x="119.959678" xlink:href="#mbde73a1e41" y="247.139492"/>
     <use style="fill:#dd8452;stroke:#dd8452;" x="411.245268" xlink:href="#mbde73a1e41" y="116.158559"/>
     <use style="fill:#dd8452;stroke:#dd8452;" x="140.639098" xlink:href="#mbde73a1e41" y="246.634868"/>
     <use style="fill:#dd8452;stroke:#dd8452;" x="168.215397" xlink:href="#mbde73a1e41" y="219.285778"/>
     <use style="fill:#dd8452;stroke:#dd8452;" x="230.148617" xlink:href="#mbde73a1e41" y="92.23282"/>
     <use style="fill:#dd8452;stroke:#dd8452;" x="444.685179" xlink:href="#mbde73a1e41" y="129.234926"/>
     <use style="fill:#dd8452;stroke:#dd8452;" x="462.38711" xlink:href="#mbde73a1e41" y="136.162702"/>
     <use style="fill:#dd8452;stroke:#dd8452;" x="339.442692" xlink:href="#mbde73a1e41" y="86.241845"/>
     <use style="fill:#dd8452;stroke:#dd8452;" x="141.043435" xlink:href="#mbde73a1e41" y="246.315496"/>
     <use style="fill:#dd8452;stroke:#dd8452;" x="424.217277" xlink:href="#mbde73a1e41" y="121.231141"/>
     <use style="fill:#dd8452;stroke:#dd8452;" x="350.655751" xlink:href="#mbde73a1e41" y="91.446604"/>
     <use style="fill:#dd8452;stroke:#dd8452;" x="374.862275" xlink:href="#mbde73a1e41" y="101.931334"/>
     <use style="fill:#dd8452;stroke:#dd8452;" x="158.471744" xlink:href="#mbde73a1e41" y="227.023583"/>
     <use style="fill:#dd8452;stroke:#dd8452;" x="190.113344" xlink:href="#mbde73a1e41" y="172.684386"/>
     <use style="fill:#dd8452;stroke:#dd8452;" x="386.514866" xlink:href="#mbde73a1e41" y="106.487972"/>
     <use style="fill:#dd8452;stroke:#dd8452;" x="214.106887" xlink:href="#mbde73a1e41" y="113.707476"/>
     <use style="fill:#dd8452;stroke:#dd8452;" x="198.607333" xlink:href="#mbde73a1e41" y="146.714801"/>
     <use style="fill:#dd8452;stroke:#dd8452;" x="332.092947" xlink:href="#mbde73a1e41" y="82.790886"/>
     <use style="fill:#dd8452;stroke:#dd8452;" x="292.826522" xlink:href="#mbde73a1e41" y="64.186963"/>
     <use style="fill:#dd8452;stroke:#dd8452;" x="110.485879" xlink:href="#mbde73a1e41" y="247.095289"/>
     <use style="fill:#dd8452;stroke:#dd8452;" x="406.190203" xlink:href="#mbde73a1e41" y="114.181826"/>
     <use style="fill:#dd8452;stroke:#dd8452;" x="340.4203" xlink:href="#mbde73a1e41" y="86.700858"/>
     <use style="fill:#dd8452;stroke:#dd8452;" x="402.564518" xlink:href="#mbde73a1e41" y="112.764038"/>
     <use style="fill:#dd8452;stroke:#dd8452;" x="182.736471" xlink:href="#mbde73a1e41" y="190.115719"/>
     <use style="fill:#dd8452;stroke:#dd8452;" x="141.638851" xlink:href="#mbde73a1e41" y="245.701489"/>
     <use style="fill:#dd8452;stroke:#dd8452;" x="389.076517" xlink:href="#mbde73a1e41" y="107.48968"/>
     <use style="fill:#dd8452;stroke:#dd8452;" x="95.322971" xlink:href="#mbde73a1e41" y="236.695881"/>
     <use style="fill:#dd8452;stroke:#dd8452;" x="444.426772" xlink:href="#mbde73a1e41" y="129.133876"/>
     <use style="fill:#dd8452;stroke:#dd8452;" x="335.274915" xlink:href="#mbde73a1e41" y="84.284935"/>
     <use style="fill:#dd8452;stroke:#dd8452;" x="323.111822" xlink:href="#mbde73a1e41" y="78.573961"/>
     <use style="fill:#dd8452;stroke:#dd8452;" x="214.532825" xlink:href="#mbde73a1e41" y="113.031928"/>
     <use style="fill:#dd8452;stroke:#dd8452;" x="210.474332" xlink:href="#mbde73a1e41" y="120.069096"/>
    </g>
   </g>
   <g id="line2d_17">
    <path clip-path="url(#p90a2318b58)" d="M 63.721055 155.695659 
L 67.063897 168.448475 
L 69.923679 178.642256 
L 81.487065 213.328913 
L 85.646069 223.334212 
L 89.202021 230.89462 
L 92.723157 237.50197 
L 92.799239 237.635255 
L 94.929996 241.207573 
L 95.322971 241.832805 
L 100.159806 248.688428 
L 105.225075 254.251857 
L 110.485879 258.361007 
L 112.052475 259.268944 
L 119.959678 261.755879 
L 125.321104 261.565189 
L 125.666058 261.503911 
L 130.855696 259.901687 
L 133.572807 258.573887 
L 140.639098 253.664882 
L 141.043435 253.323897 
L 141.638851 252.810481 
L 143.592864 251.032789 
L 148.183537 246.321549 
L 154.259829 239.026546 
L 158.471744 233.336333 
L 158.513269 233.277861 
L 162.056386 228.129675 
L 167.051947 220.378459 
L 168.215397 218.49839 
L 168.858452 217.448011 
L 170.32784 215.019004 
L 170.518071 214.701681 
L 176.91026 203.696133 
L 178.985151 199.997434 
L 180.90868 196.521996 
L 182.736471 193.182351 
L 190.113344 179.41577 
L 194.305551 171.454332 
L 198.607333 163.239576 
L 200.636241 159.362522 
L 203.204325 154.462812 
L 208.825066 143.812448 
L 209.496011 142.551261 
L 210.474332 140.717205 
L 213.892588 134.361359 
L 214.106887 133.965911 
L 214.532825 133.181073 
L 224.846804 114.740776 
L 230.148617 105.78474 
L 235.4055 97.337093 
L 240.097759 90.205808 
L 240.908151 89.016077 
L 253.225519 72.602655 
L 255.929387 69.448491 
L 261.750421 63.246848 
L 269.468922 56.31448 
L 287.182391 46.234125 
L 292.826522 44.755082 
L 294.177264 44.524356 
L 300.579951 44.068652 
L 301.773588 44.098677 
L 306.22638 44.522433 
L 322.675266 50.10571 
L 323.111822 50.33388 
L 332.092947 55.840585 
L 334.321495 57.430735 
L 335.274915 58.136015 
L 337.442919 59.793203 
L 339.442692 61.384837 
L 340.4203 62.183942 
L 346.797299 67.704838 
L 350.655751 71.272835 
L 351.166156 71.755867 
L 359.822305 80.259096 
L 364.692254 85.224919 
L 372.977713 93.768034 
L 374.862275 95.701658 
L 380.7749 101.675686 
L 382.120369 103.006951 
L 383.034579 103.903906 
L 386.514866 107.253574 
L 388.680935 109.278459 
L 389.076517 109.642682 
L 389.844942 110.344976 
L 391.891059 112.179535 
L 397.243427 116.701808 
L 402.564518 120.726963 
L 406.190203 123.153018 
L 411.245268 126.043604 
L 411.274343 126.058439 
L 411.893088 126.369051 
L 421.130346 129.756273 
L 423.917894 130.2745 
L 424.217277 130.315093 
L 431.818415 130.301488 
L 444.426772 125.325658 
L 444.685179 125.152373 
L 462.38711 105.55505 
L 462.712326 105.043001 
" style="fill:none;stroke:#55a868;stroke-linecap:round;stroke-width:1.2;"/>
   </g>
   <g id="line2d_18">
    <path clip-path="url(#p90a2318b58)" d="M 63.721055 152.88277 
L 67.063897 163.534478 
L 69.923679 172.232094 
L 81.487065 203.328792 
L 85.646069 212.858481 
L 89.202021 220.292037 
L 92.723157 226.996284 
L 92.799239 227.133849 
L 94.929996 230.862732 
L 95.322971 231.524078 
L 100.159806 238.988022 
L 105.225075 245.463666 
L 110.485879 250.740692 
L 112.052475 252.028835 
L 119.959678 256.570625 
L 125.321104 257.826237 
L 125.666058 257.857634 
L 130.855696 257.62714 
L 133.572807 256.990381 
L 140.639098 253.742283 
L 141.043435 253.489092 
L 141.638851 253.103381 
L 143.592864 251.730756 
L 148.183537 247.8807 
L 154.259829 241.509838 
L 158.471744 236.303801 
L 158.513269 236.249582 
L 162.056386 231.403787 
L 167.051947 223.914878 
L 168.215397 222.068278 
L 168.858452 221.031938 
L 170.32784 218.623226 
L 170.518071 218.307242 
L 176.91026 207.191709 
L 178.985151 203.39335 
L 180.90868 199.798439 
L 182.736471 196.322053 
L 190.113344 181.787506 
L 194.305551 173.25034 
L 198.607333 164.354825 
L 200.636241 160.128955 
L 203.204325 154.765431 
L 208.825066 143.028145 
L 209.496011 141.631752 
L 210.474332 139.59898 
L 213.892588 132.535815 
L 214.106887 132.09538 
L 214.532825 131.22113 
L 224.846804 110.593056 
L 230.148617 100.53946 
L 235.4055 91.059135 
L 240.097759 83.074058 
L 240.908151 81.74462 
L 253.225519 63.566364 
L 255.929387 60.128436 
L 261.750421 53.460944 
L 269.468922 46.237203 
L 287.182391 36.962911 
L 292.826522 36.158515 
L 294.177264 36.116779 
L 300.579951 36.689924 
L 301.773588 36.934477 
L 306.22638 38.214551 
L 322.675266 47.52232 
L 323.111822 47.856587 
L 332.092947 55.555879 
L 334.321495 57.68259 
L 335.274915 58.615031 
L 337.442919 60.782721 
L 339.442692 62.835668 
L 340.4203 63.856562 
L 346.797299 70.74591 
L 350.655751 75.060295 
L 351.166156 75.636656 
L 359.822305 85.493551 
L 364.692254 91.002016 
L 372.977713 100.039005 
L 374.862275 102.002617 
L 380.7749 107.858021 
L 382.120369 109.115776 
L 383.034579 109.952956 
L 386.514866 112.999499 
L 388.680935 114.775172 
L 389.076517 115.088697 
L 389.844942 115.688259 
L 391.891059 117.220514 
L 397.243427 120.754334 
L 402.564518 123.517361 
L 406.190203 124.9292 
L 411.245268 126.208013 
L 411.274343 126.21293 
L 411.893088 126.311029 
L 421.130346 126.17712 
L 423.917894 125.519872 
L 424.217277 125.431609 
L 431.818415 122.006542 
L 444.426772 111.082793 
L 444.685179 110.788245 
L 462.38711 83.718823 
L 462.712326 83.094296 
" style="fill:none;stroke:#c44e52;stroke-linecap:round;stroke-width:1.2;"/>
   </g>
   <g id="line2d_19">
    <path clip-path="url(#p90a2318b58)" d="M 63.721055 128.157552 
L 67.063897 143.790359 
L 69.923679 156.374974 
L 81.487065 199.486743 
L 85.646069 211.975891 
L 89.202021 221.566338 
L 92.723157 230.094997 
L 92.799239 230.281426 
L 94.929996 234.912857 
L 95.322971 235.664071 
L 100.159806 244.654777 
L 105.225075 252.13358 
L 110.485879 257.872427 
L 112.052475 259.219213 
L 119.959678 263.564443 
L 125.321104 264.199699 
L 125.666058 264.237874 
L 130.855696 263.216583 
L 133.572807 262.183427 
L 140.639098 257.625988 
L 141.043435 257.341226 
L 141.638851 256.764154 
L 143.592864 255.071368 
L 148.183537 250.334428 
L 154.259829 242.661004 
L 158.471744 236.83518 
L 158.513269 236.6424 
L 162.056386 231.23005 
L 167.051947 223.088645 
L 168.215397 221.078922 
L 168.858452 219.865279 
L 170.32784 217.332343 
L 170.518071 216.890542 
L 176.91026 205.126518 
L 178.985151 201.215211 
L 180.90868 197.438876 
L 182.736471 193.818334 
L 190.113344 179.020513 
L 194.305551 170.290263 
L 198.607333 161.501681 
L 200.636241 157.374873 
L 203.204325 152.102587 
L 208.825066 140.53998 
L 209.496011 139.236649 
L 210.474332 137.342785 
L 213.892588 130.458955 
L 214.106887 129.852314 
L 214.532825 129.169206 
L 224.846804 109.480896 
L 230.148617 99.952322 
L 235.4055 90.996081 
L 240.097759 83.534605 
L 240.908151 82.234368 
L 253.225519 65.259519 
L 255.929387 62.015548 
L 261.750421 55.808083 
L 269.468922 49.070957 
L 287.182391 40.001182 
L 292.826522 39.122872 
L 294.177264 38.901182 
L 300.579951 39.34972 
L 301.773588 39.424527 
L 306.22638 40.528673 
L 322.675266 48.564471 
L 323.111822 48.844808 
L 332.092947 55.539737 
L 334.321495 57.609761 
L 335.274915 58.457461 
L 337.442919 60.522664 
L 339.442692 62.329906 
L 340.4203 63.222062 
L 346.797299 69.65648 
L 350.655751 73.697616 
L 351.166156 74.319437 
L 359.822305 83.764195 
L 364.692254 89.205345 
L 372.977713 98.226034 
L 374.862275 100.214801 
L 380.7749 106.336589 
L 382.120369 107.648881 
L 383.034579 108.527093 
L 386.514866 111.797041 
L 388.680935 113.751439 
L 389.076517 114.003613 
L 389.844942 114.699085 
L 391.891059 116.442825 
L 397.243427 120.450352 
L 402.564518 123.714046 
L 406.190203 125.486698 
L 411.245268 127.289106 
L 411.274343 127.32283 
L 411.893088 127.519281 
L 421.130346 128.366334 
L 423.917894 127.900175 
L 424.217277 127.703062 
L 431.818415 124.694605 
L 444.426772 113.242426 
L 444.685179 112.924679 
L 462.38711 81.154256 
L 462.712326 80.384273 
" style="fill:none;stroke:#8172b3;stroke-linecap:round;stroke-width:1.2;"/>
   </g>
   <g id="patch_3">
    <path d="M 36.868875 292.2945 
L 36.868875 20.4945 
" style="fill:none;stroke:#ffffff;stroke-linecap:square;stroke-linejoin:miter;"/>
   </g>
   <g id="patch_4">
    <path d="M 483.268875 292.2945 
L 483.268875 20.4945 
" style="fill:none;stroke:#ffffff;stroke-linecap:square;stroke-linejoin:miter;"/>
   </g>
   <g id="patch_5">
    <path d="M 36.868875 292.2945 
L 483.268875 292.2945 
" style="fill:none;stroke:#ffffff;stroke-linecap:square;stroke-linejoin:miter;"/>
   </g>
   <g id="patch_6">
    <path d="M 36.868875 20.4945 
L 483.268875 20.4945 
" style="fill:none;stroke:#ffffff;stroke-linecap:square;stroke-linejoin:miter;"/>
   </g>
   <g id="text_15">
    <!-- compare all regression models -->
    <g style="fill:#262626;" transform="translate(186.379125 14.4945)scale(0.096 -0.096)">
     <defs>
      <path d="M 3122 3366 
L 3122 2828 
Q 2878 2963 2633 3030 
Q 2388 3097 2138 3097 
Q 1578 3097 1268 2742 
Q 959 2388 959 1747 
Q 959 1106 1268 751 
Q 1578 397 2138 397 
Q 2388 397 2633 464 
Q 2878 531 3122 666 
L 3122 134 
Q 2881 22 2623 -34 
Q 2366 -91 2075 -91 
Q 1284 -91 818 406 
Q 353 903 353 1747 
Q 353 2603 823 3093 
Q 1294 3584 2113 3584 
Q 2378 3584 2631 3529 
Q 2884 3475 3122 3366 
z
" id="DejaVuSans-63" transform="scale(0.015625)"/>
      <path d="M 1959 3097 
Q 1497 3097 1228 2736 
Q 959 2375 959 1747 
Q 959 1119 1226 758 
Q 1494 397 1959 397 
Q 2419 397 2687 759 
Q 2956 1122 2956 1747 
Q 2956 2369 2687 2733 
Q 2419 3097 1959 3097 
z
M 1959 3584 
Q 2709 3584 3137 3096 
Q 3566 2609 3566 1747 
Q 3566 888 3137 398 
Q 2709 -91 1959 -91 
Q 1206 -91 779 398 
Q 353 888 353 1747 
Q 353 2609 779 3096 
Q 1206 3584 1959 3584 
z
" id="DejaVuSans-6f" transform="scale(0.015625)"/>
      <path d="M 3328 2828 
Q 3544 3216 3844 3400 
Q 4144 3584 4550 3584 
Q 5097 3584 5394 3201 
Q 5691 2819 5691 2113 
L 5691 0 
L 5113 0 
L 5113 2094 
Q 5113 2597 4934 2840 
Q 4756 3084 4391 3084 
Q 3944 3084 3684 2787 
Q 3425 2491 3425 1978 
L 3425 0 
L 2847 0 
L 2847 2094 
Q 2847 2600 2669 2842 
Q 2491 3084 2119 3084 
Q 1678 3084 1418 2786 
Q 1159 2488 1159 1978 
L 1159 0 
L 581 0 
L 581 3500 
L 1159 3500 
L 1159 2956 
Q 1356 3278 1631 3431 
Q 1906 3584 2284 3584 
Q 2666 3584 2933 3390 
Q 3200 3197 3328 2828 
z
" id="DejaVuSans-6d" transform="scale(0.015625)"/>
      <path d="M 1159 525 
L 1159 -1331 
L 581 -1331 
L 581 3500 
L 1159 3500 
L 1159 2969 
Q 1341 3281 1617 3432 
Q 1894 3584 2278 3584 
Q 2916 3584 3314 3078 
Q 3713 2572 3713 1747 
Q 3713 922 3314 415 
Q 2916 -91 2278 -91 
Q 1894 -91 1617 61 
Q 1341 213 1159 525 
z
M 3116 1747 
Q 3116 2381 2855 2742 
Q 2594 3103 2138 3103 
Q 1681 3103 1420 2742 
Q 1159 2381 1159 1747 
Q 1159 1113 1420 752 
Q 1681 391 2138 391 
Q 2594 391 2855 752 
Q 3116 1113 3116 1747 
z
" id="DejaVuSans-70" transform="scale(0.015625)"/>
      <path d="M 2194 1759 
Q 1497 1759 1228 1600 
Q 959 1441 959 1056 
Q 959 750 1161 570 
Q 1363 391 1709 391 
Q 2188 391 2477 730 
Q 2766 1069 2766 1631 
L 2766 1759 
L 2194 1759 
z
M 3341 1997 
L 3341 0 
L 2766 0 
L 2766 531 
Q 2569 213 2275 61 
Q 1981 -91 1556 -91 
Q 1019 -91 701 211 
Q 384 513 384 1019 
Q 384 1609 779 1909 
Q 1175 2209 1959 2209 
L 2766 2209 
L 2766 2266 
Q 2766 2663 2505 2880 
Q 2244 3097 1772 3097 
Q 1472 3097 1187 3025 
Q 903 2953 641 2809 
L 641 3341 
Q 956 3463 1253 3523 
Q 1550 3584 1831 3584 
Q 2591 3584 2966 3190 
Q 3341 2797 3341 1997 
z
" id="DejaVuSans-61" transform="scale(0.015625)"/>
      <path d="M 2631 2963 
Q 2534 3019 2420 3045 
Q 2306 3072 2169 3072 
Q 1681 3072 1420 2755 
Q 1159 2438 1159 1844 
L 1159 0 
L 581 0 
L 581 3500 
L 1159 3500 
L 1159 2956 
Q 1341 3275 1631 3429 
Q 1922 3584 2338 3584 
Q 2397 3584 2469 3576 
Q 2541 3569 2628 3553 
L 2631 2963 
z
" id="DejaVuSans-72" transform="scale(0.015625)"/>
      <path d="M 3597 1894 
L 3597 1613 
L 953 1613 
Q 991 1019 1311 708 
Q 1631 397 2203 397 
Q 2534 397 2845 478 
Q 3156 559 3463 722 
L 3463 178 
Q 3153 47 2828 -22 
Q 2503 -91 2169 -91 
Q 1331 -91 842 396 
Q 353 884 353 1716 
Q 353 2575 817 3079 
Q 1281 3584 2069 3584 
Q 2775 3584 3186 3129 
Q 3597 2675 3597 1894 
z
M 3022 2063 
Q 3016 2534 2758 2815 
Q 2500 3097 2075 3097 
Q 1594 3097 1305 2825 
Q 1016 2553 972 2059 
L 3022 2063 
z
" id="DejaVuSans-65" transform="scale(0.015625)"/>
      <path id="DejaVuSans-20" transform="scale(0.015625)"/>
      <path d="M 603 4863 
L 1178 4863 
L 1178 0 
L 603 0 
L 603 4863 
z
" id="DejaVuSans-6c" transform="scale(0.015625)"/>
      <path d="M 2906 1791 
Q 2906 2416 2648 2759 
Q 2391 3103 1925 3103 
Q 1463 3103 1205 2759 
Q 947 2416 947 1791 
Q 947 1169 1205 825 
Q 1463 481 1925 481 
Q 2391 481 2648 825 
Q 2906 1169 2906 1791 
z
M 3481 434 
Q 3481 -459 3084 -895 
Q 2688 -1331 1869 -1331 
Q 1566 -1331 1297 -1286 
Q 1028 -1241 775 -1147 
L 775 -588 
Q 1028 -725 1275 -790 
Q 1522 -856 1778 -856 
Q 2344 -856 2625 -561 
Q 2906 -266 2906 331 
L 2906 616 
Q 2728 306 2450 153 
Q 2172 0 1784 0 
Q 1141 0 747 490 
Q 353 981 353 1791 
Q 353 2603 747 3093 
Q 1141 3584 1784 3584 
Q 2172 3584 2450 3431 
Q 2728 3278 2906 2969 
L 2906 3500 
L 3481 3500 
L 3481 434 
z
" id="DejaVuSans-67" transform="scale(0.015625)"/>
      <path d="M 2834 3397 
L 2834 2853 
Q 2591 2978 2328 3040 
Q 2066 3103 1784 3103 
Q 1356 3103 1142 2972 
Q 928 2841 928 2578 
Q 928 2378 1081 2264 
Q 1234 2150 1697 2047 
L 1894 2003 
Q 2506 1872 2764 1633 
Q 3022 1394 3022 966 
Q 3022 478 2636 193 
Q 2250 -91 1575 -91 
Q 1294 -91 989 -36 
Q 684 19 347 128 
L 347 722 
Q 666 556 975 473 
Q 1284 391 1588 391 
Q 1994 391 2212 530 
Q 2431 669 2431 922 
Q 2431 1156 2273 1281 
Q 2116 1406 1581 1522 
L 1381 1569 
Q 847 1681 609 1914 
Q 372 2147 372 2553 
Q 372 3047 722 3315 
Q 1072 3584 1716 3584 
Q 2034 3584 2315 3537 
Q 2597 3491 2834 3397 
z
" id="DejaVuSans-73" transform="scale(0.015625)"/>
      <path d="M 603 3500 
L 1178 3500 
L 1178 0 
L 603 0 
L 603 3500 
z
M 603 4863 
L 1178 4863 
L 1178 4134 
L 603 4134 
L 603 4863 
z
" id="DejaVuSans-69" transform="scale(0.015625)"/>
      <path d="M 3513 2113 
L 3513 0 
L 2938 0 
L 2938 2094 
Q 2938 2591 2744 2837 
Q 2550 3084 2163 3084 
Q 1697 3084 1428 2787 
Q 1159 2491 1159 1978 
L 1159 0 
L 581 0 
L 581 3500 
L 1159 3500 
L 1159 2956 
Q 1366 3272 1645 3428 
Q 1925 3584 2291 3584 
Q 2894 3584 3203 3211 
Q 3513 2838 3513 2113 
z
" id="DejaVuSans-6e" transform="scale(0.015625)"/>
      <path d="M 2906 2969 
L 2906 4863 
L 3481 4863 
L 3481 0 
L 2906 0 
L 2906 525 
Q 2725 213 2448 61 
Q 2172 -91 1784 -91 
Q 1150 -91 751 415 
Q 353 922 353 1747 
Q 353 2572 751 3078 
Q 1150 3584 1784 3584 
Q 2172 3584 2448 3432 
Q 2725 3281 2906 2969 
z
M 947 1747 
Q 947 1113 1208 752 
Q 1469 391 1925 391 
Q 2381 391 2643 752 
Q 2906 1113 2906 1747 
Q 2906 2381 2643 2742 
Q 2381 3103 1925 3103 
Q 1469 3103 1208 2742 
Q 947 2381 947 1747 
z
" id="DejaVuSans-64" transform="scale(0.015625)"/>
     </defs>
     <use xlink:href="#DejaVuSans-63"/>
     <use x="54.980469" xlink:href="#DejaVuSans-6f"/>
     <use x="116.162109" xlink:href="#DejaVuSans-6d"/>
     <use x="213.574219" xlink:href="#DejaVuSans-70"/>
     <use x="277.050781" xlink:href="#DejaVuSans-61"/>
     <use x="338.330078" xlink:href="#DejaVuSans-72"/>
     <use x="377.193359" xlink:href="#DejaVuSans-65"/>
     <use x="438.716797" xlink:href="#DejaVuSans-20"/>
     <use x="470.503906" xlink:href="#DejaVuSans-61"/>
     <use x="531.783203" xlink:href="#DejaVuSans-6c"/>
     <use x="559.566406" xlink:href="#DejaVuSans-6c"/>
     <use x="587.349609" xlink:href="#DejaVuSans-20"/>
     <use x="619.136719" xlink:href="#DejaVuSans-72"/>
     <use x="658" xlink:href="#DejaVuSans-65"/>
     <use x="719.523438" xlink:href="#DejaVuSans-67"/>
     <use x="783" xlink:href="#DejaVuSans-72"/>
     <use x="821.863281" xlink:href="#DejaVuSans-65"/>
     <use x="883.386719" xlink:href="#DejaVuSans-73"/>
     <use x="935.486328" xlink:href="#DejaVuSans-73"/>
     <use x="987.585938" xlink:href="#DejaVuSans-69"/>
     <use x="1015.369141" xlink:href="#DejaVuSans-6f"/>
     <use x="1076.550781" xlink:href="#DejaVuSans-6e"/>
     <use x="1139.929688" xlink:href="#DejaVuSans-20"/>
     <use x="1171.716797" xlink:href="#DejaVuSans-6d"/>
     <use x="1269.128906" xlink:href="#DejaVuSans-6f"/>
     <use x="1330.310547" xlink:href="#DejaVuSans-64"/>
     <use x="1393.787109" xlink:href="#DejaVuSans-65"/>
     <use x="1455.310547" xlink:href="#DejaVuSans-6c"/>
     <use x="1483.09375" xlink:href="#DejaVuSans-73"/>
    </g>
   </g>
   <g id="legend_1">
    <g id="patch_7">
     <path d="M 43.028875 92.11825 
L 127.9915 92.11825 
Q 129.7515 92.11825 129.7515 90.35825 
L 129.7515 26.6545 
Q 129.7515 24.8945 127.9915 24.8945 
L 43.028875 24.8945 
Q 41.268875 24.8945 41.268875 26.6545 
L 41.268875 90.35825 
Q 41.268875 92.11825 43.028875 92.11825 
z
" style="fill:#eaeaf2;opacity:0.8;stroke:#cccccc;stroke-linejoin:miter;stroke-width:0.8;"/>
    </g>
    <g id="line2d_20">
     <path d="M 44.788875 32.021125 
L 62.388875 32.021125 
" style="fill:none;stroke:#4c72b0;stroke-linecap:round;stroke-width:1.2;"/>
    </g>
    <g id="line2d_21"/>
    <g id="text_16">
     <!-- true function -->
     <g style="fill:#262626;" transform="translate(69.428875 35.101125)scale(0.088 -0.088)">
      <defs>
       <path d="M 1172 4494 
L 1172 3500 
L 2356 3500 
L 2356 3053 
L 1172 3053 
L 1172 1153 
Q 1172 725 1289 603 
Q 1406 481 1766 481 
L 2356 481 
L 2356 0 
L 1766 0 
Q 1100 0 847 248 
Q 594 497 594 1153 
L 594 3053 
L 172 3053 
L 172 3500 
L 594 3500 
L 594 4494 
L 1172 4494 
z
" id="DejaVuSans-74" transform="scale(0.015625)"/>
       <path d="M 544 1381 
L 544 3500 
L 1119 3500 
L 1119 1403 
Q 1119 906 1312 657 
Q 1506 409 1894 409 
Q 2359 409 2629 706 
Q 2900 1003 2900 1516 
L 2900 3500 
L 3475 3500 
L 3475 0 
L 2900 0 
L 2900 538 
Q 2691 219 2414 64 
Q 2138 -91 1772 -91 
Q 1169 -91 856 284 
Q 544 659 544 1381 
z
M 1991 3584 
L 1991 3584 
z
" id="DejaVuSans-75" transform="scale(0.015625)"/>
       <path d="M 2375 4863 
L 2375 4384 
L 1825 4384 
Q 1516 4384 1395 4259 
Q 1275 4134 1275 3809 
L 1275 3500 
L 2222 3500 
L 2222 3053 
L 1275 3053 
L 1275 0 
L 697 0 
L 697 3053 
L 147 3053 
L 147 3500 
L 697 3500 
L 697 3744 
Q 697 4328 969 4595 
Q 1241 4863 1831 4863 
L 2375 4863 
z
" id="DejaVuSans-66" transform="scale(0.015625)"/>
      </defs>
      <use xlink:href="#DejaVuSans-74"/>
      <use x="39.208984" xlink:href="#DejaVuSans-72"/>
      <use x="80.322266" xlink:href="#DejaVuSans-75"/>
      <use x="143.701172" xlink:href="#DejaVuSans-65"/>
      <use x="205.224609" xlink:href="#DejaVuSans-20"/>
      <use x="237.011719" xlink:href="#DejaVuSans-66"/>
      <use x="272.216797" xlink:href="#DejaVuSans-75"/>
      <use x="335.595703" xlink:href="#DejaVuSans-6e"/>
      <use x="398.974609" xlink:href="#DejaVuSans-63"/>
      <use x="453.955078" xlink:href="#DejaVuSans-74"/>
      <use x="493.164062" xlink:href="#DejaVuSans-69"/>
      <use x="520.947266" xlink:href="#DejaVuSans-6f"/>
      <use x="582.128906" xlink:href="#DejaVuSans-6e"/>
     </g>
    </g>
    <g id="line2d_22"/>
    <g id="line2d_23">
     <g>
      <use style="fill:#dd8452;stroke:#dd8452;" x="53.588875" xlink:href="#mbde73a1e41" y="44.937875"/>
     </g>
    </g>
    <g id="text_17">
     <!-- DL -->
     <g style="fill:#262626;" transform="translate(69.428875 48.017875)scale(0.088 -0.088)">
      <defs>
       <path d="M 1259 4147 
L 1259 519 
L 2022 519 
Q 2988 519 3436 956 
Q 3884 1394 3884 2338 
Q 3884 3275 3436 3711 
Q 2988 4147 2022 4147 
L 1259 4147 
z
M 628 4666 
L 1925 4666 
Q 3281 4666 3915 4102 
Q 4550 3538 4550 2338 
Q 4550 1131 3912 565 
Q 3275 0 1925 0 
L 628 0 
L 628 4666 
z
" id="DejaVuSans-44" transform="scale(0.015625)"/>
       <path d="M 628 4666 
L 1259 4666 
L 1259 531 
L 3531 531 
L 3531 0 
L 628 0 
L 628 4666 
z
" id="DejaVuSans-4c" transform="scale(0.015625)"/>
      </defs>
      <use xlink:href="#DejaVuSans-44"/>
      <use x="77.001953" xlink:href="#DejaVuSans-4c"/>
     </g>
    </g>
    <g id="line2d_24">
     <path d="M 44.788875 57.854625 
L 62.388875 57.854625 
" style="fill:none;stroke:#55a868;stroke-linecap:round;stroke-width:1.2;"/>
    </g>
    <g id="line2d_25"/>
    <g id="text_18">
     <!-- SVR(RBF) -->
     <g style="fill:#262626;" transform="translate(69.428875 60.934625)scale(0.088 -0.088)">
      <defs>
       <path d="M 3425 4513 
L 3425 3897 
Q 3066 4069 2747 4153 
Q 2428 4238 2131 4238 
Q 1616 4238 1336 4038 
Q 1056 3838 1056 3469 
Q 1056 3159 1242 3001 
Q 1428 2844 1947 2747 
L 2328 2669 
Q 3034 2534 3370 2195 
Q 3706 1856 3706 1288 
Q 3706 609 3251 259 
Q 2797 -91 1919 -91 
Q 1588 -91 1214 -16 
Q 841 59 441 206 
L 441 856 
Q 825 641 1194 531 
Q 1563 422 1919 422 
Q 2459 422 2753 634 
Q 3047 847 3047 1241 
Q 3047 1584 2836 1778 
Q 2625 1972 2144 2069 
L 1759 2144 
Q 1053 2284 737 2584 
Q 422 2884 422 3419 
Q 422 4038 858 4394 
Q 1294 4750 2059 4750 
Q 2388 4750 2728 4690 
Q 3069 4631 3425 4513 
z
" id="DejaVuSans-53" transform="scale(0.015625)"/>
       <path d="M 1831 0 
L 50 4666 
L 709 4666 
L 2188 738 
L 3669 4666 
L 4325 4666 
L 2547 0 
L 1831 0 
z
" id="DejaVuSans-56" transform="scale(0.015625)"/>
       <path d="M 2841 2188 
Q 3044 2119 3236 1894 
Q 3428 1669 3622 1275 
L 4263 0 
L 3584 0 
L 2988 1197 
Q 2756 1666 2539 1819 
Q 2322 1972 1947 1972 
L 1259 1972 
L 1259 0 
L 628 0 
L 628 4666 
L 2053 4666 
Q 2853 4666 3247 4331 
Q 3641 3997 3641 3322 
Q 3641 2881 3436 2590 
Q 3231 2300 2841 2188 
z
M 1259 4147 
L 1259 2491 
L 2053 2491 
Q 2509 2491 2742 2702 
Q 2975 2913 2975 3322 
Q 2975 3731 2742 3939 
Q 2509 4147 2053 4147 
L 1259 4147 
z
" id="DejaVuSans-52" transform="scale(0.015625)"/>
       <path d="M 1984 4856 
Q 1566 4138 1362 3434 
Q 1159 2731 1159 2009 
Q 1159 1288 1364 580 
Q 1569 -128 1984 -844 
L 1484 -844 
Q 1016 -109 783 600 
Q 550 1309 550 2009 
Q 550 2706 781 3412 
Q 1013 4119 1484 4856 
L 1984 4856 
z
" id="DejaVuSans-28" transform="scale(0.015625)"/>
       <path d="M 1259 2228 
L 1259 519 
L 2272 519 
Q 2781 519 3026 730 
Q 3272 941 3272 1375 
Q 3272 1813 3026 2020 
Q 2781 2228 2272 2228 
L 1259 2228 
z
M 1259 4147 
L 1259 2741 
L 2194 2741 
Q 2656 2741 2882 2914 
Q 3109 3088 3109 3444 
Q 3109 3797 2882 3972 
Q 2656 4147 2194 4147 
L 1259 4147 
z
M 628 4666 
L 2241 4666 
Q 2963 4666 3353 4366 
Q 3744 4066 3744 3513 
Q 3744 3084 3544 2831 
Q 3344 2578 2956 2516 
Q 3422 2416 3680 2098 
Q 3938 1781 3938 1306 
Q 3938 681 3513 340 
Q 3088 0 2303 0 
L 628 0 
L 628 4666 
z
" id="DejaVuSans-42" transform="scale(0.015625)"/>
       <path d="M 628 4666 
L 3309 4666 
L 3309 4134 
L 1259 4134 
L 1259 2759 
L 3109 2759 
L 3109 2228 
L 1259 2228 
L 1259 0 
L 628 0 
L 628 4666 
z
" id="DejaVuSans-46" transform="scale(0.015625)"/>
       <path d="M 513 4856 
L 1013 4856 
Q 1481 4119 1714 3412 
Q 1947 2706 1947 2009 
Q 1947 1309 1714 600 
Q 1481 -109 1013 -844 
L 513 -844 
Q 928 -128 1133 580 
Q 1338 1288 1338 2009 
Q 1338 2731 1133 3434 
Q 928 4138 513 4856 
z
" id="DejaVuSans-29" transform="scale(0.015625)"/>
      </defs>
      <use xlink:href="#DejaVuSans-53"/>
      <use x="63.476562" xlink:href="#DejaVuSans-56"/>
      <use x="131.884766" xlink:href="#DejaVuSans-52"/>
      <use x="201.367188" xlink:href="#DejaVuSans-28"/>
      <use x="240.380859" xlink:href="#DejaVuSans-52"/>
      <use x="309.863281" xlink:href="#DejaVuSans-42"/>
      <use x="378.466797" xlink:href="#DejaVuSans-46"/>
      <use x="435.986328" xlink:href="#DejaVuSans-29"/>
     </g>
    </g>
    <g id="line2d_26">
     <path d="M 44.788875 70.771375 
L 62.388875 70.771375 
" style="fill:none;stroke:#c44e52;stroke-linecap:round;stroke-width:1.2;"/>
    </g>
    <g id="line2d_27"/>
    <g id="text_19">
     <!-- Lasso(RBF) -->
     <g style="fill:#262626;" transform="translate(69.428875 73.851375)scale(0.088 -0.088)">
      <use xlink:href="#DejaVuSans-4c"/>
      <use x="55.712891" xlink:href="#DejaVuSans-61"/>
      <use x="116.992188" xlink:href="#DejaVuSans-73"/>
      <use x="169.091797" xlink:href="#DejaVuSans-73"/>
      <use x="221.191406" xlink:href="#DejaVuSans-6f"/>
      <use x="282.373047" xlink:href="#DejaVuSans-28"/>
      <use x="321.386719" xlink:href="#DejaVuSans-52"/>
      <use x="390.869141" xlink:href="#DejaVuSans-42"/>
      <use x="459.472656" xlink:href="#DejaVuSans-46"/>
      <use x="516.992188" xlink:href="#DejaVuSans-29"/>
     </g>
    </g>
    <g id="line2d_28">
     <path d="M 44.788875 83.688125 
L 62.388875 83.688125 
" style="fill:none;stroke:#8172b3;stroke-linecap:round;stroke-width:1.2;"/>
    </g>
    <g id="line2d_29"/>
    <g id="text_20">
     <!-- Ridge(RBF) -->
     <g style="fill:#262626;" transform="translate(69.428875 86.768125)scale(0.088 -0.088)">
      <use xlink:href="#DejaVuSans-52"/>
      <use x="69.482422" xlink:href="#DejaVuSans-69"/>
      <use x="97.265625" xlink:href="#DejaVuSans-64"/>
      <use x="160.742188" xlink:href="#DejaVuSans-67"/>
      <use x="224.21875" xlink:href="#DejaVuSans-65"/>
      <use x="285.742188" xlink:href="#DejaVuSans-28"/>
      <use x="324.755859" xlink:href="#DejaVuSans-52"/>
      <use x="394.238281" xlink:href="#DejaVuSans-42"/>
      <use x="462.841797" xlink:href="#DejaVuSans-46"/>
      <use x="520.361328" xlink:href="#DejaVuSans-29"/>
     </g>
    </g>
   </g>
  </g>
 </g>
 <defs>
  <clipPath id="p90a2318b58">
   <rect height="271.8" width="446.4" x="36.868875" y="20.4945"/>
  </clipPath>
 </defs>
</svg>
