<?xml version="1.0" encoding="utf-8" standalone="no"?>
<!DOCTYPE svg PUBLIC "-//W3C//DTD SVG 1.1//EN"
  "http://www.w3.org/Graphics/SVG/1.1/DTD/svg11.dtd">
<svg height="248.65675pt" version="1.1" viewBox="0 0 370.473125 248.65675" width="370.473125pt" xmlns="http://www.w3.org/2000/svg" xmlns:xlink="http://www.w3.org/1999/xlink">
 <metadata>
  <rdf:RDF xmlns:cc="http://creativecommons.org/ns#" xmlns:dc="http://purl.org/dc/elements/1.1/" xmlns:rdf="http://www.w3.org/1999/02/22-rdf-syntax-ns#">
   <cc:Work>
    <dc:type rdf:resource="http://purl.org/dc/dcmitype/StillImage"/>
    <dc:date>2021-05-02T00:35:01.258185</dc:date>
    <dc:format>image/svg+xml</dc:format>
    <dc:creator>
     <cc:Agent>
      <dc:title>Matplotlib v3.4.1, https://matplotlib.org/</dc:title>
     </cc:Agent>
    </dc:creator>
   </cc:Work>
  </rdf:RDF>
 </metadata>
 <defs>
  <style type="text/css">*{stroke-linecap:butt;stroke-linejoin:round;}</style>
 </defs>
 <g id="figure_1">
  <g id="patch_1">
   <path d="M 0 248.65675 
L 370.473125 248.65675 
L 370.473125 0 
L 0 0 
z
" style="fill:#ffffff;"/>
  </g>
  <g id="axes_1">
   <g id="patch_2">
    <path d="M 28.473125 224.64 
L 363.273125 224.64 
L 363.273125 7.2 
L 28.473125 7.2 
z
" style="fill:#eaeaf2;"/>
   </g>
   <g id="matplotlib.axis_1">
    <g id="xtick_1">
     <g id="line2d_1">
      <path clip-path="url(#pd7795e00bb)" d="M 38.686154 224.64 
L 38.686154 7.2 
" style="fill:none;stroke:#ffffff;stroke-dasharray:2.96,1.28;stroke-dashoffset:0;stroke-width:0.8;"/>
     </g>
     <g id="text_1">
      <!-- 0.0 -->
      <g style="fill:#262626;" transform="translate(31.688779 239.626625)scale(0.088 -0.088)">
       <defs>
        <path d="M 2034 4250 
Q 1547 4250 1301 3770 
Q 1056 3291 1056 2328 
Q 1056 1369 1301 889 
Q 1547 409 2034 409 
Q 2525 409 2770 889 
Q 3016 1369 3016 2328 
Q 3016 3291 2770 3770 
Q 2525 4250 2034 4250 
z
M 2034 4750 
Q 2819 4750 3233 4129 
Q 3647 3509 3647 2328 
Q 3647 1150 3233 529 
Q 2819 -91 2034 -91 
Q 1250 -91 836 529 
Q 422 1150 422 2328 
Q 422 3509 836 4129 
Q 1250 4750 2034 4750 
z
" id="DejaVuSans-30" transform="scale(0.015625)"/>
        <path d="M 684 794 
L 1344 794 
L 1344 0 
L 684 0 
L 684 794 
z
" id="DejaVuSans-2e" transform="scale(0.015625)"/>
       </defs>
       <use xlink:href="#DejaVuSans-30"/>
       <use x="63.623047" xlink:href="#DejaVuSans-2e"/>
       <use x="95.410156" xlink:href="#DejaVuSans-30"/>
      </g>
     </g>
    </g>
    <g id="xtick_2">
     <g id="line2d_2">
      <path clip-path="url(#pd7795e00bb)" d="M 100.60044 224.64 
L 100.60044 7.2 
" style="fill:none;stroke:#ffffff;stroke-dasharray:2.96,1.28;stroke-dashoffset:0;stroke-width:0.8;"/>
     </g>
     <g id="text_2">
      <!-- 0.2 -->
      <g style="fill:#262626;" transform="translate(93.603065 239.626625)scale(0.088 -0.088)">
       <defs>
        <path d="M 1228 531 
L 3431 531 
L 3431 0 
L 469 0 
L 469 531 
Q 828 903 1448 1529 
Q 2069 2156 2228 2338 
Q 2531 2678 2651 2914 
Q 2772 3150 2772 3378 
Q 2772 3750 2511 3984 
Q 2250 4219 1831 4219 
Q 1534 4219 1204 4116 
Q 875 4013 500 3803 
L 500 4441 
Q 881 4594 1212 4672 
Q 1544 4750 1819 4750 
Q 2544 4750 2975 4387 
Q 3406 4025 3406 3419 
Q 3406 3131 3298 2873 
Q 3191 2616 2906 2266 
Q 2828 2175 2409 1742 
Q 1991 1309 1228 531 
z
" id="DejaVuSans-32" transform="scale(0.015625)"/>
       </defs>
       <use xlink:href="#DejaVuSans-30"/>
       <use x="63.623047" xlink:href="#DejaVuSans-2e"/>
       <use x="95.410156" xlink:href="#DejaVuSans-32"/>
      </g>
     </g>
    </g>
    <g id="xtick_3">
     <g id="line2d_3">
      <path clip-path="url(#pd7795e00bb)" d="M 162.514725 224.64 
L 162.514725 7.2 
" style="fill:none;stroke:#ffffff;stroke-dasharray:2.96,1.28;stroke-dashoffset:0;stroke-width:0.8;"/>
     </g>
     <g id="text_3">
      <!-- 0.4 -->
      <g style="fill:#262626;" transform="translate(155.51735 239.626625)scale(0.088 -0.088)">
       <defs>
        <path d="M 2419 4116 
L 825 1625 
L 2419 1625 
L 2419 4116 
z
M 2253 4666 
L 3047 4666 
L 3047 1625 
L 3713 1625 
L 3713 1100 
L 3047 1100 
L 3047 0 
L 2419 0 
L 2419 1100 
L 313 1100 
L 313 1709 
L 2253 4666 
z
" id="DejaVuSans-34" transform="scale(0.015625)"/>
       </defs>
       <use xlink:href="#DejaVuSans-30"/>
       <use x="63.623047" xlink:href="#DejaVuSans-2e"/>
       <use x="95.410156" xlink:href="#DejaVuSans-34"/>
      </g>
     </g>
    </g>
    <g id="xtick_4">
     <g id="line2d_4">
      <path clip-path="url(#pd7795e00bb)" d="M 224.429011 224.64 
L 224.429011 7.2 
" style="fill:none;stroke:#ffffff;stroke-dasharray:2.96,1.28;stroke-dashoffset:0;stroke-width:0.8;"/>
     </g>
     <g id="text_4">
      <!-- 0.6 -->
      <g style="fill:#262626;" transform="translate(217.431636 239.626625)scale(0.088 -0.088)">
       <defs>
        <path d="M 2113 2584 
Q 1688 2584 1439 2293 
Q 1191 2003 1191 1497 
Q 1191 994 1439 701 
Q 1688 409 2113 409 
Q 2538 409 2786 701 
Q 3034 994 3034 1497 
Q 3034 2003 2786 2293 
Q 2538 2584 2113 2584 
z
M 3366 4563 
L 3366 3988 
Q 3128 4100 2886 4159 
Q 2644 4219 2406 4219 
Q 1781 4219 1451 3797 
Q 1122 3375 1075 2522 
Q 1259 2794 1537 2939 
Q 1816 3084 2150 3084 
Q 2853 3084 3261 2657 
Q 3669 2231 3669 1497 
Q 3669 778 3244 343 
Q 2819 -91 2113 -91 
Q 1303 -91 875 529 
Q 447 1150 447 2328 
Q 447 3434 972 4092 
Q 1497 4750 2381 4750 
Q 2619 4750 2861 4703 
Q 3103 4656 3366 4563 
z
" id="DejaVuSans-36" transform="scale(0.015625)"/>
       </defs>
       <use xlink:href="#DejaVuSans-30"/>
       <use x="63.623047" xlink:href="#DejaVuSans-2e"/>
       <use x="95.410156" xlink:href="#DejaVuSans-36"/>
      </g>
     </g>
    </g>
    <g id="xtick_5">
     <g id="line2d_5">
      <path clip-path="url(#pd7795e00bb)" d="M 286.343296 224.64 
L 286.343296 7.2 
" style="fill:none;stroke:#ffffff;stroke-dasharray:2.96,1.28;stroke-dashoffset:0;stroke-width:0.8;"/>
     </g>
     <g id="text_5">
      <!-- 0.8 -->
      <g style="fill:#262626;" transform="translate(279.345921 239.626625)scale(0.088 -0.088)">
       <defs>
        <path d="M 2034 2216 
Q 1584 2216 1326 1975 
Q 1069 1734 1069 1313 
Q 1069 891 1326 650 
Q 1584 409 2034 409 
Q 2484 409 2743 651 
Q 3003 894 3003 1313 
Q 3003 1734 2745 1975 
Q 2488 2216 2034 2216 
z
M 1403 2484 
Q 997 2584 770 2862 
Q 544 3141 544 3541 
Q 544 4100 942 4425 
Q 1341 4750 2034 4750 
Q 2731 4750 3128 4425 
Q 3525 4100 3525 3541 
Q 3525 3141 3298 2862 
Q 3072 2584 2669 2484 
Q 3125 2378 3379 2068 
Q 3634 1759 3634 1313 
Q 3634 634 3220 271 
Q 2806 -91 2034 -91 
Q 1263 -91 848 271 
Q 434 634 434 1313 
Q 434 1759 690 2068 
Q 947 2378 1403 2484 
z
M 1172 3481 
Q 1172 3119 1398 2916 
Q 1625 2713 2034 2713 
Q 2441 2713 2670 2916 
Q 2900 3119 2900 3481 
Q 2900 3844 2670 4047 
Q 2441 4250 2034 4250 
Q 1625 4250 1398 4047 
Q 1172 3844 1172 3481 
z
" id="DejaVuSans-38" transform="scale(0.015625)"/>
       </defs>
       <use xlink:href="#DejaVuSans-30"/>
       <use x="63.623047" xlink:href="#DejaVuSans-2e"/>
       <use x="95.410156" xlink:href="#DejaVuSans-38"/>
      </g>
     </g>
    </g>
    <g id="xtick_6">
     <g id="line2d_6">
      <path clip-path="url(#pd7795e00bb)" d="M 348.257582 224.64 
L 348.257582 7.2 
" style="fill:none;stroke:#ffffff;stroke-dasharray:2.96,1.28;stroke-dashoffset:0;stroke-width:0.8;"/>
     </g>
     <g id="text_6">
      <!-- 1.0 -->
      <g style="fill:#262626;" transform="translate(341.260207 239.626625)scale(0.088 -0.088)">
       <defs>
        <path d="M 794 531 
L 1825 531 
L 1825 4091 
L 703 3866 
L 703 4441 
L 1819 4666 
L 2450 4666 
L 2450 531 
L 3481 531 
L 3481 0 
L 794 0 
L 794 531 
z
" id="DejaVuSans-31" transform="scale(0.015625)"/>
       </defs>
       <use xlink:href="#DejaVuSans-31"/>
       <use x="63.623047" xlink:href="#DejaVuSans-2e"/>
       <use x="95.410156" xlink:href="#DejaVuSans-30"/>
      </g>
     </g>
    </g>
   </g>
   <g id="matplotlib.axis_2">
    <g id="ytick_1">
     <g id="line2d_7">
      <path clip-path="url(#pd7795e00bb)" d="M 28.473125 188.238378 
L 363.273125 188.238378 
" style="fill:none;stroke:#ffffff;stroke-dasharray:2.96,1.28;stroke-dashoffset:0;stroke-width:0.8;"/>
     </g>
     <g id="text_7">
      <!-- −2 -->
      <g style="fill:#262626;" transform="translate(7.2 191.58169)scale(0.088 -0.088)">
       <defs>
        <path d="M 678 2272 
L 4684 2272 
L 4684 1741 
L 678 1741 
L 678 2272 
z
" id="DejaVuSans-2212" transform="scale(0.015625)"/>
       </defs>
       <use xlink:href="#DejaVuSans-2212"/>
       <use x="83.789062" xlink:href="#DejaVuSans-32"/>
      </g>
     </g>
    </g>
    <g id="ytick_2">
     <g id="line2d_8">
      <path clip-path="url(#pd7795e00bb)" d="M 28.473125 148.952688 
L 363.273125 148.952688 
" style="fill:none;stroke:#ffffff;stroke-dasharray:2.96,1.28;stroke-dashoffset:0;stroke-width:0.8;"/>
     </g>
     <g id="text_8">
      <!-- −1 -->
      <g style="fill:#262626;" transform="translate(7.2 152.296001)scale(0.088 -0.088)">
       <use xlink:href="#DejaVuSans-2212"/>
       <use x="83.789062" xlink:href="#DejaVuSans-31"/>
      </g>
     </g>
    </g>
    <g id="ytick_3">
     <g id="line2d_9">
      <path clip-path="url(#pd7795e00bb)" d="M 28.473125 109.666998 
L 363.273125 109.666998 
" style="fill:none;stroke:#ffffff;stroke-dasharray:2.96,1.28;stroke-dashoffset:0;stroke-width:0.8;"/>
     </g>
     <g id="text_9">
      <!-- 0 -->
      <g style="fill:#262626;" transform="translate(14.574125 113.010311)scale(0.088 -0.088)">
       <use xlink:href="#DejaVuSans-30"/>
      </g>
     </g>
    </g>
    <g id="ytick_4">
     <g id="line2d_10">
      <path clip-path="url(#pd7795e00bb)" d="M 28.473125 70.381309 
L 363.273125 70.381309 
" style="fill:none;stroke:#ffffff;stroke-dasharray:2.96,1.28;stroke-dashoffset:0;stroke-width:0.8;"/>
     </g>
     <g id="text_10">
      <!-- 1 -->
      <g style="fill:#262626;" transform="translate(14.574125 73.724621)scale(0.088 -0.088)">
       <use xlink:href="#DejaVuSans-31"/>
      </g>
     </g>
    </g>
    <g id="ytick_5">
     <g id="line2d_11">
      <path clip-path="url(#pd7795e00bb)" d="M 28.473125 31.095619 
L 363.273125 31.095619 
" style="fill:none;stroke:#ffffff;stroke-dasharray:2.96,1.28;stroke-dashoffset:0;stroke-width:0.8;"/>
     </g>
     <g id="text_11">
      <!-- 2 -->
      <g style="fill:#262626;" transform="translate(14.574125 34.438932)scale(0.088 -0.088)">
       <use xlink:href="#DejaVuSans-32"/>
      </g>
     </g>
    </g>
   </g>
   <g id="PathCollection_1">
    <defs>
     <path d="M 0 2.4 
C 0.636487 2.4 1.246992 2.147121 1.697056 1.697056 
C 2.147121 1.246992 2.4 0.636487 2.4 0 
C 2.4 -0.636487 2.147121 -1.246992 1.697056 -1.697056 
C 1.246992 -2.147121 0.636487 -2.4 0 -2.4 
C -0.636487 -2.4 -1.246992 -2.147121 -1.697056 -1.697056 
C -2.147121 -1.246992 -2.4 -0.636487 -2.4 0 
C -2.4 0.636487 -2.147121 1.246992 -1.697056 1.697056 
C -1.246992 2.147121 -0.636487 2.4 0 2.4 
z
" id="m5431854189" style="stroke:#4c72b0;stroke-width:0.8;"/>
    </defs>
    <g clip-path="url(#pd7795e00bb)">
     <use style="fill:#4c72b0;stroke:#4c72b0;stroke-width:0.8;" x="43.691307" xlink:href="#m5431854189" y="104.852419"/>
     <use style="fill:#4c72b0;stroke:#4c72b0;stroke-width:0.8;" x="46.241336" xlink:href="#m5431854189" y="90.938356"/>
     <use style="fill:#4c72b0;stroke:#4c72b0;stroke-width:0.8;" x="48.422872" xlink:href="#m5431854189" y="110.341243"/>
     <use style="fill:#4c72b0;stroke:#4c72b0;stroke-width:0.8;" x="57.243803" xlink:href="#m5431854189" y="160.346237"/>
     <use style="fill:#4c72b0;stroke:#4c72b0;stroke-width:0.8;" x="60.416427" xlink:href="#m5431854189" y="132.668956"/>
     <use style="fill:#4c72b0;stroke:#4c72b0;stroke-width:0.8;" x="63.129024" xlink:href="#m5431854189" y="178.243229"/>
     <use style="fill:#4c72b0;stroke:#4c72b0;stroke-width:0.8;" x="65.815062" xlink:href="#m5431854189" y="152.183699"/>
     <use style="fill:#4c72b0;stroke:#4c72b0;stroke-width:0.8;" x="65.8731" xlink:href="#m5431854189" y="190.6362"/>
     <use style="fill:#4c72b0;stroke:#4c72b0;stroke-width:0.8;" x="67.498511" xlink:href="#m5431854189" y="192.568827"/>
     <use style="fill:#4c72b0;stroke:#4c72b0;stroke-width:0.8;" x="67.798286" xlink:href="#m5431854189" y="188.023447"/>
     <use style="fill:#4c72b0;stroke:#4c72b0;stroke-width:0.8;" x="71.487982" xlink:href="#m5431854189" y="183.128192"/>
     <use style="fill:#4c72b0;stroke:#4c72b0;stroke-width:0.8;" x="75.351935" xlink:href="#m5431854189" y="188.028282"/>
     <use style="fill:#4c72b0;stroke:#4c72b0;stroke-width:0.8;" x="79.36505" xlink:href="#m5431854189" y="208.239942"/>
     <use style="fill:#4c72b0;stroke:#4c72b0;stroke-width:0.8;" x="80.5601" xlink:href="#m5431854189" y="167.165336"/>
     <use style="fill:#4c72b0;stroke:#4c72b0;stroke-width:0.8;" x="86.591974" xlink:href="#m5431854189" y="182.280075"/>
     <use style="fill:#4c72b0;stroke:#4c72b0;stroke-width:0.8;" x="90.681846" xlink:href="#m5431854189" y="184.96363"/>
     <use style="fill:#4c72b0;stroke:#4c72b0;stroke-width:0.8;" x="90.944988" xlink:href="#m5431854189" y="214.756364"/>
     <use style="fill:#4c72b0;stroke:#4c72b0;stroke-width:0.8;" x="94.903815" xlink:href="#m5431854189" y="195.406707"/>
     <use style="fill:#4c72b0;stroke:#4c72b0;stroke-width:0.8;" x="96.976516" xlink:href="#m5431854189" y="188.452377"/>
     <use style="fill:#4c72b0;stroke:#4c72b0;stroke-width:0.8;" x="102.366914" xlink:href="#m5431854189" y="170.746383"/>
     <use style="fill:#4c72b0;stroke:#4c72b0;stroke-width:0.8;" x="102.675356" xlink:href="#m5431854189" y="197.831673"/>
     <use style="fill:#4c72b0;stroke:#4c72b0;stroke-width:0.8;" x="103.129559" xlink:href="#m5431854189" y="198.586532"/>
     <use style="fill:#4c72b0;stroke:#4c72b0;stroke-width:0.8;" x="104.620144" xlink:href="#m5431854189" y="183.318588"/>
     <use style="fill:#4c72b0;stroke:#4c72b0;stroke-width:0.8;" x="108.12206" xlink:href="#m5431854189" y="193.885406"/>
     <use style="fill:#4c72b0;stroke:#4c72b0;stroke-width:0.8;" x="112.757255" xlink:href="#m5431854189" y="164.787857"/>
     <use style="fill:#4c72b0;stroke:#4c72b0;stroke-width:0.8;" x="115.970242" xlink:href="#m5431854189" y="181.492258"/>
     <use style="fill:#4c72b0;stroke:#4c72b0;stroke-width:0.8;" x="116.001919" xlink:href="#m5431854189" y="171.466462"/>
     <use style="fill:#4c72b0;stroke:#4c72b0;stroke-width:0.8;" x="118.704725" xlink:href="#m5431854189" y="139.866433"/>
     <use style="fill:#4c72b0;stroke:#4c72b0;stroke-width:0.8;" x="122.515503" xlink:href="#m5431854189" y="168.693677"/>
     <use style="fill:#4c72b0;stroke:#4c72b0;stroke-width:0.8;" x="123.40302" xlink:href="#m5431854189" y="171.991509"/>
     <use style="fill:#4c72b0;stroke:#4c72b0;stroke-width:0.8;" x="123.893564" xlink:href="#m5431854189" y="163.421561"/>
     <use style="fill:#4c72b0;stroke:#4c72b0;stroke-width:0.8;" x="125.014461" xlink:href="#m5431854189" y="177.837019"/>
     <use style="fill:#4c72b0;stroke:#4c72b0;stroke-width:0.8;" x="125.159576" xlink:href="#m5431854189" y="213.989626"/>
     <use style="fill:#4c72b0;stroke:#4c72b0;stroke-width:0.8;" x="130.035748" xlink:href="#m5431854189" y="161.081316"/>
     <use style="fill:#4c72b0;stroke:#4c72b0;stroke-width:0.8;" x="131.618542" xlink:href="#m5431854189" y="156.701285"/>
     <use style="fill:#4c72b0;stroke:#4c72b0;stroke-width:0.8;" x="133.085874" xlink:href="#m5431854189" y="147.952607"/>
     <use style="fill:#4c72b0;stroke:#4c72b0;stroke-width:0.8;" x="134.480173" xlink:href="#m5431854189" y="132.860513"/>
     <use style="fill:#4c72b0;stroke:#4c72b0;stroke-width:0.8;" x="140.107493" xlink:href="#m5431854189" y="134.07798"/>
     <use style="fill:#4c72b0;stroke:#4c72b0;stroke-width:0.8;" x="143.305446" xlink:href="#m5431854189" y="164.452805"/>
     <use style="fill:#4c72b0;stroke:#4c72b0;stroke-width:0.8;" x="146.586987" xlink:href="#m5431854189" y="95.000709"/>
     <use style="fill:#4c72b0;stroke:#4c72b0;stroke-width:0.8;" x="148.134704" xlink:href="#m5431854189" y="132.059982"/>
     <use style="fill:#4c72b0;stroke:#4c72b0;stroke-width:0.8;" x="150.093723" xlink:href="#m5431854189" y="123.437803"/>
     <use style="fill:#4c72b0;stroke:#4c72b0;stroke-width:0.8;" x="154.381409" xlink:href="#m5431854189" y="97.259764"/>
     <use style="fill:#4c72b0;stroke:#4c72b0;stroke-width:0.8;" x="154.893227" xlink:href="#m5431854189" y="105.380418"/>
     <use style="fill:#4c72b0;stroke:#4c72b0;stroke-width:0.8;" x="155.639523" xlink:href="#m5431854189" y="117.220314"/>
     <use style="fill:#4c72b0;stroke:#4c72b0;stroke-width:0.8;" x="158.247081" xlink:href="#m5431854189" y="98.353838"/>
     <use style="fill:#4c72b0;stroke:#4c72b0;stroke-width:0.8;" x="158.410555" xlink:href="#m5431854189" y="99.782623"/>
     <use style="fill:#4c72b0;stroke:#4c72b0;stroke-width:0.8;" x="158.735475" xlink:href="#m5431854189" y="111.968298"/>
     <use style="fill:#4c72b0;stroke:#4c72b0;stroke-width:0.8;" x="166.603316" xlink:href="#m5431854189" y="106.780429"/>
     <use style="fill:#4c72b0;stroke:#4c72b0;stroke-width:0.8;" x="170.647714" xlink:href="#m5431854189" y="88.0212"/>
     <use style="fill:#4c72b0;stroke:#4c72b0;stroke-width:0.8;" x="174.657836" xlink:href="#m5431854189" y="98.85074"/>
     <use style="fill:#4c72b0;stroke:#4c72b0;stroke-width:0.8;" x="178.237245" xlink:href="#m5431854189" y="101.51825"/>
     <use style="fill:#4c72b0;stroke:#4c72b0;stroke-width:0.8;" x="178.855439" xlink:href="#m5431854189" y="69.231978"/>
     <use style="fill:#4c72b0;stroke:#4c72b0;stroke-width:0.8;" x="188.251532" xlink:href="#m5431854189" y="66.750752"/>
     <use style="fill:#4c72b0;stroke:#4c72b0;stroke-width:0.8;" x="190.314131" xlink:href="#m5431854189" y="17.083636"/>
     <use style="fill:#4c72b0;stroke:#4c72b0;stroke-width:0.8;" x="194.754607" xlink:href="#m5431854189" y="70.695201"/>
     <use style="fill:#4c72b0;stroke:#4c72b0;stroke-width:0.8;" x="200.642533" xlink:href="#m5431854189" y="86.614647"/>
     <use style="fill:#4c72b0;stroke:#4c72b0;stroke-width:0.8;" x="214.154948" xlink:href="#m5431854189" y="52.933378"/>
     <use style="fill:#4c72b0;stroke:#4c72b0;stroke-width:0.8;" x="218.460476" xlink:href="#m5431854189" y="51.949379"/>
     <use style="fill:#4c72b0;stroke:#4c72b0;stroke-width:0.8;" x="219.490867" xlink:href="#m5431854189" y="107.250273"/>
     <use style="fill:#4c72b0;stroke:#4c72b0;stroke-width:0.8;" x="224.375046" xlink:href="#m5431854189" y="55.672921"/>
     <use style="fill:#4c72b0;stroke:#4c72b0;stroke-width:0.8;" x="225.285592" xlink:href="#m5431854189" y="45.35155"/>
     <use style="fill:#4c72b0;stroke:#4c72b0;stroke-width:0.8;" x="228.682328" xlink:href="#m5431854189" y="38.416719"/>
     <use style="fill:#4c72b0;stroke:#4c72b0;stroke-width:0.8;" x="241.230077" xlink:href="#m5431854189" y="27.132175"/>
     <use style="fill:#4c72b0;stroke:#4c72b0;stroke-width:0.8;" x="241.563097" xlink:href="#m5431854189" y="88.080907"/>
     <use style="fill:#4c72b0;stroke:#4c72b0;stroke-width:0.8;" x="248.414194" xlink:href="#m5431854189" y="39.860948"/>
     <use style="fill:#4c72b0;stroke:#4c72b0;stroke-width:0.8;" x="250.114204" xlink:href="#m5431854189" y="47.821206"/>
     <use style="fill:#4c72b0;stroke:#4c72b0;stroke-width:0.8;" x="250.841504" xlink:href="#m5431854189" y="49.970094"/>
     <use style="fill:#4c72b0;stroke:#4c72b0;stroke-width:0.8;" x="252.495328" xlink:href="#m5431854189" y="47.480429"/>
     <use style="fill:#4c72b0;stroke:#4c72b0;stroke-width:0.8;" x="254.02082" xlink:href="#m5431854189" y="60.080966"/>
     <use style="fill:#4c72b0;stroke:#4c72b0;stroke-width:0.8;" x="254.766572" xlink:href="#m5431854189" y="86.35528"/>
     <use style="fill:#4c72b0;stroke:#4c72b0;stroke-width:0.8;" x="259.631156" xlink:href="#m5431854189" y="103.309489"/>
     <use style="fill:#4c72b0;stroke:#4c72b0;stroke-width:0.8;" x="262.57451" xlink:href="#m5431854189" y="85.318529"/>
     <use style="fill:#4c72b0;stroke:#4c72b0;stroke-width:0.8;" x="262.963863" xlink:href="#m5431854189" y="59.24862"/>
     <use style="fill:#4c72b0;stroke:#4c72b0;stroke-width:0.8;" x="269.567059" xlink:href="#m5431854189" y="105.199456"/>
     <use style="fill:#4c72b0;stroke:#4c72b0;stroke-width:0.8;" x="273.282015" xlink:href="#m5431854189" y="90.296723"/>
     <use style="fill:#4c72b0;stroke:#4c72b0;stroke-width:0.8;" x="279.602435" xlink:href="#m5431854189" y="90.596838"/>
     <use style="fill:#4c72b0;stroke:#4c72b0;stroke-width:0.8;" x="281.040041" xlink:href="#m5431854189" y="108.790079"/>
     <use style="fill:#4c72b0;stroke:#4c72b0;stroke-width:0.8;" x="285.550385" xlink:href="#m5431854189" y="100.756458"/>
     <use style="fill:#4c72b0;stroke:#4c72b0;stroke-width:0.8;" x="286.576753" xlink:href="#m5431854189" y="80.837765"/>
     <use style="fill:#4c72b0;stroke:#4c72b0;stroke-width:0.8;" x="287.274143" xlink:href="#m5431854189" y="118.643164"/>
     <use style="fill:#4c72b0;stroke:#4c72b0;stroke-width:0.8;" x="289.92902" xlink:href="#m5431854189" y="125.706987"/>
     <use style="fill:#4c72b0;stroke:#4c72b0;stroke-width:0.8;" x="291.581369" xlink:href="#m5431854189" y="102.31468"/>
     <use style="fill:#4c72b0;stroke:#4c72b0;stroke-width:0.8;" x="291.883131" xlink:href="#m5431854189" y="92.65184"/>
     <use style="fill:#4c72b0;stroke:#4c72b0;stroke-width:0.8;" x="292.469311" xlink:href="#m5431854189" y="140.145413"/>
     <use style="fill:#4c72b0;stroke:#4c72b0;stroke-width:0.8;" x="294.030157" xlink:href="#m5431854189" y="110.629135"/>
     <use style="fill:#4c72b0;stroke:#4c72b0;stroke-width:0.8;" x="298.113118" xlink:href="#m5431854189" y="117.345315"/>
     <use style="fill:#4c72b0;stroke:#4c72b0;stroke-width:0.8;" x="302.172221" xlink:href="#m5431854189" y="84.675009"/>
     <use style="fill:#4c72b0;stroke:#4c72b0;stroke-width:0.8;" x="304.938013" xlink:href="#m5431854189" y="110.284932"/>
     <use style="fill:#4c72b0;stroke:#4c72b0;stroke-width:0.8;" x="308.794182" xlink:href="#m5431854189" y="120.033295"/>
     <use style="fill:#4c72b0;stroke:#4c72b0;stroke-width:0.8;" x="308.816361" xlink:href="#m5431854189" y="115.581881"/>
     <use style="fill:#4c72b0;stroke:#4c72b0;stroke-width:0.8;" x="309.288361" xlink:href="#m5431854189" y="119.23558"/>
     <use style="fill:#4c72b0;stroke:#4c72b0;stroke-width:0.8;" x="316.334844" xlink:href="#m5431854189" y="80.703129"/>
     <use style="fill:#4c72b0;stroke:#4c72b0;stroke-width:0.8;" x="318.461277" xlink:href="#m5431854189" y="87.096058"/>
     <use style="fill:#4c72b0;stroke:#4c72b0;stroke-width:0.8;" x="318.689656" xlink:href="#m5431854189" y="130.148499"/>
     <use style="fill:#4c72b0;stroke:#4c72b0;stroke-width:0.8;" x="324.488054" xlink:href="#m5431854189" y="101.207019"/>
     <use style="fill:#4c72b0;stroke:#4c72b0;stroke-width:0.8;" x="334.106122" xlink:href="#m5431854189" y="111.858294"/>
     <use style="fill:#4c72b0;stroke:#4c72b0;stroke-width:0.8;" x="334.303244" xlink:href="#m5431854189" y="83.539446"/>
     <use style="fill:#4c72b0;stroke:#4c72b0;stroke-width:0.8;" x="347.806857" xlink:href="#m5431854189" y="90.883878"/>
     <use style="fill:#4c72b0;stroke:#4c72b0;stroke-width:0.8;" x="348.054943" xlink:href="#m5431854189" y="55.18236"/>
    </g>
   </g>
   <g id="line2d_12">
    <path clip-path="url(#pd7795e00bb)" d="M 43.691307 170.60366 
L 46.241336 169.712345 
L 48.422872 168.949832 
L 57.243803 165.866654 
L 60.416427 164.757724 
L 63.129024 163.809592 
L 65.815062 162.870738 
L 65.8731 162.850455 
L 67.498511 162.282324 
L 67.798286 162.177546 
L 71.487982 160.887881 
L 75.351935 159.537316 
L 79.36505 158.134612 
L 80.5601 157.716906 
L 86.591974 155.608582 
L 90.681846 154.179053 
L 90.944988 154.087074 
L 94.903815 152.703347 
L 96.976516 151.978872 
L 102.366914 150.094766 
L 102.675356 149.986958 
L 103.129559 149.828202 
L 104.620144 149.307198 
L 108.12206 148.083171 
L 112.757255 146.463033 
L 115.970242 145.339997 
L 116.001919 145.328923 
L 118.704725 144.384212 
L 122.515503 143.05223 
L 123.40302 142.742016 
L 123.893564 142.570556 
L 125.014461 142.17877 
L 125.159576 142.128048 
L 130.035748 140.42368 
L 131.618542 139.870444 
L 133.085874 139.357568 
L 134.480173 138.870218 
L 140.107493 136.903301 
L 143.305446 135.78552 
L 146.586987 134.638522 
L 148.134704 134.09755 
L 150.093723 133.412814 
L 154.381409 131.914139 
L 154.893227 131.73524 
L 155.639523 131.47439 
L 158.247081 130.56297 
L 158.410555 130.50583 
L 158.735475 130.392262 
L 166.603316 127.642214 
L 170.647714 126.228575 
L 174.657836 124.826916 
L 178.237245 123.575808 
L 178.855439 123.359729 
L 188.251532 120.075514 
L 190.314131 119.35457 
L 194.754607 117.80249 
L 200.642533 115.744482 
L 214.154948 111.021488 
L 218.460476 109.516578 
L 219.490867 109.156424 
L 224.375046 107.449255 
L 225.285592 107.130993 
L 228.682328 105.943731 
L 241.230077 101.557915 
L 241.563097 101.441519 
L 248.414194 99.046853 
L 250.114204 98.452646 
L 250.841504 98.198436 
L 252.495328 97.620373 
L 254.02082 97.087169 
L 254.766572 96.826506 
L 259.631156 95.126188 
L 262.57451 94.097397 
L 262.963863 93.961303 
L 269.567059 91.653291 
L 273.282015 90.354803 
L 279.602435 88.145625 
L 281.040041 87.643135 
L 285.550385 86.066632 
L 286.576753 85.707888 
L 287.274143 85.464136 
L 289.92902 84.536175 
L 291.581369 83.958631 
L 291.883131 83.853155 
L 292.469311 83.648264 
L 294.030157 83.102698 
L 298.113118 81.67558 
L 302.172221 80.256808 
L 304.938013 79.290079 
L 308.794182 77.94223 
L 308.816361 77.934475 
L 309.288361 77.769504 
L 316.334844 75.306543 
L 318.461277 74.563288 
L 318.689656 74.483467 
L 324.488054 72.456748 
L 334.106122 69.094946 
L 334.303244 69.026046 
L 347.806857 64.306129 
L 348.054943 64.219415 
" style="fill:none;stroke:#ff8c00;stroke-linecap:round;"/>
   </g>
   <g id="patch_3">
    <path d="M 28.473125 224.64 
L 28.473125 7.2 
" style="fill:none;stroke:#ffffff;stroke-linecap:square;stroke-linejoin:miter;"/>
   </g>
   <g id="patch_4">
    <path d="M 363.273125 224.64 
L 363.273125 7.2 
" style="fill:none;stroke:#ffffff;stroke-linecap:square;stroke-linejoin:miter;"/>
   </g>
   <g id="patch_5">
    <path d="M 28.473125 224.64 
L 363.273125 224.64 
" style="fill:none;stroke:#ffffff;stroke-linecap:square;stroke-linejoin:miter;"/>
   </g>
   <g id="patch_6">
    <path d="M 28.473125 7.2 
L 363.273125 7.2 
" style="fill:none;stroke:#ffffff;stroke-linecap:square;stroke-linejoin:miter;"/>
   </g>
   <g id="legend_1">
    <g id="patch_7">
     <path d="M 34.633125 40.0735 
L 136.311625 40.0735 
Q 138.071625 40.0735 138.071625 38.3135 
L 138.071625 13.36 
Q 138.071625 11.6 136.311625 11.6 
L 34.633125 11.6 
Q 32.873125 11.6 32.873125 13.36 
L 32.873125 38.3135 
Q 32.873125 40.0735 34.633125 40.0735 
z
" style="fill:#eaeaf2;opacity:0.8;stroke:#cccccc;stroke-linejoin:miter;stroke-width:0.8;"/>
    </g>
    <g id="line2d_13">
     <path d="M 36.393125 18.726625 
L 53.993125 18.726625 
" style="fill:none;stroke:#ff8c00;stroke-linecap:round;"/>
    </g>
    <g id="line2d_14"/>
    <g id="text_12">
     <!-- linear regression -->
     <g style="fill:#262626;" transform="translate(61.033125 21.806625)scale(0.088 -0.088)">
      <defs>
       <path d="M 603 4863 
L 1178 4863 
L 1178 0 
L 603 0 
L 603 4863 
z
" id="DejaVuSans-6c" transform="scale(0.015625)"/>
       <path d="M 603 3500 
L 1178 3500 
L 1178 0 
L 603 0 
L 603 3500 
z
M 603 4863 
L 1178 4863 
L 1178 4134 
L 603 4134 
L 603 4863 
z
" id="DejaVuSans-69" transform="scale(0.015625)"/>
       <path d="M 3513 2113 
L 3513 0 
L 2938 0 
L 2938 2094 
Q 2938 2591 2744 2837 
Q 2550 3084 2163 3084 
Q 1697 3084 1428 2787 
Q 1159 2491 1159 1978 
L 1159 0 
L 581 0 
L 581 3500 
L 1159 3500 
L 1159 2956 
Q 1366 3272 1645 3428 
Q 1925 3584 2291 3584 
Q 2894 3584 3203 3211 
Q 3513 2838 3513 2113 
z
" id="DejaVuSans-6e" transform="scale(0.015625)"/>
       <path d="M 3597 1894 
L 3597 1613 
L 953 1613 
Q 991 1019 1311 708 
Q 1631 397 2203 397 
Q 2534 397 2845 478 
Q 3156 559 3463 722 
L 3463 178 
Q 3153 47 2828 -22 
Q 2503 -91 2169 -91 
Q 1331 -91 842 396 
Q 353 884 353 1716 
Q 353 2575 817 3079 
Q 1281 3584 2069 3584 
Q 2775 3584 3186 3129 
Q 3597 2675 3597 1894 
z
M 3022 2063 
Q 3016 2534 2758 2815 
Q 2500 3097 2075 3097 
Q 1594 3097 1305 2825 
Q 1016 2553 972 2059 
L 3022 2063 
z
" id="DejaVuSans-65" transform="scale(0.015625)"/>
       <path d="M 2194 1759 
Q 1497 1759 1228 1600 
Q 959 1441 959 1056 
Q 959 750 1161 570 
Q 1363 391 1709 391 
Q 2188 391 2477 730 
Q 2766 1069 2766 1631 
L 2766 1759 
L 2194 1759 
z
M 3341 1997 
L 3341 0 
L 2766 0 
L 2766 531 
Q 2569 213 2275 61 
Q 1981 -91 1556 -91 
Q 1019 -91 701 211 
Q 384 513 384 1019 
Q 384 1609 779 1909 
Q 1175 2209 1959 2209 
L 2766 2209 
L 2766 2266 
Q 2766 2663 2505 2880 
Q 2244 3097 1772 3097 
Q 1472 3097 1187 3025 
Q 903 2953 641 2809 
L 641 3341 
Q 956 3463 1253 3523 
Q 1550 3584 1831 3584 
Q 2591 3584 2966 3190 
Q 3341 2797 3341 1997 
z
" id="DejaVuSans-61" transform="scale(0.015625)"/>
       <path d="M 2631 2963 
Q 2534 3019 2420 3045 
Q 2306 3072 2169 3072 
Q 1681 3072 1420 2755 
Q 1159 2438 1159 1844 
L 1159 0 
L 581 0 
L 581 3500 
L 1159 3500 
L 1159 2956 
Q 1341 3275 1631 3429 
Q 1922 3584 2338 3584 
Q 2397 3584 2469 3576 
Q 2541 3569 2628 3553 
L 2631 2963 
z
" id="DejaVuSans-72" transform="scale(0.015625)"/>
       <path id="DejaVuSans-20" transform="scale(0.015625)"/>
       <path d="M 2906 1791 
Q 2906 2416 2648 2759 
Q 2391 3103 1925 3103 
Q 1463 3103 1205 2759 
Q 947 2416 947 1791 
Q 947 1169 1205 825 
Q 1463 481 1925 481 
Q 2391 481 2648 825 
Q 2906 1169 2906 1791 
z
M 3481 434 
Q 3481 -459 3084 -895 
Q 2688 -1331 1869 -1331 
Q 1566 -1331 1297 -1286 
Q 1028 -1241 775 -1147 
L 775 -588 
Q 1028 -725 1275 -790 
Q 1522 -856 1778 -856 
Q 2344 -856 2625 -561 
Q 2906 -266 2906 331 
L 2906 616 
Q 2728 306 2450 153 
Q 2172 0 1784 0 
Q 1141 0 747 490 
Q 353 981 353 1791 
Q 353 2603 747 3093 
Q 1141 3584 1784 3584 
Q 2172 3584 2450 3431 
Q 2728 3278 2906 2969 
L 2906 3500 
L 3481 3500 
L 3481 434 
z
" id="DejaVuSans-67" transform="scale(0.015625)"/>
       <path d="M 2834 3397 
L 2834 2853 
Q 2591 2978 2328 3040 
Q 2066 3103 1784 3103 
Q 1356 3103 1142 2972 
Q 928 2841 928 2578 
Q 928 2378 1081 2264 
Q 1234 2150 1697 2047 
L 1894 2003 
Q 2506 1872 2764 1633 
Q 3022 1394 3022 966 
Q 3022 478 2636 193 
Q 2250 -91 1575 -91 
Q 1294 -91 989 -36 
Q 684 19 347 128 
L 347 722 
Q 666 556 975 473 
Q 1284 391 1588 391 
Q 1994 391 2212 530 
Q 2431 669 2431 922 
Q 2431 1156 2273 1281 
Q 2116 1406 1581 1522 
L 1381 1569 
Q 847 1681 609 1914 
Q 372 2147 372 2553 
Q 372 3047 722 3315 
Q 1072 3584 1716 3584 
Q 2034 3584 2315 3537 
Q 2597 3491 2834 3397 
z
" id="DejaVuSans-73" transform="scale(0.015625)"/>
       <path d="M 1959 3097 
Q 1497 3097 1228 2736 
Q 959 2375 959 1747 
Q 959 1119 1226 758 
Q 1494 397 1959 397 
Q 2419 397 2687 759 
Q 2956 1122 2956 1747 
Q 2956 2369 2687 2733 
Q 2419 3097 1959 3097 
z
M 1959 3584 
Q 2709 3584 3137 3096 
Q 3566 2609 3566 1747 
Q 3566 888 3137 398 
Q 2709 -91 1959 -91 
Q 1206 -91 779 398 
Q 353 888 353 1747 
Q 353 2609 779 3096 
Q 1206 3584 1959 3584 
z
" id="DejaVuSans-6f" transform="scale(0.015625)"/>
      </defs>
      <use xlink:href="#DejaVuSans-6c"/>
      <use x="27.783203" xlink:href="#DejaVuSans-69"/>
      <use x="55.566406" xlink:href="#DejaVuSans-6e"/>
      <use x="118.945312" xlink:href="#DejaVuSans-65"/>
      <use x="180.46875" xlink:href="#DejaVuSans-61"/>
      <use x="241.748047" xlink:href="#DejaVuSans-72"/>
      <use x="282.861328" xlink:href="#DejaVuSans-20"/>
      <use x="314.648438" xlink:href="#DejaVuSans-72"/>
      <use x="353.511719" xlink:href="#DejaVuSans-65"/>
      <use x="415.035156" xlink:href="#DejaVuSans-67"/>
      <use x="478.511719" xlink:href="#DejaVuSans-72"/>
      <use x="517.375" xlink:href="#DejaVuSans-65"/>
      <use x="578.898438" xlink:href="#DejaVuSans-73"/>
      <use x="630.998047" xlink:href="#DejaVuSans-73"/>
      <use x="683.097656" xlink:href="#DejaVuSans-69"/>
      <use x="710.880859" xlink:href="#DejaVuSans-6f"/>
      <use x="772.0625" xlink:href="#DejaVuSans-6e"/>
     </g>
    </g>
    <g id="PathCollection_2">
     <g>
      <use style="fill:#4c72b0;stroke:#4c72b0;stroke-width:0.8;" x="45.193125" xlink:href="#m5431854189" y="32.413375"/>
     </g>
    </g>
    <g id="text_13">
     <!-- data -->
     <g style="fill:#262626;" transform="translate(61.033125 34.723375)scale(0.088 -0.088)">
      <defs>
       <path d="M 2906 2969 
L 2906 4863 
L 3481 4863 
L 3481 0 
L 2906 0 
L 2906 525 
Q 2725 213 2448 61 
Q 2172 -91 1784 -91 
Q 1150 -91 751 415 
Q 353 922 353 1747 
Q 353 2572 751 3078 
Q 1150 3584 1784 3584 
Q 2172 3584 2448 3432 
Q 2725 3281 2906 2969 
z
M 947 1747 
Q 947 1113 1208 752 
Q 1469 391 1925 391 
Q 2381 391 2643 752 
Q 2906 1113 2906 1747 
Q 2906 2381 2643 2742 
Q 2381 3103 1925 3103 
Q 1469 3103 1208 2742 
Q 947 2381 947 1747 
z
" id="DejaVuSans-64" transform="scale(0.015625)"/>
       <path d="M 1172 4494 
L 1172 3500 
L 2356 3500 
L 2356 3053 
L 1172 3053 
L 1172 1153 
Q 1172 725 1289 603 
Q 1406 481 1766 481 
L 2356 481 
L 2356 0 
L 1766 0 
Q 1100 0 847 248 
Q 594 497 594 1153 
L 594 3053 
L 172 3053 
L 172 3500 
L 594 3500 
L 594 4494 
L 1172 4494 
z
" id="DejaVuSans-74" transform="scale(0.015625)"/>
      </defs>
      <use xlink:href="#DejaVuSans-64"/>
      <use x="63.476562" xlink:href="#DejaVuSans-61"/>
      <use x="124.755859" xlink:href="#DejaVuSans-74"/>
      <use x="163.964844" xlink:href="#DejaVuSans-61"/>
     </g>
    </g>
   </g>
  </g>
 </g>
 <defs>
  <clipPath id="pd7795e00bb">
   <rect height="217.44" width="334.8" x="28.473125" y="7.2"/>
  </clipPath>
 </defs>
</svg>
