<?xml version="1.0" encoding="utf-8" standalone="no"?>
<!DOCTYPE svg PUBLIC "-//W3C//DTD SVG 1.1//EN"
  "http://www.w3.org/Graphics/SVG/1.1/DTD/svg11.dtd">
<svg height="261.95125pt" version="1.1" viewBox="0 0 370.473125 261.95125" width="370.473125pt" xmlns="http://www.w3.org/2000/svg" xmlns:xlink="http://www.w3.org/1999/xlink">
 <metadata>
  <rdf:RDF xmlns:cc="http://creativecommons.org/ns#" xmlns:dc="http://purl.org/dc/elements/1.1/" xmlns:rdf="http://www.w3.org/1999/02/22-rdf-syntax-ns#">
   <cc:Work>
    <dc:type rdf:resource="http://purl.org/dc/dcmitype/StillImage"/>
    <dc:date>2021-05-02T00:59:16.973068</dc:date>
    <dc:format>image/svg+xml</dc:format>
    <dc:creator>
     <cc:Agent>
      <dc:title>Matplotlib v3.4.1, https://matplotlib.org/</dc:title>
     </cc:Agent>
    </dc:creator>
   </cc:Work>
  </rdf:RDF>
 </metadata>
 <defs>
  <style type="text/css">*{stroke-linecap:butt;stroke-linejoin:round;}</style>
 </defs>
 <g id="figure_1">
  <g id="patch_1">
   <path d="M 0 261.95125 
L 370.473125 261.95125 
L 370.473125 0 
L 0 0 
z
" style="fill:#ffffff;"/>
  </g>
  <g id="axes_1">
   <g id="patch_2">
    <path d="M 28.473125 237.9345 
L 363.273125 237.9345 
L 363.273125 20.4945 
L 28.473125 20.4945 
z
" style="fill:#eaeaf2;"/>
   </g>
   <g id="matplotlib.axis_1">
    <g id="xtick_1">
     <g id="line2d_1">
      <path clip-path="url(#p3c6ec7bd44)" d="M 38.686154 237.9345 
L 38.686154 20.4945 
" style="fill:none;stroke:#ffffff;stroke-dasharray:2.96,1.28;stroke-dashoffset:0;stroke-width:0.8;"/>
     </g>
     <g id="text_1">
      <!-- 0.0 -->
      <g style="fill:#262626;" transform="translate(31.688779 252.921125)scale(0.088 -0.088)">
       <defs>
        <path d="M 2034 4250 
Q 1547 4250 1301 3770 
Q 1056 3291 1056 2328 
Q 1056 1369 1301 889 
Q 1547 409 2034 409 
Q 2525 409 2770 889 
Q 3016 1369 3016 2328 
Q 3016 3291 2770 3770 
Q 2525 4250 2034 4250 
z
M 2034 4750 
Q 2819 4750 3233 4129 
Q 3647 3509 3647 2328 
Q 3647 1150 3233 529 
Q 2819 -91 2034 -91 
Q 1250 -91 836 529 
Q 422 1150 422 2328 
Q 422 3509 836 4129 
Q 1250 4750 2034 4750 
z
" id="DejaVuSans-30" transform="scale(0.015625)"/>
        <path d="M 684 794 
L 1344 794 
L 1344 0 
L 684 0 
L 684 794 
z
" id="DejaVuSans-2e" transform="scale(0.015625)"/>
       </defs>
       <use xlink:href="#DejaVuSans-30"/>
       <use x="63.623047" xlink:href="#DejaVuSans-2e"/>
       <use x="95.410156" xlink:href="#DejaVuSans-30"/>
      </g>
     </g>
    </g>
    <g id="xtick_2">
     <g id="line2d_2">
      <path clip-path="url(#p3c6ec7bd44)" d="M 100.60044 237.9345 
L 100.60044 20.4945 
" style="fill:none;stroke:#ffffff;stroke-dasharray:2.96,1.28;stroke-dashoffset:0;stroke-width:0.8;"/>
     </g>
     <g id="text_2">
      <!-- 0.2 -->
      <g style="fill:#262626;" transform="translate(93.603065 252.921125)scale(0.088 -0.088)">
       <defs>
        <path d="M 1228 531 
L 3431 531 
L 3431 0 
L 469 0 
L 469 531 
Q 828 903 1448 1529 
Q 2069 2156 2228 2338 
Q 2531 2678 2651 2914 
Q 2772 3150 2772 3378 
Q 2772 3750 2511 3984 
Q 2250 4219 1831 4219 
Q 1534 4219 1204 4116 
Q 875 4013 500 3803 
L 500 4441 
Q 881 4594 1212 4672 
Q 1544 4750 1819 4750 
Q 2544 4750 2975 4387 
Q 3406 4025 3406 3419 
Q 3406 3131 3298 2873 
Q 3191 2616 2906 2266 
Q 2828 2175 2409 1742 
Q 1991 1309 1228 531 
z
" id="DejaVuSans-32" transform="scale(0.015625)"/>
       </defs>
       <use xlink:href="#DejaVuSans-30"/>
       <use x="63.623047" xlink:href="#DejaVuSans-2e"/>
       <use x="95.410156" xlink:href="#DejaVuSans-32"/>
      </g>
     </g>
    </g>
    <g id="xtick_3">
     <g id="line2d_3">
      <path clip-path="url(#p3c6ec7bd44)" d="M 162.514725 237.9345 
L 162.514725 20.4945 
" style="fill:none;stroke:#ffffff;stroke-dasharray:2.96,1.28;stroke-dashoffset:0;stroke-width:0.8;"/>
     </g>
     <g id="text_3">
      <!-- 0.4 -->
      <g style="fill:#262626;" transform="translate(155.51735 252.921125)scale(0.088 -0.088)">
       <defs>
        <path d="M 2419 4116 
L 825 1625 
L 2419 1625 
L 2419 4116 
z
M 2253 4666 
L 3047 4666 
L 3047 1625 
L 3713 1625 
L 3713 1100 
L 3047 1100 
L 3047 0 
L 2419 0 
L 2419 1100 
L 313 1100 
L 313 1709 
L 2253 4666 
z
" id="DejaVuSans-34" transform="scale(0.015625)"/>
       </defs>
       <use xlink:href="#DejaVuSans-30"/>
       <use x="63.623047" xlink:href="#DejaVuSans-2e"/>
       <use x="95.410156" xlink:href="#DejaVuSans-34"/>
      </g>
     </g>
    </g>
    <g id="xtick_4">
     <g id="line2d_4">
      <path clip-path="url(#p3c6ec7bd44)" d="M 224.429011 237.9345 
L 224.429011 20.4945 
" style="fill:none;stroke:#ffffff;stroke-dasharray:2.96,1.28;stroke-dashoffset:0;stroke-width:0.8;"/>
     </g>
     <g id="text_4">
      <!-- 0.6 -->
      <g style="fill:#262626;" transform="translate(217.431636 252.921125)scale(0.088 -0.088)">
       <defs>
        <path d="M 2113 2584 
Q 1688 2584 1439 2293 
Q 1191 2003 1191 1497 
Q 1191 994 1439 701 
Q 1688 409 2113 409 
Q 2538 409 2786 701 
Q 3034 994 3034 1497 
Q 3034 2003 2786 2293 
Q 2538 2584 2113 2584 
z
M 3366 4563 
L 3366 3988 
Q 3128 4100 2886 4159 
Q 2644 4219 2406 4219 
Q 1781 4219 1451 3797 
Q 1122 3375 1075 2522 
Q 1259 2794 1537 2939 
Q 1816 3084 2150 3084 
Q 2853 3084 3261 2657 
Q 3669 2231 3669 1497 
Q 3669 778 3244 343 
Q 2819 -91 2113 -91 
Q 1303 -91 875 529 
Q 447 1150 447 2328 
Q 447 3434 972 4092 
Q 1497 4750 2381 4750 
Q 2619 4750 2861 4703 
Q 3103 4656 3366 4563 
z
" id="DejaVuSans-36" transform="scale(0.015625)"/>
       </defs>
       <use xlink:href="#DejaVuSans-30"/>
       <use x="63.623047" xlink:href="#DejaVuSans-2e"/>
       <use x="95.410156" xlink:href="#DejaVuSans-36"/>
      </g>
     </g>
    </g>
    <g id="xtick_5">
     <g id="line2d_5">
      <path clip-path="url(#p3c6ec7bd44)" d="M 286.343296 237.9345 
L 286.343296 20.4945 
" style="fill:none;stroke:#ffffff;stroke-dasharray:2.96,1.28;stroke-dashoffset:0;stroke-width:0.8;"/>
     </g>
     <g id="text_5">
      <!-- 0.8 -->
      <g style="fill:#262626;" transform="translate(279.345921 252.921125)scale(0.088 -0.088)">
       <defs>
        <path d="M 2034 2216 
Q 1584 2216 1326 1975 
Q 1069 1734 1069 1313 
Q 1069 891 1326 650 
Q 1584 409 2034 409 
Q 2484 409 2743 651 
Q 3003 894 3003 1313 
Q 3003 1734 2745 1975 
Q 2488 2216 2034 2216 
z
M 1403 2484 
Q 997 2584 770 2862 
Q 544 3141 544 3541 
Q 544 4100 942 4425 
Q 1341 4750 2034 4750 
Q 2731 4750 3128 4425 
Q 3525 4100 3525 3541 
Q 3525 3141 3298 2862 
Q 3072 2584 2669 2484 
Q 3125 2378 3379 2068 
Q 3634 1759 3634 1313 
Q 3634 634 3220 271 
Q 2806 -91 2034 -91 
Q 1263 -91 848 271 
Q 434 634 434 1313 
Q 434 1759 690 2068 
Q 947 2378 1403 2484 
z
M 1172 3481 
Q 1172 3119 1398 2916 
Q 1625 2713 2034 2713 
Q 2441 2713 2670 2916 
Q 2900 3119 2900 3481 
Q 2900 3844 2670 4047 
Q 2441 4250 2034 4250 
Q 1625 4250 1398 4047 
Q 1172 3844 1172 3481 
z
" id="DejaVuSans-38" transform="scale(0.015625)"/>
       </defs>
       <use xlink:href="#DejaVuSans-30"/>
       <use x="63.623047" xlink:href="#DejaVuSans-2e"/>
       <use x="95.410156" xlink:href="#DejaVuSans-38"/>
      </g>
     </g>
    </g>
    <g id="xtick_6">
     <g id="line2d_6">
      <path clip-path="url(#p3c6ec7bd44)" d="M 348.257582 237.9345 
L 348.257582 20.4945 
" style="fill:none;stroke:#ffffff;stroke-dasharray:2.96,1.28;stroke-dashoffset:0;stroke-width:0.8;"/>
     </g>
     <g id="text_6">
      <!-- 1.0 -->
      <g style="fill:#262626;" transform="translate(341.260207 252.921125)scale(0.088 -0.088)">
       <defs>
        <path d="M 794 531 
L 1825 531 
L 1825 4091 
L 703 3866 
L 703 4441 
L 1819 4666 
L 2450 4666 
L 2450 531 
L 3481 531 
L 3481 0 
L 794 0 
L 794 531 
z
" id="DejaVuSans-31" transform="scale(0.015625)"/>
       </defs>
       <use xlink:href="#DejaVuSans-31"/>
       <use x="63.623047" xlink:href="#DejaVuSans-2e"/>
       <use x="95.410156" xlink:href="#DejaVuSans-30"/>
      </g>
     </g>
    </g>
   </g>
   <g id="matplotlib.axis_2">
    <g id="ytick_1">
     <g id="line2d_7">
      <path clip-path="url(#p3c6ec7bd44)" d="M 28.473125 201.532878 
L 363.273125 201.532878 
" style="fill:none;stroke:#ffffff;stroke-dasharray:2.96,1.28;stroke-dashoffset:0;stroke-width:0.8;"/>
     </g>
     <g id="text_7">
      <!-- −2 -->
      <g style="fill:#262626;" transform="translate(7.2 204.87619)scale(0.088 -0.088)">
       <defs>
        <path d="M 678 2272 
L 4684 2272 
L 4684 1741 
L 678 1741 
L 678 2272 
z
" id="DejaVuSans-2212" transform="scale(0.015625)"/>
       </defs>
       <use xlink:href="#DejaVuSans-2212"/>
       <use x="83.789062" xlink:href="#DejaVuSans-32"/>
      </g>
     </g>
    </g>
    <g id="ytick_2">
     <g id="line2d_8">
      <path clip-path="url(#p3c6ec7bd44)" d="M 28.473125 162.247188 
L 363.273125 162.247188 
" style="fill:none;stroke:#ffffff;stroke-dasharray:2.96,1.28;stroke-dashoffset:0;stroke-width:0.8;"/>
     </g>
     <g id="text_8">
      <!-- −1 -->
      <g style="fill:#262626;" transform="translate(7.2 165.590501)scale(0.088 -0.088)">
       <use xlink:href="#DejaVuSans-2212"/>
       <use x="83.789062" xlink:href="#DejaVuSans-31"/>
      </g>
     </g>
    </g>
    <g id="ytick_3">
     <g id="line2d_9">
      <path clip-path="url(#p3c6ec7bd44)" d="M 28.473125 122.961498 
L 363.273125 122.961498 
" style="fill:none;stroke:#ffffff;stroke-dasharray:2.96,1.28;stroke-dashoffset:0;stroke-width:0.8;"/>
     </g>
     <g id="text_9">
      <!-- 0 -->
      <g style="fill:#262626;" transform="translate(14.574125 126.304811)scale(0.088 -0.088)">
       <use xlink:href="#DejaVuSans-30"/>
      </g>
     </g>
    </g>
    <g id="ytick_4">
     <g id="line2d_10">
      <path clip-path="url(#p3c6ec7bd44)" d="M 28.473125 83.675809 
L 363.273125 83.675809 
" style="fill:none;stroke:#ffffff;stroke-dasharray:2.96,1.28;stroke-dashoffset:0;stroke-width:0.8;"/>
     </g>
     <g id="text_10">
      <!-- 1 -->
      <g style="fill:#262626;" transform="translate(14.574125 87.019121)scale(0.088 -0.088)">
       <use xlink:href="#DejaVuSans-31"/>
      </g>
     </g>
    </g>
    <g id="ytick_5">
     <g id="line2d_11">
      <path clip-path="url(#p3c6ec7bd44)" d="M 28.473125 44.390119 
L 363.273125 44.390119 
" style="fill:none;stroke:#ffffff;stroke-dasharray:2.96,1.28;stroke-dashoffset:0;stroke-width:0.8;"/>
     </g>
     <g id="text_11">
      <!-- 2 -->
      <g style="fill:#262626;" transform="translate(14.574125 47.733432)scale(0.088 -0.088)">
       <use xlink:href="#DejaVuSans-32"/>
      </g>
     </g>
    </g>
   </g>
   <g id="PathCollection_1">
    <defs>
     <path d="M 0 2.4 
C 0.636487 2.4 1.246992 2.147121 1.697056 1.697056 
C 2.147121 1.246992 2.4 0.636487 2.4 0 
C 2.4 -0.636487 2.147121 -1.246992 1.697056 -1.697056 
C 1.246992 -2.147121 0.636487 -2.4 0 -2.4 
C -0.636487 -2.4 -1.246992 -2.147121 -1.697056 -1.697056 
C -2.147121 -1.246992 -2.4 -0.636487 -2.4 0 
C -2.4 0.636487 -2.147121 1.246992 -1.697056 1.697056 
C -1.246992 2.147121 -0.636487 2.4 0 2.4 
z
" id="m7b8efce76c" style="stroke:#4c72b0;stroke-width:0.8;"/>
    </defs>
    <g clip-path="url(#p3c6ec7bd44)">
     <use style="fill:#4c72b0;stroke:#4c72b0;stroke-width:0.8;" x="43.691307" xlink:href="#m7b8efce76c" y="118.146919"/>
     <use style="fill:#4c72b0;stroke:#4c72b0;stroke-width:0.8;" x="46.241336" xlink:href="#m7b8efce76c" y="104.232856"/>
     <use style="fill:#4c72b0;stroke:#4c72b0;stroke-width:0.8;" x="48.422872" xlink:href="#m7b8efce76c" y="123.635743"/>
     <use style="fill:#4c72b0;stroke:#4c72b0;stroke-width:0.8;" x="57.243803" xlink:href="#m7b8efce76c" y="173.640737"/>
     <use style="fill:#4c72b0;stroke:#4c72b0;stroke-width:0.8;" x="60.416427" xlink:href="#m7b8efce76c" y="145.963456"/>
     <use style="fill:#4c72b0;stroke:#4c72b0;stroke-width:0.8;" x="63.129024" xlink:href="#m7b8efce76c" y="191.537729"/>
     <use style="fill:#4c72b0;stroke:#4c72b0;stroke-width:0.8;" x="65.815062" xlink:href="#m7b8efce76c" y="165.478199"/>
     <use style="fill:#4c72b0;stroke:#4c72b0;stroke-width:0.8;" x="65.8731" xlink:href="#m7b8efce76c" y="203.9307"/>
     <use style="fill:#4c72b0;stroke:#4c72b0;stroke-width:0.8;" x="67.498511" xlink:href="#m7b8efce76c" y="205.863327"/>
     <use style="fill:#4c72b0;stroke:#4c72b0;stroke-width:0.8;" x="67.798286" xlink:href="#m7b8efce76c" y="201.317947"/>
     <use style="fill:#4c72b0;stroke:#4c72b0;stroke-width:0.8;" x="71.487982" xlink:href="#m7b8efce76c" y="196.422692"/>
     <use style="fill:#4c72b0;stroke:#4c72b0;stroke-width:0.8;" x="75.351935" xlink:href="#m7b8efce76c" y="201.322782"/>
     <use style="fill:#4c72b0;stroke:#4c72b0;stroke-width:0.8;" x="79.36505" xlink:href="#m7b8efce76c" y="221.534442"/>
     <use style="fill:#4c72b0;stroke:#4c72b0;stroke-width:0.8;" x="80.5601" xlink:href="#m7b8efce76c" y="180.459836"/>
     <use style="fill:#4c72b0;stroke:#4c72b0;stroke-width:0.8;" x="86.591974" xlink:href="#m7b8efce76c" y="195.574575"/>
     <use style="fill:#4c72b0;stroke:#4c72b0;stroke-width:0.8;" x="90.681846" xlink:href="#m7b8efce76c" y="198.25813"/>
     <use style="fill:#4c72b0;stroke:#4c72b0;stroke-width:0.8;" x="90.944988" xlink:href="#m7b8efce76c" y="228.050864"/>
     <use style="fill:#4c72b0;stroke:#4c72b0;stroke-width:0.8;" x="94.903815" xlink:href="#m7b8efce76c" y="208.701207"/>
     <use style="fill:#4c72b0;stroke:#4c72b0;stroke-width:0.8;" x="96.976516" xlink:href="#m7b8efce76c" y="201.746877"/>
     <use style="fill:#4c72b0;stroke:#4c72b0;stroke-width:0.8;" x="102.366914" xlink:href="#m7b8efce76c" y="184.040883"/>
     <use style="fill:#4c72b0;stroke:#4c72b0;stroke-width:0.8;" x="102.675356" xlink:href="#m7b8efce76c" y="211.126173"/>
     <use style="fill:#4c72b0;stroke:#4c72b0;stroke-width:0.8;" x="103.129559" xlink:href="#m7b8efce76c" y="211.881032"/>
     <use style="fill:#4c72b0;stroke:#4c72b0;stroke-width:0.8;" x="104.620144" xlink:href="#m7b8efce76c" y="196.613088"/>
     <use style="fill:#4c72b0;stroke:#4c72b0;stroke-width:0.8;" x="108.12206" xlink:href="#m7b8efce76c" y="207.179906"/>
     <use style="fill:#4c72b0;stroke:#4c72b0;stroke-width:0.8;" x="112.757255" xlink:href="#m7b8efce76c" y="178.082357"/>
     <use style="fill:#4c72b0;stroke:#4c72b0;stroke-width:0.8;" x="115.970242" xlink:href="#m7b8efce76c" y="194.786758"/>
     <use style="fill:#4c72b0;stroke:#4c72b0;stroke-width:0.8;" x="116.001919" xlink:href="#m7b8efce76c" y="184.760962"/>
     <use style="fill:#4c72b0;stroke:#4c72b0;stroke-width:0.8;" x="118.704725" xlink:href="#m7b8efce76c" y="153.160933"/>
     <use style="fill:#4c72b0;stroke:#4c72b0;stroke-width:0.8;" x="122.515503" xlink:href="#m7b8efce76c" y="181.988177"/>
     <use style="fill:#4c72b0;stroke:#4c72b0;stroke-width:0.8;" x="123.40302" xlink:href="#m7b8efce76c" y="185.286009"/>
     <use style="fill:#4c72b0;stroke:#4c72b0;stroke-width:0.8;" x="123.893564" xlink:href="#m7b8efce76c" y="176.716061"/>
     <use style="fill:#4c72b0;stroke:#4c72b0;stroke-width:0.8;" x="125.014461" xlink:href="#m7b8efce76c" y="191.131519"/>
     <use style="fill:#4c72b0;stroke:#4c72b0;stroke-width:0.8;" x="125.159576" xlink:href="#m7b8efce76c" y="227.284126"/>
     <use style="fill:#4c72b0;stroke:#4c72b0;stroke-width:0.8;" x="130.035748" xlink:href="#m7b8efce76c" y="174.375816"/>
     <use style="fill:#4c72b0;stroke:#4c72b0;stroke-width:0.8;" x="131.618542" xlink:href="#m7b8efce76c" y="169.995785"/>
     <use style="fill:#4c72b0;stroke:#4c72b0;stroke-width:0.8;" x="133.085874" xlink:href="#m7b8efce76c" y="161.247107"/>
     <use style="fill:#4c72b0;stroke:#4c72b0;stroke-width:0.8;" x="134.480173" xlink:href="#m7b8efce76c" y="146.155013"/>
     <use style="fill:#4c72b0;stroke:#4c72b0;stroke-width:0.8;" x="140.107493" xlink:href="#m7b8efce76c" y="147.37248"/>
     <use style="fill:#4c72b0;stroke:#4c72b0;stroke-width:0.8;" x="143.305446" xlink:href="#m7b8efce76c" y="177.747305"/>
     <use style="fill:#4c72b0;stroke:#4c72b0;stroke-width:0.8;" x="146.586987" xlink:href="#m7b8efce76c" y="108.295209"/>
     <use style="fill:#4c72b0;stroke:#4c72b0;stroke-width:0.8;" x="148.134704" xlink:href="#m7b8efce76c" y="145.354482"/>
     <use style="fill:#4c72b0;stroke:#4c72b0;stroke-width:0.8;" x="150.093723" xlink:href="#m7b8efce76c" y="136.732303"/>
     <use style="fill:#4c72b0;stroke:#4c72b0;stroke-width:0.8;" x="154.381409" xlink:href="#m7b8efce76c" y="110.554264"/>
     <use style="fill:#4c72b0;stroke:#4c72b0;stroke-width:0.8;" x="154.893227" xlink:href="#m7b8efce76c" y="118.674918"/>
     <use style="fill:#4c72b0;stroke:#4c72b0;stroke-width:0.8;" x="155.639523" xlink:href="#m7b8efce76c" y="130.514814"/>
     <use style="fill:#4c72b0;stroke:#4c72b0;stroke-width:0.8;" x="158.247081" xlink:href="#m7b8efce76c" y="111.648338"/>
     <use style="fill:#4c72b0;stroke:#4c72b0;stroke-width:0.8;" x="158.410555" xlink:href="#m7b8efce76c" y="113.077123"/>
     <use style="fill:#4c72b0;stroke:#4c72b0;stroke-width:0.8;" x="158.735475" xlink:href="#m7b8efce76c" y="125.262798"/>
     <use style="fill:#4c72b0;stroke:#4c72b0;stroke-width:0.8;" x="166.603316" xlink:href="#m7b8efce76c" y="120.074929"/>
     <use style="fill:#4c72b0;stroke:#4c72b0;stroke-width:0.8;" x="170.647714" xlink:href="#m7b8efce76c" y="101.3157"/>
     <use style="fill:#4c72b0;stroke:#4c72b0;stroke-width:0.8;" x="174.657836" xlink:href="#m7b8efce76c" y="112.14524"/>
     <use style="fill:#4c72b0;stroke:#4c72b0;stroke-width:0.8;" x="178.237245" xlink:href="#m7b8efce76c" y="114.81275"/>
     <use style="fill:#4c72b0;stroke:#4c72b0;stroke-width:0.8;" x="178.855439" xlink:href="#m7b8efce76c" y="82.526478"/>
     <use style="fill:#4c72b0;stroke:#4c72b0;stroke-width:0.8;" x="188.251532" xlink:href="#m7b8efce76c" y="80.045252"/>
     <use style="fill:#4c72b0;stroke:#4c72b0;stroke-width:0.8;" x="190.314131" xlink:href="#m7b8efce76c" y="30.378136"/>
     <use style="fill:#4c72b0;stroke:#4c72b0;stroke-width:0.8;" x="194.754607" xlink:href="#m7b8efce76c" y="83.989701"/>
     <use style="fill:#4c72b0;stroke:#4c72b0;stroke-width:0.8;" x="200.642533" xlink:href="#m7b8efce76c" y="99.909147"/>
     <use style="fill:#4c72b0;stroke:#4c72b0;stroke-width:0.8;" x="214.154948" xlink:href="#m7b8efce76c" y="66.227878"/>
     <use style="fill:#4c72b0;stroke:#4c72b0;stroke-width:0.8;" x="218.460476" xlink:href="#m7b8efce76c" y="65.243879"/>
     <use style="fill:#4c72b0;stroke:#4c72b0;stroke-width:0.8;" x="219.490867" xlink:href="#m7b8efce76c" y="120.544773"/>
     <use style="fill:#4c72b0;stroke:#4c72b0;stroke-width:0.8;" x="224.375046" xlink:href="#m7b8efce76c" y="68.967421"/>
     <use style="fill:#4c72b0;stroke:#4c72b0;stroke-width:0.8;" x="225.285592" xlink:href="#m7b8efce76c" y="58.64605"/>
     <use style="fill:#4c72b0;stroke:#4c72b0;stroke-width:0.8;" x="228.682328" xlink:href="#m7b8efce76c" y="51.711219"/>
     <use style="fill:#4c72b0;stroke:#4c72b0;stroke-width:0.8;" x="241.230077" xlink:href="#m7b8efce76c" y="40.426675"/>
     <use style="fill:#4c72b0;stroke:#4c72b0;stroke-width:0.8;" x="241.563097" xlink:href="#m7b8efce76c" y="101.375407"/>
     <use style="fill:#4c72b0;stroke:#4c72b0;stroke-width:0.8;" x="248.414194" xlink:href="#m7b8efce76c" y="53.155448"/>
     <use style="fill:#4c72b0;stroke:#4c72b0;stroke-width:0.8;" x="250.114204" xlink:href="#m7b8efce76c" y="61.115706"/>
     <use style="fill:#4c72b0;stroke:#4c72b0;stroke-width:0.8;" x="250.841504" xlink:href="#m7b8efce76c" y="63.264594"/>
     <use style="fill:#4c72b0;stroke:#4c72b0;stroke-width:0.8;" x="252.495328" xlink:href="#m7b8efce76c" y="60.774929"/>
     <use style="fill:#4c72b0;stroke:#4c72b0;stroke-width:0.8;" x="254.02082" xlink:href="#m7b8efce76c" y="73.375466"/>
     <use style="fill:#4c72b0;stroke:#4c72b0;stroke-width:0.8;" x="254.766572" xlink:href="#m7b8efce76c" y="99.64978"/>
     <use style="fill:#4c72b0;stroke:#4c72b0;stroke-width:0.8;" x="259.631156" xlink:href="#m7b8efce76c" y="116.603989"/>
     <use style="fill:#4c72b0;stroke:#4c72b0;stroke-width:0.8;" x="262.57451" xlink:href="#m7b8efce76c" y="98.613029"/>
     <use style="fill:#4c72b0;stroke:#4c72b0;stroke-width:0.8;" x="262.963863" xlink:href="#m7b8efce76c" y="72.54312"/>
     <use style="fill:#4c72b0;stroke:#4c72b0;stroke-width:0.8;" x="269.567059" xlink:href="#m7b8efce76c" y="118.493956"/>
     <use style="fill:#4c72b0;stroke:#4c72b0;stroke-width:0.8;" x="273.282015" xlink:href="#m7b8efce76c" y="103.591223"/>
     <use style="fill:#4c72b0;stroke:#4c72b0;stroke-width:0.8;" x="279.602435" xlink:href="#m7b8efce76c" y="103.891338"/>
     <use style="fill:#4c72b0;stroke:#4c72b0;stroke-width:0.8;" x="281.040041" xlink:href="#m7b8efce76c" y="122.084579"/>
     <use style="fill:#4c72b0;stroke:#4c72b0;stroke-width:0.8;" x="285.550385" xlink:href="#m7b8efce76c" y="114.050958"/>
     <use style="fill:#4c72b0;stroke:#4c72b0;stroke-width:0.8;" x="286.576753" xlink:href="#m7b8efce76c" y="94.132265"/>
     <use style="fill:#4c72b0;stroke:#4c72b0;stroke-width:0.8;" x="287.274143" xlink:href="#m7b8efce76c" y="131.937664"/>
     <use style="fill:#4c72b0;stroke:#4c72b0;stroke-width:0.8;" x="289.92902" xlink:href="#m7b8efce76c" y="139.001487"/>
     <use style="fill:#4c72b0;stroke:#4c72b0;stroke-width:0.8;" x="291.581369" xlink:href="#m7b8efce76c" y="115.60918"/>
     <use style="fill:#4c72b0;stroke:#4c72b0;stroke-width:0.8;" x="291.883131" xlink:href="#m7b8efce76c" y="105.94634"/>
     <use style="fill:#4c72b0;stroke:#4c72b0;stroke-width:0.8;" x="292.469311" xlink:href="#m7b8efce76c" y="153.439913"/>
     <use style="fill:#4c72b0;stroke:#4c72b0;stroke-width:0.8;" x="294.030157" xlink:href="#m7b8efce76c" y="123.923635"/>
     <use style="fill:#4c72b0;stroke:#4c72b0;stroke-width:0.8;" x="298.113118" xlink:href="#m7b8efce76c" y="130.639815"/>
     <use style="fill:#4c72b0;stroke:#4c72b0;stroke-width:0.8;" x="302.172221" xlink:href="#m7b8efce76c" y="97.969509"/>
     <use style="fill:#4c72b0;stroke:#4c72b0;stroke-width:0.8;" x="304.938013" xlink:href="#m7b8efce76c" y="123.579432"/>
     <use style="fill:#4c72b0;stroke:#4c72b0;stroke-width:0.8;" x="308.794182" xlink:href="#m7b8efce76c" y="133.327795"/>
     <use style="fill:#4c72b0;stroke:#4c72b0;stroke-width:0.8;" x="308.816361" xlink:href="#m7b8efce76c" y="128.876381"/>
     <use style="fill:#4c72b0;stroke:#4c72b0;stroke-width:0.8;" x="309.288361" xlink:href="#m7b8efce76c" y="132.53008"/>
     <use style="fill:#4c72b0;stroke:#4c72b0;stroke-width:0.8;" x="316.334844" xlink:href="#m7b8efce76c" y="93.997629"/>
     <use style="fill:#4c72b0;stroke:#4c72b0;stroke-width:0.8;" x="318.461277" xlink:href="#m7b8efce76c" y="100.390558"/>
     <use style="fill:#4c72b0;stroke:#4c72b0;stroke-width:0.8;" x="318.689656" xlink:href="#m7b8efce76c" y="143.442999"/>
     <use style="fill:#4c72b0;stroke:#4c72b0;stroke-width:0.8;" x="324.488054" xlink:href="#m7b8efce76c" y="114.501519"/>
     <use style="fill:#4c72b0;stroke:#4c72b0;stroke-width:0.8;" x="334.106122" xlink:href="#m7b8efce76c" y="125.152794"/>
     <use style="fill:#4c72b0;stroke:#4c72b0;stroke-width:0.8;" x="334.303244" xlink:href="#m7b8efce76c" y="96.833946"/>
     <use style="fill:#4c72b0;stroke:#4c72b0;stroke-width:0.8;" x="347.806857" xlink:href="#m7b8efce76c" y="104.178378"/>
     <use style="fill:#4c72b0;stroke:#4c72b0;stroke-width:0.8;" x="348.054943" xlink:href="#m7b8efce76c" y="68.47686"/>
    </g>
   </g>
   <g id="line2d_12">
    <path clip-path="url(#p3c6ec7bd44)" d="M 43.691307 137.587754 
L 46.241336 143.917705 
L 48.422872 149.086406 
L 57.243803 167.566126 
L 60.416427 173.229299 
L 63.129024 177.646811 
L 65.815062 181.63092 
L 65.8731 181.71267 
L 67.498511 183.928619 
L 67.798286 184.321635 
L 71.487982 188.757206 
L 75.351935 192.605463 
L 79.36505 195.741422 
L 80.5601 196.506922 
L 86.591974 199.205955 
L 90.681846 199.952123 
L 90.944988 199.970781 
L 94.903815 199.833806 
L 96.976516 199.455402 
L 102.366914 197.525166 
L 102.675356 197.374704 
L 103.129559 197.145488 
L 104.620144 196.329784 
L 108.12206 194.041825 
L 112.757255 190.255836 
L 115.970242 187.162064 
L 116.001919 187.129843 
L 118.704725 184.25015 
L 122.515503 179.799744 
L 123.40302 178.702372 
L 123.893564 178.08651 
L 125.014461 176.655093 
L 125.159576 176.467315 
L 130.035748 169.861728 
L 131.618542 167.604491 
L 133.085874 165.468156 
L 134.480173 163.402257 
L 140.107493 154.764865 
L 143.305446 149.691515 
L 146.586987 144.40521 
L 148.134704 141.893918 
L 150.093723 138.706556 
L 154.381409 131.731482 
L 154.893227 130.901653 
L 155.639523 129.693645 
L 158.247081 125.496244 
L 158.410555 125.234508 
L 158.735475 124.714971 
L 166.603316 112.456401 
L 170.647714 106.481887 
L 174.657836 100.848049 
L 178.237245 96.102787 
L 178.855439 95.312747 
L 188.251532 84.510021 
L 190.314131 82.466976 
L 194.754607 78.504711 
L 200.642533 74.211885 
L 214.154948 68.700485 
L 218.460476 68.222459 
L 219.490867 68.197657 
L 224.375046 68.538258 
L 225.285592 68.683588 
L 228.682328 69.444293 
L 241.230077 74.975587 
L 241.563097 75.17423 
L 248.414194 79.74966 
L 250.114204 81.013492 
L 250.841504 81.567611 
L 252.495328 82.855796 
L 254.02082 84.075793 
L 254.766572 84.682476 
L 259.631156 88.776584 
L 262.57451 91.340478 
L 262.963863 91.68299 
L 269.567059 97.54061 
L 273.282015 100.814105 
L 279.602435 106.184484 
L 281.040041 107.351392 
L 285.550385 110.831062 
L 286.576753 111.578503 
L 287.274143 112.076011 
L 289.92902 113.886469 
L 291.581369 114.941692 
L 291.883131 115.128009 
L 292.469311 115.484308 
L 294.030157 116.394876 
L 298.113118 118.494906 
L 302.172221 120.13688 
L 304.938013 120.975888 
L 308.794182 121.735844 
L 308.816361 121.738766 
L 309.288361 121.797063 
L 316.334844 121.717486 
L 318.461277 121.326905 
L 318.689656 121.274453 
L 324.488054 119.239051 
L 334.106122 112.747435 
L 334.303244 112.572395 
L 347.806857 96.485949 
L 348.054943 96.114813 
" style="fill:none;stroke:#4c72b0;stroke-linecap:round;stroke-width:1.2;"/>
   </g>
   <g id="line2d_13">
    <path clip-path="url(#p3c6ec7bd44)" d="M 43.691307 133.443016 
L 46.241336 133.443016 
L 48.422872 133.443016 
L 57.243803 133.443016 
L 60.416427 133.443016 
L 63.129024 133.443016 
L 65.815062 133.443016 
L 65.8731 133.443016 
L 67.498511 133.443016 
L 67.798286 133.443016 
L 71.487982 133.443016 
L 75.351935 133.443016 
L 79.36505 133.443016 
L 80.5601 133.443016 
L 86.591974 133.443016 
L 90.681846 133.443016 
L 90.944988 133.443016 
L 94.903815 133.443016 
L 96.976516 133.443016 
L 102.366914 133.443016 
L 102.675356 133.443016 
L 103.129559 133.443016 
L 104.620144 133.443016 
L 108.12206 133.443016 
L 112.757255 133.443016 
L 115.970242 133.443016 
L 116.001919 133.443016 
L 118.704725 133.443016 
L 122.515503 133.443016 
L 123.40302 133.443016 
L 123.893564 133.443016 
L 125.014461 133.443016 
L 125.159576 133.443016 
L 130.035748 133.443016 
L 131.618542 133.443016 
L 133.085874 133.443016 
L 134.480173 133.443016 
L 140.107493 133.443016 
L 143.305446 133.443016 
L 146.586987 133.443016 
L 148.134704 133.443016 
L 150.093723 133.443016 
L 154.381409 133.443016 
L 154.893227 133.443016 
L 155.639523 133.443016 
L 158.247081 133.443016 
L 158.410555 133.443016 
L 158.735475 133.443016 
L 166.603316 133.443016 
L 170.647714 133.443016 
L 174.657836 133.443016 
L 178.237245 133.443016 
L 178.855439 133.443016 
L 188.251532 133.443016 
L 190.314131 133.443016 
L 194.754607 133.443016 
L 200.642533 133.443016 
L 214.154948 133.443016 
L 218.460476 133.443016 
L 219.490867 133.443016 
L 224.375046 133.443016 
L 225.285592 133.443016 
L 228.682328 133.443016 
L 241.230077 133.443016 
L 241.563097 133.443016 
L 248.414194 133.443016 
L 250.114204 133.443016 
L 250.841504 133.443016 
L 252.495328 133.443016 
L 254.02082 133.443016 
L 254.766572 133.443016 
L 259.631156 133.443016 
L 262.57451 133.443016 
L 262.963863 133.443016 
L 269.567059 133.443016 
L 273.282015 133.443016 
L 279.602435 133.443016 
L 281.040041 133.443016 
L 285.550385 133.443016 
L 286.576753 133.443016 
L 287.274143 133.443016 
L 289.92902 133.443016 
L 291.581369 133.443016 
L 291.883131 133.443016 
L 292.469311 133.443016 
L 294.030157 133.443016 
L 298.113118 133.443016 
L 302.172221 133.443016 
L 304.938013 133.443016 
L 308.794182 133.443016 
L 308.816361 133.443016 
L 309.288361 133.443016 
L 316.334844 133.443016 
L 318.461277 133.443016 
L 318.689656 133.443016 
L 324.488054 133.443016 
L 334.106122 133.443016 
L 334.303244 133.443016 
L 347.806857 133.443016 
L 348.054943 133.443016 
" style="fill:none;stroke:#dd8452;stroke-linecap:round;stroke-width:1.2;"/>
   </g>
   <g id="patch_3">
    <path d="M 28.473125 237.9345 
L 28.473125 20.4945 
" style="fill:none;stroke:#ffffff;stroke-linecap:square;stroke-linejoin:miter;"/>
   </g>
   <g id="patch_4">
    <path d="M 363.273125 237.9345 
L 363.273125 20.4945 
" style="fill:none;stroke:#ffffff;stroke-linecap:square;stroke-linejoin:miter;"/>
   </g>
   <g id="patch_5">
    <path d="M 28.473125 237.9345 
L 363.273125 237.9345 
" style="fill:none;stroke:#ffffff;stroke-linecap:square;stroke-linejoin:miter;"/>
   </g>
   <g id="patch_6">
    <path d="M 28.473125 20.4945 
L 363.273125 20.4945 
" style="fill:none;stroke:#ffffff;stroke-linecap:square;stroke-linejoin:miter;"/>
   </g>
   <g id="text_12">
    <!-- Lasso Regression -->
    <g style="fill:#262626;" transform="translate(154.541375 14.4945)scale(0.096 -0.096)">
     <defs>
      <path d="M 628 4666 
L 1259 4666 
L 1259 531 
L 3531 531 
L 3531 0 
L 628 0 
L 628 4666 
z
" id="DejaVuSans-4c" transform="scale(0.015625)"/>
      <path d="M 2194 1759 
Q 1497 1759 1228 1600 
Q 959 1441 959 1056 
Q 959 750 1161 570 
Q 1363 391 1709 391 
Q 2188 391 2477 730 
Q 2766 1069 2766 1631 
L 2766 1759 
L 2194 1759 
z
M 3341 1997 
L 3341 0 
L 2766 0 
L 2766 531 
Q 2569 213 2275 61 
Q 1981 -91 1556 -91 
Q 1019 -91 701 211 
Q 384 513 384 1019 
Q 384 1609 779 1909 
Q 1175 2209 1959 2209 
L 2766 2209 
L 2766 2266 
Q 2766 2663 2505 2880 
Q 2244 3097 1772 3097 
Q 1472 3097 1187 3025 
Q 903 2953 641 2809 
L 641 3341 
Q 956 3463 1253 3523 
Q 1550 3584 1831 3584 
Q 2591 3584 2966 3190 
Q 3341 2797 3341 1997 
z
" id="DejaVuSans-61" transform="scale(0.015625)"/>
      <path d="M 2834 3397 
L 2834 2853 
Q 2591 2978 2328 3040 
Q 2066 3103 1784 3103 
Q 1356 3103 1142 2972 
Q 928 2841 928 2578 
Q 928 2378 1081 2264 
Q 1234 2150 1697 2047 
L 1894 2003 
Q 2506 1872 2764 1633 
Q 3022 1394 3022 966 
Q 3022 478 2636 193 
Q 2250 -91 1575 -91 
Q 1294 -91 989 -36 
Q 684 19 347 128 
L 347 722 
Q 666 556 975 473 
Q 1284 391 1588 391 
Q 1994 391 2212 530 
Q 2431 669 2431 922 
Q 2431 1156 2273 1281 
Q 2116 1406 1581 1522 
L 1381 1569 
Q 847 1681 609 1914 
Q 372 2147 372 2553 
Q 372 3047 722 3315 
Q 1072 3584 1716 3584 
Q 2034 3584 2315 3537 
Q 2597 3491 2834 3397 
z
" id="DejaVuSans-73" transform="scale(0.015625)"/>
      <path d="M 1959 3097 
Q 1497 3097 1228 2736 
Q 959 2375 959 1747 
Q 959 1119 1226 758 
Q 1494 397 1959 397 
Q 2419 397 2687 759 
Q 2956 1122 2956 1747 
Q 2956 2369 2687 2733 
Q 2419 3097 1959 3097 
z
M 1959 3584 
Q 2709 3584 3137 3096 
Q 3566 2609 3566 1747 
Q 3566 888 3137 398 
Q 2709 -91 1959 -91 
Q 1206 -91 779 398 
Q 353 888 353 1747 
Q 353 2609 779 3096 
Q 1206 3584 1959 3584 
z
" id="DejaVuSans-6f" transform="scale(0.015625)"/>
      <path id="DejaVuSans-20" transform="scale(0.015625)"/>
      <path d="M 2841 2188 
Q 3044 2119 3236 1894 
Q 3428 1669 3622 1275 
L 4263 0 
L 3584 0 
L 2988 1197 
Q 2756 1666 2539 1819 
Q 2322 1972 1947 1972 
L 1259 1972 
L 1259 0 
L 628 0 
L 628 4666 
L 2053 4666 
Q 2853 4666 3247 4331 
Q 3641 3997 3641 3322 
Q 3641 2881 3436 2590 
Q 3231 2300 2841 2188 
z
M 1259 4147 
L 1259 2491 
L 2053 2491 
Q 2509 2491 2742 2702 
Q 2975 2913 2975 3322 
Q 2975 3731 2742 3939 
Q 2509 4147 2053 4147 
L 1259 4147 
z
" id="DejaVuSans-52" transform="scale(0.015625)"/>
      <path d="M 3597 1894 
L 3597 1613 
L 953 1613 
Q 991 1019 1311 708 
Q 1631 397 2203 397 
Q 2534 397 2845 478 
Q 3156 559 3463 722 
L 3463 178 
Q 3153 47 2828 -22 
Q 2503 -91 2169 -91 
Q 1331 -91 842 396 
Q 353 884 353 1716 
Q 353 2575 817 3079 
Q 1281 3584 2069 3584 
Q 2775 3584 3186 3129 
Q 3597 2675 3597 1894 
z
M 3022 2063 
Q 3016 2534 2758 2815 
Q 2500 3097 2075 3097 
Q 1594 3097 1305 2825 
Q 1016 2553 972 2059 
L 3022 2063 
z
" id="DejaVuSans-65" transform="scale(0.015625)"/>
      <path d="M 2906 1791 
Q 2906 2416 2648 2759 
Q 2391 3103 1925 3103 
Q 1463 3103 1205 2759 
Q 947 2416 947 1791 
Q 947 1169 1205 825 
Q 1463 481 1925 481 
Q 2391 481 2648 825 
Q 2906 1169 2906 1791 
z
M 3481 434 
Q 3481 -459 3084 -895 
Q 2688 -1331 1869 -1331 
Q 1566 -1331 1297 -1286 
Q 1028 -1241 775 -1147 
L 775 -588 
Q 1028 -725 1275 -790 
Q 1522 -856 1778 -856 
Q 2344 -856 2625 -561 
Q 2906 -266 2906 331 
L 2906 616 
Q 2728 306 2450 153 
Q 2172 0 1784 0 
Q 1141 0 747 490 
Q 353 981 353 1791 
Q 353 2603 747 3093 
Q 1141 3584 1784 3584 
Q 2172 3584 2450 3431 
Q 2728 3278 2906 2969 
L 2906 3500 
L 3481 3500 
L 3481 434 
z
" id="DejaVuSans-67" transform="scale(0.015625)"/>
      <path d="M 2631 2963 
Q 2534 3019 2420 3045 
Q 2306 3072 2169 3072 
Q 1681 3072 1420 2755 
Q 1159 2438 1159 1844 
L 1159 0 
L 581 0 
L 581 3500 
L 1159 3500 
L 1159 2956 
Q 1341 3275 1631 3429 
Q 1922 3584 2338 3584 
Q 2397 3584 2469 3576 
Q 2541 3569 2628 3553 
L 2631 2963 
z
" id="DejaVuSans-72" transform="scale(0.015625)"/>
      <path d="M 603 3500 
L 1178 3500 
L 1178 0 
L 603 0 
L 603 3500 
z
M 603 4863 
L 1178 4863 
L 1178 4134 
L 603 4134 
L 603 4863 
z
" id="DejaVuSans-69" transform="scale(0.015625)"/>
      <path d="M 3513 2113 
L 3513 0 
L 2938 0 
L 2938 2094 
Q 2938 2591 2744 2837 
Q 2550 3084 2163 3084 
Q 1697 3084 1428 2787 
Q 1159 2491 1159 1978 
L 1159 0 
L 581 0 
L 581 3500 
L 1159 3500 
L 1159 2956 
Q 1366 3272 1645 3428 
Q 1925 3584 2291 3584 
Q 2894 3584 3203 3211 
Q 3513 2838 3513 2113 
z
" id="DejaVuSans-6e" transform="scale(0.015625)"/>
     </defs>
     <use xlink:href="#DejaVuSans-4c"/>
     <use x="55.712891" xlink:href="#DejaVuSans-61"/>
     <use x="116.992188" xlink:href="#DejaVuSans-73"/>
     <use x="169.091797" xlink:href="#DejaVuSans-73"/>
     <use x="221.191406" xlink:href="#DejaVuSans-6f"/>
     <use x="282.373047" xlink:href="#DejaVuSans-20"/>
     <use x="314.160156" xlink:href="#DejaVuSans-52"/>
     <use x="379.142578" xlink:href="#DejaVuSans-65"/>
     <use x="440.666016" xlink:href="#DejaVuSans-67"/>
     <use x="504.142578" xlink:href="#DejaVuSans-72"/>
     <use x="543.005859" xlink:href="#DejaVuSans-65"/>
     <use x="604.529297" xlink:href="#DejaVuSans-73"/>
     <use x="656.628906" xlink:href="#DejaVuSans-73"/>
     <use x="708.728516" xlink:href="#DejaVuSans-69"/>
     <use x="736.511719" xlink:href="#DejaVuSans-6f"/>
     <use x="797.693359" xlink:href="#DejaVuSans-6e"/>
    </g>
   </g>
   <g id="legend_1">
    <g id="patch_7">
     <path d="M 269.190125 53.368 
L 357.113125 53.368 
Q 358.873125 53.368 358.873125 51.608 
L 358.873125 26.6545 
Q 358.873125 24.8945 357.113125 24.8945 
L 269.190125 24.8945 
Q 267.430125 24.8945 267.430125 26.6545 
L 267.430125 51.608 
Q 267.430125 53.368 269.190125 53.368 
z
" style="fill:#eaeaf2;opacity:0.8;stroke:#cccccc;stroke-linejoin:miter;stroke-width:0.8;"/>
    </g>
    <g id="line2d_14">
     <path d="M 270.950125 32.021125 
L 288.550125 32.021125 
" style="fill:none;stroke:#4c72b0;stroke-linecap:round;stroke-width:1.2;"/>
    </g>
    <g id="line2d_15"/>
    <g id="text_13">
     <!-- alpha=0.002 -->
     <g style="fill:#262626;" transform="translate(295.590125 35.101125)scale(0.088 -0.088)">
      <defs>
       <path d="M 603 4863 
L 1178 4863 
L 1178 0 
L 603 0 
L 603 4863 
z
" id="DejaVuSans-6c" transform="scale(0.015625)"/>
       <path d="M 1159 525 
L 1159 -1331 
L 581 -1331 
L 581 3500 
L 1159 3500 
L 1159 2969 
Q 1341 3281 1617 3432 
Q 1894 3584 2278 3584 
Q 2916 3584 3314 3078 
Q 3713 2572 3713 1747 
Q 3713 922 3314 415 
Q 2916 -91 2278 -91 
Q 1894 -91 1617 61 
Q 1341 213 1159 525 
z
M 3116 1747 
Q 3116 2381 2855 2742 
Q 2594 3103 2138 3103 
Q 1681 3103 1420 2742 
Q 1159 2381 1159 1747 
Q 1159 1113 1420 752 
Q 1681 391 2138 391 
Q 2594 391 2855 752 
Q 3116 1113 3116 1747 
z
" id="DejaVuSans-70" transform="scale(0.015625)"/>
       <path d="M 3513 2113 
L 3513 0 
L 2938 0 
L 2938 2094 
Q 2938 2591 2744 2837 
Q 2550 3084 2163 3084 
Q 1697 3084 1428 2787 
Q 1159 2491 1159 1978 
L 1159 0 
L 581 0 
L 581 4863 
L 1159 4863 
L 1159 2956 
Q 1366 3272 1645 3428 
Q 1925 3584 2291 3584 
Q 2894 3584 3203 3211 
Q 3513 2838 3513 2113 
z
" id="DejaVuSans-68" transform="scale(0.015625)"/>
       <path d="M 678 2906 
L 4684 2906 
L 4684 2381 
L 678 2381 
L 678 2906 
z
M 678 1631 
L 4684 1631 
L 4684 1100 
L 678 1100 
L 678 1631 
z
" id="DejaVuSans-3d" transform="scale(0.015625)"/>
      </defs>
      <use xlink:href="#DejaVuSans-61"/>
      <use x="61.279297" xlink:href="#DejaVuSans-6c"/>
      <use x="89.0625" xlink:href="#DejaVuSans-70"/>
      <use x="152.539062" xlink:href="#DejaVuSans-68"/>
      <use x="215.917969" xlink:href="#DejaVuSans-61"/>
      <use x="277.197266" xlink:href="#DejaVuSans-3d"/>
      <use x="360.986328" xlink:href="#DejaVuSans-30"/>
      <use x="424.609375" xlink:href="#DejaVuSans-2e"/>
      <use x="456.396484" xlink:href="#DejaVuSans-30"/>
      <use x="520.019531" xlink:href="#DejaVuSans-30"/>
      <use x="583.642578" xlink:href="#DejaVuSans-32"/>
     </g>
    </g>
    <g id="line2d_16">
     <path d="M 270.950125 44.937875 
L 288.550125 44.937875 
" style="fill:none;stroke:#dd8452;stroke-linecap:round;stroke-width:1.2;"/>
    </g>
    <g id="line2d_17"/>
    <g id="text_14">
     <!-- alpha=10000 -->
     <g style="fill:#262626;" transform="translate(295.590125 48.017875)scale(0.088 -0.088)">
      <use xlink:href="#DejaVuSans-61"/>
      <use x="61.279297" xlink:href="#DejaVuSans-6c"/>
      <use x="89.0625" xlink:href="#DejaVuSans-70"/>
      <use x="152.539062" xlink:href="#DejaVuSans-68"/>
      <use x="215.917969" xlink:href="#DejaVuSans-61"/>
      <use x="277.197266" xlink:href="#DejaVuSans-3d"/>
      <use x="360.986328" xlink:href="#DejaVuSans-31"/>
      <use x="424.609375" xlink:href="#DejaVuSans-30"/>
      <use x="488.232422" xlink:href="#DejaVuSans-30"/>
      <use x="551.855469" xlink:href="#DejaVuSans-30"/>
      <use x="615.478516" xlink:href="#DejaVuSans-30"/>
     </g>
    </g>
   </g>
  </g>
 </g>
 <defs>
  <clipPath id="p3c6ec7bd44">
   <rect height="217.44" width="334.8" x="28.473125" y="20.4945"/>
  </clipPath>
 </defs>
</svg>
