<?xml version="1.0" encoding="utf-8" standalone="no"?>
<!DOCTYPE svg PUBLIC "-//W3C//DTD SVG 1.1//EN"
  "http://www.w3.org/Graphics/SVG/1.1/DTD/svg11.dtd">
<svg height="316.31125pt" version="1.1" viewBox="0 0 482.073125 316.31125" width="482.073125pt" xmlns="http://www.w3.org/2000/svg" xmlns:xlink="http://www.w3.org/1999/xlink">
 <metadata>
  <rdf:RDF xmlns:cc="http://creativecommons.org/ns#" xmlns:dc="http://purl.org/dc/elements/1.1/" xmlns:rdf="http://www.w3.org/1999/02/22-rdf-syntax-ns#">
   <cc:Work>
    <dc:type rdf:resource="http://purl.org/dc/dcmitype/StillImage"/>
    <dc:date>2021-05-02T00:36:25.731596</dc:date>
    <dc:format>image/svg+xml</dc:format>
    <dc:creator>
     <cc:Agent>
      <dc:title>Matplotlib v3.4.1, https://matplotlib.org/</dc:title>
     </cc:Agent>
    </dc:creator>
   </cc:Work>
  </rdf:RDF>
 </metadata>
 <defs>
  <style type="text/css">*{stroke-linecap:butt;stroke-linejoin:round;}</style>
 </defs>
 <g id="figure_1">
  <g id="patch_1">
   <path d="M 0 316.31125 
L 482.073125 316.31125 
L 482.073125 0 
L 0 0 
z
" style="fill:#ffffff;"/>
  </g>
  <g id="axes_1">
   <g id="patch_2">
    <path d="M 28.473125 292.2945 
L 474.873125 292.2945 
L 474.873125 20.4945 
L 28.473125 20.4945 
z
" style="fill:#eaeaf2;"/>
   </g>
   <g id="matplotlib.axis_1">
    <g id="xtick_1">
     <g id="line2d_1">
      <path clip-path="url(#pcd61a1c4d5)" d="M 42.090497 292.2945 
L 42.090497 20.4945 
" style="fill:none;stroke:#ffffff;stroke-dasharray:2.96,1.28;stroke-dashoffset:0;stroke-width:0.8;"/>
     </g>
     <g id="text_1">
      <!-- 0.0 -->
      <g style="fill:#262626;" transform="translate(35.093122 307.281125)scale(0.088 -0.088)">
       <defs>
        <path d="M 2034 4250 
Q 1547 4250 1301 3770 
Q 1056 3291 1056 2328 
Q 1056 1369 1301 889 
Q 1547 409 2034 409 
Q 2525 409 2770 889 
Q 3016 1369 3016 2328 
Q 3016 3291 2770 3770 
Q 2525 4250 2034 4250 
z
M 2034 4750 
Q 2819 4750 3233 4129 
Q 3647 3509 3647 2328 
Q 3647 1150 3233 529 
Q 2819 -91 2034 -91 
Q 1250 -91 836 529 
Q 422 1150 422 2328 
Q 422 3509 836 4129 
Q 1250 4750 2034 4750 
z
" id="DejaVuSans-30" transform="scale(0.015625)"/>
        <path d="M 684 794 
L 1344 794 
L 1344 0 
L 684 0 
L 684 794 
z
" id="DejaVuSans-2e" transform="scale(0.015625)"/>
       </defs>
       <use xlink:href="#DejaVuSans-30"/>
       <use x="63.623047" xlink:href="#DejaVuSans-2e"/>
       <use x="95.410156" xlink:href="#DejaVuSans-30"/>
      </g>
     </g>
    </g>
    <g id="xtick_2">
     <g id="line2d_2">
      <path clip-path="url(#pcd61a1c4d5)" d="M 124.642878 292.2945 
L 124.642878 20.4945 
" style="fill:none;stroke:#ffffff;stroke-dasharray:2.96,1.28;stroke-dashoffset:0;stroke-width:0.8;"/>
     </g>
     <g id="text_2">
      <!-- 0.2 -->
      <g style="fill:#262626;" transform="translate(117.645503 307.281125)scale(0.088 -0.088)">
       <defs>
        <path d="M 1228 531 
L 3431 531 
L 3431 0 
L 469 0 
L 469 531 
Q 828 903 1448 1529 
Q 2069 2156 2228 2338 
Q 2531 2678 2651 2914 
Q 2772 3150 2772 3378 
Q 2772 3750 2511 3984 
Q 2250 4219 1831 4219 
Q 1534 4219 1204 4116 
Q 875 4013 500 3803 
L 500 4441 
Q 881 4594 1212 4672 
Q 1544 4750 1819 4750 
Q 2544 4750 2975 4387 
Q 3406 4025 3406 3419 
Q 3406 3131 3298 2873 
Q 3191 2616 2906 2266 
Q 2828 2175 2409 1742 
Q 1991 1309 1228 531 
z
" id="DejaVuSans-32" transform="scale(0.015625)"/>
       </defs>
       <use xlink:href="#DejaVuSans-30"/>
       <use x="63.623047" xlink:href="#DejaVuSans-2e"/>
       <use x="95.410156" xlink:href="#DejaVuSans-32"/>
      </g>
     </g>
    </g>
    <g id="xtick_3">
     <g id="line2d_3">
      <path clip-path="url(#pcd61a1c4d5)" d="M 207.195259 292.2945 
L 207.195259 20.4945 
" style="fill:none;stroke:#ffffff;stroke-dasharray:2.96,1.28;stroke-dashoffset:0;stroke-width:0.8;"/>
     </g>
     <g id="text_3">
      <!-- 0.4 -->
      <g style="fill:#262626;" transform="translate(200.197884 307.281125)scale(0.088 -0.088)">
       <defs>
        <path d="M 2419 4116 
L 825 1625 
L 2419 1625 
L 2419 4116 
z
M 2253 4666 
L 3047 4666 
L 3047 1625 
L 3713 1625 
L 3713 1100 
L 3047 1100 
L 3047 0 
L 2419 0 
L 2419 1100 
L 313 1100 
L 313 1709 
L 2253 4666 
z
" id="DejaVuSans-34" transform="scale(0.015625)"/>
       </defs>
       <use xlink:href="#DejaVuSans-30"/>
       <use x="63.623047" xlink:href="#DejaVuSans-2e"/>
       <use x="95.410156" xlink:href="#DejaVuSans-34"/>
      </g>
     </g>
    </g>
    <g id="xtick_4">
     <g id="line2d_4">
      <path clip-path="url(#pcd61a1c4d5)" d="M 289.747639 292.2945 
L 289.747639 20.4945 
" style="fill:none;stroke:#ffffff;stroke-dasharray:2.96,1.28;stroke-dashoffset:0;stroke-width:0.8;"/>
     </g>
     <g id="text_4">
      <!-- 0.6 -->
      <g style="fill:#262626;" transform="translate(282.750264 307.281125)scale(0.088 -0.088)">
       <defs>
        <path d="M 2113 2584 
Q 1688 2584 1439 2293 
Q 1191 2003 1191 1497 
Q 1191 994 1439 701 
Q 1688 409 2113 409 
Q 2538 409 2786 701 
Q 3034 994 3034 1497 
Q 3034 2003 2786 2293 
Q 2538 2584 2113 2584 
z
M 3366 4563 
L 3366 3988 
Q 3128 4100 2886 4159 
Q 2644 4219 2406 4219 
Q 1781 4219 1451 3797 
Q 1122 3375 1075 2522 
Q 1259 2794 1537 2939 
Q 1816 3084 2150 3084 
Q 2853 3084 3261 2657 
Q 3669 2231 3669 1497 
Q 3669 778 3244 343 
Q 2819 -91 2113 -91 
Q 1303 -91 875 529 
Q 447 1150 447 2328 
Q 447 3434 972 4092 
Q 1497 4750 2381 4750 
Q 2619 4750 2861 4703 
Q 3103 4656 3366 4563 
z
" id="DejaVuSans-36" transform="scale(0.015625)"/>
       </defs>
       <use xlink:href="#DejaVuSans-30"/>
       <use x="63.623047" xlink:href="#DejaVuSans-2e"/>
       <use x="95.410156" xlink:href="#DejaVuSans-36"/>
      </g>
     </g>
    </g>
    <g id="xtick_5">
     <g id="line2d_5">
      <path clip-path="url(#pcd61a1c4d5)" d="M 372.30002 292.2945 
L 372.30002 20.4945 
" style="fill:none;stroke:#ffffff;stroke-dasharray:2.96,1.28;stroke-dashoffset:0;stroke-width:0.8;"/>
     </g>
     <g id="text_5">
      <!-- 0.8 -->
      <g style="fill:#262626;" transform="translate(365.302645 307.281125)scale(0.088 -0.088)">
       <defs>
        <path d="M 2034 2216 
Q 1584 2216 1326 1975 
Q 1069 1734 1069 1313 
Q 1069 891 1326 650 
Q 1584 409 2034 409 
Q 2484 409 2743 651 
Q 3003 894 3003 1313 
Q 3003 1734 2745 1975 
Q 2488 2216 2034 2216 
z
M 1403 2484 
Q 997 2584 770 2862 
Q 544 3141 544 3541 
Q 544 4100 942 4425 
Q 1341 4750 2034 4750 
Q 2731 4750 3128 4425 
Q 3525 4100 3525 3541 
Q 3525 3141 3298 2862 
Q 3072 2584 2669 2484 
Q 3125 2378 3379 2068 
Q 3634 1759 3634 1313 
Q 3634 634 3220 271 
Q 2806 -91 2034 -91 
Q 1263 -91 848 271 
Q 434 634 434 1313 
Q 434 1759 690 2068 
Q 947 2378 1403 2484 
z
M 1172 3481 
Q 1172 3119 1398 2916 
Q 1625 2713 2034 2713 
Q 2441 2713 2670 2916 
Q 2900 3119 2900 3481 
Q 2900 3844 2670 4047 
Q 2441 4250 2034 4250 
Q 1625 4250 1398 4047 
Q 1172 3844 1172 3481 
z
" id="DejaVuSans-38" transform="scale(0.015625)"/>
       </defs>
       <use xlink:href="#DejaVuSans-30"/>
       <use x="63.623047" xlink:href="#DejaVuSans-2e"/>
       <use x="95.410156" xlink:href="#DejaVuSans-38"/>
      </g>
     </g>
    </g>
    <g id="xtick_6">
     <g id="line2d_6">
      <path clip-path="url(#pcd61a1c4d5)" d="M 454.852401 292.2945 
L 454.852401 20.4945 
" style="fill:none;stroke:#ffffff;stroke-dasharray:2.96,1.28;stroke-dashoffset:0;stroke-width:0.8;"/>
     </g>
     <g id="text_6">
      <!-- 1.0 -->
      <g style="fill:#262626;" transform="translate(447.855026 307.281125)scale(0.088 -0.088)">
       <defs>
        <path d="M 794 531 
L 1825 531 
L 1825 4091 
L 703 3866 
L 703 4441 
L 1819 4666 
L 2450 4666 
L 2450 531 
L 3481 531 
L 3481 0 
L 794 0 
L 794 531 
z
" id="DejaVuSans-31" transform="scale(0.015625)"/>
       </defs>
       <use xlink:href="#DejaVuSans-31"/>
       <use x="63.623047" xlink:href="#DejaVuSans-2e"/>
       <use x="95.410156" xlink:href="#DejaVuSans-30"/>
      </g>
     </g>
    </g>
   </g>
   <g id="matplotlib.axis_2">
    <g id="ytick_1">
     <g id="line2d_7">
      <path clip-path="url(#pcd61a1c4d5)" d="M 28.473125 246.792472 
L 474.873125 246.792472 
" style="fill:none;stroke:#ffffff;stroke-dasharray:2.96,1.28;stroke-dashoffset:0;stroke-width:0.8;"/>
     </g>
     <g id="text_7">
      <!-- −2 -->
      <g style="fill:#262626;" transform="translate(7.2 250.135785)scale(0.088 -0.088)">
       <defs>
        <path d="M 678 2272 
L 4684 2272 
L 4684 1741 
L 678 1741 
L 678 2272 
z
" id="DejaVuSans-2212" transform="scale(0.015625)"/>
       </defs>
       <use xlink:href="#DejaVuSans-2212"/>
       <use x="83.789062" xlink:href="#DejaVuSans-32"/>
      </g>
     </g>
    </g>
    <g id="ytick_2">
     <g id="line2d_8">
      <path clip-path="url(#pcd61a1c4d5)" d="M 28.473125 197.68536 
L 474.873125 197.68536 
" style="fill:none;stroke:#ffffff;stroke-dasharray:2.96,1.28;stroke-dashoffset:0;stroke-width:0.8;"/>
     </g>
     <g id="text_8">
      <!-- −1 -->
      <g style="fill:#262626;" transform="translate(7.2 201.028673)scale(0.088 -0.088)">
       <use xlink:href="#DejaVuSans-2212"/>
       <use x="83.789062" xlink:href="#DejaVuSans-31"/>
      </g>
     </g>
    </g>
    <g id="ytick_3">
     <g id="line2d_9">
      <path clip-path="url(#pcd61a1c4d5)" d="M 28.473125 148.578248 
L 474.873125 148.578248 
" style="fill:none;stroke:#ffffff;stroke-dasharray:2.96,1.28;stroke-dashoffset:0;stroke-width:0.8;"/>
     </g>
     <g id="text_9">
      <!-- 0 -->
      <g style="fill:#262626;" transform="translate(14.574125 151.92156)scale(0.088 -0.088)">
       <use xlink:href="#DejaVuSans-30"/>
      </g>
     </g>
    </g>
    <g id="ytick_4">
     <g id="line2d_10">
      <path clip-path="url(#pcd61a1c4d5)" d="M 28.473125 99.471136 
L 474.873125 99.471136 
" style="fill:none;stroke:#ffffff;stroke-dasharray:2.96,1.28;stroke-dashoffset:0;stroke-width:0.8;"/>
     </g>
     <g id="text_10">
      <!-- 1 -->
      <g style="fill:#262626;" transform="translate(14.574125 102.814448)scale(0.088 -0.088)">
       <use xlink:href="#DejaVuSans-31"/>
      </g>
     </g>
    </g>
    <g id="ytick_5">
     <g id="line2d_11">
      <path clip-path="url(#pcd61a1c4d5)" d="M 28.473125 50.364024 
L 474.873125 50.364024 
" style="fill:none;stroke:#ffffff;stroke-dasharray:2.96,1.28;stroke-dashoffset:0;stroke-width:0.8;"/>
     </g>
     <g id="text_11">
      <!-- 2 -->
      <g style="fill:#262626;" transform="translate(14.574125 53.707336)scale(0.088 -0.088)">
       <use xlink:href="#DejaVuSans-32"/>
      </g>
     </g>
    </g>
   </g>
   <g id="PathCollection_1">
    <defs>
     <path d="M 0 2.4 
C 0.636487 2.4 1.246992 2.147121 1.697056 1.697056 
C 2.147121 1.246992 2.4 0.636487 2.4 0 
C 2.4 -0.636487 2.147121 -1.246992 1.697056 -1.697056 
C 1.246992 -2.147121 0.636487 -2.4 0 -2.4 
C -0.636487 -2.4 -1.246992 -2.147121 -1.697056 -1.697056 
C -2.147121 -1.246992 -2.4 -0.636487 -2.4 0 
C -2.4 0.636487 -2.147121 1.246992 -1.697056 1.697056 
C -1.246992 2.147121 -0.636487 2.4 0 2.4 
z
" id="m7dbb9343b2" style="stroke:#4c72b0;stroke-width:0.8;"/>
    </defs>
    <g clip-path="url(#pcd61a1c4d5)">
     <use style="fill:#4c72b0;stroke:#4c72b0;stroke-width:0.8;" x="48.764034" xlink:href="#m7dbb9343b2" y="142.560024"/>
     <use style="fill:#4c72b0;stroke:#4c72b0;stroke-width:0.8;" x="52.164073" xlink:href="#m7dbb9343b2" y="125.167445"/>
     <use style="fill:#4c72b0;stroke:#4c72b0;stroke-width:0.8;" x="55.072788" xlink:href="#m7dbb9343b2" y="149.421054"/>
     <use style="fill:#4c72b0;stroke:#4c72b0;stroke-width:0.8;" x="66.834029" xlink:href="#m7dbb9343b2" y="211.927296"/>
     <use style="fill:#4c72b0;stroke:#4c72b0;stroke-width:0.8;" x="71.064195" xlink:href="#m7dbb9343b2" y="177.330695"/>
     <use style="fill:#4c72b0;stroke:#4c72b0;stroke-width:0.8;" x="74.680991" xlink:href="#m7dbb9343b2" y="234.298536"/>
     <use style="fill:#4c72b0;stroke:#4c72b0;stroke-width:0.8;" x="78.262374" xlink:href="#m7dbb9343b2" y="201.724124"/>
     <use style="fill:#4c72b0;stroke:#4c72b0;stroke-width:0.8;" x="78.339759" xlink:href="#m7dbb9343b2" y="249.78975"/>
     <use style="fill:#4c72b0;stroke:#4c72b0;stroke-width:0.8;" x="80.506974" xlink:href="#m7dbb9343b2" y="252.205534"/>
     <use style="fill:#4c72b0;stroke:#4c72b0;stroke-width:0.8;" x="80.906672" xlink:href="#m7dbb9343b2" y="246.523808"/>
     <use style="fill:#4c72b0;stroke:#4c72b0;stroke-width:0.8;" x="85.826267" xlink:href="#m7dbb9343b2" y="240.40474"/>
     <use style="fill:#4c72b0;stroke:#4c72b0;stroke-width:0.8;" x="90.978206" xlink:href="#m7dbb9343b2" y="246.529853"/>
     <use style="fill:#4c72b0;stroke:#4c72b0;stroke-width:0.8;" x="96.329025" xlink:href="#m7dbb9343b2" y="271.794427"/>
     <use style="fill:#4c72b0;stroke:#4c72b0;stroke-width:0.8;" x="97.922426" xlink:href="#m7dbb9343b2" y="220.45117"/>
     <use style="fill:#4c72b0;stroke:#4c72b0;stroke-width:0.8;" x="105.964924" xlink:href="#m7dbb9343b2" y="239.344593"/>
     <use style="fill:#4c72b0;stroke:#4c72b0;stroke-width:0.8;" x="111.418086" xlink:href="#m7dbb9343b2" y="242.699037"/>
     <use style="fill:#4c72b0;stroke:#4c72b0;stroke-width:0.8;" x="111.768943" xlink:href="#m7dbb9343b2" y="279.939955"/>
     <use style="fill:#4c72b0;stroke:#4c72b0;stroke-width:0.8;" x="117.047378" xlink:href="#m7dbb9343b2" y="255.752884"/>
     <use style="fill:#4c72b0;stroke:#4c72b0;stroke-width:0.8;" x="119.81098" xlink:href="#m7dbb9343b2" y="247.059971"/>
     <use style="fill:#4c72b0;stroke:#4c72b0;stroke-width:0.8;" x="126.998177" xlink:href="#m7dbb9343b2" y="224.927478"/>
     <use style="fill:#4c72b0;stroke:#4c72b0;stroke-width:0.8;" x="127.409433" xlink:href="#m7dbb9343b2" y="258.784091"/>
     <use style="fill:#4c72b0;stroke:#4c72b0;stroke-width:0.8;" x="128.015037" xlink:href="#m7dbb9343b2" y="259.727665"/>
     <use style="fill:#4c72b0;stroke:#4c72b0;stroke-width:0.8;" x="130.002484" xlink:href="#m7dbb9343b2" y="240.642735"/>
     <use style="fill:#4c72b0;stroke:#4c72b0;stroke-width:0.8;" x="134.671706" xlink:href="#m7dbb9343b2" y="253.851258"/>
     <use style="fill:#4c72b0;stroke:#4c72b0;stroke-width:0.8;" x="140.851965" xlink:href="#m7dbb9343b2" y="217.479322"/>
     <use style="fill:#4c72b0;stroke:#4c72b0;stroke-width:0.8;" x="145.135947" xlink:href="#m7dbb9343b2" y="238.359823"/>
     <use style="fill:#4c72b0;stroke:#4c72b0;stroke-width:0.8;" x="145.178184" xlink:href="#m7dbb9343b2" y="225.827578"/>
     <use style="fill:#4c72b0;stroke:#4c72b0;stroke-width:0.8;" x="148.781925" xlink:href="#m7dbb9343b2" y="186.327541"/>
     <use style="fill:#4c72b0;stroke:#4c72b0;stroke-width:0.8;" x="153.862962" xlink:href="#m7dbb9343b2" y="222.361596"/>
     <use style="fill:#4c72b0;stroke:#4c72b0;stroke-width:0.8;" x="155.046319" xlink:href="#m7dbb9343b2" y="226.483886"/>
     <use style="fill:#4c72b0;stroke:#4c72b0;stroke-width:0.8;" x="155.700377" xlink:href="#m7dbb9343b2" y="215.771451"/>
     <use style="fill:#4c72b0;stroke:#4c72b0;stroke-width:0.8;" x="157.194907" xlink:href="#m7dbb9343b2" y="233.790774"/>
     <use style="fill:#4c72b0;stroke:#4c72b0;stroke-width:0.8;" x="157.388393" xlink:href="#m7dbb9343b2" y="278.981532"/>
     <use style="fill:#4c72b0;stroke:#4c72b0;stroke-width:0.8;" x="163.889955" xlink:href="#m7dbb9343b2" y="212.846145"/>
     <use style="fill:#4c72b0;stroke:#4c72b0;stroke-width:0.8;" x="166.000348" xlink:href="#m7dbb9343b2" y="207.371107"/>
     <use style="fill:#4c72b0;stroke:#4c72b0;stroke-width:0.8;" x="167.95679" xlink:href="#m7dbb9343b2" y="196.435258"/>
     <use style="fill:#4c72b0;stroke:#4c72b0;stroke-width:0.8;" x="169.815855" xlink:href="#m7dbb9343b2" y="177.570142"/>
     <use style="fill:#4c72b0;stroke:#4c72b0;stroke-width:0.8;" x="177.318949" xlink:href="#m7dbb9343b2" y="179.091975"/>
     <use style="fill:#4c72b0;stroke:#4c72b0;stroke-width:0.8;" x="181.582887" xlink:href="#m7dbb9343b2" y="217.060506"/>
     <use style="fill:#4c72b0;stroke:#4c72b0;stroke-width:0.8;" x="185.958274" xlink:href="#m7dbb9343b2" y="130.245387"/>
     <use style="fill:#4c72b0;stroke:#4c72b0;stroke-width:0.8;" x="188.021897" xlink:href="#m7dbb9343b2" y="176.569477"/>
     <use style="fill:#4c72b0;stroke:#4c72b0;stroke-width:0.8;" x="190.633923" xlink:href="#m7dbb9343b2" y="165.791753"/>
     <use style="fill:#4c72b0;stroke:#4c72b0;stroke-width:0.8;" x="196.350836" xlink:href="#m7dbb9343b2" y="133.069205"/>
     <use style="fill:#4c72b0;stroke:#4c72b0;stroke-width:0.8;" x="197.033261" xlink:href="#m7dbb9343b2" y="143.220023"/>
     <use style="fill:#4c72b0;stroke:#4c72b0;stroke-width:0.8;" x="198.028323" xlink:href="#m7dbb9343b2" y="158.019892"/>
     <use style="fill:#4c72b0;stroke:#4c72b0;stroke-width:0.8;" x="201.505066" xlink:href="#m7dbb9343b2" y="134.436797"/>
     <use style="fill:#4c72b0;stroke:#4c72b0;stroke-width:0.8;" x="201.723032" xlink:href="#m7dbb9343b2" y="136.222779"/>
     <use style="fill:#4c72b0;stroke:#4c72b0;stroke-width:0.8;" x="202.156258" xlink:href="#m7dbb9343b2" y="151.454872"/>
     <use style="fill:#4c72b0;stroke:#4c72b0;stroke-width:0.8;" x="212.646714" xlink:href="#m7dbb9343b2" y="144.970036"/>
     <use style="fill:#4c72b0;stroke:#4c72b0;stroke-width:0.8;" x="218.039243" xlink:href="#m7dbb9343b2" y="121.521001"/>
     <use style="fill:#4c72b0;stroke:#4c72b0;stroke-width:0.8;" x="223.386073" xlink:href="#m7dbb9343b2" y="135.057926"/>
     <use style="fill:#4c72b0;stroke:#4c72b0;stroke-width:0.8;" x="228.158619" xlink:href="#m7dbb9343b2" y="138.392313"/>
     <use style="fill:#4c72b0;stroke:#4c72b0;stroke-width:0.8;" x="228.982877" xlink:href="#m7dbb9343b2" y="98.034472"/>
     <use style="fill:#4c72b0;stroke:#4c72b0;stroke-width:0.8;" x="241.511001" xlink:href="#m7dbb9343b2" y="94.93294"/>
     <use style="fill:#4c72b0;stroke:#4c72b0;stroke-width:0.8;" x="244.261133" xlink:href="#m7dbb9343b2" y="32.849045"/>
     <use style="fill:#4c72b0;stroke:#4c72b0;stroke-width:0.8;" x="250.181768" xlink:href="#m7dbb9343b2" y="99.863501"/>
     <use style="fill:#4c72b0;stroke:#4c72b0;stroke-width:0.8;" x="258.032335" xlink:href="#m7dbb9343b2" y="119.762809"/>
     <use style="fill:#4c72b0;stroke:#4c72b0;stroke-width:0.8;" x="276.048889" xlink:href="#m7dbb9343b2" y="77.661223"/>
     <use style="fill:#4c72b0;stroke:#4c72b0;stroke-width:0.8;" x="281.789593" xlink:href="#m7dbb9343b2" y="76.431223"/>
     <use style="fill:#4c72b0;stroke:#4c72b0;stroke-width:0.8;" x="283.163447" xlink:href="#m7dbb9343b2" y="145.557341"/>
     <use style="fill:#4c72b0;stroke:#4c72b0;stroke-width:0.8;" x="289.675687" xlink:href="#m7dbb9343b2" y="81.085651"/>
     <use style="fill:#4c72b0;stroke:#4c72b0;stroke-width:0.8;" x="290.889748" xlink:href="#m7dbb9343b2" y="68.183937"/>
     <use style="fill:#4c72b0;stroke:#4c72b0;stroke-width:0.8;" x="295.418728" xlink:href="#m7dbb9343b2" y="59.515399"/>
     <use style="fill:#4c72b0;stroke:#4c72b0;stroke-width:0.8;" x="312.149062" xlink:href="#m7dbb9343b2" y="45.409719"/>
     <use style="fill:#4c72b0;stroke:#4c72b0;stroke-width:0.8;" x="312.593088" xlink:href="#m7dbb9343b2" y="121.595634"/>
     <use style="fill:#4c72b0;stroke:#4c72b0;stroke-width:0.8;" x="321.727883" xlink:href="#m7dbb9343b2" y="61.320685"/>
     <use style="fill:#4c72b0;stroke:#4c72b0;stroke-width:0.8;" x="323.994563" xlink:href="#m7dbb9343b2" y="71.271007"/>
     <use style="fill:#4c72b0;stroke:#4c72b0;stroke-width:0.8;" x="324.964296" xlink:href="#m7dbb9343b2" y="73.957117"/>
     <use style="fill:#4c72b0;stroke:#4c72b0;stroke-width:0.8;" x="327.169396" xlink:href="#m7dbb9343b2" y="70.845036"/>
     <use style="fill:#4c72b0;stroke:#4c72b0;stroke-width:0.8;" x="329.203385" xlink:href="#m7dbb9343b2" y="86.595707"/>
     <use style="fill:#4c72b0;stroke:#4c72b0;stroke-width:0.8;" x="330.197721" xlink:href="#m7dbb9343b2" y="119.4386"/>
     <use style="fill:#4c72b0;stroke:#4c72b0;stroke-width:0.8;" x="336.683833" xlink:href="#m7dbb9343b2" y="140.631361"/>
     <use style="fill:#4c72b0;stroke:#4c72b0;stroke-width:0.8;" x="340.608305" xlink:href="#m7dbb9343b2" y="118.142662"/>
     <use style="fill:#4c72b0;stroke:#4c72b0;stroke-width:0.8;" x="341.127443" xlink:href="#m7dbb9343b2" y="85.555274"/>
     <use style="fill:#4c72b0;stroke:#4c72b0;stroke-width:0.8;" x="349.931703" xlink:href="#m7dbb9343b2" y="142.99382"/>
     <use style="fill:#4c72b0;stroke:#4c72b0;stroke-width:0.8;" x="354.884979" xlink:href="#m7dbb9343b2" y="124.365404"/>
     <use style="fill:#4c72b0;stroke:#4c72b0;stroke-width:0.8;" x="363.312205" xlink:href="#m7dbb9343b2" y="124.740547"/>
     <use style="fill:#4c72b0;stroke:#4c72b0;stroke-width:0.8;" x="365.229013" xlink:href="#m7dbb9343b2" y="147.482099"/>
     <use style="fill:#4c72b0;stroke:#4c72b0;stroke-width:0.8;" x="371.242805" xlink:href="#m7dbb9343b2" y="137.440072"/>
     <use style="fill:#4c72b0;stroke:#4c72b0;stroke-width:0.8;" x="372.611296" xlink:href="#m7dbb9343b2" y="112.541706"/>
     <use style="fill:#4c72b0;stroke:#4c72b0;stroke-width:0.8;" x="373.541149" xlink:href="#m7dbb9343b2" y="159.798455"/>
     <use style="fill:#4c72b0;stroke:#4c72b0;stroke-width:0.8;" x="377.080985" xlink:href="#m7dbb9343b2" y="168.628234"/>
     <use style="fill:#4c72b0;stroke:#4c72b0;stroke-width:0.8;" x="379.284117" xlink:href="#m7dbb9343b2" y="139.38785"/>
     <use style="fill:#4c72b0;stroke:#4c72b0;stroke-width:0.8;" x="379.686466" xlink:href="#m7dbb9343b2" y="127.309301"/>
     <use style="fill:#4c72b0;stroke:#4c72b0;stroke-width:0.8;" x="380.468039" xlink:href="#m7dbb9343b2" y="186.676266"/>
     <use style="fill:#4c72b0;stroke:#4c72b0;stroke-width:0.8;" x="382.549167" xlink:href="#m7dbb9343b2" y="149.780918"/>
     <use style="fill:#4c72b0;stroke:#4c72b0;stroke-width:0.8;" x="387.993116" xlink:href="#m7dbb9343b2" y="158.176144"/>
     <use style="fill:#4c72b0;stroke:#4c72b0;stroke-width:0.8;" x="393.405253" xlink:href="#m7dbb9343b2" y="117.338262"/>
     <use style="fill:#4c72b0;stroke:#4c72b0;stroke-width:0.8;" x="397.092975" xlink:href="#m7dbb9343b2" y="149.350665"/>
     <use style="fill:#4c72b0;stroke:#4c72b0;stroke-width:0.8;" x="402.234534" xlink:href="#m7dbb9343b2" y="161.536119"/>
     <use style="fill:#4c72b0;stroke:#4c72b0;stroke-width:0.8;" x="402.264107" xlink:href="#m7dbb9343b2" y="155.971851"/>
     <use style="fill:#4c72b0;stroke:#4c72b0;stroke-width:0.8;" x="402.893439" xlink:href="#m7dbb9343b2" y="160.538975"/>
     <use style="fill:#4c72b0;stroke:#4c72b0;stroke-width:0.8;" x="412.28875" xlink:href="#m7dbb9343b2" y="112.373411"/>
     <use style="fill:#4c72b0;stroke:#4c72b0;stroke-width:0.8;" x="415.123995" xlink:href="#m7dbb9343b2" y="120.364572"/>
     <use style="fill:#4c72b0;stroke:#4c72b0;stroke-width:0.8;" x="415.4285" xlink:href="#m7dbb9343b2" y="174.180124"/>
     <use style="fill:#4c72b0;stroke:#4c72b0;stroke-width:0.8;" x="423.159697" xlink:href="#m7dbb9343b2" y="138.003274"/>
     <use style="fill:#4c72b0;stroke:#4c72b0;stroke-width:0.8;" x="435.983788" xlink:href="#m7dbb9343b2" y="151.317368"/>
     <use style="fill:#4c72b0;stroke:#4c72b0;stroke-width:0.8;" x="436.246617" xlink:href="#m7dbb9343b2" y="115.918808"/>
     <use style="fill:#4c72b0;stroke:#4c72b0;stroke-width:0.8;" x="454.251435" xlink:href="#m7dbb9343b2" y="125.099348"/>
     <use style="fill:#4c72b0;stroke:#4c72b0;stroke-width:0.8;" x="454.582216" xlink:href="#m7dbb9343b2" y="80.47245"/>
    </g>
   </g>
   <g id="line2d_12">
    <path clip-path="url(#pcd61a1c4d5)" d="M 48.764034 224.749086 
L 52.164073 223.634943 
L 55.072788 222.681802 
L 66.834029 218.827823 
L 71.064195 217.441666 
L 74.680991 216.256502 
L 78.262374 215.082934 
L 78.339759 215.057574 
L 80.506974 214.347411 
L 80.906672 214.216439 
L 85.826267 212.604363 
L 90.978206 210.916157 
L 96.329025 209.162771 
L 97.922426 208.640639 
L 105.964924 206.005239 
L 111.418086 204.218322 
L 111.768943 204.103349 
L 117.047378 202.37369 
L 119.81098 201.468101 
L 126.998177 199.112969 
L 127.409433 198.978209 
L 128.015037 198.779758 
L 130.002484 198.128504 
L 134.671706 196.59847 
L 140.851965 194.573296 
L 145.135947 193.169502 
L 145.178184 193.15566 
L 148.781925 191.974771 
L 153.862962 190.309793 
L 155.046319 189.922026 
L 155.700377 189.707701 
L 157.194907 189.217968 
L 157.388393 189.154566 
L 163.889955 187.024102 
L 166.000348 186.332561 
L 167.95679 185.691466 
L 169.815855 185.082279 
L 177.318949 182.62363 
L 181.582887 181.226403 
L 185.958274 179.792659 
L 188.021897 179.11644 
L 190.633923 178.26052 
L 196.350836 176.387174 
L 197.033261 176.163556 
L 198.028323 175.837487 
L 201.505066 174.698218 
L 201.723032 174.626793 
L 202.156258 174.484827 
L 212.646714 171.047268 
L 218.039243 169.280219 
L 223.386073 167.528151 
L 228.158619 165.96426 
L 228.982877 165.694161 
L 241.511001 161.588892 
L 244.261133 160.687712 
L 250.181768 158.747613 
L 258.032335 156.175103 
L 276.048889 150.271361 
L 281.789593 148.390223 
L 283.163447 147.940031 
L 289.675687 145.806069 
L 290.889748 145.408241 
L 295.418728 143.924164 
L 312.149062 138.441894 
L 312.593088 138.296393 
L 321.727883 135.30306 
L 323.994563 134.560308 
L 324.964296 134.24254 
L 327.169396 133.51996 
L 329.203385 132.853456 
L 330.197721 132.527627 
L 336.683833 130.40223 
L 340.608305 129.116241 
L 341.127443 128.946129 
L 349.931703 126.061102 
L 354.884979 124.437992 
L 363.312205 121.67652 
L 365.229013 121.048418 
L 371.242805 119.07779 
L 372.611296 118.62936 
L 373.541149 118.324658 
L 377.080985 117.164707 
L 379.284117 116.442777 
L 379.686466 116.310932 
L 380.468039 116.054819 
L 382.549167 115.372872 
L 387.993116 113.588975 
L 393.405253 111.815499 
L 397.092975 110.607088 
L 402.234534 108.922276 
L 402.264107 108.912594 
L 402.893439 108.706368 
L 412.28875 105.627667 
L 415.123995 104.698598 
L 415.4285 104.598822 
L 423.159697 102.065423 
L 435.983788 97.86317 
L 436.246617 97.777046 
L 454.251435 91.87715 
L 454.582216 91.768757 
" style="fill:none;stroke:#4c72b0;stroke-linecap:round;stroke-width:1.2;"/>
   </g>
   <g id="line2d_13">
    <path clip-path="url(#pcd61a1c4d5)" d="M 48.764034 264.24135 
L 52.164073 261.079662 
L 55.072788 258.402734 
L 66.834029 247.840799 
L 71.064195 244.144756 
L 74.680991 241.027757 
L 78.262374 237.980433 
L 78.339759 237.91502 
L 80.506974 236.090415 
L 80.906672 235.755471 
L 85.826267 231.672553 
L 90.978206 227.475633 
L 96.329025 223.202079 
L 97.922426 221.946285 
L 105.964924 215.725542 
L 111.418086 211.619406 
L 111.768943 211.358311 
L 117.047378 207.475431 
L 119.81098 205.476246 
L 126.998177 200.385716 
L 127.409433 200.099179 
L 128.015037 199.678169 
L 130.002484 198.304347 
L 134.671706 195.123961 
L 140.851965 191.016222 
L 145.135947 188.23696 
L 145.178184 188.209826 
L 148.781925 185.915523 
L 153.862962 182.747735 
L 155.046319 182.021221 
L 155.700377 181.621497 
L 157.194907 180.713005 
L 157.388393 180.595884 
L 163.889955 176.726508 
L 166.000348 175.498135 
L 167.95679 174.371446 
L 169.815855 173.311622 
L 177.318949 169.140917 
L 181.582887 166.846971 
L 185.958274 164.550496 
L 188.021897 163.487557 
L 190.633923 162.160707 
L 196.350836 159.328976 
L 197.033261 158.997591 
L 198.028323 158.516917 
L 201.505066 156.861083 
L 201.723032 156.758497 
L 202.156258 156.555023 
L 212.646714 151.802188 
L 218.039243 149.489146 
L 223.386073 147.282952 
L 228.158619 145.387067 
L 228.982877 145.066641 
L 241.511001 140.450545 
L 244.261133 139.501069 
L 250.181768 137.534983 
L 258.032335 135.092228 
L 276.048889 130.194306 
L 281.789593 128.840844 
L 283.163447 128.531787 
L 289.675687 127.144852 
L 290.889748 126.900528 
L 295.418728 126.02863 
L 312.149062 123.348154 
L 312.593088 123.288584 
L 321.727883 122.196316 
L 323.994563 121.96452 
L 324.964296 121.870154 
L 327.169396 121.666141 
L 329.203385 121.49107 
L 330.197721 121.410062 
L 336.683833 120.95531 
L 340.608305 120.742271 
L 341.127443 120.71759 
L 349.931703 120.423706 
L 354.884979 120.361899 
L 363.312205 120.428062 
L 365.229013 120.47322 
L 371.242805 120.687395 
L 372.611296 120.751473 
L 373.541149 120.79827 
L 377.080985 121.000433 
L 379.284117 121.145461 
L 379.686466 121.173548 
L 380.468039 121.229513 
L 382.549167 121.387536 
L 387.993116 121.863187 
L 393.405253 122.425326 
L 397.092975 122.859331 
L 402.234534 123.533399 
L 402.264107 123.53752 
L 402.893439 123.6256 
L 412.28875 125.083626 
L 415.123995 125.576336 
L 415.4285 125.630673 
L 423.159697 127.105384 
L 435.983788 129.952008 
L 436.246617 130.015571 
L 454.251435 134.86981 
L 454.582216 134.968228 
" style="fill:none;stroke:#dd8452;stroke-linecap:round;stroke-width:1.2;"/>
   </g>
   <g id="line2d_14">
    <path clip-path="url(#pcd61a1c4d5)" d="M 48.764034 216.491301 
L 52.164073 217.955058 
L 55.072788 219.076654 
L 66.834029 222.429687 
L 71.064195 223.191143 
L 74.680991 223.663932 
L 78.262374 223.974546 
L 78.339759 223.979557 
L 80.506974 224.091129 
L 80.906672 224.105676 
L 85.826267 224.133782 
L 90.978206 223.872019 
L 96.329025 223.297593 
L 97.922426 223.068946 
L 105.964924 221.52877 
L 111.418086 220.134236 
L 111.768943 220.035239 
L 117.047378 218.415436 
L 119.81098 217.472576 
L 126.998177 214.731593 
L 127.409433 214.562611 
L 128.015037 214.31145 
L 130.002484 213.468031 
L 134.671706 211.374257 
L 140.851965 208.373432 
L 145.135947 206.149974 
L 145.178184 206.127489 
L 148.781925 204.171215 
L 153.862962 201.289659 
L 155.046319 200.598902 
L 155.700377 200.214052 
L 157.194907 199.326647 
L 157.388393 199.21096 
L 163.889955 195.221589 
L 166.000348 193.886461 
L 167.95679 192.632383 
L 169.815855 191.42677 
L 177.318949 186.434593 
L 181.582887 183.517451 
L 185.958274 180.472715 
L 188.021897 179.020765 
L 190.633923 177.169945 
L 196.350836 173.075635 
L 197.033261 172.583499 
L 198.028323 171.864794 
L 201.505066 169.344444 
L 201.723032 169.18601 
L 202.156258 168.871 
L 212.646714 161.208878 
L 218.039243 157.265549 
L 223.386073 153.370557 
L 228.158619 149.917561 
L 228.982877 149.32422 
L 241.511001 140.459648 
L 244.261133 138.56244 
L 250.181768 134.553581 
L 258.032335 129.423712 
L 276.048889 118.670935 
L 281.789593 115.60708 
L 283.163447 114.903449 
L 289.675687 111.734069 
L 290.889748 111.174799 
L 295.418728 109.18072 
L 312.149062 103.194594 
L 312.593088 103.067784 
L 321.727883 100.86036 
L 323.994563 100.435826 
L 324.964296 100.269701 
L 327.169396 99.927241 
L 329.203385 99.655403 
L 330.197721 99.538147 
L 336.683833 99.031622 
L 340.608305 98.949689 
L 341.127443 98.95182 
L 349.931703 99.469866 
L 354.884979 100.17462 
L 363.312205 102.094693 
L 365.229013 102.662662 
L 371.242805 104.772019 
L 372.611296 105.32273 
L 373.541149 105.712222 
L 377.080985 107.308813 
L 379.284117 108.394875 
L 379.686466 108.601042 
L 380.468039 109.00833 
L 382.549167 110.137525 
L 387.993116 113.403578 
L 393.405253 117.109597 
L 397.092975 119.904179 
L 402.234534 124.174783 
L 402.264107 124.200588 
L 402.893439 124.754004 
L 412.28875 133.827319 
L 415.123995 136.870405 
L 415.4285 137.205747 
L 423.159697 146.289787 
L 435.983788 163.849658 
L 436.246617 164.243095 
L 454.251435 194.558743 
L 454.582216 195.179293 
" style="fill:none;stroke:#55a868;stroke-linecap:round;stroke-width:1.2;"/>
   </g>
   <g id="line2d_15">
    <path clip-path="url(#pcd61a1c4d5)" d="M 48.764034 126.111965 
L 52.164073 142.331349 
L 55.072788 155.174387 
L 66.834029 198.035062 
L 71.064195 210.150046 
L 74.680991 219.231534 
L 78.262374 227.119855 
L 78.339759 227.278534 
L 80.506974 231.526471 
L 80.906672 232.268949 
L 85.826267 240.397671 
L 90.978206 247.004154 
L 96.329025 251.951249 
L 97.922426 253.070093 
L 105.964924 256.426182 
L 111.418086 256.702655 
L 111.768943 256.669522 
L 117.047378 255.477174 
L 119.81098 254.361514 
L 126.998177 250.035461 
L 127.409433 249.730232 
L 128.015037 249.270012 
L 130.002484 247.672379 
L 134.671706 243.422234 
L 140.851965 236.836528 
L 145.135947 231.714596 
L 145.178184 231.662004 
L 148.781925 227.045403 
L 153.862962 220.13015 
L 155.046319 218.459658 
L 155.700377 217.52744 
L 157.194907 215.375091 
L 157.388393 215.094179 
L 163.889955 205.401976 
L 166.000348 202.16579 
L 167.95679 199.134483 
L 169.815855 196.230477 
L 177.318949 184.350567 
L 181.582887 177.546733 
L 185.958274 170.577459 
L 188.021897 167.306406 
L 190.633923 163.189347 
L 196.350836 154.305322 
L 197.033261 153.259336 
L 198.028323 151.740533 
L 201.505066 146.498629 
L 201.723032 146.173807 
L 202.156258 145.529139 
L 212.646714 130.538107 
L 218.039243 123.374342 
L 223.386073 116.696552 
L 228.158619 111.127428 
L 228.982877 110.204887 
L 241.511001 97.721403 
L 244.261133 95.387264 
L 250.181768 90.884887 
L 258.032335 86.047619 
L 276.048889 79.963737 
L 281.789593 79.493846 
L 283.163447 79.48462 
L 289.675687 79.972764 
L 290.889748 80.158606 
L 295.418728 81.111465 
L 312.149062 87.915018 
L 312.593088 88.160301 
L 321.727883 93.845934 
L 323.994563 95.43087 
L 324.964296 96.128125 
L 327.169396 97.754801 
L 329.203385 99.30213 
L 330.197721 100.07451 
L 336.683833 105.333777 
L 340.608305 108.672005 
L 341.127443 109.120654 
L 349.931703 116.904952 
L 354.884979 121.352292 
L 363.312205 128.822284 
L 365.229013 130.47789 
L 371.242805 135.491015 
L 372.611296 136.584518 
L 373.541149 137.315978 
L 377.080985 140.003496 
L 379.284117 141.588836 
L 379.686466 141.87021 
L 380.468039 142.410852 
L 382.549167 143.799386 
L 387.993116 147.05677 
L 393.405253 149.666757 
L 397.092975 151.028783 
L 402.234534 152.284208 
L 402.264107 152.287861 
L 402.893439 152.385038 
L 412.28875 152.187148 
L 415.123995 151.459973 
L 415.4285 151.362398 
L 423.159697 147.468179 
L 435.983788 134.224418 
L 436.246617 133.853528 
L 454.251435 97.185192 
L 454.582216 96.285359 
" style="fill:none;stroke:#c44e52;stroke-linecap:round;stroke-width:1.2;"/>
   </g>
   <g id="line2d_16">
    <path clip-path="url(#pcd61a1c4d5)" d="M 48.764034 126.633918 
L 52.164073 142.727385 
L 55.072788 155.474435 
L 66.834029 198.044387 
L 71.064195 210.087964 
L 74.680991 219.120337 
L 78.262374 226.969799 
L 78.339759 227.127764 
L 80.506974 231.356687 
L 80.906672 232.095992 
L 85.826267 240.193734 
L 90.978206 246.782228 
L 96.329025 251.723855 
L 97.922426 252.843355 
L 105.964924 256.21587 
L 111.418086 256.513594 
L 111.768943 256.482064 
L 117.047378 255.316224 
L 119.81098 254.216217 
L 126.998177 249.934221 
L 127.409433 249.63158 
L 128.015037 249.175317 
L 130.002484 247.590493 
L 134.671706 243.370924 
L 140.851965 236.82527 
L 145.135947 231.730221 
L 145.178184 231.677897 
L 148.781925 227.083027 
L 153.862962 220.196447 
L 155.046319 218.532171 
L 155.700377 217.603442 
L 157.194907 215.458762 
L 157.388393 215.178846 
L 163.889955 205.516545 
L 166.000348 202.288836 
L 167.95679 199.264916 
L 169.815855 196.367479 
L 177.318949 184.508631 
L 181.582887 177.712976 
L 185.958274 170.749216 
L 188.021897 167.479767 
L 190.633923 163.363569 
L 196.350836 154.478378 
L 197.033261 153.431948 
L 198.028323 151.912232 
L 201.505066 146.666335 
L 201.723032 146.34125 
L 202.156258 145.695914 
L 212.646714 130.682052 
L 218.039243 123.501319 
L 223.386073 116.8038 
L 228.158619 111.214847 
L 228.982877 110.288857 
L 241.511001 97.74544 
L 244.261133 95.39711 
L 250.181768 90.863988 
L 258.032335 85.985947 
L 276.048889 79.817211 
L 281.789593 79.324817 
L 283.163447 79.310486 
L 289.675687 79.778246 
L 290.889748 79.961079 
L 295.418728 80.903718 
L 312.149062 87.692793 
L 312.593088 87.9381 
L 321.727883 93.634674 
L 323.994563 95.225095 
L 324.964296 95.924862 
L 327.169396 97.556776 
L 329.203385 99.110481 
L 330.197721 99.885648 
L 336.683833 105.169443 
L 340.608305 108.525625 
L 341.127443 108.976525 
L 349.931703 116.808554 
L 354.884979 121.286086 
L 363.312205 128.813143 
L 365.229013 130.482242 
L 371.242805 135.537496 
L 372.611296 136.641425 
L 373.541149 137.379313 
L 377.080985 140.091271 
L 379.284117 141.692183 
L 379.686466 141.975799 
L 380.468039 142.521675 
L 382.549167 143.92458 
L 387.993116 147.214448 
L 393.405253 149.85391 
L 397.092975 151.232275 
L 402.234534 152.503113 
L 402.264107 152.507984 
L 402.893439 152.606894 
L 412.28875 152.412446 
L 415.123995 151.68074 
L 415.4285 151.580707 
L 423.159697 147.647927 
L 435.983788 134.245677 
L 436.246617 133.869146 
L 454.251435 96.710612 
L 454.582216 95.796448 
" style="fill:none;stroke:#8172b3;stroke-linecap:round;stroke-width:1.2;"/>
   </g>
   <g id="line2d_17">
    <path clip-path="url(#pcd61a1c4d5)" d="M 48.764034 129.511999 
L 52.164073 144.593335 
L 55.072788 156.612392 
L 66.834029 197.306716 
L 71.064195 209.010678 
L 74.680991 217.860885 
L 78.262374 225.613298 
L 78.339759 225.769975 
L 80.506974 229.975787 
L 80.906672 230.713406 
L 85.826267 238.848064 
L 90.978206 245.568753 
L 96.329025 250.719562 
L 97.922426 251.911418 
L 105.964924 255.69019 
L 111.418086 256.278051 
L 111.768943 256.264985 
L 117.047378 255.371193 
L 119.81098 254.405817 
L 126.998177 250.437281 
L 127.409433 250.150715 
L 128.015037 249.717658 
L 130.002484 248.205493 
L 134.671706 244.134084 
L 140.851965 237.732779 
L 145.135947 232.701713 
L 145.178184 232.64987 
L 148.781925 228.085523 
L 153.862962 221.206834 
L 155.046319 219.538636 
L 155.700377 218.606769 
L 157.194907 216.452688 
L 157.388393 216.171296 
L 163.889955 206.429311 
L 166.000348 203.163655 
L 167.95679 200.099565 
L 169.815855 197.159803 
L 177.318949 185.093899 
L 181.582887 178.158742 
L 185.958274 171.039131 
L 188.021897 167.692719 
L 190.633923 163.476727 
L 196.350836 154.366637 
L 197.033261 153.293143 
L 198.028323 151.733772 
L 201.505066 146.349849 
L 201.723032 146.015842 
L 202.156258 145.353486 
L 212.646714 129.940564 
L 218.039243 122.574451 
L 223.386073 115.712944 
L 228.158619 109.997672 
L 228.982877 109.052036 
L 241.511001 96.295591 
L 244.261133 93.924097 
L 250.181768 89.370931 
L 258.032335 84.530438 
L 276.048889 78.709881 
L 281.789593 78.394414 
L 283.163447 78.42654 
L 289.675687 79.129287 
L 290.889748 79.358841 
L 295.418728 80.480027 
L 312.149062 87.954398 
L 312.593088 88.217495 
L 321.727883 94.254141 
L 323.994563 95.920003 
L 324.964296 96.650948 
L 327.169396 98.350389 
L 329.203385 99.96233 
L 330.197721 100.764103 
L 336.683833 106.194722 
L 340.608305 109.613414 
L 341.127443 110.071538 
L 349.931703 117.954028 
L 354.884979 122.404866 
L 363.312205 129.789366 
L 365.229013 131.409057 
L 371.242805 136.269513 
L 372.611296 137.32017 
L 373.541149 138.02106 
L 377.080985 140.578964 
L 379.284117 142.074644 
L 379.686466 142.339059 
L 380.468039 142.845689 
L 382.549167 144.140599 
L 387.993116 147.128868 
L 393.405253 149.447904 
L 397.092975 150.602177 
L 402.234534 151.567436 
L 402.264107 151.570761 
L 402.893439 151.632813 
L 412.28875 150.962738 
L 415.123995 150.123037 
L 415.4285 150.013824 
L 423.159697 145.939143 
L 435.983788 133.02451 
L 436.246617 132.67177 
L 454.251435 98.919904 
L 454.582216 98.110456 
" style="fill:none;stroke:#937860;stroke-linecap:round;stroke-width:1.2;"/>
   </g>
   <g id="line2d_18">
    <path clip-path="url(#pcd61a1c4d5)" d="M 48.764034 124.006173 
L 52.164073 141.866984 
L 55.072788 155.739072 
L 66.834029 200.189764 
L 71.064195 212.194353 
L 74.680991 221.010771 
L 78.262374 228.529937 
L 78.339759 228.679788 
L 80.506974 232.668627 
L 80.906672 233.36124 
L 85.826267 240.845867 
L 90.978206 246.767868 
L 96.329025 251.058299 
L 97.922426 251.99979 
L 105.964924 254.632883 
L 111.418086 254.606587 
L 111.768943 254.559427 
L 117.047378 253.237354 
L 119.81098 252.112796 
L 126.998177 247.939884 
L 127.409433 247.650602 
L 128.015037 247.215109 
L 130.002484 245.709179 
L 134.671706 241.73247 
L 140.851965 235.611597 
L 145.135947 230.861454 
L 145.178184 230.812749 
L 148.781925 226.529242 
L 153.862962 220.098152 
L 155.046319 218.540888 
L 155.700377 217.671121 
L 157.194907 215.660662 
L 157.388393 215.398073 
L 163.889955 206.298766 
L 166.000348 203.242497 
L 167.95679 200.370653 
L 169.815855 197.610551 
L 177.318949 186.223679 
L 181.582887 179.62699 
L 185.958274 172.80738 
L 188.021897 169.584014 
L 190.633923 165.505305 
L 196.350836 156.618803 
L 197.033261 155.564516 
L 198.028323 154.030294 
L 201.505066 148.707347 
L 201.723032 148.375962 
L 202.156258 147.717689 
L 212.646714 132.208928 
L 218.039243 124.649275 
L 223.386073 117.508303 
L 228.158619 111.478939 
L 228.982877 110.473358 
L 241.511001 96.657487 
L 244.261133 94.027766 
L 250.181768 88.905823 
L 258.032335 83.32455 
L 276.048889 76.13637 
L 281.789593 75.554152 
L 283.163447 75.537667 
L 289.675687 76.096656 
L 290.889748 76.316206 
L 295.418728 77.44917 
L 312.149062 85.600219 
L 312.593088 85.892452 
L 321.727883 92.687241 
L 323.994563 94.575515 
L 324.964296 95.399762 
L 327.169396 97.327 
L 329.203385 99.152332 
L 330.197721 100.062 
L 336.683833 106.204885 
L 340.608305 110.057863 
L 341.127443 110.573392 
L 349.931703 119.361359 
L 354.884979 124.246893 
L 363.312205 132.165655 
L 365.229013 133.862104 
L 371.242805 138.834559 
L 372.611296 139.8836 
L 373.541149 140.569973 
L 377.080985 143.051704 
L 379.284117 144.448427 
L 379.686466 144.694203 
L 380.468039 145.158778 
L 382.549167 146.318718 
L 387.993116 148.818433 
L 393.405253 150.460931 
L 397.092975 151.048394 
L 402.234534 151.117331 
L 402.264107 151.114334 
L 402.893439 151.057386 
L 412.28875 148.539688 
L 415.123995 147.148959 
L 415.4285 146.981112 
L 423.159697 141.610022 
L 435.983788 128.278208 
L 436.246617 127.954504 
L 454.251435 102.963348 
L 454.582216 102.483786 
" style="fill:none;stroke:#da8bc3;stroke-linecap:round;stroke-width:1.2;"/>
   </g>
   <g id="line2d_19">
    <path clip-path="url(#pcd61a1c4d5)" d="M 48.764034 127.390375 
L 52.164073 142.803136 
L 55.072788 155.192669 
L 66.834029 197.594664 
L 71.064195 209.82523 
L 74.680991 219.043597 
L 78.262374 227.074498 
L 78.339759 227.236209 
L 80.506974 231.565436 
L 80.906672 232.322185 
L 85.826267 240.599483 
L 90.978206 247.294537 
L 96.329025 252.251794 
L 97.922426 253.35783 
L 105.964924 256.553753 
L 111.418086 256.653107 
L 111.768943 256.607305 
L 117.047378 255.215218 
L 119.81098 253.992336 
L 126.998177 249.405779 
L 127.409433 249.087156 
L 128.015037 248.607641 
L 130.002484 246.95025 
L 134.671706 242.5858 
L 140.851965 235.916942 
L 145.135947 230.789696 
L 145.178184 230.73729 
L 148.781925 226.152032 
L 153.862962 219.336427 
L 155.046319 217.698166 
L 155.700377 216.785266 
L 157.194907 214.680756 
L 157.388393 214.406413 
L 163.889955 204.981903 
L 166.000348 201.850445 
L 167.95679 198.923094 
L 169.815855 196.122939 
L 177.318949 184.702686 
L 181.582887 178.176146 
L 185.958274 171.492191 
L 188.021897 168.352696 
L 190.633923 164.397864 
L 196.350836 155.841611 
L 197.033261 154.831792 
L 198.028323 153.363345 
L 201.505066 148.283714 
L 201.723032 147.968341 
L 202.156258 147.341539 
L 212.646714 132.646572 
L 218.039243 125.509764 
L 223.386073 118.764386 
L 228.158619 113.053262 
L 228.982877 112.099267 
L 241.511001 98.858588 
L 244.261133 96.296189 
L 250.181768 91.245653 
L 258.032335 85.586855 
L 276.048889 77.557124 
L 281.789593 76.559511 
L 283.163447 76.438373 
L 289.675687 76.476483 
L 290.889748 76.597181 
L 295.418728 77.362513 
L 312.149062 84.353213 
L 312.593088 84.62577 
L 321.727883 91.071273 
L 323.994563 92.909753 
L 324.964296 93.7241 
L 327.169396 95.624878 
L 329.203385 97.452639 
L 330.197721 98.366651 
L 336.683833 104.626236 
L 340.608305 108.616058 
L 341.127443 109.157608 
L 349.931703 118.443214 
L 354.884979 123.695491 
L 363.312205 132.317066 
L 365.229013 134.170146 
L 371.242805 139.621082 
L 372.611296 140.776298 
L 373.541149 141.553118 
L 377.080985 144.243302 
L 379.284117 145.763815 
L 379.686466 146.019817 
L 380.468039 146.532056 
L 382.549167 147.787463 
L 387.993116 150.396192 
L 393.405253 151.96846 
L 397.092975 152.405591 
L 402.234534 152.097921 
L 402.264107 152.100327 
L 402.893439 152.007266 
L 412.28875 148.232211 
L 415.123995 146.372083 
L 415.4285 146.158768 
L 423.159697 139.444627 
L 435.983788 124.42847 
L 436.246617 124.124731 
L 454.251435 104.833141 
L 454.582216 104.659941 
" style="fill:none;stroke:#8c8c8c;stroke-linecap:round;stroke-width:1.2;"/>
   </g>
   <g id="line2d_20">
    <path clip-path="url(#pcd61a1c4d5)" d="M 48.764034 126.26993 
L 52.164073 142.77389 
L 55.072788 155.758103 
L 66.834029 198.603628 
L 71.064195 210.592049 
L 74.680991 219.546434 
L 78.262374 227.302208 
L 78.339759 227.458042 
L 80.506974 231.625662 
L 80.906672 232.353458 
L 85.826267 240.307718 
L 90.978206 246.749825 
L 96.329025 251.55163 
L 97.922426 252.632587 
L 105.964924 255.836119 
L 111.418086 256.044851 
L 111.768943 256.008204 
L 117.047378 254.778157 
L 119.81098 253.65285 
L 126.998177 249.332299 
L 127.409433 249.028733 
L 128.015037 248.571252 
L 130.002484 246.984578 
L 134.671706 242.773749 
L 140.851965 236.268711 
L 145.135947 231.22157 
L 145.178184 231.169786 
L 148.781925 226.628222 
L 153.862962 219.836711 
L 155.046319 218.197913 
L 155.700377 217.28369 
L 157.194907 215.173572 
L 157.388393 214.898351 
L 163.889955 205.409048 
L 166.000348 202.244398 
L 167.95679 199.281524 
L 169.815855 196.444219 
L 177.318949 184.84563 
L 181.582887 178.205972 
L 185.958274 171.403708 
L 188.021897 168.209969 
L 190.633923 164.187985 
L 196.350836 155.497804 
L 197.033261 154.47294 
L 198.028323 152.98466 
L 201.505066 147.84156 
L 201.723032 147.522235 
L 202.156258 146.888384 
L 212.646714 132.089108 
L 218.039243 124.95153 
L 223.386073 118.242725 
L 228.158619 112.593873 
L 228.982877 111.651797 
L 241.511001 98.687007 
L 244.261133 96.200218 
L 250.181768 91.31665 
L 258.032335 85.879808 
L 276.048889 78.213565 
L 281.789593 77.260062 
L 283.163447 77.140921 
L 289.675687 77.171643 
L 290.889748 77.276547 
L 295.418728 77.988396 
L 312.149062 84.590611 
L 312.593088 84.851373 
L 321.727883 91.009244 
L 323.994563 92.777627 
L 324.964296 93.558414 
L 327.169396 95.40023 
L 329.203385 97.162619 
L 330.197721 98.052805 
L 336.683833 104.14174 
L 340.608305 108.066652 
L 341.127443 108.59417 
L 349.931703 117.819737 
L 354.884979 123.094915 
L 363.312205 131.846915 
L 365.229013 133.744181 
L 371.242805 139.414997 
L 372.611296 140.577934 
L 373.541149 141.369211 
L 377.080985 144.210613 
L 379.284117 145.823139 
L 379.686466 146.104882 
L 380.468039 146.620411 
L 382.549167 147.951194 
L 387.993116 150.762624 
L 393.405253 152.495041 
L 397.092975 152.99858 
L 402.234534 152.722833 
L 402.264107 152.722833 
L 402.893439 152.590953 
L 412.28875 148.658548 
L 415.123995 146.644389 
L 415.4285 146.452564 
L 423.159697 139.12726 
L 435.983788 123.169846 
L 436.246617 122.858131 
L 454.251435 105.234241 
L 454.582216 105.162307 
" style="fill:none;stroke:#ccb974;stroke-linecap:round;stroke-width:1.2;"/>
   </g>
   <g id="line2d_21">
    <path clip-path="url(#pcd61a1c4d5)" d="M 48.764034 127.439935 
L 52.164073 142.85642 
L 55.072788 155.236287 
L 66.834029 197.561319 
L 71.064195 209.769453 
L 74.680991 218.975128 
L 78.262374 226.999859 
L 78.339759 227.1615 
L 80.506974 231.490188 
L 80.906672 232.247043 
L 85.826267 240.531506 
L 90.978206 247.243302 
L 96.329025 252.224327 
L 97.922426 253.338184 
L 105.964924 256.573609 
L 111.418086 256.696146 
L 111.768943 256.651632 
L 117.047378 255.275983 
L 119.81098 254.059189 
L 126.998177 249.478532 
L 127.409433 249.159816 
L 128.015037 248.680044 
L 130.002484 247.021364 
L 134.671706 242.649901 
L 140.851965 235.964501 
L 145.135947 230.82201 
L 145.178184 230.769534 
L 148.781925 226.169688 
L 153.862962 219.332212 
L 155.046319 217.688776 
L 155.700377 216.773043 
L 157.194907 214.662035 
L 157.388393 214.386849 
L 163.889955 204.935399 
L 166.000348 201.795898 
L 167.95679 198.861662 
L 169.815855 196.055723 
L 177.318949 184.616837 
L 181.582887 178.084759 
L 185.958274 171.398925 
L 188.021897 168.260425 
L 190.633923 164.307776 
L 196.350836 155.761258 
L 197.033261 154.752774 
L 198.028323 153.287201 
L 201.505066 148.217658 
L 201.723032 147.902694 
L 202.156258 147.2778 
L 212.646714 132.625676 
L 218.039243 125.514184 
L 223.386073 118.795813 
L 228.158619 113.108301 
L 228.982877 112.157912 
L 241.511001 98.967766 
L 244.261133 96.415131 
L 250.181768 91.377485 
L 258.032335 85.724044 
L 276.048889 77.65851 
L 281.789593 76.639535 
L 283.163447 76.511028 
L 289.675687 76.520394 
L 290.889748 76.635976 
L 295.418728 77.375737 
L 312.149062 84.291915 
L 312.593088 84.561294 
L 321.727883 90.9818 
L 323.994563 92.819121 
L 324.964296 93.62913 
L 327.169396 95.533515 
L 329.203385 97.355849 
L 330.197721 98.270763 
L 336.683833 104.533538 
L 340.608305 108.531883 
L 341.127443 109.078134 
L 349.931703 118.391371 
L 354.884979 123.674042 
L 363.312205 132.334625 
L 365.229013 134.198921 
L 371.242805 139.683907 
L 372.611296 140.831858 
L 373.541149 141.603653 
L 377.080985 144.305683 
L 379.284117 145.834286 
L 379.686466 146.108535 
L 380.468039 146.610576 
L 382.549167 147.860433 
L 387.993116 150.47854 
L 393.405253 152.055099 
L 397.092975 152.477713 
L 402.234534 152.139022 
L 402.264107 152.14202 
L 402.893439 152.028124 
L 412.28875 148.248579 
L 415.123995 146.342321 
L 415.4285 146.147499 
L 423.159697 139.346716 
L 435.983788 124.348425 
L 436.246617 124.030716 
L 454.251435 104.932173 
L 454.582216 104.770321 
" style="fill:none;stroke:#64b5cd;stroke-linecap:round;stroke-width:1.2;"/>
   </g>
   <g id="patch_3">
    <path d="M 28.473125 292.2945 
L 28.473125 20.4945 
" style="fill:none;stroke:#ffffff;stroke-linecap:square;stroke-linejoin:miter;"/>
   </g>
   <g id="patch_4">
    <path d="M 474.873125 292.2945 
L 474.873125 20.4945 
" style="fill:none;stroke:#ffffff;stroke-linecap:square;stroke-linejoin:miter;"/>
   </g>
   <g id="patch_5">
    <path d="M 28.473125 292.2945 
L 474.873125 292.2945 
" style="fill:none;stroke:#ffffff;stroke-linecap:square;stroke-linejoin:miter;"/>
   </g>
   <g id="patch_6">
    <path d="M 28.473125 20.4945 
L 474.873125 20.4945 
" style="fill:none;stroke:#ffffff;stroke-linecap:square;stroke-linejoin:miter;"/>
   </g>
   <g id="text_12">
    <!-- polinomial regression -->
    <g style="fill:#262626;" transform="translate(200.235125 14.4945)scale(0.096 -0.096)">
     <defs>
      <path d="M 1159 525 
L 1159 -1331 
L 581 -1331 
L 581 3500 
L 1159 3500 
L 1159 2969 
Q 1341 3281 1617 3432 
Q 1894 3584 2278 3584 
Q 2916 3584 3314 3078 
Q 3713 2572 3713 1747 
Q 3713 922 3314 415 
Q 2916 -91 2278 -91 
Q 1894 -91 1617 61 
Q 1341 213 1159 525 
z
M 3116 1747 
Q 3116 2381 2855 2742 
Q 2594 3103 2138 3103 
Q 1681 3103 1420 2742 
Q 1159 2381 1159 1747 
Q 1159 1113 1420 752 
Q 1681 391 2138 391 
Q 2594 391 2855 752 
Q 3116 1113 3116 1747 
z
" id="DejaVuSans-70" transform="scale(0.015625)"/>
      <path d="M 1959 3097 
Q 1497 3097 1228 2736 
Q 959 2375 959 1747 
Q 959 1119 1226 758 
Q 1494 397 1959 397 
Q 2419 397 2687 759 
Q 2956 1122 2956 1747 
Q 2956 2369 2687 2733 
Q 2419 3097 1959 3097 
z
M 1959 3584 
Q 2709 3584 3137 3096 
Q 3566 2609 3566 1747 
Q 3566 888 3137 398 
Q 2709 -91 1959 -91 
Q 1206 -91 779 398 
Q 353 888 353 1747 
Q 353 2609 779 3096 
Q 1206 3584 1959 3584 
z
" id="DejaVuSans-6f" transform="scale(0.015625)"/>
      <path d="M 603 4863 
L 1178 4863 
L 1178 0 
L 603 0 
L 603 4863 
z
" id="DejaVuSans-6c" transform="scale(0.015625)"/>
      <path d="M 603 3500 
L 1178 3500 
L 1178 0 
L 603 0 
L 603 3500 
z
M 603 4863 
L 1178 4863 
L 1178 4134 
L 603 4134 
L 603 4863 
z
" id="DejaVuSans-69" transform="scale(0.015625)"/>
      <path d="M 3513 2113 
L 3513 0 
L 2938 0 
L 2938 2094 
Q 2938 2591 2744 2837 
Q 2550 3084 2163 3084 
Q 1697 3084 1428 2787 
Q 1159 2491 1159 1978 
L 1159 0 
L 581 0 
L 581 3500 
L 1159 3500 
L 1159 2956 
Q 1366 3272 1645 3428 
Q 1925 3584 2291 3584 
Q 2894 3584 3203 3211 
Q 3513 2838 3513 2113 
z
" id="DejaVuSans-6e" transform="scale(0.015625)"/>
      <path d="M 3328 2828 
Q 3544 3216 3844 3400 
Q 4144 3584 4550 3584 
Q 5097 3584 5394 3201 
Q 5691 2819 5691 2113 
L 5691 0 
L 5113 0 
L 5113 2094 
Q 5113 2597 4934 2840 
Q 4756 3084 4391 3084 
Q 3944 3084 3684 2787 
Q 3425 2491 3425 1978 
L 3425 0 
L 2847 0 
L 2847 2094 
Q 2847 2600 2669 2842 
Q 2491 3084 2119 3084 
Q 1678 3084 1418 2786 
Q 1159 2488 1159 1978 
L 1159 0 
L 581 0 
L 581 3500 
L 1159 3500 
L 1159 2956 
Q 1356 3278 1631 3431 
Q 1906 3584 2284 3584 
Q 2666 3584 2933 3390 
Q 3200 3197 3328 2828 
z
" id="DejaVuSans-6d" transform="scale(0.015625)"/>
      <path d="M 2194 1759 
Q 1497 1759 1228 1600 
Q 959 1441 959 1056 
Q 959 750 1161 570 
Q 1363 391 1709 391 
Q 2188 391 2477 730 
Q 2766 1069 2766 1631 
L 2766 1759 
L 2194 1759 
z
M 3341 1997 
L 3341 0 
L 2766 0 
L 2766 531 
Q 2569 213 2275 61 
Q 1981 -91 1556 -91 
Q 1019 -91 701 211 
Q 384 513 384 1019 
Q 384 1609 779 1909 
Q 1175 2209 1959 2209 
L 2766 2209 
L 2766 2266 
Q 2766 2663 2505 2880 
Q 2244 3097 1772 3097 
Q 1472 3097 1187 3025 
Q 903 2953 641 2809 
L 641 3341 
Q 956 3463 1253 3523 
Q 1550 3584 1831 3584 
Q 2591 3584 2966 3190 
Q 3341 2797 3341 1997 
z
" id="DejaVuSans-61" transform="scale(0.015625)"/>
      <path id="DejaVuSans-20" transform="scale(0.015625)"/>
      <path d="M 2631 2963 
Q 2534 3019 2420 3045 
Q 2306 3072 2169 3072 
Q 1681 3072 1420 2755 
Q 1159 2438 1159 1844 
L 1159 0 
L 581 0 
L 581 3500 
L 1159 3500 
L 1159 2956 
Q 1341 3275 1631 3429 
Q 1922 3584 2338 3584 
Q 2397 3584 2469 3576 
Q 2541 3569 2628 3553 
L 2631 2963 
z
" id="DejaVuSans-72" transform="scale(0.015625)"/>
      <path d="M 3597 1894 
L 3597 1613 
L 953 1613 
Q 991 1019 1311 708 
Q 1631 397 2203 397 
Q 2534 397 2845 478 
Q 3156 559 3463 722 
L 3463 178 
Q 3153 47 2828 -22 
Q 2503 -91 2169 -91 
Q 1331 -91 842 396 
Q 353 884 353 1716 
Q 353 2575 817 3079 
Q 1281 3584 2069 3584 
Q 2775 3584 3186 3129 
Q 3597 2675 3597 1894 
z
M 3022 2063 
Q 3016 2534 2758 2815 
Q 2500 3097 2075 3097 
Q 1594 3097 1305 2825 
Q 1016 2553 972 2059 
L 3022 2063 
z
" id="DejaVuSans-65" transform="scale(0.015625)"/>
      <path d="M 2906 1791 
Q 2906 2416 2648 2759 
Q 2391 3103 1925 3103 
Q 1463 3103 1205 2759 
Q 947 2416 947 1791 
Q 947 1169 1205 825 
Q 1463 481 1925 481 
Q 2391 481 2648 825 
Q 2906 1169 2906 1791 
z
M 3481 434 
Q 3481 -459 3084 -895 
Q 2688 -1331 1869 -1331 
Q 1566 -1331 1297 -1286 
Q 1028 -1241 775 -1147 
L 775 -588 
Q 1028 -725 1275 -790 
Q 1522 -856 1778 -856 
Q 2344 -856 2625 -561 
Q 2906 -266 2906 331 
L 2906 616 
Q 2728 306 2450 153 
Q 2172 0 1784 0 
Q 1141 0 747 490 
Q 353 981 353 1791 
Q 353 2603 747 3093 
Q 1141 3584 1784 3584 
Q 2172 3584 2450 3431 
Q 2728 3278 2906 2969 
L 2906 3500 
L 3481 3500 
L 3481 434 
z
" id="DejaVuSans-67" transform="scale(0.015625)"/>
      <path d="M 2834 3397 
L 2834 2853 
Q 2591 2978 2328 3040 
Q 2066 3103 1784 3103 
Q 1356 3103 1142 2972 
Q 928 2841 928 2578 
Q 928 2378 1081 2264 
Q 1234 2150 1697 2047 
L 1894 2003 
Q 2506 1872 2764 1633 
Q 3022 1394 3022 966 
Q 3022 478 2636 193 
Q 2250 -91 1575 -91 
Q 1294 -91 989 -36 
Q 684 19 347 128 
L 347 722 
Q 666 556 975 473 
Q 1284 391 1588 391 
Q 1994 391 2212 530 
Q 2431 669 2431 922 
Q 2431 1156 2273 1281 
Q 2116 1406 1581 1522 
L 1381 1569 
Q 847 1681 609 1914 
Q 372 2147 372 2553 
Q 372 3047 722 3315 
Q 1072 3584 1716 3584 
Q 2034 3584 2315 3537 
Q 2597 3491 2834 3397 
z
" id="DejaVuSans-73" transform="scale(0.015625)"/>
     </defs>
     <use xlink:href="#DejaVuSans-70"/>
     <use x="63.476562" xlink:href="#DejaVuSans-6f"/>
     <use x="124.658203" xlink:href="#DejaVuSans-6c"/>
     <use x="152.441406" xlink:href="#DejaVuSans-69"/>
     <use x="180.224609" xlink:href="#DejaVuSans-6e"/>
     <use x="243.603516" xlink:href="#DejaVuSans-6f"/>
     <use x="304.785156" xlink:href="#DejaVuSans-6d"/>
     <use x="402.197266" xlink:href="#DejaVuSans-69"/>
     <use x="429.980469" xlink:href="#DejaVuSans-61"/>
     <use x="491.259766" xlink:href="#DejaVuSans-6c"/>
     <use x="519.042969" xlink:href="#DejaVuSans-20"/>
     <use x="550.830078" xlink:href="#DejaVuSans-72"/>
     <use x="589.693359" xlink:href="#DejaVuSans-65"/>
     <use x="651.216797" xlink:href="#DejaVuSans-67"/>
     <use x="714.693359" xlink:href="#DejaVuSans-72"/>
     <use x="753.556641" xlink:href="#DejaVuSans-65"/>
     <use x="815.080078" xlink:href="#DejaVuSans-73"/>
     <use x="867.179688" xlink:href="#DejaVuSans-73"/>
     <use x="919.279297" xlink:href="#DejaVuSans-69"/>
     <use x="947.0625" xlink:href="#DejaVuSans-6f"/>
     <use x="1008.244141" xlink:href="#DejaVuSans-6e"/>
    </g>
   </g>
   <g id="legend_1">
    <g id="patch_7">
     <path d="M 395.72125 287.8945 
L 468.713125 287.8945 
Q 470.473125 287.8945 470.473125 286.1345 
L 470.473125 144.93025 
Q 470.473125 143.17025 468.713125 143.17025 
L 395.72125 143.17025 
Q 393.96125 143.17025 393.96125 144.93025 
L 393.96125 286.1345 
Q 393.96125 287.8945 395.72125 287.8945 
z
" style="fill:#eaeaf2;opacity:0.8;stroke:#cccccc;stroke-linejoin:miter;stroke-width:0.8;"/>
    </g>
    <g id="line2d_22">
     <path d="M 397.48125 150.296875 
L 415.08125 150.296875 
" style="fill:none;stroke:#4c72b0;stroke-linecap:round;stroke-width:1.2;"/>
    </g>
    <g id="line2d_23"/>
    <g id="text_13">
     <!-- degree 1 -->
     <g style="fill:#262626;" transform="translate(422.12125 153.376875)scale(0.088 -0.088)">
      <defs>
       <path d="M 2906 2969 
L 2906 4863 
L 3481 4863 
L 3481 0 
L 2906 0 
L 2906 525 
Q 2725 213 2448 61 
Q 2172 -91 1784 -91 
Q 1150 -91 751 415 
Q 353 922 353 1747 
Q 353 2572 751 3078 
Q 1150 3584 1784 3584 
Q 2172 3584 2448 3432 
Q 2725 3281 2906 2969 
z
M 947 1747 
Q 947 1113 1208 752 
Q 1469 391 1925 391 
Q 2381 391 2643 752 
Q 2906 1113 2906 1747 
Q 2906 2381 2643 2742 
Q 2381 3103 1925 3103 
Q 1469 3103 1208 2742 
Q 947 2381 947 1747 
z
" id="DejaVuSans-64" transform="scale(0.015625)"/>
      </defs>
      <use xlink:href="#DejaVuSans-64"/>
      <use x="63.476562" xlink:href="#DejaVuSans-65"/>
      <use x="125" xlink:href="#DejaVuSans-67"/>
      <use x="188.476562" xlink:href="#DejaVuSans-72"/>
      <use x="227.339844" xlink:href="#DejaVuSans-65"/>
      <use x="288.863281" xlink:href="#DejaVuSans-65"/>
      <use x="350.386719" xlink:href="#DejaVuSans-20"/>
      <use x="382.173828" xlink:href="#DejaVuSans-31"/>
     </g>
    </g>
    <g id="line2d_24">
     <path d="M 397.48125 163.213625 
L 415.08125 163.213625 
" style="fill:none;stroke:#dd8452;stroke-linecap:round;stroke-width:1.2;"/>
    </g>
    <g id="line2d_25"/>
    <g id="text_14">
     <!-- degree 2 -->
     <g style="fill:#262626;" transform="translate(422.12125 166.293625)scale(0.088 -0.088)">
      <use xlink:href="#DejaVuSans-64"/>
      <use x="63.476562" xlink:href="#DejaVuSans-65"/>
      <use x="125" xlink:href="#DejaVuSans-67"/>
      <use x="188.476562" xlink:href="#DejaVuSans-72"/>
      <use x="227.339844" xlink:href="#DejaVuSans-65"/>
      <use x="288.863281" xlink:href="#DejaVuSans-65"/>
      <use x="350.386719" xlink:href="#DejaVuSans-20"/>
      <use x="382.173828" xlink:href="#DejaVuSans-32"/>
     </g>
    </g>
    <g id="line2d_26">
     <path d="M 397.48125 176.130375 
L 415.08125 176.130375 
" style="fill:none;stroke:#55a868;stroke-linecap:round;stroke-width:1.2;"/>
    </g>
    <g id="line2d_27"/>
    <g id="text_15">
     <!-- degree 3 -->
     <g style="fill:#262626;" transform="translate(422.12125 179.210375)scale(0.088 -0.088)">
      <defs>
       <path d="M 2597 2516 
Q 3050 2419 3304 2112 
Q 3559 1806 3559 1356 
Q 3559 666 3084 287 
Q 2609 -91 1734 -91 
Q 1441 -91 1130 -33 
Q 819 25 488 141 
L 488 750 
Q 750 597 1062 519 
Q 1375 441 1716 441 
Q 2309 441 2620 675 
Q 2931 909 2931 1356 
Q 2931 1769 2642 2001 
Q 2353 2234 1838 2234 
L 1294 2234 
L 1294 2753 
L 1863 2753 
Q 2328 2753 2575 2939 
Q 2822 3125 2822 3475 
Q 2822 3834 2567 4026 
Q 2313 4219 1838 4219 
Q 1578 4219 1281 4162 
Q 984 4106 628 3988 
L 628 4550 
Q 988 4650 1302 4700 
Q 1616 4750 1894 4750 
Q 2613 4750 3031 4423 
Q 3450 4097 3450 3541 
Q 3450 3153 3228 2886 
Q 3006 2619 2597 2516 
z
" id="DejaVuSans-33" transform="scale(0.015625)"/>
      </defs>
      <use xlink:href="#DejaVuSans-64"/>
      <use x="63.476562" xlink:href="#DejaVuSans-65"/>
      <use x="125" xlink:href="#DejaVuSans-67"/>
      <use x="188.476562" xlink:href="#DejaVuSans-72"/>
      <use x="227.339844" xlink:href="#DejaVuSans-65"/>
      <use x="288.863281" xlink:href="#DejaVuSans-65"/>
      <use x="350.386719" xlink:href="#DejaVuSans-20"/>
      <use x="382.173828" xlink:href="#DejaVuSans-33"/>
     </g>
    </g>
    <g id="line2d_28">
     <path d="M 397.48125 189.047125 
L 415.08125 189.047125 
" style="fill:none;stroke:#c44e52;stroke-linecap:round;stroke-width:1.2;"/>
    </g>
    <g id="line2d_29"/>
    <g id="text_16">
     <!-- degree 4 -->
     <g style="fill:#262626;" transform="translate(422.12125 192.127125)scale(0.088 -0.088)">
      <use xlink:href="#DejaVuSans-64"/>
      <use x="63.476562" xlink:href="#DejaVuSans-65"/>
      <use x="125" xlink:href="#DejaVuSans-67"/>
      <use x="188.476562" xlink:href="#DejaVuSans-72"/>
      <use x="227.339844" xlink:href="#DejaVuSans-65"/>
      <use x="288.863281" xlink:href="#DejaVuSans-65"/>
      <use x="350.386719" xlink:href="#DejaVuSans-20"/>
      <use x="382.173828" xlink:href="#DejaVuSans-34"/>
     </g>
    </g>
    <g id="line2d_30">
     <path d="M 397.48125 201.963875 
L 415.08125 201.963875 
" style="fill:none;stroke:#8172b3;stroke-linecap:round;stroke-width:1.2;"/>
    </g>
    <g id="line2d_31"/>
    <g id="text_17">
     <!-- degree 5 -->
     <g style="fill:#262626;" transform="translate(422.12125 205.043875)scale(0.088 -0.088)">
      <defs>
       <path d="M 691 4666 
L 3169 4666 
L 3169 4134 
L 1269 4134 
L 1269 2991 
Q 1406 3038 1543 3061 
Q 1681 3084 1819 3084 
Q 2600 3084 3056 2656 
Q 3513 2228 3513 1497 
Q 3513 744 3044 326 
Q 2575 -91 1722 -91 
Q 1428 -91 1123 -41 
Q 819 9 494 109 
L 494 744 
Q 775 591 1075 516 
Q 1375 441 1709 441 
Q 2250 441 2565 725 
Q 2881 1009 2881 1497 
Q 2881 1984 2565 2268 
Q 2250 2553 1709 2553 
Q 1456 2553 1204 2497 
Q 953 2441 691 2322 
L 691 4666 
z
" id="DejaVuSans-35" transform="scale(0.015625)"/>
      </defs>
      <use xlink:href="#DejaVuSans-64"/>
      <use x="63.476562" xlink:href="#DejaVuSans-65"/>
      <use x="125" xlink:href="#DejaVuSans-67"/>
      <use x="188.476562" xlink:href="#DejaVuSans-72"/>
      <use x="227.339844" xlink:href="#DejaVuSans-65"/>
      <use x="288.863281" xlink:href="#DejaVuSans-65"/>
      <use x="350.386719" xlink:href="#DejaVuSans-20"/>
      <use x="382.173828" xlink:href="#DejaVuSans-35"/>
     </g>
    </g>
    <g id="line2d_32">
     <path d="M 397.48125 214.880625 
L 415.08125 214.880625 
" style="fill:none;stroke:#937860;stroke-linecap:round;stroke-width:1.2;"/>
    </g>
    <g id="line2d_33"/>
    <g id="text_18">
     <!-- degree 6 -->
     <g style="fill:#262626;" transform="translate(422.12125 217.960625)scale(0.088 -0.088)">
      <use xlink:href="#DejaVuSans-64"/>
      <use x="63.476562" xlink:href="#DejaVuSans-65"/>
      <use x="125" xlink:href="#DejaVuSans-67"/>
      <use x="188.476562" xlink:href="#DejaVuSans-72"/>
      <use x="227.339844" xlink:href="#DejaVuSans-65"/>
      <use x="288.863281" xlink:href="#DejaVuSans-65"/>
      <use x="350.386719" xlink:href="#DejaVuSans-20"/>
      <use x="382.173828" xlink:href="#DejaVuSans-36"/>
     </g>
    </g>
    <g id="line2d_34">
     <path d="M 397.48125 227.797375 
L 415.08125 227.797375 
" style="fill:none;stroke:#da8bc3;stroke-linecap:round;stroke-width:1.2;"/>
    </g>
    <g id="line2d_35"/>
    <g id="text_19">
     <!-- degree 7 -->
     <g style="fill:#262626;" transform="translate(422.12125 230.877375)scale(0.088 -0.088)">
      <defs>
       <path d="M 525 4666 
L 3525 4666 
L 3525 4397 
L 1831 0 
L 1172 0 
L 2766 4134 
L 525 4134 
L 525 4666 
z
" id="DejaVuSans-37" transform="scale(0.015625)"/>
      </defs>
      <use xlink:href="#DejaVuSans-64"/>
      <use x="63.476562" xlink:href="#DejaVuSans-65"/>
      <use x="125" xlink:href="#DejaVuSans-67"/>
      <use x="188.476562" xlink:href="#DejaVuSans-72"/>
      <use x="227.339844" xlink:href="#DejaVuSans-65"/>
      <use x="288.863281" xlink:href="#DejaVuSans-65"/>
      <use x="350.386719" xlink:href="#DejaVuSans-20"/>
      <use x="382.173828" xlink:href="#DejaVuSans-37"/>
     </g>
    </g>
    <g id="line2d_36">
     <path d="M 397.48125 240.714125 
L 415.08125 240.714125 
" style="fill:none;stroke:#8c8c8c;stroke-linecap:round;stroke-width:1.2;"/>
    </g>
    <g id="line2d_37"/>
    <g id="text_20">
     <!-- degree 8 -->
     <g style="fill:#262626;" transform="translate(422.12125 243.794125)scale(0.088 -0.088)">
      <use xlink:href="#DejaVuSans-64"/>
      <use x="63.476562" xlink:href="#DejaVuSans-65"/>
      <use x="125" xlink:href="#DejaVuSans-67"/>
      <use x="188.476562" xlink:href="#DejaVuSans-72"/>
      <use x="227.339844" xlink:href="#DejaVuSans-65"/>
      <use x="288.863281" xlink:href="#DejaVuSans-65"/>
      <use x="350.386719" xlink:href="#DejaVuSans-20"/>
      <use x="382.173828" xlink:href="#DejaVuSans-38"/>
     </g>
    </g>
    <g id="line2d_38">
     <path d="M 397.48125 253.630875 
L 415.08125 253.630875 
" style="fill:none;stroke:#ccb974;stroke-linecap:round;stroke-width:1.2;"/>
    </g>
    <g id="line2d_39"/>
    <g id="text_21">
     <!-- degree 9 -->
     <g style="fill:#262626;" transform="translate(422.12125 256.710875)scale(0.088 -0.088)">
      <defs>
       <path d="M 703 97 
L 703 672 
Q 941 559 1184 500 
Q 1428 441 1663 441 
Q 2288 441 2617 861 
Q 2947 1281 2994 2138 
Q 2813 1869 2534 1725 
Q 2256 1581 1919 1581 
Q 1219 1581 811 2004 
Q 403 2428 403 3163 
Q 403 3881 828 4315 
Q 1253 4750 1959 4750 
Q 2769 4750 3195 4129 
Q 3622 3509 3622 2328 
Q 3622 1225 3098 567 
Q 2575 -91 1691 -91 
Q 1453 -91 1209 -44 
Q 966 3 703 97 
z
M 1959 2075 
Q 2384 2075 2632 2365 
Q 2881 2656 2881 3163 
Q 2881 3666 2632 3958 
Q 2384 4250 1959 4250 
Q 1534 4250 1286 3958 
Q 1038 3666 1038 3163 
Q 1038 2656 1286 2365 
Q 1534 2075 1959 2075 
z
" id="DejaVuSans-39" transform="scale(0.015625)"/>
      </defs>
      <use xlink:href="#DejaVuSans-64"/>
      <use x="63.476562" xlink:href="#DejaVuSans-65"/>
      <use x="125" xlink:href="#DejaVuSans-67"/>
      <use x="188.476562" xlink:href="#DejaVuSans-72"/>
      <use x="227.339844" xlink:href="#DejaVuSans-65"/>
      <use x="288.863281" xlink:href="#DejaVuSans-65"/>
      <use x="350.386719" xlink:href="#DejaVuSans-20"/>
      <use x="382.173828" xlink:href="#DejaVuSans-39"/>
     </g>
    </g>
    <g id="line2d_40">
     <path d="M 397.48125 266.547625 
L 415.08125 266.547625 
" style="fill:none;stroke:#64b5cd;stroke-linecap:round;stroke-width:1.2;"/>
    </g>
    <g id="line2d_41"/>
    <g id="text_22">
     <!-- degree 10 -->
     <g style="fill:#262626;" transform="translate(422.12125 269.627625)scale(0.088 -0.088)">
      <use xlink:href="#DejaVuSans-64"/>
      <use x="63.476562" xlink:href="#DejaVuSans-65"/>
      <use x="125" xlink:href="#DejaVuSans-67"/>
      <use x="188.476562" xlink:href="#DejaVuSans-72"/>
      <use x="227.339844" xlink:href="#DejaVuSans-65"/>
      <use x="288.863281" xlink:href="#DejaVuSans-65"/>
      <use x="350.386719" xlink:href="#DejaVuSans-20"/>
      <use x="382.173828" xlink:href="#DejaVuSans-31"/>
      <use x="445.796875" xlink:href="#DejaVuSans-30"/>
     </g>
    </g>
    <g id="PathCollection_2">
     <g>
      <use style="fill:#4c72b0;stroke:#4c72b0;stroke-width:0.8;" x="406.28125" xlink:href="#m7dbb9343b2" y="280.234375"/>
     </g>
    </g>
    <g id="text_23">
     <!-- data -->
     <g style="fill:#262626;" transform="translate(422.12125 282.544375)scale(0.088 -0.088)">
      <defs>
       <path d="M 1172 4494 
L 1172 3500 
L 2356 3500 
L 2356 3053 
L 1172 3053 
L 1172 1153 
Q 1172 725 1289 603 
Q 1406 481 1766 481 
L 2356 481 
L 2356 0 
L 1766 0 
Q 1100 0 847 248 
Q 594 497 594 1153 
L 594 3053 
L 172 3053 
L 172 3500 
L 594 3500 
L 594 4494 
L 1172 4494 
z
" id="DejaVuSans-74" transform="scale(0.015625)"/>
      </defs>
      <use xlink:href="#DejaVuSans-64"/>
      <use x="63.476562" xlink:href="#DejaVuSans-61"/>
      <use x="124.755859" xlink:href="#DejaVuSans-74"/>
      <use x="163.964844" xlink:href="#DejaVuSans-61"/>
     </g>
    </g>
   </g>
  </g>
 </g>
 <defs>
  <clipPath id="pcd61a1c4d5">
   <rect height="271.8" width="446.4" x="28.473125" y="20.4945"/>
  </clipPath>
 </defs>
</svg>
