<?xml version="1.0" encoding="utf-8" standalone="no"?>
<!DOCTYPE svg PUBLIC "-//W3C//DTD SVG 1.1//EN"
  "http://www.w3.org/Graphics/SVG/1.1/DTD/svg11.dtd">
<svg height="252.146221pt" version="1.1" viewBox="0 0 374.320659 252.146221" width="374.320659pt" xmlns="http://www.w3.org/2000/svg" xmlns:xlink="http://www.w3.org/1999/xlink">
 <metadata>
  <rdf:RDF xmlns:cc="http://creativecommons.org/ns#" xmlns:dc="http://purl.org/dc/elements/1.1/" xmlns:rdf="http://www.w3.org/1999/02/22-rdf-syntax-ns#">
   <cc:Work>
    <dc:type rdf:resource="http://purl.org/dc/dcmitype/StillImage"/>
    <dc:date>2021-06-19T19:28:48.171474</dc:date>
    <dc:format>image/svg+xml</dc:format>
    <dc:creator>
     <cc:Agent>
      <dc:title>Matplotlib v3.4.1, https://matplotlib.org/</dc:title>
     </cc:Agent>
    </dc:creator>
   </cc:Work>
  </rdf:RDF>
 </metadata>
 <defs>
  <style type="text/css">*{stroke-linecap:butt;stroke-linejoin:round;}</style>
 </defs>
 <g id="figure_1">
  <g id="patch_1">
   <path d="M 0 252.146221 
L 374.320659 252.146221 
L 374.320659 0 
L 0 0 
z
" style="fill:none;"/>
  </g>
  <g id="axes_1">
   <g id="patch_2">
    <path d="M 30.103125 228.268096 
L 364.903125 228.268096 
L 364.903125 10.828096 
L 30.103125 10.828096 
z
" style="fill:#ffffff;"/>
   </g>
   <g id="matplotlib.axis_1">
    <g id="xtick_1">
     <g id="line2d_1">
      <defs>
       <path d="M 0 0 
L 0 3.5 
" id="m947cbd8ba5" style="stroke:#000000;stroke-width:0.8;"/>
      </defs>
      <g>
       <use style="stroke:#000000;stroke-width:0.8;" x="45.321307" xlink:href="#m947cbd8ba5" y="228.268096"/>
      </g>
     </g>
     <g id="text_1">
      <!-- 0 -->
      <g transform="translate(42.140057 242.866533)scale(0.1 -0.1)">
       <defs>
        <path d="M 2034 4250 
Q 1547 4250 1301 3770 
Q 1056 3291 1056 2328 
Q 1056 1369 1301 889 
Q 1547 409 2034 409 
Q 2525 409 2770 889 
Q 3016 1369 3016 2328 
Q 3016 3291 2770 3770 
Q 2525 4250 2034 4250 
z
M 2034 4750 
Q 2819 4750 3233 4129 
Q 3647 3509 3647 2328 
Q 3647 1150 3233 529 
Q 2819 -91 2034 -91 
Q 1250 -91 836 529 
Q 422 1150 422 2328 
Q 422 3509 836 4129 
Q 1250 4750 2034 4750 
z
" id="DejaVuSans-30" transform="scale(0.015625)"/>
       </defs>
       <use xlink:href="#DejaVuSans-30"/>
      </g>
     </g>
    </g>
    <g id="xtick_2">
     <g id="line2d_2">
      <g>
       <use style="stroke:#000000;stroke-width:0.8;" x="83.557945" xlink:href="#m947cbd8ba5" y="228.268096"/>
      </g>
     </g>
     <g id="text_2">
      <!-- 2500 -->
      <g transform="translate(70.832945 242.866533)scale(0.1 -0.1)">
       <defs>
        <path d="M 1228 531 
L 3431 531 
L 3431 0 
L 469 0 
L 469 531 
Q 828 903 1448 1529 
Q 2069 2156 2228 2338 
Q 2531 2678 2651 2914 
Q 2772 3150 2772 3378 
Q 2772 3750 2511 3984 
Q 2250 4219 1831 4219 
Q 1534 4219 1204 4116 
Q 875 4013 500 3803 
L 500 4441 
Q 881 4594 1212 4672 
Q 1544 4750 1819 4750 
Q 2544 4750 2975 4387 
Q 3406 4025 3406 3419 
Q 3406 3131 3298 2873 
Q 3191 2616 2906 2266 
Q 2828 2175 2409 1742 
Q 1991 1309 1228 531 
z
" id="DejaVuSans-32" transform="scale(0.015625)"/>
        <path d="M 691 4666 
L 3169 4666 
L 3169 4134 
L 1269 4134 
L 1269 2991 
Q 1406 3038 1543 3061 
Q 1681 3084 1819 3084 
Q 2600 3084 3056 2656 
Q 3513 2228 3513 1497 
Q 3513 744 3044 326 
Q 2575 -91 1722 -91 
Q 1428 -91 1123 -41 
Q 819 9 494 109 
L 494 744 
Q 775 591 1075 516 
Q 1375 441 1709 441 
Q 2250 441 2565 725 
Q 2881 1009 2881 1497 
Q 2881 1984 2565 2268 
Q 2250 2553 1709 2553 
Q 1456 2553 1204 2497 
Q 953 2441 691 2322 
L 691 4666 
z
" id="DejaVuSans-35" transform="scale(0.015625)"/>
       </defs>
       <use xlink:href="#DejaVuSans-32"/>
       <use x="63.623047" xlink:href="#DejaVuSans-35"/>
       <use x="127.246094" xlink:href="#DejaVuSans-30"/>
       <use x="190.869141" xlink:href="#DejaVuSans-30"/>
      </g>
     </g>
    </g>
    <g id="xtick_3">
     <g id="line2d_3">
      <g>
       <use style="stroke:#000000;stroke-width:0.8;" x="121.794582" xlink:href="#m947cbd8ba5" y="228.268096"/>
      </g>
     </g>
     <g id="text_3">
      <!-- 5000 -->
      <g transform="translate(109.069582 242.866533)scale(0.1 -0.1)">
       <use xlink:href="#DejaVuSans-35"/>
       <use x="63.623047" xlink:href="#DejaVuSans-30"/>
       <use x="127.246094" xlink:href="#DejaVuSans-30"/>
       <use x="190.869141" xlink:href="#DejaVuSans-30"/>
      </g>
     </g>
    </g>
    <g id="xtick_4">
     <g id="line2d_4">
      <g>
       <use style="stroke:#000000;stroke-width:0.8;" x="160.03122" xlink:href="#m947cbd8ba5" y="228.268096"/>
      </g>
     </g>
     <g id="text_4">
      <!-- 7500 -->
      <g transform="translate(147.30622 242.866533)scale(0.1 -0.1)">
       <defs>
        <path d="M 525 4666 
L 3525 4666 
L 3525 4397 
L 1831 0 
L 1172 0 
L 2766 4134 
L 525 4134 
L 525 4666 
z
" id="DejaVuSans-37" transform="scale(0.015625)"/>
       </defs>
       <use xlink:href="#DejaVuSans-37"/>
       <use x="63.623047" xlink:href="#DejaVuSans-35"/>
       <use x="127.246094" xlink:href="#DejaVuSans-30"/>
       <use x="190.869141" xlink:href="#DejaVuSans-30"/>
      </g>
     </g>
    </g>
    <g id="xtick_5">
     <g id="line2d_5">
      <g>
       <use style="stroke:#000000;stroke-width:0.8;" x="198.267858" xlink:href="#m947cbd8ba5" y="228.268096"/>
      </g>
     </g>
     <g id="text_5">
      <!-- 10000 -->
      <g transform="translate(182.361608 242.866533)scale(0.1 -0.1)">
       <defs>
        <path d="M 794 531 
L 1825 531 
L 1825 4091 
L 703 3866 
L 703 4441 
L 1819 4666 
L 2450 4666 
L 2450 531 
L 3481 531 
L 3481 0 
L 794 0 
L 794 531 
z
" id="DejaVuSans-31" transform="scale(0.015625)"/>
       </defs>
       <use xlink:href="#DejaVuSans-31"/>
       <use x="63.623047" xlink:href="#DejaVuSans-30"/>
       <use x="127.246094" xlink:href="#DejaVuSans-30"/>
       <use x="190.869141" xlink:href="#DejaVuSans-30"/>
       <use x="254.492188" xlink:href="#DejaVuSans-30"/>
      </g>
     </g>
    </g>
    <g id="xtick_6">
     <g id="line2d_6">
      <g>
       <use style="stroke:#000000;stroke-width:0.8;" x="236.504495" xlink:href="#m947cbd8ba5" y="228.268096"/>
      </g>
     </g>
     <g id="text_6">
      <!-- 12500 -->
      <g transform="translate(220.598245 242.866533)scale(0.1 -0.1)">
       <use xlink:href="#DejaVuSans-31"/>
       <use x="63.623047" xlink:href="#DejaVuSans-32"/>
       <use x="127.246094" xlink:href="#DejaVuSans-35"/>
       <use x="190.869141" xlink:href="#DejaVuSans-30"/>
       <use x="254.492188" xlink:href="#DejaVuSans-30"/>
      </g>
     </g>
    </g>
    <g id="xtick_7">
     <g id="line2d_7">
      <g>
       <use style="stroke:#000000;stroke-width:0.8;" x="274.741133" xlink:href="#m947cbd8ba5" y="228.268096"/>
      </g>
     </g>
     <g id="text_7">
      <!-- 15000 -->
      <g transform="translate(258.834883 242.866533)scale(0.1 -0.1)">
       <use xlink:href="#DejaVuSans-31"/>
       <use x="63.623047" xlink:href="#DejaVuSans-35"/>
       <use x="127.246094" xlink:href="#DejaVuSans-30"/>
       <use x="190.869141" xlink:href="#DejaVuSans-30"/>
       <use x="254.492188" xlink:href="#DejaVuSans-30"/>
      </g>
     </g>
    </g>
    <g id="xtick_8">
     <g id="line2d_8">
      <g>
       <use style="stroke:#000000;stroke-width:0.8;" x="312.977771" xlink:href="#m947cbd8ba5" y="228.268096"/>
      </g>
     </g>
     <g id="text_8">
      <!-- 17500 -->
      <g transform="translate(297.071521 242.866533)scale(0.1 -0.1)">
       <use xlink:href="#DejaVuSans-31"/>
       <use x="63.623047" xlink:href="#DejaVuSans-37"/>
       <use x="127.246094" xlink:href="#DejaVuSans-35"/>
       <use x="190.869141" xlink:href="#DejaVuSans-30"/>
       <use x="254.492188" xlink:href="#DejaVuSans-30"/>
      </g>
     </g>
    </g>
    <g id="xtick_9">
     <g id="line2d_9">
      <g>
       <use style="stroke:#000000;stroke-width:0.8;" x="351.214409" xlink:href="#m947cbd8ba5" y="228.268096"/>
      </g>
     </g>
     <g id="text_9">
      <!-- 20000 -->
      <g transform="translate(335.308159 242.866533)scale(0.1 -0.1)">
       <use xlink:href="#DejaVuSans-32"/>
       <use x="63.623047" xlink:href="#DejaVuSans-30"/>
       <use x="127.246094" xlink:href="#DejaVuSans-30"/>
       <use x="190.869141" xlink:href="#DejaVuSans-30"/>
       <use x="254.492188" xlink:href="#DejaVuSans-30"/>
      </g>
     </g>
    </g>
   </g>
   <g id="matplotlib.axis_2">
    <g id="ytick_1">
     <g id="line2d_10">
      <defs>
       <path d="M 0 0 
L -3.5 0 
" id="m49adcce504" style="stroke:#000000;stroke-width:0.8;"/>
      </defs>
      <g>
       <use style="stroke:#000000;stroke-width:0.8;" x="30.103125" xlink:href="#m49adcce504" y="196.563675"/>
      </g>
     </g>
     <g id="text_10">
      <!-- 0.6 -->
      <g transform="translate(7.2 200.362894)scale(0.1 -0.1)">
       <defs>
        <path d="M 684 794 
L 1344 794 
L 1344 0 
L 684 0 
L 684 794 
z
" id="DejaVuSans-2e" transform="scale(0.015625)"/>
        <path d="M 2113 2584 
Q 1688 2584 1439 2293 
Q 1191 2003 1191 1497 
Q 1191 994 1439 701 
Q 1688 409 2113 409 
Q 2538 409 2786 701 
Q 3034 994 3034 1497 
Q 3034 2003 2786 2293 
Q 2538 2584 2113 2584 
z
M 3366 4563 
L 3366 3988 
Q 3128 4100 2886 4159 
Q 2644 4219 2406 4219 
Q 1781 4219 1451 3797 
Q 1122 3375 1075 2522 
Q 1259 2794 1537 2939 
Q 1816 3084 2150 3084 
Q 2853 3084 3261 2657 
Q 3669 2231 3669 1497 
Q 3669 778 3244 343 
Q 2819 -91 2113 -91 
Q 1303 -91 875 529 
Q 447 1150 447 2328 
Q 447 3434 972 4092 
Q 1497 4750 2381 4750 
Q 2619 4750 2861 4703 
Q 3103 4656 3366 4563 
z
" id="DejaVuSans-36" transform="scale(0.015625)"/>
       </defs>
       <use xlink:href="#DejaVuSans-30"/>
       <use x="63.623047" xlink:href="#DejaVuSans-2e"/>
       <use x="95.410156" xlink:href="#DejaVuSans-36"/>
      </g>
     </g>
    </g>
    <g id="ytick_2">
     <g id="line2d_11">
      <g>
       <use style="stroke:#000000;stroke-width:0.8;" x="30.103125" xlink:href="#m49adcce504" y="150.172561"/>
      </g>
     </g>
     <g id="text_11">
      <!-- 0.8 -->
      <g transform="translate(7.2 153.97178)scale(0.1 -0.1)">
       <defs>
        <path d="M 2034 2216 
Q 1584 2216 1326 1975 
Q 1069 1734 1069 1313 
Q 1069 891 1326 650 
Q 1584 409 2034 409 
Q 2484 409 2743 651 
Q 3003 894 3003 1313 
Q 3003 1734 2745 1975 
Q 2488 2216 2034 2216 
z
M 1403 2484 
Q 997 2584 770 2862 
Q 544 3141 544 3541 
Q 544 4100 942 4425 
Q 1341 4750 2034 4750 
Q 2731 4750 3128 4425 
Q 3525 4100 3525 3541 
Q 3525 3141 3298 2862 
Q 3072 2584 2669 2484 
Q 3125 2378 3379 2068 
Q 3634 1759 3634 1313 
Q 3634 634 3220 271 
Q 2806 -91 2034 -91 
Q 1263 -91 848 271 
Q 434 634 434 1313 
Q 434 1759 690 2068 
Q 947 2378 1403 2484 
z
M 1172 3481 
Q 1172 3119 1398 2916 
Q 1625 2713 2034 2713 
Q 2441 2713 2670 2916 
Q 2900 3119 2900 3481 
Q 2900 3844 2670 4047 
Q 2441 4250 2034 4250 
Q 1625 4250 1398 4047 
Q 1172 3844 1172 3481 
z
" id="DejaVuSans-38" transform="scale(0.015625)"/>
       </defs>
       <use xlink:href="#DejaVuSans-30"/>
       <use x="63.623047" xlink:href="#DejaVuSans-2e"/>
       <use x="95.410156" xlink:href="#DejaVuSans-38"/>
      </g>
     </g>
    </g>
    <g id="ytick_3">
     <g id="line2d_12">
      <g>
       <use style="stroke:#000000;stroke-width:0.8;" x="30.103125" xlink:href="#m49adcce504" y="103.781447"/>
      </g>
     </g>
     <g id="text_12">
      <!-- 1.0 -->
      <g transform="translate(7.2 107.580666)scale(0.1 -0.1)">
       <use xlink:href="#DejaVuSans-31"/>
       <use x="63.623047" xlink:href="#DejaVuSans-2e"/>
       <use x="95.410156" xlink:href="#DejaVuSans-30"/>
      </g>
     </g>
    </g>
    <g id="ytick_4">
     <g id="line2d_13">
      <g>
       <use style="stroke:#000000;stroke-width:0.8;" x="30.103125" xlink:href="#m49adcce504" y="57.390333"/>
      </g>
     </g>
     <g id="text_13">
      <!-- 1.2 -->
      <g transform="translate(7.2 61.189552)scale(0.1 -0.1)">
       <use xlink:href="#DejaVuSans-31"/>
       <use x="63.623047" xlink:href="#DejaVuSans-2e"/>
       <use x="95.410156" xlink:href="#DejaVuSans-32"/>
      </g>
     </g>
    </g>
    <g id="ytick_5">
     <g id="line2d_14">
      <g>
       <use style="stroke:#000000;stroke-width:0.8;" x="30.103125" xlink:href="#m49adcce504" y="10.999219"/>
      </g>
     </g>
     <g id="text_14">
      <!-- 1.4 -->
      <g transform="translate(7.2 14.798438)scale(0.1 -0.1)">
       <defs>
        <path d="M 2419 4116 
L 825 1625 
L 2419 1625 
L 2419 4116 
z
M 2253 4666 
L 3047 4666 
L 3047 1625 
L 3713 1625 
L 3713 1100 
L 3047 1100 
L 3047 0 
L 2419 0 
L 2419 1100 
L 313 1100 
L 313 1709 
L 2253 4666 
z
" id="DejaVuSans-34" transform="scale(0.015625)"/>
       </defs>
       <use xlink:href="#DejaVuSans-31"/>
       <use x="63.623047" xlink:href="#DejaVuSans-2e"/>
       <use x="95.410156" xlink:href="#DejaVuSans-34"/>
      </g>
     </g>
    </g>
   </g>
   <g id="line2d_15">
    <path clip-path="url(#pd4944ddcf5)" d="M 45.321307 158.643371 
L 46.850772 102.692588 
L 48.380238 103.222916 
L 49.909703 106.11963 
L 51.439169 113.841923 
L 52.968634 104.712721 
L 54.4981 104.971888 
L 56.027565 101.704345 
L 57.557031 100.317219 
L 59.086496 97.371743 
L 60.615962 104.562677 
L 62.145427 102.945845 
L 63.674893 98.398659 
L 65.204358 103.95982 
L 66.733824 103.365722 
L 68.263289 107.24317 
L 69.792755 99.488628 
L 71.32222 110.787661 
L 72.851686 99.927782 
L 74.381151 103.91425 
L 75.910617 101.917805 
L 77.440083 106.108107 
L 78.969548 104.311766 
L 80.499014 103.106944 
L 82.028479 97.955894 
L 83.557945 102.663968 
L 85.08741 94.778752 
L 86.616876 102.559928 
L 88.146341 103.491645 
L 89.675807 110.114881 
L 91.205272 104.816731 
L 92.734738 102.980228 
L 94.264203 105.870147 
L 95.793669 104.053913 
L 97.323134 111.929178 
L 98.8526 107.116689 
L 100.382065 105.835792 
L 101.911531 104.794498 
L 103.440996 114.433189 
L 104.970462 104.112567 
L 106.499927 110.591284 
L 108.029393 98.474259 
L 109.558858 104.279809 
L 111.088324 103.970651 
L 112.617789 105.012535 
L 114.147255 101.249684 
L 115.67672 117.054136 
L 117.206186 108.047358 
L 118.735651 109.300043 
L 120.265117 108.250752 
L 121.794582 103.077409 
L 123.324048 93.134396 
L 124.853513 114.271406 
L 126.382979 124.798504 
L 127.912444 100.082625 
L 129.44191 97.566899 
L 130.971375 119.975065 
L 132.500841 96.154077 
L 134.030306 90.961762 
L 135.559772 88.674719 
L 137.089237 94.68641 
L 138.618703 92.338618 
L 140.148168 96.425497 
L 141.677634 129.596354 
L 143.207099 85.31468 
L 144.736565 110.896641 
L 146.26603 66.898486 
L 147.795496 113.000471 
L 149.324961 126.351154 
L 150.854427 97.434235 
L 152.383892 95.976365 
L 153.913358 129.636555 
L 155.442823 89.818562 
L 156.972289 121.918305 
L 158.501755 92.517324 
L 160.03122 134.139195 
L 161.560686 114.17616 
L 163.090151 125.820276 
L 164.619617 114.805979 
L 166.149082 109.937388 
L 167.678548 95.969553 
L 169.208013 99.500121 
L 170.737479 74.482684 
L 172.266944 86.23846 
L 173.79641 77.291708 
L 175.325875 123.730591 
L 176.855341 131.736162 
L 178.384806 95.580687 
L 179.914272 124.834673 
L 181.443737 133.663203 
L 182.973203 128.012292 
L 184.502668 134.551518 
L 186.032134 100.111111 
L 187.561599 107.352282 
L 189.091065 171.175827 
L 190.62053 119.930211 
L 192.149996 72.838662 
L 193.679461 145.56375 
L 195.208927 57.378821 
L 196.738392 152.42331 
L 198.267858 20.711732 
L 199.797323 105.743023 
L 201.326789 120.436396 
L 202.856254 91.883553 
L 205.915185 166.953627 
L 207.444651 42.300277 
L 208.974116 107.433727 
L 210.503582 74.487205 
L 212.033047 121.657787 
L 213.562513 49.621657 
L 215.091978 119.822613 
L 216.621444 137.799688 
L 218.150909 75.879416 
L 219.680375 170.814284 
L 221.20984 38.724966 
L 222.739306 137.275195 
L 224.268771 110.618531 
L 225.798237 128.775579 
L 227.327702 123.558746 
L 228.857168 71.116483 
L 230.386633 81.747738 
L 231.916099 144.679615 
L 233.445564 127.401061 
L 234.97503 74.767874 
L 236.504495 152.781854 
L 238.033961 72.817832 
L 239.563427 94.093209 
L 241.092892 81.891047 
L 242.622358 186.173023 
L 244.151823 129.51757 
L 245.681289 93.783764 
L 247.210754 68.695087 
L 248.74022 128.64828 
L 250.269685 134.280697 
L 251.799151 61.761211 
L 253.328616 113.646157 
L 254.858082 138.031159 
L 256.387547 129.676767 
L 257.917013 151.704603 
L 259.446478 137.974661 
L 260.975944 73.393949 
L 262.505409 158.434177 
L 264.034875 156.666033 
L 265.56434 92.931199 
L 267.093806 218.38446 
L 268.623271 112.601843 
L 270.152737 93.3068 
L 271.682202 94.584818 
L 273.211668 126.96089 
L 274.741133 111.488694 
L 276.270599 93.129979 
L 277.800064 84.393983 
L 279.32953 152.850534 
L 280.858995 65.465583 
L 282.388461 117.765003 
L 283.917926 114.502813 
L 285.447392 80.137152 
L 286.976857 72.48516 
L 288.506323 104.845722 
L 290.035788 86.028505 
L 291.565254 135.998703 
L 293.094719 82.034586 
L 294.624185 104.961288 
L 296.15365 95.42949 
L 297.683116 99.798566 
L 299.212581 151.218205 
L 300.742047 172.337138 
L 302.271512 120.381585 
L 303.800978 103.907586 
L 305.330443 117.928468 
L 306.859909 67.81308 
L 308.389374 95.426697 
L 309.91884 134.453753 
L 311.448305 191.047121 
L 312.977771 158.937114 
L 314.507236 96.16919 
L 316.036702 131.531645 
L 317.566167 96.942241 
L 319.095633 98.711268 
L 320.625099 117.989298 
L 322.154564 120.56285 
L 323.68403 161.48992 
L 325.213495 81.422118 
L 326.742961 186.296723 
L 328.272426 98.154845 
L 329.801892 149.42943 
L 331.331357 187.624534 
L 332.860823 92.612204 
L 334.390288 91.081267 
L 335.919754 106.516032 
L 337.449219 106.362922 
L 338.978685 134.935574 
L 340.50815 103.037238 
L 342.037616 143.234574 
L 343.567081 132.929934 
L 345.096547 88.048635 
L 346.626012 108.822651 
L 348.155478 94.818818 
L 349.684943 121.649138 
L 349.684943 121.649138 
" style="fill:none;stroke:#1f77b4;stroke-linecap:square;stroke-width:1.5;"/>
   </g>
   <g id="patch_3">
    <path d="M 30.103125 228.268096 
L 30.103125 10.828096 
" style="fill:none;stroke:#000000;stroke-linecap:square;stroke-linejoin:miter;stroke-width:0.8;"/>
   </g>
   <g id="patch_4">
    <path d="M 364.903125 228.268096 
L 364.903125 10.828096 
" style="fill:none;stroke:#000000;stroke-linecap:square;stroke-linejoin:miter;stroke-width:0.8;"/>
   </g>
   <g id="patch_5">
    <path d="M 30.103125 228.268096 
L 364.903125 228.268096 
" style="fill:none;stroke:#000000;stroke-linecap:square;stroke-linejoin:miter;stroke-width:0.8;"/>
   </g>
   <g id="patch_6">
    <path d="M 30.103125 10.828096 
L 364.903125 10.828096 
" style="fill:none;stroke:#000000;stroke-linecap:square;stroke-linejoin:miter;stroke-width:0.8;"/>
   </g>
  </g>
 </g>
 <defs>
  <clipPath id="pd4944ddcf5">
   <rect height="217.44" width="334.8" x="30.103125" y="10.828096"/>
  </clipPath>
 </defs>
</svg>
