<?xml version="1.0" encoding="utf-8" standalone="no"?>
<!DOCTYPE svg PUBLIC "-//W3C//DTD SVG 1.1//EN"
  "http://www.w3.org/Graphics/SVG/1.1/DTD/svg11.dtd">
<svg height="248.518125pt" version="1.1" viewBox="0 0 373.40114 248.518125" width="373.40114pt" xmlns="http://www.w3.org/2000/svg" xmlns:xlink="http://www.w3.org/1999/xlink">
 <metadata>
  <rdf:RDF xmlns:cc="http://creativecommons.org/ns#" xmlns:dc="http://purl.org/dc/elements/1.1/" xmlns:rdf="http://www.w3.org/1999/02/22-rdf-syntax-ns#">
   <cc:Work>
    <dc:type rdf:resource="http://purl.org/dc/dcmitype/StillImage"/>
    <dc:date>2021-06-19T19:38:40.042896</dc:date>
    <dc:format>image/svg+xml</dc:format>
    <dc:creator>
     <cc:Agent>
      <dc:title>Matplotlib v3.4.1, https://matplotlib.org/</dc:title>
     </cc:Agent>
    </dc:creator>
   </cc:Work>
  </rdf:RDF>
 </metadata>
 <defs>
  <style type="text/css">*{stroke-linecap:butt;stroke-linejoin:round;}</style>
 </defs>
 <g id="figure_1">
  <g id="patch_1">
   <path d="M 0 248.518125 
L 373.40114 248.518125 
L 373.40114 0 
L 0 0 
z
" style="fill:none;"/>
  </g>
  <g id="axes_1">
   <g id="patch_2">
    <path d="M 30.103125 224.64 
L 364.903125 224.64 
L 364.903125 7.2 
L 30.103125 7.2 
z
" style="fill:#ffffff;"/>
   </g>
   <g id="matplotlib.axis_1">
    <g id="xtick_1">
     <g id="line2d_1">
      <defs>
       <path d="M 0 0 
L 0 3.5 
" id="mfb95565037" style="stroke:#000000;stroke-width:0.8;"/>
      </defs>
      <g>
       <use style="stroke:#000000;stroke-width:0.8;" x="45.321307" xlink:href="#mfb95565037" y="224.64"/>
      </g>
     </g>
     <g id="text_1">
      <!-- 0 -->
      <g transform="translate(42.140057 239.238437)scale(0.1 -0.1)">
       <defs>
        <path d="M 2034 4250 
Q 1547 4250 1301 3770 
Q 1056 3291 1056 2328 
Q 1056 1369 1301 889 
Q 1547 409 2034 409 
Q 2525 409 2770 889 
Q 3016 1369 3016 2328 
Q 3016 3291 2770 3770 
Q 2525 4250 2034 4250 
z
M 2034 4750 
Q 2819 4750 3233 4129 
Q 3647 3509 3647 2328 
Q 3647 1150 3233 529 
Q 2819 -91 2034 -91 
Q 1250 -91 836 529 
Q 422 1150 422 2328 
Q 422 3509 836 4129 
Q 1250 4750 2034 4750 
z
" id="DejaVuSans-30" transform="scale(0.015625)"/>
       </defs>
       <use xlink:href="#DejaVuSans-30"/>
      </g>
     </g>
    </g>
    <g id="xtick_2">
     <g id="line2d_2">
      <g>
       <use style="stroke:#000000;stroke-width:0.8;" x="106.316024" xlink:href="#mfb95565037" y="224.64"/>
      </g>
     </g>
     <g id="text_2">
      <!-- 10000 -->
      <g transform="translate(90.409774 239.238437)scale(0.1 -0.1)">
       <defs>
        <path d="M 794 531 
L 1825 531 
L 1825 4091 
L 703 3866 
L 703 4441 
L 1819 4666 
L 2450 4666 
L 2450 531 
L 3481 531 
L 3481 0 
L 794 0 
L 794 531 
z
" id="DejaVuSans-31" transform="scale(0.015625)"/>
       </defs>
       <use xlink:href="#DejaVuSans-31"/>
       <use x="63.623047" xlink:href="#DejaVuSans-30"/>
       <use x="127.246094" xlink:href="#DejaVuSans-30"/>
       <use x="190.869141" xlink:href="#DejaVuSans-30"/>
       <use x="254.492188" xlink:href="#DejaVuSans-30"/>
      </g>
     </g>
    </g>
    <g id="xtick_3">
     <g id="line2d_3">
      <g>
       <use style="stroke:#000000;stroke-width:0.8;" x="167.31074" xlink:href="#mfb95565037" y="224.64"/>
      </g>
     </g>
     <g id="text_3">
      <!-- 20000 -->
      <g transform="translate(151.40449 239.238437)scale(0.1 -0.1)">
       <defs>
        <path d="M 1228 531 
L 3431 531 
L 3431 0 
L 469 0 
L 469 531 
Q 828 903 1448 1529 
Q 2069 2156 2228 2338 
Q 2531 2678 2651 2914 
Q 2772 3150 2772 3378 
Q 2772 3750 2511 3984 
Q 2250 4219 1831 4219 
Q 1534 4219 1204 4116 
Q 875 4013 500 3803 
L 500 4441 
Q 881 4594 1212 4672 
Q 1544 4750 1819 4750 
Q 2544 4750 2975 4387 
Q 3406 4025 3406 3419 
Q 3406 3131 3298 2873 
Q 3191 2616 2906 2266 
Q 2828 2175 2409 1742 
Q 1991 1309 1228 531 
z
" id="DejaVuSans-32" transform="scale(0.015625)"/>
       </defs>
       <use xlink:href="#DejaVuSans-32"/>
       <use x="63.623047" xlink:href="#DejaVuSans-30"/>
       <use x="127.246094" xlink:href="#DejaVuSans-30"/>
       <use x="190.869141" xlink:href="#DejaVuSans-30"/>
       <use x="254.492188" xlink:href="#DejaVuSans-30"/>
      </g>
     </g>
    </g>
    <g id="xtick_4">
     <g id="line2d_4">
      <g>
       <use style="stroke:#000000;stroke-width:0.8;" x="228.305457" xlink:href="#mfb95565037" y="224.64"/>
      </g>
     </g>
     <g id="text_4">
      <!-- 30000 -->
      <g transform="translate(212.399207 239.238437)scale(0.1 -0.1)">
       <defs>
        <path d="M 2597 2516 
Q 3050 2419 3304 2112 
Q 3559 1806 3559 1356 
Q 3559 666 3084 287 
Q 2609 -91 1734 -91 
Q 1441 -91 1130 -33 
Q 819 25 488 141 
L 488 750 
Q 750 597 1062 519 
Q 1375 441 1716 441 
Q 2309 441 2620 675 
Q 2931 909 2931 1356 
Q 2931 1769 2642 2001 
Q 2353 2234 1838 2234 
L 1294 2234 
L 1294 2753 
L 1863 2753 
Q 2328 2753 2575 2939 
Q 2822 3125 2822 3475 
Q 2822 3834 2567 4026 
Q 2313 4219 1838 4219 
Q 1578 4219 1281 4162 
Q 984 4106 628 3988 
L 628 4550 
Q 988 4650 1302 4700 
Q 1616 4750 1894 4750 
Q 2613 4750 3031 4423 
Q 3450 4097 3450 3541 
Q 3450 3153 3228 2886 
Q 3006 2619 2597 2516 
z
" id="DejaVuSans-33" transform="scale(0.015625)"/>
       </defs>
       <use xlink:href="#DejaVuSans-33"/>
       <use x="63.623047" xlink:href="#DejaVuSans-30"/>
       <use x="127.246094" xlink:href="#DejaVuSans-30"/>
       <use x="190.869141" xlink:href="#DejaVuSans-30"/>
       <use x="254.492188" xlink:href="#DejaVuSans-30"/>
      </g>
     </g>
    </g>
    <g id="xtick_5">
     <g id="line2d_5">
      <g>
       <use style="stroke:#000000;stroke-width:0.8;" x="289.300174" xlink:href="#mfb95565037" y="224.64"/>
      </g>
     </g>
     <g id="text_5">
      <!-- 40000 -->
      <g transform="translate(273.393924 239.238437)scale(0.1 -0.1)">
       <defs>
        <path d="M 2419 4116 
L 825 1625 
L 2419 1625 
L 2419 4116 
z
M 2253 4666 
L 3047 4666 
L 3047 1625 
L 3713 1625 
L 3713 1100 
L 3047 1100 
L 3047 0 
L 2419 0 
L 2419 1100 
L 313 1100 
L 313 1709 
L 2253 4666 
z
" id="DejaVuSans-34" transform="scale(0.015625)"/>
       </defs>
       <use xlink:href="#DejaVuSans-34"/>
       <use x="63.623047" xlink:href="#DejaVuSans-30"/>
       <use x="127.246094" xlink:href="#DejaVuSans-30"/>
       <use x="190.869141" xlink:href="#DejaVuSans-30"/>
       <use x="254.492188" xlink:href="#DejaVuSans-30"/>
      </g>
     </g>
    </g>
    <g id="xtick_6">
     <g id="line2d_6">
      <g>
       <use style="stroke:#000000;stroke-width:0.8;" x="350.29489" xlink:href="#mfb95565037" y="224.64"/>
      </g>
     </g>
     <g id="text_6">
      <!-- 50000 -->
      <g transform="translate(334.38864 239.238437)scale(0.1 -0.1)">
       <defs>
        <path d="M 691 4666 
L 3169 4666 
L 3169 4134 
L 1269 4134 
L 1269 2991 
Q 1406 3038 1543 3061 
Q 1681 3084 1819 3084 
Q 2600 3084 3056 2656 
Q 3513 2228 3513 1497 
Q 3513 744 3044 326 
Q 2575 -91 1722 -91 
Q 1428 -91 1123 -41 
Q 819 9 494 109 
L 494 744 
Q 775 591 1075 516 
Q 1375 441 1709 441 
Q 2250 441 2565 725 
Q 2881 1009 2881 1497 
Q 2881 1984 2565 2268 
Q 2250 2553 1709 2553 
Q 1456 2553 1204 2497 
Q 953 2441 691 2322 
L 691 4666 
z
" id="DejaVuSans-35" transform="scale(0.015625)"/>
       </defs>
       <use xlink:href="#DejaVuSans-35"/>
       <use x="63.623047" xlink:href="#DejaVuSans-30"/>
       <use x="127.246094" xlink:href="#DejaVuSans-30"/>
       <use x="190.869141" xlink:href="#DejaVuSans-30"/>
       <use x="254.492188" xlink:href="#DejaVuSans-30"/>
      </g>
     </g>
    </g>
   </g>
   <g id="matplotlib.axis_2">
    <g id="ytick_1">
     <g id="line2d_7">
      <defs>
       <path d="M 0 0 
L -3.5 0 
" id="m2c90900510" style="stroke:#000000;stroke-width:0.8;"/>
      </defs>
      <g>
       <use style="stroke:#000000;stroke-width:0.8;" x="30.103125" xlink:href="#m2c90900510" y="207.874316"/>
      </g>
     </g>
     <g id="text_7">
      <!-- 0.5 -->
      <g transform="translate(7.2 211.673535)scale(0.1 -0.1)">
       <defs>
        <path d="M 684 794 
L 1344 794 
L 1344 0 
L 684 0 
L 684 794 
z
" id="DejaVuSans-2e" transform="scale(0.015625)"/>
       </defs>
       <use xlink:href="#DejaVuSans-30"/>
       <use x="63.623047" xlink:href="#DejaVuSans-2e"/>
       <use x="95.410156" xlink:href="#DejaVuSans-35"/>
      </g>
     </g>
    </g>
    <g id="ytick_2">
     <g id="line2d_8">
      <g>
       <use style="stroke:#000000;stroke-width:0.8;" x="30.103125" xlink:href="#m2c90900510" y="183.334273"/>
      </g>
     </g>
     <g id="text_8">
      <!-- 0.6 -->
      <g transform="translate(7.2 187.133492)scale(0.1 -0.1)">
       <defs>
        <path d="M 2113 2584 
Q 1688 2584 1439 2293 
Q 1191 2003 1191 1497 
Q 1191 994 1439 701 
Q 1688 409 2113 409 
Q 2538 409 2786 701 
Q 3034 994 3034 1497 
Q 3034 2003 2786 2293 
Q 2538 2584 2113 2584 
z
M 3366 4563 
L 3366 3988 
Q 3128 4100 2886 4159 
Q 2644 4219 2406 4219 
Q 1781 4219 1451 3797 
Q 1122 3375 1075 2522 
Q 1259 2794 1537 2939 
Q 1816 3084 2150 3084 
Q 2853 3084 3261 2657 
Q 3669 2231 3669 1497 
Q 3669 778 3244 343 
Q 2819 -91 2113 -91 
Q 1303 -91 875 529 
Q 447 1150 447 2328 
Q 447 3434 972 4092 
Q 1497 4750 2381 4750 
Q 2619 4750 2861 4703 
Q 3103 4656 3366 4563 
z
" id="DejaVuSans-36" transform="scale(0.015625)"/>
       </defs>
       <use xlink:href="#DejaVuSans-30"/>
       <use x="63.623047" xlink:href="#DejaVuSans-2e"/>
       <use x="95.410156" xlink:href="#DejaVuSans-36"/>
      </g>
     </g>
    </g>
    <g id="ytick_3">
     <g id="line2d_9">
      <g>
       <use style="stroke:#000000;stroke-width:0.8;" x="30.103125" xlink:href="#m2c90900510" y="158.79423"/>
      </g>
     </g>
     <g id="text_9">
      <!-- 0.7 -->
      <g transform="translate(7.2 162.593449)scale(0.1 -0.1)">
       <defs>
        <path d="M 525 4666 
L 3525 4666 
L 3525 4397 
L 1831 0 
L 1172 0 
L 2766 4134 
L 525 4134 
L 525 4666 
z
" id="DejaVuSans-37" transform="scale(0.015625)"/>
       </defs>
       <use xlink:href="#DejaVuSans-30"/>
       <use x="63.623047" xlink:href="#DejaVuSans-2e"/>
       <use x="95.410156" xlink:href="#DejaVuSans-37"/>
      </g>
     </g>
    </g>
    <g id="ytick_4">
     <g id="line2d_10">
      <g>
       <use style="stroke:#000000;stroke-width:0.8;" x="30.103125" xlink:href="#m2c90900510" y="134.254187"/>
      </g>
     </g>
     <g id="text_10">
      <!-- 0.8 -->
      <g transform="translate(7.2 138.053406)scale(0.1 -0.1)">
       <defs>
        <path d="M 2034 2216 
Q 1584 2216 1326 1975 
Q 1069 1734 1069 1313 
Q 1069 891 1326 650 
Q 1584 409 2034 409 
Q 2484 409 2743 651 
Q 3003 894 3003 1313 
Q 3003 1734 2745 1975 
Q 2488 2216 2034 2216 
z
M 1403 2484 
Q 997 2584 770 2862 
Q 544 3141 544 3541 
Q 544 4100 942 4425 
Q 1341 4750 2034 4750 
Q 2731 4750 3128 4425 
Q 3525 4100 3525 3541 
Q 3525 3141 3298 2862 
Q 3072 2584 2669 2484 
Q 3125 2378 3379 2068 
Q 3634 1759 3634 1313 
Q 3634 634 3220 271 
Q 2806 -91 2034 -91 
Q 1263 -91 848 271 
Q 434 634 434 1313 
Q 434 1759 690 2068 
Q 947 2378 1403 2484 
z
M 1172 3481 
Q 1172 3119 1398 2916 
Q 1625 2713 2034 2713 
Q 2441 2713 2670 2916 
Q 2900 3119 2900 3481 
Q 2900 3844 2670 4047 
Q 2441 4250 2034 4250 
Q 1625 4250 1398 4047 
Q 1172 3844 1172 3481 
z
" id="DejaVuSans-38" transform="scale(0.015625)"/>
       </defs>
       <use xlink:href="#DejaVuSans-30"/>
       <use x="63.623047" xlink:href="#DejaVuSans-2e"/>
       <use x="95.410156" xlink:href="#DejaVuSans-38"/>
      </g>
     </g>
    </g>
    <g id="ytick_5">
     <g id="line2d_11">
      <g>
       <use style="stroke:#000000;stroke-width:0.8;" x="30.103125" xlink:href="#m2c90900510" y="109.714145"/>
      </g>
     </g>
     <g id="text_11">
      <!-- 0.9 -->
      <g transform="translate(7.2 113.513363)scale(0.1 -0.1)">
       <defs>
        <path d="M 703 97 
L 703 672 
Q 941 559 1184 500 
Q 1428 441 1663 441 
Q 2288 441 2617 861 
Q 2947 1281 2994 2138 
Q 2813 1869 2534 1725 
Q 2256 1581 1919 1581 
Q 1219 1581 811 2004 
Q 403 2428 403 3163 
Q 403 3881 828 4315 
Q 1253 4750 1959 4750 
Q 2769 4750 3195 4129 
Q 3622 3509 3622 2328 
Q 3622 1225 3098 567 
Q 2575 -91 1691 -91 
Q 1453 -91 1209 -44 
Q 966 3 703 97 
z
M 1959 2075 
Q 2384 2075 2632 2365 
Q 2881 2656 2881 3163 
Q 2881 3666 2632 3958 
Q 2384 4250 1959 4250 
Q 1534 4250 1286 3958 
Q 1038 3666 1038 3163 
Q 1038 2656 1286 2365 
Q 1534 2075 1959 2075 
z
" id="DejaVuSans-39" transform="scale(0.015625)"/>
       </defs>
       <use xlink:href="#DejaVuSans-30"/>
       <use x="63.623047" xlink:href="#DejaVuSans-2e"/>
       <use x="95.410156" xlink:href="#DejaVuSans-39"/>
      </g>
     </g>
    </g>
    <g id="ytick_6">
     <g id="line2d_12">
      <g>
       <use style="stroke:#000000;stroke-width:0.8;" x="30.103125" xlink:href="#m2c90900510" y="85.174102"/>
      </g>
     </g>
     <g id="text_12">
      <!-- 1.0 -->
      <g transform="translate(7.2 88.97332)scale(0.1 -0.1)">
       <use xlink:href="#DejaVuSans-31"/>
       <use x="63.623047" xlink:href="#DejaVuSans-2e"/>
       <use x="95.410156" xlink:href="#DejaVuSans-30"/>
      </g>
     </g>
    </g>
    <g id="ytick_7">
     <g id="line2d_13">
      <g>
       <use style="stroke:#000000;stroke-width:0.8;" x="30.103125" xlink:href="#m2c90900510" y="60.634059"/>
      </g>
     </g>
     <g id="text_13">
      <!-- 1.1 -->
      <g transform="translate(7.2 64.433277)scale(0.1 -0.1)">
       <use xlink:href="#DejaVuSans-31"/>
       <use x="63.623047" xlink:href="#DejaVuSans-2e"/>
       <use x="95.410156" xlink:href="#DejaVuSans-31"/>
      </g>
     </g>
    </g>
    <g id="ytick_8">
     <g id="line2d_14">
      <g>
       <use style="stroke:#000000;stroke-width:0.8;" x="30.103125" xlink:href="#m2c90900510" y="36.094016"/>
      </g>
     </g>
     <g id="text_14">
      <!-- 1.2 -->
      <g transform="translate(7.2 39.893234)scale(0.1 -0.1)">
       <use xlink:href="#DejaVuSans-31"/>
       <use x="63.623047" xlink:href="#DejaVuSans-2e"/>
       <use x="95.410156" xlink:href="#DejaVuSans-32"/>
      </g>
     </g>
    </g>
    <g id="ytick_9">
     <g id="line2d_15">
      <g>
       <use style="stroke:#000000;stroke-width:0.8;" x="30.103125" xlink:href="#m2c90900510" y="11.553973"/>
      </g>
     </g>
     <g id="text_15">
      <!-- 1.3 -->
      <g transform="translate(7.2 15.353191)scale(0.1 -0.1)">
       <use xlink:href="#DejaVuSans-31"/>
       <use x="63.623047" xlink:href="#DejaVuSans-2e"/>
       <use x="95.410156" xlink:href="#DejaVuSans-33"/>
      </g>
     </g>
    </g>
   </g>
   <g id="line2d_16">
    <path clip-path="url(#p9ecd7019dd)" d="M 45.321307 17.083636 
L 45.931254 80.414652 
L 46.541201 111.723624 
L 47.151148 65.55619 
L 47.761095 79.846133 
L 48.371043 44.314521 
L 48.98099 79.568698 
L 49.590937 84.975101 
L 50.200884 71.271674 
L 50.810831 77.990901 
L 51.420778 81.749185 
L 52.030726 66.255126 
L 52.640673 106.645705 
L 53.25062 105.3961 
L 53.860567 93.928919 
L 54.470514 51.105067 
L 55.080461 85.166383 
L 55.690409 87.660028 
L 56.300356 94.479397 
L 56.910303 67.095158 
L 57.52025 82.646209 
L 58.130197 102.215434 
L 58.740144 96.700104 
L 59.350092 73.749865 
L 59.960039 69.965 
L 60.569986 72.023837 
L 61.179933 78.284942 
L 61.78988 81.684619 
L 62.399827 93.52633 
L 63.009775 78.941307 
L 63.619722 85.174476 
L 64.229669 56.561111 
L 64.839616 70.833815 
L 65.449563 95.331733 
L 66.05951 97.205886 
L 66.669458 64.091222 
L 67.279405 83.63911 
L 67.889352 76.259053 
L 68.499299 54.07767 
L 69.109246 84.04435 
L 69.719194 101.267562 
L 70.329141 76.473923 
L 70.939088 97.138262 
L 71.549035 62.697403 
L 72.158982 97.624864 
L 72.768929 79.819289 
L 73.378877 85.534513 
L 73.988824 96.599421 
L 74.598771 114.36004 
L 75.208718 106.383241 
L 75.818665 93.218624 
L 76.428612 96.456538 
L 77.03856 111.63887 
L 77.648507 81.898778 
L 78.258454 90.553682 
L 78.868401 87.688134 
L 79.478348 77.612665 
L 80.088295 88.030303 
L 80.698243 90.749482 
L 81.30819 95.484525 
L 81.918137 83.190034 
L 82.528084 93.936794 
L 83.138031 74.817164 
L 83.747978 79.738999 
L 84.357926 60.788441 
L 84.967873 78.197349 
L 85.57782 68.088405 
L 86.187767 89.618366 
L 86.797714 65.678525 
L 87.407661 78.713265 
L 88.017609 109.609157 
L 88.627556 91.308527 
L 89.237503 64.648395 
L 89.84745 92.132981 
L 90.457397 50.615324 
L 91.067344 82.435924 
L 91.677292 87.504599 
L 92.287239 53.773888 
L 92.897186 77.437272 
L 93.507133 92.027052 
L 94.11708 111.135057 
L 94.727027 86.792558 
L 95.336975 82.381026 
L 95.946922 79.375337 
L 96.556869 85.463467 
L 97.166816 87.80723 
L 97.776763 106.857043 
L 98.38671 76.498768 
L 98.996658 85.542687 
L 99.606605 92.615797 
L 100.216552 76.621369 
L 100.826499 93.804938 
L 101.436446 73.284027 
L 102.046393 82.351735 
L 102.656341 103.973914 
L 103.266288 130.173526 
L 103.876235 79.579828 
L 105.096129 100.395244 
L 105.706076 72.910173 
L 106.316024 95.668832 
L 106.925971 92.827157 
L 107.535918 67.008024 
L 108.145865 79.553818 
L 108.755812 67.989642 
L 109.365759 113.588791 
L 109.975707 77.44765 
L 110.585654 87.833483 
L 111.805548 75.622133 
L 112.415495 86.065575 
L 113.63539 100.042714 
L 114.245337 87.251019 
L 114.855284 86.899273 
L 115.465231 70.02974 
L 116.075178 88.621633 
L 116.685125 99.186359 
L 117.295073 60.764977 
L 117.90502 80.43518 
L 118.514967 95.835754 
L 119.124914 98.153087 
L 119.734861 92.403945 
L 120.344808 90.747864 
L 120.954756 74.41163 
L 121.564703 87.322062 
L 122.17465 90.991023 
L 122.784597 77.614662 
L 123.394544 114.704491 
L 124.004491 83.609395 
L 124.614439 79.334721 
L 125.224386 68.949554 
L 125.834333 79.563426 
L 126.44428 102.066624 
L 127.054227 150.919543 
L 128.274122 68.520749 
L 128.884069 79.104457 
L 129.494016 73.774445 
L 130.103963 106.110658 
L 130.71391 71.876109 
L 131.323857 115.368836 
L 131.933805 67.364645 
L 132.543752 95.993223 
L 133.153699 65.529277 
L 133.763646 74.573155 
L 134.98354 103.132369 
L 135.593488 91.945064 
L 136.203435 68.246085 
L 136.813382 67.620536 
L 137.423329 104.57606 
L 138.033276 87.110751 
L 138.643223 86.884379 
L 139.253171 82.670183 
L 139.863118 110.900368 
L 140.473065 77.320949 
L 141.083012 72.443975 
L 141.692959 125.115679 
L 142.302906 72.481561 
L 142.912854 74.244871 
L 143.522801 125.677549 
L 144.132748 87.971281 
L 144.742695 89.913995 
L 145.352642 114.227168 
L 145.962589 125.054266 
L 146.572537 93.883089 
L 147.182484 99.640005 
L 147.792431 73.028023 
L 148.402378 89.401151 
L 149.012325 163.466391 
L 149.622272 100.706636 
L 150.23222 96.037239 
L 150.842167 68.638447 
L 151.452114 50.128247 
L 152.062061 68.647722 
L 152.672008 76.671985 
L 153.281955 89.541282 
L 153.891903 137.722153 
L 154.50185 106.956261 
L 155.111797 89.396006 
L 155.721744 97.974568 
L 156.331691 98.885803 
L 156.941638 73.0427 
L 157.551586 117.734181 
L 158.161533 101.41445 
L 158.77148 97.653778 
L 159.381427 118.469411 
L 159.991374 97.358018 
L 160.601321 97.622974 
L 161.211269 110.470943 
L 161.821216 113.619281 
L 162.431163 105.573955 
L 163.04111 91.142884 
L 163.651057 74.036024 
L 164.261004 49.016783 
L 164.870952 73.006811 
L 166.090846 58.928117 
L 166.700793 87.185623 
L 167.31074 125.426869 
L 167.920687 122.175229 
L 168.530635 104.446735 
L 169.140582 154.43713 
L 169.750529 84.666892 
L 170.360476 97.002965 
L 170.970423 113.214687 
L 171.58037 64.601907 
L 172.190318 110.936906 
L 172.800265 55.493425 
L 173.410212 138.971457 
L 174.020159 87.109316 
L 174.630106 150.414168 
L 175.240053 126.589203 
L 175.850001 109.788808 
L 176.459948 78.291992 
L 177.069895 121.271031 
L 177.679842 82.758832 
L 178.289789 108.649049 
L 178.899736 76.470694 
L 179.509684 107.547 
L 180.119631 86.81358 
L 180.729578 59.57514 
L 181.339525 106.535359 
L 181.949472 84.085229 
L 182.559419 121.242673 
L 183.169367 103.82781 
L 183.779314 163.568204 
L 184.389261 106.848989 
L 184.999208 137.478174 
L 185.609155 148.263784 
L 186.82905 47.154381 
L 187.438997 72.363644 
L 188.048944 142.575776 
L 188.658891 118.059352 
L 189.268838 138.243462 
L 189.878785 138.668549 
L 190.488733 103.550662 
L 191.09868 108.59705 
L 191.708627 83.06709 
L 192.318574 157.699619 
L 192.928521 95.995487 
L 193.538468 93.43159 
L 194.148416 64.081469 
L 194.758363 62.819865 
L 195.36831 95.696747 
L 195.978257 66.703857 
L 196.588204 86.775765 
L 197.198151 101.539334 
L 197.808099 66.398064 
L 198.418046 50.321643 
L 199.027993 101.127228 
L 199.63794 100.348553 
L 200.247887 126.551358 
L 200.857834 142.804288 
L 201.467782 149.832031 
L 202.077729 51.236771 
L 202.687676 61.383949 
L 203.297623 92.377333 
L 203.90757 56.426551 
L 204.517517 81.141594 
L 205.127465 82.695474 
L 206.347359 111.494092 
L 206.957306 113.994311 
L 207.567253 140.705425 
L 208.787148 78.470105 
L 209.397095 160.224538 
L 210.007042 119.443583 
L 210.616989 135.447393 
L 211.226936 73.832661 
L 211.836883 53.130126 
L 212.446831 124.689953 
L 213.056778 108.832724 
L 213.666725 103.385345 
L 214.276672 113.278792 
L 214.886619 77.655078 
L 215.496566 77.051066 
L 216.106514 114.825366 
L 216.716461 123.72259 
L 217.326408 101.794557 
L 217.936355 120.691238 
L 218.546302 121.345981 
L 219.156249 118.128049 
L 219.766197 136.399433 
L 220.376144 39.914522 
L 220.986091 108.053315 
L 221.596038 65.608264 
L 222.205985 62.602852 
L 222.815932 81.001691 
L 223.42588 60.491059 
L 224.035827 110.204458 
L 224.645774 72.432706 
L 225.255721 70.429161 
L 225.865668 127.389272 
L 226.475615 73.271151 
L 227.085563 66.765796 
L 227.69551 112.222045 
L 228.305457 115.523666 
L 228.915404 22.762654 
L 229.525351 102.459389 
L 230.135298 78.860156 
L 230.745246 199.058925 
L 231.355193 118.978501 
L 231.96514 167.723662 
L 232.575087 104.157446 
L 233.185034 88.482837 
L 233.794981 107.80576 
L 234.404929 135.404769 
L 235.014876 120.638 
L 235.624823 100.981094 
L 236.23477 97.800591 
L 236.844717 114.357341 
L 237.454664 138.679651 
L 238.064612 83.854986 
L 238.674559 106.378084 
L 239.284506 134.740166 
L 239.894453 142.812208 
L 241.114347 86.081799 
L 241.724295 97.406403 
L 242.334242 119.009655 
L 243.554136 106.307158 
L 244.164083 190.352102 
L 244.77403 69.532918 
L 245.383978 120.953416 
L 245.993925 71.917324 
L 246.603872 130.860628 
L 247.213819 128.615688 
L 247.823766 71.426709 
L 248.433713 68.421522 
L 249.043661 110.709152 
L 249.653608 113.140196 
L 250.263555 207.673228 
L 250.873502 151.873404 
L 251.483449 121.066056 
L 252.093396 131.641506 
L 252.703344 103.669206 
L 253.923238 75.31992 
L 254.533185 69.131713 
L 255.143132 117.799757 
L 255.753079 127.506191 
L 256.363027 214.756364 
L 256.972974 30.430191 
L 257.582921 125.68722 
L 258.802815 88.217732 
L 259.412762 114.87697 
L 260.02271 118.047727 
L 260.632657 122.332984 
L 261.242604 154.385542 
L 261.852551 44.825254 
L 262.462498 82.335131 
L 263.072445 173.486848 
L 263.682393 47.455261 
L 264.29234 144.127622 
L 264.902287 40.256345 
L 265.512234 90.797881 
L 266.122181 72.544274 
L 266.732128 151.458425 
L 267.342076 48.432108 
L 267.952023 101.083548 
L 268.56197 110.518236 
L 269.171917 111.589645 
L 269.781864 130.678616 
L 270.391811 158.419282 
L 271.001759 84.767666 
L 271.611706 120.955169 
L 272.221653 90.336754 
L 272.8316 126.97098 
L 273.441547 117.114299 
L 274.051494 184.332553 
L 274.661442 50.675986 
L 275.271389 148.210876 
L 275.881336 121.34939 
L 276.491283 164.177934 
L 277.10123 106.961169 
L 277.711177 125.52971 
L 278.321125 151.733087 
L 278.931072 137.245204 
L 279.541019 174.671447 
L 280.150966 158.44813 
L 280.760913 59.843427 
L 281.37086 138.748995 
L 281.980808 86.953409 
L 282.590755 108.450021 
L 283.200702 73.496776 
L 283.810649 67.166199 
L 284.420596 134.796166 
L 285.030543 39.37839 
L 285.640491 62.275704 
L 286.250438 108.146045 
L 286.860385 38.805097 
L 287.470332 144.464715 
L 288.080279 105.325238 
L 288.690226 133.359174 
L 289.300174 68.60775 
L 289.910121 191.359677 
L 290.520068 127.928731 
L 291.130015 149.905691 
L 291.739962 36.897777 
L 292.349909 147.506044 
L 292.959857 61.836789 
L 293.569804 32.643447 
L 294.179751 179.611005 
L 294.789698 80.669718 
L 295.399645 132.697847 
L 296.009592 73.926345 
L 296.61954 89.037479 
L 297.229487 65.671069 
L 297.839434 173.597316 
L 298.449381 130.483348 
L 299.059328 118.01244 
L 299.669275 159.167312 
L 300.88917 80.925238 
L 301.499117 24.215238 
L 302.109064 114.552788 
L 302.719011 101.739547 
L 303.328958 110.289724 
L 303.938906 93.722843 
L 304.548853 52.334561 
L 305.1588 161.663648 
L 305.768747 137.215724 
L 306.378694 182.504033 
L 306.988641 68.219816 
L 307.598589 119.511937 
L 308.208536 148.556721 
L 308.818483 121.680405 
L 309.42843 77.586299 
L 310.038377 182.231093 
L 310.648324 172.914484 
L 311.258272 53.321008 
L 311.868219 106.883871 
L 312.478166 118.336504 
L 313.088113 114.663493 
L 313.69806 124.073092 
L 314.308007 162.795927 
L 314.917955 139.854511 
L 315.527902 90.583739 
L 316.137849 201.933574 
L 316.747796 128.018717 
L 317.357743 163.531891 
L 317.96769 105.008648 
L 318.577638 169.412256 
L 319.187585 64.997563 
L 319.797532 126.111689 
L 320.407479 105.417044 
L 321.017426 148.281764 
L 321.627373 141.110855 
L 322.237321 25.462351 
L 322.847268 151.762896 
L 323.457215 106.687963 
L 324.067162 101.563571 
L 324.677109 74.383661 
L 325.287056 55.050962 
L 325.897004 192.41323 
L 326.506951 118.916301 
L 327.116898 109.227118 
L 327.726845 135.535646 
L 328.336792 152.376709 
L 328.94674 139.71652 
L 329.556687 91.336112 
L 330.166634 132.721268 
L 330.776581 123.139263 
L 331.386528 85.240095 
L 331.996475 66.745985 
L 332.606423 142.278866 
L 333.21637 162.298387 
L 333.826317 137.897566 
L 334.436264 82.711128 
L 335.046211 126.894204 
L 335.656158 89.553887 
L 336.266106 195.992493 
L 336.876053 162.656989 
L 337.486 160.18721 
L 338.095947 148.532046 
L 338.705894 104.713833 
L 339.315841 75.223062 
L 339.925789 60.678663 
L 340.535736 210.781138 
L 341.145683 102.389772 
L 341.75563 109.878338 
L 342.365577 198.221366 
L 342.975524 196.188585 
L 343.585472 143.67515 
L 344.195419 119.25331 
L 344.805366 182.372682 
L 345.415313 135.731274 
L 346.02526 44.496633 
L 346.635207 167.153443 
L 347.245155 130.376079 
L 347.855102 163.754522 
L 348.465049 190.450769 
L 349.074996 52.301892 
L 349.684943 150.3245 
L 349.684943 150.3245 
" style="fill:none;stroke:#1f77b4;stroke-linecap:square;stroke-width:1.5;"/>
   </g>
   <g id="patch_3">
    <path d="M 30.103125 224.64 
L 30.103125 7.2 
" style="fill:none;stroke:#000000;stroke-linecap:square;stroke-linejoin:miter;stroke-width:0.8;"/>
   </g>
   <g id="patch_4">
    <path d="M 364.903125 224.64 
L 364.903125 7.2 
" style="fill:none;stroke:#000000;stroke-linecap:square;stroke-linejoin:miter;stroke-width:0.8;"/>
   </g>
   <g id="patch_5">
    <path d="M 30.103125 224.64 
L 364.903125 224.64 
" style="fill:none;stroke:#000000;stroke-linecap:square;stroke-linejoin:miter;stroke-width:0.8;"/>
   </g>
   <g id="patch_6">
    <path d="M 30.103125 7.2 
L 364.903125 7.2 
" style="fill:none;stroke:#000000;stroke-linecap:square;stroke-linejoin:miter;stroke-width:0.8;"/>
   </g>
  </g>
 </g>
 <defs>
  <clipPath id="p9ecd7019dd">
   <rect height="217.44" width="334.8" x="30.103125" y="7.2"/>
  </clipPath>
 </defs>
</svg>
