<?xml version="1.0" encoding="utf-8" standalone="no"?>
<!DOCTYPE svg PUBLIC "-//W3C//DTD SVG 1.1//EN"
  "http://www.w3.org/Graphics/SVG/1.1/DTD/svg11.dtd">
<!-- Created with matplotlib (https://matplotlib.org/) -->
<svg height="277.314375pt" version="1.1" viewBox="0 0 385.78125 277.314375" width="385.78125pt" xmlns="http://www.w3.org/2000/svg" xmlns:xlink="http://www.w3.org/1999/xlink">
 <defs>
  <style type="text/css">
*{stroke-linecap:butt;stroke-linejoin:round;}
  </style>
 </defs>
 <g id="figure_1">
  <g id="patch_1">
   <path d="M 0 277.314375 
L 385.78125 277.314375 
L 385.78125 0 
L 0 0 
z
" style="fill:none;"/>
  </g>
  <g id="axes_1">
   <g id="patch_2">
    <path d="M 43.78125 239.758125 
L 378.58125 239.758125 
L 378.58125 22.318125 
L 43.78125 22.318125 
z
" style="fill:#ffffff;"/>
   </g>
   <g id="matplotlib.axis_1">
    <g id="xtick_1">
     <g id="line2d_1">
      <defs>
       <path d="M 0 0 
L 0 3.5 
" id="mc76bda6ab2" style="stroke:#000000;stroke-width:0.8;"/>
      </defs>
      <g>
       <use style="stroke:#000000;stroke-width:0.8;" x="58.999432" xlink:href="#mc76bda6ab2" y="239.758125"/>
      </g>
     </g>
     <g id="text_1">
      <!-- 0 -->
      <defs>
       <path d="M 31.78125 66.40625 
Q 24.171875 66.40625 20.328125 58.90625 
Q 16.5 51.421875 16.5 36.375 
Q 16.5 21.390625 20.328125 13.890625 
Q 24.171875 6.390625 31.78125 6.390625 
Q 39.453125 6.390625 43.28125 13.890625 
Q 47.125 21.390625 47.125 36.375 
Q 47.125 51.421875 43.28125 58.90625 
Q 39.453125 66.40625 31.78125 66.40625 
z
M 31.78125 74.21875 
Q 44.046875 74.21875 50.515625 64.515625 
Q 56.984375 54.828125 56.984375 36.375 
Q 56.984375 17.96875 50.515625 8.265625 
Q 44.046875 -1.421875 31.78125 -1.421875 
Q 19.53125 -1.421875 13.0625 8.265625 
Q 6.59375 17.96875 6.59375 36.375 
Q 6.59375 54.828125 13.0625 64.515625 
Q 19.53125 74.21875 31.78125 74.21875 
z
" id="DejaVuSans-48"/>
      </defs>
      <g transform="translate(55.818182 254.356562)scale(0.1 -0.1)">
       <use xlink:href="#DejaVuSans-48"/>
      </g>
     </g>
    </g>
    <g id="xtick_2">
     <g id="line2d_2">
      <g>
       <use style="stroke:#000000;stroke-width:0.8;" x="109.896361" xlink:href="#mc76bda6ab2" y="239.758125"/>
      </g>
     </g>
     <g id="text_2">
      <!-- 500 -->
      <defs>
       <path d="M 10.796875 72.90625 
L 49.515625 72.90625 
L 49.515625 64.59375 
L 19.828125 64.59375 
L 19.828125 46.734375 
Q 21.96875 47.46875 24.109375 47.828125 
Q 26.265625 48.1875 28.421875 48.1875 
Q 40.625 48.1875 47.75 41.5 
Q 54.890625 34.8125 54.890625 23.390625 
Q 54.890625 11.625 47.5625 5.09375 
Q 40.234375 -1.421875 26.90625 -1.421875 
Q 22.3125 -1.421875 17.546875 -0.640625 
Q 12.796875 0.140625 7.71875 1.703125 
L 7.71875 11.625 
Q 12.109375 9.234375 16.796875 8.0625 
Q 21.484375 6.890625 26.703125 6.890625 
Q 35.15625 6.890625 40.078125 11.328125 
Q 45.015625 15.765625 45.015625 23.390625 
Q 45.015625 31 40.078125 35.4375 
Q 35.15625 39.890625 26.703125 39.890625 
Q 22.75 39.890625 18.8125 39.015625 
Q 14.890625 38.140625 10.796875 36.28125 
z
" id="DejaVuSans-53"/>
      </defs>
      <g transform="translate(100.352611 254.356562)scale(0.1 -0.1)">
       <use xlink:href="#DejaVuSans-53"/>
       <use x="63.623047" xlink:href="#DejaVuSans-48"/>
       <use x="127.246094" xlink:href="#DejaVuSans-48"/>
      </g>
     </g>
    </g>
    <g id="xtick_3">
     <g id="line2d_3">
      <g>
       <use style="stroke:#000000;stroke-width:0.8;" x="160.79329" xlink:href="#mc76bda6ab2" y="239.758125"/>
      </g>
     </g>
     <g id="text_3">
      <!-- 1000 -->
      <defs>
       <path d="M 12.40625 8.296875 
L 28.515625 8.296875 
L 28.515625 63.921875 
L 10.984375 60.40625 
L 10.984375 69.390625 
L 28.421875 72.90625 
L 38.28125 72.90625 
L 38.28125 8.296875 
L 54.390625 8.296875 
L 54.390625 0 
L 12.40625 0 
z
" id="DejaVuSans-49"/>
      </defs>
      <g transform="translate(148.06829 254.356562)scale(0.1 -0.1)">
       <use xlink:href="#DejaVuSans-49"/>
       <use x="63.623047" xlink:href="#DejaVuSans-48"/>
       <use x="127.246094" xlink:href="#DejaVuSans-48"/>
       <use x="190.869141" xlink:href="#DejaVuSans-48"/>
      </g>
     </g>
    </g>
    <g id="xtick_4">
     <g id="line2d_4">
      <g>
       <use style="stroke:#000000;stroke-width:0.8;" x="211.690219" xlink:href="#mc76bda6ab2" y="239.758125"/>
      </g>
     </g>
     <g id="text_4">
      <!-- 1500 -->
      <g transform="translate(198.965219 254.356562)scale(0.1 -0.1)">
       <use xlink:href="#DejaVuSans-49"/>
       <use x="63.623047" xlink:href="#DejaVuSans-53"/>
       <use x="127.246094" xlink:href="#DejaVuSans-48"/>
       <use x="190.869141" xlink:href="#DejaVuSans-48"/>
      </g>
     </g>
    </g>
    <g id="xtick_5">
     <g id="line2d_5">
      <g>
       <use style="stroke:#000000;stroke-width:0.8;" x="262.587148" xlink:href="#mc76bda6ab2" y="239.758125"/>
      </g>
     </g>
     <g id="text_5">
      <!-- 2000 -->
      <defs>
       <path d="M 19.1875 8.296875 
L 53.609375 8.296875 
L 53.609375 0 
L 7.328125 0 
L 7.328125 8.296875 
Q 12.9375 14.109375 22.625 23.890625 
Q 32.328125 33.6875 34.8125 36.53125 
Q 39.546875 41.84375 41.421875 45.53125 
Q 43.3125 49.21875 43.3125 52.78125 
Q 43.3125 58.59375 39.234375 62.25 
Q 35.15625 65.921875 28.609375 65.921875 
Q 23.96875 65.921875 18.8125 64.3125 
Q 13.671875 62.703125 7.8125 59.421875 
L 7.8125 69.390625 
Q 13.765625 71.78125 18.9375 73 
Q 24.125 74.21875 28.421875 74.21875 
Q 39.75 74.21875 46.484375 68.546875 
Q 53.21875 62.890625 53.21875 53.421875 
Q 53.21875 48.921875 51.53125 44.890625 
Q 49.859375 40.875 45.40625 35.40625 
Q 44.1875 33.984375 37.640625 27.21875 
Q 31.109375 20.453125 19.1875 8.296875 
z
" id="DejaVuSans-50"/>
      </defs>
      <g transform="translate(249.862148 254.356562)scale(0.1 -0.1)">
       <use xlink:href="#DejaVuSans-50"/>
       <use x="63.623047" xlink:href="#DejaVuSans-48"/>
       <use x="127.246094" xlink:href="#DejaVuSans-48"/>
       <use x="190.869141" xlink:href="#DejaVuSans-48"/>
      </g>
     </g>
    </g>
    <g id="xtick_6">
     <g id="line2d_6">
      <g>
       <use style="stroke:#000000;stroke-width:0.8;" x="313.484078" xlink:href="#mc76bda6ab2" y="239.758125"/>
      </g>
     </g>
     <g id="text_6">
      <!-- 2500 -->
      <g transform="translate(300.759078 254.356562)scale(0.1 -0.1)">
       <use xlink:href="#DejaVuSans-50"/>
       <use x="63.623047" xlink:href="#DejaVuSans-53"/>
       <use x="127.246094" xlink:href="#DejaVuSans-48"/>
       <use x="190.869141" xlink:href="#DejaVuSans-48"/>
      </g>
     </g>
    </g>
    <g id="xtick_7">
     <g id="line2d_7">
      <g>
       <use style="stroke:#000000;stroke-width:0.8;" x="364.381007" xlink:href="#mc76bda6ab2" y="239.758125"/>
      </g>
     </g>
     <g id="text_7">
      <!-- 3000 -->
      <defs>
       <path d="M 40.578125 39.3125 
Q 47.65625 37.796875 51.625 33 
Q 55.609375 28.21875 55.609375 21.1875 
Q 55.609375 10.40625 48.1875 4.484375 
Q 40.765625 -1.421875 27.09375 -1.421875 
Q 22.515625 -1.421875 17.65625 -0.515625 
Q 12.796875 0.390625 7.625 2.203125 
L 7.625 11.71875 
Q 11.71875 9.328125 16.59375 8.109375 
Q 21.484375 6.890625 26.8125 6.890625 
Q 36.078125 6.890625 40.9375 10.546875 
Q 45.796875 14.203125 45.796875 21.1875 
Q 45.796875 27.640625 41.28125 31.265625 
Q 36.765625 34.90625 28.71875 34.90625 
L 20.21875 34.90625 
L 20.21875 43.015625 
L 29.109375 43.015625 
Q 36.375 43.015625 40.234375 45.921875 
Q 44.09375 48.828125 44.09375 54.296875 
Q 44.09375 59.90625 40.109375 62.90625 
Q 36.140625 65.921875 28.71875 65.921875 
Q 24.65625 65.921875 20.015625 65.03125 
Q 15.375 64.15625 9.8125 62.3125 
L 9.8125 71.09375 
Q 15.4375 72.65625 20.34375 73.4375 
Q 25.25 74.21875 29.59375 74.21875 
Q 40.828125 74.21875 47.359375 69.109375 
Q 53.90625 64.015625 53.90625 55.328125 
Q 53.90625 49.265625 50.4375 45.09375 
Q 46.96875 40.921875 40.578125 39.3125 
z
" id="DejaVuSans-51"/>
      </defs>
      <g transform="translate(351.656007 254.356562)scale(0.1 -0.1)">
       <use xlink:href="#DejaVuSans-51"/>
       <use x="63.623047" xlink:href="#DejaVuSans-48"/>
       <use x="127.246094" xlink:href="#DejaVuSans-48"/>
       <use x="190.869141" xlink:href="#DejaVuSans-48"/>
      </g>
     </g>
    </g>
    <g id="text_8">
     <!-- count -->
     <defs>
      <path d="M 48.78125 52.59375 
L 48.78125 44.1875 
Q 44.96875 46.296875 41.140625 47.34375 
Q 37.3125 48.390625 33.40625 48.390625 
Q 24.65625 48.390625 19.8125 42.84375 
Q 14.984375 37.3125 14.984375 27.296875 
Q 14.984375 17.28125 19.8125 11.734375 
Q 24.65625 6.203125 33.40625 6.203125 
Q 37.3125 6.203125 41.140625 7.25 
Q 44.96875 8.296875 48.78125 10.40625 
L 48.78125 2.09375 
Q 45.015625 0.34375 40.984375 -0.53125 
Q 36.96875 -1.421875 32.421875 -1.421875 
Q 20.0625 -1.421875 12.78125 6.34375 
Q 5.515625 14.109375 5.515625 27.296875 
Q 5.515625 40.671875 12.859375 48.328125 
Q 20.21875 56 33.015625 56 
Q 37.15625 56 41.109375 55.140625 
Q 45.0625 54.296875 48.78125 52.59375 
z
" id="DejaVuSans-99"/>
      <path d="M 30.609375 48.390625 
Q 23.390625 48.390625 19.1875 42.75 
Q 14.984375 37.109375 14.984375 27.296875 
Q 14.984375 17.484375 19.15625 11.84375 
Q 23.34375 6.203125 30.609375 6.203125 
Q 37.796875 6.203125 41.984375 11.859375 
Q 46.1875 17.53125 46.1875 27.296875 
Q 46.1875 37.015625 41.984375 42.703125 
Q 37.796875 48.390625 30.609375 48.390625 
z
M 30.609375 56 
Q 42.328125 56 49.015625 48.375 
Q 55.71875 40.765625 55.71875 27.296875 
Q 55.71875 13.875 49.015625 6.21875 
Q 42.328125 -1.421875 30.609375 -1.421875 
Q 18.84375 -1.421875 12.171875 6.21875 
Q 5.515625 13.875 5.515625 27.296875 
Q 5.515625 40.765625 12.171875 48.375 
Q 18.84375 56 30.609375 56 
z
" id="DejaVuSans-111"/>
      <path d="M 8.5 21.578125 
L 8.5 54.6875 
L 17.484375 54.6875 
L 17.484375 21.921875 
Q 17.484375 14.15625 20.5 10.265625 
Q 23.53125 6.390625 29.59375 6.390625 
Q 36.859375 6.390625 41.078125 11.03125 
Q 45.3125 15.671875 45.3125 23.6875 
L 45.3125 54.6875 
L 54.296875 54.6875 
L 54.296875 0 
L 45.3125 0 
L 45.3125 8.40625 
Q 42.046875 3.421875 37.71875 1 
Q 33.40625 -1.421875 27.6875 -1.421875 
Q 18.265625 -1.421875 13.375 4.4375 
Q 8.5 10.296875 8.5 21.578125 
z
M 31.109375 56 
z
" id="DejaVuSans-117"/>
      <path d="M 54.890625 33.015625 
L 54.890625 0 
L 45.90625 0 
L 45.90625 32.71875 
Q 45.90625 40.484375 42.875 44.328125 
Q 39.84375 48.1875 33.796875 48.1875 
Q 26.515625 48.1875 22.3125 43.546875 
Q 18.109375 38.921875 18.109375 30.90625 
L 18.109375 0 
L 9.078125 0 
L 9.078125 54.6875 
L 18.109375 54.6875 
L 18.109375 46.1875 
Q 21.34375 51.125 25.703125 53.5625 
Q 30.078125 56 35.796875 56 
Q 45.21875 56 50.046875 50.171875 
Q 54.890625 44.34375 54.890625 33.015625 
z
" id="DejaVuSans-110"/>
      <path d="M 18.3125 70.21875 
L 18.3125 54.6875 
L 36.8125 54.6875 
L 36.8125 47.703125 
L 18.3125 47.703125 
L 18.3125 18.015625 
Q 18.3125 11.328125 20.140625 9.421875 
Q 21.96875 7.515625 27.59375 7.515625 
L 36.8125 7.515625 
L 36.8125 0 
L 27.59375 0 
Q 17.1875 0 13.234375 3.875 
Q 9.28125 7.765625 9.28125 18.015625 
L 9.28125 47.703125 
L 2.6875 47.703125 
L 2.6875 54.6875 
L 9.28125 54.6875 
L 9.28125 70.21875 
z
" id="DejaVuSans-116"/>
     </defs>
     <g transform="translate(197.075 268.034687)scale(0.1 -0.1)">
      <use xlink:href="#DejaVuSans-99"/>
      <use x="54.980469" xlink:href="#DejaVuSans-111"/>
      <use x="116.162109" xlink:href="#DejaVuSans-117"/>
      <use x="179.541016" xlink:href="#DejaVuSans-110"/>
      <use x="242.919922" xlink:href="#DejaVuSans-116"/>
     </g>
    </g>
   </g>
   <g id="matplotlib.axis_2">
    <g id="ytick_1">
     <g id="line2d_8">
      <defs>
       <path d="M 0 0 
L -3.5 0 
" id="mf20d2b8c00" style="stroke:#000000;stroke-width:0.8;"/>
      </defs>
      <g>
       <use style="stroke:#000000;stroke-width:0.8;" x="43.78125" xlink:href="#mf20d2b8c00" y="239.758125"/>
      </g>
     </g>
     <g id="text_9">
      <!-- 0.0 -->
      <defs>
       <path d="M 10.6875 12.40625 
L 21 12.40625 
L 21 0 
L 10.6875 0 
z
" id="DejaVuSans-46"/>
      </defs>
      <g transform="translate(20.878125 243.557344)scale(0.1 -0.1)">
       <use xlink:href="#DejaVuSans-48"/>
       <use x="63.623047" xlink:href="#DejaVuSans-46"/>
       <use x="95.410156" xlink:href="#DejaVuSans-48"/>
      </g>
     </g>
    </g>
    <g id="ytick_2">
     <g id="line2d_9">
      <g>
       <use style="stroke:#000000;stroke-width:0.8;" x="43.78125" xlink:href="#mf20d2b8c00" y="196.270125"/>
      </g>
     </g>
     <g id="text_10">
      <!-- 0.2 -->
      <g transform="translate(20.878125 200.069344)scale(0.1 -0.1)">
       <use xlink:href="#DejaVuSans-48"/>
       <use x="63.623047" xlink:href="#DejaVuSans-46"/>
       <use x="95.410156" xlink:href="#DejaVuSans-50"/>
      </g>
     </g>
    </g>
    <g id="ytick_3">
     <g id="line2d_10">
      <g>
       <use style="stroke:#000000;stroke-width:0.8;" x="43.78125" xlink:href="#mf20d2b8c00" y="152.782125"/>
      </g>
     </g>
     <g id="text_11">
      <!-- 0.4 -->
      <defs>
       <path d="M 37.796875 64.3125 
L 12.890625 25.390625 
L 37.796875 25.390625 
z
M 35.203125 72.90625 
L 47.609375 72.90625 
L 47.609375 25.390625 
L 58.015625 25.390625 
L 58.015625 17.1875 
L 47.609375 17.1875 
L 47.609375 0 
L 37.796875 0 
L 37.796875 17.1875 
L 4.890625 17.1875 
L 4.890625 26.703125 
z
" id="DejaVuSans-52"/>
      </defs>
      <g transform="translate(20.878125 156.581344)scale(0.1 -0.1)">
       <use xlink:href="#DejaVuSans-48"/>
       <use x="63.623047" xlink:href="#DejaVuSans-46"/>
       <use x="95.410156" xlink:href="#DejaVuSans-52"/>
      </g>
     </g>
    </g>
    <g id="ytick_4">
     <g id="line2d_11">
      <g>
       <use style="stroke:#000000;stroke-width:0.8;" x="43.78125" xlink:href="#mf20d2b8c00" y="109.294125"/>
      </g>
     </g>
     <g id="text_12">
      <!-- 0.6 -->
      <defs>
       <path d="M 33.015625 40.375 
Q 26.375 40.375 22.484375 35.828125 
Q 18.609375 31.296875 18.609375 23.390625 
Q 18.609375 15.53125 22.484375 10.953125 
Q 26.375 6.390625 33.015625 6.390625 
Q 39.65625 6.390625 43.53125 10.953125 
Q 47.40625 15.53125 47.40625 23.390625 
Q 47.40625 31.296875 43.53125 35.828125 
Q 39.65625 40.375 33.015625 40.375 
z
M 52.59375 71.296875 
L 52.59375 62.3125 
Q 48.875 64.0625 45.09375 64.984375 
Q 41.3125 65.921875 37.59375 65.921875 
Q 27.828125 65.921875 22.671875 59.328125 
Q 17.53125 52.734375 16.796875 39.40625 
Q 19.671875 43.65625 24.015625 45.921875 
Q 28.375 48.1875 33.59375 48.1875 
Q 44.578125 48.1875 50.953125 41.515625 
Q 57.328125 34.859375 57.328125 23.390625 
Q 57.328125 12.15625 50.6875 5.359375 
Q 44.046875 -1.421875 33.015625 -1.421875 
Q 20.359375 -1.421875 13.671875 8.265625 
Q 6.984375 17.96875 6.984375 36.375 
Q 6.984375 53.65625 15.1875 63.9375 
Q 23.390625 74.21875 37.203125 74.21875 
Q 40.921875 74.21875 44.703125 73.484375 
Q 48.484375 72.75 52.59375 71.296875 
z
" id="DejaVuSans-54"/>
      </defs>
      <g transform="translate(20.878125 113.093344)scale(0.1 -0.1)">
       <use xlink:href="#DejaVuSans-48"/>
       <use x="63.623047" xlink:href="#DejaVuSans-46"/>
       <use x="95.410156" xlink:href="#DejaVuSans-54"/>
      </g>
     </g>
    </g>
    <g id="ytick_5">
     <g id="line2d_12">
      <g>
       <use style="stroke:#000000;stroke-width:0.8;" x="43.78125" xlink:href="#mf20d2b8c00" y="65.806125"/>
      </g>
     </g>
     <g id="text_13">
      <!-- 0.8 -->
      <defs>
       <path d="M 31.78125 34.625 
Q 24.75 34.625 20.71875 30.859375 
Q 16.703125 27.09375 16.703125 20.515625 
Q 16.703125 13.921875 20.71875 10.15625 
Q 24.75 6.390625 31.78125 6.390625 
Q 38.8125 6.390625 42.859375 10.171875 
Q 46.921875 13.96875 46.921875 20.515625 
Q 46.921875 27.09375 42.890625 30.859375 
Q 38.875 34.625 31.78125 34.625 
z
M 21.921875 38.8125 
Q 15.578125 40.375 12.03125 44.71875 
Q 8.5 49.078125 8.5 55.328125 
Q 8.5 64.0625 14.71875 69.140625 
Q 20.953125 74.21875 31.78125 74.21875 
Q 42.671875 74.21875 48.875 69.140625 
Q 55.078125 64.0625 55.078125 55.328125 
Q 55.078125 49.078125 51.53125 44.71875 
Q 48 40.375 41.703125 38.8125 
Q 48.828125 37.15625 52.796875 32.3125 
Q 56.78125 27.484375 56.78125 20.515625 
Q 56.78125 9.90625 50.3125 4.234375 
Q 43.84375 -1.421875 31.78125 -1.421875 
Q 19.734375 -1.421875 13.25 4.234375 
Q 6.78125 9.90625 6.78125 20.515625 
Q 6.78125 27.484375 10.78125 32.3125 
Q 14.796875 37.15625 21.921875 38.8125 
z
M 18.3125 54.390625 
Q 18.3125 48.734375 21.84375 45.5625 
Q 25.390625 42.390625 31.78125 42.390625 
Q 38.140625 42.390625 41.71875 45.5625 
Q 45.3125 48.734375 45.3125 54.390625 
Q 45.3125 60.0625 41.71875 63.234375 
Q 38.140625 66.40625 31.78125 66.40625 
Q 25.390625 66.40625 21.84375 63.234375 
Q 18.3125 60.0625 18.3125 54.390625 
z
" id="DejaVuSans-56"/>
      </defs>
      <g transform="translate(20.878125 69.605344)scale(0.1 -0.1)">
       <use xlink:href="#DejaVuSans-48"/>
       <use x="63.623047" xlink:href="#DejaVuSans-46"/>
       <use x="95.410156" xlink:href="#DejaVuSans-56"/>
      </g>
     </g>
    </g>
    <g id="ytick_6">
     <g id="line2d_13">
      <g>
       <use style="stroke:#000000;stroke-width:0.8;" x="43.78125" xlink:href="#mf20d2b8c00" y="22.318125"/>
      </g>
     </g>
     <g id="text_14">
      <!-- 1.0 -->
      <g transform="translate(20.878125 26.117344)scale(0.1 -0.1)">
       <use xlink:href="#DejaVuSans-49"/>
       <use x="63.623047" xlink:href="#DejaVuSans-46"/>
       <use x="95.410156" xlink:href="#DejaVuSans-48"/>
      </g>
     </g>
    </g>
    <g id="text_15">
     <!-- accuracy -->
     <defs>
      <path d="M 34.28125 27.484375 
Q 23.390625 27.484375 19.1875 25 
Q 14.984375 22.515625 14.984375 16.5 
Q 14.984375 11.71875 18.140625 8.90625 
Q 21.296875 6.109375 26.703125 6.109375 
Q 34.1875 6.109375 38.703125 11.40625 
Q 43.21875 16.703125 43.21875 25.484375 
L 43.21875 27.484375 
z
M 52.203125 31.203125 
L 52.203125 0 
L 43.21875 0 
L 43.21875 8.296875 
Q 40.140625 3.328125 35.546875 0.953125 
Q 30.953125 -1.421875 24.3125 -1.421875 
Q 15.921875 -1.421875 10.953125 3.296875 
Q 6 8.015625 6 15.921875 
Q 6 25.140625 12.171875 29.828125 
Q 18.359375 34.515625 30.609375 34.515625 
L 43.21875 34.515625 
L 43.21875 35.40625 
Q 43.21875 41.609375 39.140625 45 
Q 35.0625 48.390625 27.6875 48.390625 
Q 23 48.390625 18.546875 47.265625 
Q 14.109375 46.140625 10.015625 43.890625 
L 10.015625 52.203125 
Q 14.9375 54.109375 19.578125 55.046875 
Q 24.21875 56 28.609375 56 
Q 40.484375 56 46.34375 49.84375 
Q 52.203125 43.703125 52.203125 31.203125 
z
" id="DejaVuSans-97"/>
      <path d="M 41.109375 46.296875 
Q 39.59375 47.171875 37.8125 47.578125 
Q 36.03125 48 33.890625 48 
Q 26.265625 48 22.1875 43.046875 
Q 18.109375 38.09375 18.109375 28.8125 
L 18.109375 0 
L 9.078125 0 
L 9.078125 54.6875 
L 18.109375 54.6875 
L 18.109375 46.1875 
Q 20.953125 51.171875 25.484375 53.578125 
Q 30.03125 56 36.53125 56 
Q 37.453125 56 38.578125 55.875 
Q 39.703125 55.765625 41.0625 55.515625 
z
" id="DejaVuSans-114"/>
      <path d="M 32.171875 -5.078125 
Q 28.375 -14.84375 24.75 -17.8125 
Q 21.140625 -20.796875 15.09375 -20.796875 
L 7.90625 -20.796875 
L 7.90625 -13.28125 
L 13.1875 -13.28125 
Q 16.890625 -13.28125 18.9375 -11.515625 
Q 21 -9.765625 23.484375 -3.21875 
L 25.09375 0.875 
L 2.984375 54.6875 
L 12.5 54.6875 
L 29.59375 11.921875 
L 46.6875 54.6875 
L 56.203125 54.6875 
z
" id="DejaVuSans-121"/>
     </defs>
     <g transform="translate(14.798438 153.5975)rotate(-90)scale(0.1 -0.1)">
      <use xlink:href="#DejaVuSans-97"/>
      <use x="61.279297" xlink:href="#DejaVuSans-99"/>
      <use x="116.259766" xlink:href="#DejaVuSans-99"/>
      <use x="171.240234" xlink:href="#DejaVuSans-117"/>
      <use x="234.619141" xlink:href="#DejaVuSans-114"/>
      <use x="275.732422" xlink:href="#DejaVuSans-97"/>
      <use x="337.011719" xlink:href="#DejaVuSans-99"/>
      <use x="391.992188" xlink:href="#DejaVuSans-121"/>
     </g>
    </g>
   </g>
   <g id="line2d_14">
    <path clip-path="url(#p901636d16d)" d="M 58.999432 220.188525 
L 60.01737 214.390125 
L 61.035309 212.215725 
L 62.053248 206.417325 
L 63.071186 199.894125 
L 64.089125 192.646125 
L 65.107063 190.471725 
L 66.125002 178.150125 
L 67.14294 170.177325 
L 68.160879 167.278125 
L 69.178818 167.278125 
L 70.196756 169.452525 
L 71.214695 165.828525 
L 72.232633 168.002925 
L 73.250572 167.278125 
L 74.268511 159.305325 
L 75.286449 159.305325 
L 77.322326 157.855725 
L 78.340265 152.782125 
L 79.358203 144.084525 
L 80.376142 142.634925 
L 81.394081 136.836525 
L 82.412019 136.111725 
L 84.447896 121.615725 
L 85.465835 110.018925 
L 86.483774 107.844525 
L 87.501712 104.945325 
L 88.519651 100.596525 
L 89.537589 94.798125 
L 90.555528 93.348525 
L 91.573466 88.274925 
L 92.591405 83.926125 
L 93.609344 89.724525 
L 94.627282 83.201325 
L 95.645221 84.650925 
L 96.663159 78.852525 
L 97.681098 74.503725 
L 98.699037 67.980525 
L 100.734914 66.530925 
L 101.752852 65.081325 
L 102.770791 67.980525 
L 103.788729 66.530925 
L 104.806668 64.356525 
L 105.824607 64.356525 
L 106.842545 62.182125 
L 107.860484 61.457325 
L 109.896361 57.108525 
L 110.9143 56.383725 
L 112.950177 52.034925 
L 114.986054 50.585325 
L 116.003992 53.484525 
L 118.03987 49.135725 
L 119.057808 49.135725 
L 120.075747 48.410925 
L 121.093685 46.961325 
L 122.111624 46.236525 
L 125.16544 46.236525 
L 126.183378 46.961325 
L 127.201317 45.511725 
L 128.219255 44.786925 
L 129.237194 44.786925 
L 130.255133 46.236525 
L 131.273071 44.786925 
L 132.29101 44.786925 
L 133.308948 43.337325 
L 134.326887 42.612525 
L 135.344826 42.612525 
L 136.362764 41.887725 
L 137.380703 43.337325 
L 138.398641 39.713325 
L 139.41658 41.162925 
L 140.434518 38.988525 
L 141.452457 39.713325 
L 142.470396 38.263725 
L 143.488334 38.263725 
L 144.506273 39.713325 
L 145.524211 38.263725 
L 147.560089 38.263725 
L 148.578027 36.814125 
L 150.613904 35.364525 
L 151.631843 36.814125 
L 153.66772 35.364525 
L 154.685659 36.089325 
L 156.721536 33.190125 
L 157.739474 32.465325 
L 158.757413 33.914925 
L 159.775352 33.190125 
L 160.79329 35.364525 
L 161.811229 33.190125 
L 163.847106 33.190125 
L 164.865044 32.465325 
L 165.882983 33.190125 
L 166.900922 33.190125 
L 167.91886 32.465325 
L 168.936799 33.190125 
L 169.954737 31.740525 
L 174.026492 31.740525 
L 175.04443 32.465325 
L 176.062369 32.465325 
L 177.080307 31.740525 
L 180.134123 31.740525 
L 181.152062 32.465325 
L 182.17 31.015725 
L 183.187939 31.740525 
L 185.223816 31.740525 
L 186.241755 32.465325 
L 187.259693 31.015725 
L 188.277632 31.740525 
L 189.29557 31.740525 
L 190.313509 31.015725 
L 191.331448 31.740525 
L 192.349386 30.290925 
L 193.367325 31.015725 
L 195.403202 29.566125 
L 196.421141 30.290925 
L 197.439079 29.566125 
L 198.457018 30.290925 
L 199.474956 29.566125 
L 200.492895 30.290925 
L 201.510833 28.841325 
L 202.528772 30.290925 
L 203.546711 29.566125 
L 204.564649 29.566125 
L 205.582588 30.290925 
L 206.600526 30.290925 
L 207.618465 31.015725 
L 208.636404 30.290925 
L 209.654342 30.290925 
L 210.672281 29.566125 
L 211.690219 31.015725 
L 212.708158 28.841325 
L 213.726096 29.566125 
L 214.744035 29.566125 
L 215.761974 28.841325 
L 216.779912 29.566125 
L 219.833728 27.391725 
L 220.851667 29.566125 
L 221.869605 31.015725 
L 222.887544 29.566125 
L 223.905482 28.841325 
L 224.923421 28.841325 
L 225.941359 30.290925 
L 226.959298 28.841325 
L 227.977237 30.290925 
L 228.995175 30.290925 
L 230.013114 29.566125 
L 231.031052 29.566125 
L 232.048991 28.116525 
L 233.06693 29.566125 
L 234.084868 29.566125 
L 235.102807 28.841325 
L 236.120745 29.566125 
L 237.138684 28.116525 
L 238.156622 28.841325 
L 241.210438 28.841325 
L 242.228377 29.566125 
L 243.246315 28.841325 
L 246.300131 28.841325 
L 247.31807 27.391725 
L 248.336008 28.116525 
L 249.353947 27.391725 
L 250.371885 28.116525 
L 252.407763 28.116525 
L 253.425701 28.841325 
L 254.44364 28.116525 
L 255.461578 28.841325 
L 256.479517 28.841325 
L 257.497456 28.116525 
L 258.515394 28.116525 
L 259.533333 28.841325 
L 260.551271 27.391725 
L 261.56921 28.116525 
L 262.587148 27.391725 
L 263.605087 28.841325 
L 265.640964 27.391725 
L 266.658903 28.116525 
L 267.676841 28.116525 
L 268.69478 27.391725 
L 269.712719 28.116525 
L 276.838289 28.116525 
L 278.874166 26.666925 
L 279.892104 26.666925 
L 281.927982 28.116525 
L 282.94592 26.666925 
L 283.963859 26.666925 
L 284.981797 25.942125 
L 285.999736 27.391725 
L 290.07149 27.391725 
L 291.089429 28.116525 
L 292.107367 28.116525 
L 293.125306 27.391725 
L 294.143245 27.391725 
L 295.161183 25.942125 
L 296.179122 28.116525 
L 297.19706 28.841325 
L 298.214999 27.391725 
L 301.268815 27.391725 
L 302.286753 26.666925 
L 303.304692 26.666925 
L 304.32263 27.391725 
L 305.340569 25.942125 
L 306.358508 26.666925 
L 307.376446 26.666925 
L 308.394385 28.116525 
L 309.412323 26.666925 
L 312.466139 26.666925 
L 313.484078 27.391725 
L 314.502016 25.942125 
L 315.519955 26.666925 
L 317.555832 26.666925 
L 318.573771 27.391725 
L 319.591709 26.666925 
L 320.609648 28.116525 
L 321.627586 28.116525 
L 323.663463 26.666925 
L 324.681402 27.391725 
L 325.699341 25.942125 
L 327.735218 27.391725 
L 329.771095 27.391725 
L 330.789034 26.666925 
L 333.842849 26.666925 
L 334.860788 25.942125 
L 335.878726 26.666925 
L 336.896665 25.942125 
L 337.914604 26.666925 
L 340.968419 26.666925 
L 341.986358 27.391725 
L 343.004297 25.942125 
L 344.022235 26.666925 
L 346.058112 26.666925 
L 347.076051 25.942125 
L 349.111928 27.391725 
L 350.129867 25.942125 
L 351.147805 25.942125 
L 352.165744 26.666925 
L 353.183682 25.942125 
L 354.201621 26.666925 
L 355.21956 26.666925 
L 356.237498 25.942125 
L 362.34513 25.942125 
L 363.363068 26.666925 
L 363.363068 26.666925 
" style="fill:none;stroke:#1f77b4;stroke-linecap:square;stroke-width:1.5;"/>
   </g>
   <g id="line2d_15">
    <path clip-path="url(#p901636d16d)" d="M 58.999432 217.644477 
L 60.01737 215.622285 
L 62.053248 210.142797 
L 63.071186 207.620493 
L 64.089125 203.032509 
L 65.107063 200.271021 
L 66.125002 194.530605 
L 67.14294 189.681693 
L 68.160879 186.724509 
L 69.178818 184.332669 
L 70.196756 183.571629 
L 71.214695 179.375037 
L 72.232633 181.027581 
L 74.268511 174.460893 
L 75.286449 172.199517 
L 76.304388 172.460445 
L 77.322326 171.199293 
L 78.340265 167.024445 
L 79.358203 159.066141 
L 80.376142 157.109181 
L 81.394081 153.608397 
L 82.412019 150.999117 
L 83.429958 144.671613 
L 84.447896 141.236061 
L 85.465835 133.451709 
L 86.483774 129.342093 
L 87.501712 130.494525 
L 88.519651 123.775629 
L 89.537589 118.143933 
L 90.555528 117.578589 
L 91.573466 113.338509 
L 92.591405 110.533533 
L 93.609344 113.969085 
L 94.627282 109.881213 
L 95.645221 109.902957 
L 97.681098 102.053373 
L 98.699037 98.987469 
L 99.716975 97.378413 
L 100.734914 97.791549 
L 101.752852 98.965725 
L 102.770791 98.182941 
L 103.788729 96.073773 
L 104.806668 94.616925 
L 105.824607 94.834365 
L 106.842545 93.399261 
L 107.860484 92.659965 
L 108.878422 90.637773 
L 110.9143 89.333133 
L 111.932238 87.789309 
L 112.950177 85.810605 
L 113.968115 85.832349 
L 114.986054 85.353981 
L 116.003992 85.180029 
L 117.021931 85.701885 
L 118.03987 83.679693 
L 119.057808 83.266557 
L 120.075747 83.614461 
L 121.093685 82.288077 
L 122.111624 81.679245 
L 123.129563 81.570525 
L 124.147501 81.722733 
L 125.16544 81.200877 
L 126.183378 80.461581 
L 127.201317 80.700765 
L 128.219255 79.700541 
L 130.255133 80.809485 
L 131.273071 79.809261 
L 132.29101 79.765773 
L 133.308948 80.374605 
L 134.326887 79.113453 
L 135.344826 78.308925 
L 136.362764 78.982989 
L 139.41658 76.895565 
L 140.434518 76.460685 
L 141.452457 77.765325 
L 142.470396 76.351965 
L 144.506273 76.417197 
L 145.524211 77.004285 
L 146.54215 76.221501 
L 147.560089 76.569405 
L 148.578027 76.069293 
L 149.595966 75.982317 
L 152.649781 76.243245 
L 153.66772 75.590925 
L 154.685659 75.460461 
L 155.703597 75.503949 
L 156.721536 75.286509 
L 157.739474 74.655933 
L 158.757413 75.069069 
L 159.775352 74.721165 
L 161.811229 75.743133 
L 162.829167 75.134301 
L 163.847106 75.634413 
L 164.865044 75.373485 
L 165.882983 74.286285 
L 166.900922 74.438493 
L 168.936799 74.438493 
L 169.954737 73.916637 
L 170.972676 74.090589 
L 171.990615 74.547213 
L 173.008553 73.286061 
L 174.026492 73.329549 
L 175.04443 73.916637 
L 176.062369 73.699197 
L 177.080307 73.286061 
L 178.098246 74.090589 
L 179.116185 73.307805 
L 181.152062 73.003389 
L 184.205878 73.938381 
L 185.223816 73.351293 
L 186.241755 73.286061 
L 187.259693 72.807693 
L 189.29557 72.764205 
L 190.313509 73.046877 
L 191.331448 72.959901 
L 192.349386 72.677229 
L 193.367325 73.481757 
L 194.385263 73.025133 
L 195.403202 72.416301 
L 196.421141 73.220829 
L 197.439079 72.590253 
L 198.457018 72.916413 
L 199.474956 73.764429 
L 200.492895 73.025133 
L 201.510833 72.068397 
L 202.528772 71.655261 
L 203.546711 71.677005 
L 204.564649 71.829213 
L 205.582588 72.611997 
L 206.600526 72.264093 
L 208.636404 72.111885 
L 209.654342 71.807469 
L 210.672281 72.198861 
L 211.690219 73.025133 
L 212.708158 72.198861 
L 213.726096 72.003165 
L 214.744035 72.677229 
L 215.761974 71.785725 
L 216.779912 72.590253 
L 217.797851 71.894445 
L 218.815789 72.220605 
L 219.833728 72.959901 
L 220.851667 71.742237 
L 221.869605 72.046653 
L 222.887544 73.025133 
L 223.905482 72.894669 
L 224.923421 72.894669 
L 225.941359 72.525021 
L 226.959298 72.525021 
L 227.977237 71.720493 
L 228.995175 72.481533 
L 230.013114 71.785725 
L 231.031052 72.220605 
L 232.048991 72.525021 
L 234.084868 72.198861 
L 235.102807 72.872925 
L 237.138684 72.807693 
L 238.156622 73.242573 
L 239.174561 71.916189 
L 240.1925 72.785949 
L 241.210438 72.720717 
L 242.228377 72.155373 
L 243.246315 72.198861 
L 244.264254 72.111885 
L 245.282193 73.220829 
L 246.300131 72.720717 
L 247.31807 72.938157 
L 248.336008 72.264093 
L 249.353947 72.068397 
L 250.371885 73.220829 
L 251.389824 72.285837 
L 252.407763 72.959901 
L 253.425701 73.177341 
L 254.44364 73.046877 
L 255.461578 73.155597 
L 256.479517 72.329325 
L 257.497456 72.764205 
L 258.515394 73.046877 
L 259.533333 73.873149 
L 260.551271 72.938157 
L 261.56921 72.894669 
L 262.587148 71.937933 
L 263.605087 73.916637 
L 264.623026 72.872925 
L 265.640964 72.329325 
L 266.658903 72.503277 
L 267.676841 72.416301 
L 269.712719 73.112109 
L 270.730657 73.199085 
L 271.748596 72.416301 
L 272.766534 73.242573 
L 273.784473 72.764205 
L 274.802411 72.720717 
L 275.82035 73.199085 
L 276.838289 73.046877 
L 277.856227 73.373037 
L 278.874166 73.046877 
L 279.892104 73.525245 
L 280.910043 72.872925 
L 281.927982 73.133853 
L 282.94592 73.177341 
L 283.963859 73.046877 
L 284.981797 73.307805 
L 285.999736 73.438269 
L 287.017674 73.177341 
L 288.035613 73.699197 
L 290.07149 72.611997 
L 291.089429 73.264317 
L 292.107367 74.221053 
L 295.161183 73.351293 
L 296.179122 73.590477 
L 297.19706 73.546989 
L 298.214999 74.025357 
L 300.250876 74.134077 
L 301.268815 73.133853 
L 302.286753 72.568509 
L 303.304692 72.981645 
L 304.32263 73.090365 
L 305.340569 73.068621 
L 306.358508 73.438269 
L 307.376446 73.264317 
L 308.394385 74.329773 
L 309.412323 74.264541 
L 310.430262 73.394781 
L 311.4482 74.047101 
L 312.466139 74.155821 
L 313.484078 73.177341 
L 314.502016 73.981869 
L 315.519955 74.308029 
L 316.537893 73.720941 
L 317.555832 73.612221 
L 318.573771 73.199085 
L 319.591709 72.611997 
L 320.609648 73.786173 
L 321.627586 74.525469 
L 322.645525 73.090365 
L 323.663463 73.503501 
L 324.681402 74.286285 
L 325.699341 73.329549 
L 327.735218 73.307805 
L 328.753156 74.177565 
L 329.771095 73.786173 
L 330.789034 74.155821 
L 331.806972 74.329773 
L 332.824911 75.069069 
L 333.842849 74.047101 
L 334.860788 73.307805 
L 335.878726 73.894893 
L 336.896665 73.894893 
L 337.914604 73.612221 
L 338.932542 73.046877 
L 339.950481 73.264317 
L 340.968419 73.090365 
L 341.986358 73.068621 
L 343.004297 74.155821 
L 344.022235 73.568733 
L 345.040174 73.655709 
L 346.058112 74.090589 
L 347.076051 74.677677 
L 348.093989 73.764429 
L 349.111928 74.090589 
L 350.129867 73.699197 
L 351.147805 74.286285 
L 352.165744 73.307805 
L 355.21956 73.829661 
L 357.255437 74.438493 
L 358.273375 73.851405 
L 359.291314 74.829885 
L 360.309252 73.481757 
L 361.327191 74.112333 
L 362.34513 74.068845 
L 363.363068 73.873149 
L 363.363068 73.873149 
" style="fill:none;stroke:#ff7f0e;stroke-linecap:square;stroke-width:1.5;"/>
   </g>
   <g id="patch_3">
    <path d="M 43.78125 239.758125 
L 43.78125 22.318125 
" style="fill:none;stroke:#000000;stroke-linecap:square;stroke-linejoin:miter;stroke-width:0.8;"/>
   </g>
   <g id="patch_4">
    <path d="M 378.58125 239.758125 
L 378.58125 22.318125 
" style="fill:none;stroke:#000000;stroke-linecap:square;stroke-linejoin:miter;stroke-width:0.8;"/>
   </g>
   <g id="patch_5">
    <path d="M 43.78125 239.758125 
L 378.58125 239.758125 
" style="fill:none;stroke:#000000;stroke-linecap:square;stroke-linejoin:miter;stroke-width:0.8;"/>
   </g>
   <g id="patch_6">
    <path d="M 43.78125 22.318125 
L 378.58125 22.318125 
" style="fill:none;stroke:#000000;stroke-linecap:square;stroke-linejoin:miter;stroke-width:0.8;"/>
   </g>
   <g id="text_16">
    <!-- accuracy -->
    <g transform="translate(184.11 16.318125)scale(0.12 -0.12)">
     <use xlink:href="#DejaVuSans-97"/>
     <use x="61.279297" xlink:href="#DejaVuSans-99"/>
     <use x="116.259766" xlink:href="#DejaVuSans-99"/>
     <use x="171.240234" xlink:href="#DejaVuSans-117"/>
     <use x="234.619141" xlink:href="#DejaVuSans-114"/>
     <use x="275.732422" xlink:href="#DejaVuSans-97"/>
     <use x="337.011719" xlink:href="#DejaVuSans-99"/>
     <use x="391.992188" xlink:href="#DejaVuSans-121"/>
    </g>
   </g>
   <g id="legend_1">
    <g id="patch_7">
     <path d="M 282.38125 234.758125 
L 371.58125 234.758125 
Q 373.58125 234.758125 373.58125 232.758125 
L 373.58125 204.401875 
Q 373.58125 202.401875 371.58125 202.401875 
L 282.38125 202.401875 
Q 280.38125 202.401875 280.38125 204.401875 
L 280.38125 232.758125 
Q 280.38125 234.758125 282.38125 234.758125 
z
" style="fill:#ffffff;opacity:0.8;stroke:#cccccc;stroke-linejoin:miter;"/>
    </g>
    <g id="line2d_16">
     <path d="M 284.38125 210.500312 
L 304.38125 210.500312 
" style="fill:none;stroke:#1f77b4;stroke-linecap:square;stroke-width:1.5;"/>
    </g>
    <g id="line2d_17"/>
    <g id="text_17">
     <!-- training set -->
     <defs>
      <path d="M 9.421875 54.6875 
L 18.40625 54.6875 
L 18.40625 0 
L 9.421875 0 
z
M 9.421875 75.984375 
L 18.40625 75.984375 
L 18.40625 64.59375 
L 9.421875 64.59375 
z
" id="DejaVuSans-105"/>
      <path d="M 45.40625 27.984375 
Q 45.40625 37.75 41.375 43.109375 
Q 37.359375 48.484375 30.078125 48.484375 
Q 22.859375 48.484375 18.828125 43.109375 
Q 14.796875 37.75 14.796875 27.984375 
Q 14.796875 18.265625 18.828125 12.890625 
Q 22.859375 7.515625 30.078125 7.515625 
Q 37.359375 7.515625 41.375 12.890625 
Q 45.40625 18.265625 45.40625 27.984375 
z
M 54.390625 6.78125 
Q 54.390625 -7.171875 48.1875 -13.984375 
Q 42 -20.796875 29.203125 -20.796875 
Q 24.46875 -20.796875 20.265625 -20.09375 
Q 16.0625 -19.390625 12.109375 -17.921875 
L 12.109375 -9.1875 
Q 16.0625 -11.328125 19.921875 -12.34375 
Q 23.78125 -13.375 27.78125 -13.375 
Q 36.625 -13.375 41.015625 -8.765625 
Q 45.40625 -4.15625 45.40625 5.171875 
L 45.40625 9.625 
Q 42.625 4.78125 38.28125 2.390625 
Q 33.9375 0 27.875 0 
Q 17.828125 0 11.671875 7.65625 
Q 5.515625 15.328125 5.515625 27.984375 
Q 5.515625 40.671875 11.671875 48.328125 
Q 17.828125 56 27.875 56 
Q 33.9375 56 38.28125 53.609375 
Q 42.625 51.21875 45.40625 46.390625 
L 45.40625 54.6875 
L 54.390625 54.6875 
z
" id="DejaVuSans-103"/>
      <path id="DejaVuSans-32"/>
      <path d="M 44.28125 53.078125 
L 44.28125 44.578125 
Q 40.484375 46.53125 36.375 47.5 
Q 32.28125 48.484375 27.875 48.484375 
Q 21.1875 48.484375 17.84375 46.4375 
Q 14.5 44.390625 14.5 40.28125 
Q 14.5 37.15625 16.890625 35.375 
Q 19.28125 33.59375 26.515625 31.984375 
L 29.59375 31.296875 
Q 39.15625 29.25 43.1875 25.515625 
Q 47.21875 21.78125 47.21875 15.09375 
Q 47.21875 7.46875 41.1875 3.015625 
Q 35.15625 -1.421875 24.609375 -1.421875 
Q 20.21875 -1.421875 15.453125 -0.5625 
Q 10.6875 0.296875 5.421875 2 
L 5.421875 11.28125 
Q 10.40625 8.6875 15.234375 7.390625 
Q 20.0625 6.109375 24.8125 6.109375 
Q 31.15625 6.109375 34.5625 8.28125 
Q 37.984375 10.453125 37.984375 14.40625 
Q 37.984375 18.0625 35.515625 20.015625 
Q 33.0625 21.96875 24.703125 23.78125 
L 21.578125 24.515625 
Q 13.234375 26.265625 9.515625 29.90625 
Q 5.8125 33.546875 5.8125 39.890625 
Q 5.8125 47.609375 11.28125 51.796875 
Q 16.75 56 26.8125 56 
Q 31.78125 56 36.171875 55.265625 
Q 40.578125 54.546875 44.28125 53.078125 
z
" id="DejaVuSans-115"/>
      <path d="M 56.203125 29.59375 
L 56.203125 25.203125 
L 14.890625 25.203125 
Q 15.484375 15.921875 20.484375 11.0625 
Q 25.484375 6.203125 34.421875 6.203125 
Q 39.59375 6.203125 44.453125 7.46875 
Q 49.3125 8.734375 54.109375 11.28125 
L 54.109375 2.78125 
Q 49.265625 0.734375 44.1875 -0.34375 
Q 39.109375 -1.421875 33.890625 -1.421875 
Q 20.796875 -1.421875 13.15625 6.1875 
Q 5.515625 13.8125 5.515625 26.8125 
Q 5.515625 40.234375 12.765625 48.109375 
Q 20.015625 56 32.328125 56 
Q 43.359375 56 49.78125 48.890625 
Q 56.203125 41.796875 56.203125 29.59375 
z
M 47.21875 32.234375 
Q 47.125 39.59375 43.09375 43.984375 
Q 39.0625 48.390625 32.421875 48.390625 
Q 24.90625 48.390625 20.390625 44.140625 
Q 15.875 39.890625 15.1875 32.171875 
z
" id="DejaVuSans-101"/>
     </defs>
     <g transform="translate(312.38125 214.000312)scale(0.1 -0.1)">
      <use xlink:href="#DejaVuSans-116"/>
      <use x="39.208984" xlink:href="#DejaVuSans-114"/>
      <use x="80.322266" xlink:href="#DejaVuSans-97"/>
      <use x="141.601562" xlink:href="#DejaVuSans-105"/>
      <use x="169.384766" xlink:href="#DejaVuSans-110"/>
      <use x="232.763672" xlink:href="#DejaVuSans-105"/>
      <use x="260.546875" xlink:href="#DejaVuSans-110"/>
      <use x="323.925781" xlink:href="#DejaVuSans-103"/>
      <use x="387.402344" xlink:href="#DejaVuSans-32"/>
      <use x="419.189453" xlink:href="#DejaVuSans-115"/>
      <use x="471.289062" xlink:href="#DejaVuSans-101"/>
      <use x="532.8125" xlink:href="#DejaVuSans-116"/>
     </g>
    </g>
    <g id="line2d_18">
     <path d="M 284.38125 225.178437 
L 304.38125 225.178437 
" style="fill:none;stroke:#ff7f0e;stroke-linecap:square;stroke-width:1.5;"/>
    </g>
    <g id="line2d_19"/>
    <g id="text_18">
     <!-- test set -->
     <g transform="translate(312.38125 228.678437)scale(0.1 -0.1)">
      <use xlink:href="#DejaVuSans-116"/>
      <use x="39.208984" xlink:href="#DejaVuSans-101"/>
      <use x="100.732422" xlink:href="#DejaVuSans-115"/>
      <use x="152.832031" xlink:href="#DejaVuSans-116"/>
      <use x="192.041016" xlink:href="#DejaVuSans-32"/>
      <use x="223.828125" xlink:href="#DejaVuSans-115"/>
      <use x="275.927734" xlink:href="#DejaVuSans-101"/>
      <use x="337.451172" xlink:href="#DejaVuSans-116"/>
     </g>
    </g>
   </g>
  </g>
 </g>
 <defs>
  <clipPath id="p901636d16d">
   <rect height="217.44" width="334.8" x="43.78125" y="22.318125"/>
  </clipPath>
 </defs>
</svg>
