<?xml version="1.0" encoding="utf-8" standalone="no"?>
<!DOCTYPE svg PUBLIC "-//W3C//DTD SVG 1.1//EN"
  "http://www.w3.org/Graphics/SVG/1.1/DTD/svg11.dtd">
<svg height="277.314375pt" version="1.1" viewBox="0 0 385.78125 277.314375" width="385.78125pt" xmlns="http://www.w3.org/2000/svg" xmlns:xlink="http://www.w3.org/1999/xlink">
 <metadata>
  <rdf:RDF xmlns:cc="http://creativecommons.org/ns#" xmlns:dc="http://purl.org/dc/elements/1.1/" xmlns:rdf="http://www.w3.org/1999/02/22-rdf-syntax-ns#">
   <cc:Work>
    <dc:type rdf:resource="http://purl.org/dc/dcmitype/StillImage"/>
    <dc:date>2021-05-22T23:56:32.047847</dc:date>
    <dc:format>image/svg+xml</dc:format>
    <dc:creator>
     <cc:Agent>
      <dc:title>Matplotlib v3.4.1, https://matplotlib.org/</dc:title>
     </cc:Agent>
    </dc:creator>
   </cc:Work>
  </rdf:RDF>
 </metadata>
 <defs>
  <style type="text/css">*{stroke-linecap:butt;stroke-linejoin:round;}</style>
 </defs>
 <g id="figure_1">
  <g id="patch_1">
   <path d="M 0 277.314375 
L 385.78125 277.314375 
L 385.78125 0 
L 0 0 
z
" style="fill:none;"/>
  </g>
  <g id="axes_1">
   <g id="patch_2">
    <path d="M 43.78125 239.758125 
L 378.58125 239.758125 
L 378.58125 22.318125 
L 43.78125 22.318125 
z
" style="fill:#ffffff;"/>
   </g>
   <g id="matplotlib.axis_1">
    <g id="xtick_1">
     <g id="line2d_1">
      <defs>
       <path d="M 0 0 
L 0 3.5 
" id="m4bc2a37181" style="stroke:#000000;stroke-width:0.8;"/>
      </defs>
      <g>
       <use style="stroke:#000000;stroke-width:0.8;" x="58.999432" xlink:href="#m4bc2a37181" y="239.758125"/>
      </g>
     </g>
     <g id="text_1">
      <!-- 0 -->
      <g transform="translate(55.818182 254.356562)scale(0.1 -0.1)">
       <defs>
        <path d="M 2034 4250 
Q 1547 4250 1301 3770 
Q 1056 3291 1056 2328 
Q 1056 1369 1301 889 
Q 1547 409 2034 409 
Q 2525 409 2770 889 
Q 3016 1369 3016 2328 
Q 3016 3291 2770 3770 
Q 2525 4250 2034 4250 
z
M 2034 4750 
Q 2819 4750 3233 4129 
Q 3647 3509 3647 2328 
Q 3647 1150 3233 529 
Q 2819 -91 2034 -91 
Q 1250 -91 836 529 
Q 422 1150 422 2328 
Q 422 3509 836 4129 
Q 1250 4750 2034 4750 
z
" id="DejaVuSans-30" transform="scale(0.015625)"/>
       </defs>
       <use xlink:href="#DejaVuSans-30"/>
      </g>
     </g>
    </g>
    <g id="xtick_2">
     <g id="line2d_2">
      <g>
       <use style="stroke:#000000;stroke-width:0.8;" x="97.140238" xlink:href="#m4bc2a37181" y="239.758125"/>
      </g>
     </g>
     <g id="text_2">
      <!-- 500 -->
      <g transform="translate(87.596488 254.356562)scale(0.1 -0.1)">
       <defs>
        <path d="M 691 4666 
L 3169 4666 
L 3169 4134 
L 1269 4134 
L 1269 2991 
Q 1406 3038 1543 3061 
Q 1681 3084 1819 3084 
Q 2600 3084 3056 2656 
Q 3513 2228 3513 1497 
Q 3513 744 3044 326 
Q 2575 -91 1722 -91 
Q 1428 -91 1123 -41 
Q 819 9 494 109 
L 494 744 
Q 775 591 1075 516 
Q 1375 441 1709 441 
Q 2250 441 2565 725 
Q 2881 1009 2881 1497 
Q 2881 1984 2565 2268 
Q 2250 2553 1709 2553 
Q 1456 2553 1204 2497 
Q 953 2441 691 2322 
L 691 4666 
z
" id="DejaVuSans-35" transform="scale(0.015625)"/>
       </defs>
       <use xlink:href="#DejaVuSans-35"/>
       <use x="63.623047" xlink:href="#DejaVuSans-30"/>
       <use x="127.246094" xlink:href="#DejaVuSans-30"/>
      </g>
     </g>
    </g>
    <g id="xtick_3">
     <g id="line2d_3">
      <g>
       <use style="stroke:#000000;stroke-width:0.8;" x="135.281045" xlink:href="#m4bc2a37181" y="239.758125"/>
      </g>
     </g>
     <g id="text_3">
      <!-- 1000 -->
      <g transform="translate(122.556045 254.356562)scale(0.1 -0.1)">
       <defs>
        <path d="M 794 531 
L 1825 531 
L 1825 4091 
L 703 3866 
L 703 4441 
L 1819 4666 
L 2450 4666 
L 2450 531 
L 3481 531 
L 3481 0 
L 794 0 
L 794 531 
z
" id="DejaVuSans-31" transform="scale(0.015625)"/>
       </defs>
       <use xlink:href="#DejaVuSans-31"/>
       <use x="63.623047" xlink:href="#DejaVuSans-30"/>
       <use x="127.246094" xlink:href="#DejaVuSans-30"/>
       <use x="190.869141" xlink:href="#DejaVuSans-30"/>
      </g>
     </g>
    </g>
    <g id="xtick_4">
     <g id="line2d_4">
      <g>
       <use style="stroke:#000000;stroke-width:0.8;" x="173.421852" xlink:href="#m4bc2a37181" y="239.758125"/>
      </g>
     </g>
     <g id="text_4">
      <!-- 1500 -->
      <g transform="translate(160.696852 254.356562)scale(0.1 -0.1)">
       <use xlink:href="#DejaVuSans-31"/>
       <use x="63.623047" xlink:href="#DejaVuSans-35"/>
       <use x="127.246094" xlink:href="#DejaVuSans-30"/>
       <use x="190.869141" xlink:href="#DejaVuSans-30"/>
      </g>
     </g>
    </g>
    <g id="xtick_5">
     <g id="line2d_5">
      <g>
       <use style="stroke:#000000;stroke-width:0.8;" x="211.562658" xlink:href="#m4bc2a37181" y="239.758125"/>
      </g>
     </g>
     <g id="text_5">
      <!-- 2000 -->
      <g transform="translate(198.837658 254.356562)scale(0.1 -0.1)">
       <defs>
        <path d="M 1228 531 
L 3431 531 
L 3431 0 
L 469 0 
L 469 531 
Q 828 903 1448 1529 
Q 2069 2156 2228 2338 
Q 2531 2678 2651 2914 
Q 2772 3150 2772 3378 
Q 2772 3750 2511 3984 
Q 2250 4219 1831 4219 
Q 1534 4219 1204 4116 
Q 875 4013 500 3803 
L 500 4441 
Q 881 4594 1212 4672 
Q 1544 4750 1819 4750 
Q 2544 4750 2975 4387 
Q 3406 4025 3406 3419 
Q 3406 3131 3298 2873 
Q 3191 2616 2906 2266 
Q 2828 2175 2409 1742 
Q 1991 1309 1228 531 
z
" id="DejaVuSans-32" transform="scale(0.015625)"/>
       </defs>
       <use xlink:href="#DejaVuSans-32"/>
       <use x="63.623047" xlink:href="#DejaVuSans-30"/>
       <use x="127.246094" xlink:href="#DejaVuSans-30"/>
       <use x="190.869141" xlink:href="#DejaVuSans-30"/>
      </g>
     </g>
    </g>
    <g id="xtick_6">
     <g id="line2d_6">
      <g>
       <use style="stroke:#000000;stroke-width:0.8;" x="249.703465" xlink:href="#m4bc2a37181" y="239.758125"/>
      </g>
     </g>
     <g id="text_6">
      <!-- 2500 -->
      <g transform="translate(236.978465 254.356562)scale(0.1 -0.1)">
       <use xlink:href="#DejaVuSans-32"/>
       <use x="63.623047" xlink:href="#DejaVuSans-35"/>
       <use x="127.246094" xlink:href="#DejaVuSans-30"/>
       <use x="190.869141" xlink:href="#DejaVuSans-30"/>
      </g>
     </g>
    </g>
    <g id="xtick_7">
     <g id="line2d_7">
      <g>
       <use style="stroke:#000000;stroke-width:0.8;" x="287.844271" xlink:href="#m4bc2a37181" y="239.758125"/>
      </g>
     </g>
     <g id="text_7">
      <!-- 3000 -->
      <g transform="translate(275.119271 254.356562)scale(0.1 -0.1)">
       <defs>
        <path d="M 2597 2516 
Q 3050 2419 3304 2112 
Q 3559 1806 3559 1356 
Q 3559 666 3084 287 
Q 2609 -91 1734 -91 
Q 1441 -91 1130 -33 
Q 819 25 488 141 
L 488 750 
Q 750 597 1062 519 
Q 1375 441 1716 441 
Q 2309 441 2620 675 
Q 2931 909 2931 1356 
Q 2931 1769 2642 2001 
Q 2353 2234 1838 2234 
L 1294 2234 
L 1294 2753 
L 1863 2753 
Q 2328 2753 2575 2939 
Q 2822 3125 2822 3475 
Q 2822 3834 2567 4026 
Q 2313 4219 1838 4219 
Q 1578 4219 1281 4162 
Q 984 4106 628 3988 
L 628 4550 
Q 988 4650 1302 4700 
Q 1616 4750 1894 4750 
Q 2613 4750 3031 4423 
Q 3450 4097 3450 3541 
Q 3450 3153 3228 2886 
Q 3006 2619 2597 2516 
z
" id="DejaVuSans-33" transform="scale(0.015625)"/>
       </defs>
       <use xlink:href="#DejaVuSans-33"/>
       <use x="63.623047" xlink:href="#DejaVuSans-30"/>
       <use x="127.246094" xlink:href="#DejaVuSans-30"/>
       <use x="190.869141" xlink:href="#DejaVuSans-30"/>
      </g>
     </g>
    </g>
    <g id="xtick_8">
     <g id="line2d_8">
      <g>
       <use style="stroke:#000000;stroke-width:0.8;" x="325.985078" xlink:href="#m4bc2a37181" y="239.758125"/>
      </g>
     </g>
     <g id="text_8">
      <!-- 3500 -->
      <g transform="translate(313.260078 254.356562)scale(0.1 -0.1)">
       <use xlink:href="#DejaVuSans-33"/>
       <use x="63.623047" xlink:href="#DejaVuSans-35"/>
       <use x="127.246094" xlink:href="#DejaVuSans-30"/>
       <use x="190.869141" xlink:href="#DejaVuSans-30"/>
      </g>
     </g>
    </g>
    <g id="xtick_9">
     <g id="line2d_9">
      <g>
       <use style="stroke:#000000;stroke-width:0.8;" x="364.125884" xlink:href="#m4bc2a37181" y="239.758125"/>
      </g>
     </g>
     <g id="text_9">
      <!-- 4000 -->
      <g transform="translate(351.400884 254.356562)scale(0.1 -0.1)">
       <defs>
        <path d="M 2419 4116 
L 825 1625 
L 2419 1625 
L 2419 4116 
z
M 2253 4666 
L 3047 4666 
L 3047 1625 
L 3713 1625 
L 3713 1100 
L 3047 1100 
L 3047 0 
L 2419 0 
L 2419 1100 
L 313 1100 
L 313 1709 
L 2253 4666 
z
" id="DejaVuSans-34" transform="scale(0.015625)"/>
       </defs>
       <use xlink:href="#DejaVuSans-34"/>
       <use x="63.623047" xlink:href="#DejaVuSans-30"/>
       <use x="127.246094" xlink:href="#DejaVuSans-30"/>
       <use x="190.869141" xlink:href="#DejaVuSans-30"/>
      </g>
     </g>
    </g>
    <g id="text_10">
     <!-- count -->
     <g transform="translate(197.075 268.034687)scale(0.1 -0.1)">
      <defs>
       <path d="M 3122 3366 
L 3122 2828 
Q 2878 2963 2633 3030 
Q 2388 3097 2138 3097 
Q 1578 3097 1268 2742 
Q 959 2388 959 1747 
Q 959 1106 1268 751 
Q 1578 397 2138 397 
Q 2388 397 2633 464 
Q 2878 531 3122 666 
L 3122 134 
Q 2881 22 2623 -34 
Q 2366 -91 2075 -91 
Q 1284 -91 818 406 
Q 353 903 353 1747 
Q 353 2603 823 3093 
Q 1294 3584 2113 3584 
Q 2378 3584 2631 3529 
Q 2884 3475 3122 3366 
z
" id="DejaVuSans-63" transform="scale(0.015625)"/>
       <path d="M 1959 3097 
Q 1497 3097 1228 2736 
Q 959 2375 959 1747 
Q 959 1119 1226 758 
Q 1494 397 1959 397 
Q 2419 397 2687 759 
Q 2956 1122 2956 1747 
Q 2956 2369 2687 2733 
Q 2419 3097 1959 3097 
z
M 1959 3584 
Q 2709 3584 3137 3096 
Q 3566 2609 3566 1747 
Q 3566 888 3137 398 
Q 2709 -91 1959 -91 
Q 1206 -91 779 398 
Q 353 888 353 1747 
Q 353 2609 779 3096 
Q 1206 3584 1959 3584 
z
" id="DejaVuSans-6f" transform="scale(0.015625)"/>
       <path d="M 544 1381 
L 544 3500 
L 1119 3500 
L 1119 1403 
Q 1119 906 1312 657 
Q 1506 409 1894 409 
Q 2359 409 2629 706 
Q 2900 1003 2900 1516 
L 2900 3500 
L 3475 3500 
L 3475 0 
L 2900 0 
L 2900 538 
Q 2691 219 2414 64 
Q 2138 -91 1772 -91 
Q 1169 -91 856 284 
Q 544 659 544 1381 
z
M 1991 3584 
L 1991 3584 
z
" id="DejaVuSans-75" transform="scale(0.015625)"/>
       <path d="M 3513 2113 
L 3513 0 
L 2938 0 
L 2938 2094 
Q 2938 2591 2744 2837 
Q 2550 3084 2163 3084 
Q 1697 3084 1428 2787 
Q 1159 2491 1159 1978 
L 1159 0 
L 581 0 
L 581 3500 
L 1159 3500 
L 1159 2956 
Q 1366 3272 1645 3428 
Q 1925 3584 2291 3584 
Q 2894 3584 3203 3211 
Q 3513 2838 3513 2113 
z
" id="DejaVuSans-6e" transform="scale(0.015625)"/>
       <path d="M 1172 4494 
L 1172 3500 
L 2356 3500 
L 2356 3053 
L 1172 3053 
L 1172 1153 
Q 1172 725 1289 603 
Q 1406 481 1766 481 
L 2356 481 
L 2356 0 
L 1766 0 
Q 1100 0 847 248 
Q 594 497 594 1153 
L 594 3053 
L 172 3053 
L 172 3500 
L 594 3500 
L 594 4494 
L 1172 4494 
z
" id="DejaVuSans-74" transform="scale(0.015625)"/>
      </defs>
      <use xlink:href="#DejaVuSans-63"/>
      <use x="54.980469" xlink:href="#DejaVuSans-6f"/>
      <use x="116.162109" xlink:href="#DejaVuSans-75"/>
      <use x="179.541016" xlink:href="#DejaVuSans-6e"/>
      <use x="242.919922" xlink:href="#DejaVuSans-74"/>
     </g>
    </g>
   </g>
   <g id="matplotlib.axis_2">
    <g id="ytick_1">
     <g id="line2d_10">
      <defs>
       <path d="M 0 0 
L -3.5 0 
" id="ma62c05d3c1" style="stroke:#000000;stroke-width:0.8;"/>
      </defs>
      <g>
       <use style="stroke:#000000;stroke-width:0.8;" x="43.78125" xlink:href="#ma62c05d3c1" y="239.758125"/>
      </g>
     </g>
     <g id="text_11">
      <!-- 0.0 -->
      <g transform="translate(20.878125 243.557344)scale(0.1 -0.1)">
       <defs>
        <path d="M 684 794 
L 1344 794 
L 1344 0 
L 684 0 
L 684 794 
z
" id="DejaVuSans-2e" transform="scale(0.015625)"/>
       </defs>
       <use xlink:href="#DejaVuSans-30"/>
       <use x="63.623047" xlink:href="#DejaVuSans-2e"/>
       <use x="95.410156" xlink:href="#DejaVuSans-30"/>
      </g>
     </g>
    </g>
    <g id="ytick_2">
     <g id="line2d_11">
      <g>
       <use style="stroke:#000000;stroke-width:0.8;" x="43.78125" xlink:href="#ma62c05d3c1" y="196.270125"/>
      </g>
     </g>
     <g id="text_12">
      <!-- 0.2 -->
      <g transform="translate(20.878125 200.069344)scale(0.1 -0.1)">
       <use xlink:href="#DejaVuSans-30"/>
       <use x="63.623047" xlink:href="#DejaVuSans-2e"/>
       <use x="95.410156" xlink:href="#DejaVuSans-32"/>
      </g>
     </g>
    </g>
    <g id="ytick_3">
     <g id="line2d_12">
      <g>
       <use style="stroke:#000000;stroke-width:0.8;" x="43.78125" xlink:href="#ma62c05d3c1" y="152.782125"/>
      </g>
     </g>
     <g id="text_13">
      <!-- 0.4 -->
      <g transform="translate(20.878125 156.581344)scale(0.1 -0.1)">
       <use xlink:href="#DejaVuSans-30"/>
       <use x="63.623047" xlink:href="#DejaVuSans-2e"/>
       <use x="95.410156" xlink:href="#DejaVuSans-34"/>
      </g>
     </g>
    </g>
    <g id="ytick_4">
     <g id="line2d_13">
      <g>
       <use style="stroke:#000000;stroke-width:0.8;" x="43.78125" xlink:href="#ma62c05d3c1" y="109.294125"/>
      </g>
     </g>
     <g id="text_14">
      <!-- 0.6 -->
      <g transform="translate(20.878125 113.093344)scale(0.1 -0.1)">
       <defs>
        <path d="M 2113 2584 
Q 1688 2584 1439 2293 
Q 1191 2003 1191 1497 
Q 1191 994 1439 701 
Q 1688 409 2113 409 
Q 2538 409 2786 701 
Q 3034 994 3034 1497 
Q 3034 2003 2786 2293 
Q 2538 2584 2113 2584 
z
M 3366 4563 
L 3366 3988 
Q 3128 4100 2886 4159 
Q 2644 4219 2406 4219 
Q 1781 4219 1451 3797 
Q 1122 3375 1075 2522 
Q 1259 2794 1537 2939 
Q 1816 3084 2150 3084 
Q 2853 3084 3261 2657 
Q 3669 2231 3669 1497 
Q 3669 778 3244 343 
Q 2819 -91 2113 -91 
Q 1303 -91 875 529 
Q 447 1150 447 2328 
Q 447 3434 972 4092 
Q 1497 4750 2381 4750 
Q 2619 4750 2861 4703 
Q 3103 4656 3366 4563 
z
" id="DejaVuSans-36" transform="scale(0.015625)"/>
       </defs>
       <use xlink:href="#DejaVuSans-30"/>
       <use x="63.623047" xlink:href="#DejaVuSans-2e"/>
       <use x="95.410156" xlink:href="#DejaVuSans-36"/>
      </g>
     </g>
    </g>
    <g id="ytick_5">
     <g id="line2d_14">
      <g>
       <use style="stroke:#000000;stroke-width:0.8;" x="43.78125" xlink:href="#ma62c05d3c1" y="65.806125"/>
      </g>
     </g>
     <g id="text_15">
      <!-- 0.8 -->
      <g transform="translate(20.878125 69.605344)scale(0.1 -0.1)">
       <defs>
        <path d="M 2034 2216 
Q 1584 2216 1326 1975 
Q 1069 1734 1069 1313 
Q 1069 891 1326 650 
Q 1584 409 2034 409 
Q 2484 409 2743 651 
Q 3003 894 3003 1313 
Q 3003 1734 2745 1975 
Q 2488 2216 2034 2216 
z
M 1403 2484 
Q 997 2584 770 2862 
Q 544 3141 544 3541 
Q 544 4100 942 4425 
Q 1341 4750 2034 4750 
Q 2731 4750 3128 4425 
Q 3525 4100 3525 3541 
Q 3525 3141 3298 2862 
Q 3072 2584 2669 2484 
Q 3125 2378 3379 2068 
Q 3634 1759 3634 1313 
Q 3634 634 3220 271 
Q 2806 -91 2034 -91 
Q 1263 -91 848 271 
Q 434 634 434 1313 
Q 434 1759 690 2068 
Q 947 2378 1403 2484 
z
M 1172 3481 
Q 1172 3119 1398 2916 
Q 1625 2713 2034 2713 
Q 2441 2713 2670 2916 
Q 2900 3119 2900 3481 
Q 2900 3844 2670 4047 
Q 2441 4250 2034 4250 
Q 1625 4250 1398 4047 
Q 1172 3844 1172 3481 
z
" id="DejaVuSans-38" transform="scale(0.015625)"/>
       </defs>
       <use xlink:href="#DejaVuSans-30"/>
       <use x="63.623047" xlink:href="#DejaVuSans-2e"/>
       <use x="95.410156" xlink:href="#DejaVuSans-38"/>
      </g>
     </g>
    </g>
    <g id="ytick_6">
     <g id="line2d_15">
      <g>
       <use style="stroke:#000000;stroke-width:0.8;" x="43.78125" xlink:href="#ma62c05d3c1" y="22.318125"/>
      </g>
     </g>
     <g id="text_16">
      <!-- 1.0 -->
      <g transform="translate(20.878125 26.117344)scale(0.1 -0.1)">
       <use xlink:href="#DejaVuSans-31"/>
       <use x="63.623047" xlink:href="#DejaVuSans-2e"/>
       <use x="95.410156" xlink:href="#DejaVuSans-30"/>
      </g>
     </g>
    </g>
    <g id="text_17">
     <!-- accuracy -->
     <g transform="translate(14.798438 153.5975)rotate(-90)scale(0.1 -0.1)">
      <defs>
       <path d="M 2194 1759 
Q 1497 1759 1228 1600 
Q 959 1441 959 1056 
Q 959 750 1161 570 
Q 1363 391 1709 391 
Q 2188 391 2477 730 
Q 2766 1069 2766 1631 
L 2766 1759 
L 2194 1759 
z
M 3341 1997 
L 3341 0 
L 2766 0 
L 2766 531 
Q 2569 213 2275 61 
Q 1981 -91 1556 -91 
Q 1019 -91 701 211 
Q 384 513 384 1019 
Q 384 1609 779 1909 
Q 1175 2209 1959 2209 
L 2766 2209 
L 2766 2266 
Q 2766 2663 2505 2880 
Q 2244 3097 1772 3097 
Q 1472 3097 1187 3025 
Q 903 2953 641 2809 
L 641 3341 
Q 956 3463 1253 3523 
Q 1550 3584 1831 3584 
Q 2591 3584 2966 3190 
Q 3341 2797 3341 1997 
z
" id="DejaVuSans-61" transform="scale(0.015625)"/>
       <path d="M 2631 2963 
Q 2534 3019 2420 3045 
Q 2306 3072 2169 3072 
Q 1681 3072 1420 2755 
Q 1159 2438 1159 1844 
L 1159 0 
L 581 0 
L 581 3500 
L 1159 3500 
L 1159 2956 
Q 1341 3275 1631 3429 
Q 1922 3584 2338 3584 
Q 2397 3584 2469 3576 
Q 2541 3569 2628 3553 
L 2631 2963 
z
" id="DejaVuSans-72" transform="scale(0.015625)"/>
       <path d="M 2059 -325 
Q 1816 -950 1584 -1140 
Q 1353 -1331 966 -1331 
L 506 -1331 
L 506 -850 
L 844 -850 
Q 1081 -850 1212 -737 
Q 1344 -625 1503 -206 
L 1606 56 
L 191 3500 
L 800 3500 
L 1894 763 
L 2988 3500 
L 3597 3500 
L 2059 -325 
z
" id="DejaVuSans-79" transform="scale(0.015625)"/>
      </defs>
      <use xlink:href="#DejaVuSans-61"/>
      <use x="61.279297" xlink:href="#DejaVuSans-63"/>
      <use x="116.259766" xlink:href="#DejaVuSans-63"/>
      <use x="171.240234" xlink:href="#DejaVuSans-75"/>
      <use x="234.619141" xlink:href="#DejaVuSans-72"/>
      <use x="275.732422" xlink:href="#DejaVuSans-61"/>
      <use x="337.011719" xlink:href="#DejaVuSans-63"/>
      <use x="391.992188" xlink:href="#DejaVuSans-79"/>
     </g>
    </g>
   </g>
   <g id="line2d_16">
    <path clip-path="url(#pefa09052e7)" d="M 58.999432 213.665325 
L 59.762248 222.362925 
L 60.525064 228.886125 
L 61.28788 213.665325 
L 62.813512 218.014125 
L 63.576329 222.362925 
L 64.339145 215.839725 
L 65.864777 220.188525 
L 66.627593 228.886125 
L 67.390409 218.014125 
L 68.153225 211.490925 
L 68.916042 224.537325 
L 69.678858 228.886125 
L 70.441674 213.665325 
L 71.20449 222.362925 
L 71.967306 213.665325 
L 72.730122 218.014125 
L 73.492938 215.839725 
L 74.255754 200.618925 
L 75.018571 218.014125 
L 75.781387 218.014125 
L 76.544203 233.234925 
L 77.307019 211.490925 
L 78.069835 228.886125 
L 78.832651 224.537325 
L 79.595467 222.362925 
L 80.358283 224.537325 
L 81.1211 222.362925 
L 81.883916 215.839725 
L 82.646732 211.490925 
L 83.409548 204.967725 
L 84.172364 211.490925 
L 84.93518 207.142125 
L 85.697996 207.142125 
L 86.460813 235.409325 
L 87.223629 215.839725 
L 87.986445 218.014125 
L 88.749261 218.014125 
L 89.512077 220.188525 
L 90.274893 211.490925 
L 91.800525 220.188525 
L 92.563342 213.665325 
L 93.326158 215.839725 
L 94.088974 222.362925 
L 94.85179 204.967725 
L 95.614606 224.537325 
L 96.377422 215.839725 
L 97.140238 200.618925 
L 97.903055 211.490925 
L 98.665871 220.188525 
L 99.428687 218.014125 
L 100.191503 211.490925 
L 100.954319 218.014125 
L 101.717135 220.188525 
L 102.479951 220.188525 
L 104.005584 215.839725 
L 104.7684 215.839725 
L 105.531216 220.188525 
L 106.294032 220.188525 
L 107.056848 215.839725 
L 107.819664 220.188525 
L 108.58248 207.142125 
L 109.345296 211.490925 
L 110.108113 228.886125 
L 110.870929 211.490925 
L 111.633745 220.188525 
L 112.396561 222.362925 
L 113.159377 211.490925 
L 113.922193 218.014125 
L 114.685009 220.188525 
L 115.447826 226.711725 
L 116.210642 209.316525 
L 116.973458 213.665325 
L 117.736274 226.711725 
L 118.49909 213.665325 
L 119.261906 202.793325 
L 120.024722 222.362925 
L 120.787538 218.014125 
L 121.550355 220.188525 
L 122.313171 215.839725 
L 123.075987 215.839725 
L 123.838803 226.711725 
L 124.601619 213.665325 
L 125.364435 213.665325 
L 126.127251 211.490925 
L 126.890067 218.014125 
L 127.652884 226.711725 
L 128.4157 200.618925 
L 129.178516 211.490925 
L 129.941332 211.490925 
L 130.704148 213.665325 
L 131.466964 211.490925 
L 132.22978 204.967725 
L 132.992597 220.188525 
L 133.755413 209.316525 
L 134.518229 213.665325 
L 136.043861 218.014125 
L 136.806677 213.665325 
L 137.569493 220.188525 
L 138.332309 224.537325 
L 139.095126 209.316525 
L 139.857942 207.142125 
L 140.620758 196.270125 
L 141.383574 200.618925 
L 142.14639 220.188525 
L 142.909206 207.142125 
L 143.672022 228.886125 
L 144.434839 200.618925 
L 145.197655 204.967725 
L 145.960471 224.537325 
L 146.723287 218.014125 
L 147.486103 222.362925 
L 148.248919 231.060525 
L 149.011735 220.188525 
L 149.774551 211.490925 
L 150.537368 215.839725 
L 151.300184 211.490925 
L 152.063 213.665325 
L 152.825816 211.490925 
L 153.588632 196.270125 
L 154.351448 196.270125 
L 155.114264 204.967725 
L 155.87708 185.398125 
L 156.639897 209.316525 
L 157.402713 200.618925 
L 158.165529 204.967725 
L 158.928345 207.142125 
L 159.691161 211.490925 
L 160.453977 198.444525 
L 161.216793 196.270125 
L 161.97961 215.839725 
L 162.742426 207.142125 
L 163.505242 215.839725 
L 164.268058 191.921325 
L 165.030874 215.839725 
L 165.79369 198.444525 
L 166.556506 189.746925 
L 167.319322 191.921325 
L 168.082139 189.746925 
L 168.844955 191.921325 
L 169.607771 183.223725 
L 170.370587 185.398125 
L 171.133403 194.095725 
L 171.896219 185.398125 
L 172.659035 174.526125 
L 173.421852 172.351725 
L 174.184668 172.351725 
L 174.947484 187.572525 
L 175.7103 152.782125 
L 176.473116 181.049325 
L 177.235932 198.444525 
L 177.998748 168.002925 
L 178.761564 174.526125 
L 179.524381 183.223725 
L 180.287197 174.526125 
L 181.050013 191.921325 
L 181.812829 198.444525 
L 182.575645 185.398125 
L 183.338461 191.921325 
L 184.101277 181.049325 
L 184.864093 181.049325 
L 185.62691 170.177325 
L 186.389726 181.049325 
L 187.152542 187.572525 
L 187.915358 183.223725 
L 188.678174 174.526125 
L 189.44099 168.002925 
L 190.203806 183.223725 
L 190.966623 174.526125 
L 191.729439 178.874925 
L 192.492255 189.746925 
L 193.255071 185.398125 
L 194.017887 170.177325 
L 194.780703 189.746925 
L 195.543519 178.874925 
L 196.306335 170.177325 
L 197.069152 187.572525 
L 197.831968 154.956525 
L 198.594784 161.479725 
L 199.3576 170.177325 
L 200.120416 191.921325 
L 200.883232 163.654125 
L 201.646048 163.654125 
L 202.408864 185.398125 
L 203.171681 172.351725 
L 203.934497 183.223725 
L 204.697313 191.921325 
L 205.460129 172.351725 
L 206.222945 170.177325 
L 206.985761 176.700525 
L 207.748577 163.654125 
L 208.511394 170.177325 
L 209.27421 172.351725 
L 210.037026 161.479725 
L 210.799842 163.654125 
L 211.562658 168.002925 
L 212.325474 170.177325 
L 213.08829 154.956525 
L 213.851106 161.479725 
L 214.613923 185.398125 
L 215.376739 170.177325 
L 216.139555 161.479725 
L 216.902371 176.700525 
L 217.665187 163.654125 
L 218.428003 185.398125 
L 219.190819 170.177325 
L 220.716452 187.572525 
L 221.479268 157.130925 
L 223.0049 191.921325 
L 223.767716 159.305325 
L 224.530532 170.177325 
L 225.293348 152.782125 
L 226.056165 181.049325 
L 226.818981 161.479725 
L 227.581797 170.177325 
L 228.344613 150.607725 
L 229.107429 183.223725 
L 229.870245 178.874925 
L 230.633061 165.828525 
L 231.395877 165.828525 
L 232.158694 178.874925 
L 232.92151 157.130925 
L 233.684326 159.305325 
L 234.447142 168.002925 
L 235.209958 159.305325 
L 235.972774 174.526125 
L 236.73559 161.479725 
L 237.498407 172.351725 
L 238.261223 161.479725 
L 239.024039 165.828525 
L 239.786855 157.130925 
L 240.549671 163.654125 
L 241.312487 174.526125 
L 242.075303 152.782125 
L 242.838119 148.433325 
L 243.600936 165.828525 
L 244.363752 170.177325 
L 245.126568 168.002925 
L 245.889384 170.177325 
L 246.6522 161.479725 
L 247.415016 170.177325 
L 248.177832 163.654125 
L 248.940648 168.002925 
L 249.703465 168.002925 
L 250.466281 157.130925 
L 251.229097 168.002925 
L 252.754729 150.607725 
L 253.517545 144.084525 
L 254.280361 176.700525 
L 255.043178 159.305325 
L 255.805994 154.956525 
L 257.331626 163.654125 
L 258.094442 154.956525 
L 258.857258 168.002925 
L 259.620074 152.782125 
L 260.38289 150.607725 
L 261.145707 144.084525 
L 261.908523 146.258925 
L 262.671339 159.305325 
L 263.434155 163.654125 
L 264.196971 157.130925 
L 265.722603 152.782125 
L 266.48542 144.084525 
L 267.248236 172.351725 
L 268.011052 168.002925 
L 268.773868 157.130925 
L 269.536684 159.305325 
L 270.2995 139.735725 
L 271.062316 152.782125 
L 271.825132 157.130925 
L 272.587949 139.735725 
L 273.350765 139.735725 
L 274.113581 165.828525 
L 274.876397 154.956525 
L 276.402029 150.607725 
L 277.164845 168.002925 
L 277.927661 161.479725 
L 278.690478 157.130925 
L 279.453294 141.910125 
L 280.21611 150.607725 
L 280.978926 157.130925 
L 281.741742 165.828525 
L 283.267374 144.084525 
L 284.030191 146.258925 
L 284.793007 163.654125 
L 285.555823 144.084525 
L 286.318639 165.828525 
L 287.081455 159.305325 
L 287.844271 154.956525 
L 288.607087 157.130925 
L 289.369903 161.479725 
L 290.13272 152.782125 
L 290.895536 168.002925 
L 291.658352 135.386925 
L 292.421168 152.782125 
L 293.183984 139.735725 
L 293.9468 161.479725 
L 294.709616 161.479725 
L 295.472433 154.956525 
L 296.235249 168.002925 
L 296.998065 168.002925 
L 297.760881 141.910125 
L 298.523697 159.305325 
L 299.286513 154.956525 
L 300.049329 154.956525 
L 301.574962 159.305325 
L 302.337778 165.828525 
L 303.100594 137.561325 
L 303.86341 154.956525 
L 304.626226 137.561325 
L 305.389042 163.654125 
L 306.151858 152.782125 
L 306.914674 165.828525 
L 307.677491 157.130925 
L 308.440307 152.782125 
L 309.203123 163.654125 
L 309.965939 144.084525 
L 310.728755 157.130925 
L 311.491571 135.386925 
L 312.254387 159.305325 
L 313.017204 157.130925 
L 313.78002 133.212525 
L 314.542836 157.130925 
L 315.305652 144.084525 
L 316.068468 163.654125 
L 316.831284 141.910125 
L 317.5941 137.561325 
L 318.356916 154.956525 
L 319.119733 128.863725 
L 319.882549 131.038125 
L 320.645365 141.910125 
L 321.408181 133.212525 
L 322.170997 150.607725 
L 322.933813 154.956525 
L 323.696629 161.479725 
L 324.459445 159.305325 
L 325.222262 148.433325 
L 325.985078 150.607725 
L 326.747894 154.956525 
L 327.51071 117.991725 
L 328.273526 141.910125 
L 329.036342 148.433325 
L 329.799158 131.038125 
L 330.561975 159.305325 
L 331.324791 152.782125 
L 332.087607 139.735725 
L 332.850423 133.212525 
L 333.613239 150.607725 
L 334.376055 150.607725 
L 335.138871 152.782125 
L 335.901687 150.607725 
L 336.664504 154.956525 
L 337.42732 148.433325 
L 338.190136 146.258925 
L 338.952952 137.561325 
L 339.715768 144.084525 
L 340.478584 144.084525 
L 341.2414 152.782125 
L 342.004217 139.735725 
L 342.767033 159.305325 
L 343.529849 141.910125 
L 344.292665 137.561325 
L 345.055481 137.561325 
L 345.818297 146.258925 
L 346.581113 131.038125 
L 347.343929 141.910125 
L 348.869562 137.561325 
L 349.632378 144.084525 
L 350.395194 133.212525 
L 351.15801 148.433325 
L 351.920826 131.038125 
L 352.683642 135.386925 
L 353.446458 131.038125 
L 354.209275 137.561325 
L 354.972091 137.561325 
L 355.734907 117.991725 
L 356.497723 161.479725 
L 357.260539 137.561325 
L 358.023355 141.910125 
L 358.786171 139.735725 
L 359.548988 159.305325 
L 360.311804 126.689325 
L 361.07462 109.294125 
L 361.837436 128.863725 
L 362.600252 157.130925 
L 363.363068 126.689325 
L 363.363068 126.689325 
" style="fill:none;stroke:#1f77b4;stroke-linecap:square;stroke-width:1.5;"/>
   </g>
   <g id="line2d_17">
    <path clip-path="url(#pefa09052e7)" d="M 58.999432 218.927373 
L 94.088974 218.927373 
L 94.85179 214.556829 
L 95.614606 215.078685 
L 107.056848 215.078685 
L 107.819664 214.948221 
L 108.58248 215.078685 
L 119.261906 215.078685 
L 120.024722 214.948221 
L 120.787538 215.078685 
L 122.313171 215.078685 
L 124.601619 215.035197 
L 125.364435 214.948221 
L 126.127251 215.078685 
L 137.569493 215.035197 
L 138.332309 212.860797 
L 139.095126 215.013453 
L 139.857942 214.382877 
L 140.620758 214.926477 
L 141.383574 215.056941 
L 142.14639 214.817757 
L 142.909206 215.078685 
L 148.248919 215.013453 
L 149.011735 214.796013 
L 149.774551 213.317421 
L 150.537368 212.947773 
L 151.300184 212.904285 
L 152.063 213.687069 
L 152.825816 209.381757 
L 153.588632 203.989245 
L 154.351448 208.359789 
L 155.114264 204.119709 
L 155.87708 208.055373 
L 156.639897 206.989917 
L 157.402713 208.620717 
L 158.165529 211.882317 
L 158.928345 208.490253 
L 159.691161 206.424573 
L 160.453977 211.817085 
L 161.216793 209.773149 
L 161.97961 209.468733 
L 162.742426 208.968621 
L 163.505242 205.989693 
L 164.268058 200.314509 
L 165.030874 200.162301 
L 165.79369 199.031613 
L 166.556506 192.030045 
L 167.319322 192.834573 
L 168.082139 192.747597 
L 168.844955 190.247037 
L 169.607771 190.747149 
L 170.370587 187.637757 
L 171.133403 180.005613 
L 171.896219 178.048653 
L 172.659035 181.179789 
L 173.421852 177.505053 
L 174.184668 185.245917 
L 174.947484 181.027581 
L 176.473116 182.245245 
L 177.235932 183.680349 
L 177.998748 179.288061 
L 178.761564 183.223725 
L 179.524381 183.897789 
L 180.287197 184.789293 
L 181.050013 183.484653 
L 181.812829 188.507517 
L 182.575645 190.073085 
L 183.338461 186.376605 
L 184.101277 187.181133 
L 184.864093 181.375485 
L 186.389726 180.353517 
L 187.152542 181.484205 
L 187.915358 177.635517 
L 188.678174 175.809021 
L 190.203806 176.222157 
L 190.966623 176.091693 
L 191.729439 178.374813 
L 192.492255 178.048653 
L 193.255071 178.657485 
L 194.780703 174.156477 
L 195.543519 173.199741 
L 196.306335 174.526125 
L 197.069152 173.417181 
L 197.831968 174.004269 
L 198.594784 173.699853 
L 199.3576 172.938813 
L 200.120416 173.873805 
L 200.883232 176.570061 
L 201.646048 177.178893 
L 202.408864 178.766205 
L 203.171681 176.374365 
L 203.934497 175.504605 
L 204.697313 173.982525 
L 205.460129 173.286717 
L 206.222945 173.612877 
L 206.985761 172.612653 
L 207.748577 173.808573 
L 208.511394 172.895325 
L 209.27421 171.568941 
L 210.037026 171.568941 
L 210.799842 169.720701 
L 212.325474 172.329981 
L 213.08829 171.960333 
L 213.851106 171.264525 
L 214.613923 168.720477 
L 215.376739 171.503709 
L 216.139555 170.286045 
L 216.902371 170.677437 
L 217.665187 170.938365 
L 218.428003 171.612429 
L 219.190819 171.047085 
L 220.716452 170.546973 
L 221.479268 170.525229 
L 222.242084 170.220813 
L 223.0049 169.503261 
L 223.767716 169.764189 
L 224.530532 168.916173 
L 225.293348 168.720477 
L 226.056165 169.198845 
L 226.818981 169.264077 
L 227.581797 169.481517 
L 228.344613 168.372573 
L 229.107429 168.590013 
L 229.870245 167.502813 
L 230.633061 167.133165 
L 231.395877 165.806781 
L 232.158694 166.067709 
L 233.684326 164.545629 
L 234.447142 164.067261 
L 235.209958 164.850045 
L 235.972774 165.915501 
L 236.73559 165.437133 
L 237.498407 165.698061 
L 238.261223 166.328637 
L 239.024039 164.871789 
L 240.549671 163.915053 
L 241.312487 162.849597 
L 242.075303 161.088333 
L 242.838119 161.327517 
L 243.600936 161.958093 
L 244.363752 161.871117 
L 245.126568 161.175309 
L 245.889384 163.240989 
L 246.6522 162.719133 
L 248.940648 163.958541 
L 249.703465 162.719133 
L 250.466281 163.197501 
L 251.991913 161.240541 
L 252.754729 161.023101 
L 253.517545 161.457981 
L 254.280361 161.349261 
L 255.043178 159.870669 
L 255.805994 159.087885 
L 256.56881 159.957645 
L 257.331626 158.913933 
L 258.094442 159.435789 
L 258.857258 159.501021 
L 259.620074 159.848925 
L 261.145707 159.696717 
L 261.908523 159.435789 
L 262.671339 159.696717 
L 263.434155 158.739981 
L 264.196971 158.413821 
L 264.959787 157.587549 
L 265.722603 157.043949 
L 266.48542 157.522317 
L 267.248236 157.304877 
L 268.011052 156.413373 
L 268.773868 156.696045 
L 269.536684 156.261165 
L 270.2995 155.978493 
L 271.062316 154.891293 
L 271.825132 155.217453 
L 272.587949 154.978269 
L 273.350765 154.434669 
L 274.113581 153.325725 
L 274.876397 154.434669 
L 275.639213 154.456413 
L 277.164845 154.282461 
L 277.927661 154.565133 
L 278.690478 155.065245 
L 279.453294 155.043501 
L 280.21611 155.173965 
L 282.504558 154.934781 
L 283.267374 154.304205 
L 284.030191 154.043277 
L 284.793007 154.021533 
L 285.555823 154.673853 
L 286.318639 153.912813 
L 287.081455 153.869325 
L 287.844271 153.325725 
L 288.607087 153.390957 
L 289.369903 153.064797 
L 290.13272 153.630141 
L 290.895536 153.695373 
L 291.658352 153.390957 
L 292.421168 153.499677 
L 293.183984 152.782125 
L 293.9468 152.847357 
L 296.235249 151.477485 
L 296.998065 150.825165 
L 297.760881 151.260045 
L 298.523697 151.542717 
L 299.286513 151.238301 
L 300.049329 150.716445 
L 301.574962 150.999117 
L 302.337778 150.477261 
L 303.100594 151.042605 
L 303.86341 150.194589 
L 304.626226 150.499005 
L 306.151858 149.716221 
L 306.914674 147.976701 
L 308.440307 147.759261 
L 309.203123 146.650317 
L 309.965939 146.824269 
L 310.728755 146.824269 
L 311.491571 146.954733 
L 312.254387 146.519853 
L 313.017204 146.280669 
L 314.542836 146.171949 
L 315.305652 146.454621 
L 316.068468 145.671837 
L 316.831284 144.562893 
L 318.356916 145.410909 
L 319.119733 144.867309 
L 319.882549 145.476141 
L 320.645365 145.389165 
L 321.408181 145.519629 
L 322.170997 144.236733 
L 322.933813 144.497661 
L 325.985078 144.019293 
L 326.747894 143.149533 
L 327.51071 142.932093 
L 328.273526 142.453725 
L 330.561975 142.301517 
L 331.324791 142.518957 
L 332.087607 142.149309 
L 332.850423 142.540701 
L 333.613239 142.431981 
L 334.376055 141.649197 
L 335.138871 141.040365 
L 335.901687 141.192573 
L 336.664504 140.627229 
L 337.42732 141.236061 
L 338.190136 140.627229 
L 338.952952 140.257581 
L 339.715768 140.453277 
L 340.478584 140.366301 
L 341.2414 140.040141 
L 342.004217 139.561773 
L 342.767033 139.387821 
L 343.529849 140.148861 
L 344.292665 139.627005 
L 345.055481 139.887933 
L 345.818297 140.344557 
L 347.343929 140.605485 
L 348.869562 140.344557 
L 349.632378 140.670717 
L 350.395194 139.953165 
L 351.15801 139.800957 
L 351.920826 139.518285 
L 352.683642 139.800957 
L 353.446458 139.583517 
L 354.209275 139.974909 
L 354.972091 139.692237 
L 355.734907 139.909677 
L 356.497723 139.953165 
L 357.260539 139.692237 
L 358.023355 139.670493 
L 358.786171 139.061661 
L 359.548988 138.800733 
L 360.311804 139.083405 
L 361.07462 138.757245 
L 361.837436 137.996205 
L 362.600252 137.452605 
L 363.363068 137.256909 
L 363.363068 137.256909 
" style="fill:none;stroke:#ff7f0e;stroke-linecap:square;stroke-width:1.5;"/>
   </g>
   <g id="patch_3">
    <path d="M 43.78125 239.758125 
L 43.78125 22.318125 
" style="fill:none;stroke:#000000;stroke-linecap:square;stroke-linejoin:miter;stroke-width:0.8;"/>
   </g>
   <g id="patch_4">
    <path d="M 378.58125 239.758125 
L 378.58125 22.318125 
" style="fill:none;stroke:#000000;stroke-linecap:square;stroke-linejoin:miter;stroke-width:0.8;"/>
   </g>
   <g id="patch_5">
    <path d="M 43.78125 239.758125 
L 378.58125 239.758125 
" style="fill:none;stroke:#000000;stroke-linecap:square;stroke-linejoin:miter;stroke-width:0.8;"/>
   </g>
   <g id="patch_6">
    <path d="M 43.78125 22.318125 
L 378.58125 22.318125 
" style="fill:none;stroke:#000000;stroke-linecap:square;stroke-linejoin:miter;stroke-width:0.8;"/>
   </g>
   <g id="text_18">
    <!-- accuracy -->
    <g transform="translate(184.11 16.318125)scale(0.12 -0.12)">
     <use xlink:href="#DejaVuSans-61"/>
     <use x="61.279297" xlink:href="#DejaVuSans-63"/>
     <use x="116.259766" xlink:href="#DejaVuSans-63"/>
     <use x="171.240234" xlink:href="#DejaVuSans-75"/>
     <use x="234.619141" xlink:href="#DejaVuSans-72"/>
     <use x="275.732422" xlink:href="#DejaVuSans-61"/>
     <use x="337.011719" xlink:href="#DejaVuSans-63"/>
     <use x="391.992188" xlink:href="#DejaVuSans-79"/>
    </g>
   </g>
   <g id="legend_1">
    <g id="patch_7">
     <path d="M 282.38125 234.758125 
L 371.58125 234.758125 
Q 373.58125 234.758125 373.58125 232.758125 
L 373.58125 204.401875 
Q 373.58125 202.401875 371.58125 202.401875 
L 282.38125 202.401875 
Q 280.38125 202.401875 280.38125 204.401875 
L 280.38125 232.758125 
Q 280.38125 234.758125 282.38125 234.758125 
z
" style="fill:#ffffff;opacity:0.8;stroke:#cccccc;stroke-linejoin:miter;"/>
    </g>
    <g id="line2d_18">
     <path d="M 284.38125 210.500312 
L 304.38125 210.500312 
" style="fill:none;stroke:#1f77b4;stroke-linecap:square;stroke-width:1.5;"/>
    </g>
    <g id="line2d_19"/>
    <g id="text_19">
     <!-- training set -->
     <g transform="translate(312.38125 214.000312)scale(0.1 -0.1)">
      <defs>
       <path d="M 603 3500 
L 1178 3500 
L 1178 0 
L 603 0 
L 603 3500 
z
M 603 4863 
L 1178 4863 
L 1178 4134 
L 603 4134 
L 603 4863 
z
" id="DejaVuSans-69" transform="scale(0.015625)"/>
       <path d="M 2906 1791 
Q 2906 2416 2648 2759 
Q 2391 3103 1925 3103 
Q 1463 3103 1205 2759 
Q 947 2416 947 1791 
Q 947 1169 1205 825 
Q 1463 481 1925 481 
Q 2391 481 2648 825 
Q 2906 1169 2906 1791 
z
M 3481 434 
Q 3481 -459 3084 -895 
Q 2688 -1331 1869 -1331 
Q 1566 -1331 1297 -1286 
Q 1028 -1241 775 -1147 
L 775 -588 
Q 1028 -725 1275 -790 
Q 1522 -856 1778 -856 
Q 2344 -856 2625 -561 
Q 2906 -266 2906 331 
L 2906 616 
Q 2728 306 2450 153 
Q 2172 0 1784 0 
Q 1141 0 747 490 
Q 353 981 353 1791 
Q 353 2603 747 3093 
Q 1141 3584 1784 3584 
Q 2172 3584 2450 3431 
Q 2728 3278 2906 2969 
L 2906 3500 
L 3481 3500 
L 3481 434 
z
" id="DejaVuSans-67" transform="scale(0.015625)"/>
       <path id="DejaVuSans-20" transform="scale(0.015625)"/>
       <path d="M 2834 3397 
L 2834 2853 
Q 2591 2978 2328 3040 
Q 2066 3103 1784 3103 
Q 1356 3103 1142 2972 
Q 928 2841 928 2578 
Q 928 2378 1081 2264 
Q 1234 2150 1697 2047 
L 1894 2003 
Q 2506 1872 2764 1633 
Q 3022 1394 3022 966 
Q 3022 478 2636 193 
Q 2250 -91 1575 -91 
Q 1294 -91 989 -36 
Q 684 19 347 128 
L 347 722 
Q 666 556 975 473 
Q 1284 391 1588 391 
Q 1994 391 2212 530 
Q 2431 669 2431 922 
Q 2431 1156 2273 1281 
Q 2116 1406 1581 1522 
L 1381 1569 
Q 847 1681 609 1914 
Q 372 2147 372 2553 
Q 372 3047 722 3315 
Q 1072 3584 1716 3584 
Q 2034 3584 2315 3537 
Q 2597 3491 2834 3397 
z
" id="DejaVuSans-73" transform="scale(0.015625)"/>
       <path d="M 3597 1894 
L 3597 1613 
L 953 1613 
Q 991 1019 1311 708 
Q 1631 397 2203 397 
Q 2534 397 2845 478 
Q 3156 559 3463 722 
L 3463 178 
Q 3153 47 2828 -22 
Q 2503 -91 2169 -91 
Q 1331 -91 842 396 
Q 353 884 353 1716 
Q 353 2575 817 3079 
Q 1281 3584 2069 3584 
Q 2775 3584 3186 3129 
Q 3597 2675 3597 1894 
z
M 3022 2063 
Q 3016 2534 2758 2815 
Q 2500 3097 2075 3097 
Q 1594 3097 1305 2825 
Q 1016 2553 972 2059 
L 3022 2063 
z
" id="DejaVuSans-65" transform="scale(0.015625)"/>
      </defs>
      <use xlink:href="#DejaVuSans-74"/>
      <use x="39.208984" xlink:href="#DejaVuSans-72"/>
      <use x="80.322266" xlink:href="#DejaVuSans-61"/>
      <use x="141.601562" xlink:href="#DejaVuSans-69"/>
      <use x="169.384766" xlink:href="#DejaVuSans-6e"/>
      <use x="232.763672" xlink:href="#DejaVuSans-69"/>
      <use x="260.546875" xlink:href="#DejaVuSans-6e"/>
      <use x="323.925781" xlink:href="#DejaVuSans-67"/>
      <use x="387.402344" xlink:href="#DejaVuSans-20"/>
      <use x="419.189453" xlink:href="#DejaVuSans-73"/>
      <use x="471.289062" xlink:href="#DejaVuSans-65"/>
      <use x="532.8125" xlink:href="#DejaVuSans-74"/>
     </g>
    </g>
    <g id="line2d_20">
     <path d="M 284.38125 225.178437 
L 304.38125 225.178437 
" style="fill:none;stroke:#ff7f0e;stroke-linecap:square;stroke-width:1.5;"/>
    </g>
    <g id="line2d_21"/>
    <g id="text_20">
     <!-- test set -->
     <g transform="translate(312.38125 228.678437)scale(0.1 -0.1)">
      <use xlink:href="#DejaVuSans-74"/>
      <use x="39.208984" xlink:href="#DejaVuSans-65"/>
      <use x="100.732422" xlink:href="#DejaVuSans-73"/>
      <use x="152.832031" xlink:href="#DejaVuSans-74"/>
      <use x="192.041016" xlink:href="#DejaVuSans-20"/>
      <use x="223.828125" xlink:href="#DejaVuSans-73"/>
      <use x="275.927734" xlink:href="#DejaVuSans-65"/>
      <use x="337.451172" xlink:href="#DejaVuSans-74"/>
     </g>
    </g>
   </g>
  </g>
 </g>
 <defs>
  <clipPath id="pefa09052e7">
   <rect height="217.44" width="334.8" x="43.78125" y="22.318125"/>
  </clipPath>
 </defs>
</svg>
