<?xml version="1.0" encoding="utf-8" standalone="no"?>
<!DOCTYPE svg PUBLIC "-//W3C//DTD SVG 1.1//EN"
  "http://www.w3.org/Graphics/SVG/1.1/DTD/svg11.dtd">
<svg height="277.314375pt" version="1.1" viewBox="0 0 385.78125 277.314375" width="385.78125pt" xmlns="http://www.w3.org/2000/svg" xmlns:xlink="http://www.w3.org/1999/xlink">
 <metadata>
  <rdf:RDF xmlns:cc="http://creativecommons.org/ns#" xmlns:dc="http://purl.org/dc/elements/1.1/" xmlns:rdf="http://www.w3.org/1999/02/22-rdf-syntax-ns#">
   <cc:Work>
    <dc:type rdf:resource="http://purl.org/dc/dcmitype/StillImage"/>
    <dc:date>2021-05-22T23:58:19.355823</dc:date>
    <dc:format>image/svg+xml</dc:format>
    <dc:creator>
     <cc:Agent>
      <dc:title>Matplotlib v3.4.1, https://matplotlib.org/</dc:title>
     </cc:Agent>
    </dc:creator>
   </cc:Work>
  </rdf:RDF>
 </metadata>
 <defs>
  <style type="text/css">*{stroke-linecap:butt;stroke-linejoin:round;}</style>
 </defs>
 <g id="figure_1">
  <g id="patch_1">
   <path d="M 0 277.314375 
L 385.78125 277.314375 
L 385.78125 0 
L 0 0 
z
" style="fill:none;"/>
  </g>
  <g id="axes_1">
   <g id="patch_2">
    <path d="M 43.78125 239.758125 
L 378.58125 239.758125 
L 378.58125 22.318125 
L 43.78125 22.318125 
z
" style="fill:#ffffff;"/>
   </g>
   <g id="matplotlib.axis_1">
    <g id="xtick_1">
     <g id="line2d_1">
      <defs>
       <path d="M 0 0 
L 0 3.5 
" id="mc4bd95881c" style="stroke:#000000;stroke-width:0.8;"/>
      </defs>
      <g>
       <use style="stroke:#000000;stroke-width:0.8;" x="58.999432" xlink:href="#mc4bd95881c" y="239.758125"/>
      </g>
     </g>
     <g id="text_1">
      <!-- 0 -->
      <g transform="translate(55.818182 254.356562)scale(0.1 -0.1)">
       <defs>
        <path d="M 2034 4250 
Q 1547 4250 1301 3770 
Q 1056 3291 1056 2328 
Q 1056 1369 1301 889 
Q 1547 409 2034 409 
Q 2525 409 2770 889 
Q 3016 1369 3016 2328 
Q 3016 3291 2770 3770 
Q 2525 4250 2034 4250 
z
M 2034 4750 
Q 2819 4750 3233 4129 
Q 3647 3509 3647 2328 
Q 3647 1150 3233 529 
Q 2819 -91 2034 -91 
Q 1250 -91 836 529 
Q 422 1150 422 2328 
Q 422 3509 836 4129 
Q 1250 4750 2034 4750 
z
" id="DejaVuSans-30" transform="scale(0.015625)"/>
       </defs>
       <use xlink:href="#DejaVuSans-30"/>
      </g>
     </g>
    </g>
    <g id="xtick_2">
     <g id="line2d_2">
      <g>
       <use style="stroke:#000000;stroke-width:0.8;" x="97.140238" xlink:href="#mc4bd95881c" y="239.758125"/>
      </g>
     </g>
     <g id="text_2">
      <!-- 500 -->
      <g transform="translate(87.596488 254.356562)scale(0.1 -0.1)">
       <defs>
        <path d="M 691 4666 
L 3169 4666 
L 3169 4134 
L 1269 4134 
L 1269 2991 
Q 1406 3038 1543 3061 
Q 1681 3084 1819 3084 
Q 2600 3084 3056 2656 
Q 3513 2228 3513 1497 
Q 3513 744 3044 326 
Q 2575 -91 1722 -91 
Q 1428 -91 1123 -41 
Q 819 9 494 109 
L 494 744 
Q 775 591 1075 516 
Q 1375 441 1709 441 
Q 2250 441 2565 725 
Q 2881 1009 2881 1497 
Q 2881 1984 2565 2268 
Q 2250 2553 1709 2553 
Q 1456 2553 1204 2497 
Q 953 2441 691 2322 
L 691 4666 
z
" id="DejaVuSans-35" transform="scale(0.015625)"/>
       </defs>
       <use xlink:href="#DejaVuSans-35"/>
       <use x="63.623047" xlink:href="#DejaVuSans-30"/>
       <use x="127.246094" xlink:href="#DejaVuSans-30"/>
      </g>
     </g>
    </g>
    <g id="xtick_3">
     <g id="line2d_3">
      <g>
       <use style="stroke:#000000;stroke-width:0.8;" x="135.281045" xlink:href="#mc4bd95881c" y="239.758125"/>
      </g>
     </g>
     <g id="text_3">
      <!-- 1000 -->
      <g transform="translate(122.556045 254.356562)scale(0.1 -0.1)">
       <defs>
        <path d="M 794 531 
L 1825 531 
L 1825 4091 
L 703 3866 
L 703 4441 
L 1819 4666 
L 2450 4666 
L 2450 531 
L 3481 531 
L 3481 0 
L 794 0 
L 794 531 
z
" id="DejaVuSans-31" transform="scale(0.015625)"/>
       </defs>
       <use xlink:href="#DejaVuSans-31"/>
       <use x="63.623047" xlink:href="#DejaVuSans-30"/>
       <use x="127.246094" xlink:href="#DejaVuSans-30"/>
       <use x="190.869141" xlink:href="#DejaVuSans-30"/>
      </g>
     </g>
    </g>
    <g id="xtick_4">
     <g id="line2d_4">
      <g>
       <use style="stroke:#000000;stroke-width:0.8;" x="173.421852" xlink:href="#mc4bd95881c" y="239.758125"/>
      </g>
     </g>
     <g id="text_4">
      <!-- 1500 -->
      <g transform="translate(160.696852 254.356562)scale(0.1 -0.1)">
       <use xlink:href="#DejaVuSans-31"/>
       <use x="63.623047" xlink:href="#DejaVuSans-35"/>
       <use x="127.246094" xlink:href="#DejaVuSans-30"/>
       <use x="190.869141" xlink:href="#DejaVuSans-30"/>
      </g>
     </g>
    </g>
    <g id="xtick_5">
     <g id="line2d_5">
      <g>
       <use style="stroke:#000000;stroke-width:0.8;" x="211.562658" xlink:href="#mc4bd95881c" y="239.758125"/>
      </g>
     </g>
     <g id="text_5">
      <!-- 2000 -->
      <g transform="translate(198.837658 254.356562)scale(0.1 -0.1)">
       <defs>
        <path d="M 1228 531 
L 3431 531 
L 3431 0 
L 469 0 
L 469 531 
Q 828 903 1448 1529 
Q 2069 2156 2228 2338 
Q 2531 2678 2651 2914 
Q 2772 3150 2772 3378 
Q 2772 3750 2511 3984 
Q 2250 4219 1831 4219 
Q 1534 4219 1204 4116 
Q 875 4013 500 3803 
L 500 4441 
Q 881 4594 1212 4672 
Q 1544 4750 1819 4750 
Q 2544 4750 2975 4387 
Q 3406 4025 3406 3419 
Q 3406 3131 3298 2873 
Q 3191 2616 2906 2266 
Q 2828 2175 2409 1742 
Q 1991 1309 1228 531 
z
" id="DejaVuSans-32" transform="scale(0.015625)"/>
       </defs>
       <use xlink:href="#DejaVuSans-32"/>
       <use x="63.623047" xlink:href="#DejaVuSans-30"/>
       <use x="127.246094" xlink:href="#DejaVuSans-30"/>
       <use x="190.869141" xlink:href="#DejaVuSans-30"/>
      </g>
     </g>
    </g>
    <g id="xtick_6">
     <g id="line2d_6">
      <g>
       <use style="stroke:#000000;stroke-width:0.8;" x="249.703465" xlink:href="#mc4bd95881c" y="239.758125"/>
      </g>
     </g>
     <g id="text_6">
      <!-- 2500 -->
      <g transform="translate(236.978465 254.356562)scale(0.1 -0.1)">
       <use xlink:href="#DejaVuSans-32"/>
       <use x="63.623047" xlink:href="#DejaVuSans-35"/>
       <use x="127.246094" xlink:href="#DejaVuSans-30"/>
       <use x="190.869141" xlink:href="#DejaVuSans-30"/>
      </g>
     </g>
    </g>
    <g id="xtick_7">
     <g id="line2d_7">
      <g>
       <use style="stroke:#000000;stroke-width:0.8;" x="287.844271" xlink:href="#mc4bd95881c" y="239.758125"/>
      </g>
     </g>
     <g id="text_7">
      <!-- 3000 -->
      <g transform="translate(275.119271 254.356562)scale(0.1 -0.1)">
       <defs>
        <path d="M 2597 2516 
Q 3050 2419 3304 2112 
Q 3559 1806 3559 1356 
Q 3559 666 3084 287 
Q 2609 -91 1734 -91 
Q 1441 -91 1130 -33 
Q 819 25 488 141 
L 488 750 
Q 750 597 1062 519 
Q 1375 441 1716 441 
Q 2309 441 2620 675 
Q 2931 909 2931 1356 
Q 2931 1769 2642 2001 
Q 2353 2234 1838 2234 
L 1294 2234 
L 1294 2753 
L 1863 2753 
Q 2328 2753 2575 2939 
Q 2822 3125 2822 3475 
Q 2822 3834 2567 4026 
Q 2313 4219 1838 4219 
Q 1578 4219 1281 4162 
Q 984 4106 628 3988 
L 628 4550 
Q 988 4650 1302 4700 
Q 1616 4750 1894 4750 
Q 2613 4750 3031 4423 
Q 3450 4097 3450 3541 
Q 3450 3153 3228 2886 
Q 3006 2619 2597 2516 
z
" id="DejaVuSans-33" transform="scale(0.015625)"/>
       </defs>
       <use xlink:href="#DejaVuSans-33"/>
       <use x="63.623047" xlink:href="#DejaVuSans-30"/>
       <use x="127.246094" xlink:href="#DejaVuSans-30"/>
       <use x="190.869141" xlink:href="#DejaVuSans-30"/>
      </g>
     </g>
    </g>
    <g id="xtick_8">
     <g id="line2d_8">
      <g>
       <use style="stroke:#000000;stroke-width:0.8;" x="325.985078" xlink:href="#mc4bd95881c" y="239.758125"/>
      </g>
     </g>
     <g id="text_8">
      <!-- 3500 -->
      <g transform="translate(313.260078 254.356562)scale(0.1 -0.1)">
       <use xlink:href="#DejaVuSans-33"/>
       <use x="63.623047" xlink:href="#DejaVuSans-35"/>
       <use x="127.246094" xlink:href="#DejaVuSans-30"/>
       <use x="190.869141" xlink:href="#DejaVuSans-30"/>
      </g>
     </g>
    </g>
    <g id="xtick_9">
     <g id="line2d_9">
      <g>
       <use style="stroke:#000000;stroke-width:0.8;" x="364.125884" xlink:href="#mc4bd95881c" y="239.758125"/>
      </g>
     </g>
     <g id="text_9">
      <!-- 4000 -->
      <g transform="translate(351.400884 254.356562)scale(0.1 -0.1)">
       <defs>
        <path d="M 2419 4116 
L 825 1625 
L 2419 1625 
L 2419 4116 
z
M 2253 4666 
L 3047 4666 
L 3047 1625 
L 3713 1625 
L 3713 1100 
L 3047 1100 
L 3047 0 
L 2419 0 
L 2419 1100 
L 313 1100 
L 313 1709 
L 2253 4666 
z
" id="DejaVuSans-34" transform="scale(0.015625)"/>
       </defs>
       <use xlink:href="#DejaVuSans-34"/>
       <use x="63.623047" xlink:href="#DejaVuSans-30"/>
       <use x="127.246094" xlink:href="#DejaVuSans-30"/>
       <use x="190.869141" xlink:href="#DejaVuSans-30"/>
      </g>
     </g>
    </g>
    <g id="text_10">
     <!-- count -->
     <g transform="translate(197.075 268.034687)scale(0.1 -0.1)">
      <defs>
       <path d="M 3122 3366 
L 3122 2828 
Q 2878 2963 2633 3030 
Q 2388 3097 2138 3097 
Q 1578 3097 1268 2742 
Q 959 2388 959 1747 
Q 959 1106 1268 751 
Q 1578 397 2138 397 
Q 2388 397 2633 464 
Q 2878 531 3122 666 
L 3122 134 
Q 2881 22 2623 -34 
Q 2366 -91 2075 -91 
Q 1284 -91 818 406 
Q 353 903 353 1747 
Q 353 2603 823 3093 
Q 1294 3584 2113 3584 
Q 2378 3584 2631 3529 
Q 2884 3475 3122 3366 
z
" id="DejaVuSans-63" transform="scale(0.015625)"/>
       <path d="M 1959 3097 
Q 1497 3097 1228 2736 
Q 959 2375 959 1747 
Q 959 1119 1226 758 
Q 1494 397 1959 397 
Q 2419 397 2687 759 
Q 2956 1122 2956 1747 
Q 2956 2369 2687 2733 
Q 2419 3097 1959 3097 
z
M 1959 3584 
Q 2709 3584 3137 3096 
Q 3566 2609 3566 1747 
Q 3566 888 3137 398 
Q 2709 -91 1959 -91 
Q 1206 -91 779 398 
Q 353 888 353 1747 
Q 353 2609 779 3096 
Q 1206 3584 1959 3584 
z
" id="DejaVuSans-6f" transform="scale(0.015625)"/>
       <path d="M 544 1381 
L 544 3500 
L 1119 3500 
L 1119 1403 
Q 1119 906 1312 657 
Q 1506 409 1894 409 
Q 2359 409 2629 706 
Q 2900 1003 2900 1516 
L 2900 3500 
L 3475 3500 
L 3475 0 
L 2900 0 
L 2900 538 
Q 2691 219 2414 64 
Q 2138 -91 1772 -91 
Q 1169 -91 856 284 
Q 544 659 544 1381 
z
M 1991 3584 
L 1991 3584 
z
" id="DejaVuSans-75" transform="scale(0.015625)"/>
       <path d="M 3513 2113 
L 3513 0 
L 2938 0 
L 2938 2094 
Q 2938 2591 2744 2837 
Q 2550 3084 2163 3084 
Q 1697 3084 1428 2787 
Q 1159 2491 1159 1978 
L 1159 0 
L 581 0 
L 581 3500 
L 1159 3500 
L 1159 2956 
Q 1366 3272 1645 3428 
Q 1925 3584 2291 3584 
Q 2894 3584 3203 3211 
Q 3513 2838 3513 2113 
z
" id="DejaVuSans-6e" transform="scale(0.015625)"/>
       <path d="M 1172 4494 
L 1172 3500 
L 2356 3500 
L 2356 3053 
L 1172 3053 
L 1172 1153 
Q 1172 725 1289 603 
Q 1406 481 1766 481 
L 2356 481 
L 2356 0 
L 1766 0 
Q 1100 0 847 248 
Q 594 497 594 1153 
L 594 3053 
L 172 3053 
L 172 3500 
L 594 3500 
L 594 4494 
L 1172 4494 
z
" id="DejaVuSans-74" transform="scale(0.015625)"/>
      </defs>
      <use xlink:href="#DejaVuSans-63"/>
      <use x="54.980469" xlink:href="#DejaVuSans-6f"/>
      <use x="116.162109" xlink:href="#DejaVuSans-75"/>
      <use x="179.541016" xlink:href="#DejaVuSans-6e"/>
      <use x="242.919922" xlink:href="#DejaVuSans-74"/>
     </g>
    </g>
   </g>
   <g id="matplotlib.axis_2">
    <g id="ytick_1">
     <g id="line2d_10">
      <defs>
       <path d="M 0 0 
L -3.5 0 
" id="m92494050ba" style="stroke:#000000;stroke-width:0.8;"/>
      </defs>
      <g>
       <use style="stroke:#000000;stroke-width:0.8;" x="43.78125" xlink:href="#m92494050ba" y="239.758125"/>
      </g>
     </g>
     <g id="text_11">
      <!-- 0.0 -->
      <g transform="translate(20.878125 243.557344)scale(0.1 -0.1)">
       <defs>
        <path d="M 684 794 
L 1344 794 
L 1344 0 
L 684 0 
L 684 794 
z
" id="DejaVuSans-2e" transform="scale(0.015625)"/>
       </defs>
       <use xlink:href="#DejaVuSans-30"/>
       <use x="63.623047" xlink:href="#DejaVuSans-2e"/>
       <use x="95.410156" xlink:href="#DejaVuSans-30"/>
      </g>
     </g>
    </g>
    <g id="ytick_2">
     <g id="line2d_11">
      <g>
       <use style="stroke:#000000;stroke-width:0.8;" x="43.78125" xlink:href="#m92494050ba" y="196.270125"/>
      </g>
     </g>
     <g id="text_12">
      <!-- 0.2 -->
      <g transform="translate(20.878125 200.069344)scale(0.1 -0.1)">
       <use xlink:href="#DejaVuSans-30"/>
       <use x="63.623047" xlink:href="#DejaVuSans-2e"/>
       <use x="95.410156" xlink:href="#DejaVuSans-32"/>
      </g>
     </g>
    </g>
    <g id="ytick_3">
     <g id="line2d_12">
      <g>
       <use style="stroke:#000000;stroke-width:0.8;" x="43.78125" xlink:href="#m92494050ba" y="152.782125"/>
      </g>
     </g>
     <g id="text_13">
      <!-- 0.4 -->
      <g transform="translate(20.878125 156.581344)scale(0.1 -0.1)">
       <use xlink:href="#DejaVuSans-30"/>
       <use x="63.623047" xlink:href="#DejaVuSans-2e"/>
       <use x="95.410156" xlink:href="#DejaVuSans-34"/>
      </g>
     </g>
    </g>
    <g id="ytick_4">
     <g id="line2d_13">
      <g>
       <use style="stroke:#000000;stroke-width:0.8;" x="43.78125" xlink:href="#m92494050ba" y="109.294125"/>
      </g>
     </g>
     <g id="text_14">
      <!-- 0.6 -->
      <g transform="translate(20.878125 113.093344)scale(0.1 -0.1)">
       <defs>
        <path d="M 2113 2584 
Q 1688 2584 1439 2293 
Q 1191 2003 1191 1497 
Q 1191 994 1439 701 
Q 1688 409 2113 409 
Q 2538 409 2786 701 
Q 3034 994 3034 1497 
Q 3034 2003 2786 2293 
Q 2538 2584 2113 2584 
z
M 3366 4563 
L 3366 3988 
Q 3128 4100 2886 4159 
Q 2644 4219 2406 4219 
Q 1781 4219 1451 3797 
Q 1122 3375 1075 2522 
Q 1259 2794 1537 2939 
Q 1816 3084 2150 3084 
Q 2853 3084 3261 2657 
Q 3669 2231 3669 1497 
Q 3669 778 3244 343 
Q 2819 -91 2113 -91 
Q 1303 -91 875 529 
Q 447 1150 447 2328 
Q 447 3434 972 4092 
Q 1497 4750 2381 4750 
Q 2619 4750 2861 4703 
Q 3103 4656 3366 4563 
z
" id="DejaVuSans-36" transform="scale(0.015625)"/>
       </defs>
       <use xlink:href="#DejaVuSans-30"/>
       <use x="63.623047" xlink:href="#DejaVuSans-2e"/>
       <use x="95.410156" xlink:href="#DejaVuSans-36"/>
      </g>
     </g>
    </g>
    <g id="ytick_5">
     <g id="line2d_14">
      <g>
       <use style="stroke:#000000;stroke-width:0.8;" x="43.78125" xlink:href="#m92494050ba" y="65.806125"/>
      </g>
     </g>
     <g id="text_15">
      <!-- 0.8 -->
      <g transform="translate(20.878125 69.605344)scale(0.1 -0.1)">
       <defs>
        <path d="M 2034 2216 
Q 1584 2216 1326 1975 
Q 1069 1734 1069 1313 
Q 1069 891 1326 650 
Q 1584 409 2034 409 
Q 2484 409 2743 651 
Q 3003 894 3003 1313 
Q 3003 1734 2745 1975 
Q 2488 2216 2034 2216 
z
M 1403 2484 
Q 997 2584 770 2862 
Q 544 3141 544 3541 
Q 544 4100 942 4425 
Q 1341 4750 2034 4750 
Q 2731 4750 3128 4425 
Q 3525 4100 3525 3541 
Q 3525 3141 3298 2862 
Q 3072 2584 2669 2484 
Q 3125 2378 3379 2068 
Q 3634 1759 3634 1313 
Q 3634 634 3220 271 
Q 2806 -91 2034 -91 
Q 1263 -91 848 271 
Q 434 634 434 1313 
Q 434 1759 690 2068 
Q 947 2378 1403 2484 
z
M 1172 3481 
Q 1172 3119 1398 2916 
Q 1625 2713 2034 2713 
Q 2441 2713 2670 2916 
Q 2900 3119 2900 3481 
Q 2900 3844 2670 4047 
Q 2441 4250 2034 4250 
Q 1625 4250 1398 4047 
Q 1172 3844 1172 3481 
z
" id="DejaVuSans-38" transform="scale(0.015625)"/>
       </defs>
       <use xlink:href="#DejaVuSans-30"/>
       <use x="63.623047" xlink:href="#DejaVuSans-2e"/>
       <use x="95.410156" xlink:href="#DejaVuSans-38"/>
      </g>
     </g>
    </g>
    <g id="ytick_6">
     <g id="line2d_15">
      <g>
       <use style="stroke:#000000;stroke-width:0.8;" x="43.78125" xlink:href="#m92494050ba" y="22.318125"/>
      </g>
     </g>
     <g id="text_16">
      <!-- 1.0 -->
      <g transform="translate(20.878125 26.117344)scale(0.1 -0.1)">
       <use xlink:href="#DejaVuSans-31"/>
       <use x="63.623047" xlink:href="#DejaVuSans-2e"/>
       <use x="95.410156" xlink:href="#DejaVuSans-30"/>
      </g>
     </g>
    </g>
    <g id="text_17">
     <!-- accuracy -->
     <g transform="translate(14.798438 153.5975)rotate(-90)scale(0.1 -0.1)">
      <defs>
       <path d="M 2194 1759 
Q 1497 1759 1228 1600 
Q 959 1441 959 1056 
Q 959 750 1161 570 
Q 1363 391 1709 391 
Q 2188 391 2477 730 
Q 2766 1069 2766 1631 
L 2766 1759 
L 2194 1759 
z
M 3341 1997 
L 3341 0 
L 2766 0 
L 2766 531 
Q 2569 213 2275 61 
Q 1981 -91 1556 -91 
Q 1019 -91 701 211 
Q 384 513 384 1019 
Q 384 1609 779 1909 
Q 1175 2209 1959 2209 
L 2766 2209 
L 2766 2266 
Q 2766 2663 2505 2880 
Q 2244 3097 1772 3097 
Q 1472 3097 1187 3025 
Q 903 2953 641 2809 
L 641 3341 
Q 956 3463 1253 3523 
Q 1550 3584 1831 3584 
Q 2591 3584 2966 3190 
Q 3341 2797 3341 1997 
z
" id="DejaVuSans-61" transform="scale(0.015625)"/>
       <path d="M 2631 2963 
Q 2534 3019 2420 3045 
Q 2306 3072 2169 3072 
Q 1681 3072 1420 2755 
Q 1159 2438 1159 1844 
L 1159 0 
L 581 0 
L 581 3500 
L 1159 3500 
L 1159 2956 
Q 1341 3275 1631 3429 
Q 1922 3584 2338 3584 
Q 2397 3584 2469 3576 
Q 2541 3569 2628 3553 
L 2631 2963 
z
" id="DejaVuSans-72" transform="scale(0.015625)"/>
       <path d="M 2059 -325 
Q 1816 -950 1584 -1140 
Q 1353 -1331 966 -1331 
L 506 -1331 
L 506 -850 
L 844 -850 
Q 1081 -850 1212 -737 
Q 1344 -625 1503 -206 
L 1606 56 
L 191 3500 
L 800 3500 
L 1894 763 
L 2988 3500 
L 3597 3500 
L 2059 -325 
z
" id="DejaVuSans-79" transform="scale(0.015625)"/>
      </defs>
      <use xlink:href="#DejaVuSans-61"/>
      <use x="61.279297" xlink:href="#DejaVuSans-63"/>
      <use x="116.259766" xlink:href="#DejaVuSans-63"/>
      <use x="171.240234" xlink:href="#DejaVuSans-75"/>
      <use x="234.619141" xlink:href="#DejaVuSans-72"/>
      <use x="275.732422" xlink:href="#DejaVuSans-61"/>
      <use x="337.011719" xlink:href="#DejaVuSans-63"/>
      <use x="391.992188" xlink:href="#DejaVuSans-79"/>
     </g>
    </g>
   </g>
   <g id="line2d_16">
    <path clip-path="url(#pc2ce5d3801)" d="M 58.999432 148.433325 
L 60.525064 107.119725 
L 61.28788 89.724525 
L 62.050696 76.678125 
L 62.813512 67.980525 
L 63.576329 52.759725 
L 64.339145 63.631725 
L 65.101961 63.631725 
L 65.864777 44.062125 
L 67.390409 65.806125 
L 68.153225 48.410925 
L 68.916042 35.364525 
L 69.678858 54.934125 
L 70.441674 37.538925 
L 71.20449 52.759725 
L 71.967306 37.538925 
L 72.730122 46.236525 
L 73.492938 39.713325 
L 74.255754 52.759725 
L 75.018571 41.887725 
L 75.781387 50.585325 
L 76.544203 35.364525 
L 77.307019 41.887725 
L 78.069835 33.190125 
L 78.832651 46.236525 
L 79.595467 44.062125 
L 80.358283 46.236525 
L 81.1211 39.713325 
L 81.883916 37.538925 
L 82.646732 44.062125 
L 83.409548 44.062125 
L 84.172364 31.015725 
L 84.93518 44.062125 
L 85.697996 35.364525 
L 86.460813 33.190125 
L 87.223629 37.538925 
L 87.986445 35.364525 
L 88.749261 26.666925 
L 89.512077 37.538925 
L 90.274893 28.841325 
L 91.037709 31.015725 
L 91.800525 44.062125 
L 92.563342 33.190125 
L 93.326158 28.841325 
L 94.088974 26.666925 
L 94.85179 41.887725 
L 95.614606 31.015725 
L 97.140238 31.015725 
L 97.903055 35.364525 
L 98.665871 35.364525 
L 99.428687 50.585325 
L 100.191503 37.538925 
L 100.954319 35.364525 
L 101.717135 35.364525 
L 102.479951 44.062125 
L 103.242767 31.015725 
L 104.005584 33.190125 
L 104.7684 31.015725 
L 105.531216 33.190125 
L 106.294032 44.062125 
L 107.056848 28.841325 
L 107.819664 31.015725 
L 109.345296 31.015725 
L 110.108113 28.841325 
L 110.870929 28.841325 
L 111.633745 39.713325 
L 112.396561 31.015725 
L 113.159377 26.666925 
L 113.922193 35.364525 
L 114.685009 28.841325 
L 115.447826 35.364525 
L 116.210642 28.841325 
L 116.973458 26.666925 
L 117.736274 33.190125 
L 118.49909 28.841325 
L 119.261906 26.666925 
L 120.024722 28.841325 
L 120.787538 24.492525 
L 121.550355 26.666925 
L 122.313171 35.364525 
L 123.075987 24.492525 
L 123.838803 33.190125 
L 125.364435 33.190125 
L 126.890067 28.841325 
L 128.4157 28.841325 
L 129.178516 35.364525 
L 129.941332 37.538925 
L 130.704148 24.492525 
L 131.466964 26.666925 
L 132.22978 33.190125 
L 132.992597 31.015725 
L 133.755413 31.015725 
L 134.518229 33.190125 
L 135.281045 24.492525 
L 136.043861 26.666925 
L 136.806677 26.666925 
L 137.569493 33.190125 
L 138.332309 28.841325 
L 139.095126 26.666925 
L 139.857942 39.713325 
L 140.620758 24.492525 
L 141.383574 39.713325 
L 142.14639 26.666925 
L 144.434839 39.713325 
L 145.197655 33.190125 
L 145.960471 33.190125 
L 146.723287 26.666925 
L 147.486103 28.841325 
L 148.248919 26.666925 
L 149.011735 22.318125 
L 150.537368 26.666925 
L 151.300184 33.190125 
L 152.063 28.841325 
L 152.825816 28.841325 
L 153.588632 33.190125 
L 154.351448 31.015725 
L 155.114264 26.666925 
L 155.87708 31.015725 
L 156.639897 28.841325 
L 157.402713 33.190125 
L 158.165529 33.190125 
L 158.928345 35.364525 
L 159.691161 28.841325 
L 160.453977 26.666925 
L 161.216793 26.666925 
L 161.97961 28.841325 
L 162.742426 35.364525 
L 163.505242 26.666925 
L 165.030874 26.666925 
L 165.79369 31.015725 
L 166.556506 26.666925 
L 167.319322 31.015725 
L 168.082139 31.015725 
L 168.844955 22.318125 
L 169.607771 33.190125 
L 170.370587 28.841325 
L 171.133403 31.015725 
L 171.896219 24.492525 
L 172.659035 28.841325 
L 173.421852 22.318125 
L 174.184668 35.364525 
L 174.947484 33.190125 
L 175.7103 26.666925 
L 176.473116 24.492525 
L 177.235932 26.666925 
L 177.998748 33.190125 
L 178.761564 26.666925 
L 179.524381 33.190125 
L 181.050013 28.841325 
L 181.812829 31.015725 
L 182.575645 26.666925 
L 183.338461 28.841325 
L 184.101277 26.666925 
L 184.864093 31.015725 
L 185.62691 26.666925 
L 186.389726 31.015725 
L 187.152542 28.841325 
L 187.915358 22.318125 
L 188.678174 24.492525 
L 189.44099 24.492525 
L 190.203806 22.318125 
L 190.966623 31.015725 
L 191.729439 28.841325 
L 192.492255 24.492525 
L 193.255071 22.318125 
L 195.543519 28.841325 
L 197.069152 24.492525 
L 197.831968 28.841325 
L 199.3576 24.492525 
L 200.120416 26.666925 
L 200.883232 22.318125 
L 201.646048 22.318125 
L 202.408864 39.713325 
L 203.171681 31.015725 
L 204.697313 31.015725 
L 205.460129 26.666925 
L 206.222945 26.666925 
L 206.985761 22.318125 
L 207.748577 31.015725 
L 208.511394 26.666925 
L 209.27421 33.190125 
L 210.037026 22.318125 
L 210.799842 26.666925 
L 211.562658 26.666925 
L 212.325474 31.015725 
L 213.08829 22.318125 
L 213.851106 26.666925 
L 214.613923 26.666925 
L 215.376739 28.841325 
L 216.139555 28.841325 
L 216.902371 24.492525 
L 217.665187 37.538925 
L 218.428003 26.666925 
L 219.190819 28.841325 
L 220.716452 24.492525 
L 221.479268 26.666925 
L 223.0049 26.666925 
L 223.767716 22.318125 
L 224.530532 28.841325 
L 225.293348 26.666925 
L 226.056165 35.364525 
L 226.818981 26.666925 
L 227.581797 28.841325 
L 228.344613 26.666925 
L 229.107429 31.015725 
L 229.870245 26.666925 
L 230.633061 26.666925 
L 231.395877 31.015725 
L 232.158694 22.318125 
L 232.92151 22.318125 
L 233.684326 26.666925 
L 235.209958 22.318125 
L 235.972774 24.492525 
L 237.498407 24.492525 
L 238.261223 37.538925 
L 239.024039 35.364525 
L 239.786855 28.841325 
L 240.549671 24.492525 
L 241.312487 26.666925 
L 242.075303 22.318125 
L 242.838119 22.318125 
L 243.600936 28.841325 
L 244.363752 24.492525 
L 245.126568 24.492525 
L 245.889384 22.318125 
L 246.6522 28.841325 
L 247.415016 26.666925 
L 248.177832 28.841325 
L 248.940648 24.492525 
L 249.703465 24.492525 
L 250.466281 22.318125 
L 251.229097 22.318125 
L 251.991913 26.666925 
L 252.754729 24.492525 
L 253.517545 28.841325 
L 254.280361 26.666925 
L 255.043178 22.318125 
L 255.805994 28.841325 
L 256.56881 28.841325 
L 258.094442 24.492525 
L 258.857258 28.841325 
L 259.620074 22.318125 
L 260.38289 28.841325 
L 261.145707 24.492525 
L 261.908523 26.666925 
L 262.671339 24.492525 
L 267.248236 24.492525 
L 268.011052 26.666925 
L 268.773868 24.492525 
L 269.536684 26.666925 
L 270.2995 26.666925 
L 271.062316 24.492525 
L 272.587949 24.492525 
L 274.113581 28.841325 
L 274.876397 22.318125 
L 275.639213 28.841325 
L 276.402029 26.666925 
L 277.927661 26.666925 
L 279.453294 22.318125 
L 280.21611 26.666925 
L 280.978926 22.318125 
L 281.741742 28.841325 
L 282.504558 24.492525 
L 284.030191 28.841325 
L 284.793007 24.492525 
L 285.555823 28.841325 
L 286.318639 24.492525 
L 287.081455 22.318125 
L 288.607087 26.666925 
L 289.369903 24.492525 
L 290.13272 28.841325 
L 291.658352 24.492525 
L 292.421168 26.666925 
L 293.183984 22.318125 
L 293.9468 24.492525 
L 294.709616 24.492525 
L 295.472433 22.318125 
L 296.235249 33.190125 
L 296.998065 33.190125 
L 297.760881 24.492525 
L 299.286513 24.492525 
L 300.049329 26.666925 
L 301.574962 22.318125 
L 302.337778 31.015725 
L 303.100594 24.492525 
L 303.86341 26.666925 
L 305.389042 22.318125 
L 306.151858 24.492525 
L 306.914674 28.841325 
L 307.677491 26.666925 
L 308.440307 22.318125 
L 309.203123 26.666925 
L 309.965939 28.841325 
L 310.728755 24.492525 
L 312.254387 24.492525 
L 313.017204 26.666925 
L 313.78002 24.492525 
L 315.305652 24.492525 
L 316.068468 22.318125 
L 316.831284 26.666925 
L 317.5941 22.318125 
L 318.356916 26.666925 
L 319.119733 24.492525 
L 321.408181 24.492525 
L 322.170997 26.666925 
L 323.696629 22.318125 
L 324.459445 24.492525 
L 325.222262 28.841325 
L 325.985078 26.666925 
L 327.51071 26.666925 
L 328.273526 28.841325 
L 329.799158 28.841325 
L 330.561975 24.492525 
L 331.324791 26.666925 
L 332.087607 24.492525 
L 332.850423 31.015725 
L 333.613239 28.841325 
L 334.376055 24.492525 
L 335.138871 28.841325 
L 335.901687 28.841325 
L 336.664504 24.492525 
L 337.42732 22.318125 
L 338.190136 22.318125 
L 338.952952 26.666925 
L 339.715768 26.666925 
L 340.478584 22.318125 
L 341.2414 26.666925 
L 342.004217 28.841325 
L 343.529849 24.492525 
L 344.292665 24.492525 
L 345.055481 22.318125 
L 345.818297 24.492525 
L 346.581113 24.492525 
L 347.343929 26.666925 
L 348.106746 24.492525 
L 348.869562 24.492525 
L 349.632378 28.841325 
L 350.395194 22.318125 
L 351.15801 31.015725 
L 351.920826 22.318125 
L 352.683642 22.318125 
L 353.446458 28.841325 
L 354.972091 24.492525 
L 355.734907 24.492525 
L 356.497723 22.318125 
L 357.260539 22.318125 
L 358.023355 31.015725 
L 358.786171 22.318125 
L 359.548988 26.666925 
L 360.311804 26.666925 
L 361.837436 22.318125 
L 362.600252 33.190125 
L 363.363068 24.492525 
L 363.363068 24.492525 
" style="fill:none;stroke:#1f77b4;stroke-linecap:square;stroke-width:1.5;"/>
   </g>
   <g id="line2d_17">
    <path clip-path="url(#pc2ce5d3801)" d="M 58.999432 165.785037 
L 61.28788 95.247501 
L 62.050696 78.526365 
L 62.813512 73.177341 
L 63.576329 64.631949 
L 64.339145 80.744253 
L 65.101961 63.414285 
L 65.864777 54.173085 
L 66.627593 54.107853 
L 67.390409 70.263645 
L 68.153225 54.694941 
L 68.916042 48.541389 
L 69.678858 58.043517 
L 70.441674 47.475933 
L 71.20449 49.759053 
L 71.967306 47.780349 
L 72.730122 47.301981 
L 73.492938 45.171069 
L 74.255754 48.780573 
L 75.018571 47.323725 
L 75.781387 46.606173 
L 76.544203 44.910141 
L 77.307019 46.345245 
L 78.069835 44.388285 
L 78.832651 45.084093 
L 79.595467 46.584429 
L 80.358283 42.735741 
L 81.1211 43.192365 
L 81.883916 42.453069 
L 82.646732 44.736189 
L 83.409548 41.844237 
L 84.172364 41.257149 
L 84.93518 43.344573 
L 85.697996 43.235853 
L 86.460813 41.213661 
L 87.223629 42.953181 
L 87.986445 40.974477 
L 88.749261 40.256925 
L 89.512077 40.626573 
L 90.274893 40.713549 
L 91.037709 42.039933 
L 91.800525 39.995997 
L 92.563342 40.583085 
L 93.326158 40.365645 
L 94.088974 39.691581 
L 94.85179 43.670733 
L 95.614606 39.474141 
L 96.377422 41.496333 
L 97.140238 38.734845 
L 97.903055 39.039261 
L 98.665871 42.387837 
L 99.428687 39.495885 
L 100.954319 38.800077 
L 101.717135 38.626125 
L 102.479951 39.452397 
L 103.242767 38.626125 
L 104.005584 39.213213 
L 104.7684 38.887053 
L 105.531216 38.365197 
L 106.294032 39.822045 
L 107.056848 38.060781 
L 107.819664 38.191245 
L 109.345296 37.821597 
L 110.870929 37.734621 
L 111.633745 38.452173 
L 112.396561 37.451949 
L 113.159377 37.321485 
L 113.922193 37.538925 
L 114.685009 38.017293 
L 115.447826 36.951837 
L 116.210642 37.495437 
L 116.973458 38.299965 
L 117.736274 38.191245 
L 118.49909 37.756365 
L 119.261906 36.321261 
L 120.024722 37.517181 
L 120.787538 36.995325 
L 121.550355 38.321709 
L 122.313171 37.473693 
L 123.838803 37.234509 
L 125.364435 36.277773 
L 126.127251 37.778109 
L 126.890067 35.777661 
L 127.652884 37.234509 
L 128.4157 38.191245 
L 129.178516 36.821373 
L 129.941332 37.147533 
L 130.704148 35.516733 
L 131.466964 37.147533 
L 132.992597 35.995101 
L 133.755413 35.755917 
L 134.518229 37.147533 
L 135.281045 35.734173 
L 136.806677 35.516733 
L 137.569493 36.277773 
L 138.332309 35.494989 
L 139.095126 36.908349 
L 139.857942 35.081853 
L 140.620758 35.603709 
L 141.383574 35.668941 
L 142.14639 35.277549 
L 142.909206 35.799405 
L 143.672022 35.342781 
L 144.434839 36.647421 
L 145.197655 35.408013 
L 145.960471 35.190573 
L 146.723287 35.973357 
L 147.486103 34.886157 
L 148.248919 35.734173 
L 149.774551 35.777661 
L 150.537368 34.538253 
L 151.300184 35.147085 
L 153.588632 36.234285 
L 155.114264 34.646973 
L 156.639897 35.234061 
L 157.402713 38.169501 
L 158.165529 35.734173 
L 158.928345 35.060109 
L 159.691161 35.168829 
L 160.453977 35.864637 
L 161.216793 34.625229 
L 161.97961 35.103597 
L 162.742426 35.908125 
L 163.505242 34.516509 
L 164.268058 35.255805 
L 165.030874 34.712205 
L 165.79369 35.864637 
L 167.319322 34.646973 
L 168.082139 34.299069 
L 169.607771 34.059885 
L 170.370587 36.777885 
L 171.133403 34.429533 
L 171.896219 34.342557 
L 172.659035 34.429533 
L 173.421852 33.864189 
L 174.184668 33.733725 
L 174.947484 34.407789 
L 175.7103 33.777213 
L 176.473116 34.081629 
L 177.235932 33.842445 
L 177.998748 34.407789 
L 178.761564 37.169277 
L 179.524381 33.711981 
L 180.287197 34.733949 
L 181.812829 34.190349 
L 182.575645 33.559773 
L 183.338461 34.777437 
L 184.101277 34.733949 
L 184.864093 34.342557 
L 185.62691 34.146861 
L 186.389726 34.668717 
L 187.152542 33.994653 
L 187.915358 34.842669 
L 188.678174 33.842445 
L 190.203806 33.472797 
L 190.966623 34.103373 
L 191.729439 33.733725 
L 194.017887 33.994653 
L 194.780703 34.646973 
L 195.543519 33.538029 
L 196.306335 34.016397 
L 197.069152 33.668493 
L 197.831968 34.299069 
L 198.594784 32.972685 
L 199.3576 33.820701 
L 200.120416 33.385821 
L 200.883232 33.429309 
L 201.646048 34.212093 
L 202.408864 35.755917 
L 203.171681 33.798957 
L 203.934497 33.103149 
L 204.697313 32.624781 
L 205.460129 33.342333 
L 206.222945 33.690237 
L 206.985761 32.755245 
L 207.748577 33.298845 
L 208.511394 33.385821 
L 209.27421 32.907453 
L 210.037026 32.885709 
L 210.799842 33.255357 
L 211.562658 33.494541 
L 212.325474 33.538029 
L 213.08829 33.255357 
L 213.851106 33.668493 
L 216.139555 32.711757 
L 216.902371 32.994429 
L 217.665187 33.668493 
L 218.428003 32.776989 
L 219.190819 32.342109 
L 219.953636 33.124893 
L 220.716452 32.668269 
L 221.479268 33.994653 
L 222.242084 33.103149 
L 223.0049 33.842445 
L 223.767716 32.472573 
L 224.530532 33.320589 
L 225.293348 32.581293 
L 226.056165 33.559773 
L 226.818981 33.907677 
L 227.581797 32.276877 
L 228.344613 32.168157 
L 229.870245 32.776989 
L 230.633061 32.842221 
L 231.395877 32.429085 
L 232.92151 32.429085 
L 233.684326 32.755245 
L 234.447142 32.189901 
L 235.209958 32.581293 
L 235.972774 32.211645 
L 236.73559 32.668269 
L 237.498407 32.037693 
L 238.261223 33.451053 
L 239.024039 32.298621 
L 239.786855 32.820477 
L 240.549671 31.820253 
L 241.312487 32.668269 
L 242.075303 31.950717 
L 242.838119 32.124669 
L 243.600936 32.450829 
L 244.363752 32.146413 
L 245.126568 31.994205 
L 248.177832 31.841997 
L 248.940648 32.189901 
L 249.703465 32.211645 
L 250.466281 31.928973 
L 251.991913 32.776989 
L 252.754729 32.037693 
L 253.517545 33.124893 
L 254.280361 32.124669 
L 255.043178 31.820253 
L 255.805994 32.146413 
L 256.56881 32.842221 
L 258.094442 31.928973 
L 258.857258 32.537805 
L 259.620074 31.798509 
L 260.38289 31.668045 
L 261.145707 31.950717 
L 261.908523 31.841997 
L 263.434155 32.124669 
L 264.196971 31.602813 
L 265.722603 31.798509 
L 266.48542 31.472349 
L 267.248236 31.885485 
L 268.011052 31.885485 
L 269.536684 31.407117 
L 270.2995 32.037693 
L 271.062316 32.363853 
L 271.825132 33.429309 
L 272.587949 32.407341 
L 273.350765 31.885485 
L 274.113581 32.472573 
L 274.876397 32.081181 
L 275.639213 31.537581 
L 276.402029 32.363853 
L 277.164845 31.624557 
L 277.927661 31.646301 
L 278.690478 32.385597 
L 279.453294 32.168157 
L 280.21611 32.885709 
L 280.978926 31.689789 
L 281.741742 31.776765 
L 282.504558 31.189677 
L 283.267374 31.537581 
L 284.030191 32.668269 
L 284.793007 31.581069 
L 286.318639 31.559325 
L 287.081455 32.320365 
L 287.844271 31.450605 
L 288.607087 31.755021 
L 289.369903 31.276653 
L 290.13272 32.037693 
L 290.895536 31.624557 
L 291.658352 32.189901 
L 292.421168 32.168157 
L 293.183984 31.341885 
L 293.9468 31.841997 
L 294.709616 30.928749 
L 295.472433 31.341885 
L 296.235249 32.950941 
L 296.998065 31.298397 
L 297.760881 32.015949 
L 299.286513 31.341885 
L 300.049329 31.320141 
L 300.812145 30.993981 
L 301.574962 31.233165 
L 302.337778 31.798509 
L 303.86341 31.668045 
L 305.389042 31.363629 
L 306.151858 31.624557 
L 306.914674 31.298397 
L 307.677491 32.081181 
L 308.440307 31.341885 
L 309.203123 31.298397 
L 309.965939 31.559325 
L 310.728755 31.189677 
L 311.491571 31.254909 
L 312.254387 31.776765 
L 313.017204 32.102925 
L 313.78002 31.689789 
L 314.542836 31.146189 
L 315.305652 30.863517 
L 316.068468 31.841997 
L 316.831284 32.233389 
L 317.5941 31.059213 
L 318.356916 31.537581 
L 319.119733 30.972237 
L 319.882549 30.624333 
L 322.170997 31.581069 
L 322.933813 31.624557 
L 323.696629 30.972237 
L 324.459445 30.776541 
L 325.222262 31.733277 
L 326.747894 30.537357 
L 327.51071 30.950493 
L 328.273526 32.037693 
L 329.036342 32.624781 
L 329.799158 31.494093 
L 330.561975 31.494093 
L 331.324791 31.950717 
L 332.087607 31.646301 
L 332.850423 32.559549 
L 333.613239 30.798285 
L 334.376055 31.407117 
L 335.138871 31.211421 
L 335.901687 31.950717 
L 336.664504 30.863517 
L 337.42732 31.211421 
L 338.190136 31.341885 
L 338.952952 30.776541 
L 339.715768 30.885261 
L 340.478584 31.907229 
L 341.2414 31.841997 
L 342.004217 30.907005 
L 342.767033 32.429085 
L 343.529849 31.146189 
L 344.292665 31.581069 
L 345.055481 31.189677 
L 346.581113 31.428861 
L 348.106746 31.037469 
L 348.869562 31.885485 
L 349.632378 31.167933 
L 350.395194 30.993981 
L 351.15801 32.363853 
L 351.920826 31.515837 
L 352.683642 32.885709 
L 354.209275 31.646301 
L 354.972091 30.646077 
L 356.497723 31.189677 
L 357.260539 30.928749 
L 358.023355 34.712205 
L 358.786171 31.428861 
L 359.548988 31.015725 
L 360.311804 31.189677 
L 361.07462 30.559101 
L 361.837436 30.428637 
L 362.600252 31.602813 
L 363.363068 30.667821 
L 363.363068 30.667821 
" style="fill:none;stroke:#ff7f0e;stroke-linecap:square;stroke-width:1.5;"/>
   </g>
   <g id="patch_3">
    <path d="M 43.78125 239.758125 
L 43.78125 22.318125 
" style="fill:none;stroke:#000000;stroke-linecap:square;stroke-linejoin:miter;stroke-width:0.8;"/>
   </g>
   <g id="patch_4">
    <path d="M 378.58125 239.758125 
L 378.58125 22.318125 
" style="fill:none;stroke:#000000;stroke-linecap:square;stroke-linejoin:miter;stroke-width:0.8;"/>
   </g>
   <g id="patch_5">
    <path d="M 43.78125 239.758125 
L 378.58125 239.758125 
" style="fill:none;stroke:#000000;stroke-linecap:square;stroke-linejoin:miter;stroke-width:0.8;"/>
   </g>
   <g id="patch_6">
    <path d="M 43.78125 22.318125 
L 378.58125 22.318125 
" style="fill:none;stroke:#000000;stroke-linecap:square;stroke-linejoin:miter;stroke-width:0.8;"/>
   </g>
   <g id="text_18">
    <!-- accuracy -->
    <g transform="translate(184.11 16.318125)scale(0.12 -0.12)">
     <use xlink:href="#DejaVuSans-61"/>
     <use x="61.279297" xlink:href="#DejaVuSans-63"/>
     <use x="116.259766" xlink:href="#DejaVuSans-63"/>
     <use x="171.240234" xlink:href="#DejaVuSans-75"/>
     <use x="234.619141" xlink:href="#DejaVuSans-72"/>
     <use x="275.732422" xlink:href="#DejaVuSans-61"/>
     <use x="337.011719" xlink:href="#DejaVuSans-63"/>
     <use x="391.992188" xlink:href="#DejaVuSans-79"/>
    </g>
   </g>
   <g id="legend_1">
    <g id="patch_7">
     <path d="M 282.38125 234.758125 
L 371.58125 234.758125 
Q 373.58125 234.758125 373.58125 232.758125 
L 373.58125 204.401875 
Q 373.58125 202.401875 371.58125 202.401875 
L 282.38125 202.401875 
Q 280.38125 202.401875 280.38125 204.401875 
L 280.38125 232.758125 
Q 280.38125 234.758125 282.38125 234.758125 
z
" style="fill:#ffffff;opacity:0.8;stroke:#cccccc;stroke-linejoin:miter;"/>
    </g>
    <g id="line2d_18">
     <path d="M 284.38125 210.500312 
L 304.38125 210.500312 
" style="fill:none;stroke:#1f77b4;stroke-linecap:square;stroke-width:1.5;"/>
    </g>
    <g id="line2d_19"/>
    <g id="text_19">
     <!-- training set -->
     <g transform="translate(312.38125 214.000312)scale(0.1 -0.1)">
      <defs>
       <path d="M 603 3500 
L 1178 3500 
L 1178 0 
L 603 0 
L 603 3500 
z
M 603 4863 
L 1178 4863 
L 1178 4134 
L 603 4134 
L 603 4863 
z
" id="DejaVuSans-69" transform="scale(0.015625)"/>
       <path d="M 2906 1791 
Q 2906 2416 2648 2759 
Q 2391 3103 1925 3103 
Q 1463 3103 1205 2759 
Q 947 2416 947 1791 
Q 947 1169 1205 825 
Q 1463 481 1925 481 
Q 2391 481 2648 825 
Q 2906 1169 2906 1791 
z
M 3481 434 
Q 3481 -459 3084 -895 
Q 2688 -1331 1869 -1331 
Q 1566 -1331 1297 -1286 
Q 1028 -1241 775 -1147 
L 775 -588 
Q 1028 -725 1275 -790 
Q 1522 -856 1778 -856 
Q 2344 -856 2625 -561 
Q 2906 -266 2906 331 
L 2906 616 
Q 2728 306 2450 153 
Q 2172 0 1784 0 
Q 1141 0 747 490 
Q 353 981 353 1791 
Q 353 2603 747 3093 
Q 1141 3584 1784 3584 
Q 2172 3584 2450 3431 
Q 2728 3278 2906 2969 
L 2906 3500 
L 3481 3500 
L 3481 434 
z
" id="DejaVuSans-67" transform="scale(0.015625)"/>
       <path id="DejaVuSans-20" transform="scale(0.015625)"/>
       <path d="M 2834 3397 
L 2834 2853 
Q 2591 2978 2328 3040 
Q 2066 3103 1784 3103 
Q 1356 3103 1142 2972 
Q 928 2841 928 2578 
Q 928 2378 1081 2264 
Q 1234 2150 1697 2047 
L 1894 2003 
Q 2506 1872 2764 1633 
Q 3022 1394 3022 966 
Q 3022 478 2636 193 
Q 2250 -91 1575 -91 
Q 1294 -91 989 -36 
Q 684 19 347 128 
L 347 722 
Q 666 556 975 473 
Q 1284 391 1588 391 
Q 1994 391 2212 530 
Q 2431 669 2431 922 
Q 2431 1156 2273 1281 
Q 2116 1406 1581 1522 
L 1381 1569 
Q 847 1681 609 1914 
Q 372 2147 372 2553 
Q 372 3047 722 3315 
Q 1072 3584 1716 3584 
Q 2034 3584 2315 3537 
Q 2597 3491 2834 3397 
z
" id="DejaVuSans-73" transform="scale(0.015625)"/>
       <path d="M 3597 1894 
L 3597 1613 
L 953 1613 
Q 991 1019 1311 708 
Q 1631 397 2203 397 
Q 2534 397 2845 478 
Q 3156 559 3463 722 
L 3463 178 
Q 3153 47 2828 -22 
Q 2503 -91 2169 -91 
Q 1331 -91 842 396 
Q 353 884 353 1716 
Q 353 2575 817 3079 
Q 1281 3584 2069 3584 
Q 2775 3584 3186 3129 
Q 3597 2675 3597 1894 
z
M 3022 2063 
Q 3016 2534 2758 2815 
Q 2500 3097 2075 3097 
Q 1594 3097 1305 2825 
Q 1016 2553 972 2059 
L 3022 2063 
z
" id="DejaVuSans-65" transform="scale(0.015625)"/>
      </defs>
      <use xlink:href="#DejaVuSans-74"/>
      <use x="39.208984" xlink:href="#DejaVuSans-72"/>
      <use x="80.322266" xlink:href="#DejaVuSans-61"/>
      <use x="141.601562" xlink:href="#DejaVuSans-69"/>
      <use x="169.384766" xlink:href="#DejaVuSans-6e"/>
      <use x="232.763672" xlink:href="#DejaVuSans-69"/>
      <use x="260.546875" xlink:href="#DejaVuSans-6e"/>
      <use x="323.925781" xlink:href="#DejaVuSans-67"/>
      <use x="387.402344" xlink:href="#DejaVuSans-20"/>
      <use x="419.189453" xlink:href="#DejaVuSans-73"/>
      <use x="471.289062" xlink:href="#DejaVuSans-65"/>
      <use x="532.8125" xlink:href="#DejaVuSans-74"/>
     </g>
    </g>
    <g id="line2d_20">
     <path d="M 284.38125 225.178437 
L 304.38125 225.178437 
" style="fill:none;stroke:#ff7f0e;stroke-linecap:square;stroke-width:1.5;"/>
    </g>
    <g id="line2d_21"/>
    <g id="text_20">
     <!-- test set -->
     <g transform="translate(312.38125 228.678437)scale(0.1 -0.1)">
      <use xlink:href="#DejaVuSans-74"/>
      <use x="39.208984" xlink:href="#DejaVuSans-65"/>
      <use x="100.732422" xlink:href="#DejaVuSans-73"/>
      <use x="152.832031" xlink:href="#DejaVuSans-74"/>
      <use x="192.041016" xlink:href="#DejaVuSans-20"/>
      <use x="223.828125" xlink:href="#DejaVuSans-73"/>
      <use x="275.927734" xlink:href="#DejaVuSans-65"/>
      <use x="337.451172" xlink:href="#DejaVuSans-74"/>
     </g>
    </g>
   </g>
  </g>
 </g>
 <defs>
  <clipPath id="pc2ce5d3801">
   <rect height="217.44" width="334.8" x="43.78125" y="22.318125"/>
  </clipPath>
 </defs>
</svg>
