<?xml version="1.0" encoding="utf-8" standalone="no"?>
<!DOCTYPE svg PUBLIC "-//W3C//DTD SVG 1.1//EN"
  "http://www.w3.org/Graphics/SVG/1.1/DTD/svg11.dtd">
<svg height="277.314375pt" version="1.1" viewBox="0 0 385.78125 277.314375" width="385.78125pt" xmlns="http://www.w3.org/2000/svg" xmlns:xlink="http://www.w3.org/1999/xlink">
 <metadata>
  <rdf:RDF xmlns:cc="http://creativecommons.org/ns#" xmlns:dc="http://purl.org/dc/elements/1.1/" xmlns:rdf="http://www.w3.org/1999/02/22-rdf-syntax-ns#">
   <cc:Work>
    <dc:type rdf:resource="http://purl.org/dc/dcmitype/StillImage"/>
    <dc:date>2021-05-22T23:57:51.847497</dc:date>
    <dc:format>image/svg+xml</dc:format>
    <dc:creator>
     <cc:Agent>
      <dc:title>Matplotlib v3.4.1, https://matplotlib.org/</dc:title>
     </cc:Agent>
    </dc:creator>
   </cc:Work>
  </rdf:RDF>
 </metadata>
 <defs>
  <style type="text/css">*{stroke-linecap:butt;stroke-linejoin:round;}</style>
 </defs>
 <g id="figure_1">
  <g id="patch_1">
   <path d="M 0 277.314375 
L 385.78125 277.314375 
L 385.78125 0 
L 0 0 
z
" style="fill:none;"/>
  </g>
  <g id="axes_1">
   <g id="patch_2">
    <path d="M 43.78125 239.758125 
L 378.58125 239.758125 
L 378.58125 22.318125 
L 43.78125 22.318125 
z
" style="fill:#ffffff;"/>
   </g>
   <g id="matplotlib.axis_1">
    <g id="xtick_1">
     <g id="line2d_1">
      <defs>
       <path d="M 0 0 
L 0 3.5 
" id="mede950882d" style="stroke:#000000;stroke-width:0.8;"/>
      </defs>
      <g>
       <use style="stroke:#000000;stroke-width:0.8;" x="58.999432" xlink:href="#mede950882d" y="239.758125"/>
      </g>
     </g>
     <g id="text_1">
      <!-- 0 -->
      <g transform="translate(55.818182 254.356562)scale(0.1 -0.1)">
       <defs>
        <path d="M 2034 4250 
Q 1547 4250 1301 3770 
Q 1056 3291 1056 2328 
Q 1056 1369 1301 889 
Q 1547 409 2034 409 
Q 2525 409 2770 889 
Q 3016 1369 3016 2328 
Q 3016 3291 2770 3770 
Q 2525 4250 2034 4250 
z
M 2034 4750 
Q 2819 4750 3233 4129 
Q 3647 3509 3647 2328 
Q 3647 1150 3233 529 
Q 2819 -91 2034 -91 
Q 1250 -91 836 529 
Q 422 1150 422 2328 
Q 422 3509 836 4129 
Q 1250 4750 2034 4750 
z
" id="DejaVuSans-30" transform="scale(0.015625)"/>
       </defs>
       <use xlink:href="#DejaVuSans-30"/>
      </g>
     </g>
    </g>
    <g id="xtick_2">
     <g id="line2d_2">
      <g>
       <use style="stroke:#000000;stroke-width:0.8;" x="97.140238" xlink:href="#mede950882d" y="239.758125"/>
      </g>
     </g>
     <g id="text_2">
      <!-- 500 -->
      <g transform="translate(87.596488 254.356562)scale(0.1 -0.1)">
       <defs>
        <path d="M 691 4666 
L 3169 4666 
L 3169 4134 
L 1269 4134 
L 1269 2991 
Q 1406 3038 1543 3061 
Q 1681 3084 1819 3084 
Q 2600 3084 3056 2656 
Q 3513 2228 3513 1497 
Q 3513 744 3044 326 
Q 2575 -91 1722 -91 
Q 1428 -91 1123 -41 
Q 819 9 494 109 
L 494 744 
Q 775 591 1075 516 
Q 1375 441 1709 441 
Q 2250 441 2565 725 
Q 2881 1009 2881 1497 
Q 2881 1984 2565 2268 
Q 2250 2553 1709 2553 
Q 1456 2553 1204 2497 
Q 953 2441 691 2322 
L 691 4666 
z
" id="DejaVuSans-35" transform="scale(0.015625)"/>
       </defs>
       <use xlink:href="#DejaVuSans-35"/>
       <use x="63.623047" xlink:href="#DejaVuSans-30"/>
       <use x="127.246094" xlink:href="#DejaVuSans-30"/>
      </g>
     </g>
    </g>
    <g id="xtick_3">
     <g id="line2d_3">
      <g>
       <use style="stroke:#000000;stroke-width:0.8;" x="135.281045" xlink:href="#mede950882d" y="239.758125"/>
      </g>
     </g>
     <g id="text_3">
      <!-- 1000 -->
      <g transform="translate(122.556045 254.356562)scale(0.1 -0.1)">
       <defs>
        <path d="M 794 531 
L 1825 531 
L 1825 4091 
L 703 3866 
L 703 4441 
L 1819 4666 
L 2450 4666 
L 2450 531 
L 3481 531 
L 3481 0 
L 794 0 
L 794 531 
z
" id="DejaVuSans-31" transform="scale(0.015625)"/>
       </defs>
       <use xlink:href="#DejaVuSans-31"/>
       <use x="63.623047" xlink:href="#DejaVuSans-30"/>
       <use x="127.246094" xlink:href="#DejaVuSans-30"/>
       <use x="190.869141" xlink:href="#DejaVuSans-30"/>
      </g>
     </g>
    </g>
    <g id="xtick_4">
     <g id="line2d_4">
      <g>
       <use style="stroke:#000000;stroke-width:0.8;" x="173.421852" xlink:href="#mede950882d" y="239.758125"/>
      </g>
     </g>
     <g id="text_4">
      <!-- 1500 -->
      <g transform="translate(160.696852 254.356562)scale(0.1 -0.1)">
       <use xlink:href="#DejaVuSans-31"/>
       <use x="63.623047" xlink:href="#DejaVuSans-35"/>
       <use x="127.246094" xlink:href="#DejaVuSans-30"/>
       <use x="190.869141" xlink:href="#DejaVuSans-30"/>
      </g>
     </g>
    </g>
    <g id="xtick_5">
     <g id="line2d_5">
      <g>
       <use style="stroke:#000000;stroke-width:0.8;" x="211.562658" xlink:href="#mede950882d" y="239.758125"/>
      </g>
     </g>
     <g id="text_5">
      <!-- 2000 -->
      <g transform="translate(198.837658 254.356562)scale(0.1 -0.1)">
       <defs>
        <path d="M 1228 531 
L 3431 531 
L 3431 0 
L 469 0 
L 469 531 
Q 828 903 1448 1529 
Q 2069 2156 2228 2338 
Q 2531 2678 2651 2914 
Q 2772 3150 2772 3378 
Q 2772 3750 2511 3984 
Q 2250 4219 1831 4219 
Q 1534 4219 1204 4116 
Q 875 4013 500 3803 
L 500 4441 
Q 881 4594 1212 4672 
Q 1544 4750 1819 4750 
Q 2544 4750 2975 4387 
Q 3406 4025 3406 3419 
Q 3406 3131 3298 2873 
Q 3191 2616 2906 2266 
Q 2828 2175 2409 1742 
Q 1991 1309 1228 531 
z
" id="DejaVuSans-32" transform="scale(0.015625)"/>
       </defs>
       <use xlink:href="#DejaVuSans-32"/>
       <use x="63.623047" xlink:href="#DejaVuSans-30"/>
       <use x="127.246094" xlink:href="#DejaVuSans-30"/>
       <use x="190.869141" xlink:href="#DejaVuSans-30"/>
      </g>
     </g>
    </g>
    <g id="xtick_6">
     <g id="line2d_6">
      <g>
       <use style="stroke:#000000;stroke-width:0.8;" x="249.703465" xlink:href="#mede950882d" y="239.758125"/>
      </g>
     </g>
     <g id="text_6">
      <!-- 2500 -->
      <g transform="translate(236.978465 254.356562)scale(0.1 -0.1)">
       <use xlink:href="#DejaVuSans-32"/>
       <use x="63.623047" xlink:href="#DejaVuSans-35"/>
       <use x="127.246094" xlink:href="#DejaVuSans-30"/>
       <use x="190.869141" xlink:href="#DejaVuSans-30"/>
      </g>
     </g>
    </g>
    <g id="xtick_7">
     <g id="line2d_7">
      <g>
       <use style="stroke:#000000;stroke-width:0.8;" x="287.844271" xlink:href="#mede950882d" y="239.758125"/>
      </g>
     </g>
     <g id="text_7">
      <!-- 3000 -->
      <g transform="translate(275.119271 254.356562)scale(0.1 -0.1)">
       <defs>
        <path d="M 2597 2516 
Q 3050 2419 3304 2112 
Q 3559 1806 3559 1356 
Q 3559 666 3084 287 
Q 2609 -91 1734 -91 
Q 1441 -91 1130 -33 
Q 819 25 488 141 
L 488 750 
Q 750 597 1062 519 
Q 1375 441 1716 441 
Q 2309 441 2620 675 
Q 2931 909 2931 1356 
Q 2931 1769 2642 2001 
Q 2353 2234 1838 2234 
L 1294 2234 
L 1294 2753 
L 1863 2753 
Q 2328 2753 2575 2939 
Q 2822 3125 2822 3475 
Q 2822 3834 2567 4026 
Q 2313 4219 1838 4219 
Q 1578 4219 1281 4162 
Q 984 4106 628 3988 
L 628 4550 
Q 988 4650 1302 4700 
Q 1616 4750 1894 4750 
Q 2613 4750 3031 4423 
Q 3450 4097 3450 3541 
Q 3450 3153 3228 2886 
Q 3006 2619 2597 2516 
z
" id="DejaVuSans-33" transform="scale(0.015625)"/>
       </defs>
       <use xlink:href="#DejaVuSans-33"/>
       <use x="63.623047" xlink:href="#DejaVuSans-30"/>
       <use x="127.246094" xlink:href="#DejaVuSans-30"/>
       <use x="190.869141" xlink:href="#DejaVuSans-30"/>
      </g>
     </g>
    </g>
    <g id="xtick_8">
     <g id="line2d_8">
      <g>
       <use style="stroke:#000000;stroke-width:0.8;" x="325.985078" xlink:href="#mede950882d" y="239.758125"/>
      </g>
     </g>
     <g id="text_8">
      <!-- 3500 -->
      <g transform="translate(313.260078 254.356562)scale(0.1 -0.1)">
       <use xlink:href="#DejaVuSans-33"/>
       <use x="63.623047" xlink:href="#DejaVuSans-35"/>
       <use x="127.246094" xlink:href="#DejaVuSans-30"/>
       <use x="190.869141" xlink:href="#DejaVuSans-30"/>
      </g>
     </g>
    </g>
    <g id="xtick_9">
     <g id="line2d_9">
      <g>
       <use style="stroke:#000000;stroke-width:0.8;" x="364.125884" xlink:href="#mede950882d" y="239.758125"/>
      </g>
     </g>
     <g id="text_9">
      <!-- 4000 -->
      <g transform="translate(351.400884 254.356562)scale(0.1 -0.1)">
       <defs>
        <path d="M 2419 4116 
L 825 1625 
L 2419 1625 
L 2419 4116 
z
M 2253 4666 
L 3047 4666 
L 3047 1625 
L 3713 1625 
L 3713 1100 
L 3047 1100 
L 3047 0 
L 2419 0 
L 2419 1100 
L 313 1100 
L 313 1709 
L 2253 4666 
z
" id="DejaVuSans-34" transform="scale(0.015625)"/>
       </defs>
       <use xlink:href="#DejaVuSans-34"/>
       <use x="63.623047" xlink:href="#DejaVuSans-30"/>
       <use x="127.246094" xlink:href="#DejaVuSans-30"/>
       <use x="190.869141" xlink:href="#DejaVuSans-30"/>
      </g>
     </g>
    </g>
    <g id="text_10">
     <!-- count -->
     <g transform="translate(197.075 268.034687)scale(0.1 -0.1)">
      <defs>
       <path d="M 3122 3366 
L 3122 2828 
Q 2878 2963 2633 3030 
Q 2388 3097 2138 3097 
Q 1578 3097 1268 2742 
Q 959 2388 959 1747 
Q 959 1106 1268 751 
Q 1578 397 2138 397 
Q 2388 397 2633 464 
Q 2878 531 3122 666 
L 3122 134 
Q 2881 22 2623 -34 
Q 2366 -91 2075 -91 
Q 1284 -91 818 406 
Q 353 903 353 1747 
Q 353 2603 823 3093 
Q 1294 3584 2113 3584 
Q 2378 3584 2631 3529 
Q 2884 3475 3122 3366 
z
" id="DejaVuSans-63" transform="scale(0.015625)"/>
       <path d="M 1959 3097 
Q 1497 3097 1228 2736 
Q 959 2375 959 1747 
Q 959 1119 1226 758 
Q 1494 397 1959 397 
Q 2419 397 2687 759 
Q 2956 1122 2956 1747 
Q 2956 2369 2687 2733 
Q 2419 3097 1959 3097 
z
M 1959 3584 
Q 2709 3584 3137 3096 
Q 3566 2609 3566 1747 
Q 3566 888 3137 398 
Q 2709 -91 1959 -91 
Q 1206 -91 779 398 
Q 353 888 353 1747 
Q 353 2609 779 3096 
Q 1206 3584 1959 3584 
z
" id="DejaVuSans-6f" transform="scale(0.015625)"/>
       <path d="M 544 1381 
L 544 3500 
L 1119 3500 
L 1119 1403 
Q 1119 906 1312 657 
Q 1506 409 1894 409 
Q 2359 409 2629 706 
Q 2900 1003 2900 1516 
L 2900 3500 
L 3475 3500 
L 3475 0 
L 2900 0 
L 2900 538 
Q 2691 219 2414 64 
Q 2138 -91 1772 -91 
Q 1169 -91 856 284 
Q 544 659 544 1381 
z
M 1991 3584 
L 1991 3584 
z
" id="DejaVuSans-75" transform="scale(0.015625)"/>
       <path d="M 3513 2113 
L 3513 0 
L 2938 0 
L 2938 2094 
Q 2938 2591 2744 2837 
Q 2550 3084 2163 3084 
Q 1697 3084 1428 2787 
Q 1159 2491 1159 1978 
L 1159 0 
L 581 0 
L 581 3500 
L 1159 3500 
L 1159 2956 
Q 1366 3272 1645 3428 
Q 1925 3584 2291 3584 
Q 2894 3584 3203 3211 
Q 3513 2838 3513 2113 
z
" id="DejaVuSans-6e" transform="scale(0.015625)"/>
       <path d="M 1172 4494 
L 1172 3500 
L 2356 3500 
L 2356 3053 
L 1172 3053 
L 1172 1153 
Q 1172 725 1289 603 
Q 1406 481 1766 481 
L 2356 481 
L 2356 0 
L 1766 0 
Q 1100 0 847 248 
Q 594 497 594 1153 
L 594 3053 
L 172 3053 
L 172 3500 
L 594 3500 
L 594 4494 
L 1172 4494 
z
" id="DejaVuSans-74" transform="scale(0.015625)"/>
      </defs>
      <use xlink:href="#DejaVuSans-63"/>
      <use x="54.980469" xlink:href="#DejaVuSans-6f"/>
      <use x="116.162109" xlink:href="#DejaVuSans-75"/>
      <use x="179.541016" xlink:href="#DejaVuSans-6e"/>
      <use x="242.919922" xlink:href="#DejaVuSans-74"/>
     </g>
    </g>
   </g>
   <g id="matplotlib.axis_2">
    <g id="ytick_1">
     <g id="line2d_10">
      <defs>
       <path d="M 0 0 
L -3.5 0 
" id="maf021718c2" style="stroke:#000000;stroke-width:0.8;"/>
      </defs>
      <g>
       <use style="stroke:#000000;stroke-width:0.8;" x="43.78125" xlink:href="#maf021718c2" y="239.758125"/>
      </g>
     </g>
     <g id="text_11">
      <!-- 0.0 -->
      <g transform="translate(20.878125 243.557344)scale(0.1 -0.1)">
       <defs>
        <path d="M 684 794 
L 1344 794 
L 1344 0 
L 684 0 
L 684 794 
z
" id="DejaVuSans-2e" transform="scale(0.015625)"/>
       </defs>
       <use xlink:href="#DejaVuSans-30"/>
       <use x="63.623047" xlink:href="#DejaVuSans-2e"/>
       <use x="95.410156" xlink:href="#DejaVuSans-30"/>
      </g>
     </g>
    </g>
    <g id="ytick_2">
     <g id="line2d_11">
      <g>
       <use style="stroke:#000000;stroke-width:0.8;" x="43.78125" xlink:href="#maf021718c2" y="196.270125"/>
      </g>
     </g>
     <g id="text_12">
      <!-- 0.2 -->
      <g transform="translate(20.878125 200.069344)scale(0.1 -0.1)">
       <use xlink:href="#DejaVuSans-30"/>
       <use x="63.623047" xlink:href="#DejaVuSans-2e"/>
       <use x="95.410156" xlink:href="#DejaVuSans-32"/>
      </g>
     </g>
    </g>
    <g id="ytick_3">
     <g id="line2d_12">
      <g>
       <use style="stroke:#000000;stroke-width:0.8;" x="43.78125" xlink:href="#maf021718c2" y="152.782125"/>
      </g>
     </g>
     <g id="text_13">
      <!-- 0.4 -->
      <g transform="translate(20.878125 156.581344)scale(0.1 -0.1)">
       <use xlink:href="#DejaVuSans-30"/>
       <use x="63.623047" xlink:href="#DejaVuSans-2e"/>
       <use x="95.410156" xlink:href="#DejaVuSans-34"/>
      </g>
     </g>
    </g>
    <g id="ytick_4">
     <g id="line2d_13">
      <g>
       <use style="stroke:#000000;stroke-width:0.8;" x="43.78125" xlink:href="#maf021718c2" y="109.294125"/>
      </g>
     </g>
     <g id="text_14">
      <!-- 0.6 -->
      <g transform="translate(20.878125 113.093344)scale(0.1 -0.1)">
       <defs>
        <path d="M 2113 2584 
Q 1688 2584 1439 2293 
Q 1191 2003 1191 1497 
Q 1191 994 1439 701 
Q 1688 409 2113 409 
Q 2538 409 2786 701 
Q 3034 994 3034 1497 
Q 3034 2003 2786 2293 
Q 2538 2584 2113 2584 
z
M 3366 4563 
L 3366 3988 
Q 3128 4100 2886 4159 
Q 2644 4219 2406 4219 
Q 1781 4219 1451 3797 
Q 1122 3375 1075 2522 
Q 1259 2794 1537 2939 
Q 1816 3084 2150 3084 
Q 2853 3084 3261 2657 
Q 3669 2231 3669 1497 
Q 3669 778 3244 343 
Q 2819 -91 2113 -91 
Q 1303 -91 875 529 
Q 447 1150 447 2328 
Q 447 3434 972 4092 
Q 1497 4750 2381 4750 
Q 2619 4750 2861 4703 
Q 3103 4656 3366 4563 
z
" id="DejaVuSans-36" transform="scale(0.015625)"/>
       </defs>
       <use xlink:href="#DejaVuSans-30"/>
       <use x="63.623047" xlink:href="#DejaVuSans-2e"/>
       <use x="95.410156" xlink:href="#DejaVuSans-36"/>
      </g>
     </g>
    </g>
    <g id="ytick_5">
     <g id="line2d_14">
      <g>
       <use style="stroke:#000000;stroke-width:0.8;" x="43.78125" xlink:href="#maf021718c2" y="65.806125"/>
      </g>
     </g>
     <g id="text_15">
      <!-- 0.8 -->
      <g transform="translate(20.878125 69.605344)scale(0.1 -0.1)">
       <defs>
        <path d="M 2034 2216 
Q 1584 2216 1326 1975 
Q 1069 1734 1069 1313 
Q 1069 891 1326 650 
Q 1584 409 2034 409 
Q 2484 409 2743 651 
Q 3003 894 3003 1313 
Q 3003 1734 2745 1975 
Q 2488 2216 2034 2216 
z
M 1403 2484 
Q 997 2584 770 2862 
Q 544 3141 544 3541 
Q 544 4100 942 4425 
Q 1341 4750 2034 4750 
Q 2731 4750 3128 4425 
Q 3525 4100 3525 3541 
Q 3525 3141 3298 2862 
Q 3072 2584 2669 2484 
Q 3125 2378 3379 2068 
Q 3634 1759 3634 1313 
Q 3634 634 3220 271 
Q 2806 -91 2034 -91 
Q 1263 -91 848 271 
Q 434 634 434 1313 
Q 434 1759 690 2068 
Q 947 2378 1403 2484 
z
M 1172 3481 
Q 1172 3119 1398 2916 
Q 1625 2713 2034 2713 
Q 2441 2713 2670 2916 
Q 2900 3119 2900 3481 
Q 2900 3844 2670 4047 
Q 2441 4250 2034 4250 
Q 1625 4250 1398 4047 
Q 1172 3844 1172 3481 
z
" id="DejaVuSans-38" transform="scale(0.015625)"/>
       </defs>
       <use xlink:href="#DejaVuSans-30"/>
       <use x="63.623047" xlink:href="#DejaVuSans-2e"/>
       <use x="95.410156" xlink:href="#DejaVuSans-38"/>
      </g>
     </g>
    </g>
    <g id="ytick_6">
     <g id="line2d_15">
      <g>
       <use style="stroke:#000000;stroke-width:0.8;" x="43.78125" xlink:href="#maf021718c2" y="22.318125"/>
      </g>
     </g>
     <g id="text_16">
      <!-- 1.0 -->
      <g transform="translate(20.878125 26.117344)scale(0.1 -0.1)">
       <use xlink:href="#DejaVuSans-31"/>
       <use x="63.623047" xlink:href="#DejaVuSans-2e"/>
       <use x="95.410156" xlink:href="#DejaVuSans-30"/>
      </g>
     </g>
    </g>
    <g id="text_17">
     <!-- accuracy -->
     <g transform="translate(14.798438 153.5975)rotate(-90)scale(0.1 -0.1)">
      <defs>
       <path d="M 2194 1759 
Q 1497 1759 1228 1600 
Q 959 1441 959 1056 
Q 959 750 1161 570 
Q 1363 391 1709 391 
Q 2188 391 2477 730 
Q 2766 1069 2766 1631 
L 2766 1759 
L 2194 1759 
z
M 3341 1997 
L 3341 0 
L 2766 0 
L 2766 531 
Q 2569 213 2275 61 
Q 1981 -91 1556 -91 
Q 1019 -91 701 211 
Q 384 513 384 1019 
Q 384 1609 779 1909 
Q 1175 2209 1959 2209 
L 2766 2209 
L 2766 2266 
Q 2766 2663 2505 2880 
Q 2244 3097 1772 3097 
Q 1472 3097 1187 3025 
Q 903 2953 641 2809 
L 641 3341 
Q 956 3463 1253 3523 
Q 1550 3584 1831 3584 
Q 2591 3584 2966 3190 
Q 3341 2797 3341 1997 
z
" id="DejaVuSans-61" transform="scale(0.015625)"/>
       <path d="M 2631 2963 
Q 2534 3019 2420 3045 
Q 2306 3072 2169 3072 
Q 1681 3072 1420 2755 
Q 1159 2438 1159 1844 
L 1159 0 
L 581 0 
L 581 3500 
L 1159 3500 
L 1159 2956 
Q 1341 3275 1631 3429 
Q 1922 3584 2338 3584 
Q 2397 3584 2469 3576 
Q 2541 3569 2628 3553 
L 2631 2963 
z
" id="DejaVuSans-72" transform="scale(0.015625)"/>
       <path d="M 2059 -325 
Q 1816 -950 1584 -1140 
Q 1353 -1331 966 -1331 
L 506 -1331 
L 506 -850 
L 844 -850 
Q 1081 -850 1212 -737 
Q 1344 -625 1503 -206 
L 1606 56 
L 191 3500 
L 800 3500 
L 1894 763 
L 2988 3500 
L 3597 3500 
L 2059 -325 
z
" id="DejaVuSans-79" transform="scale(0.015625)"/>
      </defs>
      <use xlink:href="#DejaVuSans-61"/>
      <use x="61.279297" xlink:href="#DejaVuSans-63"/>
      <use x="116.259766" xlink:href="#DejaVuSans-63"/>
      <use x="171.240234" xlink:href="#DejaVuSans-75"/>
      <use x="234.619141" xlink:href="#DejaVuSans-72"/>
      <use x="275.732422" xlink:href="#DejaVuSans-61"/>
      <use x="337.011719" xlink:href="#DejaVuSans-63"/>
      <use x="391.992188" xlink:href="#DejaVuSans-79"/>
     </g>
    </g>
   </g>
   <g id="line2d_16">
    <path clip-path="url(#p09d07393d5)" d="M 58.999432 222.362925 
L 59.762248 187.572525 
L 61.28788 174.526125 
L 62.050696 141.910125 
L 62.813512 139.735725 
L 63.576329 126.689325 
L 64.339145 111.468525 
L 65.101961 126.689325 
L 65.864777 109.294125 
L 66.627593 109.294125 
L 67.390409 100.596525 
L 68.153225 107.119725 
L 68.916042 107.119725 
L 69.678858 98.422125 
L 70.441674 109.294125 
L 71.20449 98.422125 
L 71.967306 94.073325 
L 72.730122 98.422125 
L 73.492938 100.596525 
L 75.018571 96.247725 
L 75.781387 83.201325 
L 76.544203 83.201325 
L 77.307019 89.724525 
L 78.069835 91.898925 
L 78.832651 63.631725 
L 79.595467 67.980525 
L 80.358283 87.550125 
L 81.1211 91.898925 
L 82.646732 83.201325 
L 83.409548 87.550125 
L 84.172364 83.201325 
L 84.93518 61.457325 
L 85.697996 76.678125 
L 86.460813 74.503725 
L 87.223629 67.980525 
L 87.986445 67.980525 
L 88.749261 65.806125 
L 89.512077 70.154925 
L 90.274893 67.980525 
L 91.037709 72.329325 
L 91.800525 59.282925 
L 93.326158 76.678125 
L 94.088974 63.631725 
L 94.85179 57.108525 
L 95.614606 70.154925 
L 96.377422 67.980525 
L 97.140238 72.329325 
L 97.903055 70.154925 
L 98.665871 76.678125 
L 99.428687 76.678125 
L 100.191503 63.631725 
L 100.954319 59.282925 
L 101.717135 67.980525 
L 102.479951 61.457325 
L 103.242767 72.329325 
L 104.005584 70.154925 
L 104.7684 63.631725 
L 105.531216 54.934125 
L 106.294032 52.759725 
L 107.056848 70.154925 
L 107.819664 52.759725 
L 108.58248 57.108525 
L 110.108113 61.457325 
L 110.870929 61.457325 
L 111.633745 63.631725 
L 112.396561 59.282925 
L 113.159377 63.631725 
L 113.922193 70.154925 
L 114.685009 72.329325 
L 115.447826 59.282925 
L 116.210642 50.585325 
L 116.973458 63.631725 
L 117.736274 48.410925 
L 118.49909 59.282925 
L 119.261906 63.631725 
L 120.024722 65.806125 
L 120.787538 65.806125 
L 121.550355 61.457325 
L 122.313171 48.410925 
L 123.075987 59.282925 
L 123.838803 54.934125 
L 124.601619 61.457325 
L 126.127251 61.457325 
L 126.890067 74.503725 
L 127.652884 59.282925 
L 128.4157 63.631725 
L 129.178516 54.934125 
L 129.941332 57.108525 
L 130.704148 48.410925 
L 131.466964 61.457325 
L 132.22978 50.585325 
L 132.992597 61.457325 
L 133.755413 57.108525 
L 134.518229 48.410925 
L 135.281045 65.806125 
L 136.043861 70.154925 
L 136.806677 57.108525 
L 137.569493 59.282925 
L 138.332309 59.282925 
L 139.095126 54.934125 
L 139.857942 61.457325 
L 140.620758 54.934125 
L 141.383574 52.759725 
L 142.14639 44.062125 
L 142.909206 67.980525 
L 143.672022 67.980525 
L 144.434839 54.934125 
L 145.197655 59.282925 
L 145.960471 67.980525 
L 146.723287 57.108525 
L 147.486103 50.585325 
L 148.248919 54.934125 
L 149.011735 65.806125 
L 149.774551 72.329325 
L 150.537368 52.759725 
L 151.300184 78.852525 
L 152.063 54.934125 
L 154.351448 61.457325 
L 155.114264 46.236525 
L 155.87708 59.282925 
L 156.639897 46.236525 
L 157.402713 63.631725 
L 158.165529 61.457325 
L 158.928345 57.108525 
L 159.691161 48.410925 
L 160.453977 57.108525 
L 161.216793 59.282925 
L 163.505242 59.282925 
L 164.268058 54.934125 
L 165.030874 61.457325 
L 165.79369 61.457325 
L 166.556506 72.329325 
L 167.319322 48.410925 
L 168.082139 46.236525 
L 168.844955 63.631725 
L 169.607771 67.980525 
L 170.370587 50.585325 
L 171.133403 57.108525 
L 171.896219 48.410925 
L 172.659035 65.806125 
L 173.421852 57.108525 
L 174.184668 59.282925 
L 174.947484 63.631725 
L 175.7103 46.236525 
L 176.473116 48.410925 
L 177.235932 61.457325 
L 177.998748 65.806125 
L 178.761564 63.631725 
L 179.524381 52.759725 
L 180.287197 44.062125 
L 181.050013 50.585325 
L 181.812829 54.934125 
L 182.575645 67.980525 
L 183.338461 48.410925 
L 184.101277 54.934125 
L 184.864093 67.980525 
L 185.62691 50.585325 
L 186.389726 63.631725 
L 187.152542 63.631725 
L 187.915358 52.759725 
L 188.678174 57.108525 
L 189.44099 48.410925 
L 190.203806 63.631725 
L 190.966623 54.934125 
L 192.492255 59.282925 
L 193.255071 44.062125 
L 194.017887 50.585325 
L 194.780703 59.282925 
L 195.543519 44.062125 
L 196.306335 59.282925 
L 197.069152 48.410925 
L 197.831968 57.108525 
L 198.594784 52.759725 
L 199.3576 70.154925 
L 200.120416 57.108525 
L 200.883232 37.538925 
L 201.646048 61.457325 
L 202.408864 65.806125 
L 203.171681 52.759725 
L 203.934497 54.934125 
L 204.697313 52.759725 
L 205.460129 57.108525 
L 206.222945 65.806125 
L 206.985761 52.759725 
L 207.748577 52.759725 
L 208.511394 57.108525 
L 209.27421 54.934125 
L 210.037026 61.457325 
L 210.799842 57.108525 
L 211.562658 57.108525 
L 213.08829 52.759725 
L 213.851106 46.236525 
L 214.613923 41.887725 
L 215.376739 65.806125 
L 216.139555 52.759725 
L 216.902371 54.934125 
L 218.428003 54.934125 
L 219.190819 50.585325 
L 219.953636 59.282925 
L 220.716452 44.062125 
L 221.479268 54.934125 
L 222.242084 52.759725 
L 223.767716 44.062125 
L 224.530532 50.585325 
L 225.293348 54.934125 
L 226.056165 41.887725 
L 226.818981 63.631725 
L 227.581797 52.759725 
L 228.344613 44.062125 
L 229.107429 57.108525 
L 229.870245 67.980525 
L 230.633061 63.631725 
L 231.395877 48.410925 
L 232.158694 59.282925 
L 232.92151 52.759725 
L 233.684326 65.806125 
L 234.447142 61.457325 
L 235.209958 50.585325 
L 235.972774 50.585325 
L 237.498407 54.934125 
L 238.261223 50.585325 
L 239.024039 37.538925 
L 239.786855 50.585325 
L 240.549671 61.457325 
L 241.312487 52.759725 
L 242.075303 50.585325 
L 242.838119 50.585325 
L 243.600936 46.236525 
L 244.363752 61.457325 
L 245.126568 54.934125 
L 245.889384 57.108525 
L 246.6522 52.759725 
L 247.415016 52.759725 
L 248.177832 54.934125 
L 248.940648 48.410925 
L 249.703465 63.631725 
L 250.466281 46.236525 
L 251.229097 54.934125 
L 251.991913 48.410925 
L 252.754729 50.585325 
L 253.517545 50.585325 
L 254.280361 52.759725 
L 255.043178 48.410925 
L 255.805994 61.457325 
L 256.56881 57.108525 
L 257.331626 48.410925 
L 258.094442 59.282925 
L 258.857258 48.410925 
L 259.620074 46.236525 
L 260.38289 57.108525 
L 261.145707 46.236525 
L 261.908523 63.631725 
L 262.671339 54.934125 
L 263.434155 54.934125 
L 264.196971 59.282925 
L 264.959787 44.062125 
L 265.722603 61.457325 
L 266.48542 54.934125 
L 267.248236 46.236525 
L 268.011052 65.806125 
L 268.773868 41.887725 
L 269.536684 65.806125 
L 270.2995 44.062125 
L 271.062316 46.236525 
L 271.825132 59.282925 
L 272.587949 52.759725 
L 274.113581 44.062125 
L 274.876397 44.062125 
L 275.639213 52.759725 
L 276.402029 46.236525 
L 277.164845 52.759725 
L 277.927661 37.538925 
L 278.690478 52.759725 
L 279.453294 44.062125 
L 280.21611 46.236525 
L 280.978926 54.934125 
L 281.741742 65.806125 
L 282.504558 50.585325 
L 283.267374 67.980525 
L 284.030191 46.236525 
L 284.793007 48.410925 
L 285.555823 52.759725 
L 286.318639 41.887725 
L 287.081455 61.457325 
L 287.844271 46.236525 
L 288.607087 54.934125 
L 289.369903 46.236525 
L 290.13272 61.457325 
L 290.895536 57.108525 
L 291.658352 61.457325 
L 292.421168 37.538925 
L 293.183984 44.062125 
L 293.9468 54.934125 
L 294.709616 46.236525 
L 295.472433 39.713325 
L 296.235249 48.410925 
L 296.998065 44.062125 
L 297.760881 44.062125 
L 298.523697 57.108525 
L 299.286513 54.934125 
L 300.049329 54.934125 
L 300.812145 44.062125 
L 301.574962 57.108525 
L 302.337778 52.759725 
L 303.100594 61.457325 
L 303.86341 54.934125 
L 304.626226 63.631725 
L 305.389042 35.364525 
L 306.151858 52.759725 
L 306.914674 44.062125 
L 307.677491 54.934125 
L 308.440307 54.934125 
L 309.203123 48.410925 
L 309.965939 39.713325 
L 310.728755 61.457325 
L 311.491571 61.457325 
L 312.254387 41.887725 
L 313.017204 48.410925 
L 313.78002 57.108525 
L 314.542836 52.759725 
L 315.305652 46.236525 
L 316.068468 57.108525 
L 316.831284 63.631725 
L 317.5941 50.585325 
L 318.356916 54.934125 
L 319.119733 54.934125 
L 319.882549 59.282925 
L 320.645365 48.410925 
L 321.408181 50.585325 
L 322.170997 33.190125 
L 322.933813 50.585325 
L 323.696629 54.934125 
L 324.459445 52.759725 
L 325.222262 46.236525 
L 325.985078 46.236525 
L 326.747894 52.759725 
L 327.51071 52.759725 
L 328.273526 59.282925 
L 329.036342 63.631725 
L 329.799158 54.934125 
L 330.561975 50.585325 
L 331.324791 48.410925 
L 332.087607 44.062125 
L 332.850423 57.108525 
L 333.613239 52.759725 
L 334.376055 46.236525 
L 335.138871 44.062125 
L 335.901687 52.759725 
L 336.664504 44.062125 
L 337.42732 46.236525 
L 338.190136 61.457325 
L 338.952952 46.236525 
L 339.715768 50.585325 
L 340.478584 57.108525 
L 341.2414 54.934125 
L 342.004217 37.538925 
L 342.767033 44.062125 
L 343.529849 46.236525 
L 344.292665 39.713325 
L 345.055481 61.457325 
L 345.818297 44.062125 
L 346.581113 46.236525 
L 347.343929 59.282925 
L 348.106746 50.585325 
L 348.869562 61.457325 
L 349.632378 50.585325 
L 350.395194 48.410925 
L 351.15801 54.934125 
L 351.920826 59.282925 
L 352.683642 54.934125 
L 353.446458 41.887725 
L 354.209275 48.410925 
L 354.972091 50.585325 
L 355.734907 50.585325 
L 356.497723 44.062125 
L 357.260539 50.585325 
L 358.786171 41.887725 
L 359.548988 48.410925 
L 360.311804 48.410925 
L 361.07462 74.503725 
L 361.837436 61.457325 
L 362.600252 39.713325 
L 363.363068 63.631725 
L 363.363068 63.631725 
" style="fill:none;stroke:#1f77b4;stroke-linecap:square;stroke-width:1.5;"/>
   </g>
   <g id="line2d_17">
    <path clip-path="url(#p09d07393d5)" d="M 58.999432 209.338269 
L 59.762248 188.724957 
L 60.525064 181.571181 
L 62.050696 153.477933 
L 62.813512 145.323933 
L 63.576329 134.147517 
L 64.339145 126.602349 
L 65.101961 122.884125 
L 65.864777 115.730349 
L 66.627593 119.318109 
L 67.390409 110.381325 
L 68.153225 107.402397 
L 68.916042 101.096637 
L 69.678858 102.205581 
L 70.441674 99.052701 
L 71.20449 98.639565 
L 71.967306 98.943981 
L 72.730122 94.377741 
L 73.492938 93.573213 
L 74.255754 94.269021 
L 75.781387 88.919997 
L 76.544203 91.072653 
L 77.307019 95.399709 
L 78.069835 85.767117 
L 78.832651 84.875613 
L 79.595467 83.462253 
L 81.1211 81.222621 
L 81.883916 80.613789 
L 82.646732 84.245037 
L 83.409548 79.787517 
L 84.172364 80.091933 
L 84.93518 78.265437 
L 85.697996 78.134973 
L 86.460813 77.439165 
L 87.223629 75.156045 
L 87.986445 77.917533 
L 88.749261 73.938381 
L 89.512077 73.742685 
L 90.274893 74.134077 
L 91.037709 72.611997 
L 91.800525 74.134077 
L 92.563342 74.264541 
L 93.326158 74.003613 
L 94.088974 72.438045 
L 94.85179 72.111885 
L 95.614606 69.589581 
L 96.377422 70.807245 
L 97.140238 70.176669 
L 97.903055 75.590925 
L 98.665871 69.176445 
L 99.428687 69.176445 
L 100.954319 70.394109 
L 101.717135 67.806573 
L 103.242767 67.502157 
L 104.005584 68.828541 
L 104.7684 68.524125 
L 106.294032 65.588685 
L 107.056848 66.480189 
L 107.819664 65.675661 
L 108.58248 66.197517 
L 109.345296 67.089021 
L 110.108113 67.110765 
L 110.870929 66.175773 
L 111.633745 65.436477 
L 112.396561 64.392765 
L 113.159377 64.544973 
L 114.685009 65.914845 
L 115.447826 64.175325 
L 116.210642 63.914397 
L 116.973458 64.631949 
L 117.736274 64.762413 
L 118.49909 63.262077 
L 119.261906 64.044861 
L 120.024722 65.697405 
L 120.787538 63.327309 
L 121.550355 63.044637 
L 122.313171 62.153133 
L 123.075987 62.218365 
L 123.838803 62.501037 
L 124.601619 63.001149 
L 125.364435 62.414061 
L 126.127251 62.305341 
L 126.890067 62.566269 
L 127.652884 63.392541 
L 128.4157 61.979181 
L 129.178516 63.175101 
L 129.941332 62.196621 
L 130.704148 62.718477 
L 131.466964 61.761741 
L 132.22978 62.501037 
L 132.992597 61.848717 
L 133.755413 61.370349 
L 134.518229 61.739997 
L 135.281045 61.587789 
L 136.043861 61.261629 
L 136.806677 61.435581 
L 137.569493 60.978957 
L 138.332309 61.348605 
L 139.095126 60.696285 
L 139.857942 62.392317 
L 140.620758 61.065933 
L 141.383574 60.783261 
L 142.14639 60.696285 
L 142.909206 60.957213 
L 143.672022 61.783485 
L 144.434839 60.957213 
L 145.197655 60.522333 
L 145.960471 60.761517 
L 146.723287 60.631053 
L 147.486103 60.891981 
L 148.248919 59.717805 
L 149.011735 59.870013 
L 150.537368 60.848493 
L 151.300184 60.631053 
L 152.063 61.065933 
L 152.825816 60.065709 
L 154.351448 59.543853 
L 155.114264 61.283373 
L 155.87708 59.130717 
L 156.639897 59.239437 
L 157.402713 60.043965 
L 158.928345 59.543853 
L 159.691161 60.348381 
L 160.453977 59.543853 
L 161.97961 60.174429 
L 162.742426 59.609085 
L 164.268058 59.435133 
L 165.79369 59.348157 
L 166.556506 59.565597 
L 167.319322 61.609533 
L 168.082139 58.739325 
L 168.844955 59.652573 
L 169.607771 59.391645 
L 170.370587 58.935021 
L 171.133403 58.913277 
L 171.896219 59.522109 
L 172.659035 58.782813 
L 173.421852 58.826301 
L 174.947484 58.391421 
L 175.7103 58.478397 
L 176.473116 58.217469 
L 177.235932 59.761293 
L 177.998748 57.826077 
L 178.761564 58.848045 
L 179.524381 57.804333 
L 180.287197 58.130493 
L 181.050013 57.673869 
L 181.812829 57.717357 
L 182.575645 57.934797 
L 184.101277 58.695837 
L 184.864093 58.630605 
L 185.62691 57.673869 
L 186.389726 57.478173 
L 187.152542 57.978285 
L 187.915358 57.499917 
L 189.44099 58.087005 
L 190.203806 58.087005 
L 190.966623 57.826077 
L 191.729439 58.565373 
L 192.492255 57.630381 
L 193.255071 57.739101 
L 194.017887 57.325965 
L 194.780703 57.956541 
L 195.543519 57.456429 
L 196.306335 57.739101 
L 197.069152 59.282925 
L 197.831968 57.325965 
L 198.594784 57.456429 
L 200.120416 57.347709 
L 200.883232 57.847821 
L 202.408864 57.369453 
L 203.171681 58.717581 
L 203.934497 57.152013 
L 204.697313 57.065037 
L 205.460129 57.304221 
L 206.222945 56.978061 
L 206.985761 56.956317 
L 207.748577 56.804109 
L 209.27421 57.369453 
L 210.037026 56.956317 
L 211.562658 56.695389 
L 212.325474 56.847597 
L 213.08829 56.390973 
L 213.851106 56.369229 
L 214.613923 56.608413 
L 215.376739 56.412717 
L 216.139555 56.586669 
L 216.902371 57.717357 
L 217.665187 55.890861 
L 218.428003 56.303997 
L 219.190819 56.586669 
L 219.953636 55.912605 
L 220.716452 56.608413 
L 221.479268 57.021549 
L 222.242084 56.260509 
L 223.0049 57.804333 
L 223.767716 56.260509 
L 224.530532 56.760621 
L 225.293348 57.021549 
L 226.056165 56.956317 
L 226.818981 56.303997 
L 227.581797 56.043069 
L 229.107429 55.956093 
L 229.870245 56.456205 
L 230.633061 56.673645 
L 231.395877 56.543181 
L 232.158694 55.499469 
L 232.92151 55.782141 
L 234.447142 56.586669 
L 235.209958 56.043069 
L 235.972774 56.108301 
L 236.73559 55.803885 
L 237.498407 56.434461 
L 238.261223 55.303773 
L 239.024039 55.869117 
L 239.786855 58.173981 
L 240.549671 56.434461 
L 241.312487 56.325741 
L 242.075303 56.912829 
L 242.838119 56.303997 
L 243.600936 56.238765 
L 244.363752 56.738877 
L 245.126568 55.564701 
L 245.889384 56.869341 
L 246.6522 55.760397 
L 248.177832 55.782141 
L 248.940648 57.347709 
L 249.703465 56.238765 
L 250.466281 55.977837 
L 251.229097 57.217245 
L 251.991913 55.586445 
L 253.517545 55.782141 
L 254.280361 55.564701 
L 255.043178 55.782141 
L 255.805994 54.977613 
L 256.56881 55.238541 
L 257.331626 55.216797 
L 258.094442 55.738653 
L 259.620074 55.303773 
L 260.38289 56.912829 
L 261.145707 55.390749 
L 261.908523 55.195053 
L 263.434155 55.455981 
L 264.196971 55.325517 
L 264.959787 54.651453 
L 265.722603 55.738653 
L 266.48542 55.303773 
L 267.248236 55.216797 
L 268.011052 55.629933 
L 268.773868 54.934125 
L 269.536684 55.629933 
L 270.2995 55.238541 
L 271.062316 55.195053 
L 271.825132 54.999357 
L 272.587949 56.043069 
L 273.350765 55.303773 
L 274.113581 54.912381 
L 274.876397 55.564701 
L 275.639213 55.216797 
L 276.402029 54.607965 
L 277.164845 54.455757 
L 277.927661 54.760173 
L 279.453294 54.673197 
L 280.21611 54.390525 
L 280.978926 54.434013 
L 281.741742 55.042845 
L 282.504558 55.825629 
L 283.267374 54.868893 
L 284.030191 54.412269 
L 284.793007 54.825405 
L 285.555823 54.999357 
L 287.081455 54.977613 
L 287.844271 54.694941 
L 288.607087 55.064589 
L 289.369903 55.108077 
L 290.13272 54.999357 
L 290.895536 54.738429 
L 291.658352 54.934125 
L 292.421168 54.499245 
L 293.183984 54.868893 
L 293.9468 55.564701 
L 294.709616 54.651453 
L 296.235249 54.390525 
L 296.998065 55.042845 
L 297.760881 54.586221 
L 298.523697 54.977613 
L 299.286513 54.151341 
L 300.049329 54.238317 
L 301.574962 54.020877 
L 302.337778 54.977613 
L 303.100594 54.564477 
L 303.86341 54.303549 
L 304.626226 54.607965 
L 305.389042 54.260061 
L 306.151858 54.216573 
L 306.914674 55.021101 
L 307.677491 54.042621 
L 308.440307 54.064365 
L 309.203123 54.434013 
L 309.965939 54.368781 
L 310.728755 54.151341 
L 311.491571 54.281805 
L 312.254387 54.260061 
L 313.017204 54.412269 
L 313.78002 54.129597 
L 314.542836 54.281805 
L 315.305652 54.607965 
L 316.068468 53.912157 
L 316.831284 55.064589 
L 317.5941 54.955869 
L 318.356916 54.173085 
L 319.119733 54.216573 
L 319.882549 54.934125 
L 320.645365 54.238317 
L 321.408181 54.086109 
L 322.170997 54.347037 
L 322.933813 54.173085 
L 323.696629 54.390525 
L 324.459445 54.781917 
L 325.222262 54.107853 
L 325.985078 54.477501 
L 326.747894 54.281805 
L 327.51071 54.347037 
L 328.273526 53.977389 
L 329.036342 54.564477 
L 329.799158 53.999133 
L 330.561975 53.803437 
L 331.324791 53.759949 
L 332.087607 53.955645 
L 332.850423 53.738205 
L 334.376055 54.107853 
L 335.138871 54.455757 
L 335.901687 54.173085 
L 336.664504 54.325293 
L 337.42732 54.020877 
L 338.190136 53.846925 
L 338.952952 53.477277 
L 339.715768 54.347037 
L 340.478584 53.825181 
L 341.2414 54.020877 
L 342.004217 53.825181 
L 342.767033 54.086109 
L 343.529849 53.477277 
L 344.292665 53.738205 
L 345.818297 53.542509 
L 346.581113 54.412269 
L 347.343929 53.694717 
L 348.106746 53.542509 
L 348.869562 53.890413 
L 349.632378 53.607741 
L 350.395194 53.716461 
L 351.15801 54.325293 
L 351.920826 53.890413 
L 352.683642 54.542733 
L 353.446458 53.999133 
L 354.209275 53.672973 
L 354.972091 54.738429 
L 355.734907 53.477277 
L 356.497723 54.086109 
L 357.260539 53.759949 
L 358.023355 53.759949 
L 358.786171 53.085885 
L 359.548988 54.781917 
L 360.311804 53.977389 
L 361.07462 53.846925 
L 361.837436 53.955645 
L 362.600252 53.390301 
L 363.363068 53.803437 
L 363.363068 53.803437 
" style="fill:none;stroke:#ff7f0e;stroke-linecap:square;stroke-width:1.5;"/>
   </g>
   <g id="patch_3">
    <path d="M 43.78125 239.758125 
L 43.78125 22.318125 
" style="fill:none;stroke:#000000;stroke-linecap:square;stroke-linejoin:miter;stroke-width:0.8;"/>
   </g>
   <g id="patch_4">
    <path d="M 378.58125 239.758125 
L 378.58125 22.318125 
" style="fill:none;stroke:#000000;stroke-linecap:square;stroke-linejoin:miter;stroke-width:0.8;"/>
   </g>
   <g id="patch_5">
    <path d="M 43.78125 239.758125 
L 378.58125 239.758125 
" style="fill:none;stroke:#000000;stroke-linecap:square;stroke-linejoin:miter;stroke-width:0.8;"/>
   </g>
   <g id="patch_6">
    <path d="M 43.78125 22.318125 
L 378.58125 22.318125 
" style="fill:none;stroke:#000000;stroke-linecap:square;stroke-linejoin:miter;stroke-width:0.8;"/>
   </g>
   <g id="text_18">
    <!-- accuracy -->
    <g transform="translate(184.11 16.318125)scale(0.12 -0.12)">
     <use xlink:href="#DejaVuSans-61"/>
     <use x="61.279297" xlink:href="#DejaVuSans-63"/>
     <use x="116.259766" xlink:href="#DejaVuSans-63"/>
     <use x="171.240234" xlink:href="#DejaVuSans-75"/>
     <use x="234.619141" xlink:href="#DejaVuSans-72"/>
     <use x="275.732422" xlink:href="#DejaVuSans-61"/>
     <use x="337.011719" xlink:href="#DejaVuSans-63"/>
     <use x="391.992188" xlink:href="#DejaVuSans-79"/>
    </g>
   </g>
   <g id="legend_1">
    <g id="patch_7">
     <path d="M 282.38125 234.758125 
L 371.58125 234.758125 
Q 373.58125 234.758125 373.58125 232.758125 
L 373.58125 204.401875 
Q 373.58125 202.401875 371.58125 202.401875 
L 282.38125 202.401875 
Q 280.38125 202.401875 280.38125 204.401875 
L 280.38125 232.758125 
Q 280.38125 234.758125 282.38125 234.758125 
z
" style="fill:#ffffff;opacity:0.8;stroke:#cccccc;stroke-linejoin:miter;"/>
    </g>
    <g id="line2d_18">
     <path d="M 284.38125 210.500312 
L 304.38125 210.500312 
" style="fill:none;stroke:#1f77b4;stroke-linecap:square;stroke-width:1.5;"/>
    </g>
    <g id="line2d_19"/>
    <g id="text_19">
     <!-- training set -->
     <g transform="translate(312.38125 214.000312)scale(0.1 -0.1)">
      <defs>
       <path d="M 603 3500 
L 1178 3500 
L 1178 0 
L 603 0 
L 603 3500 
z
M 603 4863 
L 1178 4863 
L 1178 4134 
L 603 4134 
L 603 4863 
z
" id="DejaVuSans-69" transform="scale(0.015625)"/>
       <path d="M 2906 1791 
Q 2906 2416 2648 2759 
Q 2391 3103 1925 3103 
Q 1463 3103 1205 2759 
Q 947 2416 947 1791 
Q 947 1169 1205 825 
Q 1463 481 1925 481 
Q 2391 481 2648 825 
Q 2906 1169 2906 1791 
z
M 3481 434 
Q 3481 -459 3084 -895 
Q 2688 -1331 1869 -1331 
Q 1566 -1331 1297 -1286 
Q 1028 -1241 775 -1147 
L 775 -588 
Q 1028 -725 1275 -790 
Q 1522 -856 1778 -856 
Q 2344 -856 2625 -561 
Q 2906 -266 2906 331 
L 2906 616 
Q 2728 306 2450 153 
Q 2172 0 1784 0 
Q 1141 0 747 490 
Q 353 981 353 1791 
Q 353 2603 747 3093 
Q 1141 3584 1784 3584 
Q 2172 3584 2450 3431 
Q 2728 3278 2906 2969 
L 2906 3500 
L 3481 3500 
L 3481 434 
z
" id="DejaVuSans-67" transform="scale(0.015625)"/>
       <path id="DejaVuSans-20" transform="scale(0.015625)"/>
       <path d="M 2834 3397 
L 2834 2853 
Q 2591 2978 2328 3040 
Q 2066 3103 1784 3103 
Q 1356 3103 1142 2972 
Q 928 2841 928 2578 
Q 928 2378 1081 2264 
Q 1234 2150 1697 2047 
L 1894 2003 
Q 2506 1872 2764 1633 
Q 3022 1394 3022 966 
Q 3022 478 2636 193 
Q 2250 -91 1575 -91 
Q 1294 -91 989 -36 
Q 684 19 347 128 
L 347 722 
Q 666 556 975 473 
Q 1284 391 1588 391 
Q 1994 391 2212 530 
Q 2431 669 2431 922 
Q 2431 1156 2273 1281 
Q 2116 1406 1581 1522 
L 1381 1569 
Q 847 1681 609 1914 
Q 372 2147 372 2553 
Q 372 3047 722 3315 
Q 1072 3584 1716 3584 
Q 2034 3584 2315 3537 
Q 2597 3491 2834 3397 
z
" id="DejaVuSans-73" transform="scale(0.015625)"/>
       <path d="M 3597 1894 
L 3597 1613 
L 953 1613 
Q 991 1019 1311 708 
Q 1631 397 2203 397 
Q 2534 397 2845 478 
Q 3156 559 3463 722 
L 3463 178 
Q 3153 47 2828 -22 
Q 2503 -91 2169 -91 
Q 1331 -91 842 396 
Q 353 884 353 1716 
Q 353 2575 817 3079 
Q 1281 3584 2069 3584 
Q 2775 3584 3186 3129 
Q 3597 2675 3597 1894 
z
M 3022 2063 
Q 3016 2534 2758 2815 
Q 2500 3097 2075 3097 
Q 1594 3097 1305 2825 
Q 1016 2553 972 2059 
L 3022 2063 
z
" id="DejaVuSans-65" transform="scale(0.015625)"/>
      </defs>
      <use xlink:href="#DejaVuSans-74"/>
      <use x="39.208984" xlink:href="#DejaVuSans-72"/>
      <use x="80.322266" xlink:href="#DejaVuSans-61"/>
      <use x="141.601562" xlink:href="#DejaVuSans-69"/>
      <use x="169.384766" xlink:href="#DejaVuSans-6e"/>
      <use x="232.763672" xlink:href="#DejaVuSans-69"/>
      <use x="260.546875" xlink:href="#DejaVuSans-6e"/>
      <use x="323.925781" xlink:href="#DejaVuSans-67"/>
      <use x="387.402344" xlink:href="#DejaVuSans-20"/>
      <use x="419.189453" xlink:href="#DejaVuSans-73"/>
      <use x="471.289062" xlink:href="#DejaVuSans-65"/>
      <use x="532.8125" xlink:href="#DejaVuSans-74"/>
     </g>
    </g>
    <g id="line2d_20">
     <path d="M 284.38125 225.178437 
L 304.38125 225.178437 
" style="fill:none;stroke:#ff7f0e;stroke-linecap:square;stroke-width:1.5;"/>
    </g>
    <g id="line2d_21"/>
    <g id="text_20">
     <!-- test set -->
     <g transform="translate(312.38125 228.678437)scale(0.1 -0.1)">
      <use xlink:href="#DejaVuSans-74"/>
      <use x="39.208984" xlink:href="#DejaVuSans-65"/>
      <use x="100.732422" xlink:href="#DejaVuSans-73"/>
      <use x="152.832031" xlink:href="#DejaVuSans-74"/>
      <use x="192.041016" xlink:href="#DejaVuSans-20"/>
      <use x="223.828125" xlink:href="#DejaVuSans-73"/>
      <use x="275.927734" xlink:href="#DejaVuSans-65"/>
      <use x="337.451172" xlink:href="#DejaVuSans-74"/>
     </g>
    </g>
   </g>
  </g>
 </g>
 <defs>
  <clipPath id="p09d07393d5">
   <rect height="217.44" width="334.8" x="43.78125" y="22.318125"/>
  </clipPath>
 </defs>
</svg>
