<?xml version="1.0" encoding="utf-8" standalone="no"?>
<!DOCTYPE svg PUBLIC "-//W3C//DTD SVG 1.1//EN"
  "http://www.w3.org/Graphics/SVG/1.1/DTD/svg11.dtd">
<svg height="261.95125pt" version="1.1" viewBox="0 0 370.473125 261.95125" width="370.473125pt" xmlns="http://www.w3.org/2000/svg" xmlns:xlink="http://www.w3.org/1999/xlink">
 <metadata>
  <rdf:RDF xmlns:cc="http://creativecommons.org/ns#" xmlns:dc="http://purl.org/dc/elements/1.1/" xmlns:rdf="http://www.w3.org/1999/02/22-rdf-syntax-ns#">
   <cc:Work>
    <dc:type rdf:resource="http://purl.org/dc/dcmitype/StillImage"/>
    <dc:date>2021-05-02T01:13:52.114363</dc:date>
    <dc:format>image/svg+xml</dc:format>
    <dc:creator>
     <cc:Agent>
      <dc:title>Matplotlib v3.4.1, https://matplotlib.org/</dc:title>
     </cc:Agent>
    </dc:creator>
   </cc:Work>
  </rdf:RDF>
 </metadata>
 <defs>
  <style type="text/css">*{stroke-linecap:butt;stroke-linejoin:round;}</style>
 </defs>
 <g id="figure_1">
  <g id="patch_1">
   <path d="M 0 261.95125 
L 370.473125 261.95125 
L 370.473125 0 
L 0 0 
z
" style="fill:#ffffff;"/>
  </g>
  <g id="axes_1">
   <g id="patch_2">
    <path d="M 28.473125 237.9345 
L 363.273125 237.9345 
L 363.273125 20.4945 
L 28.473125 20.4945 
z
" style="fill:#eaeaf2;"/>
   </g>
   <g id="matplotlib.axis_1">
    <g id="xtick_1">
     <g id="line2d_1">
      <path clip-path="url(#p25d2def5a2)" d="M 38.686154 237.9345 
L 38.686154 20.4945 
" style="fill:none;stroke:#ffffff;stroke-dasharray:2.96,1.28;stroke-dashoffset:0;stroke-width:0.8;"/>
     </g>
     <g id="text_1">
      <!-- 0.0 -->
      <g style="fill:#262626;" transform="translate(31.688779 252.921125)scale(0.088 -0.088)">
       <defs>
        <path d="M 2034 4250 
Q 1547 4250 1301 3770 
Q 1056 3291 1056 2328 
Q 1056 1369 1301 889 
Q 1547 409 2034 409 
Q 2525 409 2770 889 
Q 3016 1369 3016 2328 
Q 3016 3291 2770 3770 
Q 2525 4250 2034 4250 
z
M 2034 4750 
Q 2819 4750 3233 4129 
Q 3647 3509 3647 2328 
Q 3647 1150 3233 529 
Q 2819 -91 2034 -91 
Q 1250 -91 836 529 
Q 422 1150 422 2328 
Q 422 3509 836 4129 
Q 1250 4750 2034 4750 
z
" id="DejaVuSans-30" transform="scale(0.015625)"/>
        <path d="M 684 794 
L 1344 794 
L 1344 0 
L 684 0 
L 684 794 
z
" id="DejaVuSans-2e" transform="scale(0.015625)"/>
       </defs>
       <use xlink:href="#DejaVuSans-30"/>
       <use x="63.623047" xlink:href="#DejaVuSans-2e"/>
       <use x="95.410156" xlink:href="#DejaVuSans-30"/>
      </g>
     </g>
    </g>
    <g id="xtick_2">
     <g id="line2d_2">
      <path clip-path="url(#p25d2def5a2)" d="M 100.60044 237.9345 
L 100.60044 20.4945 
" style="fill:none;stroke:#ffffff;stroke-dasharray:2.96,1.28;stroke-dashoffset:0;stroke-width:0.8;"/>
     </g>
     <g id="text_2">
      <!-- 0.2 -->
      <g style="fill:#262626;" transform="translate(93.603065 252.921125)scale(0.088 -0.088)">
       <defs>
        <path d="M 1228 531 
L 3431 531 
L 3431 0 
L 469 0 
L 469 531 
Q 828 903 1448 1529 
Q 2069 2156 2228 2338 
Q 2531 2678 2651 2914 
Q 2772 3150 2772 3378 
Q 2772 3750 2511 3984 
Q 2250 4219 1831 4219 
Q 1534 4219 1204 4116 
Q 875 4013 500 3803 
L 500 4441 
Q 881 4594 1212 4672 
Q 1544 4750 1819 4750 
Q 2544 4750 2975 4387 
Q 3406 4025 3406 3419 
Q 3406 3131 3298 2873 
Q 3191 2616 2906 2266 
Q 2828 2175 2409 1742 
Q 1991 1309 1228 531 
z
" id="DejaVuSans-32" transform="scale(0.015625)"/>
       </defs>
       <use xlink:href="#DejaVuSans-30"/>
       <use x="63.623047" xlink:href="#DejaVuSans-2e"/>
       <use x="95.410156" xlink:href="#DejaVuSans-32"/>
      </g>
     </g>
    </g>
    <g id="xtick_3">
     <g id="line2d_3">
      <path clip-path="url(#p25d2def5a2)" d="M 162.514725 237.9345 
L 162.514725 20.4945 
" style="fill:none;stroke:#ffffff;stroke-dasharray:2.96,1.28;stroke-dashoffset:0;stroke-width:0.8;"/>
     </g>
     <g id="text_3">
      <!-- 0.4 -->
      <g style="fill:#262626;" transform="translate(155.51735 252.921125)scale(0.088 -0.088)">
       <defs>
        <path d="M 2419 4116 
L 825 1625 
L 2419 1625 
L 2419 4116 
z
M 2253 4666 
L 3047 4666 
L 3047 1625 
L 3713 1625 
L 3713 1100 
L 3047 1100 
L 3047 0 
L 2419 0 
L 2419 1100 
L 313 1100 
L 313 1709 
L 2253 4666 
z
" id="DejaVuSans-34" transform="scale(0.015625)"/>
       </defs>
       <use xlink:href="#DejaVuSans-30"/>
       <use x="63.623047" xlink:href="#DejaVuSans-2e"/>
       <use x="95.410156" xlink:href="#DejaVuSans-34"/>
      </g>
     </g>
    </g>
    <g id="xtick_4">
     <g id="line2d_4">
      <path clip-path="url(#p25d2def5a2)" d="M 224.429011 237.9345 
L 224.429011 20.4945 
" style="fill:none;stroke:#ffffff;stroke-dasharray:2.96,1.28;stroke-dashoffset:0;stroke-width:0.8;"/>
     </g>
     <g id="text_4">
      <!-- 0.6 -->
      <g style="fill:#262626;" transform="translate(217.431636 252.921125)scale(0.088 -0.088)">
       <defs>
        <path d="M 2113 2584 
Q 1688 2584 1439 2293 
Q 1191 2003 1191 1497 
Q 1191 994 1439 701 
Q 1688 409 2113 409 
Q 2538 409 2786 701 
Q 3034 994 3034 1497 
Q 3034 2003 2786 2293 
Q 2538 2584 2113 2584 
z
M 3366 4563 
L 3366 3988 
Q 3128 4100 2886 4159 
Q 2644 4219 2406 4219 
Q 1781 4219 1451 3797 
Q 1122 3375 1075 2522 
Q 1259 2794 1537 2939 
Q 1816 3084 2150 3084 
Q 2853 3084 3261 2657 
Q 3669 2231 3669 1497 
Q 3669 778 3244 343 
Q 2819 -91 2113 -91 
Q 1303 -91 875 529 
Q 447 1150 447 2328 
Q 447 3434 972 4092 
Q 1497 4750 2381 4750 
Q 2619 4750 2861 4703 
Q 3103 4656 3366 4563 
z
" id="DejaVuSans-36" transform="scale(0.015625)"/>
       </defs>
       <use xlink:href="#DejaVuSans-30"/>
       <use x="63.623047" xlink:href="#DejaVuSans-2e"/>
       <use x="95.410156" xlink:href="#DejaVuSans-36"/>
      </g>
     </g>
    </g>
    <g id="xtick_5">
     <g id="line2d_5">
      <path clip-path="url(#p25d2def5a2)" d="M 286.343296 237.9345 
L 286.343296 20.4945 
" style="fill:none;stroke:#ffffff;stroke-dasharray:2.96,1.28;stroke-dashoffset:0;stroke-width:0.8;"/>
     </g>
     <g id="text_5">
      <!-- 0.8 -->
      <g style="fill:#262626;" transform="translate(279.345921 252.921125)scale(0.088 -0.088)">
       <defs>
        <path d="M 2034 2216 
Q 1584 2216 1326 1975 
Q 1069 1734 1069 1313 
Q 1069 891 1326 650 
Q 1584 409 2034 409 
Q 2484 409 2743 651 
Q 3003 894 3003 1313 
Q 3003 1734 2745 1975 
Q 2488 2216 2034 2216 
z
M 1403 2484 
Q 997 2584 770 2862 
Q 544 3141 544 3541 
Q 544 4100 942 4425 
Q 1341 4750 2034 4750 
Q 2731 4750 3128 4425 
Q 3525 4100 3525 3541 
Q 3525 3141 3298 2862 
Q 3072 2584 2669 2484 
Q 3125 2378 3379 2068 
Q 3634 1759 3634 1313 
Q 3634 634 3220 271 
Q 2806 -91 2034 -91 
Q 1263 -91 848 271 
Q 434 634 434 1313 
Q 434 1759 690 2068 
Q 947 2378 1403 2484 
z
M 1172 3481 
Q 1172 3119 1398 2916 
Q 1625 2713 2034 2713 
Q 2441 2713 2670 2916 
Q 2900 3119 2900 3481 
Q 2900 3844 2670 4047 
Q 2441 4250 2034 4250 
Q 1625 4250 1398 4047 
Q 1172 3844 1172 3481 
z
" id="DejaVuSans-38" transform="scale(0.015625)"/>
       </defs>
       <use xlink:href="#DejaVuSans-30"/>
       <use x="63.623047" xlink:href="#DejaVuSans-2e"/>
       <use x="95.410156" xlink:href="#DejaVuSans-38"/>
      </g>
     </g>
    </g>
    <g id="xtick_6">
     <g id="line2d_6">
      <path clip-path="url(#p25d2def5a2)" d="M 348.257582 237.9345 
L 348.257582 20.4945 
" style="fill:none;stroke:#ffffff;stroke-dasharray:2.96,1.28;stroke-dashoffset:0;stroke-width:0.8;"/>
     </g>
     <g id="text_6">
      <!-- 1.0 -->
      <g style="fill:#262626;" transform="translate(341.260207 252.921125)scale(0.088 -0.088)">
       <defs>
        <path d="M 794 531 
L 1825 531 
L 1825 4091 
L 703 3866 
L 703 4441 
L 1819 4666 
L 2450 4666 
L 2450 531 
L 3481 531 
L 3481 0 
L 794 0 
L 794 531 
z
" id="DejaVuSans-31" transform="scale(0.015625)"/>
       </defs>
       <use xlink:href="#DejaVuSans-31"/>
       <use x="63.623047" xlink:href="#DejaVuSans-2e"/>
       <use x="95.410156" xlink:href="#DejaVuSans-30"/>
      </g>
     </g>
    </g>
   </g>
   <g id="matplotlib.axis_2">
    <g id="ytick_1">
     <g id="line2d_7">
      <path clip-path="url(#p25d2def5a2)" d="M 28.473125 236.501093 
L 363.273125 236.501093 
" style="fill:none;stroke:#ffffff;stroke-dasharray:2.96,1.28;stroke-dashoffset:0;stroke-width:0.8;"/>
     </g>
     <g id="text_7">
      <!-- −3 -->
      <g style="fill:#262626;" transform="translate(7.2 239.844405)scale(0.088 -0.088)">
       <defs>
        <path d="M 678 2272 
L 4684 2272 
L 4684 1741 
L 678 1741 
L 678 2272 
z
" id="DejaVuSans-2212" transform="scale(0.015625)"/>
        <path d="M 2597 2516 
Q 3050 2419 3304 2112 
Q 3559 1806 3559 1356 
Q 3559 666 3084 287 
Q 2609 -91 1734 -91 
Q 1441 -91 1130 -33 
Q 819 25 488 141 
L 488 750 
Q 750 597 1062 519 
Q 1375 441 1716 441 
Q 2309 441 2620 675 
Q 2931 909 2931 1356 
Q 2931 1769 2642 2001 
Q 2353 2234 1838 2234 
L 1294 2234 
L 1294 2753 
L 1863 2753 
Q 2328 2753 2575 2939 
Q 2822 3125 2822 3475 
Q 2822 3834 2567 4026 
Q 2313 4219 1838 4219 
Q 1578 4219 1281 4162 
Q 984 4106 628 3988 
L 628 4550 
Q 988 4650 1302 4700 
Q 1616 4750 1894 4750 
Q 2613 4750 3031 4423 
Q 3450 4097 3450 3541 
Q 3450 3153 3228 2886 
Q 3006 2619 2597 2516 
z
" id="DejaVuSans-33" transform="scale(0.015625)"/>
       </defs>
       <use xlink:href="#DejaVuSans-2212"/>
       <use x="83.789062" xlink:href="#DejaVuSans-33"/>
      </g>
     </g>
    </g>
    <g id="ytick_2">
     <g id="line2d_8">
      <path clip-path="url(#p25d2def5a2)" d="M 28.473125 198.021403 
L 363.273125 198.021403 
" style="fill:none;stroke:#ffffff;stroke-dasharray:2.96,1.28;stroke-dashoffset:0;stroke-width:0.8;"/>
     </g>
     <g id="text_8">
      <!-- −2 -->
      <g style="fill:#262626;" transform="translate(7.2 201.364715)scale(0.088 -0.088)">
       <use xlink:href="#DejaVuSans-2212"/>
       <use x="83.789062" xlink:href="#DejaVuSans-32"/>
      </g>
     </g>
    </g>
    <g id="ytick_3">
     <g id="line2d_9">
      <path clip-path="url(#p25d2def5a2)" d="M 28.473125 159.541713 
L 363.273125 159.541713 
" style="fill:none;stroke:#ffffff;stroke-dasharray:2.96,1.28;stroke-dashoffset:0;stroke-width:0.8;"/>
     </g>
     <g id="text_9">
      <!-- −1 -->
      <g style="fill:#262626;" transform="translate(7.2 162.885026)scale(0.088 -0.088)">
       <use xlink:href="#DejaVuSans-2212"/>
       <use x="83.789062" xlink:href="#DejaVuSans-31"/>
      </g>
     </g>
    </g>
    <g id="ytick_4">
     <g id="line2d_10">
      <path clip-path="url(#p25d2def5a2)" d="M 28.473125 121.062024 
L 363.273125 121.062024 
" style="fill:none;stroke:#ffffff;stroke-dasharray:2.96,1.28;stroke-dashoffset:0;stroke-width:0.8;"/>
     </g>
     <g id="text_10">
      <!-- 0 -->
      <g style="fill:#262626;" transform="translate(14.574125 124.405336)scale(0.088 -0.088)">
       <use xlink:href="#DejaVuSans-30"/>
      </g>
     </g>
    </g>
    <g id="ytick_5">
     <g id="line2d_11">
      <path clip-path="url(#p25d2def5a2)" d="M 28.473125 82.582334 
L 363.273125 82.582334 
" style="fill:none;stroke:#ffffff;stroke-dasharray:2.96,1.28;stroke-dashoffset:0;stroke-width:0.8;"/>
     </g>
     <g id="text_11">
      <!-- 1 -->
      <g style="fill:#262626;" transform="translate(14.574125 85.925646)scale(0.088 -0.088)">
       <use xlink:href="#DejaVuSans-31"/>
      </g>
     </g>
    </g>
    <g id="ytick_6">
     <g id="line2d_12">
      <path clip-path="url(#p25d2def5a2)" d="M 28.473125 44.102644 
L 363.273125 44.102644 
" style="fill:none;stroke:#ffffff;stroke-dasharray:2.96,1.28;stroke-dashoffset:0;stroke-width:0.8;"/>
     </g>
     <g id="text_12">
      <!-- 2 -->
      <g style="fill:#262626;" transform="translate(14.574125 47.445957)scale(0.088 -0.088)">
       <use xlink:href="#DejaVuSans-32"/>
      </g>
     </g>
    </g>
   </g>
   <g id="PathCollection_1">
    <defs>
     <path d="M 0 2.4 
C 0.636487 2.4 1.246992 2.147121 1.697056 1.697056 
C 2.147121 1.246992 2.4 0.636487 2.4 0 
C 2.4 -0.636487 2.147121 -1.246992 1.697056 -1.697056 
C 1.246992 -2.147121 0.636487 -2.4 0 -2.4 
C -0.636487 -2.4 -1.246992 -2.147121 -1.697056 -1.697056 
C -2.147121 -1.246992 -2.4 -0.636487 -2.4 0 
C -2.4 0.636487 -2.147121 1.246992 -1.697056 1.697056 
C -1.246992 2.147121 -0.636487 2.4 0 2.4 
z
" id="mebfffac0ec" style="stroke:#ff8c00;stroke-width:0.8;"/>
    </defs>
    <g clip-path="url(#p25d2def5a2)">
     <use style="fill:#ff8c00;stroke:#ff8c00;stroke-width:0.8;" x="43.691307" xlink:href="#mebfffac0ec" y="116.346222"/>
     <use style="fill:#ff8c00;stroke:#ff8c00;stroke-width:0.8;" x="46.241336" xlink:href="#mebfffac0ec" y="102.717625"/>
     <use style="fill:#ff8c00;stroke:#ff8c00;stroke-width:0.8;" x="48.422872" xlink:href="#mebfffac0ec" y="121.722435"/>
     <use style="fill:#ff8c00;stroke:#ff8c00;stroke-width:0.8;" x="57.243803" xlink:href="#mebfffac0ec" y="170.701508"/>
     <use style="fill:#ff8c00;stroke:#ff8c00;stroke-width:0.8;" x="60.416427" xlink:href="#mebfffac0ec" y="143.592065"/>
     <use style="fill:#ff8c00;stroke:#ff8c00;stroke-width:0.8;" x="63.129024" xlink:href="#mebfffac0ec" y="188.231319"/>
     <use style="fill:#ff8c00;stroke:#ff8c00;stroke-width:0.8;" x="65.815062" xlink:href="#mebfffac0ec" y="162.706435"/>
     <use style="fill:#ff8c00;stroke:#ff8c00;stroke-width:0.8;" x="65.8731" xlink:href="#mebfffac0ec" y="200.370031"/>
     <use style="fill:#ff8c00;stroke:#ff8c00;stroke-width:0.8;" x="67.498511" xlink:href="#mebfffac0ec" y="202.263007"/>
     <use style="fill:#ff8c00;stroke:#ff8c00;stroke-width:0.8;" x="67.798286" xlink:href="#mebfffac0ec" y="197.810882"/>
     <use style="fill:#ff8c00;stroke:#ff8c00;stroke-width:0.8;" x="71.487982" xlink:href="#mebfffac0ec" y="193.01606"/>
     <use style="fill:#ff8c00;stroke:#ff8c00;stroke-width:0.8;" x="75.351935" xlink:href="#mebfffac0ec" y="197.815618"/>
     <use style="fill:#ff8c00;stroke:#ff8c00;stroke-width:0.8;" x="79.36505" xlink:href="#mebfffac0ec" y="217.612607"/>
     <use style="fill:#ff8c00;stroke:#ff8c00;stroke-width:0.8;" x="80.5601" xlink:href="#mebfffac0ec" y="177.380704"/>
     <use style="fill:#ff8c00;stroke:#ff8c00;stroke-width:0.8;" x="86.591974" xlink:href="#mebfffac0ec" y="192.185343"/>
     <use style="fill:#ff8c00;stroke:#ff8c00;stroke-width:0.8;" x="90.681846" xlink:href="#mebfffac0ec" y="194.813841"/>
     <use style="fill:#ff8c00;stroke:#ff8c00;stroke-width:0.8;" x="90.944988" xlink:href="#mebfffac0ec" y="223.995336"/>
     <use style="fill:#ff8c00;stroke:#ff8c00;stroke-width:0.8;" x="94.903815" xlink:href="#mebfffac0ec" y="205.042664"/>
     <use style="fill:#ff8c00;stroke:#ff8c00;stroke-width:0.8;" x="96.976516" xlink:href="#mebfffac0ec" y="198.231012"/>
     <use style="fill:#ff8c00;stroke:#ff8c00;stroke-width:0.8;" x="102.366914" xlink:href="#mebfffac0ec" y="180.88828"/>
     <use style="fill:#ff8c00;stroke:#ff8c00;stroke-width:0.8;" x="102.675356" xlink:href="#mebfffac0ec" y="207.417878"/>
     <use style="fill:#ff8c00;stroke:#ff8c00;stroke-width:0.8;" x="103.129559" xlink:href="#mebfffac0ec" y="208.157251"/>
     <use style="fill:#ff8c00;stroke:#ff8c00;stroke-width:0.8;" x="104.620144" xlink:href="#mebfffac0ec" y="193.202549"/>
     <use style="fill:#ff8c00;stroke:#ff8c00;stroke-width:0.8;" x="108.12206" xlink:href="#mebfffac0ec" y="203.552575"/>
     <use style="fill:#ff8c00;stroke:#ff8c00;stroke-width:0.8;" x="112.757255" xlink:href="#mebfffac0ec" y="175.052002"/>
     <use style="fill:#ff8c00;stroke:#ff8c00;stroke-width:0.8;" x="115.970242" xlink:href="#mebfffac0ec" y="191.41369"/>
     <use style="fill:#ff8c00;stroke:#ff8c00;stroke-width:0.8;" x="116.001919" xlink:href="#mebfffac0ec" y="181.593587"/>
     <use style="fill:#ff8c00;stroke:#ff8c00;stroke-width:0.8;" x="118.704725" xlink:href="#mebfffac0ec" y="150.641875"/>
     <use style="fill:#ff8c00;stroke:#ff8c00;stroke-width:0.8;" x="122.515503" xlink:href="#mebfffac0ec" y="178.877689"/>
     <use style="fill:#ff8c00;stroke:#ff8c00;stroke-width:0.8;" x="123.40302" xlink:href="#mebfffac0ec" y="182.107861"/>
     <use style="fill:#ff8c00;stroke:#ff8c00;stroke-width:0.8;" x="123.893564" xlink:href="#mebfffac0ec" y="173.713737"/>
     <use style="fill:#ff8c00;stroke:#ff8c00;stroke-width:0.8;" x="125.014461" xlink:href="#mebfffac0ec" y="187.833442"/>
     <use style="fill:#ff8c00;stroke:#ff8c00;stroke-width:0.8;" x="125.159576" xlink:href="#mebfffac0ec" y="223.244329"/>
     <use style="fill:#ff8c00;stroke:#ff8c00;stroke-width:0.8;" x="130.035748" xlink:href="#mebfffac0ec" y="171.421505"/>
     <use style="fill:#ff8c00;stroke:#ff8c00;stroke-width:0.8;" x="131.618542" xlink:href="#mebfffac0ec" y="167.131338"/>
     <use style="fill:#ff8c00;stroke:#ff8c00;stroke-width:0.8;" x="133.085874" xlink:href="#mebfffac0ec" y="158.56215"/>
     <use style="fill:#ff8c00;stroke:#ff8c00;stroke-width:0.8;" x="134.480173" xlink:href="#mebfffac0ec" y="143.779692"/>
     <use style="fill:#ff8c00;stroke:#ff8c00;stroke-width:0.8;" x="140.107493" xlink:href="#mebfffac0ec" y="144.972181"/>
     <use style="fill:#ff8c00;stroke:#ff8c00;stroke-width:0.8;" x="143.305446" xlink:href="#mebfffac0ec" y="174.723824"/>
     <use style="fill:#ff8c00;stroke:#ff8c00;stroke-width:0.8;" x="146.586987" xlink:href="#mebfffac0ec" y="106.696634"/>
     <use style="fill:#ff8c00;stroke:#ff8c00;stroke-width:0.8;" x="148.134704" xlink:href="#mebfffac0ec" y="142.995584"/>
     <use style="fill:#ff8c00;stroke:#ff8c00;stroke-width:0.8;" x="150.093723" xlink:href="#mebfffac0ec" y="134.550301"/>
     <use style="fill:#ff8c00;stroke:#ff8c00;stroke-width:0.8;" x="154.381409" xlink:href="#mebfffac0ec" y="108.909341"/>
     <use style="fill:#ff8c00;stroke:#ff8c00;stroke-width:0.8;" x="154.893227" xlink:href="#mebfffac0ec" y="116.863389"/>
     <use style="fill:#ff8c00;stroke:#ff8c00;stroke-width:0.8;" x="155.639523" xlink:href="#mebfffac0ec" y="128.460372"/>
     <use style="fill:#ff8c00;stroke:#ff8c00;stroke-width:0.8;" x="158.247081" xlink:href="#mebfffac0ec" y="109.980968"/>
     <use style="fill:#ff8c00;stroke:#ff8c00;stroke-width:0.8;" x="158.410555" xlink:href="#mebfffac0ec" y="111.38044"/>
     <use style="fill:#ff8c00;stroke:#ff8c00;stroke-width:0.8;" x="158.735475" xlink:href="#mebfffac0ec" y="123.316109"/>
     <use style="fill:#ff8c00;stroke:#ff8c00;stroke-width:0.8;" x="166.603316" xlink:href="#mebfffac0ec" y="118.234676"/>
     <use style="fill:#ff8c00;stroke:#ff8c00;stroke-width:0.8;" x="170.647714" xlink:href="#mebfffac0ec" y="99.860319"/>
     <use style="fill:#ff8c00;stroke:#ff8c00;stroke-width:0.8;" x="174.657836" xlink:href="#mebfffac0ec" y="110.467676"/>
     <use style="fill:#ff8c00;stroke:#ff8c00;stroke-width:0.8;" x="178.237245" xlink:href="#mebfffac0ec" y="113.080458"/>
     <use style="fill:#ff8c00;stroke:#ff8c00;stroke-width:0.8;" x="178.855439" xlink:href="#mebfffac0ec" y="81.456583"/>
     <use style="fill:#ff8c00;stroke:#ff8c00;stroke-width:0.8;" x="188.251532" xlink:href="#mebfffac0ec" y="79.026263"/>
     <use style="fill:#ff8c00;stroke:#ff8c00;stroke-width:0.8;" x="190.314131" xlink:href="#mebfffac0ec" y="30.378136"/>
     <use style="fill:#ff8c00;stroke:#ff8c00;stroke-width:0.8;" x="194.754607" xlink:href="#mebfffac0ec" y="82.889786"/>
     <use style="fill:#ff8c00;stroke:#ff8c00;stroke-width:0.8;" x="200.642533" xlink:href="#mebfffac0ec" y="98.482623"/>
     <use style="fill:#ff8c00;stroke:#ff8c00;stroke-width:0.8;" x="214.154948" xlink:href="#mebfffac0ec" y="65.492371"/>
     <use style="fill:#ff8c00;stroke:#ff8c00;stroke-width:0.8;" x="218.460476" xlink:href="#mebfffac0ec" y="64.52856"/>
     <use style="fill:#ff8c00;stroke:#ff8c00;stroke-width:0.8;" x="219.490867" xlink:href="#mebfffac0ec" y="118.694881"/>
     <use style="fill:#ff8c00;stroke:#ff8c00;stroke-width:0.8;" x="224.375046" xlink:href="#mebfffac0ec" y="68.175708"/>
     <use style="fill:#ff8c00;stroke:#ff8c00;stroke-width:0.8;" x="225.285592" xlink:href="#mebfffac0ec" y="58.066094"/>
     <use style="fill:#ff8c00;stroke:#ff8c00;stroke-width:0.8;" x="228.682328" xlink:href="#mebfffac0ec" y="51.273542"/>
     <use style="fill:#ff8c00;stroke:#ff8c00;stroke-width:0.8;" x="241.230077" xlink:href="#mebfffac0ec" y="40.220515"/>
     <use style="fill:#ff8c00;stroke:#ff8c00;stroke-width:0.8;" x="241.563097" xlink:href="#mebfffac0ec" y="99.9188"/>
     <use style="fill:#ff8c00;stroke:#ff8c00;stroke-width:0.8;" x="248.414194" xlink:href="#mebfffac0ec" y="52.68814"/>
     <use style="fill:#ff8c00;stroke:#ff8c00;stroke-width:0.8;" x="250.114204" xlink:href="#mebfffac0ec" y="60.485082"/>
     <use style="fill:#ff8c00;stroke:#ff8c00;stroke-width:0.8;" x="250.841504" xlink:href="#mebfffac0ec" y="62.589883"/>
     <use style="fill:#ff8c00;stroke:#ff8c00;stroke-width:0.8;" x="252.495328" xlink:href="#mebfffac0ec" y="60.151297"/>
     <use style="fill:#ff8c00;stroke:#ff8c00;stroke-width:0.8;" x="254.02082" xlink:href="#mebfffac0ec" y="72.493316"/>
     <use style="fill:#ff8c00;stroke:#ff8c00;stroke-width:0.8;" x="254.766572" xlink:href="#mebfffac0ec" y="98.228577"/>
     <use style="fill:#ff8c00;stroke:#ff8c00;stroke-width:0.8;" x="259.631156" xlink:href="#mebfffac0ec" y="114.834947"/>
     <use style="fill:#ff8c00;stroke:#ff8c00;stroke-width:0.8;" x="262.57451" xlink:href="#mebfffac0ec" y="97.213097"/>
     <use style="fill:#ff8c00;stroke:#ff8c00;stroke-width:0.8;" x="262.963863" xlink:href="#mebfffac0ec" y="71.678047"/>
     <use style="fill:#ff8c00;stroke:#ff8c00;stroke-width:0.8;" x="269.567059" xlink:href="#mebfffac0ec" y="116.686139"/>
     <use style="fill:#ff8c00;stroke:#ff8c00;stroke-width:0.8;" x="273.282015" xlink:href="#mebfffac0ec" y="102.089156"/>
     <use style="fill:#ff8c00;stroke:#ff8c00;stroke-width:0.8;" x="279.602435" xlink:href="#mebfffac0ec" y="102.383113"/>
     <use style="fill:#ff8c00;stroke:#ff8c00;stroke-width:0.8;" x="281.040041" xlink:href="#mebfffac0ec" y="120.203095"/>
     <use style="fill:#ff8c00;stroke:#ff8c00;stroke-width:0.8;" x="285.550385" xlink:href="#mebfffac0ec" y="112.334295"/>
     <use style="fill:#ff8c00;stroke:#ff8c00;stroke-width:0.8;" x="286.576753" xlink:href="#mebfffac0ec" y="92.824261"/>
     <use style="fill:#ff8c00;stroke:#ff8c00;stroke-width:0.8;" x="287.274143" xlink:href="#mebfffac0ec" y="129.854031"/>
     <use style="fill:#ff8c00;stroke:#ff8c00;stroke-width:0.8;" x="289.92902" xlink:href="#mebfffac0ec" y="136.77293"/>
     <use style="fill:#ff8c00;stroke:#ff8c00;stroke-width:0.8;" x="291.581369" xlink:href="#mebfffac0ec" y="113.860548"/>
     <use style="fill:#ff8c00;stroke:#ff8c00;stroke-width:0.8;" x="291.883131" xlink:href="#mebfffac0ec" y="104.395955"/>
     <use style="fill:#ff8c00;stroke:#ff8c00;stroke-width:0.8;" x="292.469311" xlink:href="#mebfffac0ec" y="150.915132"/>
     <use style="fill:#ff8c00;stroke:#ff8c00;stroke-width:0.8;" x="294.030157" xlink:href="#mebfffac0ec" y="122.00442"/>
     <use style="fill:#ff8c00;stroke:#ff8c00;stroke-width:0.8;" x="298.113118" xlink:href="#mebfffac0ec" y="128.582809"/>
     <use style="fill:#ff8c00;stroke:#ff8c00;stroke-width:0.8;" x="302.172221" xlink:href="#mebfffac0ec" y="96.582779"/>
     <use style="fill:#ff8c00;stroke:#ff8c00;stroke-width:0.8;" x="304.938013" xlink:href="#mebfffac0ec" y="121.667279"/>
     <use style="fill:#ff8c00;stroke:#ff8c00;stroke-width:0.8;" x="308.794182" xlink:href="#mebfffac0ec" y="131.215642"/>
     <use style="fill:#ff8c00;stroke:#ff8c00;stroke-width:0.8;" x="308.816361" xlink:href="#mebfffac0ec" y="126.855554"/>
     <use style="fill:#ff8c00;stroke:#ff8c00;stroke-width:0.8;" x="309.288361" xlink:href="#mebfffac0ec" y="130.434292"/>
     <use style="fill:#ff8c00;stroke:#ff8c00;stroke-width:0.8;" x="316.334844" xlink:href="#mebfffac0ec" y="92.692387"/>
     <use style="fill:#ff8c00;stroke:#ff8c00;stroke-width:0.8;" x="318.461277" xlink:href="#mebfffac0ec" y="98.954157"/>
     <use style="fill:#ff8c00;stroke:#ff8c00;stroke-width:0.8;" x="318.689656" xlink:href="#mebfffac0ec" y="141.123318"/>
     <use style="fill:#ff8c00;stroke:#ff8c00;stroke-width:0.8;" x="324.488054" xlink:href="#mebfffac0ec" y="112.775612"/>
     <use style="fill:#ff8c00;stroke:#ff8c00;stroke-width:0.8;" x="334.106122" xlink:href="#mebfffac0ec" y="123.208362"/>
     <use style="fill:#ff8c00;stroke:#ff8c00;stroke-width:0.8;" x="334.303244" xlink:href="#mebfffac0ec" y="95.470514"/>
     <use style="fill:#ff8c00;stroke:#ff8c00;stroke-width:0.8;" x="347.806857" xlink:href="#mebfffac0ec" y="102.664265"/>
     <use style="fill:#ff8c00;stroke:#ff8c00;stroke-width:0.8;" x="348.054943" xlink:href="#mebfffac0ec" y="67.695212"/>
    </g>
   </g>
   <g id="line2d_13">
    <path clip-path="url(#p25d2def5a2)" d="M 43.691307 137.025511 
L 46.241336 144.448596 
L 48.422872 150.382132 
L 57.243803 170.572338 
L 60.416427 176.396163 
L 63.129024 180.796881 
L 65.815062 184.642849 
L 65.8731 184.720431 
L 67.498511 186.799785 
L 67.798286 187.163716 
L 71.487982 191.154197 
L 75.351935 194.392525 
L 79.36505 196.784355 
L 80.5601 197.312842 
L 86.591974 198.760422 
L 90.681846 198.649427 
L 90.944988 198.613758 
L 94.903815 197.681145 
L 96.976516 196.908267 
L 102.366914 194.050862 
L 102.675356 193.852383 
L 103.129559 193.553537 
L 104.620144 192.518789 
L 108.12206 189.776498 
L 112.757255 185.530265 
L 115.970242 182.21814 
L 116.001919 182.184104 
L 118.704725 179.187479 
L 122.515503 174.675696 
L 123.40302 173.581357 
L 123.893564 172.969958 
L 125.014461 171.556096 
L 125.159576 171.371391 
L 130.035748 164.965346 
L 131.618542 162.812429 
L 133.085874 160.789466 
L 134.480173 158.845545 
L 140.107493 150.832375 
L 143.305446 146.198227 
L 146.586987 141.41663 
L 148.134704 139.159897 
L 150.093723 136.307903 
L 154.381409 130.108602 
L 154.893227 129.374497 
L 155.639523 128.30694 
L 158.247081 124.607367 
L 158.410555 124.377187 
L 158.735475 123.920353 
L 166.603316 113.186733 
L 170.647714 107.973656 
L 174.657836 103.056499 
L 178.237245 98.905563 
L 178.855439 98.213051 
L 188.251532 88.659223 
L 190.314131 86.823265 
L 194.754607 83.213449 
L 200.642533 79.178297 
L 214.154948 73.310783 
L 218.460476 72.449871 
L 219.490867 72.315571 
L 224.375046 72.050318 
L 225.285592 72.067794 
L 228.682328 72.314451 
L 241.230077 75.564333 
L 241.563097 75.697144 
L 248.414194 78.902456 
L 250.114204 79.828041 
L 250.841504 80.238565 
L 252.495328 81.203172 
L 254.02082 82.129621 
L 254.766572 82.594759 
L 259.631156 85.80833 
L 262.57451 87.885169 
L 262.963863 88.166329 
L 269.567059 93.115839 
L 273.282015 96.006316 
L 279.602435 100.979042 
L 281.040041 102.104555 
L 285.550385 105.581882 
L 286.576753 106.356777 
L 287.274143 106.878871 
L 289.92902 108.828626 
L 291.581369 110.00726 
L 291.883131 110.219265 
L 292.469311 110.628051 
L 294.030157 111.695901 
L 298.113118 114.328199 
L 302.172221 116.671137 
L 304.938013 118.083282 
L 308.794182 119.765817 
L 308.816361 119.774452 
L 309.288361 119.955251 
L 316.334844 121.926865 
L 318.461277 122.228512 
L 318.689656 122.25214 
L 324.488054 122.244221 
L 334.106122 119.347919 
L 334.303244 119.247054 
L 347.806857 107.839959 
L 348.054943 107.541909 
" style="fill:none;stroke:#4c72b0;stroke-linecap:round;stroke-width:1.2;"/>
   </g>
   <g id="line2d_14">
    <path clip-path="url(#p25d2def5a2)" d="M 43.691307 228.050864 
L 46.241336 225.147703 
L 48.422872 222.685737 
L 57.243803 212.937667 
L 60.416427 209.513858 
L 63.129024 206.621543 
L 65.815062 203.78965 
L 65.8731 203.728815 
L 67.498511 202.031186 
L 67.798286 201.719386 
L 71.487982 197.914809 
L 75.351935 193.996759 
L 79.36505 189.999944 
L 80.5601 188.824136 
L 86.591974 182.991179 
L 90.681846 179.1338 
L 90.944988 178.888341 
L 94.903815 175.235595 
L 96.976516 173.353249 
L 102.366914 168.555662 
L 102.675356 168.285439 
L 103.129559 167.888367 
L 104.620144 166.592406 
L 108.12206 163.590937 
L 112.757255 159.712023 
L 115.970242 157.086558 
L 116.001919 157.060933 
L 118.704725 154.893226 
L 122.515503 151.900106 
L 123.40302 151.213689 
L 123.893564 150.836033 
L 125.014461 149.977731 
L 125.159576 149.867085 
L 130.035748 146.212479 
L 131.618542 145.052751 
L 133.085874 143.989305 
L 134.480173 142.989233 
L 140.107493 139.056957 
L 143.305446 136.896999 
L 146.586987 134.737278 
L 148.134704 133.738681 
L 150.093723 132.49318 
L 154.381409 129.839492 
L 154.893227 129.529381 
L 155.639523 129.079751 
L 158.247081 127.532568 
L 158.410555 127.436807 
L 158.735475 127.246908 
L 166.603316 122.825469 
L 170.647714 120.685694 
L 174.657836 118.653912 
L 178.237245 116.916334 
L 178.855439 116.623523 
L 188.251532 112.438653 
L 190.314131 111.587055 
L 194.754607 109.836118 
L 200.642533 107.68882 
L 214.154948 103.518802 
L 218.460476 102.413542 
L 219.490867 102.165136 
L 224.375046 101.072497 
L 225.285592 100.884321 
L 228.682328 100.225484 
L 241.230077 98.383877 
L 241.563097 98.34774 
L 248.414194 97.751042 
L 250.114204 97.64638 
L 250.841504 97.606882 
L 252.495328 97.528848 
L 254.02082 97.471387 
L 254.766572 97.448369 
L 259.631156 97.380044 
L 262.57451 97.407671 
L 262.963863 97.415224 
L 269.567059 97.682139 
L 273.282015 97.947666 
L 279.602435 98.590537 
L 281.040041 98.770387 
L 285.550385 99.415573 
L 286.576753 99.579535 
L 287.274143 99.694571 
L 289.92902 100.159353 
L 291.581369 100.470102 
L 291.883131 100.528633 
L 292.469311 100.6439 
L 294.030157 100.96094 
L 298.113118 101.859804 
L 302.172221 102.853116 
L 304.938013 103.586861 
L 308.794182 104.68684 
L 308.816361 104.693425 
L 309.288361 104.834282 
L 316.334844 107.09661 
L 318.461277 107.837988 
L 318.689656 107.919228 
L 324.488054 110.086789 
L 334.106122 114.126561 
L 334.303244 114.215142 
L 347.806857 120.834294 
L 348.054943 120.966035 
" style="fill:none;stroke:#dd8452;stroke-linecap:round;stroke-width:1.2;"/>
   </g>
   <g id="patch_3">
    <path d="M 28.473125 237.9345 
L 28.473125 20.4945 
" style="fill:none;stroke:#ffffff;stroke-linecap:square;stroke-linejoin:miter;"/>
   </g>
   <g id="patch_4">
    <path d="M 363.273125 237.9345 
L 363.273125 20.4945 
" style="fill:none;stroke:#ffffff;stroke-linecap:square;stroke-linejoin:miter;"/>
   </g>
   <g id="patch_5">
    <path d="M 28.473125 237.9345 
L 363.273125 237.9345 
" style="fill:none;stroke:#ffffff;stroke-linecap:square;stroke-linejoin:miter;"/>
   </g>
   <g id="patch_6">
    <path d="M 28.473125 20.4945 
L 363.273125 20.4945 
" style="fill:none;stroke:#ffffff;stroke-linecap:square;stroke-linejoin:miter;"/>
   </g>
   <g id="text_13">
    <!-- Support Vector Regression (RBF) -->
    <g style="fill:#262626;" transform="translate(117.637625 14.4945)scale(0.096 -0.096)">
     <defs>
      <path d="M 3425 4513 
L 3425 3897 
Q 3066 4069 2747 4153 
Q 2428 4238 2131 4238 
Q 1616 4238 1336 4038 
Q 1056 3838 1056 3469 
Q 1056 3159 1242 3001 
Q 1428 2844 1947 2747 
L 2328 2669 
Q 3034 2534 3370 2195 
Q 3706 1856 3706 1288 
Q 3706 609 3251 259 
Q 2797 -91 1919 -91 
Q 1588 -91 1214 -16 
Q 841 59 441 206 
L 441 856 
Q 825 641 1194 531 
Q 1563 422 1919 422 
Q 2459 422 2753 634 
Q 3047 847 3047 1241 
Q 3047 1584 2836 1778 
Q 2625 1972 2144 2069 
L 1759 2144 
Q 1053 2284 737 2584 
Q 422 2884 422 3419 
Q 422 4038 858 4394 
Q 1294 4750 2059 4750 
Q 2388 4750 2728 4690 
Q 3069 4631 3425 4513 
z
" id="DejaVuSans-53" transform="scale(0.015625)"/>
      <path d="M 544 1381 
L 544 3500 
L 1119 3500 
L 1119 1403 
Q 1119 906 1312 657 
Q 1506 409 1894 409 
Q 2359 409 2629 706 
Q 2900 1003 2900 1516 
L 2900 3500 
L 3475 3500 
L 3475 0 
L 2900 0 
L 2900 538 
Q 2691 219 2414 64 
Q 2138 -91 1772 -91 
Q 1169 -91 856 284 
Q 544 659 544 1381 
z
M 1991 3584 
L 1991 3584 
z
" id="DejaVuSans-75" transform="scale(0.015625)"/>
      <path d="M 1159 525 
L 1159 -1331 
L 581 -1331 
L 581 3500 
L 1159 3500 
L 1159 2969 
Q 1341 3281 1617 3432 
Q 1894 3584 2278 3584 
Q 2916 3584 3314 3078 
Q 3713 2572 3713 1747 
Q 3713 922 3314 415 
Q 2916 -91 2278 -91 
Q 1894 -91 1617 61 
Q 1341 213 1159 525 
z
M 3116 1747 
Q 3116 2381 2855 2742 
Q 2594 3103 2138 3103 
Q 1681 3103 1420 2742 
Q 1159 2381 1159 1747 
Q 1159 1113 1420 752 
Q 1681 391 2138 391 
Q 2594 391 2855 752 
Q 3116 1113 3116 1747 
z
" id="DejaVuSans-70" transform="scale(0.015625)"/>
      <path d="M 1959 3097 
Q 1497 3097 1228 2736 
Q 959 2375 959 1747 
Q 959 1119 1226 758 
Q 1494 397 1959 397 
Q 2419 397 2687 759 
Q 2956 1122 2956 1747 
Q 2956 2369 2687 2733 
Q 2419 3097 1959 3097 
z
M 1959 3584 
Q 2709 3584 3137 3096 
Q 3566 2609 3566 1747 
Q 3566 888 3137 398 
Q 2709 -91 1959 -91 
Q 1206 -91 779 398 
Q 353 888 353 1747 
Q 353 2609 779 3096 
Q 1206 3584 1959 3584 
z
" id="DejaVuSans-6f" transform="scale(0.015625)"/>
      <path d="M 2631 2963 
Q 2534 3019 2420 3045 
Q 2306 3072 2169 3072 
Q 1681 3072 1420 2755 
Q 1159 2438 1159 1844 
L 1159 0 
L 581 0 
L 581 3500 
L 1159 3500 
L 1159 2956 
Q 1341 3275 1631 3429 
Q 1922 3584 2338 3584 
Q 2397 3584 2469 3576 
Q 2541 3569 2628 3553 
L 2631 2963 
z
" id="DejaVuSans-72" transform="scale(0.015625)"/>
      <path d="M 1172 4494 
L 1172 3500 
L 2356 3500 
L 2356 3053 
L 1172 3053 
L 1172 1153 
Q 1172 725 1289 603 
Q 1406 481 1766 481 
L 2356 481 
L 2356 0 
L 1766 0 
Q 1100 0 847 248 
Q 594 497 594 1153 
L 594 3053 
L 172 3053 
L 172 3500 
L 594 3500 
L 594 4494 
L 1172 4494 
z
" id="DejaVuSans-74" transform="scale(0.015625)"/>
      <path id="DejaVuSans-20" transform="scale(0.015625)"/>
      <path d="M 1831 0 
L 50 4666 
L 709 4666 
L 2188 738 
L 3669 4666 
L 4325 4666 
L 2547 0 
L 1831 0 
z
" id="DejaVuSans-56" transform="scale(0.015625)"/>
      <path d="M 3597 1894 
L 3597 1613 
L 953 1613 
Q 991 1019 1311 708 
Q 1631 397 2203 397 
Q 2534 397 2845 478 
Q 3156 559 3463 722 
L 3463 178 
Q 3153 47 2828 -22 
Q 2503 -91 2169 -91 
Q 1331 -91 842 396 
Q 353 884 353 1716 
Q 353 2575 817 3079 
Q 1281 3584 2069 3584 
Q 2775 3584 3186 3129 
Q 3597 2675 3597 1894 
z
M 3022 2063 
Q 3016 2534 2758 2815 
Q 2500 3097 2075 3097 
Q 1594 3097 1305 2825 
Q 1016 2553 972 2059 
L 3022 2063 
z
" id="DejaVuSans-65" transform="scale(0.015625)"/>
      <path d="M 3122 3366 
L 3122 2828 
Q 2878 2963 2633 3030 
Q 2388 3097 2138 3097 
Q 1578 3097 1268 2742 
Q 959 2388 959 1747 
Q 959 1106 1268 751 
Q 1578 397 2138 397 
Q 2388 397 2633 464 
Q 2878 531 3122 666 
L 3122 134 
Q 2881 22 2623 -34 
Q 2366 -91 2075 -91 
Q 1284 -91 818 406 
Q 353 903 353 1747 
Q 353 2603 823 3093 
Q 1294 3584 2113 3584 
Q 2378 3584 2631 3529 
Q 2884 3475 3122 3366 
z
" id="DejaVuSans-63" transform="scale(0.015625)"/>
      <path d="M 2841 2188 
Q 3044 2119 3236 1894 
Q 3428 1669 3622 1275 
L 4263 0 
L 3584 0 
L 2988 1197 
Q 2756 1666 2539 1819 
Q 2322 1972 1947 1972 
L 1259 1972 
L 1259 0 
L 628 0 
L 628 4666 
L 2053 4666 
Q 2853 4666 3247 4331 
Q 3641 3997 3641 3322 
Q 3641 2881 3436 2590 
Q 3231 2300 2841 2188 
z
M 1259 4147 
L 1259 2491 
L 2053 2491 
Q 2509 2491 2742 2702 
Q 2975 2913 2975 3322 
Q 2975 3731 2742 3939 
Q 2509 4147 2053 4147 
L 1259 4147 
z
" id="DejaVuSans-52" transform="scale(0.015625)"/>
      <path d="M 2906 1791 
Q 2906 2416 2648 2759 
Q 2391 3103 1925 3103 
Q 1463 3103 1205 2759 
Q 947 2416 947 1791 
Q 947 1169 1205 825 
Q 1463 481 1925 481 
Q 2391 481 2648 825 
Q 2906 1169 2906 1791 
z
M 3481 434 
Q 3481 -459 3084 -895 
Q 2688 -1331 1869 -1331 
Q 1566 -1331 1297 -1286 
Q 1028 -1241 775 -1147 
L 775 -588 
Q 1028 -725 1275 -790 
Q 1522 -856 1778 -856 
Q 2344 -856 2625 -561 
Q 2906 -266 2906 331 
L 2906 616 
Q 2728 306 2450 153 
Q 2172 0 1784 0 
Q 1141 0 747 490 
Q 353 981 353 1791 
Q 353 2603 747 3093 
Q 1141 3584 1784 3584 
Q 2172 3584 2450 3431 
Q 2728 3278 2906 2969 
L 2906 3500 
L 3481 3500 
L 3481 434 
z
" id="DejaVuSans-67" transform="scale(0.015625)"/>
      <path d="M 2834 3397 
L 2834 2853 
Q 2591 2978 2328 3040 
Q 2066 3103 1784 3103 
Q 1356 3103 1142 2972 
Q 928 2841 928 2578 
Q 928 2378 1081 2264 
Q 1234 2150 1697 2047 
L 1894 2003 
Q 2506 1872 2764 1633 
Q 3022 1394 3022 966 
Q 3022 478 2636 193 
Q 2250 -91 1575 -91 
Q 1294 -91 989 -36 
Q 684 19 347 128 
L 347 722 
Q 666 556 975 473 
Q 1284 391 1588 391 
Q 1994 391 2212 530 
Q 2431 669 2431 922 
Q 2431 1156 2273 1281 
Q 2116 1406 1581 1522 
L 1381 1569 
Q 847 1681 609 1914 
Q 372 2147 372 2553 
Q 372 3047 722 3315 
Q 1072 3584 1716 3584 
Q 2034 3584 2315 3537 
Q 2597 3491 2834 3397 
z
" id="DejaVuSans-73" transform="scale(0.015625)"/>
      <path d="M 603 3500 
L 1178 3500 
L 1178 0 
L 603 0 
L 603 3500 
z
M 603 4863 
L 1178 4863 
L 1178 4134 
L 603 4134 
L 603 4863 
z
" id="DejaVuSans-69" transform="scale(0.015625)"/>
      <path d="M 3513 2113 
L 3513 0 
L 2938 0 
L 2938 2094 
Q 2938 2591 2744 2837 
Q 2550 3084 2163 3084 
Q 1697 3084 1428 2787 
Q 1159 2491 1159 1978 
L 1159 0 
L 581 0 
L 581 3500 
L 1159 3500 
L 1159 2956 
Q 1366 3272 1645 3428 
Q 1925 3584 2291 3584 
Q 2894 3584 3203 3211 
Q 3513 2838 3513 2113 
z
" id="DejaVuSans-6e" transform="scale(0.015625)"/>
      <path d="M 1984 4856 
Q 1566 4138 1362 3434 
Q 1159 2731 1159 2009 
Q 1159 1288 1364 580 
Q 1569 -128 1984 -844 
L 1484 -844 
Q 1016 -109 783 600 
Q 550 1309 550 2009 
Q 550 2706 781 3412 
Q 1013 4119 1484 4856 
L 1984 4856 
z
" id="DejaVuSans-28" transform="scale(0.015625)"/>
      <path d="M 1259 2228 
L 1259 519 
L 2272 519 
Q 2781 519 3026 730 
Q 3272 941 3272 1375 
Q 3272 1813 3026 2020 
Q 2781 2228 2272 2228 
L 1259 2228 
z
M 1259 4147 
L 1259 2741 
L 2194 2741 
Q 2656 2741 2882 2914 
Q 3109 3088 3109 3444 
Q 3109 3797 2882 3972 
Q 2656 4147 2194 4147 
L 1259 4147 
z
M 628 4666 
L 2241 4666 
Q 2963 4666 3353 4366 
Q 3744 4066 3744 3513 
Q 3744 3084 3544 2831 
Q 3344 2578 2956 2516 
Q 3422 2416 3680 2098 
Q 3938 1781 3938 1306 
Q 3938 681 3513 340 
Q 3088 0 2303 0 
L 628 0 
L 628 4666 
z
" id="DejaVuSans-42" transform="scale(0.015625)"/>
      <path d="M 628 4666 
L 3309 4666 
L 3309 4134 
L 1259 4134 
L 1259 2759 
L 3109 2759 
L 3109 2228 
L 1259 2228 
L 1259 0 
L 628 0 
L 628 4666 
z
" id="DejaVuSans-46" transform="scale(0.015625)"/>
      <path d="M 513 4856 
L 1013 4856 
Q 1481 4119 1714 3412 
Q 1947 2706 1947 2009 
Q 1947 1309 1714 600 
Q 1481 -109 1013 -844 
L 513 -844 
Q 928 -128 1133 580 
Q 1338 1288 1338 2009 
Q 1338 2731 1133 3434 
Q 928 4138 513 4856 
z
" id="DejaVuSans-29" transform="scale(0.015625)"/>
     </defs>
     <use xlink:href="#DejaVuSans-53"/>
     <use x="63.476562" xlink:href="#DejaVuSans-75"/>
     <use x="126.855469" xlink:href="#DejaVuSans-70"/>
     <use x="190.332031" xlink:href="#DejaVuSans-70"/>
     <use x="253.808594" xlink:href="#DejaVuSans-6f"/>
     <use x="314.990234" xlink:href="#DejaVuSans-72"/>
     <use x="356.103516" xlink:href="#DejaVuSans-74"/>
     <use x="395.3125" xlink:href="#DejaVuSans-20"/>
     <use x="427.099609" xlink:href="#DejaVuSans-56"/>
     <use x="487.757812" xlink:href="#DejaVuSans-65"/>
     <use x="549.28125" xlink:href="#DejaVuSans-63"/>
     <use x="604.261719" xlink:href="#DejaVuSans-74"/>
     <use x="643.470703" xlink:href="#DejaVuSans-6f"/>
     <use x="704.652344" xlink:href="#DejaVuSans-72"/>
     <use x="745.765625" xlink:href="#DejaVuSans-20"/>
     <use x="777.552734" xlink:href="#DejaVuSans-52"/>
     <use x="842.535156" xlink:href="#DejaVuSans-65"/>
     <use x="904.058594" xlink:href="#DejaVuSans-67"/>
     <use x="967.535156" xlink:href="#DejaVuSans-72"/>
     <use x="1006.398438" xlink:href="#DejaVuSans-65"/>
     <use x="1067.921875" xlink:href="#DejaVuSans-73"/>
     <use x="1120.021484" xlink:href="#DejaVuSans-73"/>
     <use x="1172.121094" xlink:href="#DejaVuSans-69"/>
     <use x="1199.904297" xlink:href="#DejaVuSans-6f"/>
     <use x="1261.085938" xlink:href="#DejaVuSans-6e"/>
     <use x="1324.464844" xlink:href="#DejaVuSans-20"/>
     <use x="1356.251953" xlink:href="#DejaVuSans-28"/>
     <use x="1395.265625" xlink:href="#DejaVuSans-52"/>
     <use x="1464.748047" xlink:href="#DejaVuSans-42"/>
     <use x="1533.351562" xlink:href="#DejaVuSans-46"/>
     <use x="1590.871094" xlink:href="#DejaVuSans-29"/>
    </g>
   </g>
   <g id="legend_1">
    <g id="patch_7">
     <path d="M 274.068625 66.28475 
L 357.113125 66.28475 
Q 358.873125 66.28475 358.873125 64.52475 
L 358.873125 26.6545 
Q 358.873125 24.8945 357.113125 24.8945 
L 274.068625 24.8945 
Q 272.308625 24.8945 272.308625 26.6545 
L 272.308625 64.52475 
Q 272.308625 66.28475 274.068625 66.28475 
z
" style="fill:#eaeaf2;opacity:0.8;stroke:#cccccc;stroke-linejoin:miter;stroke-width:0.8;"/>
    </g>
    <g id="line2d_15">
     <path d="M 275.828625 32.021125 
L 293.428625 32.021125 
" style="fill:none;stroke:#4c72b0;stroke-linecap:round;stroke-width:1.2;"/>
    </g>
    <g id="line2d_16"/>
    <g id="text_14">
     <!-- gamma=1 -->
     <g style="fill:#262626;" transform="translate(300.468625 35.101125)scale(0.088 -0.088)">
      <defs>
       <path d="M 2194 1759 
Q 1497 1759 1228 1600 
Q 959 1441 959 1056 
Q 959 750 1161 570 
Q 1363 391 1709 391 
Q 2188 391 2477 730 
Q 2766 1069 2766 1631 
L 2766 1759 
L 2194 1759 
z
M 3341 1997 
L 3341 0 
L 2766 0 
L 2766 531 
Q 2569 213 2275 61 
Q 1981 -91 1556 -91 
Q 1019 -91 701 211 
Q 384 513 384 1019 
Q 384 1609 779 1909 
Q 1175 2209 1959 2209 
L 2766 2209 
L 2766 2266 
Q 2766 2663 2505 2880 
Q 2244 3097 1772 3097 
Q 1472 3097 1187 3025 
Q 903 2953 641 2809 
L 641 3341 
Q 956 3463 1253 3523 
Q 1550 3584 1831 3584 
Q 2591 3584 2966 3190 
Q 3341 2797 3341 1997 
z
" id="DejaVuSans-61" transform="scale(0.015625)"/>
       <path d="M 3328 2828 
Q 3544 3216 3844 3400 
Q 4144 3584 4550 3584 
Q 5097 3584 5394 3201 
Q 5691 2819 5691 2113 
L 5691 0 
L 5113 0 
L 5113 2094 
Q 5113 2597 4934 2840 
Q 4756 3084 4391 3084 
Q 3944 3084 3684 2787 
Q 3425 2491 3425 1978 
L 3425 0 
L 2847 0 
L 2847 2094 
Q 2847 2600 2669 2842 
Q 2491 3084 2119 3084 
Q 1678 3084 1418 2786 
Q 1159 2488 1159 1978 
L 1159 0 
L 581 0 
L 581 3500 
L 1159 3500 
L 1159 2956 
Q 1356 3278 1631 3431 
Q 1906 3584 2284 3584 
Q 2666 3584 2933 3390 
Q 3200 3197 3328 2828 
z
" id="DejaVuSans-6d" transform="scale(0.015625)"/>
       <path d="M 678 2906 
L 4684 2906 
L 4684 2381 
L 678 2381 
L 678 2906 
z
M 678 1631 
L 4684 1631 
L 4684 1100 
L 678 1100 
L 678 1631 
z
" id="DejaVuSans-3d" transform="scale(0.015625)"/>
      </defs>
      <use xlink:href="#DejaVuSans-67"/>
      <use x="63.476562" xlink:href="#DejaVuSans-61"/>
      <use x="124.755859" xlink:href="#DejaVuSans-6d"/>
      <use x="222.167969" xlink:href="#DejaVuSans-6d"/>
      <use x="319.580078" xlink:href="#DejaVuSans-61"/>
      <use x="380.859375" xlink:href="#DejaVuSans-3d"/>
      <use x="464.648438" xlink:href="#DejaVuSans-31"/>
     </g>
    </g>
    <g id="line2d_17">
     <path d="M 275.828625 44.937875 
L 293.428625 44.937875 
" style="fill:none;stroke:#dd8452;stroke-linecap:round;stroke-width:1.2;"/>
    </g>
    <g id="line2d_18"/>
    <g id="text_15">
     <!-- gamma=0.1 -->
     <g style="fill:#262626;" transform="translate(300.468625 48.017875)scale(0.088 -0.088)">
      <use xlink:href="#DejaVuSans-67"/>
      <use x="63.476562" xlink:href="#DejaVuSans-61"/>
      <use x="124.755859" xlink:href="#DejaVuSans-6d"/>
      <use x="222.167969" xlink:href="#DejaVuSans-6d"/>
      <use x="319.580078" xlink:href="#DejaVuSans-61"/>
      <use x="380.859375" xlink:href="#DejaVuSans-3d"/>
      <use x="464.648438" xlink:href="#DejaVuSans-30"/>
      <use x="528.271484" xlink:href="#DejaVuSans-2e"/>
      <use x="560.058594" xlink:href="#DejaVuSans-31"/>
     </g>
    </g>
    <g id="PathCollection_2">
     <g>
      <use style="fill:#ff8c00;stroke:#ff8c00;stroke-width:0.8;" x="284.628625" xlink:href="#mebfffac0ec" y="58.624625"/>
     </g>
    </g>
    <g id="text_16">
     <!-- data -->
     <g style="fill:#262626;" transform="translate(300.468625 60.934625)scale(0.088 -0.088)">
      <defs>
       <path d="M 2906 2969 
L 2906 4863 
L 3481 4863 
L 3481 0 
L 2906 0 
L 2906 525 
Q 2725 213 2448 61 
Q 2172 -91 1784 -91 
Q 1150 -91 751 415 
Q 353 922 353 1747 
Q 353 2572 751 3078 
Q 1150 3584 1784 3584 
Q 2172 3584 2448 3432 
Q 2725 3281 2906 2969 
z
M 947 1747 
Q 947 1113 1208 752 
Q 1469 391 1925 391 
Q 2381 391 2643 752 
Q 2906 1113 2906 1747 
Q 2906 2381 2643 2742 
Q 2381 3103 1925 3103 
Q 1469 3103 1208 2742 
Q 947 2381 947 1747 
z
" id="DejaVuSans-64" transform="scale(0.015625)"/>
      </defs>
      <use xlink:href="#DejaVuSans-64"/>
      <use x="63.476562" xlink:href="#DejaVuSans-61"/>
      <use x="124.755859" xlink:href="#DejaVuSans-74"/>
      <use x="163.964844" xlink:href="#DejaVuSans-61"/>
     </g>
    </g>
   </g>
  </g>
 </g>
 <defs>
  <clipPath id="p25d2def5a2">
   <rect height="217.44" width="334.8" x="28.473125" y="20.4945"/>
  </clipPath>
 </defs>
</svg>
