<?xml version="1.0" encoding="utf-8" standalone="no"?>
<!DOCTYPE svg PUBLIC "-//W3C//DTD SVG 1.1//EN"
  "http://www.w3.org/Graphics/SVG/1.1/DTD/svg11.dtd">
<svg height="300.989344pt" version="1.1" viewBox="0 0 396.443437 300.989344" width="396.443437pt" xmlns="http://www.w3.org/2000/svg" xmlns:xlink="http://www.w3.org/1999/xlink">
 <metadata>
  <rdf:RDF xmlns:cc="http://creativecommons.org/ns#" xmlns:dc="http://purl.org/dc/elements/1.1/" xmlns:rdf="http://www.w3.org/1999/02/22-rdf-syntax-ns#">
   <cc:Work>
    <dc:type rdf:resource="http://purl.org/dc/dcmitype/StillImage"/>
    <dc:date>2021-05-06T11:22:17.694651</dc:date>
    <dc:format>image/svg+xml</dc:format>
    <dc:creator>
     <cc:Agent>
      <dc:title>Matplotlib v3.4.1, https://matplotlib.org/</dc:title>
     </cc:Agent>
    </dc:creator>
   </cc:Work>
  </rdf:RDF>
 </metadata>
 <defs>
  <style type="text/css">*{stroke-linecap:butt;stroke-linejoin:round;}</style>
 </defs>
 <g id="figure_1">
  <g id="patch_1">
   <path d="M 0 300.989344 
L 396.443437 300.989344 
L 396.443437 0 
L 0 0 
z
" style="fill:#ffffff;"/>
  </g>
  <g id="axes_1">
   <g id="patch_2">
    <path d="M 28.942188 277.111219 
L 386.062188 277.111219 
L 386.062188 10.999219 
L 28.942188 10.999219 
z
" style="fill:#ffffff;"/>
   </g>
   <g id="PathCollection_1">
    <defs>
     <path d="M 0 3 
C 0.795609 3 1.55874 2.683901 2.12132 2.12132 
C 2.683901 1.55874 3 0.795609 3 -0 
C 3 -0.795609 2.683901 -1.55874 2.12132 -2.12132 
C 1.55874 -2.683901 0.795609 -3 0 -3 
C -0.795609 -3 -1.55874 -2.683901 -2.12132 -2.12132 
C -2.683901 -1.55874 -3 -0.795609 -3 0 
C -3 0.795609 -2.683901 1.55874 -2.12132 2.12132 
C -1.55874 2.683901 -0.795609 3 0 3 
z
" id="C0_0_5a567b6b3f"/>
    </defs>
    <g clip-path="url(#pea4436ad51)">
     <use style="fill:#440154;stroke:#440154;" x="251.241199" xlink:href="#C0_0_5a567b6b3f" y="169.656969"/>
    </g>
    <g clip-path="url(#pea4436ad51)">
     <use style="fill:#440154;stroke:#440154;" x="207.544891" xlink:href="#C0_0_5a567b6b3f" y="189.757617"/>
    </g>
    <g clip-path="url(#pea4436ad51)">
     <use style="fill:#440154;stroke:#440154;" x="179.122609" xlink:href="#C0_0_5a567b6b3f" y="133.336117"/>
    </g>
    <g clip-path="url(#pea4436ad51)">
     <use style="fill:#440154;stroke:#440154;" x="174.113115" xlink:href="#C0_0_5a567b6b3f" y="198.673452"/>
    </g>
    <g clip-path="url(#pea4436ad51)">
     <use style="fill:#440154;stroke:#440154;" x="131.345895" xlink:href="#C0_0_5a567b6b3f" y="142.603555"/>
    </g>
    <g clip-path="url(#pea4436ad51)">
     <use style="fill:#440154;stroke:#440154;" x="136.295539" xlink:href="#C0_0_5a567b6b3f" y="202.057899"/>
    </g>
    <g clip-path="url(#pea4436ad51)">
     <use style="fill:#440154;stroke:#440154;" x="179.782148" xlink:href="#C0_0_5a567b6b3f" y="194.124068"/>
    </g>
    <g clip-path="url(#pea4436ad51)">
     <use style="fill:#440154;stroke:#440154;" x="194.455557" xlink:href="#C0_0_5a567b6b3f" y="154.127824"/>
    </g>
    <g clip-path="url(#pea4436ad51)">
     <use style="fill:#440154;stroke:#440154;" x="178.246007" xlink:href="#C0_0_5a567b6b3f" y="116.623228"/>
    </g>
    <g clip-path="url(#pea4436ad51)">
     <use style="fill:#440154;stroke:#440154;" x="154.259911" xlink:href="#C0_0_5a567b6b3f" y="154.098804"/>
    </g>
    <g clip-path="url(#pea4436ad51)">
     <use style="fill:#440154;stroke:#440154;" x="168.122457" xlink:href="#C0_0_5a567b6b3f" y="145.604671"/>
    </g>
    <g clip-path="url(#pea4436ad51)">
     <use style="fill:#440154;stroke:#440154;" x="115.975221" xlink:href="#C0_0_5a567b6b3f" y="212.204527"/>
    </g>
    <g clip-path="url(#pea4436ad51)">
     <use style="fill:#440154;stroke:#440154;" x="219.748553" xlink:href="#C0_0_5a567b6b3f" y="159.233348"/>
    </g>
    <g clip-path="url(#pea4436ad51)">
     <use style="fill:#440154;stroke:#440154;" x="181.721435" xlink:href="#C0_0_5a567b6b3f" y="198.851473"/>
    </g>
    <g clip-path="url(#pea4436ad51)">
     <use style="fill:#440154;stroke:#440154;" x="123.267738" xlink:href="#C0_0_5a567b6b3f" y="167.831833"/>
    </g>
    <g clip-path="url(#pea4436ad51)">
     <use style="fill:#440154;stroke:#440154;" x="182.286397" xlink:href="#C0_0_5a567b6b3f" y="201.051068"/>
    </g>
    <g clip-path="url(#pea4436ad51)">
     <use style="fill:#440154;stroke:#440154;" x="147.686744" xlink:href="#C0_0_5a567b6b3f" y="161.343713"/>
    </g>
    <g clip-path="url(#pea4436ad51)">
     <use style="fill:#440154;stroke:#440154;" x="143.278015" xlink:href="#C0_0_5a567b6b3f" y="213.047879"/>
    </g>
    <g clip-path="url(#pea4436ad51)">
     <use style="fill:#440154;stroke:#440154;" x="156.982597" xlink:href="#C0_0_5a567b6b3f" y="202.552859"/>
    </g>
    <g clip-path="url(#pea4436ad51)">
     <use style="fill:#440154;stroke:#440154;" x="142.442952" xlink:href="#C0_0_5a567b6b3f" y="228.098222"/>
    </g>
    <g clip-path="url(#pea4436ad51)">
     <use style="fill:#440154;stroke:#440154;" x="191.933789" xlink:href="#C0_0_5a567b6b3f" y="131.589905"/>
    </g>
    <g clip-path="url(#pea4436ad51)">
     <use style="fill:#440154;stroke:#440154;" x="70.044154" xlink:href="#C0_0_5a567b6b3f" y="169.643429"/>
    </g>
    <g clip-path="url(#pea4436ad51)">
     <use style="fill:#440154;stroke:#440154;" x="160.450435" xlink:href="#C0_0_5a567b6b3f" y="154.916524"/>
    </g>
    <g clip-path="url(#pea4436ad51)">
     <use style="fill:#440154;stroke:#440154;" x="140.866791" xlink:href="#C0_0_5a567b6b3f" y="171.365916"/>
    </g>
    <g clip-path="url(#pea4436ad51)">
     <use style="fill:#440154;stroke:#440154;" x="177.872873" xlink:href="#C0_0_5a567b6b3f" y="164.391233"/>
    </g>
    <g clip-path="url(#pea4436ad51)">
     <use style="fill:#fde725;stroke:#fde725;" x="263.634894" xlink:href="#C0_0_5a567b6b3f" y="122.345519"/>
    </g>
    <g clip-path="url(#pea4436ad51)">
     <use style="fill:#fde725;stroke:#fde725;" x="304.725783" xlink:href="#C0_0_5a567b6b3f" y="125.882736"/>
    </g>
    <g clip-path="url(#pea4436ad51)">
     <use style="fill:#fde725;stroke:#fde725;" x="369.469904" xlink:href="#C0_0_5a567b6b3f" y="81.707181"/>
    </g>
    <g clip-path="url(#pea4436ad51)">
     <use style="fill:#fde725;stroke:#fde725;" x="279.487843" xlink:href="#C0_0_5a567b6b3f" y="110.538177"/>
    </g>
    <g clip-path="url(#pea4436ad51)">
     <use style="fill:#fde725;stroke:#fde725;" x="232.535038" xlink:href="#C0_0_5a567b6b3f" y="77.20089"/>
    </g>
    <g clip-path="url(#pea4436ad51)">
     <use style="fill:#fde725;stroke:#fde725;" x="254.7875" xlink:href="#C0_0_5a567b6b3f" y="141.313601"/>
    </g>
    <g clip-path="url(#pea4436ad51)">
     <use style="fill:#fde725;stroke:#fde725;" x="227.341878" xlink:href="#C0_0_5a567b6b3f" y="112.941569"/>
    </g>
    <g clip-path="url(#pea4436ad51)">
     <use style="fill:#fde725;stroke:#fde725;" x="275.144756" xlink:href="#C0_0_5a567b6b3f" y="79.907393"/>
    </g>
    <g clip-path="url(#pea4436ad51)">
     <use style="fill:#fde725;stroke:#fde725;" x="208.681021" xlink:href="#C0_0_5a567b6b3f" y="138.657113"/>
    </g>
    <g clip-path="url(#pea4436ad51)">
     <use style="fill:#fde725;stroke:#fde725;" x="193.144794" xlink:href="#C0_0_5a567b6b3f" y="153.720414"/>
    </g>
    <g clip-path="url(#pea4436ad51)">
     <use style="fill:#fde725;stroke:#fde725;" x="307.356322" xlink:href="#C0_0_5a567b6b3f" y="76.524908"/>
    </g>
    <g clip-path="url(#pea4436ad51)">
     <use style="fill:#fde725;stroke:#fde725;" x="239.294551" xlink:href="#C0_0_5a567b6b3f" y="89.552474"/>
    </g>
    <g clip-path="url(#pea4436ad51)">
     <use style="fill:#fde725;stroke:#fde725;" x="282.949283" xlink:href="#C0_0_5a567b6b3f" y="123.062274"/>
    </g>
    <g clip-path="url(#pea4436ad51)">
     <use style="fill:#fde725;stroke:#fde725;" x="247.454154" xlink:href="#C0_0_5a567b6b3f" y="126.443237"/>
    </g>
    <g clip-path="url(#pea4436ad51)">
     <use style="fill:#fde725;stroke:#fde725;" x="236.329563" xlink:href="#C0_0_5a567b6b3f" y="110.245348"/>
    </g>
    <g clip-path="url(#pea4436ad51)">
     <use style="fill:#fde725;stroke:#fde725;" x="254.240135" xlink:href="#C0_0_5a567b6b3f" y="75.031907"/>
    </g>
    <g clip-path="url(#pea4436ad51)">
     <use style="fill:#fde725;stroke:#fde725;" x="209.904279" xlink:href="#C0_0_5a567b6b3f" y="128.413828"/>
    </g>
    <g clip-path="url(#pea4436ad51)">
     <use style="fill:#fde725;stroke:#fde725;" x="248.392682" xlink:href="#C0_0_5a567b6b3f" y="98.867572"/>
    </g>
    <g clip-path="url(#pea4436ad51)">
     <use style="fill:#fde725;stroke:#fde725;" x="210.859698" xlink:href="#C0_0_5a567b6b3f" y="159.770811"/>
    </g>
    <g clip-path="url(#pea4436ad51)">
     <use style="fill:#fde725;stroke:#fde725;" x="229.072962" xlink:href="#C0_0_5a567b6b3f" y="73.331023"/>
    </g>
    <g clip-path="url(#pea4436ad51)">
     <use style="fill:#fde725;stroke:#fde725;" x="233.245251" xlink:href="#C0_0_5a567b6b3f" y="120.076418"/>
    </g>
    <g clip-path="url(#pea4436ad51)">
     <use style="fill:#fde725;stroke:#fde725;" x="233.336787" xlink:href="#C0_0_5a567b6b3f" y="99.37378"/>
    </g>
    <g clip-path="url(#pea4436ad51)">
     <use style="fill:#fde725;stroke:#fde725;" x="202.47296" xlink:href="#C0_0_5a567b6b3f" y="108.678083"/>
    </g>
    <g clip-path="url(#pea4436ad51)">
     <use style="fill:#fde725;stroke:#fde725;" x="176.957799" xlink:href="#C0_0_5a567b6b3f" y="62.093723"/>
    </g>
    <g clip-path="url(#pea4436ad51)">
     <use style="fill:#fde725;stroke:#fde725;" x="325.450696" xlink:href="#C0_0_5a567b6b3f" y="13.603952"/>
    </g>
   </g>
   <g id="PathCollection_2">
    <defs>
     <path d="M 0 3 
C 0.795609 3 1.55874 2.683901 2.12132 2.12132 
C 2.683901 1.55874 3 0.795609 3 -0 
C 3 -0.795609 2.683901 -1.55874 2.12132 -2.12132 
C 1.55874 -2.683901 0.795609 -3 0 -3 
C -0.795609 -3 -1.55874 -2.683901 -2.12132 -2.12132 
C -2.683901 -1.55874 -3 -0.795609 -3 0 
C -3 0.795609 -2.683901 1.55874 -2.12132 2.12132 
C -1.55874 2.683901 -0.795609 3 0 3 
z
" id="C1_0_4864ed2a3f"/>
    </defs>
    <g clip-path="url(#pea4436ad51)">
     <use style="fill:#440154;stroke:#440154;" x="251.241199" xlink:href="#C1_0_4864ed2a3f" y="169.656969"/>
    </g>
    <g clip-path="url(#pea4436ad51)">
     <use style="fill:#440154;stroke:#440154;" x="207.544891" xlink:href="#C1_0_4864ed2a3f" y="189.757617"/>
    </g>
    <g clip-path="url(#pea4436ad51)">
     <use style="fill:#440154;stroke:#440154;" x="179.122609" xlink:href="#C1_0_4864ed2a3f" y="133.336117"/>
    </g>
    <g clip-path="url(#pea4436ad51)">
     <use style="fill:#440154;stroke:#440154;" x="174.113115" xlink:href="#C1_0_4864ed2a3f" y="198.673452"/>
    </g>
    <g clip-path="url(#pea4436ad51)">
     <use style="fill:#440154;stroke:#440154;" x="131.345895" xlink:href="#C1_0_4864ed2a3f" y="142.603555"/>
    </g>
    <g clip-path="url(#pea4436ad51)">
     <use style="fill:#440154;stroke:#440154;" x="136.295539" xlink:href="#C1_0_4864ed2a3f" y="202.057899"/>
    </g>
    <g clip-path="url(#pea4436ad51)">
     <use style="fill:#440154;stroke:#440154;" x="179.782148" xlink:href="#C1_0_4864ed2a3f" y="194.124068"/>
    </g>
    <g clip-path="url(#pea4436ad51)">
     <use style="fill:#440154;stroke:#440154;" x="194.455557" xlink:href="#C1_0_4864ed2a3f" y="154.127824"/>
    </g>
    <g clip-path="url(#pea4436ad51)">
     <use style="fill:#440154;stroke:#440154;" x="178.246007" xlink:href="#C1_0_4864ed2a3f" y="116.623228"/>
    </g>
    <g clip-path="url(#pea4436ad51)">
     <use style="fill:#440154;stroke:#440154;" x="154.259911" xlink:href="#C1_0_4864ed2a3f" y="154.098804"/>
    </g>
    <g clip-path="url(#pea4436ad51)">
     <use style="fill:#440154;stroke:#440154;" x="168.122457" xlink:href="#C1_0_4864ed2a3f" y="145.604671"/>
    </g>
    <g clip-path="url(#pea4436ad51)">
     <use style="fill:#440154;stroke:#440154;" x="115.975221" xlink:href="#C1_0_4864ed2a3f" y="212.204527"/>
    </g>
    <g clip-path="url(#pea4436ad51)">
     <use style="fill:#440154;stroke:#440154;" x="219.748553" xlink:href="#C1_0_4864ed2a3f" y="159.233348"/>
    </g>
    <g clip-path="url(#pea4436ad51)">
     <use style="fill:#440154;stroke:#440154;" x="181.721435" xlink:href="#C1_0_4864ed2a3f" y="198.851473"/>
    </g>
    <g clip-path="url(#pea4436ad51)">
     <use style="fill:#440154;stroke:#440154;" x="123.267738" xlink:href="#C1_0_4864ed2a3f" y="167.831833"/>
    </g>
    <g clip-path="url(#pea4436ad51)">
     <use style="fill:#440154;stroke:#440154;" x="182.286397" xlink:href="#C1_0_4864ed2a3f" y="201.051068"/>
    </g>
    <g clip-path="url(#pea4436ad51)">
     <use style="fill:#440154;stroke:#440154;" x="147.686744" xlink:href="#C1_0_4864ed2a3f" y="161.343713"/>
    </g>
    <g clip-path="url(#pea4436ad51)">
     <use style="fill:#440154;stroke:#440154;" x="143.278015" xlink:href="#C1_0_4864ed2a3f" y="213.047879"/>
    </g>
    <g clip-path="url(#pea4436ad51)">
     <use style="fill:#440154;stroke:#440154;" x="156.982597" xlink:href="#C1_0_4864ed2a3f" y="202.552859"/>
    </g>
    <g clip-path="url(#pea4436ad51)">
     <use style="fill:#440154;stroke:#440154;" x="142.442952" xlink:href="#C1_0_4864ed2a3f" y="228.098222"/>
    </g>
    <g clip-path="url(#pea4436ad51)">
     <use style="fill:#440154;stroke:#440154;" x="191.933789" xlink:href="#C1_0_4864ed2a3f" y="131.589905"/>
    </g>
    <g clip-path="url(#pea4436ad51)">
     <use style="fill:#440154;stroke:#440154;" x="70.044154" xlink:href="#C1_0_4864ed2a3f" y="169.643429"/>
    </g>
    <g clip-path="url(#pea4436ad51)">
     <use style="fill:#440154;stroke:#440154;" x="160.450435" xlink:href="#C1_0_4864ed2a3f" y="154.916524"/>
    </g>
    <g clip-path="url(#pea4436ad51)">
     <use style="fill:#440154;stroke:#440154;" x="140.866791" xlink:href="#C1_0_4864ed2a3f" y="171.365916"/>
    </g>
    <g clip-path="url(#pea4436ad51)">
     <use style="fill:#440154;stroke:#440154;" x="177.872873" xlink:href="#C1_0_4864ed2a3f" y="164.391233"/>
    </g>
    <g clip-path="url(#pea4436ad51)">
     <use style="fill:#fde725;stroke:#fde725;" x="263.634894" xlink:href="#C1_0_4864ed2a3f" y="122.345519"/>
    </g>
    <g clip-path="url(#pea4436ad51)">
     <use style="fill:#fde725;stroke:#fde725;" x="304.725783" xlink:href="#C1_0_4864ed2a3f" y="125.882736"/>
    </g>
    <g clip-path="url(#pea4436ad51)">
     <use style="fill:#fde725;stroke:#fde725;" x="369.469904" xlink:href="#C1_0_4864ed2a3f" y="81.707181"/>
    </g>
    <g clip-path="url(#pea4436ad51)">
     <use style="fill:#fde725;stroke:#fde725;" x="279.487843" xlink:href="#C1_0_4864ed2a3f" y="110.538177"/>
    </g>
    <g clip-path="url(#pea4436ad51)">
     <use style="fill:#fde725;stroke:#fde725;" x="232.535038" xlink:href="#C1_0_4864ed2a3f" y="77.20089"/>
    </g>
    <g clip-path="url(#pea4436ad51)">
     <use style="fill:#fde725;stroke:#fde725;" x="254.7875" xlink:href="#C1_0_4864ed2a3f" y="141.313601"/>
    </g>
    <g clip-path="url(#pea4436ad51)">
     <use style="fill:#fde725;stroke:#fde725;" x="227.341878" xlink:href="#C1_0_4864ed2a3f" y="112.941569"/>
    </g>
    <g clip-path="url(#pea4436ad51)">
     <use style="fill:#fde725;stroke:#fde725;" x="275.144756" xlink:href="#C1_0_4864ed2a3f" y="79.907393"/>
    </g>
    <g clip-path="url(#pea4436ad51)">
     <use style="fill:#fde725;stroke:#fde725;" x="208.681021" xlink:href="#C1_0_4864ed2a3f" y="138.657113"/>
    </g>
    <g clip-path="url(#pea4436ad51)">
     <use style="fill:#fde725;stroke:#fde725;" x="193.144794" xlink:href="#C1_0_4864ed2a3f" y="153.720414"/>
    </g>
    <g clip-path="url(#pea4436ad51)">
     <use style="fill:#fde725;stroke:#fde725;" x="307.356322" xlink:href="#C1_0_4864ed2a3f" y="76.524908"/>
    </g>
    <g clip-path="url(#pea4436ad51)">
     <use style="fill:#fde725;stroke:#fde725;" x="239.294551" xlink:href="#C1_0_4864ed2a3f" y="89.552474"/>
    </g>
    <g clip-path="url(#pea4436ad51)">
     <use style="fill:#fde725;stroke:#fde725;" x="282.949283" xlink:href="#C1_0_4864ed2a3f" y="123.062274"/>
    </g>
    <g clip-path="url(#pea4436ad51)">
     <use style="fill:#fde725;stroke:#fde725;" x="247.454154" xlink:href="#C1_0_4864ed2a3f" y="126.443237"/>
    </g>
    <g clip-path="url(#pea4436ad51)">
     <use style="fill:#fde725;stroke:#fde725;" x="236.329563" xlink:href="#C1_0_4864ed2a3f" y="110.245348"/>
    </g>
    <g clip-path="url(#pea4436ad51)">
     <use style="fill:#fde725;stroke:#fde725;" x="254.240135" xlink:href="#C1_0_4864ed2a3f" y="75.031907"/>
    </g>
    <g clip-path="url(#pea4436ad51)">
     <use style="fill:#fde725;stroke:#fde725;" x="209.904279" xlink:href="#C1_0_4864ed2a3f" y="128.413828"/>
    </g>
    <g clip-path="url(#pea4436ad51)">
     <use style="fill:#fde725;stroke:#fde725;" x="248.392682" xlink:href="#C1_0_4864ed2a3f" y="98.867572"/>
    </g>
    <g clip-path="url(#pea4436ad51)">
     <use style="fill:#fde725;stroke:#fde725;" x="210.859698" xlink:href="#C1_0_4864ed2a3f" y="159.770811"/>
    </g>
    <g clip-path="url(#pea4436ad51)">
     <use style="fill:#fde725;stroke:#fde725;" x="229.072962" xlink:href="#C1_0_4864ed2a3f" y="73.331023"/>
    </g>
    <g clip-path="url(#pea4436ad51)">
     <use style="fill:#fde725;stroke:#fde725;" x="233.245251" xlink:href="#C1_0_4864ed2a3f" y="120.076418"/>
    </g>
    <g clip-path="url(#pea4436ad51)">
     <use style="fill:#fde725;stroke:#fde725;" x="233.336787" xlink:href="#C1_0_4864ed2a3f" y="99.37378"/>
    </g>
    <g clip-path="url(#pea4436ad51)">
     <use style="fill:#fde725;stroke:#fde725;" x="202.47296" xlink:href="#C1_0_4864ed2a3f" y="108.678083"/>
    </g>
    <g clip-path="url(#pea4436ad51)">
     <use style="fill:#fde725;stroke:#fde725;" x="176.957799" xlink:href="#C1_0_4864ed2a3f" y="62.093723"/>
    </g>
    <g clip-path="url(#pea4436ad51)">
     <use style="fill:#fde725;stroke:#fde725;" x="325.450696" xlink:href="#C1_0_4864ed2a3f" y="13.603952"/>
    </g>
   </g>
   <g id="PathCollection_3">
    <defs>
     <path d="M 0 5 
C 1.326016 5 2.597899 4.473168 3.535534 3.535534 
C 4.473168 2.597899 5 1.326016 5 -0 
C 5 -1.326016 4.473168 -2.597899 3.535534 -3.535534 
C 2.597899 -4.473168 1.326016 -5 0 -5 
C -1.326016 -5 -2.597899 -4.473168 -3.535534 -3.535534 
C -4.473168 -2.597899 -5 -1.326016 -5 0 
C -5 1.326016 -4.473168 2.597899 -3.535534 3.535534 
C -2.597899 4.473168 -1.326016 5 0 5 
z
" id="C2_0_509f1090ab"/>
    </defs>
    <g clip-path="url(#pea4436ad51)">
     <use style="fill:none;stroke:#000000;" x="251.241199" xlink:href="#C2_0_509f1090ab" y="169.656969"/>
    </g>
    <g clip-path="url(#pea4436ad51)">
     <use style="fill:none;stroke:#000000;" x="179.122609" xlink:href="#C2_0_509f1090ab" y="133.336117"/>
    </g>
    <g clip-path="url(#pea4436ad51)">
     <use style="fill:none;stroke:#000000;" x="194.455557" xlink:href="#C2_0_509f1090ab" y="154.127824"/>
    </g>
    <g clip-path="url(#pea4436ad51)">
     <use style="fill:none;stroke:#000000;" x="178.246007" xlink:href="#C2_0_509f1090ab" y="116.623228"/>
    </g>
    <g clip-path="url(#pea4436ad51)">
     <use style="fill:none;stroke:#000000;" x="168.122457" xlink:href="#C2_0_509f1090ab" y="145.604671"/>
    </g>
    <g clip-path="url(#pea4436ad51)">
     <use style="fill:none;stroke:#000000;" x="219.748553" xlink:href="#C2_0_509f1090ab" y="159.233348"/>
    </g>
    <g clip-path="url(#pea4436ad51)">
     <use style="fill:none;stroke:#000000;" x="191.933789" xlink:href="#C2_0_509f1090ab" y="131.589905"/>
    </g>
    <g clip-path="url(#pea4436ad51)">
     <use style="fill:none;stroke:#000000;" x="254.7875" xlink:href="#C2_0_509f1090ab" y="141.313601"/>
    </g>
    <g clip-path="url(#pea4436ad51)">
     <use style="fill:none;stroke:#000000;" x="208.681021" xlink:href="#C2_0_509f1090ab" y="138.657113"/>
    </g>
    <g clip-path="url(#pea4436ad51)">
     <use style="fill:none;stroke:#000000;" x="193.144794" xlink:href="#C2_0_509f1090ab" y="153.720414"/>
    </g>
    <g clip-path="url(#pea4436ad51)">
     <use style="fill:none;stroke:#000000;" x="209.904279" xlink:href="#C2_0_509f1090ab" y="128.413828"/>
    </g>
    <g clip-path="url(#pea4436ad51)">
     <use style="fill:none;stroke:#000000;" x="210.859698" xlink:href="#C2_0_509f1090ab" y="159.770811"/>
    </g>
    <g clip-path="url(#pea4436ad51)">
     <use style="fill:none;stroke:#000000;" x="202.47296" xlink:href="#C2_0_509f1090ab" y="108.678083"/>
    </g>
   </g>
   <g id="PathCollection_4">
    <path clip-path="url(#pea4436ad51)" d="M 386.062188 273.079219 
L 386.062188 272.407219 
L 385.160369 271.735219 
L 382.454915 269.719219 
L 381.553097 269.047219 
L 378.847642 267.031219 
L 377.945824 266.359219 
L 375.240369 264.343219 
L 374.338551 263.671219 
L 371.633097 261.655219 
L 370.731278 260.983219 
L 368.025824 258.967219 
L 367.124006 258.295219 
L 364.418551 256.279219 
L 363.516733 255.607219 
L 360.811278 253.591219 
L 359.90946 252.919219 
L 357.204006 250.903219 
L 356.302188 250.231219 
L 353.596733 248.215219 
L 352.694915 247.543219 
L 349.98946 245.527219 
L 349.087642 244.855219 
L 346.382188 242.839219 
L 345.480369 242.167219 
L 342.774915 240.151219 
L 341.873097 239.479219 
L 339.167642 237.463219 
L 338.265824 236.791219 
L 335.560369 234.775219 
L 334.658551 234.103219 
L 331.953097 232.087219 
L 331.051278 231.415219 
L 328.345824 229.399219 
L 327.444006 228.727219 
L 324.738551 226.711219 
L 323.836733 226.039219 
L 321.131278 224.023219 
L 320.22946 223.351219 
L 317.524006 221.335219 
L 316.622188 220.663219 
L 313.916733 218.647219 
L 313.014915 217.975219 
L 310.30946 215.959219 
L 309.407642 215.287219 
L 306.702188 213.271219 
L 305.800369 212.599219 
L 303.094915 210.583219 
L 302.193097 209.911219 
L 299.487642 207.895219 
L 298.585824 207.223219 
L 295.880369 205.207219 
L 294.978551 204.535219 
L 292.273097 202.519219 
L 291.371278 201.847219 
L 288.665824 199.831219 
L 287.764006 199.159219 
L 285.058551 197.143219 
L 284.156733 196.471219 
L 281.451278 194.455219 
L 280.54946 193.783219 
L 277.844006 191.767219 
L 276.942188 191.095219 
L 274.236733 189.079219 
L 273.334915 188.407219 
L 270.62946 186.391219 
L 269.727642 185.719219 
L 267.022188 183.703219 
L 266.120369 183.031219 
L 263.414915 181.015219 
L 262.513097 180.343219 
L 259.807642 178.327219 
L 258.905824 177.655219 
L 256.200369 175.639219 
L 255.298551 174.967219 
L 252.593097 172.951219 
L 251.691278 172.279219 
L 248.985824 170.263219 
L 248.084006 169.591219 
L 245.378551 167.575219 
L 244.476733 166.903219 
L 241.771278 164.887219 
L 240.86946 164.215219 
L 238.164006 162.199219 
L 237.262188 161.527219 
L 234.556733 159.511219 
L 233.654915 158.839219 
L 230.94946 156.823219 
L 230.047642 156.151219 
L 227.342188 154.135219 
L 226.440369 153.463219 
L 223.734915 151.447219 
L 222.833097 150.775219 
L 220.127642 148.759219 
L 219.225824 148.087219 
L 216.520369 146.071219 
L 215.618551 145.399219 
L 212.913097 143.383219 
L 212.011278 142.711219 
L 209.305824 140.695219 
L 208.404006 140.023219 
L 205.698551 138.007219 
L 204.796733 137.335219 
L 202.091278 135.319219 
L 201.18946 134.647219 
L 198.484006 132.631219 
L 197.582188 131.959219 
L 194.876733 129.943219 
L 193.974915 129.271219 
L 191.26946 127.255219 
L 190.367642 126.583219 
L 187.662188 124.567219 
L 186.760369 123.895219 
L 184.054915 121.879219 
L 183.153097 121.207219 
L 180.447642 119.191219 
L 179.545824 118.519219 
L 176.840369 116.503219 
L 175.938551 115.831219 
L 173.233097 113.815219 
L 172.331278 113.143219 
L 169.625824 111.127219 
L 168.724006 110.455219 
L 166.018551 108.439219 
L 162.411278 108.439219 
L 161.50946 107.767219 
L 158.804006 105.751219 
L 157.902188 105.079219 
L 155.196733 103.063219 
L 154.294915 102.391219 
L 151.58946 100.375219 
L 150.687642 99.703219 
L 147.982188 97.687219 
L 147.080369 97.015219 
L 144.374915 94.999219 
L 143.473097 94.327219 
L 140.767642 92.311219 
L 139.865824 91.639219 
L 137.160369 89.623219 
L 136.258551 88.951219 
L 133.553097 86.935219 
L 132.651278 86.263219 
L 129.945824 84.247219 
L 129.044006 83.575219 
L 126.338551 81.559219 
L 125.436733 80.887219 
L 122.731278 78.871219 
L 121.82946 78.199219 
L 119.124006 76.183219 
L 118.222188 75.511219 
L 115.516733 73.495219 
L 114.614915 72.823219 
L 111.90946 70.807219 
L 111.007642 70.135219 
L 108.302188 68.119219 
L 107.400369 67.447219 
L 104.694915 65.431219 
L 103.793097 64.759219 
L 101.087642 62.743219 
L 100.185824 62.071219 
L 97.480369 60.055219 
L 96.578551 59.383219 
L 93.873097 57.367219 
L 92.971278 56.695219 
L 90.265824 54.679219 
L 89.364006 54.007219 
L 86.658551 51.991219 
L 85.756733 51.319219 
L 83.051278 49.303219 
L 82.14946 48.631219 
L 79.444006 46.615219 
L 78.542188 45.943219 
L 75.836733 43.927219 
L 74.934915 43.255219 
L 72.22946 41.239219 
L 71.327642 40.567219 
L 68.622188 38.551219 
L 67.720369 37.879219 
L 65.014915 35.863219 
L 64.113097 35.191219 
L 61.407642 33.175219 
L 60.505824 32.503219 
L 57.800369 30.487219 
L 56.898551 29.815219 
L 54.193097 27.799219 
L 53.291278 27.127219 
L 50.585824 25.111219 
L 49.684006 24.439219 
L 46.978551 22.423219 
L 46.076733 21.751219 
L 43.371278 19.735219 
L 42.46946 19.063219 
L 39.764006 17.047219 
L 38.862188 16.375219 
L 36.156733 14.359219 
L 35.254915 13.687219 
L 32.54946 11.671219 
L 31.647642 10.999219 
L 30.745824 10.999219 
L 32.54946 12.343219 
L 34.353097 13.687219 
L 36.156733 15.031219 
L 37.960369 16.375219 
L 39.764006 17.719219 
L 41.567642 19.063219 
L 43.371278 20.407219 
L 45.174915 21.751219 
L 46.978551 23.095219 
L 48.782188 24.439219 
L 50.585824 25.783219 
L 52.38946 27.127219 
L 54.193097 28.471219 
L 55.996733 29.815219 
L 57.800369 31.159219 
L 59.604006 32.503219 
L 61.407642 33.847219 
L 63.211278 35.191219 
L 65.014915 36.535219 
L 66.818551 37.879219 
L 68.622188 39.223219 
L 70.425824 40.567219 
L 72.22946 41.911219 
L 74.033097 43.255219 
L 75.836733 44.599219 
L 77.640369 45.943219 
L 79.444006 47.287219 
L 81.247642 48.631219 
L 83.051278 49.975219 
L 84.854915 51.319219 
L 86.658551 52.663219 
L 88.462188 54.007219 
L 90.265824 55.351219 
L 92.06946 56.695219 
L 93.873097 58.039219 
L 95.676733 59.383219 
L 97.480369 60.727219 
L 99.284006 62.071219 
L 101.087642 63.415219 
L 102.891278 64.759219 
L 104.694915 66.103219 
L 106.498551 67.447219 
L 108.302188 68.791219 
L 110.105824 70.135219 
L 111.90946 71.479219 
L 113.713097 72.823219 
L 115.516733 74.167219 
L 117.320369 75.511219 
L 119.124006 76.855219 
L 120.927642 78.199219 
L 122.731278 79.543219 
L 124.534915 80.887219 
L 126.338551 82.231219 
L 128.142188 83.575219 
L 129.945824 84.919219 
L 131.74946 86.263219 
L 133.553097 87.607219 
L 135.356733 88.951219 
L 137.160369 90.295219 
L 138.964006 91.639219 
L 140.767642 92.983219 
L 142.571278 94.327219 
L 144.374915 95.671219 
L 146.178551 97.015219 
L 147.982188 98.359219 
L 149.785824 99.703219 
L 151.58946 101.047219 
L 153.393097 102.391219 
L 155.196733 103.735219 
L 157.000369 105.079219 
L 158.804006 106.423219 
L 160.607642 107.767219 
L 162.411278 109.111219 
L 166.018551 109.111219 
L 167.822188 110.455219 
L 169.625824 111.799219 
L 171.42946 113.143219 
L 173.233097 114.487219 
L 175.036733 115.831219 
L 176.840369 117.175219 
L 178.644006 118.519219 
L 180.447642 119.863219 
L 182.251278 121.207219 
L 184.054915 122.551219 
L 185.858551 123.895219 
L 187.662188 125.239219 
L 189.465824 126.583219 
L 191.26946 127.927219 
L 193.073097 129.271219 
L 194.876733 130.615219 
L 196.680369 131.959219 
L 198.484006 133.303219 
L 200.287642 134.647219 
L 202.091278 135.991219 
L 203.894915 137.335219 
L 205.698551 138.679219 
L 207.502188 140.023219 
L 209.305824 141.367219 
L 211.10946 142.711219 
L 212.913097 144.055219 
L 214.716733 145.399219 
L 216.520369 146.743219 
L 218.324006 148.087219 
L 220.127642 149.431219 
L 221.931278 150.775219 
L 223.734915 152.119219 
L 225.538551 153.463219 
L 227.342188 154.807219 
L 229.145824 156.151219 
L 230.94946 157.495219 
L 232.753097 158.839219 
L 234.556733 160.183219 
L 236.360369 161.527219 
L 238.164006 162.871219 
L 239.967642 164.215219 
L 241.771278 165.559219 
L 243.574915 166.903219 
L 245.378551 168.247219 
L 247.182188 169.591219 
L 248.985824 170.935219 
L 250.78946 172.279219 
L 252.593097 173.623219 
L 254.396733 174.967219 
L 256.200369 176.311219 
L 258.004006 177.655219 
L 259.807642 178.999219 
L 261.611278 180.343219 
L 263.414915 181.687219 
L 265.218551 183.031219 
L 267.022188 184.375219 
L 268.825824 185.719219 
L 270.62946 187.063219 
L 272.433097 188.407219 
L 274.236733 189.751219 
L 276.040369 191.095219 
L 277.844006 192.439219 
L 279.647642 193.783219 
L 281.451278 195.127219 
L 283.254915 196.471219 
L 285.058551 197.815219 
L 286.862188 199.159219 
L 288.665824 200.503219 
L 290.46946 201.847219 
L 292.273097 203.191219 
L 294.076733 204.535219 
L 295.880369 205.879219 
L 297.684006 207.223219 
L 299.487642 208.567219 
L 301.291278 209.911219 
L 303.094915 211.255219 
L 304.898551 212.599219 
L 306.702188 213.943219 
L 308.505824 215.287219 
L 310.30946 216.631219 
L 312.113097 217.975219 
L 313.916733 219.319219 
L 315.720369 220.663219 
L 317.524006 222.007219 
L 319.327642 223.351219 
L 321.131278 224.695219 
L 322.934915 226.039219 
L 324.738551 227.383219 
L 326.542188 228.727219 
L 328.345824 230.071219 
L 330.14946 231.415219 
L 331.953097 232.759219 
L 333.756733 234.103219 
L 335.560369 235.447219 
L 337.364006 236.791219 
L 339.167642 238.135219 
L 340.971278 239.479219 
L 342.774915 240.823219 
L 344.578551 242.167219 
L 346.382188 243.511219 
L 348.185824 244.855219 
L 349.98946 246.199219 
L 351.793097 247.543219 
L 353.596733 248.887219 
L 355.400369 250.231219 
L 357.204006 251.575219 
L 359.007642 252.919219 
L 360.811278 254.263219 
L 362.614915 255.607219 
L 364.418551 256.951219 
L 366.222188 258.295219 
L 368.025824 259.639219 
L 369.82946 260.983219 
L 371.633097 262.327219 
L 373.436733 263.671219 
L 375.240369 265.015219 
L 377.044006 266.359219 
L 378.847642 267.703219 
L 380.651278 269.047219 
L 382.454915 270.391219 
L 384.258551 271.735219 
z
" style="fill:#3b528b;fill-opacity:0.2;"/>
   </g>
   <g id="PathCollection_5">
    <path clip-path="url(#pea4436ad51)" d="M 386.062188 272.407219 
L 386.062188 271.735219 
L 386.062188 269.047219 
L 386.062188 266.359219 
L 386.062188 263.671219 
L 386.062188 260.983219 
L 386.062188 258.295219 
L 386.062188 255.607219 
L 386.062188 252.919219 
L 386.062188 250.231219 
L 386.062188 247.543219 
L 386.062188 244.855219 
L 386.062188 242.167219 
L 386.062188 239.479219 
L 386.062188 236.791219 
L 386.062188 234.103219 
L 386.062188 231.415219 
L 386.062188 228.727219 
L 386.062188 226.039219 
L 386.062188 223.351219 
L 386.062188 220.663219 
L 386.062188 217.975219 
L 386.062188 215.287219 
L 386.062188 212.599219 
L 386.062188 209.911219 
L 386.062188 207.223219 
L 386.062188 204.535219 
L 386.062188 201.847219 
L 386.062188 199.159219 
L 386.062188 196.471219 
L 386.062188 193.783219 
L 386.062188 191.095219 
L 386.062188 188.407219 
L 386.062188 185.719219 
L 386.062188 183.031219 
L 386.062188 180.343219 
L 386.062188 177.655219 
L 386.062188 174.967219 
L 386.062188 172.279219 
L 386.062188 169.591219 
L 386.062188 166.903219 
L 386.062188 164.215219 
L 386.062188 161.527219 
L 386.062188 158.839219 
L 386.062188 156.151219 
L 386.062188 153.463219 
L 386.062188 150.775219 
L 386.062188 148.087219 
L 386.062188 145.399219 
L 386.062188 142.711219 
L 386.062188 140.023219 
L 386.062188 137.335219 
L 386.062188 134.647219 
L 386.062188 131.959219 
L 386.062188 129.271219 
L 386.062188 126.583219 
L 386.062188 123.895219 
L 386.062188 121.207219 
L 386.062188 118.519219 
L 386.062188 115.831219 
L 386.062188 113.143219 
L 386.062188 110.455219 
L 386.062188 107.767219 
L 386.062188 105.079219 
L 386.062188 102.391219 
L 386.062188 99.703219 
L 386.062188 97.015219 
L 386.062188 94.327219 
L 386.062188 91.639219 
L 386.062188 88.951219 
L 386.062188 86.263219 
L 386.062188 83.575219 
L 386.062188 80.887219 
L 386.062188 78.199219 
L 386.062188 75.511219 
L 386.062188 72.823219 
L 386.062188 70.135219 
L 386.062188 67.447219 
L 386.062188 64.759219 
L 386.062188 62.071219 
L 386.062188 59.383219 
L 386.062188 56.695219 
L 386.062188 54.007219 
L 386.062188 51.319219 
L 386.062188 48.631219 
L 386.062188 45.943219 
L 386.062188 43.255219 
L 386.062188 40.567219 
L 386.062188 37.879219 
L 386.062188 35.191219 
L 386.062188 32.503219 
L 386.062188 29.815219 
L 386.062188 27.127219 
L 386.062188 24.439219 
L 386.062188 21.751219 
L 386.062188 19.063219 
L 386.062188 16.375219 
L 386.062188 13.687219 
L 386.062188 10.999219 
L 382.454915 10.999219 
L 378.847642 10.999219 
L 375.240369 10.999219 
L 371.633097 10.999219 
L 368.025824 10.999219 
L 364.418551 10.999219 
L 360.811278 10.999219 
L 357.204006 10.999219 
L 353.596733 10.999219 
L 349.98946 10.999219 
L 346.382188 10.999219 
L 342.774915 10.999219 
L 339.167642 10.999219 
L 335.560369 10.999219 
L 331.953097 10.999219 
L 328.345824 10.999219 
L 324.738551 10.999219 
L 321.131278 10.999219 
L 317.524006 10.999219 
L 313.916733 10.999219 
L 310.30946 10.999219 
L 306.702188 10.999219 
L 303.094915 10.999219 
L 299.487642 10.999219 
L 295.880369 10.999219 
L 292.273097 10.999219 
L 288.665824 10.999219 
L 285.058551 10.999219 
L 281.451278 10.999219 
L 277.844006 10.999219 
L 274.236733 10.999219 
L 270.62946 10.999219 
L 267.022188 10.999219 
L 263.414915 10.999219 
L 259.807642 10.999219 
L 256.200369 10.999219 
L 252.593097 10.999219 
L 248.985824 10.999219 
L 245.378551 10.999219 
L 241.771278 10.999219 
L 238.164006 10.999219 
L 234.556733 10.999219 
L 230.94946 10.999219 
L 227.342188 10.999219 
L 223.734915 10.999219 
L 220.127642 10.999219 
L 216.520369 10.999219 
L 212.913097 10.999219 
L 209.305824 10.999219 
L 205.698551 10.999219 
L 202.091278 10.999219 
L 198.484006 10.999219 
L 194.876733 10.999219 
L 191.26946 10.999219 
L 187.662188 10.999219 
L 184.054915 10.999219 
L 180.447642 10.999219 
L 176.840369 10.999219 
L 173.233097 10.999219 
L 169.625824 10.999219 
L 166.018551 10.999219 
L 162.411278 10.999219 
L 158.804006 10.999219 
L 155.196733 10.999219 
L 151.58946 10.999219 
L 147.982188 10.999219 
L 144.374915 10.999219 
L 140.767642 10.999219 
L 137.160369 10.999219 
L 133.553097 10.999219 
L 129.945824 10.999219 
L 126.338551 10.999219 
L 122.731278 10.999219 
L 119.124006 10.999219 
L 115.516733 10.999219 
L 111.90946 10.999219 
L 108.302188 10.999219 
L 104.694915 10.999219 
L 101.087642 10.999219 
L 97.480369 10.999219 
L 93.873097 10.999219 
L 90.265824 10.999219 
L 86.658551 10.999219 
L 83.051278 10.999219 
L 79.444006 10.999219 
L 75.836733 10.999219 
L 72.22946 10.999219 
L 68.622188 10.999219 
L 65.014915 10.999219 
L 61.407642 10.999219 
L 57.800369 10.999219 
L 54.193097 10.999219 
L 50.585824 10.999219 
L 46.978551 10.999219 
L 43.371278 10.999219 
L 39.764006 10.999219 
L 36.156733 10.999219 
L 32.54946 10.999219 
L 31.647642 10.999219 
L 32.54946 11.671219 
L 35.254915 13.687219 
L 36.156733 14.359219 
L 38.862188 16.375219 
L 39.764006 17.047219 
L 42.46946 19.063219 
L 43.371278 19.735219 
L 46.076733 21.751219 
L 46.978551 22.423219 
L 49.684006 24.439219 
L 50.585824 25.111219 
L 53.291278 27.127219 
L 54.193097 27.799219 
L 56.898551 29.815219 
L 57.800369 30.487219 
L 60.505824 32.503219 
L 61.407642 33.175219 
L 64.113097 35.191219 
L 65.014915 35.863219 
L 67.720369 37.879219 
L 68.622188 38.551219 
L 71.327642 40.567219 
L 72.22946 41.239219 
L 74.934915 43.255219 
L 75.836733 43.927219 
L 78.542188 45.943219 
L 79.444006 46.615219 
L 82.14946 48.631219 
L 83.051278 49.303219 
L 85.756733 51.319219 
L 86.658551 51.991219 
L 89.364006 54.007219 
L 90.265824 54.679219 
L 92.971278 56.695219 
L 93.873097 57.367219 
L 96.578551 59.383219 
L 97.480369 60.055219 
L 100.185824 62.071219 
L 101.087642 62.743219 
L 103.793097 64.759219 
L 104.694915 65.431219 
L 107.400369 67.447219 
L 108.302188 68.119219 
L 111.007642 70.135219 
L 111.90946 70.807219 
L 114.614915 72.823219 
L 115.516733 73.495219 
L 118.222188 75.511219 
L 119.124006 76.183219 
L 121.82946 78.199219 
L 122.731278 78.871219 
L 125.436733 80.887219 
L 126.338551 81.559219 
L 129.044006 83.575219 
L 129.945824 84.247219 
L 132.651278 86.263219 
L 133.553097 86.935219 
L 136.258551 88.951219 
L 137.160369 89.623219 
L 139.865824 91.639219 
L 140.767642 92.311219 
L 143.473097 94.327219 
L 144.374915 94.999219 
L 147.080369 97.015219 
L 147.982188 97.687219 
L 150.687642 99.703219 
L 151.58946 100.375219 
L 154.294915 102.391219 
L 155.196733 103.063219 
L 157.902188 105.079219 
L 158.804006 105.751219 
L 161.50946 107.767219 
L 162.411278 108.439219 
L 166.018551 108.439219 
L 168.724006 110.455219 
L 169.625824 111.127219 
L 172.331278 113.143219 
L 173.233097 113.815219 
L 175.938551 115.831219 
L 176.840369 116.503219 
L 179.545824 118.519219 
L 180.447642 119.191219 
L 183.153097 121.207219 
L 184.054915 121.879219 
L 186.760369 123.895219 
L 187.662188 124.567219 
L 190.367642 126.583219 
L 191.26946 127.255219 
L 193.974915 129.271219 
L 194.876733 129.943219 
L 197.582188 131.959219 
L 198.484006 132.631219 
L 201.18946 134.647219 
L 202.091278 135.319219 
L 204.796733 137.335219 
L 205.698551 138.007219 
L 208.404006 140.023219 
L 209.305824 140.695219 
L 212.011278 142.711219 
L 212.913097 143.383219 
L 215.618551 145.399219 
L 216.520369 146.071219 
L 219.225824 148.087219 
L 220.127642 148.759219 
L 222.833097 150.775219 
L 223.734915 151.447219 
L 226.440369 153.463219 
L 227.342188 154.135219 
L 230.047642 156.151219 
L 230.94946 156.823219 
L 233.654915 158.839219 
L 234.556733 159.511219 
L 237.262188 161.527219 
L 238.164006 162.199219 
L 240.86946 164.215219 
L 241.771278 164.887219 
L 244.476733 166.903219 
L 245.378551 167.575219 
L 248.084006 169.591219 
L 248.985824 170.263219 
L 251.691278 172.279219 
L 252.593097 172.951219 
L 255.298551 174.967219 
L 256.200369 175.639219 
L 258.905824 177.655219 
L 259.807642 178.327219 
L 262.513097 180.343219 
L 263.414915 181.015219 
L 266.120369 183.031219 
L 267.022188 183.703219 
L 269.727642 185.719219 
L 270.62946 186.391219 
L 273.334915 188.407219 
L 274.236733 189.079219 
L 276.942188 191.095219 
L 277.844006 191.767219 
L 280.54946 193.783219 
L 281.451278 194.455219 
L 284.156733 196.471219 
L 285.058551 197.143219 
L 287.764006 199.159219 
L 288.665824 199.831219 
L 291.371278 201.847219 
L 292.273097 202.519219 
L 294.978551 204.535219 
L 295.880369 205.207219 
L 298.585824 207.223219 
L 299.487642 207.895219 
L 302.193097 209.911219 
L 303.094915 210.583219 
L 305.800369 212.599219 
L 306.702188 213.271219 
L 309.407642 215.287219 
L 310.30946 215.959219 
L 313.014915 217.975219 
L 313.916733 218.647219 
L 316.622188 220.663219 
L 317.524006 221.335219 
L 320.22946 223.351219 
L 321.131278 224.023219 
L 323.836733 226.039219 
L 324.738551 226.711219 
L 327.444006 228.727219 
L 328.345824 229.399219 
L 331.051278 231.415219 
L 331.953097 232.087219 
L 334.658551 234.103219 
L 335.560369 234.775219 
L 338.265824 236.791219 
L 339.167642 237.463219 
L 341.873097 239.479219 
L 342.774915 240.151219 
L 345.480369 242.167219 
L 346.382188 242.839219 
L 349.087642 244.855219 
L 349.98946 245.527219 
L 352.694915 247.543219 
L 353.596733 248.215219 
L 356.302188 250.231219 
L 357.204006 250.903219 
L 359.90946 252.919219 
L 360.811278 253.591219 
L 363.516733 255.607219 
L 364.418551 256.279219 
L 367.124006 258.295219 
L 368.025824 258.967219 
L 370.731278 260.983219 
L 371.633097 261.655219 
L 374.338551 263.671219 
L 375.240369 264.343219 
L 377.945824 266.359219 
L 378.847642 267.031219 
L 381.553097 269.047219 
L 382.454915 269.719219 
L 385.160369 271.735219 
z
" style="fill:#5ec962;fill-opacity:0.2;"/>
   </g>
   <g id="matplotlib.axis_1">
    <g id="xtick_1">
     <g id="line2d_1">
      <defs>
       <path d="M 0 0 
L 0 3.5 
" id="m976763371a" style="stroke:#000000;stroke-width:0.8;"/>
      </defs>
      <g>
       <use style="stroke:#000000;stroke-width:0.8;" x="28.942188" xlink:href="#m976763371a" y="277.111219"/>
      </g>
     </g>
     <g id="text_1">
      <!-- −4 -->
      <g transform="translate(21.571094 291.709656)scale(0.1 -0.1)">
       <defs>
        <path d="M 678 2272 
L 4684 2272 
L 4684 1741 
L 678 1741 
L 678 2272 
z
" id="DejaVuSans-2212" transform="scale(0.015625)"/>
        <path d="M 2419 4116 
L 825 1625 
L 2419 1625 
L 2419 4116 
z
M 2253 4666 
L 3047 4666 
L 3047 1625 
L 3713 1625 
L 3713 1100 
L 3047 1100 
L 3047 0 
L 2419 0 
L 2419 1100 
L 313 1100 
L 313 1709 
L 2253 4666 
z
" id="DejaVuSans-34" transform="scale(0.015625)"/>
       </defs>
       <use xlink:href="#DejaVuSans-2212"/>
       <use x="83.789062" xlink:href="#DejaVuSans-34"/>
      </g>
     </g>
    </g>
    <g id="xtick_2">
     <g id="line2d_2">
      <g>
       <use style="stroke:#000000;stroke-width:0.8;" x="73.582188" xlink:href="#m976763371a" y="277.111219"/>
      </g>
     </g>
     <g id="text_2">
      <!-- −3 -->
      <g transform="translate(66.211094 291.709656)scale(0.1 -0.1)">
       <defs>
        <path d="M 2597 2516 
Q 3050 2419 3304 2112 
Q 3559 1806 3559 1356 
Q 3559 666 3084 287 
Q 2609 -91 1734 -91 
Q 1441 -91 1130 -33 
Q 819 25 488 141 
L 488 750 
Q 750 597 1062 519 
Q 1375 441 1716 441 
Q 2309 441 2620 675 
Q 2931 909 2931 1356 
Q 2931 1769 2642 2001 
Q 2353 2234 1838 2234 
L 1294 2234 
L 1294 2753 
L 1863 2753 
Q 2328 2753 2575 2939 
Q 2822 3125 2822 3475 
Q 2822 3834 2567 4026 
Q 2313 4219 1838 4219 
Q 1578 4219 1281 4162 
Q 984 4106 628 3988 
L 628 4550 
Q 988 4650 1302 4700 
Q 1616 4750 1894 4750 
Q 2613 4750 3031 4423 
Q 3450 4097 3450 3541 
Q 3450 3153 3228 2886 
Q 3006 2619 2597 2516 
z
" id="DejaVuSans-33" transform="scale(0.015625)"/>
       </defs>
       <use xlink:href="#DejaVuSans-2212"/>
       <use x="83.789062" xlink:href="#DejaVuSans-33"/>
      </g>
     </g>
    </g>
    <g id="xtick_3">
     <g id="line2d_3">
      <g>
       <use style="stroke:#000000;stroke-width:0.8;" x="118.222188" xlink:href="#m976763371a" y="277.111219"/>
      </g>
     </g>
     <g id="text_3">
      <!-- −2 -->
      <g transform="translate(110.851094 291.709656)scale(0.1 -0.1)">
       <defs>
        <path d="M 1228 531 
L 3431 531 
L 3431 0 
L 469 0 
L 469 531 
Q 828 903 1448 1529 
Q 2069 2156 2228 2338 
Q 2531 2678 2651 2914 
Q 2772 3150 2772 3378 
Q 2772 3750 2511 3984 
Q 2250 4219 1831 4219 
Q 1534 4219 1204 4116 
Q 875 4013 500 3803 
L 500 4441 
Q 881 4594 1212 4672 
Q 1544 4750 1819 4750 
Q 2544 4750 2975 4387 
Q 3406 4025 3406 3419 
Q 3406 3131 3298 2873 
Q 3191 2616 2906 2266 
Q 2828 2175 2409 1742 
Q 1991 1309 1228 531 
z
" id="DejaVuSans-32" transform="scale(0.015625)"/>
       </defs>
       <use xlink:href="#DejaVuSans-2212"/>
       <use x="83.789062" xlink:href="#DejaVuSans-32"/>
      </g>
     </g>
    </g>
    <g id="xtick_4">
     <g id="line2d_4">
      <g>
       <use style="stroke:#000000;stroke-width:0.8;" x="162.862188" xlink:href="#m976763371a" y="277.111219"/>
      </g>
     </g>
     <g id="text_4">
      <!-- −1 -->
      <g transform="translate(155.491094 291.709656)scale(0.1 -0.1)">
       <defs>
        <path d="M 794 531 
L 1825 531 
L 1825 4091 
L 703 3866 
L 703 4441 
L 1819 4666 
L 2450 4666 
L 2450 531 
L 3481 531 
L 3481 0 
L 794 0 
L 794 531 
z
" id="DejaVuSans-31" transform="scale(0.015625)"/>
       </defs>
       <use xlink:href="#DejaVuSans-2212"/>
       <use x="83.789062" xlink:href="#DejaVuSans-31"/>
      </g>
     </g>
    </g>
    <g id="xtick_5">
     <g id="line2d_5">
      <g>
       <use style="stroke:#000000;stroke-width:0.8;" x="207.502188" xlink:href="#m976763371a" y="277.111219"/>
      </g>
     </g>
     <g id="text_5">
      <!-- 0 -->
      <g transform="translate(204.320938 291.709656)scale(0.1 -0.1)">
       <defs>
        <path d="M 2034 4250 
Q 1547 4250 1301 3770 
Q 1056 3291 1056 2328 
Q 1056 1369 1301 889 
Q 1547 409 2034 409 
Q 2525 409 2770 889 
Q 3016 1369 3016 2328 
Q 3016 3291 2770 3770 
Q 2525 4250 2034 4250 
z
M 2034 4750 
Q 2819 4750 3233 4129 
Q 3647 3509 3647 2328 
Q 3647 1150 3233 529 
Q 2819 -91 2034 -91 
Q 1250 -91 836 529 
Q 422 1150 422 2328 
Q 422 3509 836 4129 
Q 1250 4750 2034 4750 
z
" id="DejaVuSans-30" transform="scale(0.015625)"/>
       </defs>
       <use xlink:href="#DejaVuSans-30"/>
      </g>
     </g>
    </g>
    <g id="xtick_6">
     <g id="line2d_6">
      <g>
       <use style="stroke:#000000;stroke-width:0.8;" x="252.142188" xlink:href="#m976763371a" y="277.111219"/>
      </g>
     </g>
     <g id="text_6">
      <!-- 1 -->
      <g transform="translate(248.960938 291.709656)scale(0.1 -0.1)">
       <use xlink:href="#DejaVuSans-31"/>
      </g>
     </g>
    </g>
    <g id="xtick_7">
     <g id="line2d_7">
      <g>
       <use style="stroke:#000000;stroke-width:0.8;" x="296.782188" xlink:href="#m976763371a" y="277.111219"/>
      </g>
     </g>
     <g id="text_7">
      <!-- 2 -->
      <g transform="translate(293.600938 291.709656)scale(0.1 -0.1)">
       <use xlink:href="#DejaVuSans-32"/>
      </g>
     </g>
    </g>
    <g id="xtick_8">
     <g id="line2d_8">
      <g>
       <use style="stroke:#000000;stroke-width:0.8;" x="341.422188" xlink:href="#m976763371a" y="277.111219"/>
      </g>
     </g>
     <g id="text_8">
      <!-- 3 -->
      <g transform="translate(338.240938 291.709656)scale(0.1 -0.1)">
       <use xlink:href="#DejaVuSans-33"/>
      </g>
     </g>
    </g>
    <g id="xtick_9">
     <g id="line2d_9">
      <g>
       <use style="stroke:#000000;stroke-width:0.8;" x="386.062188" xlink:href="#m976763371a" y="277.111219"/>
      </g>
     </g>
     <g id="text_9">
      <!-- 4 -->
      <g transform="translate(382.880938 291.709656)scale(0.1 -0.1)">
       <use xlink:href="#DejaVuSans-34"/>
      </g>
     </g>
    </g>
   </g>
   <g id="matplotlib.axis_2">
    <g id="ytick_1">
     <g id="line2d_10">
      <defs>
       <path d="M 0 0 
L -3.5 0 
" id="m45d106c63c" style="stroke:#000000;stroke-width:0.8;"/>
      </defs>
      <g>
       <use style="stroke:#000000;stroke-width:0.8;" x="28.942188" xlink:href="#m45d106c63c" y="277.111219"/>
      </g>
     </g>
     <g id="text_10">
      <!-- −4 -->
      <g transform="translate(7.2 280.910437)scale(0.1 -0.1)">
       <use xlink:href="#DejaVuSans-2212"/>
       <use x="83.789062" xlink:href="#DejaVuSans-34"/>
      </g>
     </g>
    </g>
    <g id="ytick_2">
     <g id="line2d_11">
      <g>
       <use style="stroke:#000000;stroke-width:0.8;" x="28.942188" xlink:href="#m45d106c63c" y="243.847219"/>
      </g>
     </g>
     <g id="text_11">
      <!-- −3 -->
      <g transform="translate(7.2 247.646437)scale(0.1 -0.1)">
       <use xlink:href="#DejaVuSans-2212"/>
       <use x="83.789062" xlink:href="#DejaVuSans-33"/>
      </g>
     </g>
    </g>
    <g id="ytick_3">
     <g id="line2d_12">
      <g>
       <use style="stroke:#000000;stroke-width:0.8;" x="28.942188" xlink:href="#m45d106c63c" y="210.583219"/>
      </g>
     </g>
     <g id="text_12">
      <!-- −2 -->
      <g transform="translate(7.2 214.382437)scale(0.1 -0.1)">
       <use xlink:href="#DejaVuSans-2212"/>
       <use x="83.789062" xlink:href="#DejaVuSans-32"/>
      </g>
     </g>
    </g>
    <g id="ytick_4">
     <g id="line2d_13">
      <g>
       <use style="stroke:#000000;stroke-width:0.8;" x="28.942188" xlink:href="#m45d106c63c" y="177.319219"/>
      </g>
     </g>
     <g id="text_13">
      <!-- −1 -->
      <g transform="translate(7.2 181.118437)scale(0.1 -0.1)">
       <use xlink:href="#DejaVuSans-2212"/>
       <use x="83.789062" xlink:href="#DejaVuSans-31"/>
      </g>
     </g>
    </g>
    <g id="ytick_5">
     <g id="line2d_14">
      <g>
       <use style="stroke:#000000;stroke-width:0.8;" x="28.942188" xlink:href="#m45d106c63c" y="144.055219"/>
      </g>
     </g>
     <g id="text_14">
      <!-- 0 -->
      <g transform="translate(15.579688 147.854437)scale(0.1 -0.1)">
       <use xlink:href="#DejaVuSans-30"/>
      </g>
     </g>
    </g>
    <g id="ytick_6">
     <g id="line2d_15">
      <g>
       <use style="stroke:#000000;stroke-width:0.8;" x="28.942188" xlink:href="#m45d106c63c" y="110.791219"/>
      </g>
     </g>
     <g id="text_15">
      <!-- 1 -->
      <g transform="translate(15.579688 114.590437)scale(0.1 -0.1)">
       <use xlink:href="#DejaVuSans-31"/>
      </g>
     </g>
    </g>
    <g id="ytick_7">
     <g id="line2d_16">
      <g>
       <use style="stroke:#000000;stroke-width:0.8;" x="28.942188" xlink:href="#m45d106c63c" y="77.527219"/>
      </g>
     </g>
     <g id="text_16">
      <!-- 2 -->
      <g transform="translate(15.579688 81.326437)scale(0.1 -0.1)">
       <use xlink:href="#DejaVuSans-32"/>
      </g>
     </g>
    </g>
    <g id="ytick_8">
     <g id="line2d_17">
      <g>
       <use style="stroke:#000000;stroke-width:0.8;" x="28.942188" xlink:href="#m45d106c63c" y="44.263219"/>
      </g>
     </g>
     <g id="text_17">
      <!-- 3 -->
      <g transform="translate(15.579688 48.062437)scale(0.1 -0.1)">
       <use xlink:href="#DejaVuSans-33"/>
      </g>
     </g>
    </g>
    <g id="ytick_9">
     <g id="line2d_18">
      <g>
       <use style="stroke:#000000;stroke-width:0.8;" x="28.942188" xlink:href="#m45d106c63c" y="10.999219"/>
      </g>
     </g>
     <g id="text_18">
      <!-- 4 -->
      <g transform="translate(15.579688 14.798437)scale(0.1 -0.1)">
       <use xlink:href="#DejaVuSans-34"/>
      </g>
     </g>
    </g>
   </g>
   <g id="LineCollection_1">
    <path clip-path="url(#pea4436ad51)" d="M 28.942188 43.609519 
L 346.365467 277.111219 
L 346.365467 277.111219 
" style="fill:none;stroke:#000000;stroke-dasharray:5.55,2.4;stroke-dashoffset:0;stroke-opacity:0.5;stroke-width:1.5;"/>
   </g>
   <g id="LineCollection_2">
    <path clip-path="url(#pea4436ad51)" d="M 30.849887 10.999219 
L 386.062188 272.299134 
L 386.062188 272.299134 
" style="fill:none;stroke:#000000;stroke-opacity:0.5;stroke-width:1.5;"/>
   </g>
   <g id="LineCollection_3">
    <path clip-path="url(#pea4436ad51)" d="M 77.088178 10.999219 
L 386.062188 238.285499 
L 386.062188 238.285499 
" style="fill:none;stroke:#000000;stroke-dasharray:5.55,2.4;stroke-dashoffset:0;stroke-opacity:0.5;stroke-width:1.5;"/>
   </g>
   <g id="patch_3">
    <path d="M 28.942188 277.111219 
L 28.942188 10.999219 
" style="fill:none;stroke:#000000;stroke-linecap:square;stroke-linejoin:miter;stroke-width:0.8;"/>
   </g>
   <g id="patch_4">
    <path d="M 386.062188 277.111219 
L 386.062188 10.999219 
" style="fill:none;stroke:#000000;stroke-linecap:square;stroke-linejoin:miter;stroke-width:0.8;"/>
   </g>
   <g id="patch_5">
    <path d="M 28.942188 277.111219 
L 386.062188 277.111219 
" style="fill:none;stroke:#000000;stroke-linecap:square;stroke-linejoin:miter;stroke-width:0.8;"/>
   </g>
   <g id="patch_6">
    <path d="M 28.942188 10.999219 
L 386.062188 10.999219 
" style="fill:none;stroke:#000000;stroke-linecap:square;stroke-linejoin:miter;stroke-width:0.8;"/>
   </g>
  </g>
 </g>
 <defs>
  <clipPath id="pea4436ad51">
   <rect height="266.112" width="357.12" x="28.942188" y="10.999219"/>
  </clipPath>
 </defs>
</svg>
