<?xml version="1.0" encoding="utf-8" standalone="no"?>
<!DOCTYPE svg PUBLIC "-//W3C//DTD SVG 1.1//EN"
  "http://www.w3.org/Graphics/SVG/1.1/DTD/svg11.dtd">
<svg height="297.190125pt" version="1.1" viewBox="0 0 393.262187 297.190125" width="393.262187pt" xmlns="http://www.w3.org/2000/svg" xmlns:xlink="http://www.w3.org/1999/xlink">
 <metadata>
  <rdf:RDF xmlns:cc="http://creativecommons.org/ns#" xmlns:dc="http://purl.org/dc/elements/1.1/" xmlns:rdf="http://www.w3.org/1999/02/22-rdf-syntax-ns#">
   <cc:Work>
    <dc:type rdf:resource="http://purl.org/dc/dcmitype/StillImage"/>
    <dc:date>2021-05-06T11:17:16.726857</dc:date>
    <dc:format>image/svg+xml</dc:format>
    <dc:creator>
     <cc:Agent>
      <dc:title>Matplotlib v3.4.1, https://matplotlib.org/</dc:title>
     </cc:Agent>
    </dc:creator>
   </cc:Work>
  </rdf:RDF>
 </metadata>
 <defs>
  <style type="text/css">*{stroke-linecap:butt;stroke-linejoin:round;}</style>
 </defs>
 <g id="figure_1">
  <g id="patch_1">
   <path d="M 0 297.190125 
L 393.262187 297.190125 
L 393.262187 0 
L 0 0 
z
" style="fill:#ffffff;"/>
  </g>
  <g id="axes_1">
   <g id="patch_2">
    <path d="M 28.942188 273.312 
L 386.062188 273.312 
L 386.062188 7.2 
L 28.942188 7.2 
z
" style="fill:#ffffff;"/>
   </g>
   <g id="PathCollection_1">
    <defs>
     <path d="M 0 3 
C 0.795609 3 1.55874 2.683901 2.12132 2.12132 
C 2.683901 1.55874 3 0.795609 3 -0 
C 3 -0.795609 2.683901 -1.55874 2.12132 -2.12132 
C 1.55874 -2.683901 0.795609 -3 0 -3 
C -0.795609 -3 -1.55874 -2.683901 -2.12132 -2.12132 
C -2.683901 -1.55874 -3 -0.795609 -3 0 
C -3 0.795609 -2.683901 1.55874 -2.12132 2.12132 
C -1.55874 2.683901 -0.795609 3 0 3 
z
" id="C0_0_7d21600ad0"/>
    </defs>
    <g clip-path="url(#p322d719c47)">
     <use style="fill:#440154;stroke:#440154;" x="170.038525" xlink:href="#C0_0_7d21600ad0" y="194.136333"/>
    </g>
    <g clip-path="url(#p322d719c47)">
     <use style="fill:#440154;stroke:#440154;" x="143.174759" xlink:href="#C0_0_7d21600ad0" y="251.088765"/>
    </g>
    <g clip-path="url(#p322d719c47)">
     <use style="fill:#440154;stroke:#440154;" x="139.336782" xlink:href="#C0_0_7d21600ad0" y="185.162631"/>
    </g>
    <g clip-path="url(#p322d719c47)">
     <use style="fill:#440154;stroke:#440154;" x="187.414092" xlink:href="#C0_0_7d21600ad0" y="217.988116"/>
    </g>
    <g clip-path="url(#p322d719c47)">
     <use style="fill:#440154;stroke:#440154;" x="76.830516" xlink:href="#C0_0_7d21600ad0" y="186.368292"/>
    </g>
    <g clip-path="url(#p322d719c47)">
     <use style="fill:#440154;stroke:#440154;" x="130.035205" xlink:href="#C0_0_7d21600ad0" y="255.486932"/>
    </g>
    <g clip-path="url(#p322d719c47)">
     <use style="fill:#440154;stroke:#440154;" x="157.328031" xlink:href="#C0_0_7d21600ad0" y="184.398126"/>
    </g>
    <g clip-path="url(#p322d719c47)">
     <use style="fill:#440154;stroke:#440154;" x="82.943188" xlink:href="#C0_0_7d21600ad0" y="162.251348"/>
    </g>
    <g clip-path="url(#p322d719c47)">
     <use style="fill:#440154;stroke:#440154;" x="111.233982" xlink:href="#C0_0_7d21600ad0" y="200.968353"/>
    </g>
    <g clip-path="url(#p322d719c47)">
     <use style="fill:#440154;stroke:#440154;" x="127.846959" xlink:href="#C0_0_7d21600ad0" y="178.935066"/>
    </g>
    <g clip-path="url(#p322d719c47)">
     <use style="fill:#440154;stroke:#440154;" x="92.639764" xlink:href="#C0_0_7d21600ad0" y="172.478824"/>
    </g>
    <g clip-path="url(#p322d719c47)">
     <use style="fill:#440154;stroke:#440154;" x="147.751429" xlink:href="#C0_0_7d21600ad0" y="178.652188"/>
    </g>
    <g clip-path="url(#p322d719c47)">
     <use style="fill:#440154;stroke:#440154;" x="152.826298" xlink:href="#C0_0_7d21600ad0" y="188.047901"/>
    </g>
    <g clip-path="url(#p322d719c47)">
     <use style="fill:#440154;stroke:#440154;" x="161.547428" xlink:href="#C0_0_7d21600ad0" y="190.468916"/>
    </g>
    <g clip-path="url(#p322d719c47)">
     <use style="fill:#440154;stroke:#440154;" x="158.112075" xlink:href="#C0_0_7d21600ad0" y="210.62963"/>
    </g>
    <g clip-path="url(#p322d719c47)">
     <use style="fill:#440154;stroke:#440154;" x="109.333747" xlink:href="#C0_0_7d21600ad0" y="247.799056"/>
    </g>
    <g clip-path="url(#p322d719c47)">
     <use style="fill:#440154;stroke:#440154;" x="179.101245" xlink:href="#C0_0_7d21600ad0" y="184.461094"/>
    </g>
    <g clip-path="url(#p322d719c47)">
     <use style="fill:#440154;stroke:#440154;" x="104.752623" xlink:href="#C0_0_7d21600ad0" y="232.739521"/>
    </g>
    <g clip-path="url(#p322d719c47)">
     <use style="fill:#440154;stroke:#440154;" x="111.483414" xlink:href="#C0_0_7d21600ad0" y="181.218032"/>
    </g>
    <g clip-path="url(#p322d719c47)">
     <use style="fill:#440154;stroke:#440154;" x="156.783824" xlink:href="#C0_0_7d21600ad0" y="203.125076"/>
    </g>
    <g clip-path="url(#p322d719c47)">
     <use style="fill:#440154;stroke:#440154;" x="58.505241" xlink:href="#C0_0_7d21600ad0" y="159.009753"/>
    </g>
    <g clip-path="url(#p322d719c47)">
     <use style="fill:#440154;stroke:#440154;" x="112.579112" xlink:href="#C0_0_7d21600ad0" y="196.717381"/>
    </g>
    <g clip-path="url(#p322d719c47)">
     <use style="fill:#440154;stroke:#440154;" x="194.571658" xlink:href="#C0_0_7d21600ad0" y="180.493612"/>
    </g>
    <g clip-path="url(#p322d719c47)">
     <use style="fill:#440154;stroke:#440154;" x="141.562516" xlink:href="#C0_0_7d21600ad0" y="202.435515"/>
    </g>
    <g clip-path="url(#p322d719c47)">
     <use style="fill:#440154;stroke:#440154;" x="79.180075" xlink:href="#C0_0_7d21600ad0" y="197.290715"/>
    </g>
    <g clip-path="url(#p322d719c47)">
     <use style="fill:#fde725;stroke:#fde725;" x="243.913338" xlink:href="#C0_0_7d21600ad0" y="105.910823"/>
    </g>
    <g clip-path="url(#p322d719c47)">
     <use style="fill:#fde725;stroke:#fde725;" x="282.842154" xlink:href="#C0_0_7d21600ad0" y="25.524347"/>
    </g>
    <g clip-path="url(#p322d719c47)">
     <use style="fill:#fde725;stroke:#fde725;" x="272.722904" xlink:href="#C0_0_7d21600ad0" y="89.206491"/>
    </g>
    <g clip-path="url(#p322d719c47)">
     <use style="fill:#fde725;stroke:#fde725;" x="257.911795" xlink:href="#C0_0_7d21600ad0" y="95.668948"/>
    </g>
    <g clip-path="url(#p322d719c47)">
     <use style="fill:#fde725;stroke:#fde725;" x="253.349364" xlink:href="#C0_0_7d21600ad0" y="84.771994"/>
    </g>
    <g clip-path="url(#p322d719c47)">
     <use style="fill:#fde725;stroke:#fde725;" x="346.487575" xlink:href="#C0_0_7d21600ad0" y="74.334602"/>
    </g>
    <g clip-path="url(#p322d719c47)">
     <use style="fill:#fde725;stroke:#fde725;" x="285.607427" xlink:href="#C0_0_7d21600ad0" y="77.287177"/>
    </g>
    <g clip-path="url(#p322d719c47)">
     <use style="fill:#fde725;stroke:#fde725;" x="272.668914" xlink:href="#C0_0_7d21600ad0" y="89.116395"/>
    </g>
    <g clip-path="url(#p322d719c47)">
     <use style="fill:#fde725;stroke:#fde725;" x="197.716699" xlink:href="#C0_0_7d21600ad0" y="87.119814"/>
    </g>
    <g clip-path="url(#p322d719c47)">
     <use style="fill:#fde725;stroke:#fde725;" x="278.062837" xlink:href="#C0_0_7d21600ad0" y="86.631254"/>
    </g>
    <g clip-path="url(#p322d719c47)">
     <use style="fill:#fde725;stroke:#fde725;" x="271.797898" xlink:href="#C0_0_7d21600ad0" y="43.82474"/>
    </g>
    <g clip-path="url(#p322d719c47)">
     <use style="fill:#fde725;stroke:#fde725;" x="212.378768" xlink:href="#C0_0_7d21600ad0" y="91.271429"/>
    </g>
    <g clip-path="url(#p322d719c47)">
     <use style="fill:#fde725;stroke:#fde725;" x="353.738989" xlink:href="#C0_0_7d21600ad0" y="74.523987"/>
    </g>
    <g clip-path="url(#p322d719c47)">
     <use style="fill:#fde725;stroke:#fde725;" x="316.74062" xlink:href="#C0_0_7d21600ad0" y="99.860883"/>
    </g>
    <g clip-path="url(#p322d719c47)">
     <use style="fill:#fde725;stroke:#fde725;" x="321.106094" xlink:href="#C0_0_7d21600ad0" y="124.206427"/>
    </g>
    <g clip-path="url(#p322d719c47)">
     <use style="fill:#fde725;stroke:#fde725;" x="249.221041" xlink:href="#C0_0_7d21600ad0" y="121.650728"/>
    </g>
    <g clip-path="url(#p322d719c47)">
     <use style="fill:#fde725;stroke:#fde725;" x="317.446648" xlink:href="#C0_0_7d21600ad0" y="35.152351"/>
    </g>
    <g clip-path="url(#p322d719c47)">
     <use style="fill:#fde725;stroke:#fde725;" x="252.35058" xlink:href="#C0_0_7d21600ad0" y="103.550832"/>
    </g>
    <g clip-path="url(#p322d719c47)">
     <use style="fill:#fde725;stroke:#fde725;" x="262.815277" xlink:href="#C0_0_7d21600ad0" y="75.455843"/>
    </g>
    <g clip-path="url(#p322d719c47)">
     <use style="fill:#fde725;stroke:#fde725;" x="306.480936" xlink:href="#C0_0_7d21600ad0" y="116.091564"/>
    </g>
    <g clip-path="url(#p322d719c47)">
     <use style="fill:#fde725;stroke:#fde725;" x="318.403289" xlink:href="#C0_0_7d21600ad0" y="132.399967"/>
    </g>
    <g clip-path="url(#p322d719c47)">
     <use style="fill:#fde725;stroke:#fde725;" x="252.747158" xlink:href="#C0_0_7d21600ad0" y="106.448164"/>
    </g>
    <g clip-path="url(#p322d719c47)">
     <use style="fill:#fde725;stroke:#fde725;" x="335.720649" xlink:href="#C0_0_7d21600ad0" y="84.884805"/>
    </g>
    <g clip-path="url(#p322d719c47)">
     <use style="fill:#fde725;stroke:#fde725;" x="257.601281" xlink:href="#C0_0_7d21600ad0" y="19.220944"/>
    </g>
    <g clip-path="url(#p322d719c47)">
     <use style="fill:#fde725;stroke:#fde725;" x="358.435471" xlink:href="#C0_0_7d21600ad0" y="82.000441"/>
    </g>
   </g>
   <g id="PathCollection_2">
    <defs>
     <path d="M 0 5 
C 1.326016 5 2.597899 4.473168 3.535534 3.535534 
C 4.473168 2.597899 5 1.326016 5 -0 
C 5 -1.326016 4.473168 -2.597899 3.535534 -3.535534 
C 2.597899 -4.473168 1.326016 -5 0 -5 
C -1.326016 -5 -2.597899 -4.473168 -3.535534 -3.535534 
C -4.473168 -2.597899 -5 -1.326016 -5 0 
C -5 1.326016 -4.473168 2.597899 -3.535534 3.535534 
C -2.597899 4.473168 -1.326016 5 0 5 
z
" id="C1_0_921cc872e9"/>
    </defs>
    <g clip-path="url(#p322d719c47)">
     <use style="fill:none;stroke:#000000;" x="194.571658" xlink:href="#C1_0_921cc872e9" y="180.493612"/>
    </g>
    <g clip-path="url(#p322d719c47)">
     <use style="fill:none;stroke:#000000;" x="197.716699" xlink:href="#C1_0_921cc872e9" y="87.119814"/>
    </g>
    <g clip-path="url(#p322d719c47)">
     <use style="fill:none;stroke:#000000;" x="249.221041" xlink:href="#C1_0_921cc872e9" y="121.650728"/>
    </g>
   </g>
   <g id="PathCollection_3">
    <path clip-path="url(#p322d719c47)" d="M 386.062188 261.216 
L 386.062188 260.544 
L 385.160369 259.872 
L 382.454915 257.856 
L 381.553097 257.184 
L 378.847642 255.168 
L 377.945824 254.496 
L 375.240369 252.48 
L 374.338551 251.808 
L 371.633097 249.792 
L 370.731278 249.12 
L 368.025824 247.104 
L 364.418551 247.104 
L 363.516733 246.432 
L 360.811278 244.416 
L 359.90946 243.744 
L 357.204006 241.728 
L 356.302188 241.056 
L 353.596733 239.04 
L 352.694915 238.368 
L 349.98946 236.352 
L 349.087642 235.68 
L 346.382188 233.664 
L 345.480369 232.992 
L 342.774915 230.976 
L 341.873097 230.304 
L 339.167642 228.288 
L 338.265824 227.616 
L 335.560369 225.6 
L 334.658551 224.928 
L 331.953097 222.912 
L 328.345824 222.912 
L 327.444006 222.24 
L 324.738551 220.224 
L 323.836733 219.552 
L 321.131278 217.536 
L 320.22946 216.864 
L 317.524006 214.848 
L 316.622188 214.176 
L 313.916733 212.16 
L 313.014915 211.488 
L 310.30946 209.472 
L 309.407642 208.8 
L 306.702188 206.784 
L 305.800369 206.112 
L 303.094915 204.096 
L 302.193097 203.424 
L 299.487642 201.408 
L 298.585824 200.736 
L 295.880369 198.72 
L 292.273097 198.72 
L 291.371278 198.048 
L 288.665824 196.032 
L 287.764006 195.36 
L 285.058551 193.344 
L 284.156733 192.672 
L 281.451278 190.656 
L 280.54946 189.984 
L 277.844006 187.968 
L 276.942188 187.296 
L 274.236733 185.28 
L 273.334915 184.608 
L 270.62946 182.592 
L 269.727642 181.92 
L 267.022188 179.904 
L 266.120369 179.232 
L 263.414915 177.216 
L 262.513097 176.544 
L 259.807642 174.528 
L 256.200369 174.528 
L 255.298551 173.856 
L 252.593097 171.84 
L 251.691278 171.168 
L 248.985824 169.152 
L 248.084006 168.48 
L 245.378551 166.464 
L 244.476733 165.792 
L 241.771278 163.776 
L 240.86946 163.104 
L 238.164006 161.088 
L 237.262188 160.416 
L 234.556733 158.4 
L 233.654915 157.728 
L 230.94946 155.712 
L 230.047642 155.04 
L 227.342188 153.024 
L 226.440369 152.352 
L 223.734915 150.336 
L 220.127642 150.336 
L 219.225824 149.664 
L 216.520369 147.648 
L 215.618551 146.976 
L 212.913097 144.96 
L 212.011278 144.288 
L 209.305824 142.272 
L 208.404006 141.6 
L 205.698551 139.584 
L 204.796733 138.912 
L 202.091278 136.896 
L 201.18946 136.224 
L 198.484006 134.208 
L 197.582188 133.536 
L 194.876733 131.52 
L 193.974915 130.848 
L 191.26946 128.832 
L 190.367642 128.16 
L 187.662188 126.144 
L 184.054915 126.144 
L 183.153097 125.472 
L 180.447642 123.456 
L 179.545824 122.784 
L 176.840369 120.768 
L 175.938551 120.096 
L 173.233097 118.08 
L 172.331278 117.408 
L 169.625824 115.392 
L 168.724006 114.72 
L 166.018551 112.704 
L 165.116733 112.032 
L 162.411278 110.016 
L 161.50946 109.344 
L 158.804006 107.328 
L 157.902188 106.656 
L 155.196733 104.64 
L 151.58946 104.64 
L 150.687642 103.968 
L 147.982188 101.952 
L 147.080369 101.28 
L 144.374915 99.264 
L 143.473097 98.592 
L 140.767642 96.576 
L 139.865824 95.904 
L 137.160369 93.888 
L 136.258551 93.216 
L 133.553097 91.2 
L 132.651278 90.528 
L 129.945824 88.512 
L 129.044006 87.84 
L 126.338551 85.824 
L 125.436733 85.152 
L 122.731278 83.136 
L 121.82946 82.464 
L 119.124006 80.448 
L 115.516733 80.448 
L 114.614915 79.776 
L 111.90946 77.76 
L 111.007642 77.088 
L 108.302188 75.072 
L 107.400369 74.4 
L 104.694915 72.384 
L 103.793097 71.712 
L 101.087642 69.696 
L 100.185824 69.024 
L 97.480369 67.008 
L 96.578551 66.336 
L 93.873097 64.32 
L 92.971278 63.648 
L 90.265824 61.632 
L 89.364006 60.96 
L 86.658551 58.944 
L 85.756733 58.272 
L 83.051278 56.256 
L 79.444006 56.256 
L 78.542188 55.584 
L 75.836733 53.568 
L 74.934915 52.896 
L 72.22946 50.88 
L 71.327642 50.208 
L 68.622187 48.192 
L 67.720369 47.52 
L 65.014915 45.504 
L 64.113097 44.832 
L 61.407642 42.816 
L 60.505824 42.144 
L 57.800369 40.128 
L 56.898551 39.456 
L 54.193097 37.44 
L 53.291278 36.768 
L 50.585824 34.752 
L 49.684006 34.08 
L 46.978551 32.064 
L 43.371278 32.064 
L 42.46946 31.392 
L 39.764006 29.376 
L 38.862188 28.704 
L 36.156733 26.688 
L 35.254915 26.016 
L 32.54946 24 
L 31.647642 23.328 
L 28.942187 21.312 
L 28.942187 21.984 
L 30.745824 23.328 
L 32.54946 24.672 
L 34.353097 26.016 
L 36.156733 27.36 
L 37.960369 28.704 
L 39.764006 30.048 
L 41.567642 31.392 
L 43.371278 32.736 
L 46.978551 32.736 
L 48.782187 34.08 
L 50.585824 35.424 
L 52.38946 36.768 
L 54.193097 38.112 
L 55.996733 39.456 
L 57.800369 40.8 
L 59.604006 42.144 
L 61.407642 43.488 
L 63.211278 44.832 
L 65.014915 46.176 
L 66.818551 47.52 
L 68.622187 48.864 
L 70.425824 50.208 
L 72.22946 51.552 
L 74.033097 52.896 
L 75.836733 54.24 
L 77.640369 55.584 
L 79.444006 56.928 
L 83.051278 56.928 
L 84.854915 58.272 
L 86.658551 59.616 
L 88.462188 60.96 
L 90.265824 62.304 
L 92.06946 63.648 
L 93.873097 64.992 
L 95.676733 66.336 
L 97.480369 67.68 
L 99.284006 69.024 
L 101.087642 70.368 
L 102.891278 71.712 
L 104.694915 73.056 
L 106.498551 74.4 
L 108.302188 75.744 
L 110.105824 77.088 
L 111.90946 78.432 
L 113.713097 79.776 
L 115.516733 81.12 
L 119.124006 81.12 
L 120.927642 82.464 
L 122.731278 83.808 
L 124.534915 85.152 
L 126.338551 86.496 
L 128.142188 87.84 
L 129.945824 89.184 
L 131.74946 90.528 
L 133.553097 91.872 
L 135.356733 93.216 
L 137.160369 94.56 
L 138.964006 95.904 
L 140.767642 97.248 
L 142.571278 98.592 
L 144.374915 99.936 
L 146.178551 101.28 
L 147.982188 102.624 
L 149.785824 103.968 
L 151.58946 105.312 
L 155.196733 105.312 
L 157.000369 106.656 
L 158.804006 108 
L 160.607642 109.344 
L 162.411278 110.688 
L 164.214915 112.032 
L 166.018551 113.376 
L 167.822188 114.72 
L 169.625824 116.064 
L 171.42946 117.408 
L 173.233097 118.752 
L 175.036733 120.096 
L 176.840369 121.44 
L 178.644006 122.784 
L 180.447642 124.128 
L 182.251278 125.472 
L 184.054915 126.816 
L 187.662188 126.816 
L 189.465824 128.16 
L 191.26946 129.504 
L 193.073097 130.848 
L 194.876733 132.192 
L 196.680369 133.536 
L 198.484006 134.88 
L 200.287642 136.224 
L 202.091278 137.568 
L 203.894915 138.912 
L 205.698551 140.256 
L 207.502188 141.6 
L 209.305824 142.944 
L 211.10946 144.288 
L 212.913097 145.632 
L 214.716733 146.976 
L 216.520369 148.32 
L 218.324006 149.664 
L 220.127642 151.008 
L 223.734915 151.008 
L 225.538551 152.352 
L 227.342188 153.696 
L 229.145824 155.04 
L 230.94946 156.384 
L 232.753097 157.728 
L 234.556733 159.072 
L 236.360369 160.416 
L 238.164006 161.76 
L 239.967642 163.104 
L 241.771278 164.448 
L 243.574915 165.792 
L 245.378551 167.136 
L 247.182188 168.48 
L 248.985824 169.824 
L 250.78946 171.168 
L 252.593097 172.512 
L 254.396733 173.856 
L 256.200369 175.2 
L 259.807642 175.2 
L 261.611278 176.544 
L 263.414915 177.888 
L 265.218551 179.232 
L 267.022188 180.576 
L 268.825824 181.92 
L 270.62946 183.264 
L 272.433097 184.608 
L 274.236733 185.952 
L 276.040369 187.296 
L 277.844006 188.64 
L 279.647642 189.984 
L 281.451278 191.328 
L 283.254915 192.672 
L 285.058551 194.016 
L 286.862188 195.36 
L 288.665824 196.704 
L 290.46946 198.048 
L 292.273097 199.392 
L 295.880369 199.392 
L 297.684006 200.736 
L 299.487642 202.08 
L 301.291278 203.424 
L 303.094915 204.768 
L 304.898551 206.112 
L 306.702188 207.456 
L 308.505824 208.8 
L 310.30946 210.144 
L 312.113097 211.488 
L 313.916733 212.832 
L 315.720369 214.176 
L 317.524006 215.52 
L 319.327642 216.864 
L 321.131278 218.208 
L 322.934915 219.552 
L 324.738551 220.896 
L 326.542188 222.24 
L 328.345824 223.584 
L 331.953097 223.584 
L 333.756733 224.928 
L 335.560369 226.272 
L 337.364006 227.616 
L 339.167642 228.96 
L 340.971278 230.304 
L 342.774915 231.648 
L 344.578551 232.992 
L 346.382188 234.336 
L 348.185824 235.68 
L 349.98946 237.024 
L 351.793097 238.368 
L 353.596733 239.712 
L 355.400369 241.056 
L 357.204006 242.4 
L 359.007642 243.744 
L 360.811278 245.088 
L 362.614915 246.432 
L 364.418551 247.776 
L 368.025824 247.776 
L 369.82946 249.12 
L 371.633097 250.464 
L 373.436733 251.808 
L 375.240369 253.152 
L 377.044006 254.496 
L 378.847642 255.84 
L 380.651278 257.184 
L 382.454915 258.528 
L 384.258551 259.872 
z
" style="fill:#3b528b;fill-opacity:0.2;"/>
   </g>
   <g id="PathCollection_4">
    <path clip-path="url(#p322d719c47)" d="M 386.062188 260.544 
L 386.062188 259.872 
L 386.062188 257.184 
L 386.062188 254.496 
L 386.062188 251.808 
L 386.062188 249.12 
L 386.062188 246.432 
L 386.062188 243.744 
L 386.062188 241.056 
L 386.062188 238.368 
L 386.062188 235.68 
L 386.062188 232.992 
L 386.062188 230.304 
L 386.062188 227.616 
L 386.062188 224.928 
L 386.062188 222.24 
L 386.062188 219.552 
L 386.062188 216.864 
L 386.062188 214.176 
L 386.062188 211.488 
L 386.062188 208.8 
L 386.062188 206.112 
L 386.062188 203.424 
L 386.062188 200.736 
L 386.062188 198.048 
L 386.062188 195.36 
L 386.062188 192.672 
L 386.062188 189.984 
L 386.062188 187.296 
L 386.062188 184.608 
L 386.062188 181.92 
L 386.062188 179.232 
L 386.062188 176.544 
L 386.062188 173.856 
L 386.062188 171.168 
L 386.062188 168.48 
L 386.062188 165.792 
L 386.062188 163.104 
L 386.062188 160.416 
L 386.062188 157.728 
L 386.062188 155.04 
L 386.062188 152.352 
L 386.062188 149.664 
L 386.062188 146.976 
L 386.062188 144.288 
L 386.062188 141.6 
L 386.062188 138.912 
L 386.062188 136.224 
L 386.062188 133.536 
L 386.062188 130.848 
L 386.062188 128.16 
L 386.062188 125.472 
L 386.062188 122.784 
L 386.062188 120.096 
L 386.062188 117.408 
L 386.062188 114.72 
L 386.062188 112.032 
L 386.062188 109.344 
L 386.062188 106.656 
L 386.062188 103.968 
L 386.062188 101.28 
L 386.062188 98.592 
L 386.062188 95.904 
L 386.062188 93.216 
L 386.062188 90.528 
L 386.062188 87.84 
L 386.062188 85.152 
L 386.062188 82.464 
L 386.062188 79.776 
L 386.062188 77.088 
L 386.062188 74.4 
L 386.062188 71.712 
L 386.062188 69.024 
L 386.062188 66.336 
L 386.062188 63.648 
L 386.062188 60.96 
L 386.062188 58.272 
L 386.062188 55.584 
L 386.062188 52.896 
L 386.062188 50.208 
L 386.062188 47.52 
L 386.062188 44.832 
L 386.062188 42.144 
L 386.062188 39.456 
L 386.062188 36.768 
L 386.062188 34.08 
L 386.062188 31.392 
L 386.062188 28.704 
L 386.062188 26.016 
L 386.062188 23.328 
L 386.062188 20.64 
L 386.062188 17.952 
L 386.062188 15.264 
L 386.062188 12.576 
L 386.062188 9.888 
L 386.062188 7.2 
L 382.454915 7.2 
L 378.847642 7.2 
L 375.240369 7.2 
L 371.633097 7.2 
L 368.025824 7.2 
L 364.418551 7.2 
L 360.811278 7.2 
L 357.204006 7.2 
L 353.596733 7.2 
L 349.98946 7.2 
L 346.382188 7.2 
L 342.774915 7.2 
L 339.167642 7.2 
L 335.560369 7.2 
L 331.953097 7.2 
L 328.345824 7.2 
L 324.738551 7.2 
L 321.131278 7.2 
L 317.524006 7.2 
L 313.916733 7.2 
L 310.30946 7.2 
L 306.702188 7.2 
L 303.094915 7.2 
L 299.487642 7.2 
L 295.880369 7.2 
L 292.273097 7.2 
L 288.665824 7.2 
L 285.058551 7.2 
L 281.451278 7.2 
L 277.844006 7.2 
L 274.236733 7.2 
L 270.62946 7.2 
L 267.022188 7.2 
L 263.414915 7.2 
L 259.807642 7.2 
L 256.200369 7.2 
L 252.593097 7.2 
L 248.985824 7.2 
L 245.378551 7.2 
L 241.771278 7.2 
L 238.164006 7.2 
L 234.556733 7.2 
L 230.94946 7.2 
L 227.342188 7.2 
L 223.734915 7.2 
L 220.127642 7.2 
L 216.520369 7.2 
L 212.913097 7.2 
L 209.305824 7.2 
L 205.698551 7.2 
L 202.091278 7.2 
L 198.484006 7.2 
L 194.876733 7.2 
L 191.26946 7.2 
L 187.662188 7.2 
L 184.054915 7.2 
L 180.447642 7.2 
L 176.840369 7.2 
L 173.233097 7.2 
L 169.625824 7.2 
L 166.018551 7.2 
L 162.411278 7.2 
L 158.804006 7.2 
L 155.196733 7.2 
L 151.58946 7.2 
L 147.982188 7.2 
L 144.374915 7.2 
L 140.767642 7.2 
L 137.160369 7.2 
L 133.553097 7.2 
L 129.945824 7.2 
L 126.338551 7.2 
L 122.731278 7.2 
L 119.124006 7.2 
L 115.516733 7.2 
L 111.90946 7.2 
L 108.302188 7.2 
L 104.694915 7.2 
L 101.087642 7.2 
L 97.480369 7.2 
L 93.873097 7.2 
L 90.265824 7.2 
L 86.658551 7.2 
L 83.051278 7.2 
L 79.444006 7.2 
L 75.836733 7.2 
L 72.22946 7.2 
L 68.622187 7.2 
L 65.014915 7.2 
L 61.407642 7.2 
L 57.800369 7.2 
L 54.193097 7.2 
L 50.585824 7.2 
L 46.978551 7.2 
L 43.371278 7.2 
L 39.764006 7.2 
L 36.156733 7.2 
L 32.54946 7.2 
L 28.942187 7.2 
L 28.942187 9.888 
L 28.942187 12.576 
L 28.942187 15.264 
L 28.942187 17.952 
L 28.942187 20.64 
L 28.942187 21.312 
L 31.647642 23.328 
L 32.54946 24 
L 35.254915 26.016 
L 36.156733 26.688 
L 38.862188 28.704 
L 39.764006 29.376 
L 42.46946 31.392 
L 43.371278 32.064 
L 46.978551 32.064 
L 49.684006 34.08 
L 50.585824 34.752 
L 53.291278 36.768 
L 54.193097 37.44 
L 56.898551 39.456 
L 57.800369 40.128 
L 60.505824 42.144 
L 61.407642 42.816 
L 64.113097 44.832 
L 65.014915 45.504 
L 67.720369 47.52 
L 68.622187 48.192 
L 71.327642 50.208 
L 72.22946 50.88 
L 74.934915 52.896 
L 75.836733 53.568 
L 78.542188 55.584 
L 79.444006 56.256 
L 83.051278 56.256 
L 85.756733 58.272 
L 86.658551 58.944 
L 89.364006 60.96 
L 90.265824 61.632 
L 92.971278 63.648 
L 93.873097 64.32 
L 96.578551 66.336 
L 97.480369 67.008 
L 100.185824 69.024 
L 101.087642 69.696 
L 103.793097 71.712 
L 104.694915 72.384 
L 107.400369 74.4 
L 108.302188 75.072 
L 111.007642 77.088 
L 111.90946 77.76 
L 114.614915 79.776 
L 115.516733 80.448 
L 119.124006 80.448 
L 121.82946 82.464 
L 122.731278 83.136 
L 125.436733 85.152 
L 126.338551 85.824 
L 129.044006 87.84 
L 129.945824 88.512 
L 132.651278 90.528 
L 133.553097 91.2 
L 136.258551 93.216 
L 137.160369 93.888 
L 139.865824 95.904 
L 140.767642 96.576 
L 143.473097 98.592 
L 144.374915 99.264 
L 147.080369 101.28 
L 147.982188 101.952 
L 150.687642 103.968 
L 151.58946 104.64 
L 155.196733 104.64 
L 157.902188 106.656 
L 158.804006 107.328 
L 161.50946 109.344 
L 162.411278 110.016 
L 165.116733 112.032 
L 166.018551 112.704 
L 168.724006 114.72 
L 169.625824 115.392 
L 172.331278 117.408 
L 173.233097 118.08 
L 175.938551 120.096 
L 176.840369 120.768 
L 179.545824 122.784 
L 180.447642 123.456 
L 183.153097 125.472 
L 184.054915 126.144 
L 187.662188 126.144 
L 190.367642 128.16 
L 191.26946 128.832 
L 193.974915 130.848 
L 194.876733 131.52 
L 197.582188 133.536 
L 198.484006 134.208 
L 201.18946 136.224 
L 202.091278 136.896 
L 204.796733 138.912 
L 205.698551 139.584 
L 208.404006 141.6 
L 209.305824 142.272 
L 212.011278 144.288 
L 212.913097 144.96 
L 215.618551 146.976 
L 216.520369 147.648 
L 219.225824 149.664 
L 220.127642 150.336 
L 223.734915 150.336 
L 226.440369 152.352 
L 227.342188 153.024 
L 230.047642 155.04 
L 230.94946 155.712 
L 233.654915 157.728 
L 234.556733 158.4 
L 237.262188 160.416 
L 238.164006 161.088 
L 240.86946 163.104 
L 241.771278 163.776 
L 244.476733 165.792 
L 245.378551 166.464 
L 248.084006 168.48 
L 248.985824 169.152 
L 251.691278 171.168 
L 252.593097 171.84 
L 255.298551 173.856 
L 256.200369 174.528 
L 259.807642 174.528 
L 262.513097 176.544 
L 263.414915 177.216 
L 266.120369 179.232 
L 267.022188 179.904 
L 269.727642 181.92 
L 270.62946 182.592 
L 273.334915 184.608 
L 274.236733 185.28 
L 276.942188 187.296 
L 277.844006 187.968 
L 280.54946 189.984 
L 281.451278 190.656 
L 284.156733 192.672 
L 285.058551 193.344 
L 287.764006 195.36 
L 288.665824 196.032 
L 291.371278 198.048 
L 292.273097 198.72 
L 295.880369 198.72 
L 298.585824 200.736 
L 299.487642 201.408 
L 302.193097 203.424 
L 303.094915 204.096 
L 305.800369 206.112 
L 306.702188 206.784 
L 309.407642 208.8 
L 310.30946 209.472 
L 313.014915 211.488 
L 313.916733 212.16 
L 316.622188 214.176 
L 317.524006 214.848 
L 320.22946 216.864 
L 321.131278 217.536 
L 323.836733 219.552 
L 324.738551 220.224 
L 327.444006 222.24 
L 328.345824 222.912 
L 331.953097 222.912 
L 334.658551 224.928 
L 335.560369 225.6 
L 338.265824 227.616 
L 339.167642 228.288 
L 341.873097 230.304 
L 342.774915 230.976 
L 345.480369 232.992 
L 346.382188 233.664 
L 349.087642 235.68 
L 349.98946 236.352 
L 352.694915 238.368 
L 353.596733 239.04 
L 356.302188 241.056 
L 357.204006 241.728 
L 359.90946 243.744 
L 360.811278 244.416 
L 363.516733 246.432 
L 364.418551 247.104 
L 368.025824 247.104 
L 370.731278 249.12 
L 371.633097 249.792 
L 374.338551 251.808 
L 375.240369 252.48 
L 377.945824 254.496 
L 378.847642 255.168 
L 381.553097 257.184 
L 382.454915 257.856 
L 385.160369 259.872 
z
" style="fill:#5ec962;fill-opacity:0.2;"/>
   </g>
   <g id="Quiver_1">
    <path clip-path="url(#p322d719c47)" d="M 205.78529 139.765458 
L 237.082412 30.225532 
L 233.158076 30.961345 
L 243.214188 15.264 
L 243.459459 33.904598 
L 240.516206 31.206616 
L 209.219085 140.746542 
L 205.78529 139.765458 
" style="fill:#ffc0cb;"/>
   </g>
   <g id="matplotlib.axis_1">
    <g id="xtick_1">
     <g id="line2d_1">
      <defs>
       <path d="M 0 0 
L 0 3.5 
" id="m6cdce80d01" style="stroke:#000000;stroke-width:0.8;"/>
      </defs>
      <g>
       <use style="stroke:#000000;stroke-width:0.8;" x="64.654188" xlink:href="#m6cdce80d01" y="273.312"/>
      </g>
     </g>
     <g id="text_1">
      <!-- −4 -->
      <g transform="translate(57.283094 287.910437)scale(0.1 -0.1)">
       <defs>
        <path d="M 678 2272 
L 4684 2272 
L 4684 1741 
L 678 1741 
L 678 2272 
z
" id="DejaVuSans-2212" transform="scale(0.015625)"/>
        <path d="M 2419 4116 
L 825 1625 
L 2419 1625 
L 2419 4116 
z
M 2253 4666 
L 3047 4666 
L 3047 1625 
L 3713 1625 
L 3713 1100 
L 3047 1100 
L 3047 0 
L 2419 0 
L 2419 1100 
L 313 1100 
L 313 1709 
L 2253 4666 
z
" id="DejaVuSans-34" transform="scale(0.015625)"/>
       </defs>
       <use xlink:href="#DejaVuSans-2212"/>
       <use x="83.789062" xlink:href="#DejaVuSans-34"/>
      </g>
     </g>
    </g>
    <g id="xtick_2">
     <g id="line2d_2">
      <g>
       <use style="stroke:#000000;stroke-width:0.8;" x="136.078188" xlink:href="#m6cdce80d01" y="273.312"/>
      </g>
     </g>
     <g id="text_2">
      <!-- −2 -->
      <g transform="translate(128.707094 287.910437)scale(0.1 -0.1)">
       <defs>
        <path d="M 1228 531 
L 3431 531 
L 3431 0 
L 469 0 
L 469 531 
Q 828 903 1448 1529 
Q 2069 2156 2228 2338 
Q 2531 2678 2651 2914 
Q 2772 3150 2772 3378 
Q 2772 3750 2511 3984 
Q 2250 4219 1831 4219 
Q 1534 4219 1204 4116 
Q 875 4013 500 3803 
L 500 4441 
Q 881 4594 1212 4672 
Q 1544 4750 1819 4750 
Q 2544 4750 2975 4387 
Q 3406 4025 3406 3419 
Q 3406 3131 3298 2873 
Q 3191 2616 2906 2266 
Q 2828 2175 2409 1742 
Q 1991 1309 1228 531 
z
" id="DejaVuSans-32" transform="scale(0.015625)"/>
       </defs>
       <use xlink:href="#DejaVuSans-2212"/>
       <use x="83.789062" xlink:href="#DejaVuSans-32"/>
      </g>
     </g>
    </g>
    <g id="xtick_3">
     <g id="line2d_3">
      <g>
       <use style="stroke:#000000;stroke-width:0.8;" x="207.502188" xlink:href="#m6cdce80d01" y="273.312"/>
      </g>
     </g>
     <g id="text_3">
      <!-- 0 -->
      <g transform="translate(204.320938 287.910437)scale(0.1 -0.1)">
       <defs>
        <path d="M 2034 4250 
Q 1547 4250 1301 3770 
Q 1056 3291 1056 2328 
Q 1056 1369 1301 889 
Q 1547 409 2034 409 
Q 2525 409 2770 889 
Q 3016 1369 3016 2328 
Q 3016 3291 2770 3770 
Q 2525 4250 2034 4250 
z
M 2034 4750 
Q 2819 4750 3233 4129 
Q 3647 3509 3647 2328 
Q 3647 1150 3233 529 
Q 2819 -91 2034 -91 
Q 1250 -91 836 529 
Q 422 1150 422 2328 
Q 422 3509 836 4129 
Q 1250 4750 2034 4750 
z
" id="DejaVuSans-30" transform="scale(0.015625)"/>
       </defs>
       <use xlink:href="#DejaVuSans-30"/>
      </g>
     </g>
    </g>
    <g id="xtick_4">
     <g id="line2d_4">
      <g>
       <use style="stroke:#000000;stroke-width:0.8;" x="278.926188" xlink:href="#m6cdce80d01" y="273.312"/>
      </g>
     </g>
     <g id="text_4">
      <!-- 2 -->
      <g transform="translate(275.744938 287.910437)scale(0.1 -0.1)">
       <use xlink:href="#DejaVuSans-32"/>
      </g>
     </g>
    </g>
    <g id="xtick_5">
     <g id="line2d_5">
      <g>
       <use style="stroke:#000000;stroke-width:0.8;" x="350.350188" xlink:href="#m6cdce80d01" y="273.312"/>
      </g>
     </g>
     <g id="text_5">
      <!-- 4 -->
      <g transform="translate(347.168938 287.910437)scale(0.1 -0.1)">
       <use xlink:href="#DejaVuSans-34"/>
      </g>
     </g>
    </g>
   </g>
   <g id="matplotlib.axis_2">
    <g id="ytick_1">
     <g id="line2d_6">
      <defs>
       <path d="M 0 0 
L -3.5 0 
" id="m61ab54b6a5" style="stroke:#000000;stroke-width:0.8;"/>
      </defs>
      <g>
       <use style="stroke:#000000;stroke-width:0.8;" x="28.942188" xlink:href="#m61ab54b6a5" y="246.7008"/>
      </g>
     </g>
     <g id="text_6">
      <!-- −4 -->
      <g transform="translate(7.2 250.500019)scale(0.1 -0.1)">
       <use xlink:href="#DejaVuSans-2212"/>
       <use x="83.789062" xlink:href="#DejaVuSans-34"/>
      </g>
     </g>
    </g>
    <g id="ytick_2">
     <g id="line2d_7">
      <g>
       <use style="stroke:#000000;stroke-width:0.8;" x="28.942188" xlink:href="#m61ab54b6a5" y="193.4784"/>
      </g>
     </g>
     <g id="text_7">
      <!-- −2 -->
      <g transform="translate(7.2 197.277619)scale(0.1 -0.1)">
       <use xlink:href="#DejaVuSans-2212"/>
       <use x="83.789062" xlink:href="#DejaVuSans-32"/>
      </g>
     </g>
    </g>
    <g id="ytick_3">
     <g id="line2d_8">
      <g>
       <use style="stroke:#000000;stroke-width:0.8;" x="28.942188" xlink:href="#m61ab54b6a5" y="140.256"/>
      </g>
     </g>
     <g id="text_8">
      <!-- 0 -->
      <g transform="translate(15.579688 144.055219)scale(0.1 -0.1)">
       <use xlink:href="#DejaVuSans-30"/>
      </g>
     </g>
    </g>
    <g id="ytick_4">
     <g id="line2d_9">
      <g>
       <use style="stroke:#000000;stroke-width:0.8;" x="28.942188" xlink:href="#m61ab54b6a5" y="87.0336"/>
      </g>
     </g>
     <g id="text_9">
      <!-- 2 -->
      <g transform="translate(15.579688 90.832819)scale(0.1 -0.1)">
       <use xlink:href="#DejaVuSans-32"/>
      </g>
     </g>
    </g>
    <g id="ytick_5">
     <g id="line2d_10">
      <g>
       <use style="stroke:#000000;stroke-width:0.8;" x="28.942188" xlink:href="#m61ab54b6a5" y="33.8112"/>
      </g>
     </g>
     <g id="text_10">
      <!-- 4 -->
      <g transform="translate(15.579688 37.610419)scale(0.1 -0.1)">
       <use xlink:href="#DejaVuSans-34"/>
      </g>
     </g>
    </g>
   </g>
   <g id="LineCollection_1">
    <path clip-path="url(#p322d719c47)" d="M 28.942187 69.638322 
L 333.198639 273.312 
L 333.198639 273.312 
" style="fill:none;stroke:#000000;stroke-dasharray:5.55,2.4;stroke-dashoffset:0;stroke-opacity:0.5;stroke-width:1.5;"/>
   </g>
   <g id="LineCollection_2">
    <path clip-path="url(#p322d719c47)" d="M 28.942187 21.897437 
L 386.062188 260.95874 
L 386.062188 260.95874 
" style="fill:none;stroke:#000000;stroke-opacity:0.5;stroke-width:1.5;"/>
   </g>
   <g id="LineCollection_3">
    <path clip-path="url(#p322d719c47)" d="M 78.303904 7.2 
L 386.062188 213.217855 
L 386.062188 213.217855 
" style="fill:none;stroke:#000000;stroke-dasharray:5.55,2.4;stroke-dashoffset:0;stroke-opacity:0.5;stroke-width:1.5;"/>
   </g>
   <g id="patch_3">
    <path d="M 28.942188 273.312 
L 28.942188 7.2 
" style="fill:none;stroke:#000000;stroke-linecap:square;stroke-linejoin:miter;stroke-width:0.8;"/>
   </g>
   <g id="patch_4">
    <path d="M 386.062188 273.312 
L 386.062188 7.2 
" style="fill:none;stroke:#000000;stroke-linecap:square;stroke-linejoin:miter;stroke-width:0.8;"/>
   </g>
   <g id="patch_5">
    <path d="M 28.942187 273.312 
L 386.062188 273.312 
" style="fill:none;stroke:#000000;stroke-linecap:square;stroke-linejoin:miter;stroke-width:0.8;"/>
   </g>
   <g id="patch_6">
    <path d="M 28.942187 7.2 
L 386.062188 7.2 
" style="fill:none;stroke:#000000;stroke-linecap:square;stroke-linejoin:miter;stroke-width:0.8;"/>
   </g>
  </g>
 </g>
 <defs>
  <clipPath id="p322d719c47">
   <rect height="266.112" width="357.12" x="28.942188" y="7.2"/>
  </clipPath>
 </defs>
</svg>
