<?xml version="1.0" encoding="utf-8" standalone="no"?>
<!DOCTYPE svg PUBLIC "-//W3C//DTD SVG 1.1//EN"
  "http://www.w3.org/Graphics/SVG/1.1/DTD/svg11.dtd">
<svg height="300.989344pt" version="1.1" viewBox="0 0 410.754375 300.989344" width="410.754375pt" xmlns="http://www.w3.org/2000/svg" xmlns:xlink="http://www.w3.org/1999/xlink">
 <metadata>
  <rdf:RDF xmlns:cc="http://creativecommons.org/ns#" xmlns:dc="http://purl.org/dc/elements/1.1/" xmlns:rdf="http://www.w3.org/1999/02/22-rdf-syntax-ns#">
   <cc:Work>
    <dc:type rdf:resource="http://purl.org/dc/dcmitype/StillImage"/>
    <dc:date>2021-05-06T11:14:19.185821</dc:date>
    <dc:format>image/svg+xml</dc:format>
    <dc:creator>
     <cc:Agent>
      <dc:title>Matplotlib v3.4.1, https://matplotlib.org/</dc:title>
     </cc:Agent>
    </dc:creator>
   </cc:Work>
  </rdf:RDF>
 </metadata>
 <defs>
  <style type="text/css">*{stroke-linecap:butt;stroke-linejoin:round;}</style>
 </defs>
 <g id="figure_1">
  <g id="patch_1">
   <path d="M 0 300.989344 
L 410.754375 300.989344 
L 410.754375 0 
L 0 0 
z
" style="fill:#ffffff;"/>
  </g>
  <g id="axes_1">
   <g id="patch_2">
    <path d="M 38.482813 277.111219 
L 395.602813 277.111219 
L 395.602813 10.999219 
L 38.482813 10.999219 
z
" style="fill:#ffffff;"/>
   </g>
   <g id="PathCollection_1">
    <defs>
     <path d="M 0 3 
C 0.795609 3 1.55874 2.683901 2.12132 2.12132 
C 2.683901 1.55874 3 0.795609 3 -0 
C 3 -0.795609 2.683901 -1.55874 2.12132 -2.12132 
C 1.55874 -2.683901 0.795609 -3 0 -3 
C -0.795609 -3 -1.55874 -2.683901 -2.12132 -2.12132 
C -2.683901 -1.55874 -3 -0.795609 -3 0 
C -3 0.795609 -2.683901 1.55874 -2.12132 2.12132 
C -1.55874 2.683901 -0.795609 3 0 3 
z
" id="C0_0_46455e48a4"/>
    </defs>
    <g clip-path="url(#p9bdae29f65)">
     <use style="fill:#440154;stroke:#440154;" x="367.939169" xlink:href="#C0_0_46455e48a4" y="128.040822"/>
    </g>
    <g clip-path="url(#p9bdae29f65)">
     <use style="fill:#440154;stroke:#440154;" x="351.938139" xlink:href="#C0_0_46455e48a4" y="116.330441"/>
    </g>
    <g clip-path="url(#p9bdae29f65)">
     <use style="fill:#440154;stroke:#440154;" x="326.701105" xlink:href="#C0_0_46455e48a4" y="76.22496"/>
    </g>
    <g clip-path="url(#p9bdae29f65)">
     <use style="fill:#440154;stroke:#440154;" x="295.015066" xlink:href="#C0_0_46455e48a4" y="98.053471"/>
    </g>
    <g clip-path="url(#p9bdae29f65)">
     <use style="fill:#440154;stroke:#440154;" x="270.574269" xlink:href="#C0_0_46455e48a4" y="71.257605"/>
    </g>
    <g clip-path="url(#p9bdae29f65)">
     <use style="fill:#440154;stroke:#440154;" x="284.141414" xlink:href="#C0_0_46455e48a4" y="51.5803"/>
    </g>
    <g clip-path="url(#p9bdae29f65)">
     <use style="fill:#440154;stroke:#440154;" x="204.991643" xlink:href="#C0_0_46455e48a4" y="53.592514"/>
    </g>
    <g clip-path="url(#p9bdae29f65)">
     <use style="fill:#440154;stroke:#440154;" x="217.374205" xlink:href="#C0_0_46455e48a4" y="32.183233"/>
    </g>
    <g clip-path="url(#p9bdae29f65)">
     <use style="fill:#440154;stroke:#440154;" x="159.553103" xlink:href="#C0_0_46455e48a4" y="88.832083"/>
    </g>
    <g clip-path="url(#p9bdae29f65)">
     <use style="fill:#440154;stroke:#440154;" x="166.078064" xlink:href="#C0_0_46455e48a4" y="80.536695"/>
    </g>
    <g clip-path="url(#p9bdae29f65)">
     <use style="fill:#440154;stroke:#440154;" x="115.495671" xlink:href="#C0_0_46455e48a4" y="94.729727"/>
    </g>
    <g clip-path="url(#p9bdae29f65)">
     <use style="fill:#440154;stroke:#440154;" x="98.191181" xlink:href="#C0_0_46455e48a4" y="114.962394"/>
    </g>
    <g clip-path="url(#p9bdae29f65)">
     <use style="fill:#440154;stroke:#440154;" x="117.797802" xlink:href="#C0_0_46455e48a4" y="149.699173"/>
    </g>
    <g clip-path="url(#p9bdae29f65)">
     <use style="fill:#440154;stroke:#440154;" x="113.3994" xlink:href="#C0_0_46455e48a4" y="165.428837"/>
    </g>
    <g clip-path="url(#p9bdae29f65)">
     <use style="fill:#440154;stroke:#440154;" x="128.194359" xlink:href="#C0_0_46455e48a4" y="180.570326"/>
    </g>
    <g clip-path="url(#p9bdae29f65)">
     <use style="fill:#440154;stroke:#440154;" x="140.741836" xlink:href="#C0_0_46455e48a4" y="201.477697"/>
    </g>
    <g clip-path="url(#p9bdae29f65)">
     <use style="fill:#440154;stroke:#440154;" x="160.399359" xlink:href="#C0_0_46455e48a4" y="212.594818"/>
    </g>
    <g clip-path="url(#p9bdae29f65)">
     <use style="fill:#440154;stroke:#440154;" x="161.810165" xlink:href="#C0_0_46455e48a4" y="254.850026"/>
    </g>
    <g clip-path="url(#p9bdae29f65)">
     <use style="fill:#440154;stroke:#440154;" x="165.25465" xlink:href="#C0_0_46455e48a4" y="222.667179"/>
    </g>
    <g clip-path="url(#p9bdae29f65)">
     <use style="fill:#440154;stroke:#440154;" x="236.756995" xlink:href="#C0_0_46455e48a4" y="224.235946"/>
    </g>
    <g clip-path="url(#p9bdae29f65)">
     <use style="fill:#440154;stroke:#440154;" x="261.93313" xlink:href="#C0_0_46455e48a4" y="205.362377"/>
    </g>
    <g clip-path="url(#p9bdae29f65)">
     <use style="fill:#440154;stroke:#440154;" x="240.389027" xlink:href="#C0_0_46455e48a4" y="209.932444"/>
    </g>
    <g clip-path="url(#p9bdae29f65)">
     <use style="fill:#440154;stroke:#440154;" x="304.861086" xlink:href="#C0_0_46455e48a4" y="196.579329"/>
    </g>
    <g clip-path="url(#p9bdae29f65)">
     <use style="fill:#440154;stroke:#440154;" x="301.011563" xlink:href="#C0_0_46455e48a4" y="190.991113"/>
    </g>
    <g clip-path="url(#p9bdae29f65)">
     <use style="fill:#440154;stroke:#440154;" x="328.322505" xlink:href="#C0_0_46455e48a4" y="172.942851"/>
    </g>
    <g clip-path="url(#p9bdae29f65)">
     <use style="fill:#fde725;stroke:#fde725;" x="238.800289" xlink:href="#C0_0_46455e48a4" y="119.070359"/>
    </g>
    <g clip-path="url(#p9bdae29f65)">
     <use style="fill:#fde725;stroke:#fde725;" x="232.469646" xlink:href="#C0_0_46455e48a4" y="154.998806"/>
    </g>
    <g clip-path="url(#p9bdae29f65)">
     <use style="fill:#fde725;stroke:#fde725;" x="226.282235" xlink:href="#C0_0_46455e48a4" y="115.269524"/>
    </g>
    <g clip-path="url(#p9bdae29f65)">
     <use style="fill:#fde725;stroke:#fde725;" x="251.837936" xlink:href="#C0_0_46455e48a4" y="131.734615"/>
    </g>
    <g clip-path="url(#p9bdae29f65)">
     <use style="fill:#fde725;stroke:#fde725;" x="240.154834" xlink:href="#C0_0_46455e48a4" y="129.098405"/>
    </g>
    <g clip-path="url(#p9bdae29f65)">
     <use style="fill:#fde725;stroke:#fde725;" x="240.425296" xlink:href="#C0_0_46455e48a4" y="109.93233"/>
    </g>
    <g clip-path="url(#p9bdae29f65)">
     <use style="fill:#fde725;stroke:#fde725;" x="264.940981" xlink:href="#C0_0_46455e48a4" y="129.625801"/>
    </g>
    <g clip-path="url(#p9bdae29f65)">
     <use style="fill:#fde725;stroke:#fde725;" x="247.333062" xlink:href="#C0_0_46455e48a4" y="143.932567"/>
    </g>
    <g clip-path="url(#p9bdae29f65)">
     <use style="fill:#fde725;stroke:#fde725;" x="228.280349" xlink:href="#C0_0_46455e48a4" y="125.987897"/>
    </g>
    <g clip-path="url(#p9bdae29f65)">
     <use style="fill:#fde725;stroke:#fde725;" x="178.915424" xlink:href="#C0_0_46455e48a4" y="115.236108"/>
    </g>
    <g clip-path="url(#p9bdae29f65)">
     <use style="fill:#fde725;stroke:#fde725;" x="186.80327" xlink:href="#C0_0_46455e48a4" y="150.292334"/>
    </g>
    <g clip-path="url(#p9bdae29f65)">
     <use style="fill:#fde725;stroke:#fde725;" x="207.933975" xlink:href="#C0_0_46455e48a4" y="135.518418"/>
    </g>
    <g clip-path="url(#p9bdae29f65)">
     <use style="fill:#fde725;stroke:#fde725;" x="178.633256" xlink:href="#C0_0_46455e48a4" y="133.362753"/>
    </g>
    <g clip-path="url(#p9bdae29f65)">
     <use style="fill:#fde725;stroke:#fde725;" x="200.804734" xlink:href="#C0_0_46455e48a4" y="166.462322"/>
    </g>
    <g clip-path="url(#p9bdae29f65)">
     <use style="fill:#fde725;stroke:#fde725;" x="183.992528" xlink:href="#C0_0_46455e48a4" y="145.428069"/>
    </g>
    <g clip-path="url(#p9bdae29f65)">
     <use style="fill:#fde725;stroke:#fde725;" x="207.343012" xlink:href="#C0_0_46455e48a4" y="180.503236"/>
    </g>
    <g clip-path="url(#p9bdae29f65)">
     <use style="fill:#fde725;stroke:#fde725;" x="193.472256" xlink:href="#C0_0_46455e48a4" y="143.928909"/>
    </g>
    <g clip-path="url(#p9bdae29f65)">
     <use style="fill:#fde725;stroke:#fde725;" x="197.008605" xlink:href="#C0_0_46455e48a4" y="138.775724"/>
    </g>
    <g clip-path="url(#p9bdae29f65)">
     <use style="fill:#fde725;stroke:#fde725;" x="185.969473" xlink:href="#C0_0_46455e48a4" y="173.626211"/>
    </g>
    <g clip-path="url(#p9bdae29f65)">
     <use style="fill:#fde725;stroke:#fde725;" x="249.727074" xlink:href="#C0_0_46455e48a4" y="148.365634"/>
    </g>
    <g clip-path="url(#p9bdae29f65)">
     <use style="fill:#fde725;stroke:#fde725;" x="205.733085" xlink:href="#C0_0_46455e48a4" y="187.352399"/>
    </g>
    <g clip-path="url(#p9bdae29f65)">
     <use style="fill:#fde725;stroke:#fde725;" x="247.955462" xlink:href="#C0_0_46455e48a4" y="173.750086"/>
    </g>
    <g clip-path="url(#p9bdae29f65)">
     <use style="fill:#fde725;stroke:#fde725;" x="240.909562" xlink:href="#C0_0_46455e48a4" y="154.740746"/>
    </g>
    <g clip-path="url(#p9bdae29f65)">
     <use style="fill:#fde725;stroke:#fde725;" x="255.282536" xlink:href="#C0_0_46455e48a4" y="138.959133"/>
    </g>
    <g clip-path="url(#p9bdae29f65)">
     <use style="fill:#fde725;stroke:#fde725;" x="233.499375" xlink:href="#C0_0_46455e48a4" y="121.232959"/>
    </g>
   </g>
   <g id="PathCollection_2">
    <defs>
     <path d="M 0 5 
C 1.326016 5 2.597899 4.473168 3.535534 3.535534 
C 4.473168 2.597899 5 1.326016 5 -0 
C 5 -1.326016 4.473168 -2.597899 3.535534 -3.535534 
C 2.597899 -4.473168 1.326016 -5 0 -5 
C -1.326016 -5 -2.597899 -4.473168 -3.535534 -3.535534 
C -4.473168 -2.597899 -5 -1.326016 -5 0 
C -5 1.326016 -4.473168 2.597899 -3.535534 3.535534 
C -2.597899 4.473168 -1.326016 5 0 5 
z
" id="C1_0_14e6e432e0"/>
    </defs>
    <g clip-path="url(#p9bdae29f65)">
     <use style="fill:none;stroke:#000000;" x="295.015066" xlink:href="#C1_0_14e6e432e0" y="98.053471"/>
    </g>
    <g clip-path="url(#p9bdae29f65)">
     <use style="fill:none;stroke:#000000;" x="159.553103" xlink:href="#C1_0_14e6e432e0" y="88.832083"/>
    </g>
    <g clip-path="url(#p9bdae29f65)">
     <use style="fill:none;stroke:#000000;" x="117.797802" xlink:href="#C1_0_14e6e432e0" y="149.699173"/>
    </g>
    <g clip-path="url(#p9bdae29f65)">
     <use style="fill:none;stroke:#000000;" x="128.194359" xlink:href="#C1_0_14e6e432e0" y="180.570326"/>
    </g>
    <g clip-path="url(#p9bdae29f65)">
     <use style="fill:none;stroke:#000000;" x="160.399359" xlink:href="#C1_0_14e6e432e0" y="212.594818"/>
    </g>
    <g clip-path="url(#p9bdae29f65)">
     <use style="fill:none;stroke:#000000;" x="261.93313" xlink:href="#C1_0_14e6e432e0" y="205.362377"/>
    </g>
    <g clip-path="url(#p9bdae29f65)">
     <use style="fill:none;stroke:#000000;" x="240.389027" xlink:href="#C1_0_14e6e432e0" y="209.932444"/>
    </g>
    <g clip-path="url(#p9bdae29f65)">
     <use style="fill:none;stroke:#000000;" x="240.425296" xlink:href="#C1_0_14e6e432e0" y="109.93233"/>
    </g>
    <g clip-path="url(#p9bdae29f65)">
     <use style="fill:none;stroke:#000000;" x="264.940981" xlink:href="#C1_0_14e6e432e0" y="129.625801"/>
    </g>
    <g clip-path="url(#p9bdae29f65)">
     <use style="fill:none;stroke:#000000;" x="178.915424" xlink:href="#C1_0_14e6e432e0" y="115.236108"/>
    </g>
    <g clip-path="url(#p9bdae29f65)">
     <use style="fill:none;stroke:#000000;" x="205.733085" xlink:href="#C1_0_14e6e432e0" y="187.352399"/>
    </g>
    <g clip-path="url(#p9bdae29f65)">
     <use style="fill:none;stroke:#000000;" x="247.955462" xlink:href="#C1_0_14e6e432e0" y="173.750086"/>
    </g>
   </g>
   <g id="PathCollection_3">
    <path clip-path="url(#p9bdae29f65)" d="M 197.202813 203.191219 
L 200.810085 203.191219 
L 204.417358 203.191219 
L 208.024631 203.191219 
L 211.631903 203.191219 
L 213.43554 201.847219 
L 215.239176 200.503219 
L 218.846449 200.503219 
L 222.453722 200.503219 
L 226.060994 200.503219 
L 227.864631 199.159219 
L 229.668267 197.815219 
L 233.27554 197.815219 
L 236.882813 197.815219 
L 238.686449 196.471219 
L 240.490085 195.127219 
L 244.097358 195.127219 
L 245.900994 193.783219 
L 247.704631 192.439219 
L 251.311903 192.439219 
L 253.11554 191.095219 
L 254.919176 189.751219 
L 256.722813 188.407219 
L 258.526449 187.063219 
L 262.133722 187.063219 
L 263.937358 185.719219 
L 265.740994 184.375219 
L 267.544631 183.031219 
L 269.348267 181.687219 
L 271.151903 180.343219 
L 272.95554 178.999219 
L 274.759176 177.655219 
L 276.562813 176.311219 
L 278.366449 174.967219 
L 280.170085 173.623219 
L 281.973722 172.279219 
L 281.973722 169.591219 
L 283.777358 168.247219 
L 285.580994 166.903219 
L 285.580994 164.215219 
L 287.384631 162.871219 
L 289.188267 161.527219 
L 289.188267 158.839219 
L 290.991903 157.495219 
L 292.79554 156.151219 
L 292.79554 153.463219 
L 292.79554 150.775219 
L 292.79554 148.087219 
L 292.79554 145.399219 
L 292.79554 142.711219 
L 292.79554 140.023219 
L 292.79554 137.335219 
L 292.79554 134.647219 
L 292.79554 131.959219 
L 290.991903 130.615219 
L 289.188267 129.271219 
L 289.188267 126.583219 
L 289.188267 123.895219 
L 287.384631 122.551219 
L 285.580994 121.207219 
L 285.580994 118.519219 
L 283.777358 117.175219 
L 281.973722 115.831219 
L 280.170085 114.487219 
L 278.366449 113.143219 
L 278.366449 110.455219 
L 276.562813 109.111219 
L 274.759176 107.767219 
L 272.95554 106.423219 
L 271.151903 105.079219 
L 269.348267 103.735219 
L 267.544631 102.391219 
L 265.740994 101.047219 
L 263.937358 99.703219 
L 262.133722 98.359219 
L 258.526449 98.359219 
L 256.722813 97.015219 
L 254.919176 95.671219 
L 253.11554 94.327219 
L 251.311903 92.983219 
L 247.704631 92.983219 
L 245.900994 91.639219 
L 244.097358 90.295219 
L 240.490085 90.295219 
L 236.882813 90.295219 
L 233.27554 90.295219 
L 231.471903 88.951219 
L 229.668267 87.607219 
L 226.060994 87.607219 
L 222.453722 87.607219 
L 218.846449 87.607219 
L 215.239176 87.607219 
L 211.631903 87.607219 
L 208.024631 87.607219 
L 204.417358 87.607219 
L 202.613722 88.951219 
L 200.810085 90.295219 
L 197.202813 90.295219 
L 193.59554 90.295219 
L 191.791903 91.639219 
L 189.988267 92.983219 
L 186.380994 92.983219 
L 184.577358 94.327219 
L 182.773722 95.671219 
L 179.166449 95.671219 
L 177.362813 97.015219 
L 175.559176 98.359219 
L 173.75554 99.703219 
L 171.951903 101.047219 
L 170.148267 102.391219 
L 168.344631 103.735219 
L 164.737358 103.735219 
L 162.933722 105.079219 
L 162.933722 107.767219 
L 161.130085 109.111219 
L 159.326449 110.455219 
L 157.522813 111.799219 
L 155.719176 113.143219 
L 153.91554 114.487219 
L 152.111903 115.831219 
L 152.111903 118.519219 
L 150.308267 119.863219 
L 148.504631 121.207219 
L 148.504631 123.895219 
L 146.700994 125.239219 
L 144.897358 126.583219 
L 144.897358 129.271219 
L 143.093722 130.615219 
L 141.290085 131.959219 
L 141.290085 134.647219 
L 141.290085 137.335219 
L 141.290085 140.023219 
L 141.290085 142.711219 
L 141.290085 145.399219 
L 141.290085 148.087219 
L 141.290085 150.775219 
L 141.290085 153.463219 
L 141.290085 156.151219 
L 141.290085 158.839219 
L 141.290085 161.527219 
L 141.290085 164.215219 
L 141.290085 166.903219 
L 143.093722 168.247219 
L 144.897358 169.591219 
L 144.897358 172.279219 
L 146.700994 173.623219 
L 148.504631 174.967219 
L 148.504631 177.655219 
L 150.308267 178.999219 
L 152.111903 180.343219 
L 152.111903 183.031219 
L 153.91554 184.375219 
L 155.719176 185.719219 
L 157.522813 187.063219 
L 159.326449 188.407219 
L 161.130085 189.751219 
L 162.933722 191.095219 
L 164.737358 192.439219 
L 166.540994 193.783219 
L 168.344631 195.127219 
L 171.951903 195.127219 
L 173.75554 196.471219 
L 175.559176 197.815219 
L 179.166449 197.815219 
L 180.970085 199.159219 
L 182.773722 200.503219 
L 186.380994 200.503219 
L 189.988267 200.503219 
L 193.59554 200.503219 
L 195.399176 201.847219 
z
M 196.300994 201.847219 
L 193.59554 199.831219 
L 189.988267 199.831219 
L 186.380994 199.831219 
L 182.773722 199.831219 
L 181.871903 199.159219 
L 179.166449 197.143219 
L 175.559176 197.143219 
L 174.657358 196.471219 
L 171.951903 194.455219 
L 168.344631 194.455219 
L 167.442813 193.783219 
L 164.737358 191.767219 
L 163.83554 191.095219 
L 161.130085 189.079219 
L 160.228267 188.407219 
L 157.522813 186.391219 
L 156.620994 185.719219 
L 153.91554 183.703219 
L 153.013722 183.031219 
L 153.013722 180.343219 
L 150.308267 178.327219 
L 149.406449 177.655219 
L 149.406449 174.967219 
L 146.700994 172.951219 
L 145.799176 172.279219 
L 145.799176 169.591219 
L 143.093722 167.575219 
L 142.191903 166.903219 
L 142.191903 164.215219 
L 142.191903 161.527219 
L 142.191903 158.839219 
L 142.191903 156.151219 
L 142.191903 153.463219 
L 142.191903 150.775219 
L 142.191903 148.087219 
L 142.191903 145.399219 
L 142.191903 142.711219 
L 142.191903 140.023219 
L 142.191903 137.335219 
L 142.191903 134.647219 
L 142.191903 131.959219 
L 143.093722 131.287219 
L 145.799176 129.271219 
L 145.799176 126.583219 
L 146.700994 125.911219 
L 149.406449 123.895219 
L 149.406449 121.207219 
L 150.308267 120.535219 
L 153.013722 118.519219 
L 153.013722 115.831219 
L 153.91554 115.159219 
L 156.620994 113.143219 
L 157.522813 112.471219 
L 160.228267 110.455219 
L 161.130085 109.783219 
L 163.83554 107.767219 
L 163.83554 105.079219 
L 164.737358 104.407219 
L 168.344631 104.407219 
L 171.050085 102.391219 
L 171.951903 101.719219 
L 174.657358 99.703219 
L 175.559176 99.031219 
L 178.264631 97.015219 
L 179.166449 96.343219 
L 182.773722 96.343219 
L 185.479176 94.327219 
L 186.380994 93.655219 
L 189.988267 93.655219 
L 192.693722 91.639219 
L 193.59554 90.967219 
L 197.202813 90.967219 
L 200.810085 90.967219 
L 203.51554 88.951219 
L 204.417358 88.279219 
L 208.024631 88.279219 
L 211.631903 88.279219 
L 215.239176 88.279219 
L 218.846449 88.279219 
L 222.453722 88.279219 
L 226.060994 88.279219 
L 229.668267 88.279219 
L 230.570085 88.951219 
L 233.27554 90.967219 
L 236.882813 90.967219 
L 240.490085 90.967219 
L 244.097358 90.967219 
L 244.999176 91.639219 
L 247.704631 93.655219 
L 251.311903 93.655219 
L 252.213722 94.327219 
L 254.919176 96.343219 
L 255.820994 97.015219 
L 258.526449 99.031219 
L 262.133722 99.031219 
L 263.03554 99.703219 
L 265.740994 101.719219 
L 266.642813 102.391219 
L 269.348267 104.407219 
L 270.250085 105.079219 
L 272.95554 107.095219 
L 273.857358 107.767219 
L 276.562813 109.783219 
L 277.464631 110.455219 
L 277.464631 113.143219 
L 280.170085 115.159219 
L 281.071903 115.831219 
L 283.777358 117.847219 
L 284.679176 118.519219 
L 284.679176 121.207219 
L 287.384631 123.223219 
L 288.286449 123.895219 
L 288.286449 126.583219 
L 288.286449 129.271219 
L 290.991903 131.287219 
L 291.893722 131.959219 
L 291.893722 134.647219 
L 291.893722 137.335219 
L 291.893722 140.023219 
L 291.893722 142.711219 
L 291.893722 145.399219 
L 291.893722 148.087219 
L 291.893722 150.775219 
L 291.893722 153.463219 
L 291.893722 156.151219 
L 290.991903 156.823219 
L 288.286449 158.839219 
L 288.286449 161.527219 
L 287.384631 162.199219 
L 284.679176 164.215219 
L 284.679176 166.903219 
L 283.777358 167.575219 
L 281.071903 169.591219 
L 281.071903 172.279219 
L 280.170085 172.951219 
L 277.464631 174.967219 
L 276.562813 175.639219 
L 273.857358 177.655219 
L 272.95554 178.327219 
L 270.250085 180.343219 
L 269.348267 181.015219 
L 266.642813 183.031219 
L 265.740994 183.703219 
L 263.03554 185.719219 
L 262.133722 186.391219 
L 258.526449 186.391219 
L 255.820994 188.407219 
L 254.919176 189.079219 
L 252.213722 191.095219 
L 251.311903 191.767219 
L 247.704631 191.767219 
L 244.999176 193.783219 
L 244.097358 194.455219 
L 240.490085 194.455219 
L 237.784631 196.471219 
L 236.882813 197.143219 
L 233.27554 197.143219 
L 229.668267 197.143219 
L 226.962813 199.159219 
L 226.060994 199.831219 
L 222.453722 199.831219 
L 218.846449 199.831219 
L 215.239176 199.831219 
L 212.533722 201.847219 
L 211.631903 202.519219 
L 208.024631 202.519219 
L 204.417358 202.519219 
L 200.810085 202.519219 
L 197.202813 202.519219 
z
" style="fill:#3b528b;fill-opacity:0.2;"/>
   </g>
   <g id="PathCollection_4">
    <path clip-path="url(#p9bdae29f65)" d="M 197.202813 202.519219 
L 200.810085 202.519219 
L 204.417358 202.519219 
L 208.024631 202.519219 
L 211.631903 202.519219 
L 212.533722 201.847219 
L 215.239176 199.831219 
L 218.846449 199.831219 
L 222.453722 199.831219 
L 226.060994 199.831219 
L 226.962813 199.159219 
L 229.668267 197.143219 
L 233.27554 197.143219 
L 236.882813 197.143219 
L 237.784631 196.471219 
L 240.490085 194.455219 
L 244.097358 194.455219 
L 244.999176 193.783219 
L 247.704631 191.767219 
L 251.311903 191.767219 
L 252.213722 191.095219 
L 254.919176 189.079219 
L 255.820994 188.407219 
L 258.526449 186.391219 
L 262.133722 186.391219 
L 263.03554 185.719219 
L 265.740994 183.703219 
L 266.642813 183.031219 
L 269.348267 181.015219 
L 270.250085 180.343219 
L 272.95554 178.327219 
L 273.857358 177.655219 
L 276.562813 175.639219 
L 277.464631 174.967219 
L 280.170085 172.951219 
L 281.071903 172.279219 
L 281.071903 169.591219 
L 283.777358 167.575219 
L 284.679176 166.903219 
L 284.679176 164.215219 
L 287.384631 162.199219 
L 288.286449 161.527219 
L 288.286449 158.839219 
L 290.991903 156.823219 
L 291.893722 156.151219 
L 291.893722 153.463219 
L 291.893722 150.775219 
L 291.893722 148.087219 
L 291.893722 145.399219 
L 291.893722 142.711219 
L 291.893722 140.023219 
L 291.893722 137.335219 
L 291.893722 134.647219 
L 291.893722 131.959219 
L 290.991903 131.287219 
L 288.286449 129.271219 
L 288.286449 126.583219 
L 288.286449 123.895219 
L 287.384631 123.223219 
L 284.679176 121.207219 
L 284.679176 118.519219 
L 283.777358 117.847219 
L 281.071903 115.831219 
L 280.170085 115.159219 
L 277.464631 113.143219 
L 277.464631 110.455219 
L 276.562813 109.783219 
L 273.857358 107.767219 
L 272.95554 107.095219 
L 270.250085 105.079219 
L 269.348267 104.407219 
L 266.642813 102.391219 
L 265.740994 101.719219 
L 263.03554 99.703219 
L 262.133722 99.031219 
L 258.526449 99.031219 
L 255.820994 97.015219 
L 254.919176 96.343219 
L 252.213722 94.327219 
L 251.311903 93.655219 
L 247.704631 93.655219 
L 244.999176 91.639219 
L 244.097358 90.967219 
L 240.490085 90.967219 
L 236.882813 90.967219 
L 233.27554 90.967219 
L 230.570085 88.951219 
L 229.668267 88.279219 
L 226.060994 88.279219 
L 222.453722 88.279219 
L 218.846449 88.279219 
L 215.239176 88.279219 
L 211.631903 88.279219 
L 208.024631 88.279219 
L 204.417358 88.279219 
L 203.51554 88.951219 
L 200.810085 90.967219 
L 197.202813 90.967219 
L 193.59554 90.967219 
L 192.693722 91.639219 
L 189.988267 93.655219 
L 186.380994 93.655219 
L 185.479176 94.327219 
L 182.773722 96.343219 
L 179.166449 96.343219 
L 178.264631 97.015219 
L 175.559176 99.031219 
L 174.657358 99.703219 
L 171.951903 101.719219 
L 171.050085 102.391219 
L 168.344631 104.407219 
L 164.737358 104.407219 
L 163.83554 105.079219 
L 163.83554 107.767219 
L 161.130085 109.783219 
L 160.228267 110.455219 
L 157.522813 112.471219 
L 156.620994 113.143219 
L 153.91554 115.159219 
L 153.013722 115.831219 
L 153.013722 118.519219 
L 150.308267 120.535219 
L 149.406449 121.207219 
L 149.406449 123.895219 
L 146.700994 125.911219 
L 145.799176 126.583219 
L 145.799176 129.271219 
L 143.093722 131.287219 
L 142.191903 131.959219 
L 142.191903 134.647219 
L 142.191903 137.335219 
L 142.191903 140.023219 
L 142.191903 142.711219 
L 142.191903 145.399219 
L 142.191903 148.087219 
L 142.191903 150.775219 
L 142.191903 153.463219 
L 142.191903 156.151219 
L 142.191903 158.839219 
L 142.191903 161.527219 
L 142.191903 164.215219 
L 142.191903 166.903219 
L 143.093722 167.575219 
L 145.799176 169.591219 
L 145.799176 172.279219 
L 146.700994 172.951219 
L 149.406449 174.967219 
L 149.406449 177.655219 
L 150.308267 178.327219 
L 153.013722 180.343219 
L 153.013722 183.031219 
L 153.91554 183.703219 
L 156.620994 185.719219 
L 157.522813 186.391219 
L 160.228267 188.407219 
L 161.130085 189.079219 
L 163.83554 191.095219 
L 164.737358 191.767219 
L 167.442813 193.783219 
L 168.344631 194.455219 
L 171.951903 194.455219 
L 174.657358 196.471219 
L 175.559176 197.143219 
L 179.166449 197.143219 
L 181.871903 199.159219 
L 182.773722 199.831219 
L 186.380994 199.831219 
L 189.988267 199.831219 
L 193.59554 199.831219 
L 196.300994 201.847219 
z
" style="fill:#5ec962;fill-opacity:0.2;"/>
   </g>
   <g id="matplotlib.axis_1">
    <g id="xtick_1">
     <g id="line2d_1">
      <defs>
       <path d="M 0 0 
L 0 3.5 
" id="m4cc79629e5" style="stroke:#000000;stroke-width:0.8;"/>
      </defs>
      <g>
       <use style="stroke:#000000;stroke-width:0.8;" x="38.482813" xlink:href="#m4cc79629e5" y="277.111219"/>
      </g>
     </g>
     <g id="text_1">
      <!-- −1.5 -->
      <g transform="translate(26.341406 291.709656)scale(0.1 -0.1)">
       <defs>
        <path d="M 678 2272 
L 4684 2272 
L 4684 1741 
L 678 1741 
L 678 2272 
z
" id="DejaVuSans-2212" transform="scale(0.015625)"/>
        <path d="M 794 531 
L 1825 531 
L 1825 4091 
L 703 3866 
L 703 4441 
L 1819 4666 
L 2450 4666 
L 2450 531 
L 3481 531 
L 3481 0 
L 794 0 
L 794 531 
z
" id="DejaVuSans-31" transform="scale(0.015625)"/>
        <path d="M 684 794 
L 1344 794 
L 1344 0 
L 684 0 
L 684 794 
z
" id="DejaVuSans-2e" transform="scale(0.015625)"/>
        <path d="M 691 4666 
L 3169 4666 
L 3169 4134 
L 1269 4134 
L 1269 2991 
Q 1406 3038 1543 3061 
Q 1681 3084 1819 3084 
Q 2600 3084 3056 2656 
Q 3513 2228 3513 1497 
Q 3513 744 3044 326 
Q 2575 -91 1722 -91 
Q 1428 -91 1123 -41 
Q 819 9 494 109 
L 494 744 
Q 775 591 1075 516 
Q 1375 441 1709 441 
Q 2250 441 2565 725 
Q 2881 1009 2881 1497 
Q 2881 1984 2565 2268 
Q 2250 2553 1709 2553 
Q 1456 2553 1204 2497 
Q 953 2441 691 2322 
L 691 4666 
z
" id="DejaVuSans-35" transform="scale(0.015625)"/>
       </defs>
       <use xlink:href="#DejaVuSans-2212"/>
       <use x="83.789062" xlink:href="#DejaVuSans-31"/>
       <use x="147.412109" xlink:href="#DejaVuSans-2e"/>
       <use x="179.199219" xlink:href="#DejaVuSans-35"/>
      </g>
     </g>
    </g>
    <g id="xtick_2">
     <g id="line2d_2">
      <g>
       <use style="stroke:#000000;stroke-width:0.8;" x="98.002813" xlink:href="#m4cc79629e5" y="277.111219"/>
      </g>
     </g>
     <g id="text_2">
      <!-- −1.0 -->
      <g transform="translate(85.861406 291.709656)scale(0.1 -0.1)">
       <defs>
        <path d="M 2034 4250 
Q 1547 4250 1301 3770 
Q 1056 3291 1056 2328 
Q 1056 1369 1301 889 
Q 1547 409 2034 409 
Q 2525 409 2770 889 
Q 3016 1369 3016 2328 
Q 3016 3291 2770 3770 
Q 2525 4250 2034 4250 
z
M 2034 4750 
Q 2819 4750 3233 4129 
Q 3647 3509 3647 2328 
Q 3647 1150 3233 529 
Q 2819 -91 2034 -91 
Q 1250 -91 836 529 
Q 422 1150 422 2328 
Q 422 3509 836 4129 
Q 1250 4750 2034 4750 
z
" id="DejaVuSans-30" transform="scale(0.015625)"/>
       </defs>
       <use xlink:href="#DejaVuSans-2212"/>
       <use x="83.789062" xlink:href="#DejaVuSans-31"/>
       <use x="147.412109" xlink:href="#DejaVuSans-2e"/>
       <use x="179.199219" xlink:href="#DejaVuSans-30"/>
      </g>
     </g>
    </g>
    <g id="xtick_3">
     <g id="line2d_3">
      <g>
       <use style="stroke:#000000;stroke-width:0.8;" x="157.522813" xlink:href="#m4cc79629e5" y="277.111219"/>
      </g>
     </g>
     <g id="text_3">
      <!-- −0.5 -->
      <g transform="translate(145.381406 291.709656)scale(0.1 -0.1)">
       <use xlink:href="#DejaVuSans-2212"/>
       <use x="83.789062" xlink:href="#DejaVuSans-30"/>
       <use x="147.412109" xlink:href="#DejaVuSans-2e"/>
       <use x="179.199219" xlink:href="#DejaVuSans-35"/>
      </g>
     </g>
    </g>
    <g id="xtick_4">
     <g id="line2d_4">
      <g>
       <use style="stroke:#000000;stroke-width:0.8;" x="217.042813" xlink:href="#m4cc79629e5" y="277.111219"/>
      </g>
     </g>
     <g id="text_4">
      <!-- 0.0 -->
      <g transform="translate(209.09125 291.709656)scale(0.1 -0.1)">
       <use xlink:href="#DejaVuSans-30"/>
       <use x="63.623047" xlink:href="#DejaVuSans-2e"/>
       <use x="95.410156" xlink:href="#DejaVuSans-30"/>
      </g>
     </g>
    </g>
    <g id="xtick_5">
     <g id="line2d_5">
      <g>
       <use style="stroke:#000000;stroke-width:0.8;" x="276.562813" xlink:href="#m4cc79629e5" y="277.111219"/>
      </g>
     </g>
     <g id="text_5">
      <!-- 0.5 -->
      <g transform="translate(268.61125 291.709656)scale(0.1 -0.1)">
       <use xlink:href="#DejaVuSans-30"/>
       <use x="63.623047" xlink:href="#DejaVuSans-2e"/>
       <use x="95.410156" xlink:href="#DejaVuSans-35"/>
      </g>
     </g>
    </g>
    <g id="xtick_6">
     <g id="line2d_6">
      <g>
       <use style="stroke:#000000;stroke-width:0.8;" x="336.082813" xlink:href="#m4cc79629e5" y="277.111219"/>
      </g>
     </g>
     <g id="text_6">
      <!-- 1.0 -->
      <g transform="translate(328.13125 291.709656)scale(0.1 -0.1)">
       <use xlink:href="#DejaVuSans-31"/>
       <use x="63.623047" xlink:href="#DejaVuSans-2e"/>
       <use x="95.410156" xlink:href="#DejaVuSans-30"/>
      </g>
     </g>
    </g>
    <g id="xtick_7">
     <g id="line2d_7">
      <g>
       <use style="stroke:#000000;stroke-width:0.8;" x="395.602813" xlink:href="#m4cc79629e5" y="277.111219"/>
      </g>
     </g>
     <g id="text_7">
      <!-- 1.5 -->
      <g transform="translate(387.65125 291.709656)scale(0.1 -0.1)">
       <use xlink:href="#DejaVuSans-31"/>
       <use x="63.623047" xlink:href="#DejaVuSans-2e"/>
       <use x="95.410156" xlink:href="#DejaVuSans-35"/>
      </g>
     </g>
    </g>
   </g>
   <g id="matplotlib.axis_2">
    <g id="ytick_1">
     <g id="line2d_8">
      <defs>
       <path d="M 0 0 
L -3.5 0 
" id="mdadf7bc040" style="stroke:#000000;stroke-width:0.8;"/>
      </defs>
      <g>
       <use style="stroke:#000000;stroke-width:0.8;" x="38.482813" xlink:href="#mdadf7bc040" y="277.111219"/>
      </g>
     </g>
     <g id="text_8">
      <!-- −1.5 -->
      <g transform="translate(7.2 280.910437)scale(0.1 -0.1)">
       <use xlink:href="#DejaVuSans-2212"/>
       <use x="83.789062" xlink:href="#DejaVuSans-31"/>
       <use x="147.412109" xlink:href="#DejaVuSans-2e"/>
       <use x="179.199219" xlink:href="#DejaVuSans-35"/>
      </g>
     </g>
    </g>
    <g id="ytick_2">
     <g id="line2d_9">
      <g>
       <use style="stroke:#000000;stroke-width:0.8;" x="38.482813" xlink:href="#mdadf7bc040" y="232.759219"/>
      </g>
     </g>
     <g id="text_9">
      <!-- −1.0 -->
      <g transform="translate(7.2 236.558437)scale(0.1 -0.1)">
       <use xlink:href="#DejaVuSans-2212"/>
       <use x="83.789062" xlink:href="#DejaVuSans-31"/>
       <use x="147.412109" xlink:href="#DejaVuSans-2e"/>
       <use x="179.199219" xlink:href="#DejaVuSans-30"/>
      </g>
     </g>
    </g>
    <g id="ytick_3">
     <g id="line2d_10">
      <g>
       <use style="stroke:#000000;stroke-width:0.8;" x="38.482813" xlink:href="#mdadf7bc040" y="188.407219"/>
      </g>
     </g>
     <g id="text_10">
      <!-- −0.5 -->
      <g transform="translate(7.2 192.206437)scale(0.1 -0.1)">
       <use xlink:href="#DejaVuSans-2212"/>
       <use x="83.789062" xlink:href="#DejaVuSans-30"/>
       <use x="147.412109" xlink:href="#DejaVuSans-2e"/>
       <use x="179.199219" xlink:href="#DejaVuSans-35"/>
      </g>
     </g>
    </g>
    <g id="ytick_4">
     <g id="line2d_11">
      <g>
       <use style="stroke:#000000;stroke-width:0.8;" x="38.482813" xlink:href="#mdadf7bc040" y="144.055219"/>
      </g>
     </g>
     <g id="text_11">
      <!-- 0.0 -->
      <g transform="translate(15.579688 147.854437)scale(0.1 -0.1)">
       <use xlink:href="#DejaVuSans-30"/>
       <use x="63.623047" xlink:href="#DejaVuSans-2e"/>
       <use x="95.410156" xlink:href="#DejaVuSans-30"/>
      </g>
     </g>
    </g>
    <g id="ytick_5">
     <g id="line2d_12">
      <g>
       <use style="stroke:#000000;stroke-width:0.8;" x="38.482813" xlink:href="#mdadf7bc040" y="99.703219"/>
      </g>
     </g>
     <g id="text_12">
      <!-- 0.5 -->
      <g transform="translate(15.579688 103.502437)scale(0.1 -0.1)">
       <use xlink:href="#DejaVuSans-30"/>
       <use x="63.623047" xlink:href="#DejaVuSans-2e"/>
       <use x="95.410156" xlink:href="#DejaVuSans-35"/>
      </g>
     </g>
    </g>
    <g id="ytick_6">
     <g id="line2d_13">
      <g>
       <use style="stroke:#000000;stroke-width:0.8;" x="38.482813" xlink:href="#mdadf7bc040" y="55.351219"/>
      </g>
     </g>
     <g id="text_13">
      <!-- 1.0 -->
      <g transform="translate(15.579688 59.150437)scale(0.1 -0.1)">
       <use xlink:href="#DejaVuSans-31"/>
       <use x="63.623047" xlink:href="#DejaVuSans-2e"/>
       <use x="95.410156" xlink:href="#DejaVuSans-30"/>
      </g>
     </g>
    </g>
    <g id="ytick_7">
     <g id="line2d_14">
      <g>
       <use style="stroke:#000000;stroke-width:0.8;" x="38.482813" xlink:href="#mdadf7bc040" y="10.999219"/>
      </g>
     </g>
     <g id="text_14">
      <!-- 1.5 -->
      <g transform="translate(15.579688 14.798437)scale(0.1 -0.1)">
       <use xlink:href="#DejaVuSans-31"/>
       <use x="63.623047" xlink:href="#DejaVuSans-2e"/>
       <use x="95.410156" xlink:href="#DejaVuSans-35"/>
      </g>
     </g>
    </g>
   </g>
   <g id="LineCollection_1">
    <path clip-path="url(#p9bdae29f65)" d="M 182.773722 218.038804 
L 186.380994 218.424563 
L 189.988267 218.677212 
L 193.59554 218.805691 
L 200.810085 218.71915 
L 208.024631 218.211945 
L 215.239176 217.334122 
L 222.453722 216.105738 
L 229.668267 214.549586 
L 237.16207 212.599219 
L 244.097358 210.5192 
L 251.311903 208.056198 
L 258.526449 205.287271 
L 265.740994 202.195974 
L 272.14271 199.159219 
L 277.331839 196.471219 
L 283.777358 192.793388 
L 287.384631 190.551937 
L 290.991903 188.152171 
L 294.599176 185.563842 
L 298.206449 182.744756 
L 301.813722 179.635772 
L 305.420994 176.152941 
L 306.584576 174.967219 
L 309.028267 172.166437 
L 311.074722 169.591219 
L 312.932289 166.903219 
L 314.579509 164.215219 
L 316.242813 160.881214 
L 317.149433 158.839219 
L 318.110167 156.151219 
L 318.847803 153.463219 
L 319.37524 150.775219 
L 319.702929 148.087219 
L 319.839172 145.399219 
L 319.790357 142.711219 
L 319.561134 140.023219 
L 319.154547 137.335219 
L 318.572125 134.647219 
L 317.813937 131.959219 
L 316.242813 127.730818 
L 315.784139 126.583219 
L 314.541308 123.895219 
L 312.63554 120.39216 
L 311.549584 118.519219 
L 309.028267 114.723941 
L 307.919016 113.143219 
L 305.420994 109.932727 
L 301.813722 105.736768 
L 301.22105 105.079219 
L 298.206449 101.973378 
L 294.599176 98.562286 
L 290.991903 95.440728 
L 287.384631 92.572785 
L 283.777358 89.931115 
L 280.170085 87.495379 
L 276.562813 85.251134 
L 272.95554 83.189085 
L 268.509609 80.887219 
L 265.740994 79.557979 
L 262.133722 77.988063 
L 258.526449 76.556442 
L 254.919176 75.28415 
L 251.311903 74.140374 
L 246.327929 72.823219 
L 244.097358 72.286632 
L 240.490085 71.555004 
L 236.882813 70.960688 
L 233.27554 70.4981 
L 229.206172 70.135219 
L 226.060994 69.943257 
L 222.453722 69.848282 
L 218.846449 69.876678 
L 213.808917 70.135219 
L 211.631903 70.29315 
L 208.024631 70.672467 
L 204.417358 71.17048 
L 200.810085 71.789246 
L 193.59554 73.381986 
L 189.988267 74.349678 
L 182.773722 76.654419 
L 175.559176 79.458857 
L 171.951903 81.064644 
L 166.853363 83.575219 
L 161.951605 86.263219 
L 161.130085 86.736487 
L 157.522813 88.955915 
L 153.520033 91.639219 
L 149.850969 94.327219 
L 146.483847 97.015219 
L 143.093722 99.97288 
L 139.486449 103.450384 
L 135.879176 107.34078 
L 135.503885 107.767219 
L 132.271903 111.790715 
L 131.258347 113.143219 
L 128.664631 117.013043 
L 127.723502 118.519219 
L 126.20095 121.207219 
L 124.839335 123.895219 
L 123.613668 126.583219 
L 122.540806 129.271219 
L 121.450085 132.509448 
L 120.808787 134.647219 
L 120.13731 137.335219 
L 119.597661 140.023219 
L 119.185518 142.711219 
L 118.89737 145.399219 
L 118.730479 148.087219 
L 118.682856 150.775219 
L 118.753247 153.463219 
L 118.941128 156.151219 
L 119.246715 158.839219 
L 119.670991 161.527219 
L 120.215732 164.215219 
L 121.450085 168.82941 
L 121.673416 169.591219 
L 122.580477 172.279219 
L 123.621812 174.967219 
L 125.057358 178.177826 
L 126.120046 180.343219 
L 128.664631 184.81688 
L 129.221408 185.719219 
L 132.271903 190.10765 
L 133.022811 191.095219 
L 135.879176 194.516256 
L 139.486449 198.272337 
L 140.42581 199.159219 
L 143.496287 201.847219 
L 146.981172 204.535219 
L 151.003416 207.223219 
L 155.753038 209.911219 
L 157.522813 210.811883 
L 161.560951 212.599219 
L 164.737358 213.829591 
L 169.304639 215.287219 
L 171.951903 216.023744 
L 175.559176 216.855703 
L 179.166449 217.522125 
L 182.773722 218.038804 
L 182.773722 218.038804 
" style="fill:none;stroke:#000000;stroke-dasharray:5.55,2.4;stroke-dashoffset:0;stroke-opacity:0.5;stroke-width:1.5;"/>
   </g>
   <g id="LineCollection_2">
    <path clip-path="url(#p9bdae29f65)" d="M 197.202813 202.053528 
L 200.810085 202.224857 
L 204.417358 202.257429 
L 208.024631 202.157722 
L 212.495715 201.847219 
L 215.239176 201.581735 
L 218.846449 201.113313 
L 222.453722 200.529161 
L 229.668267 199.021221 
L 236.882813 197.05787 
L 240.490085 195.90347 
L 246.308754 193.783219 
L 251.311903 191.706641 
L 254.919176 190.037766 
L 258.526449 188.226271 
L 263.029724 185.719219 
L 267.347441 183.031219 
L 271.210146 180.343219 
L 274.66939 177.655219 
L 277.764727 174.967219 
L 280.525424 172.279219 
L 283.777358 168.602704 
L 285.134981 166.903219 
L 287.384631 163.609372 
L 288.639642 161.527219 
L 290.008603 158.839219 
L 291.134155 156.151219 
L 292.032662 153.463219 
L 292.702268 150.775219 
L 293.150709 148.087219 
L 293.384161 145.399219 
L 293.407339 142.711219 
L 293.223575 140.023219 
L 292.834873 137.335219 
L 292.241938 134.647219 
L 290.991903 130.742314 
L 290.443622 129.271219 
L 289.237602 126.583219 
L 287.384631 123.174795 
L 286.181811 121.207219 
L 283.777358 117.813409 
L 282.215499 115.831219 
L 279.85913 113.143219 
L 276.562813 109.836479 
L 272.95554 106.668114 
L 269.348267 103.878268 
L 265.740994 101.405445 
L 262.133722 99.20567 
L 258.05146 97.015219 
L 254.919176 95.519151 
L 251.311903 93.986583 
L 247.704631 92.64612 
L 244.097358 91.482593 
L 240.490085 90.489909 
L 236.882813 89.660532 
L 233.016552 88.951219 
L 229.668267 88.468591 
L 226.060994 88.097861 
L 222.453722 87.873658 
L 218.846449 87.79363 
L 215.239176 87.856235 
L 211.631903 88.060738 
L 208.024631 88.407217 
L 204.105163 88.951219 
L 200.810085 89.528388 
L 197.202813 90.306498 
L 192.237782 91.639219 
L 189.988267 92.317584 
L 184.403785 94.327219 
L 182.773722 94.972685 
L 178.232973 97.015219 
L 173.082665 99.703219 
L 171.951903 100.344672 
L 168.344631 102.572633 
L 164.723664 105.079219 
L 161.130085 107.88282 
L 157.522813 111.083066 
L 153.91554 114.764201 
L 152.957577 115.831219 
L 150.308267 119.093716 
L 148.768567 121.207219 
L 146.700994 124.421676 
L 145.464142 126.583219 
L 144.11135 129.271219 
L 142.942289 131.959219 
L 141.955569 134.647219 
L 141.139693 137.335219 
L 140.490113 140.023219 
L 140.003232 142.711219 
L 139.676384 145.399219 
L 139.50783 148.087219 
L 139.496762 150.775219 
L 139.643324 153.463219 
L 139.948646 156.151219 
L 140.414894 158.839219 
L 141.045336 161.527219 
L 141.84443 164.215219 
L 143.093722 167.554124 
L 143.98341 169.591219 
L 145.345643 172.279219 
L 146.916423 174.967219 
L 148.735136 177.655219 
L 150.806244 180.343219 
L 153.91554 183.78418 
L 157.522813 187.129852 
L 161.130085 189.944082 
L 164.737358 192.331812 
L 168.344631 194.367161 
L 172.843081 196.471219 
L 175.559176 197.559153 
L 180.457015 199.159219 
L 182.773722 199.801745 
L 186.380994 200.620466 
L 189.988267 201.26104 
L 194.845174 201.847219 
L 197.202813 202.053528 
L 197.202813 202.053528 
" style="fill:none;stroke:#000000;stroke-opacity:0.5;stroke-width:1.5;"/>
   </g>
   <g id="LineCollection_3">
    <path clip-path="url(#p9bdae29f65)" d="M 204.417358 185.747136 
L 208.024631 185.846612 
L 211.631903 185.766102 
L 212.294718 185.719219 
L 215.239176 185.50483 
L 218.846449 185.068529 
L 222.453722 184.46403 
L 226.060994 183.695281 
L 228.636513 183.031219 
L 229.668267 182.753473 
L 233.27554 181.616382 
L 236.803786 180.343219 
L 236.882813 180.313118 
L 240.490085 178.771762 
L 242.845865 177.655219 
L 244.097358 177.021767 
L 247.704631 175.020677 
L 247.793761 174.967219 
L 251.311903 172.68514 
L 251.894374 172.279219 
L 254.919176 169.971642 
L 255.38738 169.591219 
L 258.369971 166.903219 
L 258.526449 166.744752 
L 260.892539 164.215219 
L 262.133722 162.692294 
L 263.040346 161.527219 
L 264.827996 158.839219 
L 265.740994 157.185179 
L 266.290664 156.151219 
L 267.433295 153.463219 
L 268.289442 150.775219 
L 268.864425 148.087219 
L 269.162204 145.399219 
L 269.185399 142.711219 
L 268.935287 140.023219 
L 268.41179 137.335219 
L 267.613441 134.647219 
L 266.537332 131.959219 
L 265.740994 130.375813 
L 265.158607 129.271219 
L 263.451442 126.583219 
L 262.133722 124.815927 
L 261.404588 123.895219 
L 258.964112 121.207219 
L 258.526449 120.777975 
L 256.045378 118.519219 
L 254.919176 117.596024 
L 252.569024 115.831219 
L 251.311903 114.969055 
L 248.361388 113.143219 
L 247.704631 112.767406 
L 244.097358 110.928296 
L 243.035452 110.455219 
L 240.490085 109.392981 
L 236.882813 108.111751 
L 235.71748 107.767219 
L 233.27554 107.082731 
L 229.668267 106.276996 
L 226.060994 105.676177 
L 222.453722 105.276076 
L 218.950379 105.079219 
L 218.846449 105.073596 
L 215.239176 105.066265 
L 214.980835 105.079219 
L 211.631903 105.251994 
L 208.024631 105.631403 
L 204.417358 106.204655 
L 200.810085 106.973374 
L 197.845602 107.767219 
L 197.202813 107.94678 
L 193.59554 109.159198 
L 190.315462 110.455219 
L 189.988267 110.59152 
L 186.380994 112.311294 
L 184.83595 113.143219 
L 182.773722 114.327074 
L 180.420355 115.831219 
L 179.166449 116.694441 
L 176.754262 118.519219 
L 175.559176 119.503977 
L 173.656201 121.207219 
L 171.951903 122.88973 
L 171.004418 123.895219 
L 168.735725 126.583219 
L 168.344631 127.106995 
L 166.824873 129.271219 
L 165.192145 131.959219 
L 164.737358 132.841008 
L 163.85217 134.647219 
L 162.769787 137.335219 
L 161.921571 140.023219 
L 161.304924 142.711219 
L 161.130085 143.928338 
L 160.92667 145.399219 
L 160.776808 148.087219 
L 160.849816 150.775219 
L 161.130085 153.300906 
L 161.148977 153.463219 
L 161.699062 156.151219 
L 162.494992 158.839219 
L 163.545114 161.527219 
L 164.737358 163.968373 
L 164.866348 164.215219 
L 166.543283 166.903219 
L 168.344631 169.343011 
L 168.543905 169.591219 
L 171.015015 172.279219 
L 171.951903 173.177591 
L 174.019972 174.967219 
L 175.559176 176.158781 
L 177.739917 177.655219 
L 179.166449 178.543647 
L 182.498009 180.343219 
L 182.773722 180.480105 
L 186.380994 182.018462 
L 189.268054 183.031219 
L 189.988267 183.266681 
L 193.59554 184.221309 
L 197.202813 184.944234 
L 200.810085 185.449224 
L 204.062783 185.719219 
L 204.417358 185.747136 
" style="fill:none;stroke:#000000;stroke-dasharray:5.55,2.4;stroke-dashoffset:0;stroke-opacity:0.5;stroke-width:1.5;"/>
   </g>
   <g id="patch_3">
    <path d="M 38.482813 277.111219 
L 38.482813 10.999219 
" style="fill:none;stroke:#000000;stroke-linecap:square;stroke-linejoin:miter;stroke-width:0.8;"/>
   </g>
   <g id="patch_4">
    <path d="M 395.602813 277.111219 
L 395.602813 10.999219 
" style="fill:none;stroke:#000000;stroke-linecap:square;stroke-linejoin:miter;stroke-width:0.8;"/>
   </g>
   <g id="patch_5">
    <path d="M 38.482813 277.111219 
L 395.602813 277.111219 
" style="fill:none;stroke:#000000;stroke-linecap:square;stroke-linejoin:miter;stroke-width:0.8;"/>
   </g>
   <g id="patch_6">
    <path d="M 38.482813 10.999219 
L 395.602813 10.999219 
" style="fill:none;stroke:#000000;stroke-linecap:square;stroke-linejoin:miter;stroke-width:0.8;"/>
   </g>
  </g>
 </g>
 <defs>
  <clipPath id="p9bdae29f65">
   <rect height="266.112" width="357.12" x="38.482813" y="10.999219"/>
  </clipPath>
 </defs>
</svg>
