<?xml version="1.0" encoding="utf-8" standalone="no"?>
<!DOCTYPE svg PUBLIC "-//W3C//DTD SVG 1.1//EN"
  "http://www.w3.org/Graphics/SVG/1.1/DTD/svg11.dtd">
<!-- Created with matplotlib (https://matplotlib.org/) -->
<svg height="277.314375pt" version="1.1" viewBox="0 0 385.78125 277.314375" width="385.78125pt" xmlns="http://www.w3.org/2000/svg" xmlns:xlink="http://www.w3.org/1999/xlink">
 <defs>
  <style type="text/css">
*{stroke-linecap:butt;stroke-linejoin:round;}
  </style>
 </defs>
 <g id="figure_1">
  <g id="patch_1">
   <path d="M 0 277.314375 
L 385.78125 277.314375 
L 385.78125 0 
L 0 0 
z
" style="fill:none;"/>
  </g>
  <g id="axes_1">
   <g id="patch_2">
    <path d="M 43.78125 239.758125 
L 378.58125 239.758125 
L 378.58125 22.318125 
L 43.78125 22.318125 
z
" style="fill:#ffffff;"/>
   </g>
   <g id="matplotlib.axis_1">
    <g id="xtick_1">
     <g id="line2d_1">
      <defs>
       <path d="M 0 0 
L 0 3.5 
" id="m1a9a69b29f" style="stroke:#000000;stroke-width:0.8;"/>
      </defs>
      <g>
       <use style="stroke:#000000;stroke-width:0.8;" x="58.999432" xlink:href="#m1a9a69b29f" y="239.758125"/>
      </g>
     </g>
     <g id="text_1">
      <!-- 0 -->
      <defs>
       <path d="M 31.78125 66.40625 
Q 24.171875 66.40625 20.328125 58.90625 
Q 16.5 51.421875 16.5 36.375 
Q 16.5 21.390625 20.328125 13.890625 
Q 24.171875 6.390625 31.78125 6.390625 
Q 39.453125 6.390625 43.28125 13.890625 
Q 47.125 21.390625 47.125 36.375 
Q 47.125 51.421875 43.28125 58.90625 
Q 39.453125 66.40625 31.78125 66.40625 
z
M 31.78125 74.21875 
Q 44.046875 74.21875 50.515625 64.515625 
Q 56.984375 54.828125 56.984375 36.375 
Q 56.984375 17.96875 50.515625 8.265625 
Q 44.046875 -1.421875 31.78125 -1.421875 
Q 19.53125 -1.421875 13.0625 8.265625 
Q 6.59375 17.96875 6.59375 36.375 
Q 6.59375 54.828125 13.0625 64.515625 
Q 19.53125 74.21875 31.78125 74.21875 
z
" id="DejaVuSans-48"/>
      </defs>
      <g transform="translate(55.818182 254.356562)scale(0.1 -0.1)">
       <use xlink:href="#DejaVuSans-48"/>
      </g>
     </g>
    </g>
    <g id="xtick_2">
     <g id="line2d_2">
      <g>
       <use style="stroke:#000000;stroke-width:0.8;" x="97.140238" xlink:href="#m1a9a69b29f" y="239.758125"/>
      </g>
     </g>
     <g id="text_2">
      <!-- 500 -->
      <defs>
       <path d="M 10.796875 72.90625 
L 49.515625 72.90625 
L 49.515625 64.59375 
L 19.828125 64.59375 
L 19.828125 46.734375 
Q 21.96875 47.46875 24.109375 47.828125 
Q 26.265625 48.1875 28.421875 48.1875 
Q 40.625 48.1875 47.75 41.5 
Q 54.890625 34.8125 54.890625 23.390625 
Q 54.890625 11.625 47.5625 5.09375 
Q 40.234375 -1.421875 26.90625 -1.421875 
Q 22.3125 -1.421875 17.546875 -0.640625 
Q 12.796875 0.140625 7.71875 1.703125 
L 7.71875 11.625 
Q 12.109375 9.234375 16.796875 8.0625 
Q 21.484375 6.890625 26.703125 6.890625 
Q 35.15625 6.890625 40.078125 11.328125 
Q 45.015625 15.765625 45.015625 23.390625 
Q 45.015625 31 40.078125 35.4375 
Q 35.15625 39.890625 26.703125 39.890625 
Q 22.75 39.890625 18.8125 39.015625 
Q 14.890625 38.140625 10.796875 36.28125 
z
" id="DejaVuSans-53"/>
      </defs>
      <g transform="translate(87.596488 254.356562)scale(0.1 -0.1)">
       <use xlink:href="#DejaVuSans-53"/>
       <use x="63.623047" xlink:href="#DejaVuSans-48"/>
       <use x="127.246094" xlink:href="#DejaVuSans-48"/>
      </g>
     </g>
    </g>
    <g id="xtick_3">
     <g id="line2d_3">
      <g>
       <use style="stroke:#000000;stroke-width:0.8;" x="135.281045" xlink:href="#m1a9a69b29f" y="239.758125"/>
      </g>
     </g>
     <g id="text_3">
      <!-- 1000 -->
      <defs>
       <path d="M 12.40625 8.296875 
L 28.515625 8.296875 
L 28.515625 63.921875 
L 10.984375 60.40625 
L 10.984375 69.390625 
L 28.421875 72.90625 
L 38.28125 72.90625 
L 38.28125 8.296875 
L 54.390625 8.296875 
L 54.390625 0 
L 12.40625 0 
z
" id="DejaVuSans-49"/>
      </defs>
      <g transform="translate(122.556045 254.356562)scale(0.1 -0.1)">
       <use xlink:href="#DejaVuSans-49"/>
       <use x="63.623047" xlink:href="#DejaVuSans-48"/>
       <use x="127.246094" xlink:href="#DejaVuSans-48"/>
       <use x="190.869141" xlink:href="#DejaVuSans-48"/>
      </g>
     </g>
    </g>
    <g id="xtick_4">
     <g id="line2d_4">
      <g>
       <use style="stroke:#000000;stroke-width:0.8;" x="173.421852" xlink:href="#m1a9a69b29f" y="239.758125"/>
      </g>
     </g>
     <g id="text_4">
      <!-- 1500 -->
      <g transform="translate(160.696852 254.356562)scale(0.1 -0.1)">
       <use xlink:href="#DejaVuSans-49"/>
       <use x="63.623047" xlink:href="#DejaVuSans-53"/>
       <use x="127.246094" xlink:href="#DejaVuSans-48"/>
       <use x="190.869141" xlink:href="#DejaVuSans-48"/>
      </g>
     </g>
    </g>
    <g id="xtick_5">
     <g id="line2d_5">
      <g>
       <use style="stroke:#000000;stroke-width:0.8;" x="211.562658" xlink:href="#m1a9a69b29f" y="239.758125"/>
      </g>
     </g>
     <g id="text_5">
      <!-- 2000 -->
      <defs>
       <path d="M 19.1875 8.296875 
L 53.609375 8.296875 
L 53.609375 0 
L 7.328125 0 
L 7.328125 8.296875 
Q 12.9375 14.109375 22.625 23.890625 
Q 32.328125 33.6875 34.8125 36.53125 
Q 39.546875 41.84375 41.421875 45.53125 
Q 43.3125 49.21875 43.3125 52.78125 
Q 43.3125 58.59375 39.234375 62.25 
Q 35.15625 65.921875 28.609375 65.921875 
Q 23.96875 65.921875 18.8125 64.3125 
Q 13.671875 62.703125 7.8125 59.421875 
L 7.8125 69.390625 
Q 13.765625 71.78125 18.9375 73 
Q 24.125 74.21875 28.421875 74.21875 
Q 39.75 74.21875 46.484375 68.546875 
Q 53.21875 62.890625 53.21875 53.421875 
Q 53.21875 48.921875 51.53125 44.890625 
Q 49.859375 40.875 45.40625 35.40625 
Q 44.1875 33.984375 37.640625 27.21875 
Q 31.109375 20.453125 19.1875 8.296875 
z
" id="DejaVuSans-50"/>
      </defs>
      <g transform="translate(198.837658 254.356562)scale(0.1 -0.1)">
       <use xlink:href="#DejaVuSans-50"/>
       <use x="63.623047" xlink:href="#DejaVuSans-48"/>
       <use x="127.246094" xlink:href="#DejaVuSans-48"/>
       <use x="190.869141" xlink:href="#DejaVuSans-48"/>
      </g>
     </g>
    </g>
    <g id="xtick_6">
     <g id="line2d_6">
      <g>
       <use style="stroke:#000000;stroke-width:0.8;" x="249.703465" xlink:href="#m1a9a69b29f" y="239.758125"/>
      </g>
     </g>
     <g id="text_6">
      <!-- 2500 -->
      <g transform="translate(236.978465 254.356562)scale(0.1 -0.1)">
       <use xlink:href="#DejaVuSans-50"/>
       <use x="63.623047" xlink:href="#DejaVuSans-53"/>
       <use x="127.246094" xlink:href="#DejaVuSans-48"/>
       <use x="190.869141" xlink:href="#DejaVuSans-48"/>
      </g>
     </g>
    </g>
    <g id="xtick_7">
     <g id="line2d_7">
      <g>
       <use style="stroke:#000000;stroke-width:0.8;" x="287.844271" xlink:href="#m1a9a69b29f" y="239.758125"/>
      </g>
     </g>
     <g id="text_7">
      <!-- 3000 -->
      <defs>
       <path d="M 40.578125 39.3125 
Q 47.65625 37.796875 51.625 33 
Q 55.609375 28.21875 55.609375 21.1875 
Q 55.609375 10.40625 48.1875 4.484375 
Q 40.765625 -1.421875 27.09375 -1.421875 
Q 22.515625 -1.421875 17.65625 -0.515625 
Q 12.796875 0.390625 7.625 2.203125 
L 7.625 11.71875 
Q 11.71875 9.328125 16.59375 8.109375 
Q 21.484375 6.890625 26.8125 6.890625 
Q 36.078125 6.890625 40.9375 10.546875 
Q 45.796875 14.203125 45.796875 21.1875 
Q 45.796875 27.640625 41.28125 31.265625 
Q 36.765625 34.90625 28.71875 34.90625 
L 20.21875 34.90625 
L 20.21875 43.015625 
L 29.109375 43.015625 
Q 36.375 43.015625 40.234375 45.921875 
Q 44.09375 48.828125 44.09375 54.296875 
Q 44.09375 59.90625 40.109375 62.90625 
Q 36.140625 65.921875 28.71875 65.921875 
Q 24.65625 65.921875 20.015625 65.03125 
Q 15.375 64.15625 9.8125 62.3125 
L 9.8125 71.09375 
Q 15.4375 72.65625 20.34375 73.4375 
Q 25.25 74.21875 29.59375 74.21875 
Q 40.828125 74.21875 47.359375 69.109375 
Q 53.90625 64.015625 53.90625 55.328125 
Q 53.90625 49.265625 50.4375 45.09375 
Q 46.96875 40.921875 40.578125 39.3125 
z
" id="DejaVuSans-51"/>
      </defs>
      <g transform="translate(275.119271 254.356562)scale(0.1 -0.1)">
       <use xlink:href="#DejaVuSans-51"/>
       <use x="63.623047" xlink:href="#DejaVuSans-48"/>
       <use x="127.246094" xlink:href="#DejaVuSans-48"/>
       <use x="190.869141" xlink:href="#DejaVuSans-48"/>
      </g>
     </g>
    </g>
    <g id="xtick_8">
     <g id="line2d_8">
      <g>
       <use style="stroke:#000000;stroke-width:0.8;" x="325.985078" xlink:href="#m1a9a69b29f" y="239.758125"/>
      </g>
     </g>
     <g id="text_8">
      <!-- 3500 -->
      <g transform="translate(313.260078 254.356562)scale(0.1 -0.1)">
       <use xlink:href="#DejaVuSans-51"/>
       <use x="63.623047" xlink:href="#DejaVuSans-53"/>
       <use x="127.246094" xlink:href="#DejaVuSans-48"/>
       <use x="190.869141" xlink:href="#DejaVuSans-48"/>
      </g>
     </g>
    </g>
    <g id="xtick_9">
     <g id="line2d_9">
      <g>
       <use style="stroke:#000000;stroke-width:0.8;" x="364.125884" xlink:href="#m1a9a69b29f" y="239.758125"/>
      </g>
     </g>
     <g id="text_9">
      <!-- 4000 -->
      <defs>
       <path d="M 37.796875 64.3125 
L 12.890625 25.390625 
L 37.796875 25.390625 
z
M 35.203125 72.90625 
L 47.609375 72.90625 
L 47.609375 25.390625 
L 58.015625 25.390625 
L 58.015625 17.1875 
L 47.609375 17.1875 
L 47.609375 0 
L 37.796875 0 
L 37.796875 17.1875 
L 4.890625 17.1875 
L 4.890625 26.703125 
z
" id="DejaVuSans-52"/>
      </defs>
      <g transform="translate(351.400884 254.356562)scale(0.1 -0.1)">
       <use xlink:href="#DejaVuSans-52"/>
       <use x="63.623047" xlink:href="#DejaVuSans-48"/>
       <use x="127.246094" xlink:href="#DejaVuSans-48"/>
       <use x="190.869141" xlink:href="#DejaVuSans-48"/>
      </g>
     </g>
    </g>
    <g id="text_10">
     <!-- count -->
     <defs>
      <path d="M 48.78125 52.59375 
L 48.78125 44.1875 
Q 44.96875 46.296875 41.140625 47.34375 
Q 37.3125 48.390625 33.40625 48.390625 
Q 24.65625 48.390625 19.8125 42.84375 
Q 14.984375 37.3125 14.984375 27.296875 
Q 14.984375 17.28125 19.8125 11.734375 
Q 24.65625 6.203125 33.40625 6.203125 
Q 37.3125 6.203125 41.140625 7.25 
Q 44.96875 8.296875 48.78125 10.40625 
L 48.78125 2.09375 
Q 45.015625 0.34375 40.984375 -0.53125 
Q 36.96875 -1.421875 32.421875 -1.421875 
Q 20.0625 -1.421875 12.78125 6.34375 
Q 5.515625 14.109375 5.515625 27.296875 
Q 5.515625 40.671875 12.859375 48.328125 
Q 20.21875 56 33.015625 56 
Q 37.15625 56 41.109375 55.140625 
Q 45.0625 54.296875 48.78125 52.59375 
z
" id="DejaVuSans-99"/>
      <path d="M 30.609375 48.390625 
Q 23.390625 48.390625 19.1875 42.75 
Q 14.984375 37.109375 14.984375 27.296875 
Q 14.984375 17.484375 19.15625 11.84375 
Q 23.34375 6.203125 30.609375 6.203125 
Q 37.796875 6.203125 41.984375 11.859375 
Q 46.1875 17.53125 46.1875 27.296875 
Q 46.1875 37.015625 41.984375 42.703125 
Q 37.796875 48.390625 30.609375 48.390625 
z
M 30.609375 56 
Q 42.328125 56 49.015625 48.375 
Q 55.71875 40.765625 55.71875 27.296875 
Q 55.71875 13.875 49.015625 6.21875 
Q 42.328125 -1.421875 30.609375 -1.421875 
Q 18.84375 -1.421875 12.171875 6.21875 
Q 5.515625 13.875 5.515625 27.296875 
Q 5.515625 40.765625 12.171875 48.375 
Q 18.84375 56 30.609375 56 
z
" id="DejaVuSans-111"/>
      <path d="M 8.5 21.578125 
L 8.5 54.6875 
L 17.484375 54.6875 
L 17.484375 21.921875 
Q 17.484375 14.15625 20.5 10.265625 
Q 23.53125 6.390625 29.59375 6.390625 
Q 36.859375 6.390625 41.078125 11.03125 
Q 45.3125 15.671875 45.3125 23.6875 
L 45.3125 54.6875 
L 54.296875 54.6875 
L 54.296875 0 
L 45.3125 0 
L 45.3125 8.40625 
Q 42.046875 3.421875 37.71875 1 
Q 33.40625 -1.421875 27.6875 -1.421875 
Q 18.265625 -1.421875 13.375 4.4375 
Q 8.5 10.296875 8.5 21.578125 
z
M 31.109375 56 
z
" id="DejaVuSans-117"/>
      <path d="M 54.890625 33.015625 
L 54.890625 0 
L 45.90625 0 
L 45.90625 32.71875 
Q 45.90625 40.484375 42.875 44.328125 
Q 39.84375 48.1875 33.796875 48.1875 
Q 26.515625 48.1875 22.3125 43.546875 
Q 18.109375 38.921875 18.109375 30.90625 
L 18.109375 0 
L 9.078125 0 
L 9.078125 54.6875 
L 18.109375 54.6875 
L 18.109375 46.1875 
Q 21.34375 51.125 25.703125 53.5625 
Q 30.078125 56 35.796875 56 
Q 45.21875 56 50.046875 50.171875 
Q 54.890625 44.34375 54.890625 33.015625 
z
" id="DejaVuSans-110"/>
      <path d="M 18.3125 70.21875 
L 18.3125 54.6875 
L 36.8125 54.6875 
L 36.8125 47.703125 
L 18.3125 47.703125 
L 18.3125 18.015625 
Q 18.3125 11.328125 20.140625 9.421875 
Q 21.96875 7.515625 27.59375 7.515625 
L 36.8125 7.515625 
L 36.8125 0 
L 27.59375 0 
Q 17.1875 0 13.234375 3.875 
Q 9.28125 7.765625 9.28125 18.015625 
L 9.28125 47.703125 
L 2.6875 47.703125 
L 2.6875 54.6875 
L 9.28125 54.6875 
L 9.28125 70.21875 
z
" id="DejaVuSans-116"/>
     </defs>
     <g transform="translate(197.075 268.034687)scale(0.1 -0.1)">
      <use xlink:href="#DejaVuSans-99"/>
      <use x="54.980469" xlink:href="#DejaVuSans-111"/>
      <use x="116.162109" xlink:href="#DejaVuSans-117"/>
      <use x="179.541016" xlink:href="#DejaVuSans-110"/>
      <use x="242.919922" xlink:href="#DejaVuSans-116"/>
     </g>
    </g>
   </g>
   <g id="matplotlib.axis_2">
    <g id="ytick_1">
     <g id="line2d_10">
      <defs>
       <path d="M 0 0 
L -3.5 0 
" id="mc7a9b25d25" style="stroke:#000000;stroke-width:0.8;"/>
      </defs>
      <g>
       <use style="stroke:#000000;stroke-width:0.8;" x="43.78125" xlink:href="#mc7a9b25d25" y="239.758125"/>
      </g>
     </g>
     <g id="text_11">
      <!-- 0.0 -->
      <defs>
       <path d="M 10.6875 12.40625 
L 21 12.40625 
L 21 0 
L 10.6875 0 
z
" id="DejaVuSans-46"/>
      </defs>
      <g transform="translate(20.878125 243.557344)scale(0.1 -0.1)">
       <use xlink:href="#DejaVuSans-48"/>
       <use x="63.623047" xlink:href="#DejaVuSans-46"/>
       <use x="95.410156" xlink:href="#DejaVuSans-48"/>
      </g>
     </g>
    </g>
    <g id="ytick_2">
     <g id="line2d_11">
      <g>
       <use style="stroke:#000000;stroke-width:0.8;" x="43.78125" xlink:href="#mc7a9b25d25" y="196.270125"/>
      </g>
     </g>
     <g id="text_12">
      <!-- 0.2 -->
      <g transform="translate(20.878125 200.069344)scale(0.1 -0.1)">
       <use xlink:href="#DejaVuSans-48"/>
       <use x="63.623047" xlink:href="#DejaVuSans-46"/>
       <use x="95.410156" xlink:href="#DejaVuSans-50"/>
      </g>
     </g>
    </g>
    <g id="ytick_3">
     <g id="line2d_12">
      <g>
       <use style="stroke:#000000;stroke-width:0.8;" x="43.78125" xlink:href="#mc7a9b25d25" y="152.782125"/>
      </g>
     </g>
     <g id="text_13">
      <!-- 0.4 -->
      <g transform="translate(20.878125 156.581344)scale(0.1 -0.1)">
       <use xlink:href="#DejaVuSans-48"/>
       <use x="63.623047" xlink:href="#DejaVuSans-46"/>
       <use x="95.410156" xlink:href="#DejaVuSans-52"/>
      </g>
     </g>
    </g>
    <g id="ytick_4">
     <g id="line2d_13">
      <g>
       <use style="stroke:#000000;stroke-width:0.8;" x="43.78125" xlink:href="#mc7a9b25d25" y="109.294125"/>
      </g>
     </g>
     <g id="text_14">
      <!-- 0.6 -->
      <defs>
       <path d="M 33.015625 40.375 
Q 26.375 40.375 22.484375 35.828125 
Q 18.609375 31.296875 18.609375 23.390625 
Q 18.609375 15.53125 22.484375 10.953125 
Q 26.375 6.390625 33.015625 6.390625 
Q 39.65625 6.390625 43.53125 10.953125 
Q 47.40625 15.53125 47.40625 23.390625 
Q 47.40625 31.296875 43.53125 35.828125 
Q 39.65625 40.375 33.015625 40.375 
z
M 52.59375 71.296875 
L 52.59375 62.3125 
Q 48.875 64.0625 45.09375 64.984375 
Q 41.3125 65.921875 37.59375 65.921875 
Q 27.828125 65.921875 22.671875 59.328125 
Q 17.53125 52.734375 16.796875 39.40625 
Q 19.671875 43.65625 24.015625 45.921875 
Q 28.375 48.1875 33.59375 48.1875 
Q 44.578125 48.1875 50.953125 41.515625 
Q 57.328125 34.859375 57.328125 23.390625 
Q 57.328125 12.15625 50.6875 5.359375 
Q 44.046875 -1.421875 33.015625 -1.421875 
Q 20.359375 -1.421875 13.671875 8.265625 
Q 6.984375 17.96875 6.984375 36.375 
Q 6.984375 53.65625 15.1875 63.9375 
Q 23.390625 74.21875 37.203125 74.21875 
Q 40.921875 74.21875 44.703125 73.484375 
Q 48.484375 72.75 52.59375 71.296875 
z
" id="DejaVuSans-54"/>
      </defs>
      <g transform="translate(20.878125 113.093344)scale(0.1 -0.1)">
       <use xlink:href="#DejaVuSans-48"/>
       <use x="63.623047" xlink:href="#DejaVuSans-46"/>
       <use x="95.410156" xlink:href="#DejaVuSans-54"/>
      </g>
     </g>
    </g>
    <g id="ytick_5">
     <g id="line2d_14">
      <g>
       <use style="stroke:#000000;stroke-width:0.8;" x="43.78125" xlink:href="#mc7a9b25d25" y="65.806125"/>
      </g>
     </g>
     <g id="text_15">
      <!-- 0.8 -->
      <defs>
       <path d="M 31.78125 34.625 
Q 24.75 34.625 20.71875 30.859375 
Q 16.703125 27.09375 16.703125 20.515625 
Q 16.703125 13.921875 20.71875 10.15625 
Q 24.75 6.390625 31.78125 6.390625 
Q 38.8125 6.390625 42.859375 10.171875 
Q 46.921875 13.96875 46.921875 20.515625 
Q 46.921875 27.09375 42.890625 30.859375 
Q 38.875 34.625 31.78125 34.625 
z
M 21.921875 38.8125 
Q 15.578125 40.375 12.03125 44.71875 
Q 8.5 49.078125 8.5 55.328125 
Q 8.5 64.0625 14.71875 69.140625 
Q 20.953125 74.21875 31.78125 74.21875 
Q 42.671875 74.21875 48.875 69.140625 
Q 55.078125 64.0625 55.078125 55.328125 
Q 55.078125 49.078125 51.53125 44.71875 
Q 48 40.375 41.703125 38.8125 
Q 48.828125 37.15625 52.796875 32.3125 
Q 56.78125 27.484375 56.78125 20.515625 
Q 56.78125 9.90625 50.3125 4.234375 
Q 43.84375 -1.421875 31.78125 -1.421875 
Q 19.734375 -1.421875 13.25 4.234375 
Q 6.78125 9.90625 6.78125 20.515625 
Q 6.78125 27.484375 10.78125 32.3125 
Q 14.796875 37.15625 21.921875 38.8125 
z
M 18.3125 54.390625 
Q 18.3125 48.734375 21.84375 45.5625 
Q 25.390625 42.390625 31.78125 42.390625 
Q 38.140625 42.390625 41.71875 45.5625 
Q 45.3125 48.734375 45.3125 54.390625 
Q 45.3125 60.0625 41.71875 63.234375 
Q 38.140625 66.40625 31.78125 66.40625 
Q 25.390625 66.40625 21.84375 63.234375 
Q 18.3125 60.0625 18.3125 54.390625 
z
" id="DejaVuSans-56"/>
      </defs>
      <g transform="translate(20.878125 69.605344)scale(0.1 -0.1)">
       <use xlink:href="#DejaVuSans-48"/>
       <use x="63.623047" xlink:href="#DejaVuSans-46"/>
       <use x="95.410156" xlink:href="#DejaVuSans-56"/>
      </g>
     </g>
    </g>
    <g id="ytick_6">
     <g id="line2d_15">
      <g>
       <use style="stroke:#000000;stroke-width:0.8;" x="43.78125" xlink:href="#mc7a9b25d25" y="22.318125"/>
      </g>
     </g>
     <g id="text_16">
      <!-- 1.0 -->
      <g transform="translate(20.878125 26.117344)scale(0.1 -0.1)">
       <use xlink:href="#DejaVuSans-49"/>
       <use x="63.623047" xlink:href="#DejaVuSans-46"/>
       <use x="95.410156" xlink:href="#DejaVuSans-48"/>
      </g>
     </g>
    </g>
    <g id="text_17">
     <!-- accuracy -->
     <defs>
      <path d="M 34.28125 27.484375 
Q 23.390625 27.484375 19.1875 25 
Q 14.984375 22.515625 14.984375 16.5 
Q 14.984375 11.71875 18.140625 8.90625 
Q 21.296875 6.109375 26.703125 6.109375 
Q 34.1875 6.109375 38.703125 11.40625 
Q 43.21875 16.703125 43.21875 25.484375 
L 43.21875 27.484375 
z
M 52.203125 31.203125 
L 52.203125 0 
L 43.21875 0 
L 43.21875 8.296875 
Q 40.140625 3.328125 35.546875 0.953125 
Q 30.953125 -1.421875 24.3125 -1.421875 
Q 15.921875 -1.421875 10.953125 3.296875 
Q 6 8.015625 6 15.921875 
Q 6 25.140625 12.171875 29.828125 
Q 18.359375 34.515625 30.609375 34.515625 
L 43.21875 34.515625 
L 43.21875 35.40625 
Q 43.21875 41.609375 39.140625 45 
Q 35.0625 48.390625 27.6875 48.390625 
Q 23 48.390625 18.546875 47.265625 
Q 14.109375 46.140625 10.015625 43.890625 
L 10.015625 52.203125 
Q 14.9375 54.109375 19.578125 55.046875 
Q 24.21875 56 28.609375 56 
Q 40.484375 56 46.34375 49.84375 
Q 52.203125 43.703125 52.203125 31.203125 
z
" id="DejaVuSans-97"/>
      <path d="M 41.109375 46.296875 
Q 39.59375 47.171875 37.8125 47.578125 
Q 36.03125 48 33.890625 48 
Q 26.265625 48 22.1875 43.046875 
Q 18.109375 38.09375 18.109375 28.8125 
L 18.109375 0 
L 9.078125 0 
L 9.078125 54.6875 
L 18.109375 54.6875 
L 18.109375 46.1875 
Q 20.953125 51.171875 25.484375 53.578125 
Q 30.03125 56 36.53125 56 
Q 37.453125 56 38.578125 55.875 
Q 39.703125 55.765625 41.0625 55.515625 
z
" id="DejaVuSans-114"/>
      <path d="M 32.171875 -5.078125 
Q 28.375 -14.84375 24.75 -17.8125 
Q 21.140625 -20.796875 15.09375 -20.796875 
L 7.90625 -20.796875 
L 7.90625 -13.28125 
L 13.1875 -13.28125 
Q 16.890625 -13.28125 18.9375 -11.515625 
Q 21 -9.765625 23.484375 -3.21875 
L 25.09375 0.875 
L 2.984375 54.6875 
L 12.5 54.6875 
L 29.59375 11.921875 
L 46.6875 54.6875 
L 56.203125 54.6875 
z
" id="DejaVuSans-121"/>
     </defs>
     <g transform="translate(14.798438 153.5975)rotate(-90)scale(0.1 -0.1)">
      <use xlink:href="#DejaVuSans-97"/>
      <use x="61.279297" xlink:href="#DejaVuSans-99"/>
      <use x="116.259766" xlink:href="#DejaVuSans-99"/>
      <use x="171.240234" xlink:href="#DejaVuSans-117"/>
      <use x="234.619141" xlink:href="#DejaVuSans-114"/>
      <use x="275.732422" xlink:href="#DejaVuSans-97"/>
      <use x="337.011719" xlink:href="#DejaVuSans-99"/>
      <use x="391.992188" xlink:href="#DejaVuSans-121"/>
     </g>
    </g>
   </g>
   <g id="line2d_16">
    <path clip-path="url(#pdc947c9ed3)" d="M 58.999432 219.463725 
L 60.525064 218.014125 
L 61.28788 215.114925 
L 62.050696 210.041325 
L 63.576329 189.022125 
L 64.339145 186.122925 
L 65.101961 181.049325 
L 65.864777 177.425325 
L 67.390409 171.626925 
L 68.153225 169.452525 
L 68.916042 168.727725 
L 69.678858 164.378925 
L 70.441674 162.204525 
L 71.20449 159.305325 
L 71.967306 160.030125 
L 72.730122 157.855725 
L 73.492938 158.580525 
L 75.018571 155.681325 
L 76.544203 151.332525 
L 77.307019 152.057325 
L 78.069835 152.057325 
L 78.832651 151.332525 
L 79.595467 149.158125 
L 80.358283 150.607725 
L 81.1211 146.983725 
L 81.883916 144.809325 
L 83.409548 144.809325 
L 84.172364 142.634925 
L 84.93518 141.910125 
L 85.697996 142.634925 
L 86.460813 141.185325 
L 87.223629 139.010925 
L 87.986445 138.286125 
L 88.749261 136.836525 
L 89.512077 133.937325 
L 90.274893 133.212525 
L 91.037709 129.588525 
L 91.800525 126.689325 
L 92.563342 125.964525 
L 93.326158 124.514925 
L 94.088974 123.790125 
L 94.85179 122.340525 
L 95.614606 122.340525 
L 96.377422 120.166125 
L 97.140238 123.790125 
L 97.903055 121.615725 
L 98.665871 116.542125 
L 99.428687 115.092525 
L 100.191503 112.193325 
L 100.954319 112.193325 
L 101.717135 110.018925 
L 102.479951 108.569325 
L 103.242767 103.495725 
L 104.005584 103.495725 
L 104.7684 106.394925 
L 105.531216 103.495725 
L 106.294032 101.321325 
L 107.056848 96.247725 
L 108.58248 94.798125 
L 109.345296 96.247725 
L 110.108113 93.348525 
L 110.870929 93.348525 
L 112.396561 86.100525 
L 113.159377 88.274925 
L 114.685009 85.375725 
L 116.210642 83.926125 
L 116.973458 84.650925 
L 117.736274 82.476525 
L 118.49909 81.751725 
L 119.261906 80.302125 
L 120.024722 81.751725 
L 121.550355 80.302125 
L 123.075987 80.302125 
L 123.838803 79.577325 
L 124.601619 77.402925 
L 125.364435 78.127725 
L 126.127251 76.678125 
L 126.890067 73.054125 
L 127.652884 73.778925 
L 129.941332 71.604525 
L 130.704148 72.329325 
L 131.466964 69.430125 
L 132.22978 70.154925 
L 133.755413 70.154925 
L 134.518229 69.430125 
L 135.281045 67.980525 
L 136.043861 69.430125 
L 136.806677 65.806125 
L 137.569493 66.530925 
L 138.332309 65.081325 
L 139.095126 65.081325 
L 139.857942 64.356525 
L 140.620758 64.356525 
L 143.672022 61.457325 
L 144.434839 61.457325 
L 146.723287 59.282925 
L 147.486103 57.833325 
L 148.248919 57.108525 
L 149.011735 57.108525 
L 149.774551 53.484525 
L 150.537368 57.108525 
L 151.300184 53.484525 
L 152.063 54.209325 
L 152.825816 53.484525 
L 153.588632 52.034925 
L 154.351448 51.310125 
L 155.87708 51.310125 
L 156.639897 49.860525 
L 157.402713 46.961325 
L 159.691161 46.961325 
L 160.453977 46.236525 
L 161.97961 43.337325 
L 162.742426 45.511725 
L 163.505242 44.062125 
L 164.268058 43.337325 
L 165.030874 44.786925 
L 165.79369 39.713325 
L 166.556506 39.713325 
L 168.844955 37.538925 
L 171.133403 37.538925 
L 171.896219 35.364525 
L 172.659035 36.814125 
L 173.421852 34.639725 
L 174.947484 34.639725 
L 175.7103 33.190125 
L 176.473116 32.465325 
L 177.235932 35.364525 
L 177.998748 36.089325 
L 178.761564 33.914925 
L 179.524381 34.639725 
L 181.812829 32.465325 
L 183.338461 32.465325 
L 184.101277 30.290925 
L 184.864093 31.015725 
L 185.62691 32.465325 
L 186.389726 32.465325 
L 187.152542 28.841325 
L 187.915358 30.290925 
L 188.678174 29.566125 
L 189.44099 30.290925 
L 190.966623 27.391725 
L 191.729439 26.666925 
L 192.492255 27.391725 
L 193.255071 25.217325 
L 194.017887 26.666925 
L 194.780703 26.666925 
L 195.543519 24.492525 
L 196.306335 26.666925 
L 197.831968 25.217325 
L 198.594784 25.942125 
L 199.3576 25.942125 
L 200.120416 24.492525 
L 206.222945 24.492525 
L 206.985761 25.217325 
L 207.748577 24.492525 
L 219.190819 24.492525 
L 219.953636 23.767725 
L 220.716452 24.492525 
L 221.479268 23.767725 
L 222.242084 23.767725 
L 223.0049 23.042925 
L 223.767716 23.767725 
L 225.293348 23.767725 
L 226.056165 23.042925 
L 229.107429 23.042925 
L 229.870245 22.318125 
L 230.633061 23.042925 
L 235.972774 23.042925 
L 236.73559 22.318125 
L 237.498407 23.042925 
L 238.261223 22.318125 
L 239.024039 23.042925 
L 239.786855 22.318125 
L 363.363068 22.318125 
L 363.363068 22.318125 
" style="fill:none;stroke:#1f77b4;stroke-linecap:square;stroke-width:1.5;"/>
   </g>
   <g id="line2d_17">
    <path clip-path="url(#pdc947c9ed3)" d="M 58.999432 216.013677 
L 59.762248 214.469853 
L 60.525064 213.904509 
L 62.050696 206.576781 
L 64.339145 193.573869 
L 65.864777 189.485997 
L 66.627593 188.050893 
L 67.390409 185.593821 
L 68.153225 185.137197 
L 68.916042 182.962797 
L 69.678858 181.832109 
L 70.441674 179.483757 
L 71.20449 177.679005 
L 71.967306 176.744013 
L 72.730122 175.482861 
L 73.492938 175.395885 
L 74.255754 175.156701 
L 75.781387 171.286269 
L 76.544203 170.633949 
L 77.307019 168.829197 
L 78.069835 168.763965 
L 78.832651 168.133389 
L 79.595467 166.263405 
L 81.1211 163.654125 
L 81.883916 160.892637 
L 82.646732 160.870893 
L 83.409548 158.500797 
L 84.172364 158.370333 
L 84.93518 158.761725 
L 86.460813 157.478829 
L 87.223629 155.652333 
L 87.986445 155.478381 
L 88.749261 156.021981 
L 89.512077 154.586877 
L 91.037709 151.107837 
L 91.800525 150.064125 
L 92.563342 149.411805 
L 93.326158 148.085421 
L 94.088974 148.563789 
L 94.85179 146.541597 
L 95.614606 145.802301 
L 96.377422 143.366973 
L 97.140238 144.628125 
L 97.903055 141.823149 
L 98.665871 140.996877 
L 99.428687 139.192125 
L 100.191503 137.822253 
L 100.954319 135.147741 
L 102.479951 131.799165 
L 103.242767 129.559533 
L 104.7684 128.885469 
L 105.531216 127.080717 
L 106.294032 124.775853 
L 107.056848 121.122861 
L 108.58248 118.056957 
L 109.345296 118.817997 
L 110.108113 116.926269 
L 110.870929 115.839069 
L 112.396561 112.794909 
L 113.159377 112.360029 
L 114.685009 110.076909 
L 115.447826 108.946221 
L 116.210642 108.446109 
L 117.736274 106.554381 
L 118.49909 107.641581 
L 119.261906 106.706589 
L 120.024722 106.793565 
L 120.787538 107.228445 
L 121.550355 106.315197 
L 122.313171 106.315197 
L 123.075987 106.684845 
L 124.601619 104.314749 
L 125.364435 105.706365 
L 126.127251 103.618941 
L 126.890067 103.097085 
L 127.652884 102.227325 
L 128.4157 102.270813 
L 129.941332 103.010109 
L 130.704148 102.423021 
L 131.466964 100.487805 
L 132.22978 99.270141 
L 132.992597 98.443869 
L 133.755413 99.618045 
L 134.518229 99.922461 
L 135.281045 98.748285 
L 136.043861 98.378637 
L 136.806677 97.748061 
L 137.569493 98.900493 
L 138.332309 96.443421 
L 139.095126 96.965277 
L 139.857942 97.160973 
L 140.620758 96.421677 
L 141.383574 96.769581 
L 142.14639 96.204237 
L 142.909206 96.421677 
L 143.672022 95.204013 
L 145.197655 95.225757 
L 145.960471 94.812621 
L 146.723287 94.073325 
L 147.486103 93.660189 
L 149.011735 93.725421 
L 149.774551 92.964381 
L 150.537368 93.551469 
L 151.300184 93.399261 
L 152.063 92.268573 
L 152.825816 91.855437 
L 154.351448 90.833469 
L 155.114264 91.377069 
L 155.87708 91.355325 
L 157.402713 89.768013 
L 158.928345 90.463821 
L 159.691161 89.854989 
L 160.453977 88.724301 
L 161.216793 89.507085 
L 161.97961 89.376621 
L 162.742426 88.528605 
L 163.505242 88.572093 
L 164.268058 89.093949 
L 165.030874 88.637325 
L 165.79369 86.876061 
L 167.319322 86.810829 
L 168.082139 86.354205 
L 168.844955 86.375949 
L 169.607771 86.028045 
L 170.370587 85.810605 
L 171.133403 86.028045 
L 171.896219 85.397469 
L 172.659035 85.245261 
L 173.421852 84.962589 
L 174.184668 85.158285 
L 174.947484 84.984333 
L 175.7103 84.614685 
L 176.473116 84.788637 
L 177.235932 84.527709 
L 177.998748 84.092829 
L 179.524381 83.679693 
L 180.287197 83.505741 
L 181.050013 84.136317 
L 182.575645 83.897133 
L 183.338461 84.114573 
L 184.101277 83.114349 
L 184.864093 82.679469 
L 185.62691 82.701213 
L 186.389726 82.222845 
L 187.152542 82.375053 
L 187.915358 83.005629 
L 188.678174 82.353309 
L 189.44099 81.874941 
L 190.203806 81.657501 
L 190.966623 81.635757 
L 191.729439 81.113901 
L 192.492255 81.527037 
L 193.255071 81.266109 
L 194.017887 81.396573 
L 194.780703 80.418093 
L 196.306335 80.352861 
L 197.069152 80.592045 
L 197.831968 80.026701 
L 199.3576 80.396349 
L 200.120416 80.439837 
L 200.883232 80.091933 
L 201.646048 80.135421 
L 202.408864 79.374381 
L 203.171681 80.505069 
L 203.934497 79.896237 
L 204.697313 79.439613 
L 205.460129 79.352637 
L 206.222945 79.048221 
L 206.985761 78.591597 
L 207.748577 78.569853 
L 208.511394 78.178461 
L 209.27421 78.787293 
L 210.037026 78.678573 
L 210.799842 77.721837 
L 212.325474 78.026253 
L 213.08829 77.982765 
L 213.851106 77.787069 
L 214.613923 78.156717 
L 215.376739 77.895789 
L 216.139555 78.069741 
L 217.665187 77.895789 
L 218.428003 77.113005 
L 219.190819 77.265213 
L 219.953636 77.026029 
L 220.716452 77.373933 
L 221.479268 77.526141 
L 223.0049 76.308477 
L 223.767716 76.525917 
L 224.530532 76.395453 
L 225.293348 76.656381 
L 226.056165 76.417197 
L 226.818981 76.025805 
L 227.581797 76.112781 
L 228.344613 75.808365 
L 230.633061 75.917085 
L 231.395877 76.199757 
L 232.158694 75.243021 
L 232.92151 75.525693 
L 235.209958 75.699645 
L 235.972774 75.503949 
L 236.73559 75.090813 
L 237.498407 75.329997 
L 238.261223 75.199533 
L 239.024039 75.503949 
L 239.786855 75.395229 
L 240.549671 75.438717 
L 241.312487 75.069069 
L 242.075303 75.264765 
L 242.838119 75.156045 
L 244.363752 75.416973 
L 245.126568 74.895117 
L 245.889384 75.243021 
L 246.6522 75.069069 
L 247.415016 74.721165 
L 248.177832 73.960125 
L 249.703465 74.699421 
L 250.466281 74.873373 
L 251.229097 74.525469 
L 251.991913 74.547213 
L 252.754729 74.851629 
L 253.517545 74.416749 
L 254.280361 74.177565 
L 255.043178 74.395005 
L 255.805994 74.438493 
L 256.56881 73.916637 
L 257.331626 74.264541 
L 258.094442 74.395005 
L 258.857258 74.242797 
L 259.620074 74.308029 
L 260.38289 74.568957 
L 261.145707 74.655933 
L 262.671339 74.003613 
L 263.434155 74.351517 
L 264.959787 74.329773 
L 265.722603 73.677453 
L 266.48542 73.677453 
L 267.248236 73.851405 
L 268.011052 74.329773 
L 268.773868 74.438493 
L 269.536684 74.134077 
L 271.062316 73.916637 
L 271.825132 73.460013 
L 272.587949 73.655709 
L 273.350765 73.503501 
L 274.113581 73.177341 
L 275.639213 73.394781 
L 276.402029 73.112109 
L 277.164845 73.851405 
L 277.927661 73.046877 
L 280.21611 73.720941 
L 282.504558 74.025357 
L 283.267374 73.764429 
L 284.030191 73.960125 
L 284.793007 73.699197 
L 285.555823 73.612221 
L 287.844271 73.786173 
L 288.607087 73.286061 
L 290.895536 73.786173 
L 292.421168 73.590477 
L 293.183984 73.025133 
L 293.9468 72.633741 
L 294.709616 72.416301 
L 295.472433 72.785949 
L 296.235249 72.851181 
L 297.760881 73.351293 
L 298.523697 73.242573 
L 300.049329 73.307805 
L 301.574962 73.025133 
L 302.337778 73.025133 
L 303.100594 72.851181 
L 303.86341 73.438269 
L 304.626226 73.546989 
L 306.151858 72.938157 
L 306.914674 73.003389 
L 307.677491 73.373037 
L 309.203123 72.872925 
L 312.254387 72.742461 
L 313.017204 73.416525 
L 315.305652 73.373037 
L 316.068468 73.264317 
L 316.831284 73.329549 
L 317.5941 73.090365 
L 318.356916 72.720717 
L 319.119733 73.242573 
L 319.882549 72.655485 
L 320.645365 73.003389 
L 321.408181 72.698973 
L 322.170997 72.938157 
L 322.933813 72.981645 
L 323.696629 72.698973 
L 324.459445 73.133853 
L 325.222262 72.829437 
L 328.273526 73.090365 
L 329.036342 72.351069 
L 329.799158 72.416301 
L 330.561975 72.351069 
L 332.087607 72.785949 
L 332.850423 72.438045 
L 334.376055 73.112109 
L 335.138871 72.459789 
L 335.901687 72.394557 
L 336.664504 72.698973 
L 337.42732 72.024909 
L 338.190136 72.003165 
L 338.952952 72.220605 
L 339.715768 72.285837 
L 340.478584 71.959677 
L 341.2414 72.024909 
L 342.004217 71.785725 
L 342.767033 71.872701 
L 343.529849 72.351069 
L 345.055481 72.285837 
L 345.818297 72.481533 
L 347.343929 72.590253 
L 348.106746 72.329325 
L 348.869562 72.829437 
L 349.632378 72.807693 
L 350.395194 72.916413 
L 351.920826 71.894445 
L 352.683642 71.872701 
L 353.446458 71.633517 
L 354.209275 71.785725 
L 355.734907 71.916189 
L 356.497723 72.264093 
L 357.260539 72.198861 
L 358.023355 72.307581 
L 358.786171 72.285837 
L 359.548988 71.916189 
L 362.600252 72.459789 
L 363.363068 72.329325 
L 363.363068 72.329325 
" style="fill:none;stroke:#ff7f0e;stroke-linecap:square;stroke-width:1.5;"/>
   </g>
   <g id="patch_3">
    <path d="M 43.78125 239.758125 
L 43.78125 22.318125 
" style="fill:none;stroke:#000000;stroke-linecap:square;stroke-linejoin:miter;stroke-width:0.8;"/>
   </g>
   <g id="patch_4">
    <path d="M 378.58125 239.758125 
L 378.58125 22.318125 
" style="fill:none;stroke:#000000;stroke-linecap:square;stroke-linejoin:miter;stroke-width:0.8;"/>
   </g>
   <g id="patch_5">
    <path d="M 43.78125 239.758125 
L 378.58125 239.758125 
" style="fill:none;stroke:#000000;stroke-linecap:square;stroke-linejoin:miter;stroke-width:0.8;"/>
   </g>
   <g id="patch_6">
    <path d="M 43.78125 22.318125 
L 378.58125 22.318125 
" style="fill:none;stroke:#000000;stroke-linecap:square;stroke-linejoin:miter;stroke-width:0.8;"/>
   </g>
   <g id="text_18">
    <!-- accuracy -->
    <g transform="translate(184.11 16.318125)scale(0.12 -0.12)">
     <use xlink:href="#DejaVuSans-97"/>
     <use x="61.279297" xlink:href="#DejaVuSans-99"/>
     <use x="116.259766" xlink:href="#DejaVuSans-99"/>
     <use x="171.240234" xlink:href="#DejaVuSans-117"/>
     <use x="234.619141" xlink:href="#DejaVuSans-114"/>
     <use x="275.732422" xlink:href="#DejaVuSans-97"/>
     <use x="337.011719" xlink:href="#DejaVuSans-99"/>
     <use x="391.992188" xlink:href="#DejaVuSans-121"/>
    </g>
   </g>
   <g id="legend_1">
    <g id="patch_7">
     <path d="M 282.38125 234.758125 
L 371.58125 234.758125 
Q 373.58125 234.758125 373.58125 232.758125 
L 373.58125 204.401875 
Q 373.58125 202.401875 371.58125 202.401875 
L 282.38125 202.401875 
Q 280.38125 202.401875 280.38125 204.401875 
L 280.38125 232.758125 
Q 280.38125 234.758125 282.38125 234.758125 
z
" style="fill:#ffffff;opacity:0.8;stroke:#cccccc;stroke-linejoin:miter;"/>
    </g>
    <g id="line2d_18">
     <path d="M 284.38125 210.500312 
L 304.38125 210.500312 
" style="fill:none;stroke:#1f77b4;stroke-linecap:square;stroke-width:1.5;"/>
    </g>
    <g id="line2d_19"/>
    <g id="text_19">
     <!-- training set -->
     <defs>
      <path d="M 9.421875 54.6875 
L 18.40625 54.6875 
L 18.40625 0 
L 9.421875 0 
z
M 9.421875 75.984375 
L 18.40625 75.984375 
L 18.40625 64.59375 
L 9.421875 64.59375 
z
" id="DejaVuSans-105"/>
      <path d="M 45.40625 27.984375 
Q 45.40625 37.75 41.375 43.109375 
Q 37.359375 48.484375 30.078125 48.484375 
Q 22.859375 48.484375 18.828125 43.109375 
Q 14.796875 37.75 14.796875 27.984375 
Q 14.796875 18.265625 18.828125 12.890625 
Q 22.859375 7.515625 30.078125 7.515625 
Q 37.359375 7.515625 41.375 12.890625 
Q 45.40625 18.265625 45.40625 27.984375 
z
M 54.390625 6.78125 
Q 54.390625 -7.171875 48.1875 -13.984375 
Q 42 -20.796875 29.203125 -20.796875 
Q 24.46875 -20.796875 20.265625 -20.09375 
Q 16.0625 -19.390625 12.109375 -17.921875 
L 12.109375 -9.1875 
Q 16.0625 -11.328125 19.921875 -12.34375 
Q 23.78125 -13.375 27.78125 -13.375 
Q 36.625 -13.375 41.015625 -8.765625 
Q 45.40625 -4.15625 45.40625 5.171875 
L 45.40625 9.625 
Q 42.625 4.78125 38.28125 2.390625 
Q 33.9375 0 27.875 0 
Q 17.828125 0 11.671875 7.65625 
Q 5.515625 15.328125 5.515625 27.984375 
Q 5.515625 40.671875 11.671875 48.328125 
Q 17.828125 56 27.875 56 
Q 33.9375 56 38.28125 53.609375 
Q 42.625 51.21875 45.40625 46.390625 
L 45.40625 54.6875 
L 54.390625 54.6875 
z
" id="DejaVuSans-103"/>
      <path id="DejaVuSans-32"/>
      <path d="M 44.28125 53.078125 
L 44.28125 44.578125 
Q 40.484375 46.53125 36.375 47.5 
Q 32.28125 48.484375 27.875 48.484375 
Q 21.1875 48.484375 17.84375 46.4375 
Q 14.5 44.390625 14.5 40.28125 
Q 14.5 37.15625 16.890625 35.375 
Q 19.28125 33.59375 26.515625 31.984375 
L 29.59375 31.296875 
Q 39.15625 29.25 43.1875 25.515625 
Q 47.21875 21.78125 47.21875 15.09375 
Q 47.21875 7.46875 41.1875 3.015625 
Q 35.15625 -1.421875 24.609375 -1.421875 
Q 20.21875 -1.421875 15.453125 -0.5625 
Q 10.6875 0.296875 5.421875 2 
L 5.421875 11.28125 
Q 10.40625 8.6875 15.234375 7.390625 
Q 20.0625 6.109375 24.8125 6.109375 
Q 31.15625 6.109375 34.5625 8.28125 
Q 37.984375 10.453125 37.984375 14.40625 
Q 37.984375 18.0625 35.515625 20.015625 
Q 33.0625 21.96875 24.703125 23.78125 
L 21.578125 24.515625 
Q 13.234375 26.265625 9.515625 29.90625 
Q 5.8125 33.546875 5.8125 39.890625 
Q 5.8125 47.609375 11.28125 51.796875 
Q 16.75 56 26.8125 56 
Q 31.78125 56 36.171875 55.265625 
Q 40.578125 54.546875 44.28125 53.078125 
z
" id="DejaVuSans-115"/>
      <path d="M 56.203125 29.59375 
L 56.203125 25.203125 
L 14.890625 25.203125 
Q 15.484375 15.921875 20.484375 11.0625 
Q 25.484375 6.203125 34.421875 6.203125 
Q 39.59375 6.203125 44.453125 7.46875 
Q 49.3125 8.734375 54.109375 11.28125 
L 54.109375 2.78125 
Q 49.265625 0.734375 44.1875 -0.34375 
Q 39.109375 -1.421875 33.890625 -1.421875 
Q 20.796875 -1.421875 13.15625 6.1875 
Q 5.515625 13.8125 5.515625 26.8125 
Q 5.515625 40.234375 12.765625 48.109375 
Q 20.015625 56 32.328125 56 
Q 43.359375 56 49.78125 48.890625 
Q 56.203125 41.796875 56.203125 29.59375 
z
M 47.21875 32.234375 
Q 47.125 39.59375 43.09375 43.984375 
Q 39.0625 48.390625 32.421875 48.390625 
Q 24.90625 48.390625 20.390625 44.140625 
Q 15.875 39.890625 15.1875 32.171875 
z
" id="DejaVuSans-101"/>
     </defs>
     <g transform="translate(312.38125 214.000312)scale(0.1 -0.1)">
      <use xlink:href="#DejaVuSans-116"/>
      <use x="39.208984" xlink:href="#DejaVuSans-114"/>
      <use x="80.322266" xlink:href="#DejaVuSans-97"/>
      <use x="141.601562" xlink:href="#DejaVuSans-105"/>
      <use x="169.384766" xlink:href="#DejaVuSans-110"/>
      <use x="232.763672" xlink:href="#DejaVuSans-105"/>
      <use x="260.546875" xlink:href="#DejaVuSans-110"/>
      <use x="323.925781" xlink:href="#DejaVuSans-103"/>
      <use x="387.402344" xlink:href="#DejaVuSans-32"/>
      <use x="419.189453" xlink:href="#DejaVuSans-115"/>
      <use x="471.289062" xlink:href="#DejaVuSans-101"/>
      <use x="532.8125" xlink:href="#DejaVuSans-116"/>
     </g>
    </g>
    <g id="line2d_20">
     <path d="M 284.38125 225.178437 
L 304.38125 225.178437 
" style="fill:none;stroke:#ff7f0e;stroke-linecap:square;stroke-width:1.5;"/>
    </g>
    <g id="line2d_21"/>
    <g id="text_20">
     <!-- test set -->
     <g transform="translate(312.38125 228.678437)scale(0.1 -0.1)">
      <use xlink:href="#DejaVuSans-116"/>
      <use x="39.208984" xlink:href="#DejaVuSans-101"/>
      <use x="100.732422" xlink:href="#DejaVuSans-115"/>
      <use x="152.832031" xlink:href="#DejaVuSans-116"/>
      <use x="192.041016" xlink:href="#DejaVuSans-32"/>
      <use x="223.828125" xlink:href="#DejaVuSans-115"/>
      <use x="275.927734" xlink:href="#DejaVuSans-101"/>
      <use x="337.451172" xlink:href="#DejaVuSans-116"/>
     </g>
    </g>
   </g>
  </g>
 </g>
 <defs>
  <clipPath id="pdc947c9ed3">
   <rect height="217.44" width="334.8" x="43.78125" y="22.318125"/>
  </clipPath>
 </defs>
</svg>
