<?xml version="1.0" encoding="utf-8" standalone="no"?>
<!DOCTYPE svg PUBLIC "-//W3C//DTD SVG 1.1//EN"
  "http://www.w3.org/Graphics/SVG/1.1/DTD/svg11.dtd">
<!-- Created with matplotlib (https://matplotlib.org/) -->
<svg height="277.314375pt" version="1.1" viewBox="0 0 385.78125 277.314375" width="385.78125pt" xmlns="http://www.w3.org/2000/svg" xmlns:xlink="http://www.w3.org/1999/xlink">
 <defs>
  <style type="text/css">
*{stroke-linecap:butt;stroke-linejoin:round;}
  </style>
 </defs>
 <g id="figure_1">
  <g id="patch_1">
   <path d="M 0 277.314375 
L 385.78125 277.314375 
L 385.78125 0 
L 0 0 
z
" style="fill:none;"/>
  </g>
  <g id="axes_1">
   <g id="patch_2">
    <path d="M 43.78125 239.758125 
L 378.58125 239.758125 
L 378.58125 22.318125 
L 43.78125 22.318125 
z
" style="fill:#ffffff;"/>
   </g>
   <g id="matplotlib.axis_1">
    <g id="xtick_1">
     <g id="line2d_1">
      <defs>
       <path d="M 0 0 
L 0 3.5 
" id="mc8c70b5e33" style="stroke:#000000;stroke-width:0.8;"/>
      </defs>
      <g>
       <use style="stroke:#000000;stroke-width:0.8;" x="58.999432" xlink:href="#mc8c70b5e33" y="239.758125"/>
      </g>
     </g>
     <g id="text_1">
      <!-- 0 -->
      <defs>
       <path d="M 31.78125 66.40625 
Q 24.171875 66.40625 20.328125 58.90625 
Q 16.5 51.421875 16.5 36.375 
Q 16.5 21.390625 20.328125 13.890625 
Q 24.171875 6.390625 31.78125 6.390625 
Q 39.453125 6.390625 43.28125 13.890625 
Q 47.125 21.390625 47.125 36.375 
Q 47.125 51.421875 43.28125 58.90625 
Q 39.453125 66.40625 31.78125 66.40625 
z
M 31.78125 74.21875 
Q 44.046875 74.21875 50.515625 64.515625 
Q 56.984375 54.828125 56.984375 36.375 
Q 56.984375 17.96875 50.515625 8.265625 
Q 44.046875 -1.421875 31.78125 -1.421875 
Q 19.53125 -1.421875 13.0625 8.265625 
Q 6.59375 17.96875 6.59375 36.375 
Q 6.59375 54.828125 13.0625 64.515625 
Q 19.53125 74.21875 31.78125 74.21875 
z
" id="DejaVuSans-48"/>
      </defs>
      <g transform="translate(55.818182 254.356562)scale(0.1 -0.1)">
       <use xlink:href="#DejaVuSans-48"/>
      </g>
     </g>
    </g>
    <g id="xtick_2">
     <g id="line2d_2">
      <g>
       <use style="stroke:#000000;stroke-width:0.8;" x="109.811391" xlink:href="#mc8c70b5e33" y="239.758125"/>
      </g>
     </g>
     <g id="text_2">
      <!-- 1000 -->
      <defs>
       <path d="M 12.40625 8.296875 
L 28.515625 8.296875 
L 28.515625 63.921875 
L 10.984375 60.40625 
L 10.984375 69.390625 
L 28.421875 72.90625 
L 38.28125 72.90625 
L 38.28125 8.296875 
L 54.390625 8.296875 
L 54.390625 0 
L 12.40625 0 
z
" id="DejaVuSans-49"/>
      </defs>
      <g transform="translate(97.086391 254.356562)scale(0.1 -0.1)">
       <use xlink:href="#DejaVuSans-49"/>
       <use x="63.623047" xlink:href="#DejaVuSans-48"/>
       <use x="127.246094" xlink:href="#DejaVuSans-48"/>
       <use x="190.869141" xlink:href="#DejaVuSans-48"/>
      </g>
     </g>
    </g>
    <g id="xtick_3">
     <g id="line2d_3">
      <g>
       <use style="stroke:#000000;stroke-width:0.8;" x="160.62335" xlink:href="#mc8c70b5e33" y="239.758125"/>
      </g>
     </g>
     <g id="text_3">
      <!-- 2000 -->
      <defs>
       <path d="M 19.1875 8.296875 
L 53.609375 8.296875 
L 53.609375 0 
L 7.328125 0 
L 7.328125 8.296875 
Q 12.9375 14.109375 22.625 23.890625 
Q 32.328125 33.6875 34.8125 36.53125 
Q 39.546875 41.84375 41.421875 45.53125 
Q 43.3125 49.21875 43.3125 52.78125 
Q 43.3125 58.59375 39.234375 62.25 
Q 35.15625 65.921875 28.609375 65.921875 
Q 23.96875 65.921875 18.8125 64.3125 
Q 13.671875 62.703125 7.8125 59.421875 
L 7.8125 69.390625 
Q 13.765625 71.78125 18.9375 73 
Q 24.125 74.21875 28.421875 74.21875 
Q 39.75 74.21875 46.484375 68.546875 
Q 53.21875 62.890625 53.21875 53.421875 
Q 53.21875 48.921875 51.53125 44.890625 
Q 49.859375 40.875 45.40625 35.40625 
Q 44.1875 33.984375 37.640625 27.21875 
Q 31.109375 20.453125 19.1875 8.296875 
z
" id="DejaVuSans-50"/>
      </defs>
      <g transform="translate(147.89835 254.356562)scale(0.1 -0.1)">
       <use xlink:href="#DejaVuSans-50"/>
       <use x="63.623047" xlink:href="#DejaVuSans-48"/>
       <use x="127.246094" xlink:href="#DejaVuSans-48"/>
       <use x="190.869141" xlink:href="#DejaVuSans-48"/>
      </g>
     </g>
    </g>
    <g id="xtick_4">
     <g id="line2d_4">
      <g>
       <use style="stroke:#000000;stroke-width:0.8;" x="211.43531" xlink:href="#mc8c70b5e33" y="239.758125"/>
      </g>
     </g>
     <g id="text_4">
      <!-- 3000 -->
      <defs>
       <path d="M 40.578125 39.3125 
Q 47.65625 37.796875 51.625 33 
Q 55.609375 28.21875 55.609375 21.1875 
Q 55.609375 10.40625 48.1875 4.484375 
Q 40.765625 -1.421875 27.09375 -1.421875 
Q 22.515625 -1.421875 17.65625 -0.515625 
Q 12.796875 0.390625 7.625 2.203125 
L 7.625 11.71875 
Q 11.71875 9.328125 16.59375 8.109375 
Q 21.484375 6.890625 26.8125 6.890625 
Q 36.078125 6.890625 40.9375 10.546875 
Q 45.796875 14.203125 45.796875 21.1875 
Q 45.796875 27.640625 41.28125 31.265625 
Q 36.765625 34.90625 28.71875 34.90625 
L 20.21875 34.90625 
L 20.21875 43.015625 
L 29.109375 43.015625 
Q 36.375 43.015625 40.234375 45.921875 
Q 44.09375 48.828125 44.09375 54.296875 
Q 44.09375 59.90625 40.109375 62.90625 
Q 36.140625 65.921875 28.71875 65.921875 
Q 24.65625 65.921875 20.015625 65.03125 
Q 15.375 64.15625 9.8125 62.3125 
L 9.8125 71.09375 
Q 15.4375 72.65625 20.34375 73.4375 
Q 25.25 74.21875 29.59375 74.21875 
Q 40.828125 74.21875 47.359375 69.109375 
Q 53.90625 64.015625 53.90625 55.328125 
Q 53.90625 49.265625 50.4375 45.09375 
Q 46.96875 40.921875 40.578125 39.3125 
z
" id="DejaVuSans-51"/>
      </defs>
      <g transform="translate(198.71031 254.356562)scale(0.1 -0.1)">
       <use xlink:href="#DejaVuSans-51"/>
       <use x="63.623047" xlink:href="#DejaVuSans-48"/>
       <use x="127.246094" xlink:href="#DejaVuSans-48"/>
       <use x="190.869141" xlink:href="#DejaVuSans-48"/>
      </g>
     </g>
    </g>
    <g id="xtick_5">
     <g id="line2d_5">
      <g>
       <use style="stroke:#000000;stroke-width:0.8;" x="262.247269" xlink:href="#mc8c70b5e33" y="239.758125"/>
      </g>
     </g>
     <g id="text_5">
      <!-- 4000 -->
      <defs>
       <path d="M 37.796875 64.3125 
L 12.890625 25.390625 
L 37.796875 25.390625 
z
M 35.203125 72.90625 
L 47.609375 72.90625 
L 47.609375 25.390625 
L 58.015625 25.390625 
L 58.015625 17.1875 
L 47.609375 17.1875 
L 47.609375 0 
L 37.796875 0 
L 37.796875 17.1875 
L 4.890625 17.1875 
L 4.890625 26.703125 
z
" id="DejaVuSans-52"/>
      </defs>
      <g transform="translate(249.522269 254.356562)scale(0.1 -0.1)">
       <use xlink:href="#DejaVuSans-52"/>
       <use x="63.623047" xlink:href="#DejaVuSans-48"/>
       <use x="127.246094" xlink:href="#DejaVuSans-48"/>
       <use x="190.869141" xlink:href="#DejaVuSans-48"/>
      </g>
     </g>
    </g>
    <g id="xtick_6">
     <g id="line2d_6">
      <g>
       <use style="stroke:#000000;stroke-width:0.8;" x="313.059228" xlink:href="#mc8c70b5e33" y="239.758125"/>
      </g>
     </g>
     <g id="text_6">
      <!-- 5000 -->
      <defs>
       <path d="M 10.796875 72.90625 
L 49.515625 72.90625 
L 49.515625 64.59375 
L 19.828125 64.59375 
L 19.828125 46.734375 
Q 21.96875 47.46875 24.109375 47.828125 
Q 26.265625 48.1875 28.421875 48.1875 
Q 40.625 48.1875 47.75 41.5 
Q 54.890625 34.8125 54.890625 23.390625 
Q 54.890625 11.625 47.5625 5.09375 
Q 40.234375 -1.421875 26.90625 -1.421875 
Q 22.3125 -1.421875 17.546875 -0.640625 
Q 12.796875 0.140625 7.71875 1.703125 
L 7.71875 11.625 
Q 12.109375 9.234375 16.796875 8.0625 
Q 21.484375 6.890625 26.703125 6.890625 
Q 35.15625 6.890625 40.078125 11.328125 
Q 45.015625 15.765625 45.015625 23.390625 
Q 45.015625 31 40.078125 35.4375 
Q 35.15625 39.890625 26.703125 39.890625 
Q 22.75 39.890625 18.8125 39.015625 
Q 14.890625 38.140625 10.796875 36.28125 
z
" id="DejaVuSans-53"/>
      </defs>
      <g transform="translate(300.334228 254.356562)scale(0.1 -0.1)">
       <use xlink:href="#DejaVuSans-53"/>
       <use x="63.623047" xlink:href="#DejaVuSans-48"/>
       <use x="127.246094" xlink:href="#DejaVuSans-48"/>
       <use x="190.869141" xlink:href="#DejaVuSans-48"/>
      </g>
     </g>
    </g>
    <g id="xtick_7">
     <g id="line2d_7">
      <g>
       <use style="stroke:#000000;stroke-width:0.8;" x="363.871188" xlink:href="#mc8c70b5e33" y="239.758125"/>
      </g>
     </g>
     <g id="text_7">
      <!-- 6000 -->
      <defs>
       <path d="M 33.015625 40.375 
Q 26.375 40.375 22.484375 35.828125 
Q 18.609375 31.296875 18.609375 23.390625 
Q 18.609375 15.53125 22.484375 10.953125 
Q 26.375 6.390625 33.015625 6.390625 
Q 39.65625 6.390625 43.53125 10.953125 
Q 47.40625 15.53125 47.40625 23.390625 
Q 47.40625 31.296875 43.53125 35.828125 
Q 39.65625 40.375 33.015625 40.375 
z
M 52.59375 71.296875 
L 52.59375 62.3125 
Q 48.875 64.0625 45.09375 64.984375 
Q 41.3125 65.921875 37.59375 65.921875 
Q 27.828125 65.921875 22.671875 59.328125 
Q 17.53125 52.734375 16.796875 39.40625 
Q 19.671875 43.65625 24.015625 45.921875 
Q 28.375 48.1875 33.59375 48.1875 
Q 44.578125 48.1875 50.953125 41.515625 
Q 57.328125 34.859375 57.328125 23.390625 
Q 57.328125 12.15625 50.6875 5.359375 
Q 44.046875 -1.421875 33.015625 -1.421875 
Q 20.359375 -1.421875 13.671875 8.265625 
Q 6.984375 17.96875 6.984375 36.375 
Q 6.984375 53.65625 15.1875 63.9375 
Q 23.390625 74.21875 37.203125 74.21875 
Q 40.921875 74.21875 44.703125 73.484375 
Q 48.484375 72.75 52.59375 71.296875 
z
" id="DejaVuSans-54"/>
      </defs>
      <g transform="translate(351.146188 254.356562)scale(0.1 -0.1)">
       <use xlink:href="#DejaVuSans-54"/>
       <use x="63.623047" xlink:href="#DejaVuSans-48"/>
       <use x="127.246094" xlink:href="#DejaVuSans-48"/>
       <use x="190.869141" xlink:href="#DejaVuSans-48"/>
      </g>
     </g>
    </g>
    <g id="text_8">
     <!-- count -->
     <defs>
      <path d="M 48.78125 52.59375 
L 48.78125 44.1875 
Q 44.96875 46.296875 41.140625 47.34375 
Q 37.3125 48.390625 33.40625 48.390625 
Q 24.65625 48.390625 19.8125 42.84375 
Q 14.984375 37.3125 14.984375 27.296875 
Q 14.984375 17.28125 19.8125 11.734375 
Q 24.65625 6.203125 33.40625 6.203125 
Q 37.3125 6.203125 41.140625 7.25 
Q 44.96875 8.296875 48.78125 10.40625 
L 48.78125 2.09375 
Q 45.015625 0.34375 40.984375 -0.53125 
Q 36.96875 -1.421875 32.421875 -1.421875 
Q 20.0625 -1.421875 12.78125 6.34375 
Q 5.515625 14.109375 5.515625 27.296875 
Q 5.515625 40.671875 12.859375 48.328125 
Q 20.21875 56 33.015625 56 
Q 37.15625 56 41.109375 55.140625 
Q 45.0625 54.296875 48.78125 52.59375 
z
" id="DejaVuSans-99"/>
      <path d="M 30.609375 48.390625 
Q 23.390625 48.390625 19.1875 42.75 
Q 14.984375 37.109375 14.984375 27.296875 
Q 14.984375 17.484375 19.15625 11.84375 
Q 23.34375 6.203125 30.609375 6.203125 
Q 37.796875 6.203125 41.984375 11.859375 
Q 46.1875 17.53125 46.1875 27.296875 
Q 46.1875 37.015625 41.984375 42.703125 
Q 37.796875 48.390625 30.609375 48.390625 
z
M 30.609375 56 
Q 42.328125 56 49.015625 48.375 
Q 55.71875 40.765625 55.71875 27.296875 
Q 55.71875 13.875 49.015625 6.21875 
Q 42.328125 -1.421875 30.609375 -1.421875 
Q 18.84375 -1.421875 12.171875 6.21875 
Q 5.515625 13.875 5.515625 27.296875 
Q 5.515625 40.765625 12.171875 48.375 
Q 18.84375 56 30.609375 56 
z
" id="DejaVuSans-111"/>
      <path d="M 8.5 21.578125 
L 8.5 54.6875 
L 17.484375 54.6875 
L 17.484375 21.921875 
Q 17.484375 14.15625 20.5 10.265625 
Q 23.53125 6.390625 29.59375 6.390625 
Q 36.859375 6.390625 41.078125 11.03125 
Q 45.3125 15.671875 45.3125 23.6875 
L 45.3125 54.6875 
L 54.296875 54.6875 
L 54.296875 0 
L 45.3125 0 
L 45.3125 8.40625 
Q 42.046875 3.421875 37.71875 1 
Q 33.40625 -1.421875 27.6875 -1.421875 
Q 18.265625 -1.421875 13.375 4.4375 
Q 8.5 10.296875 8.5 21.578125 
z
M 31.109375 56 
z
" id="DejaVuSans-117"/>
      <path d="M 54.890625 33.015625 
L 54.890625 0 
L 45.90625 0 
L 45.90625 32.71875 
Q 45.90625 40.484375 42.875 44.328125 
Q 39.84375 48.1875 33.796875 48.1875 
Q 26.515625 48.1875 22.3125 43.546875 
Q 18.109375 38.921875 18.109375 30.90625 
L 18.109375 0 
L 9.078125 0 
L 9.078125 54.6875 
L 18.109375 54.6875 
L 18.109375 46.1875 
Q 21.34375 51.125 25.703125 53.5625 
Q 30.078125 56 35.796875 56 
Q 45.21875 56 50.046875 50.171875 
Q 54.890625 44.34375 54.890625 33.015625 
z
" id="DejaVuSans-110"/>
      <path d="M 18.3125 70.21875 
L 18.3125 54.6875 
L 36.8125 54.6875 
L 36.8125 47.703125 
L 18.3125 47.703125 
L 18.3125 18.015625 
Q 18.3125 11.328125 20.140625 9.421875 
Q 21.96875 7.515625 27.59375 7.515625 
L 36.8125 7.515625 
L 36.8125 0 
L 27.59375 0 
Q 17.1875 0 13.234375 3.875 
Q 9.28125 7.765625 9.28125 18.015625 
L 9.28125 47.703125 
L 2.6875 47.703125 
L 2.6875 54.6875 
L 9.28125 54.6875 
L 9.28125 70.21875 
z
" id="DejaVuSans-116"/>
     </defs>
     <g transform="translate(197.075 268.034687)scale(0.1 -0.1)">
      <use xlink:href="#DejaVuSans-99"/>
      <use x="54.980469" xlink:href="#DejaVuSans-111"/>
      <use x="116.162109" xlink:href="#DejaVuSans-117"/>
      <use x="179.541016" xlink:href="#DejaVuSans-110"/>
      <use x="242.919922" xlink:href="#DejaVuSans-116"/>
     </g>
    </g>
   </g>
   <g id="matplotlib.axis_2">
    <g id="ytick_1">
     <g id="line2d_8">
      <defs>
       <path d="M 0 0 
L -3.5 0 
" id="m667bd8e5d6" style="stroke:#000000;stroke-width:0.8;"/>
      </defs>
      <g>
       <use style="stroke:#000000;stroke-width:0.8;" x="43.78125" xlink:href="#m667bd8e5d6" y="239.758125"/>
      </g>
     </g>
     <g id="text_9">
      <!-- 0.0 -->
      <defs>
       <path d="M 10.6875 12.40625 
L 21 12.40625 
L 21 0 
L 10.6875 0 
z
" id="DejaVuSans-46"/>
      </defs>
      <g transform="translate(20.878125 243.557344)scale(0.1 -0.1)">
       <use xlink:href="#DejaVuSans-48"/>
       <use x="63.623047" xlink:href="#DejaVuSans-46"/>
       <use x="95.410156" xlink:href="#DejaVuSans-48"/>
      </g>
     </g>
    </g>
    <g id="ytick_2">
     <g id="line2d_9">
      <g>
       <use style="stroke:#000000;stroke-width:0.8;" x="43.78125" xlink:href="#m667bd8e5d6" y="196.270125"/>
      </g>
     </g>
     <g id="text_10">
      <!-- 0.2 -->
      <g transform="translate(20.878125 200.069344)scale(0.1 -0.1)">
       <use xlink:href="#DejaVuSans-48"/>
       <use x="63.623047" xlink:href="#DejaVuSans-46"/>
       <use x="95.410156" xlink:href="#DejaVuSans-50"/>
      </g>
     </g>
    </g>
    <g id="ytick_3">
     <g id="line2d_10">
      <g>
       <use style="stroke:#000000;stroke-width:0.8;" x="43.78125" xlink:href="#m667bd8e5d6" y="152.782125"/>
      </g>
     </g>
     <g id="text_11">
      <!-- 0.4 -->
      <g transform="translate(20.878125 156.581344)scale(0.1 -0.1)">
       <use xlink:href="#DejaVuSans-48"/>
       <use x="63.623047" xlink:href="#DejaVuSans-46"/>
       <use x="95.410156" xlink:href="#DejaVuSans-52"/>
      </g>
     </g>
    </g>
    <g id="ytick_4">
     <g id="line2d_11">
      <g>
       <use style="stroke:#000000;stroke-width:0.8;" x="43.78125" xlink:href="#m667bd8e5d6" y="109.294125"/>
      </g>
     </g>
     <g id="text_12">
      <!-- 0.6 -->
      <g transform="translate(20.878125 113.093344)scale(0.1 -0.1)">
       <use xlink:href="#DejaVuSans-48"/>
       <use x="63.623047" xlink:href="#DejaVuSans-46"/>
       <use x="95.410156" xlink:href="#DejaVuSans-54"/>
      </g>
     </g>
    </g>
    <g id="ytick_5">
     <g id="line2d_12">
      <g>
       <use style="stroke:#000000;stroke-width:0.8;" x="43.78125" xlink:href="#m667bd8e5d6" y="65.806125"/>
      </g>
     </g>
     <g id="text_13">
      <!-- 0.8 -->
      <defs>
       <path d="M 31.78125 34.625 
Q 24.75 34.625 20.71875 30.859375 
Q 16.703125 27.09375 16.703125 20.515625 
Q 16.703125 13.921875 20.71875 10.15625 
Q 24.75 6.390625 31.78125 6.390625 
Q 38.8125 6.390625 42.859375 10.171875 
Q 46.921875 13.96875 46.921875 20.515625 
Q 46.921875 27.09375 42.890625 30.859375 
Q 38.875 34.625 31.78125 34.625 
z
M 21.921875 38.8125 
Q 15.578125 40.375 12.03125 44.71875 
Q 8.5 49.078125 8.5 55.328125 
Q 8.5 64.0625 14.71875 69.140625 
Q 20.953125 74.21875 31.78125 74.21875 
Q 42.671875 74.21875 48.875 69.140625 
Q 55.078125 64.0625 55.078125 55.328125 
Q 55.078125 49.078125 51.53125 44.71875 
Q 48 40.375 41.703125 38.8125 
Q 48.828125 37.15625 52.796875 32.3125 
Q 56.78125 27.484375 56.78125 20.515625 
Q 56.78125 9.90625 50.3125 4.234375 
Q 43.84375 -1.421875 31.78125 -1.421875 
Q 19.734375 -1.421875 13.25 4.234375 
Q 6.78125 9.90625 6.78125 20.515625 
Q 6.78125 27.484375 10.78125 32.3125 
Q 14.796875 37.15625 21.921875 38.8125 
z
M 18.3125 54.390625 
Q 18.3125 48.734375 21.84375 45.5625 
Q 25.390625 42.390625 31.78125 42.390625 
Q 38.140625 42.390625 41.71875 45.5625 
Q 45.3125 48.734375 45.3125 54.390625 
Q 45.3125 60.0625 41.71875 63.234375 
Q 38.140625 66.40625 31.78125 66.40625 
Q 25.390625 66.40625 21.84375 63.234375 
Q 18.3125 60.0625 18.3125 54.390625 
z
" id="DejaVuSans-56"/>
      </defs>
      <g transform="translate(20.878125 69.605344)scale(0.1 -0.1)">
       <use xlink:href="#DejaVuSans-48"/>
       <use x="63.623047" xlink:href="#DejaVuSans-46"/>
       <use x="95.410156" xlink:href="#DejaVuSans-56"/>
      </g>
     </g>
    </g>
    <g id="ytick_6">
     <g id="line2d_13">
      <g>
       <use style="stroke:#000000;stroke-width:0.8;" x="43.78125" xlink:href="#m667bd8e5d6" y="22.318125"/>
      </g>
     </g>
     <g id="text_14">
      <!-- 1.0 -->
      <g transform="translate(20.878125 26.117344)scale(0.1 -0.1)">
       <use xlink:href="#DejaVuSans-49"/>
       <use x="63.623047" xlink:href="#DejaVuSans-46"/>
       <use x="95.410156" xlink:href="#DejaVuSans-48"/>
      </g>
     </g>
    </g>
    <g id="text_15">
     <!-- accuracy -->
     <defs>
      <path d="M 34.28125 27.484375 
Q 23.390625 27.484375 19.1875 25 
Q 14.984375 22.515625 14.984375 16.5 
Q 14.984375 11.71875 18.140625 8.90625 
Q 21.296875 6.109375 26.703125 6.109375 
Q 34.1875 6.109375 38.703125 11.40625 
Q 43.21875 16.703125 43.21875 25.484375 
L 43.21875 27.484375 
z
M 52.203125 31.203125 
L 52.203125 0 
L 43.21875 0 
L 43.21875 8.296875 
Q 40.140625 3.328125 35.546875 0.953125 
Q 30.953125 -1.421875 24.3125 -1.421875 
Q 15.921875 -1.421875 10.953125 3.296875 
Q 6 8.015625 6 15.921875 
Q 6 25.140625 12.171875 29.828125 
Q 18.359375 34.515625 30.609375 34.515625 
L 43.21875 34.515625 
L 43.21875 35.40625 
Q 43.21875 41.609375 39.140625 45 
Q 35.0625 48.390625 27.6875 48.390625 
Q 23 48.390625 18.546875 47.265625 
Q 14.109375 46.140625 10.015625 43.890625 
L 10.015625 52.203125 
Q 14.9375 54.109375 19.578125 55.046875 
Q 24.21875 56 28.609375 56 
Q 40.484375 56 46.34375 49.84375 
Q 52.203125 43.703125 52.203125 31.203125 
z
" id="DejaVuSans-97"/>
      <path d="M 41.109375 46.296875 
Q 39.59375 47.171875 37.8125 47.578125 
Q 36.03125 48 33.890625 48 
Q 26.265625 48 22.1875 43.046875 
Q 18.109375 38.09375 18.109375 28.8125 
L 18.109375 0 
L 9.078125 0 
L 9.078125 54.6875 
L 18.109375 54.6875 
L 18.109375 46.1875 
Q 20.953125 51.171875 25.484375 53.578125 
Q 30.03125 56 36.53125 56 
Q 37.453125 56 38.578125 55.875 
Q 39.703125 55.765625 41.0625 55.515625 
z
" id="DejaVuSans-114"/>
      <path d="M 32.171875 -5.078125 
Q 28.375 -14.84375 24.75 -17.8125 
Q 21.140625 -20.796875 15.09375 -20.796875 
L 7.90625 -20.796875 
L 7.90625 -13.28125 
L 13.1875 -13.28125 
Q 16.890625 -13.28125 18.9375 -11.515625 
Q 21 -9.765625 23.484375 -3.21875 
L 25.09375 0.875 
L 2.984375 54.6875 
L 12.5 54.6875 
L 29.59375 11.921875 
L 46.6875 54.6875 
L 56.203125 54.6875 
z
" id="DejaVuSans-121"/>
     </defs>
     <g transform="translate(14.798438 153.5975)rotate(-90)scale(0.1 -0.1)">
      <use xlink:href="#DejaVuSans-97"/>
      <use x="61.279297" xlink:href="#DejaVuSans-99"/>
      <use x="116.259766" xlink:href="#DejaVuSans-99"/>
      <use x="171.240234" xlink:href="#DejaVuSans-117"/>
      <use x="234.619141" xlink:href="#DejaVuSans-114"/>
      <use x="275.732422" xlink:href="#DejaVuSans-97"/>
      <use x="337.011719" xlink:href="#DejaVuSans-99"/>
      <use x="391.992188" xlink:href="#DejaVuSans-121"/>
     </g>
    </g>
   </g>
   <g id="line2d_14">
    <path clip-path="url(#p8fa8a3027f)" d="M 58.999432 213.665325 
L 59.507551 214.390125 
L 60.523791 214.390125 
L 61.54003 215.839725 
L 62.048149 215.114925 
L 62.556269 215.114925 
L 63.064389 213.665325 
L 63.572508 214.390125 
L 64.080628 212.940525 
L 65.096867 202.068525 
L 65.604987 199.894125 
L 66.113106 196.270125 
L 66.621226 194.095725 
L 67.129345 192.646125 
L 68.145584 192.646125 
L 68.653704 191.196525 
L 69.669943 192.646125 
L 70.178063 192.646125 
L 70.686182 193.370925 
L 71.194302 194.820525 
L 72.210541 194.820525 
L 73.22678 193.370925 
L 73.7349 193.370925 
L 74.24302 192.646125 
L 74.751139 192.646125 
L 75.259259 193.370925 
L 75.767378 192.646125 
L 80.848574 192.646125 
L 81.864814 191.196525 
L 82.372933 191.196525 
L 82.881053 190.471725 
L 83.389172 191.196525 
L 83.897292 190.471725 
L 85.421651 190.471725 
L 85.92977 189.746925 
L 87.454129 189.746925 
L 87.962249 189.022125 
L 89.994727 189.022125 
L 90.502847 188.297325 
L 108.795152 188.297325 
L 109.303272 187.572525 
L 112.351989 187.572525 
L 112.860109 186.847725 
L 115.400707 186.847725 
L 115.908826 186.122925 
L 116.416946 186.847725 
L 117.433185 186.847725 
L 117.941305 186.122925 
L 119.465663 186.122925 
L 120.481903 187.572525 
L 120.990022 186.122925 
L 121.498142 187.572525 
L 123.022501 185.398125 
L 123.53062 186.847725 
L 124.03874 185.398125 
L 124.546859 186.847725 
L 125.054979 186.847725 
L 126.579338 184.673325 
L 127.087457 186.122925 
L 129.119936 186.122925 
L 129.628055 184.673325 
L 131.660534 184.673325 
L 132.168653 183.948525 
L 132.676773 184.673325 
L 133.184892 183.948525 
L 134.201132 183.948525 
L 134.709251 184.673325 
L 135.217371 183.948525 
L 143.855404 183.948525 
L 144.363523 183.223725 
L 144.871643 184.673325 
L 145.887882 183.223725 
L 151.477198 183.223725 
L 151.985317 181.049325 
L 152.493437 181.774125 
L 153.509676 181.774125 
L 154.017796 181.049325 
L 154.525915 181.049325 
L 155.034035 181.774125 
L 155.542155 180.324525 
L 156.050274 179.599725 
L 157.066513 179.599725 
L 157.574633 180.324525 
L 158.082753 179.599725 
L 158.590872 180.324525 
L 159.098992 179.599725 
L 160.62335 179.599725 
L 161.13147 178.874925 
L 161.63959 179.599725 
L 162.655829 178.150125 
L 164.180188 178.150125 
L 164.688307 176.700525 
L 165.196427 177.425325 
L 167.228905 177.425325 
L 168.245144 175.975725 
L 169.261384 175.975725 
L 170.277623 173.076525 
L 171.293862 173.076525 
L 171.801982 172.351725 
L 172.310101 172.351725 
L 172.818221 173.076525 
L 173.32634 174.526125 
L 173.83446 173.076525 
L 174.850699 173.076525 
L 175.358819 173.801325 
L 176.375058 172.351725 
L 176.883177 172.351725 
L 177.899417 170.902125 
L 178.407536 170.902125 
L 178.915656 169.452525 
L 179.423775 170.177325 
L 179.931895 170.177325 
L 180.440015 169.452525 
L 181.964373 171.626925 
L 182.472493 170.902125 
L 182.980613 170.902125 
L 183.488732 171.626925 
L 183.996852 170.902125 
L 184.504971 171.626925 
L 185.013091 170.177325 
L 185.521211 170.902125 
L 186.02933 169.452525 
L 186.53745 167.278125 
L 187.045569 170.177325 
L 187.553689 170.177325 
L 188.061809 169.452525 
L 188.569928 168.002925 
L 189.078048 168.727725 
L 189.586167 168.002925 
L 190.094287 169.452525 
L 190.602406 168.727725 
L 191.110526 169.452525 
L 191.618646 168.002925 
L 192.634885 163.654125 
L 193.143004 163.654125 
L 194.159244 165.103725 
L 194.667363 167.278125 
L 195.175483 164.378925 
L 195.683602 163.654125 
L 196.191722 162.204525 
L 196.699842 161.479725 
L 197.207961 161.479725 
L 198.2242 162.929325 
L 198.73232 164.378925 
L 199.24044 165.103725 
L 199.748559 164.378925 
L 200.256679 165.103725 
L 200.764798 165.103725 
L 201.272918 163.654125 
L 201.781038 160.754925 
L 202.289157 163.654125 
L 202.797277 165.103725 
L 203.305396 165.828525 
L 203.813516 165.828525 
L 204.321635 164.378925 
L 204.829755 165.103725 
L 205.337875 163.654125 
L 205.845994 162.929325 
L 206.354114 159.305325 
L 206.862233 160.754925 
L 207.370353 159.305325 
L 207.878473 159.305325 
L 208.386592 158.580525 
L 208.894712 161.479725 
L 209.402831 163.654125 
L 209.910951 162.204525 
L 210.419071 159.305325 
L 210.92719 159.305325 
L 211.43531 157.130925 
L 211.943429 156.406125 
L 212.451549 162.929325 
L 212.959669 162.929325 
L 213.467788 161.479725 
L 213.975908 164.378925 
L 214.992147 158.580525 
L 215.500267 160.030125 
L 216.008386 157.130925 
L 216.516506 160.030125 
L 217.024625 157.855725 
L 217.532745 162.204525 
L 218.040865 158.580525 
L 219.057104 158.580525 
L 219.565223 157.855725 
L 220.073343 162.204525 
L 220.581462 157.855725 
L 221.089582 157.855725 
L 221.597702 157.130925 
L 222.105821 157.130925 
L 222.613941 154.231725 
L 223.12206 159.305325 
L 223.63018 162.929325 
L 224.1383 165.103725 
L 224.646419 165.103725 
L 225.154539 165.828525 
L 226.170778 165.828525 
L 226.678898 163.654125 
L 227.187017 162.204525 
L 227.695137 164.378925 
L 228.203256 162.929325 
L 228.711376 162.204525 
L 229.219496 157.855725 
L 229.727615 160.030125 
L 230.235735 155.681325 
L 230.743854 154.956525 
L 231.251974 154.956525 
L 231.760094 160.030125 
L 232.268213 152.782125 
L 232.776333 152.782125 
L 233.284452 152.057325 
L 233.792572 154.956525 
L 234.300691 162.204525 
L 234.808811 165.103725 
L 235.316931 162.204525 
L 235.82505 156.406125 
L 236.33317 158.580525 
L 236.841289 150.607725 
L 237.349409 150.607725 
L 237.857529 155.681325 
L 238.365648 153.506925 
L 238.873768 154.231725 
L 239.381887 160.754925 
L 239.890007 160.030125 
L 240.398127 160.754925 
L 240.906246 160.754925 
L 241.414366 162.929325 
L 241.922485 161.479725 
L 242.430605 154.231725 
L 242.938725 152.782125 
L 243.446844 152.782125 
L 243.954964 152.057325 
L 244.463083 159.305325 
L 244.971203 153.506925 
L 245.479323 155.681325 
L 245.987442 157.130925 
L 246.495562 157.130925 
L 247.003681 152.782125 
L 248.019921 160.754925 
L 248.52804 159.305325 
L 249.03616 156.406125 
L 249.544279 151.332525 
L 250.052399 150.607725 
L 250.560518 154.956525 
L 251.068638 152.057325 
L 251.576758 157.855725 
L 252.084877 147.708525 
L 252.592997 148.433325 
L 253.101116 150.607725 
L 253.609236 149.882925 
L 254.117356 150.607725 
L 254.625475 152.782125 
L 255.133595 152.782125 
L 255.641714 154.231725 
L 256.149834 149.882925 
L 257.166073 154.231725 
L 257.674193 155.681325 
L 258.182312 160.754925 
L 259.198552 144.809325 
L 259.706671 145.534125 
L 260.214791 152.057325 
L 260.72291 147.708525 
L 261.23103 152.057325 
L 261.73915 152.782125 
L 262.247269 150.607725 
L 262.755389 153.506925 
L 263.263508 155.681325 
L 263.771628 153.506925 
L 264.279747 158.580525 
L 264.787867 157.855725 
L 265.295987 156.406125 
L 265.804106 149.882925 
L 266.312226 152.057325 
L 266.820345 155.681325 
L 267.328465 157.130925 
L 267.836585 151.332525 
L 268.344704 149.158125 
L 268.852824 144.809325 
L 269.869063 144.809325 
L 270.377183 151.332525 
L 270.885302 142.634925 
L 271.393422 151.332525 
L 271.901541 144.084525 
L 272.409661 144.084525 
L 272.917781 146.983725 
L 273.4259 151.332525 
L 273.93402 148.433325 
L 274.442139 142.634925 
L 274.950259 152.782125 
L 275.458379 154.956525 
L 275.966498 148.433325 
L 276.474618 148.433325 
L 276.982737 149.882925 
L 277.490857 143.359725 
L 277.998977 143.359725 
L 278.507096 150.607725 
L 279.015216 143.359725 
L 279.523335 143.359725 
L 280.031455 141.910125 
L 280.539574 142.634925 
L 281.047694 140.460525 
L 281.555814 141.910125 
L 282.063933 145.534125 
L 282.572053 152.782125 
L 283.080172 153.506925 
L 283.588292 148.433325 
L 284.096412 141.185325 
L 284.604531 147.708525 
L 285.112651 145.534125 
L 285.62077 140.460525 
L 286.63701 144.809325 
L 287.145129 139.735725 
L 287.653249 140.460525 
L 288.161368 142.634925 
L 288.669488 138.286125 
L 289.177608 144.809325 
L 289.685727 138.286125 
L 290.193847 139.010925 
L 290.701966 139.010925 
L 291.210086 137.561325 
L 291.718206 142.634925 
L 292.226325 133.937325 
L 292.734445 135.386925 
L 293.242564 143.359725 
L 293.750684 139.735725 
L 294.258803 144.084525 
L 294.766923 135.386925 
L 295.275043 135.386925 
L 295.783162 138.286125 
L 296.291282 144.084525 
L 296.799401 139.735725 
L 297.307521 133.937325 
L 297.815641 144.809325 
L 298.32376 146.983725 
L 298.83188 142.634925 
L 299.339999 146.258925 
L 299.848119 146.983725 
L 300.864358 144.084525 
L 301.372478 135.386925 
L 301.880597 137.561325 
L 303.404956 133.212525 
L 303.913076 144.084525 
L 304.421195 143.359725 
L 304.929315 138.286125 
L 305.437435 144.084525 
L 306.453674 145.534125 
L 306.961793 138.286125 
L 307.469913 145.534125 
L 307.978033 136.836525 
L 308.486152 136.836525 
L 308.994272 131.038125 
L 309.502391 130.313325 
L 310.010511 136.836525 
L 310.51863 136.111725 
L 311.02675 141.910125 
L 311.53487 133.212525 
L 312.042989 144.809325 
L 312.551109 142.634925 
L 313.059228 144.809325 
L 313.567348 136.111725 
L 314.075468 141.185325 
L 314.583587 144.084525 
L 315.091707 138.286125 
L 315.599826 136.836525 
L 316.107946 131.038125 
L 316.616066 144.084525 
L 317.124185 133.212525 
L 317.632305 144.809325 
L 318.140424 141.910125 
L 318.648544 135.386925 
L 319.156664 131.038125 
L 319.664783 137.561325 
L 320.172903 133.937325 
L 320.681022 142.634925 
L 321.189142 134.662125 
L 321.697262 136.111725 
L 322.205381 144.084525 
L 323.22162 130.313325 
L 323.72974 130.313325 
L 324.23786 129.588525 
L 324.745979 134.662125 
L 325.254099 132.487725 
L 325.762218 135.386925 
L 326.270338 140.460525 
L 326.778457 136.111725 
L 327.286577 144.809325 
L 327.794697 125.964525 
L 328.302816 139.010925 
L 328.810936 125.964525 
L 329.319055 125.239725 
L 329.827175 136.111725 
L 330.335295 128.138925 
L 330.843414 123.065325 
L 331.351534 124.514925 
L 331.859653 121.615725 
L 332.367773 132.487725 
L 332.875893 127.414125 
L 333.384012 125.964525 
L 333.892132 134.662125 
L 334.400251 135.386925 
L 334.908371 125.964525 
L 335.416491 135.386925 
L 335.92461 131.762925 
L 336.43273 131.762925 
L 336.940849 132.487725 
L 337.448969 132.487725 
L 337.957089 131.762925 
L 338.465208 118.716525 
L 338.973328 117.991725 
L 339.989567 122.340525 
L 340.497686 115.817325 
L 341.005806 119.441325 
L 341.513926 115.817325 
L 342.022045 120.890925 
L 342.530165 118.716525 
L 343.038284 120.890925 
L 343.546404 118.716525 
L 344.054524 123.790125 
L 344.562643 123.790125 
L 345.578882 114.367725 
L 346.087002 120.166125 
L 346.595122 123.790125 
L 347.103241 120.890925 
L 347.611361 115.817325 
L 348.11948 117.266925 
L 348.6276 117.266925 
L 349.13572 115.092525 
L 349.643839 115.817325 
L 350.151959 126.689325 
L 350.660078 115.092525 
L 351.168198 115.817325 
L 351.676318 120.890925 
L 352.184437 110.743725 
L 352.692557 123.790125 
L 353.200676 113.642925 
L 353.708796 123.065325 
L 354.216916 125.239725 
L 354.725035 120.890925 
L 355.233155 115.092525 
L 355.741274 123.065325 
L 356.249394 112.918125 
L 356.757513 110.743725 
L 357.265633 119.441325 
L 357.773753 107.844525 
L 358.281872 118.716525 
L 358.789992 108.569325 
L 359.298111 121.615725 
L 359.806231 113.642925 
L 360.314351 120.890925 
L 360.82247 107.844525 
L 361.33059 112.918125 
L 361.838709 124.514925 
L 362.346829 119.441325 
L 362.854949 110.743725 
L 363.363068 112.918125 
L 363.363068 112.918125 
" style="fill:none;stroke:#1f77b4;stroke-linecap:square;stroke-width:1.5;"/>
   </g>
   <g id="line2d_15">
    <path clip-path="url(#p8fa8a3027f)" d="M 58.999432 218.275053 
L 59.507551 218.188077 
L 60.523791 218.383773 
L 61.03191 218.166333 
L 61.54003 217.774941 
L 62.048149 218.101101 
L 63.064389 216.122397 
L 63.572508 216.405069 
L 64.080628 213.969741 
L 65.096867 206.141901 
L 65.604987 203.815293 
L 66.113106 199.879629 
L 67.129345 197.205117 
L 67.637465 196.857213 
L 68.145584 196.748493 
L 68.653704 197.096397 
L 69.669943 198.444525 
L 70.178063 198.553245 
L 70.686182 199.314285 
L 71.194302 199.727421 
L 71.702422 199.944861 
L 72.210541 200.379741 
L 72.718661 200.097069 
L 73.22678 199.423005 
L 73.7349 199.553469 
L 74.24302 199.031613 
L 74.751139 199.031613 
L 75.259259 199.749165 
L 75.767378 199.553469 
L 76.275498 199.683933 
L 76.783618 199.509981 
L 77.291737 199.140333 
L 77.799857 199.140333 
L 78.307976 198.944637 
L 78.816096 198.879405 
L 79.324216 199.183821 
L 79.832335 198.857661 
L 80.848574 199.183821 
L 81.356694 198.640221 
L 82.881053 197.770461 
L 83.389172 197.748717 
L 83.897292 197.379069 
L 84.405411 197.618253 
L 84.913531 197.139885 
L 85.421651 197.205117 
L 85.92977 196.770237 
L 86.43789 196.574541 
L 86.946009 196.183149 
L 87.454129 196.335357 
L 87.962249 195.900477 
L 88.978488 195.639549 
L 89.486607 195.683037 
L 90.502847 194.987229 
L 91.519086 194.791533 
L 94.567803 194.639325 
L 95.075923 194.487117 
L 102.189597 194.269677 
L 103.713956 194.269677 
L 105.746434 194.095725 
L 115.400707 194.030493 
L 116.416946 193.921773 
L 120.481903 193.682589 
L 120.990022 193.595613 
L 122.006261 193.639101 
L 123.022501 193.443405 
L 125.054979 193.595613 
L 127.595577 193.117245 
L 128.103697 192.943293 
L 129.119936 192.921549 
L 129.628055 192.943293 
L 131.152414 192.486669 
L 131.660534 192.377949 
L 132.676773 192.334461 
L 133.693012 192.182253 
L 134.201132 192.247485 
L 135.217371 192.051789 
L 136.74173 192.073533 
L 137.249849 191.877837 
L 137.757969 191.964813 
L 138.266088 191.769117 
L 138.774208 191.834349 
L 139.790447 191.682141 
L 141.314806 191.747373 
L 142.331045 191.616909 
L 143.855404 191.225517 
L 144.363523 191.225517 
L 144.871643 190.964589 
L 145.379763 190.964589 
L 146.904121 190.464477 
L 147.412241 190.312269 
L 147.920361 189.942621 
L 149.444719 189.768669 
L 149.952839 189.594717 
L 150.969078 189.572973 
L 151.477198 189.399021 
L 151.985317 189.377277 
L 153.509676 188.942397 
L 154.017796 188.572749 
L 155.034035 188.464029 
L 156.050274 188.007405 
L 156.558394 188.159613 
L 157.066513 187.963917 
L 157.574633 188.072637 
L 158.082753 187.833453 
L 158.590872 187.985661 
L 159.098992 187.637757 
L 160.115231 187.724733 
L 161.13147 187.507293 
L 161.63959 187.050669 
L 162.655829 187.246365 
L 165.196427 186.376605 
L 167.228905 185.963469 
L 167.737025 185.789517 
L 168.245144 185.854749 
L 169.769503 185.463357 
L 170.277623 184.811037 
L 171.293862 184.984989 
L 171.801982 184.876269 
L 172.310101 184.593597 
L 173.32634 184.811037 
L 174.342579 184.136973 
L 174.850699 184.267437 
L 175.358819 184.615341 
L 176.375058 184.506621 
L 177.899417 183.549885 
L 178.915656 183.071517 
L 179.931895 182.962797 
L 180.440015 182.701869 
L 181.456254 183.201981 
L 181.964373 183.245469 
L 182.472493 182.984541 
L 182.980613 182.897565 
L 183.488732 183.093261 
L 183.996852 183.028029 
L 184.504971 183.201981 
L 185.013091 183.028029 
L 185.521211 183.006285 
L 186.02933 182.549661 
L 186.53745 181.723389 
L 187.553689 182.201757 
L 188.061809 182.288733 
L 188.569928 181.310253 
L 189.078048 181.418973 
L 189.586167 181.005837 
L 190.094287 181.484205 
L 190.602406 181.245021 
L 191.110526 181.527693 
L 191.618646 180.723165 
L 192.126765 180.266541 
L 192.634885 179.244573 
L 193.143004 178.918413 
L 194.159244 179.396781 
L 194.667363 179.940381 
L 195.175483 179.570733 
L 196.191722 177.613773 
L 196.699842 177.679005 
L 197.207961 179.266317 
L 197.716081 178.266093 
L 198.2242 179.092365 
L 198.73232 179.548989 
L 199.24044 178.613997 
L 199.748559 179.635965 
L 200.256679 180.092589 
L 201.272918 179.418525 
L 201.781038 178.635741 
L 202.289157 179.266317 
L 202.797277 180.375261 
L 203.305396 180.636189 
L 203.813516 180.570957 
L 204.321635 179.896893 
L 204.829755 180.244797 
L 205.337875 179.418525 
L 205.845994 179.483757 
L 206.354114 178.113885 
L 206.862233 178.092141 
L 207.370353 177.265869 
L 207.878473 177.178893 
L 208.386592 176.613549 
L 208.894712 178.527021 
L 209.402831 179.831661 
L 209.910951 178.831437 
L 210.419071 177.505053 
L 210.92719 177.461565 
L 211.43531 175.004493 
L 211.943429 175.308909 
L 212.959669 175.156701 
L 213.467788 174.330429 
L 213.975908 176.178669 
L 214.484027 174.917517 
L 214.992147 174.917517 
L 215.500267 176.113437 
L 216.008386 175.178445 
L 216.516506 175.982973 
L 217.024625 175.330653 
L 217.532745 175.113213 
L 218.040865 176.243901 
L 218.548984 175.026237 
L 219.057104 175.482861 
L 219.565223 175.504605 
L 220.073343 176.048205 
L 220.581462 174.852285 
L 221.089582 176.461341 
L 221.597702 175.635069 
L 222.105821 174.569613 
L 222.613941 173.917293 
L 223.12206 177.135405 
L 223.63018 179.114109 
L 224.1383 179.222829 
L 224.646419 178.918413 
L 225.154539 178.961901 
L 225.662658 179.375037 
L 226.678898 178.809693 
L 227.187017 178.918413 
L 227.695137 178.787949 
L 228.203256 178.853181 
L 228.711376 179.331549 
L 229.219496 177.744237 
L 229.727615 178.527021 
L 230.235735 176.483085 
L 230.743854 175.526349 
L 231.251974 175.200189 
L 231.760094 177.896445 
L 232.268213 174.678333 
L 232.776333 173.612877 
L 233.284452 173.895549 
L 233.792572 172.743117 
L 234.300691 176.222157 
L 234.808811 176.483085 
L 235.82505 173.504157 
L 236.33317 174.069501 
L 236.841289 172.264749 
L 237.349409 172.090797 
L 237.857529 172.764861 
L 238.365648 174.178221 
L 238.873768 173.438925 
L 239.381887 178.266093 
L 239.890007 177.744237 
L 240.906246 177.896445 
L 241.922485 177.026685 
L 242.938725 172.286493 
L 243.446844 172.612653 
L 243.954964 172.656141 
L 244.463083 176.352621 
L 245.479323 172.329981 
L 245.987442 175.504605 
L 246.495562 176.156925 
L 247.003681 172.395213 
L 247.511801 175.395885 
L 248.019921 176.983197 
L 248.52804 176.591805 
L 249.544279 173.091021 
L 250.052399 171.286269 
L 250.560518 174.439149 
L 251.068638 171.134061 
L 251.576758 173.634621 
L 252.084877 171.003597 
L 252.592997 171.373245 
L 253.101116 172.808349 
L 253.609236 172.938813 
L 254.117356 172.917069 
L 255.133595 174.939261 
L 255.641714 175.308909 
L 256.149834 172.308237 
L 257.166073 175.830765 
L 258.182312 175.722045 
L 258.690432 173.917293 
L 259.198552 170.568717 
L 259.706671 170.916621 
L 260.214791 172.351725 
L 260.72291 171.373245 
L 261.23103 174.286941 
L 261.73915 174.852285 
L 262.247269 172.873581 
L 262.755389 174.765309 
L 263.263508 175.156701 
L 263.771628 174.787053 
L 264.279747 174.874029 
L 264.787867 174.569613 
L 265.295987 174.656589 
L 265.804106 172.416957 
L 266.312226 174.004269 
L 266.820345 174.895773 
L 267.328465 174.265197 
L 267.836585 173.112765 
L 268.344704 172.699629 
L 268.852824 170.329533 
L 269.360943 170.242557 
L 269.869063 169.959885 
L 270.377183 171.373245 
L 270.885302 169.438029 
L 271.393422 171.329757 
L 271.901541 170.873133 
L 272.409661 169.698957 
L 272.917781 169.938141 
L 273.4259 171.960333 
L 273.93402 170.829645 
L 274.442139 169.220589 
L 274.950259 173.678109 
L 275.458379 173.395437 
L 275.966498 172.569165 
L 276.474618 172.438701 
L 276.982737 172.982301 
L 277.490857 169.459773 
L 277.998977 169.720701 
L 278.507096 172.851837 
L 279.015216 170.090349 
L 279.523335 170.264301 
L 280.031455 169.894653 
L 281.047694 168.394317 
L 282.063933 171.286269 
L 282.572053 172.329981 
L 283.080172 172.177773 
L 283.588292 172.156029 
L 284.096412 169.264077 
L 284.604531 171.634173 
L 285.112651 171.112317 
L 285.62077 169.155357 
L 286.12889 169.329309 
L 286.63701 171.655917 
L 287.653249 168.763965 
L 288.161368 170.764413 
L 288.669488 168.807453 
L 289.177608 171.351501 
L 289.685727 169.285821 
L 290.701966 168.655245 
L 291.718206 171.112317 
L 292.226325 168.329085 
L 292.734445 168.155133 
L 293.242564 170.742669 
L 293.750684 170.003373 
L 294.258803 171.112317 
L 294.766923 168.002925 
L 295.275043 167.763741 
L 295.783162 168.937917 
L 296.291282 170.786157 
L 296.799401 170.264301 
L 297.307521 168.176877 
L 297.815641 170.699181 
L 298.32376 170.481741 
L 298.83188 170.459997 
L 299.339999 169.829421 
L 299.848119 169.981629 
L 300.356239 170.307789 
L 300.864358 170.199069 
L 301.372478 168.850941 
L 301.880597 169.024893 
L 302.388717 168.720477 
L 302.896837 168.002925 
L 303.404956 166.589565 
L 303.913076 169.981629 
L 304.421195 169.981629 
L 304.929315 169.329309 
L 305.437435 169.655469 
L 305.945554 170.329533 
L 306.961793 168.611757 
L 307.469913 169.459773 
L 307.978033 168.133389 
L 308.486152 168.263853 
L 308.994272 166.502589 
L 309.502391 166.937469 
L 310.010511 168.242109 
L 310.51863 167.937693 
L 311.02675 168.829197 
L 311.53487 167.133165 
L 312.042989 168.742221 
L 312.551109 168.894429 
L 313.059228 168.742221 
L 313.567348 168.111645 
L 314.075468 168.437805 
L 314.583587 168.394317 
L 315.091707 167.894205 
L 315.599826 166.567821 
L 316.107946 164.763069 
L 316.616066 168.242109 
L 317.124185 166.263405 
L 317.632305 167.437581 
L 318.140424 167.741997 
L 318.648544 166.567821 
L 319.156664 165.719805 
L 319.664783 166.111197 
L 320.172903 166.241661 
L 320.681022 167.785485 
L 321.189142 166.393869 
L 321.697262 166.328637 
L 322.205381 169.720701 
L 322.713501 166.546077 
L 323.72974 164.458653 
L 324.23786 163.915053 
L 324.745979 166.524333 
L 325.254099 165.980733 
L 325.762218 167.024445 
L 326.778457 167.263629 
L 327.286577 168.002925 
L 327.794697 165.458877 
L 328.302816 167.437581 
L 329.319055 164.284701 
L 329.827175 166.893981 
L 330.843414 164.132493 
L 331.351534 165.393645 
L 331.859653 163.719357 
L 332.367773 166.524333 
L 332.875893 165.937245 
L 333.384012 165.176205 
L 333.892132 166.241661 
L 334.400251 166.567821 
L 334.908371 165.763293 
L 335.416491 166.198173 
L 335.92461 165.654573 
L 336.43273 165.785037 
L 336.940849 165.785037 
L 337.448969 165.611085 
L 337.957089 165.567597 
L 338.465208 163.893309 
L 338.973328 163.110525 
L 339.481447 164.458653 
L 339.989567 165.263181 
L 340.497686 164.393421 
L 341.005806 165.045741 
L 341.513926 163.067037 
L 342.022045 164.110749 
L 342.530165 164.110749 
L 343.038284 165.023997 
L 343.546404 164.980509 
L 344.054524 165.524109 
L 344.562643 165.263181 
L 345.070763 163.849821 
L 345.578882 163.197501 
L 346.087002 164.632605 
L 346.595122 165.197949 
L 347.103241 165.110973 
L 347.611361 163.545405 
L 348.11948 163.784589 
L 348.6276 164.371677 
L 349.13572 163.393197 
L 349.643839 163.327965 
L 350.151959 164.958765 
L 350.660078 163.828077 
L 351.168198 163.980285 
L 351.676318 164.436909 
L 352.184437 162.653901 
L 352.692557 164.806557 
L 353.200676 162.675645 
L 353.708796 164.741325 
L 354.216916 164.306445 
L 354.725035 164.415165 
L 355.233155 164.328189 
L 355.741274 163.741101 
L 356.757513 162.240765 
L 357.265633 163.828077 
L 357.773753 162.414717 
L 358.281872 164.023773 
L 358.789992 162.088557 
L 359.298111 164.045517 
L 359.806231 163.567149 
L 360.314351 164.850045 
L 360.82247 162.827853 
L 361.33059 163.175757 
L 361.838709 164.175981 
L 362.346829 164.262957 
L 362.854949 162.262509 
L 363.363068 164.045517 
L 363.363068 164.045517 
" style="fill:none;stroke:#ff7f0e;stroke-linecap:square;stroke-width:1.5;"/>
   </g>
   <g id="patch_3">
    <path d="M 43.78125 239.758125 
L 43.78125 22.318125 
" style="fill:none;stroke:#000000;stroke-linecap:square;stroke-linejoin:miter;stroke-width:0.8;"/>
   </g>
   <g id="patch_4">
    <path d="M 378.58125 239.758125 
L 378.58125 22.318125 
" style="fill:none;stroke:#000000;stroke-linecap:square;stroke-linejoin:miter;stroke-width:0.8;"/>
   </g>
   <g id="patch_5">
    <path d="M 43.78125 239.758125 
L 378.58125 239.758125 
" style="fill:none;stroke:#000000;stroke-linecap:square;stroke-linejoin:miter;stroke-width:0.8;"/>
   </g>
   <g id="patch_6">
    <path d="M 43.78125 22.318125 
L 378.58125 22.318125 
" style="fill:none;stroke:#000000;stroke-linecap:square;stroke-linejoin:miter;stroke-width:0.8;"/>
   </g>
   <g id="text_16">
    <!-- accuracy -->
    <g transform="translate(184.11 16.318125)scale(0.12 -0.12)">
     <use xlink:href="#DejaVuSans-97"/>
     <use x="61.279297" xlink:href="#DejaVuSans-99"/>
     <use x="116.259766" xlink:href="#DejaVuSans-99"/>
     <use x="171.240234" xlink:href="#DejaVuSans-117"/>
     <use x="234.619141" xlink:href="#DejaVuSans-114"/>
     <use x="275.732422" xlink:href="#DejaVuSans-97"/>
     <use x="337.011719" xlink:href="#DejaVuSans-99"/>
     <use x="391.992188" xlink:href="#DejaVuSans-121"/>
    </g>
   </g>
   <g id="legend_1">
    <g id="patch_7">
     <path d="M 282.38125 234.758125 
L 371.58125 234.758125 
Q 373.58125 234.758125 373.58125 232.758125 
L 373.58125 204.401875 
Q 373.58125 202.401875 371.58125 202.401875 
L 282.38125 202.401875 
Q 280.38125 202.401875 280.38125 204.401875 
L 280.38125 232.758125 
Q 280.38125 234.758125 282.38125 234.758125 
z
" style="fill:#ffffff;opacity:0.8;stroke:#cccccc;stroke-linejoin:miter;"/>
    </g>
    <g id="line2d_16">
     <path d="M 284.38125 210.500312 
L 304.38125 210.500312 
" style="fill:none;stroke:#1f77b4;stroke-linecap:square;stroke-width:1.5;"/>
    </g>
    <g id="line2d_17"/>
    <g id="text_17">
     <!-- training set -->
     <defs>
      <path d="M 9.421875 54.6875 
L 18.40625 54.6875 
L 18.40625 0 
L 9.421875 0 
z
M 9.421875 75.984375 
L 18.40625 75.984375 
L 18.40625 64.59375 
L 9.421875 64.59375 
z
" id="DejaVuSans-105"/>
      <path d="M 45.40625 27.984375 
Q 45.40625 37.75 41.375 43.109375 
Q 37.359375 48.484375 30.078125 48.484375 
Q 22.859375 48.484375 18.828125 43.109375 
Q 14.796875 37.75 14.796875 27.984375 
Q 14.796875 18.265625 18.828125 12.890625 
Q 22.859375 7.515625 30.078125 7.515625 
Q 37.359375 7.515625 41.375 12.890625 
Q 45.40625 18.265625 45.40625 27.984375 
z
M 54.390625 6.78125 
Q 54.390625 -7.171875 48.1875 -13.984375 
Q 42 -20.796875 29.203125 -20.796875 
Q 24.46875 -20.796875 20.265625 -20.09375 
Q 16.0625 -19.390625 12.109375 -17.921875 
L 12.109375 -9.1875 
Q 16.0625 -11.328125 19.921875 -12.34375 
Q 23.78125 -13.375 27.78125 -13.375 
Q 36.625 -13.375 41.015625 -8.765625 
Q 45.40625 -4.15625 45.40625 5.171875 
L 45.40625 9.625 
Q 42.625 4.78125 38.28125 2.390625 
Q 33.9375 0 27.875 0 
Q 17.828125 0 11.671875 7.65625 
Q 5.515625 15.328125 5.515625 27.984375 
Q 5.515625 40.671875 11.671875 48.328125 
Q 17.828125 56 27.875 56 
Q 33.9375 56 38.28125 53.609375 
Q 42.625 51.21875 45.40625 46.390625 
L 45.40625 54.6875 
L 54.390625 54.6875 
z
" id="DejaVuSans-103"/>
      <path id="DejaVuSans-32"/>
      <path d="M 44.28125 53.078125 
L 44.28125 44.578125 
Q 40.484375 46.53125 36.375 47.5 
Q 32.28125 48.484375 27.875 48.484375 
Q 21.1875 48.484375 17.84375 46.4375 
Q 14.5 44.390625 14.5 40.28125 
Q 14.5 37.15625 16.890625 35.375 
Q 19.28125 33.59375 26.515625 31.984375 
L 29.59375 31.296875 
Q 39.15625 29.25 43.1875 25.515625 
Q 47.21875 21.78125 47.21875 15.09375 
Q 47.21875 7.46875 41.1875 3.015625 
Q 35.15625 -1.421875 24.609375 -1.421875 
Q 20.21875 -1.421875 15.453125 -0.5625 
Q 10.6875 0.296875 5.421875 2 
L 5.421875 11.28125 
Q 10.40625 8.6875 15.234375 7.390625 
Q 20.0625 6.109375 24.8125 6.109375 
Q 31.15625 6.109375 34.5625 8.28125 
Q 37.984375 10.453125 37.984375 14.40625 
Q 37.984375 18.0625 35.515625 20.015625 
Q 33.0625 21.96875 24.703125 23.78125 
L 21.578125 24.515625 
Q 13.234375 26.265625 9.515625 29.90625 
Q 5.8125 33.546875 5.8125 39.890625 
Q 5.8125 47.609375 11.28125 51.796875 
Q 16.75 56 26.8125 56 
Q 31.78125 56 36.171875 55.265625 
Q 40.578125 54.546875 44.28125 53.078125 
z
" id="DejaVuSans-115"/>
      <path d="M 56.203125 29.59375 
L 56.203125 25.203125 
L 14.890625 25.203125 
Q 15.484375 15.921875 20.484375 11.0625 
Q 25.484375 6.203125 34.421875 6.203125 
Q 39.59375 6.203125 44.453125 7.46875 
Q 49.3125 8.734375 54.109375 11.28125 
L 54.109375 2.78125 
Q 49.265625 0.734375 44.1875 -0.34375 
Q 39.109375 -1.421875 33.890625 -1.421875 
Q 20.796875 -1.421875 13.15625 6.1875 
Q 5.515625 13.8125 5.515625 26.8125 
Q 5.515625 40.234375 12.765625 48.109375 
Q 20.015625 56 32.328125 56 
Q 43.359375 56 49.78125 48.890625 
Q 56.203125 41.796875 56.203125 29.59375 
z
M 47.21875 32.234375 
Q 47.125 39.59375 43.09375 43.984375 
Q 39.0625 48.390625 32.421875 48.390625 
Q 24.90625 48.390625 20.390625 44.140625 
Q 15.875 39.890625 15.1875 32.171875 
z
" id="DejaVuSans-101"/>
     </defs>
     <g transform="translate(312.38125 214.000312)scale(0.1 -0.1)">
      <use xlink:href="#DejaVuSans-116"/>
      <use x="39.208984" xlink:href="#DejaVuSans-114"/>
      <use x="80.322266" xlink:href="#DejaVuSans-97"/>
      <use x="141.601562" xlink:href="#DejaVuSans-105"/>
      <use x="169.384766" xlink:href="#DejaVuSans-110"/>
      <use x="232.763672" xlink:href="#DejaVuSans-105"/>
      <use x="260.546875" xlink:href="#DejaVuSans-110"/>
      <use x="323.925781" xlink:href="#DejaVuSans-103"/>
      <use x="387.402344" xlink:href="#DejaVuSans-32"/>
      <use x="419.189453" xlink:href="#DejaVuSans-115"/>
      <use x="471.289062" xlink:href="#DejaVuSans-101"/>
      <use x="532.8125" xlink:href="#DejaVuSans-116"/>
     </g>
    </g>
    <g id="line2d_18">
     <path d="M 284.38125 225.178437 
L 304.38125 225.178437 
" style="fill:none;stroke:#ff7f0e;stroke-linecap:square;stroke-width:1.5;"/>
    </g>
    <g id="line2d_19"/>
    <g id="text_18">
     <!-- test set -->
     <g transform="translate(312.38125 228.678437)scale(0.1 -0.1)">
      <use xlink:href="#DejaVuSans-116"/>
      <use x="39.208984" xlink:href="#DejaVuSans-101"/>
      <use x="100.732422" xlink:href="#DejaVuSans-115"/>
      <use x="152.832031" xlink:href="#DejaVuSans-116"/>
      <use x="192.041016" xlink:href="#DejaVuSans-32"/>
      <use x="223.828125" xlink:href="#DejaVuSans-115"/>
      <use x="275.927734" xlink:href="#DejaVuSans-101"/>
      <use x="337.451172" xlink:href="#DejaVuSans-116"/>
     </g>
    </g>
   </g>
  </g>
 </g>
 <defs>
  <clipPath id="p8fa8a3027f">
   <rect height="217.44" width="334.8" x="43.78125" y="22.318125"/>
  </clipPath>
 </defs>
</svg>
