<?xml version="1.0" encoding="utf-8" standalone="no"?>
<!DOCTYPE svg PUBLIC "-//W3C//DTD SVG 1.1//EN"
  "http://www.w3.org/Graphics/SVG/1.1/DTD/svg11.dtd">
<!-- Created with matplotlib (https://matplotlib.org/) -->
<svg height="277.314375pt" version="1.1" viewBox="0 0 385.78125 277.314375" width="385.78125pt" xmlns="http://www.w3.org/2000/svg" xmlns:xlink="http://www.w3.org/1999/xlink">
 <defs>
  <style type="text/css">
*{stroke-linecap:butt;stroke-linejoin:round;}
  </style>
 </defs>
 <g id="figure_1">
  <g id="patch_1">
   <path d="M 0 277.314375 
L 385.78125 277.314375 
L 385.78125 0 
L 0 0 
z
" style="fill:none;"/>
  </g>
  <g id="axes_1">
   <g id="patch_2">
    <path d="M 43.78125 239.758125 
L 378.58125 239.758125 
L 378.58125 22.318125 
L 43.78125 22.318125 
z
" style="fill:#ffffff;"/>
   </g>
   <g id="matplotlib.axis_1">
    <g id="xtick_1">
     <g id="line2d_1">
      <defs>
       <path d="M 0 0 
L 0 3.5 
" id="mc2e7473c44" style="stroke:#000000;stroke-width:0.8;"/>
      </defs>
      <g>
       <use style="stroke:#000000;stroke-width:0.8;" x="58.999432" xlink:href="#mc2e7473c44" y="239.758125"/>
      </g>
     </g>
     <g id="text_1">
      <!-- 0 -->
      <defs>
       <path d="M 31.78125 66.40625 
Q 24.171875 66.40625 20.328125 58.90625 
Q 16.5 51.421875 16.5 36.375 
Q 16.5 21.390625 20.328125 13.890625 
Q 24.171875 6.390625 31.78125 6.390625 
Q 39.453125 6.390625 43.28125 13.890625 
Q 47.125 21.390625 47.125 36.375 
Q 47.125 51.421875 43.28125 58.90625 
Q 39.453125 66.40625 31.78125 66.40625 
z
M 31.78125 74.21875 
Q 44.046875 74.21875 50.515625 64.515625 
Q 56.984375 54.828125 56.984375 36.375 
Q 56.984375 17.96875 50.515625 8.265625 
Q 44.046875 -1.421875 31.78125 -1.421875 
Q 19.53125 -1.421875 13.0625 8.265625 
Q 6.59375 17.96875 6.59375 36.375 
Q 6.59375 54.828125 13.0625 64.515625 
Q 19.53125 74.21875 31.78125 74.21875 
z
" id="DejaVuSans-48"/>
      </defs>
      <g transform="translate(55.818182 254.356562)scale(0.1 -0.1)">
       <use xlink:href="#DejaVuSans-48"/>
      </g>
     </g>
    </g>
    <g id="xtick_2">
     <g id="line2d_2">
      <g>
       <use style="stroke:#000000;stroke-width:0.8;" x="119.994149" xlink:href="#mc2e7473c44" y="239.758125"/>
      </g>
     </g>
     <g id="text_2">
      <!-- 1000 -->
      <defs>
       <path d="M 12.40625 8.296875 
L 28.515625 8.296875 
L 28.515625 63.921875 
L 10.984375 60.40625 
L 10.984375 69.390625 
L 28.421875 72.90625 
L 38.28125 72.90625 
L 38.28125 8.296875 
L 54.390625 8.296875 
L 54.390625 0 
L 12.40625 0 
z
" id="DejaVuSans-49"/>
      </defs>
      <g transform="translate(107.269149 254.356562)scale(0.1 -0.1)">
       <use xlink:href="#DejaVuSans-49"/>
       <use x="63.623047" xlink:href="#DejaVuSans-48"/>
       <use x="127.246094" xlink:href="#DejaVuSans-48"/>
       <use x="190.869141" xlink:href="#DejaVuSans-48"/>
      </g>
     </g>
    </g>
    <g id="xtick_3">
     <g id="line2d_3">
      <g>
       <use style="stroke:#000000;stroke-width:0.8;" x="180.988865" xlink:href="#mc2e7473c44" y="239.758125"/>
      </g>
     </g>
     <g id="text_3">
      <!-- 2000 -->
      <defs>
       <path d="M 19.1875 8.296875 
L 53.609375 8.296875 
L 53.609375 0 
L 7.328125 0 
L 7.328125 8.296875 
Q 12.9375 14.109375 22.625 23.890625 
Q 32.328125 33.6875 34.8125 36.53125 
Q 39.546875 41.84375 41.421875 45.53125 
Q 43.3125 49.21875 43.3125 52.78125 
Q 43.3125 58.59375 39.234375 62.25 
Q 35.15625 65.921875 28.609375 65.921875 
Q 23.96875 65.921875 18.8125 64.3125 
Q 13.671875 62.703125 7.8125 59.421875 
L 7.8125 69.390625 
Q 13.765625 71.78125 18.9375 73 
Q 24.125 74.21875 28.421875 74.21875 
Q 39.75 74.21875 46.484375 68.546875 
Q 53.21875 62.890625 53.21875 53.421875 
Q 53.21875 48.921875 51.53125 44.890625 
Q 49.859375 40.875 45.40625 35.40625 
Q 44.1875 33.984375 37.640625 27.21875 
Q 31.109375 20.453125 19.1875 8.296875 
z
" id="DejaVuSans-50"/>
      </defs>
      <g transform="translate(168.263865 254.356562)scale(0.1 -0.1)">
       <use xlink:href="#DejaVuSans-50"/>
       <use x="63.623047" xlink:href="#DejaVuSans-48"/>
       <use x="127.246094" xlink:href="#DejaVuSans-48"/>
       <use x="190.869141" xlink:href="#DejaVuSans-48"/>
      </g>
     </g>
    </g>
    <g id="xtick_4">
     <g id="line2d_4">
      <g>
       <use style="stroke:#000000;stroke-width:0.8;" x="241.983582" xlink:href="#mc2e7473c44" y="239.758125"/>
      </g>
     </g>
     <g id="text_4">
      <!-- 3000 -->
      <defs>
       <path d="M 40.578125 39.3125 
Q 47.65625 37.796875 51.625 33 
Q 55.609375 28.21875 55.609375 21.1875 
Q 55.609375 10.40625 48.1875 4.484375 
Q 40.765625 -1.421875 27.09375 -1.421875 
Q 22.515625 -1.421875 17.65625 -0.515625 
Q 12.796875 0.390625 7.625 2.203125 
L 7.625 11.71875 
Q 11.71875 9.328125 16.59375 8.109375 
Q 21.484375 6.890625 26.8125 6.890625 
Q 36.078125 6.890625 40.9375 10.546875 
Q 45.796875 14.203125 45.796875 21.1875 
Q 45.796875 27.640625 41.28125 31.265625 
Q 36.765625 34.90625 28.71875 34.90625 
L 20.21875 34.90625 
L 20.21875 43.015625 
L 29.109375 43.015625 
Q 36.375 43.015625 40.234375 45.921875 
Q 44.09375 48.828125 44.09375 54.296875 
Q 44.09375 59.90625 40.109375 62.90625 
Q 36.140625 65.921875 28.71875 65.921875 
Q 24.65625 65.921875 20.015625 65.03125 
Q 15.375 64.15625 9.8125 62.3125 
L 9.8125 71.09375 
Q 15.4375 72.65625 20.34375 73.4375 
Q 25.25 74.21875 29.59375 74.21875 
Q 40.828125 74.21875 47.359375 69.109375 
Q 53.90625 64.015625 53.90625 55.328125 
Q 53.90625 49.265625 50.4375 45.09375 
Q 46.96875 40.921875 40.578125 39.3125 
z
" id="DejaVuSans-51"/>
      </defs>
      <g transform="translate(229.258582 254.356562)scale(0.1 -0.1)">
       <use xlink:href="#DejaVuSans-51"/>
       <use x="63.623047" xlink:href="#DejaVuSans-48"/>
       <use x="127.246094" xlink:href="#DejaVuSans-48"/>
       <use x="190.869141" xlink:href="#DejaVuSans-48"/>
      </g>
     </g>
    </g>
    <g id="xtick_5">
     <g id="line2d_5">
      <g>
       <use style="stroke:#000000;stroke-width:0.8;" x="302.978299" xlink:href="#mc2e7473c44" y="239.758125"/>
      </g>
     </g>
     <g id="text_5">
      <!-- 4000 -->
      <defs>
       <path d="M 37.796875 64.3125 
L 12.890625 25.390625 
L 37.796875 25.390625 
z
M 35.203125 72.90625 
L 47.609375 72.90625 
L 47.609375 25.390625 
L 58.015625 25.390625 
L 58.015625 17.1875 
L 47.609375 17.1875 
L 47.609375 0 
L 37.796875 0 
L 37.796875 17.1875 
L 4.890625 17.1875 
L 4.890625 26.703125 
z
" id="DejaVuSans-52"/>
      </defs>
      <g transform="translate(290.253299 254.356562)scale(0.1 -0.1)">
       <use xlink:href="#DejaVuSans-52"/>
       <use x="63.623047" xlink:href="#DejaVuSans-48"/>
       <use x="127.246094" xlink:href="#DejaVuSans-48"/>
       <use x="190.869141" xlink:href="#DejaVuSans-48"/>
      </g>
     </g>
    </g>
    <g id="xtick_6">
     <g id="line2d_6">
      <g>
       <use style="stroke:#000000;stroke-width:0.8;" x="363.973015" xlink:href="#mc2e7473c44" y="239.758125"/>
      </g>
     </g>
     <g id="text_6">
      <!-- 5000 -->
      <defs>
       <path d="M 10.796875 72.90625 
L 49.515625 72.90625 
L 49.515625 64.59375 
L 19.828125 64.59375 
L 19.828125 46.734375 
Q 21.96875 47.46875 24.109375 47.828125 
Q 26.265625 48.1875 28.421875 48.1875 
Q 40.625 48.1875 47.75 41.5 
Q 54.890625 34.8125 54.890625 23.390625 
Q 54.890625 11.625 47.5625 5.09375 
Q 40.234375 -1.421875 26.90625 -1.421875 
Q 22.3125 -1.421875 17.546875 -0.640625 
Q 12.796875 0.140625 7.71875 1.703125 
L 7.71875 11.625 
Q 12.109375 9.234375 16.796875 8.0625 
Q 21.484375 6.890625 26.703125 6.890625 
Q 35.15625 6.890625 40.078125 11.328125 
Q 45.015625 15.765625 45.015625 23.390625 
Q 45.015625 31 40.078125 35.4375 
Q 35.15625 39.890625 26.703125 39.890625 
Q 22.75 39.890625 18.8125 39.015625 
Q 14.890625 38.140625 10.796875 36.28125 
z
" id="DejaVuSans-53"/>
      </defs>
      <g transform="translate(351.248015 254.356562)scale(0.1 -0.1)">
       <use xlink:href="#DejaVuSans-53"/>
       <use x="63.623047" xlink:href="#DejaVuSans-48"/>
       <use x="127.246094" xlink:href="#DejaVuSans-48"/>
       <use x="190.869141" xlink:href="#DejaVuSans-48"/>
      </g>
     </g>
    </g>
    <g id="text_7">
     <!-- count -->
     <defs>
      <path d="M 48.78125 52.59375 
L 48.78125 44.1875 
Q 44.96875 46.296875 41.140625 47.34375 
Q 37.3125 48.390625 33.40625 48.390625 
Q 24.65625 48.390625 19.8125 42.84375 
Q 14.984375 37.3125 14.984375 27.296875 
Q 14.984375 17.28125 19.8125 11.734375 
Q 24.65625 6.203125 33.40625 6.203125 
Q 37.3125 6.203125 41.140625 7.25 
Q 44.96875 8.296875 48.78125 10.40625 
L 48.78125 2.09375 
Q 45.015625 0.34375 40.984375 -0.53125 
Q 36.96875 -1.421875 32.421875 -1.421875 
Q 20.0625 -1.421875 12.78125 6.34375 
Q 5.515625 14.109375 5.515625 27.296875 
Q 5.515625 40.671875 12.859375 48.328125 
Q 20.21875 56 33.015625 56 
Q 37.15625 56 41.109375 55.140625 
Q 45.0625 54.296875 48.78125 52.59375 
z
" id="DejaVuSans-99"/>
      <path d="M 30.609375 48.390625 
Q 23.390625 48.390625 19.1875 42.75 
Q 14.984375 37.109375 14.984375 27.296875 
Q 14.984375 17.484375 19.15625 11.84375 
Q 23.34375 6.203125 30.609375 6.203125 
Q 37.796875 6.203125 41.984375 11.859375 
Q 46.1875 17.53125 46.1875 27.296875 
Q 46.1875 37.015625 41.984375 42.703125 
Q 37.796875 48.390625 30.609375 48.390625 
z
M 30.609375 56 
Q 42.328125 56 49.015625 48.375 
Q 55.71875 40.765625 55.71875 27.296875 
Q 55.71875 13.875 49.015625 6.21875 
Q 42.328125 -1.421875 30.609375 -1.421875 
Q 18.84375 -1.421875 12.171875 6.21875 
Q 5.515625 13.875 5.515625 27.296875 
Q 5.515625 40.765625 12.171875 48.375 
Q 18.84375 56 30.609375 56 
z
" id="DejaVuSans-111"/>
      <path d="M 8.5 21.578125 
L 8.5 54.6875 
L 17.484375 54.6875 
L 17.484375 21.921875 
Q 17.484375 14.15625 20.5 10.265625 
Q 23.53125 6.390625 29.59375 6.390625 
Q 36.859375 6.390625 41.078125 11.03125 
Q 45.3125 15.671875 45.3125 23.6875 
L 45.3125 54.6875 
L 54.296875 54.6875 
L 54.296875 0 
L 45.3125 0 
L 45.3125 8.40625 
Q 42.046875 3.421875 37.71875 1 
Q 33.40625 -1.421875 27.6875 -1.421875 
Q 18.265625 -1.421875 13.375 4.4375 
Q 8.5 10.296875 8.5 21.578125 
z
M 31.109375 56 
z
" id="DejaVuSans-117"/>
      <path d="M 54.890625 33.015625 
L 54.890625 0 
L 45.90625 0 
L 45.90625 32.71875 
Q 45.90625 40.484375 42.875 44.328125 
Q 39.84375 48.1875 33.796875 48.1875 
Q 26.515625 48.1875 22.3125 43.546875 
Q 18.109375 38.921875 18.109375 30.90625 
L 18.109375 0 
L 9.078125 0 
L 9.078125 54.6875 
L 18.109375 54.6875 
L 18.109375 46.1875 
Q 21.34375 51.125 25.703125 53.5625 
Q 30.078125 56 35.796875 56 
Q 45.21875 56 50.046875 50.171875 
Q 54.890625 44.34375 54.890625 33.015625 
z
" id="DejaVuSans-110"/>
      <path d="M 18.3125 70.21875 
L 18.3125 54.6875 
L 36.8125 54.6875 
L 36.8125 47.703125 
L 18.3125 47.703125 
L 18.3125 18.015625 
Q 18.3125 11.328125 20.140625 9.421875 
Q 21.96875 7.515625 27.59375 7.515625 
L 36.8125 7.515625 
L 36.8125 0 
L 27.59375 0 
Q 17.1875 0 13.234375 3.875 
Q 9.28125 7.765625 9.28125 18.015625 
L 9.28125 47.703125 
L 2.6875 47.703125 
L 2.6875 54.6875 
L 9.28125 54.6875 
L 9.28125 70.21875 
z
" id="DejaVuSans-116"/>
     </defs>
     <g transform="translate(197.075 268.034687)scale(0.1 -0.1)">
      <use xlink:href="#DejaVuSans-99"/>
      <use x="54.980469" xlink:href="#DejaVuSans-111"/>
      <use x="116.162109" xlink:href="#DejaVuSans-117"/>
      <use x="179.541016" xlink:href="#DejaVuSans-110"/>
      <use x="242.919922" xlink:href="#DejaVuSans-116"/>
     </g>
    </g>
   </g>
   <g id="matplotlib.axis_2">
    <g id="ytick_1">
     <g id="line2d_7">
      <defs>
       <path d="M 0 0 
L -3.5 0 
" id="md6c0d7a8c7" style="stroke:#000000;stroke-width:0.8;"/>
      </defs>
      <g>
       <use style="stroke:#000000;stroke-width:0.8;" x="43.78125" xlink:href="#md6c0d7a8c7" y="239.758125"/>
      </g>
     </g>
     <g id="text_8">
      <!-- 0.0 -->
      <defs>
       <path d="M 10.6875 12.40625 
L 21 12.40625 
L 21 0 
L 10.6875 0 
z
" id="DejaVuSans-46"/>
      </defs>
      <g transform="translate(20.878125 243.557344)scale(0.1 -0.1)">
       <use xlink:href="#DejaVuSans-48"/>
       <use x="63.623047" xlink:href="#DejaVuSans-46"/>
       <use x="95.410156" xlink:href="#DejaVuSans-48"/>
      </g>
     </g>
    </g>
    <g id="ytick_2">
     <g id="line2d_8">
      <g>
       <use style="stroke:#000000;stroke-width:0.8;" x="43.78125" xlink:href="#md6c0d7a8c7" y="196.270125"/>
      </g>
     </g>
     <g id="text_9">
      <!-- 0.2 -->
      <g transform="translate(20.878125 200.069344)scale(0.1 -0.1)">
       <use xlink:href="#DejaVuSans-48"/>
       <use x="63.623047" xlink:href="#DejaVuSans-46"/>
       <use x="95.410156" xlink:href="#DejaVuSans-50"/>
      </g>
     </g>
    </g>
    <g id="ytick_3">
     <g id="line2d_9">
      <g>
       <use style="stroke:#000000;stroke-width:0.8;" x="43.78125" xlink:href="#md6c0d7a8c7" y="152.782125"/>
      </g>
     </g>
     <g id="text_10">
      <!-- 0.4 -->
      <g transform="translate(20.878125 156.581344)scale(0.1 -0.1)">
       <use xlink:href="#DejaVuSans-48"/>
       <use x="63.623047" xlink:href="#DejaVuSans-46"/>
       <use x="95.410156" xlink:href="#DejaVuSans-52"/>
      </g>
     </g>
    </g>
    <g id="ytick_4">
     <g id="line2d_10">
      <g>
       <use style="stroke:#000000;stroke-width:0.8;" x="43.78125" xlink:href="#md6c0d7a8c7" y="109.294125"/>
      </g>
     </g>
     <g id="text_11">
      <!-- 0.6 -->
      <defs>
       <path d="M 33.015625 40.375 
Q 26.375 40.375 22.484375 35.828125 
Q 18.609375 31.296875 18.609375 23.390625 
Q 18.609375 15.53125 22.484375 10.953125 
Q 26.375 6.390625 33.015625 6.390625 
Q 39.65625 6.390625 43.53125 10.953125 
Q 47.40625 15.53125 47.40625 23.390625 
Q 47.40625 31.296875 43.53125 35.828125 
Q 39.65625 40.375 33.015625 40.375 
z
M 52.59375 71.296875 
L 52.59375 62.3125 
Q 48.875 64.0625 45.09375 64.984375 
Q 41.3125 65.921875 37.59375 65.921875 
Q 27.828125 65.921875 22.671875 59.328125 
Q 17.53125 52.734375 16.796875 39.40625 
Q 19.671875 43.65625 24.015625 45.921875 
Q 28.375 48.1875 33.59375 48.1875 
Q 44.578125 48.1875 50.953125 41.515625 
Q 57.328125 34.859375 57.328125 23.390625 
Q 57.328125 12.15625 50.6875 5.359375 
Q 44.046875 -1.421875 33.015625 -1.421875 
Q 20.359375 -1.421875 13.671875 8.265625 
Q 6.984375 17.96875 6.984375 36.375 
Q 6.984375 53.65625 15.1875 63.9375 
Q 23.390625 74.21875 37.203125 74.21875 
Q 40.921875 74.21875 44.703125 73.484375 
Q 48.484375 72.75 52.59375 71.296875 
z
" id="DejaVuSans-54"/>
      </defs>
      <g transform="translate(20.878125 113.093344)scale(0.1 -0.1)">
       <use xlink:href="#DejaVuSans-48"/>
       <use x="63.623047" xlink:href="#DejaVuSans-46"/>
       <use x="95.410156" xlink:href="#DejaVuSans-54"/>
      </g>
     </g>
    </g>
    <g id="ytick_5">
     <g id="line2d_11">
      <g>
       <use style="stroke:#000000;stroke-width:0.8;" x="43.78125" xlink:href="#md6c0d7a8c7" y="65.806125"/>
      </g>
     </g>
     <g id="text_12">
      <!-- 0.8 -->
      <defs>
       <path d="M 31.78125 34.625 
Q 24.75 34.625 20.71875 30.859375 
Q 16.703125 27.09375 16.703125 20.515625 
Q 16.703125 13.921875 20.71875 10.15625 
Q 24.75 6.390625 31.78125 6.390625 
Q 38.8125 6.390625 42.859375 10.171875 
Q 46.921875 13.96875 46.921875 20.515625 
Q 46.921875 27.09375 42.890625 30.859375 
Q 38.875 34.625 31.78125 34.625 
z
M 21.921875 38.8125 
Q 15.578125 40.375 12.03125 44.71875 
Q 8.5 49.078125 8.5 55.328125 
Q 8.5 64.0625 14.71875 69.140625 
Q 20.953125 74.21875 31.78125 74.21875 
Q 42.671875 74.21875 48.875 69.140625 
Q 55.078125 64.0625 55.078125 55.328125 
Q 55.078125 49.078125 51.53125 44.71875 
Q 48 40.375 41.703125 38.8125 
Q 48.828125 37.15625 52.796875 32.3125 
Q 56.78125 27.484375 56.78125 20.515625 
Q 56.78125 9.90625 50.3125 4.234375 
Q 43.84375 -1.421875 31.78125 -1.421875 
Q 19.734375 -1.421875 13.25 4.234375 
Q 6.78125 9.90625 6.78125 20.515625 
Q 6.78125 27.484375 10.78125 32.3125 
Q 14.796875 37.15625 21.921875 38.8125 
z
M 18.3125 54.390625 
Q 18.3125 48.734375 21.84375 45.5625 
Q 25.390625 42.390625 31.78125 42.390625 
Q 38.140625 42.390625 41.71875 45.5625 
Q 45.3125 48.734375 45.3125 54.390625 
Q 45.3125 60.0625 41.71875 63.234375 
Q 38.140625 66.40625 31.78125 66.40625 
Q 25.390625 66.40625 21.84375 63.234375 
Q 18.3125 60.0625 18.3125 54.390625 
z
" id="DejaVuSans-56"/>
      </defs>
      <g transform="translate(20.878125 69.605344)scale(0.1 -0.1)">
       <use xlink:href="#DejaVuSans-48"/>
       <use x="63.623047" xlink:href="#DejaVuSans-46"/>
       <use x="95.410156" xlink:href="#DejaVuSans-56"/>
      </g>
     </g>
    </g>
    <g id="ytick_6">
     <g id="line2d_12">
      <g>
       <use style="stroke:#000000;stroke-width:0.8;" x="43.78125" xlink:href="#md6c0d7a8c7" y="22.318125"/>
      </g>
     </g>
     <g id="text_13">
      <!-- 1.0 -->
      <g transform="translate(20.878125 26.117344)scale(0.1 -0.1)">
       <use xlink:href="#DejaVuSans-49"/>
       <use x="63.623047" xlink:href="#DejaVuSans-46"/>
       <use x="95.410156" xlink:href="#DejaVuSans-48"/>
      </g>
     </g>
    </g>
    <g id="text_14">
     <!-- accuracy -->
     <defs>
      <path d="M 34.28125 27.484375 
Q 23.390625 27.484375 19.1875 25 
Q 14.984375 22.515625 14.984375 16.5 
Q 14.984375 11.71875 18.140625 8.90625 
Q 21.296875 6.109375 26.703125 6.109375 
Q 34.1875 6.109375 38.703125 11.40625 
Q 43.21875 16.703125 43.21875 25.484375 
L 43.21875 27.484375 
z
M 52.203125 31.203125 
L 52.203125 0 
L 43.21875 0 
L 43.21875 8.296875 
Q 40.140625 3.328125 35.546875 0.953125 
Q 30.953125 -1.421875 24.3125 -1.421875 
Q 15.921875 -1.421875 10.953125 3.296875 
Q 6 8.015625 6 15.921875 
Q 6 25.140625 12.171875 29.828125 
Q 18.359375 34.515625 30.609375 34.515625 
L 43.21875 34.515625 
L 43.21875 35.40625 
Q 43.21875 41.609375 39.140625 45 
Q 35.0625 48.390625 27.6875 48.390625 
Q 23 48.390625 18.546875 47.265625 
Q 14.109375 46.140625 10.015625 43.890625 
L 10.015625 52.203125 
Q 14.9375 54.109375 19.578125 55.046875 
Q 24.21875 56 28.609375 56 
Q 40.484375 56 46.34375 49.84375 
Q 52.203125 43.703125 52.203125 31.203125 
z
" id="DejaVuSans-97"/>
      <path d="M 41.109375 46.296875 
Q 39.59375 47.171875 37.8125 47.578125 
Q 36.03125 48 33.890625 48 
Q 26.265625 48 22.1875 43.046875 
Q 18.109375 38.09375 18.109375 28.8125 
L 18.109375 0 
L 9.078125 0 
L 9.078125 54.6875 
L 18.109375 54.6875 
L 18.109375 46.1875 
Q 20.953125 51.171875 25.484375 53.578125 
Q 30.03125 56 36.53125 56 
Q 37.453125 56 38.578125 55.875 
Q 39.703125 55.765625 41.0625 55.515625 
z
" id="DejaVuSans-114"/>
      <path d="M 32.171875 -5.078125 
Q 28.375 -14.84375 24.75 -17.8125 
Q 21.140625 -20.796875 15.09375 -20.796875 
L 7.90625 -20.796875 
L 7.90625 -13.28125 
L 13.1875 -13.28125 
Q 16.890625 -13.28125 18.9375 -11.515625 
Q 21 -9.765625 23.484375 -3.21875 
L 25.09375 0.875 
L 2.984375 54.6875 
L 12.5 54.6875 
L 29.59375 11.921875 
L 46.6875 54.6875 
L 56.203125 54.6875 
z
" id="DejaVuSans-121"/>
     </defs>
     <g transform="translate(14.798438 153.5975)rotate(-90)scale(0.1 -0.1)">
      <use xlink:href="#DejaVuSans-97"/>
      <use x="61.279297" xlink:href="#DejaVuSans-99"/>
      <use x="116.259766" xlink:href="#DejaVuSans-99"/>
      <use x="171.240234" xlink:href="#DejaVuSans-117"/>
      <use x="234.619141" xlink:href="#DejaVuSans-114"/>
      <use x="275.732422" xlink:href="#DejaVuSans-97"/>
      <use x="337.011719" xlink:href="#DejaVuSans-99"/>
      <use x="391.992188" xlink:href="#DejaVuSans-121"/>
     </g>
    </g>
   </g>
   <g id="line2d_13">
    <path clip-path="url(#p5b07738e4b)" d="M 58.999432 215.839725 
L 59.609379 212.215725 
L 60.219326 210.041325 
L 62.049168 195.545325 
L 62.659115 196.994925 
L 63.269062 196.994925 
L 63.879009 199.894125 
L 64.488956 198.444525 
L 65.098903 196.270125 
L 65.708851 196.994925 
L 66.318798 195.545325 
L 66.928745 194.820525 
L 67.538692 199.894125 
L 68.148639 194.820525 
L 68.758586 193.370925 
L 69.368534 193.370925 
L 69.978481 194.095725 
L 70.588428 191.921325 
L 71.198375 186.847725 
L 71.808322 188.297325 
L 72.418269 186.122925 
L 73.028217 184.673325 
L 73.638164 184.673325 
L 74.248111 186.122925 
L 74.858058 183.223725 
L 75.468005 179.599725 
L 76.077952 175.250925 
L 76.6879 176.700525 
L 77.297847 176.700525 
L 77.907794 175.975725 
L 78.517741 174.526125 
L 79.127688 172.351725 
L 79.737635 171.626925 
L 80.347583 171.626925 
L 80.95753 170.902125 
L 82.177424 165.103725 
L 82.787371 164.378925 
L 83.397319 162.929325 
L 84.617213 158.580525 
L 85.22716 154.956525 
L 86.447054 156.406125 
L 87.057002 158.580525 
L 87.666949 154.956525 
L 88.276896 153.506925 
L 88.886843 153.506925 
L 89.49679 154.231725 
L 90.106737 151.332525 
L 90.716685 152.057325 
L 91.326632 149.882925 
L 91.936579 149.882925 
L 92.546526 147.708525 
L 93.156473 146.258925 
L 93.76642 146.983725 
L 94.376368 146.258925 
L 94.986315 143.359725 
L 95.596262 144.809325 
L 96.206209 137.561325 
L 96.816156 137.561325 
L 98.036051 136.111725 
L 98.645998 136.836525 
L 99.255945 143.359725 
L 99.865892 141.910125 
L 100.475839 141.910125 
L 101.085786 143.359725 
L 101.695734 140.460525 
L 102.305681 138.286125 
L 102.915628 135.386925 
L 103.525575 136.836525 
L 104.135522 136.836525 
L 104.745469 138.286125 
L 105.355417 137.561325 
L 105.965364 136.111725 
L 106.575311 137.561325 
L 107.185258 138.286125 
L 108.405152 138.286125 
L 109.0151 136.836525 
L 109.625047 138.286125 
L 110.234994 138.286125 
L 110.844941 139.010925 
L 111.454888 137.561325 
L 112.064835 138.286125 
L 112.674783 137.561325 
L 113.28473 137.561325 
L 113.894677 136.111725 
L 114.504624 137.561325 
L 115.114571 136.836525 
L 116.334466 136.836525 
L 116.944413 136.111725 
L 117.55436 136.836525 
L 118.164307 135.386925 
L 118.774254 135.386925 
L 119.384201 136.111725 
L 120.604096 134.662125 
L 121.214043 132.487725 
L 121.82399 128.863725 
L 122.433937 131.038125 
L 123.043884 131.038125 
L 123.653832 130.313325 
L 124.263779 132.487725 
L 124.873726 131.038125 
L 125.483673 131.038125 
L 126.09362 131.762925 
L 126.703567 128.863725 
L 127.923462 125.964525 
L 128.533409 127.414125 
L 129.143356 126.689325 
L 129.753303 126.689325 
L 130.36325 127.414125 
L 131.583145 125.964525 
L 132.193092 125.964525 
L 132.803039 127.414125 
L 134.022933 124.514925 
L 134.632881 125.239725 
L 135.852775 125.239725 
L 136.462722 125.964525 
L 137.072669 124.514925 
L 137.682616 121.615725 
L 138.292564 123.065325 
L 139.512458 120.166125 
L 140.122405 120.166125 
L 140.732352 119.441325 
L 141.952247 119.441325 
L 142.562194 117.266925 
L 143.172141 116.542125 
L 143.782088 115.092525 
L 144.392035 115.817325 
L 145.001982 118.716525 
L 145.61193 116.542125 
L 146.221877 116.542125 
L 146.831824 115.817325 
L 147.441771 115.817325 
L 148.051718 116.542125 
L 148.661665 116.542125 
L 149.271613 118.716525 
L 149.88156 117.991725 
L 150.491507 118.716525 
L 151.101454 120.890925 
L 151.711401 119.441325 
L 152.321348 120.166125 
L 153.541243 120.166125 
L 154.15119 120.890925 
L 154.761137 120.166125 
L 155.371084 122.340525 
L 156.590979 119.441325 
L 157.200926 118.716525 
L 157.810873 119.441325 
L 158.42082 118.716525 
L 159.030767 120.166125 
L 159.640714 117.266925 
L 160.250662 112.193325 
L 160.860609 110.018925 
L 162.69045 105.670125 
L 164.520292 105.670125 
L 165.130239 107.119725 
L 165.740186 107.119725 
L 166.350133 104.945325 
L 166.96008 104.945325 
L 167.570028 105.670125 
L 168.179975 104.945325 
L 168.789922 104.945325 
L 169.399869 104.220525 
L 170.009816 106.394925 
L 170.619763 102.770925 
L 171.229711 102.770925 
L 171.839658 101.321325 
L 172.449605 100.596525 
L 173.059552 102.046125 
L 173.669499 102.770925 
L 174.279446 102.770925 
L 174.889394 100.596525 
L 175.499341 105.670125 
L 176.109288 102.770925 
L 176.719235 102.770925 
L 177.329182 100.596525 
L 178.549077 99.146925 
L 179.768971 94.798125 
L 180.988865 93.348525 
L 181.598812 96.247725 
L 182.20876 92.623725 
L 182.818707 92.623725 
L 183.428654 91.898925 
L 184.648548 91.898925 
L 185.258495 94.073325 
L 185.868443 91.898925 
L 187.088337 90.449325 
L 187.698284 88.274925 
L 188.308231 88.274925 
L 188.918178 89.724525 
L 189.528126 92.623725 
L 190.74802 96.972525 
L 191.357967 94.073325 
L 191.967914 92.623725 
L 192.577861 94.798125 
L 193.187809 89.724525 
L 193.797756 86.825325 
L 194.407703 86.825325 
L 195.01765 92.623725 
L 195.627597 85.375725 
L 196.237544 88.999725 
L 196.847492 87.550125 
L 197.457439 85.375725 
L 198.067386 84.650925 
L 198.677333 83.201325 
L 199.28728 86.100525 
L 199.897227 87.550125 
L 201.117122 84.650925 
L 201.727069 81.026925 
L 202.337016 79.577325 
L 202.946963 83.201325 
L 203.55691 83.201325 
L 204.166858 80.302125 
L 204.776805 78.852525 
L 205.996699 80.302125 
L 206.606646 78.852525 
L 207.216593 76.678125 
L 207.826541 75.953325 
L 208.436488 76.678125 
L 209.046435 75.953325 
L 209.656382 76.678125 
L 210.266329 76.678125 
L 210.876276 79.577325 
L 211.486224 76.678125 
L 212.096171 75.953325 
L 212.706118 70.154925 
L 213.316065 71.604525 
L 213.926012 68.705325 
L 214.535959 67.255725 
L 215.145907 69.430125 
L 215.755854 70.154925 
L 216.365801 69.430125 
L 216.975748 66.530925 
L 217.585695 69.430125 
L 218.80559 72.329325 
L 219.415537 74.503725 
L 220.025484 69.430125 
L 220.635431 70.879725 
L 221.245378 67.255725 
L 221.855325 65.806125 
L 222.465273 67.255725 
L 223.07522 66.530925 
L 223.685167 63.631725 
L 224.295114 67.255725 
L 225.515008 64.356525 
L 226.124956 65.081325 
L 226.734903 63.631725 
L 227.34485 63.631725 
L 227.954797 62.906925 
L 228.564744 67.255725 
L 229.174691 64.356525 
L 229.784639 65.806125 
L 230.394586 65.806125 
L 231.004533 63.631725 
L 231.61448 63.631725 
L 232.224427 58.558125 
L 232.834374 59.282925 
L 233.444322 56.383725 
L 234.054269 58.558125 
L 234.664216 59.282925 
L 235.88411 57.833325 
L 236.494057 59.282925 
L 237.104005 58.558125 
L 237.713952 58.558125 
L 238.323899 57.108525 
L 238.933846 57.108525 
L 239.543793 59.282925 
L 240.15374 55.658925 
L 241.373635 55.658925 
L 241.983582 58.558125 
L 242.593529 59.282925 
L 243.813423 54.934125 
L 245.643265 57.108525 
L 246.253212 57.108525 
L 246.863159 57.833325 
L 247.473106 56.383725 
L 248.083054 57.108525 
L 248.693001 55.658925 
L 249.302948 53.484525 
L 249.912895 54.209325 
L 250.522842 56.383725 
L 251.132789 52.034925 
L 251.742737 52.759725 
L 252.352684 56.383725 
L 252.962631 52.034925 
L 253.572578 51.310125 
L 254.792472 55.658925 
L 255.40242 54.209325 
L 256.622314 54.209325 
L 257.232261 51.310125 
L 257.842208 51.310125 
L 258.452155 49.860525 
L 259.062103 49.135725 
L 259.67205 52.759725 
L 260.281997 48.410925 
L 260.891944 50.585325 
L 261.501891 49.860525 
L 262.111838 52.759725 
L 262.721786 54.934125 
L 263.331733 49.135725 
L 263.94168 50.585325 
L 264.551627 48.410925 
L 265.161574 50.585325 
L 265.771521 48.410925 
L 266.381469 47.686125 
L 266.991416 54.209325 
L 267.601363 49.135725 
L 268.21131 49.135725 
L 268.821257 48.410925 
L 269.431204 49.135725 
L 270.041152 49.135725 
L 270.651099 49.860525 
L 271.261046 47.686125 
L 271.870993 46.961325 
L 272.48094 47.686125 
L 273.090887 53.484525 
L 273.700835 48.410925 
L 274.310782 47.686125 
L 274.920729 49.135725 
L 275.530676 46.961325 
L 276.140623 48.410925 
L 276.75057 50.585325 
L 277.360518 49.135725 
L 277.970465 50.585325 
L 278.580412 49.135725 
L 279.190359 53.484525 
L 279.800306 49.135725 
L 280.410253 48.410925 
L 282.240095 50.585325 
L 282.850042 49.860525 
L 283.459989 46.961325 
L 284.069936 45.511725 
L 284.679884 46.236525 
L 285.289831 45.511725 
L 285.899778 45.511725 
L 286.509725 48.410925 
L 287.119672 46.236525 
L 288.339567 46.236525 
L 288.949514 45.511725 
L 290.169408 45.511725 
L 290.779355 44.786925 
L 291.389302 49.135725 
L 291.99925 47.686125 
L 292.609197 45.511725 
L 293.219144 51.310125 
L 293.829091 44.786925 
L 294.439038 46.961325 
L 295.048985 44.786925 
L 296.26888 44.786925 
L 296.878827 46.236525 
L 297.488774 45.511725 
L 298.098721 50.585325 
L 298.708668 44.786925 
L 299.318616 44.062125 
L 299.928563 44.062125 
L 300.53851 43.337325 
L 301.148457 43.337325 
L 301.758404 44.062125 
L 302.368351 45.511725 
L 302.978299 46.236525 
L 303.588246 45.511725 
L 304.198193 42.612525 
L 304.80814 40.438125 
L 306.028034 41.887725 
L 306.637982 41.162925 
L 307.857876 41.162925 
L 308.467823 40.438125 
L 309.07777 41.887725 
L 309.687717 39.713325 
L 310.297665 40.438125 
L 310.907612 40.438125 
L 311.517559 38.263725 
L 312.127506 38.988525 
L 312.737453 38.263725 
L 313.3474 38.263725 
L 313.957348 43.337325 
L 314.567295 36.814125 
L 315.787189 39.713325 
L 316.397136 36.814125 
L 317.007083 38.988525 
L 317.617031 37.538925 
L 318.226978 37.538925 
L 318.836925 36.814125 
L 319.446872 35.364525 
L 320.056819 36.814125 
L 320.666766 36.814125 
L 321.276714 35.364525 
L 321.886661 36.089325 
L 322.496608 36.089325 
L 323.106555 34.639725 
L 323.716502 36.089325 
L 324.326449 36.814125 
L 324.936397 38.263725 
L 325.546344 38.988525 
L 326.156291 32.465325 
L 327.376185 36.814125 
L 327.986132 34.639725 
L 328.59608 33.914925 
L 329.206027 33.914925 
L 329.815974 32.465325 
L 330.425921 31.740525 
L 331.035868 33.190125 
L 331.645815 32.465325 
L 332.86571 32.465325 
L 333.475657 33.190125 
L 334.085604 35.364525 
L 334.695551 33.914925 
L 335.305498 33.190125 
L 335.915446 34.639725 
L 337.13534 31.740525 
L 339.575129 31.740525 
L 340.185076 31.015725 
L 340.795023 31.015725 
L 341.40497 28.841325 
L 343.844759 28.841325 
L 344.454706 29.566125 
L 345.064653 29.566125 
L 345.6746 28.841325 
L 346.284548 30.290925 
L 346.894495 29.566125 
L 347.504442 30.290925 
L 348.724336 28.841325 
L 349.334283 29.566125 
L 349.944231 28.841325 
L 350.554178 28.841325 
L 351.164125 26.666925 
L 351.774072 28.841325 
L 352.384019 27.391725 
L 352.993966 28.841325 
L 353.603914 27.391725 
L 354.213861 27.391725 
L 354.823808 26.666925 
L 355.433755 27.391725 
L 356.043702 26.666925 
L 356.653649 26.666925 
L 357.263597 27.391725 
L 357.873544 26.666925 
L 358.483491 26.666925 
L 359.093438 27.391725 
L 359.703385 26.666925 
L 360.92328 26.666925 
L 361.533227 25.942125 
L 362.753121 25.942125 
L 363.363068 26.666925 
L 363.363068 26.666925 
" style="fill:none;stroke:#1f77b4;stroke-linecap:square;stroke-width:1.5;"/>
   </g>
   <g id="line2d_14">
    <path clip-path="url(#p5b07738e4b)" d="M 58.999432 213.360909 
L 59.609379 212.382429 
L 60.829273 209.599197 
L 61.43922 209.207805 
L 62.049168 207.055149 
L 62.659115 207.142125 
L 63.269062 206.424573 
L 63.879009 207.250845 
L 65.708851 204.380637 
L 66.318798 206.250621 
L 66.928745 204.184941 
L 67.538692 204.532845 
L 68.758586 202.423677 
L 69.368534 202.141005 
L 69.978481 201.619149 
L 70.588428 200.684157 
L 71.198375 197.987901 
L 71.808322 196.987677 
L 72.418269 195.530829 
L 73.028217 195.552573 
L 73.638164 193.312941 
L 74.248111 194.182701 
L 74.858058 191.964813 
L 75.468005 191.551677 
L 76.077952 188.355309 
L 76.6879 188.311821 
L 77.297847 186.724509 
L 77.907794 185.941725 
L 78.517741 184.702317 
L 79.127688 183.745581 
L 79.737635 183.615117 
L 80.347583 183.897789 
L 80.95753 180.962349 
L 81.567477 181.310253 
L 82.177424 178.961901 
L 82.787371 178.244349 
L 83.397319 178.222605 
L 84.617213 174.852285 
L 85.22716 174.743565 
L 85.837107 176.069949 
L 86.447054 176.200413 
L 87.057002 177.483309 
L 87.666949 173.134509 
L 88.276896 172.286493 
L 88.886843 171.742893 
L 89.49679 172.764861 
L 90.106737 171.329757 
L 90.716685 169.394541 
L 91.326632 169.481517 
L 91.936579 170.046861 
L 92.546526 170.438253 
L 93.156473 168.394317 
L 93.76642 168.698733 
L 94.376368 167.241885 
L 94.986315 167.220141 
L 95.596262 165.958989 
L 96.206209 164.393421 
L 96.816156 165.045741 
L 97.426103 166.176429 
L 98.036051 166.350381 
L 98.645998 166.372125 
L 99.255945 167.589789 
L 100.475839 167.046189 
L 101.085786 167.655021 
L 101.695734 166.785261 
L 102.305681 165.350157 
L 102.915628 163.436685 
L 103.525575 162.566925 
L 104.135522 161.240541 
L 104.745469 161.566701 
L 105.965364 159.501021 
L 106.575311 159.935901 
L 107.185258 159.566253 
L 107.795205 159.022653 
L 108.405152 159.696717 
L 109.0151 158.674749 
L 109.625047 158.739981 
L 110.234994 159.066141 
L 110.844941 158.500797 
L 111.454888 158.348589 
L 112.064835 157.174413 
L 112.674783 155.369661 
L 113.28473 155.391405 
L 113.894677 154.978269 
L 114.504624 155.347917 
L 115.114571 155.217453 
L 115.724518 154.543389 
L 116.334466 154.065021 
L 118.164307 154.021533 
L 118.774254 153.782349 
L 119.384201 152.021085 
L 119.994149 151.542717 
L 120.604096 150.585981 
L 121.214043 150.499005 
L 121.82399 149.042157 
L 123.043884 150.651213 
L 123.653832 149.346573 
L 124.263779 149.998893 
L 124.873726 149.390061 
L 125.483673 149.194365 
L 126.09362 149.498781 
L 126.703567 148.433325 
L 127.313515 146.084973 
L 127.923462 144.845565 
L 128.533409 146.237181 
L 129.143356 144.410685 
L 129.753303 144.193245 
L 130.36325 141.540477 
L 130.973198 142.736397 
L 131.583145 141.366525 
L 132.193092 140.822925 
L 132.803039 139.844445 
L 133.412986 138.083181 
L 134.022933 139.996653 
L 134.632881 140.061885 
L 135.242828 137.909229 
L 135.852775 137.496093 
L 136.462722 138.583293 
L 137.072669 137.865741 
L 137.682616 136.974237 
L 138.292564 137.235165 
L 138.902511 136.648077 
L 139.512458 135.430413 
L 140.122405 136.626333 
L 140.732352 135.278205 
L 141.342299 135.147741 
L 143.172141 133.342989 
L 143.782088 133.364733 
L 144.392035 133.734381 
L 145.61193 133.234269 
L 146.221877 133.060317 
L 146.831824 132.712413 
L 147.441771 133.364733 
L 148.051718 131.907885 
L 148.661665 131.364285 
L 149.271613 132.255789 
L 149.88156 133.495197 
L 150.491507 133.408221 
L 151.101454 134.212749 
L 151.711401 135.430413 
L 152.321348 135.125997 
L 152.931296 135.669597 
L 153.541243 136.691565 
L 154.15119 135.430413 
L 154.761137 135.604365 
L 155.371084 135.191229 
L 155.981031 133.386477 
L 156.590979 135.343437 
L 157.200926 135.125997 
L 157.810873 133.538685 
L 158.42082 132.668925 
L 159.030767 132.973341 
L 159.640714 132.125325 
L 160.250662 128.668029 
L 160.860609 128.950701 
L 161.470556 127.124205 
L 162.080503 127.820013 
L 162.69045 127.972221 
L 163.300397 126.950253 
L 163.910345 127.406877 
L 164.520292 126.384909 
L 165.130239 124.167021 
L 165.740186 123.666909 
L 166.96008 124.884573 
L 167.570028 126.058749 
L 168.789922 124.471437 
L 169.399869 124.928061 
L 170.619763 122.210061 
L 171.229711 125.928285 
L 171.839658 122.905869 
L 172.449605 123.210285 
L 173.059552 121.383789 
L 173.669499 122.731917 
L 174.279446 121.644717 
L 174.889394 124.906317 
L 175.499341 127.537341 
L 176.109288 124.167021 
L 176.719235 124.971549 
L 177.329182 121.014141 
L 177.939129 119.144157 
L 178.549077 119.165901 
L 179.159024 119.796477 
L 179.768971 119.709501 
L 180.378918 117.861261 
L 180.988865 118.491837 
L 182.20876 118.513581 
L 182.818707 117.339405 
L 183.428654 117.839517 
L 184.038601 117.491613 
L 184.648548 115.512909 
L 185.258495 116.839293 
L 185.868443 115.273725 
L 186.47839 115.143261 
L 187.088337 114.751869 
L 188.308231 116.708829 
L 188.918178 116.382669 
L 189.528126 115.295469 
L 190.138073 115.752093 
L 190.74802 115.947789 
L 191.357967 114.817101 
L 191.967914 114.556173 
L 192.577861 114.773613 
L 193.187809 113.425485 
L 193.797756 113.795133 
L 194.407703 114.490941 
L 195.01765 113.751645 
L 195.627597 113.512461 
L 196.237544 114.751869 
L 196.847492 116.665341 
L 197.457439 113.229789 
L 198.067386 112.664445 
L 198.677333 111.120621 
L 199.28728 114.534429 
L 199.897227 116.839293 
L 200.507175 114.664893 
L 201.117122 111.555501 
L 201.727069 110.794461 
L 202.337016 110.229117 
L 202.946963 110.337837 
L 203.55691 109.946445 
L 204.166858 111.164109 
L 204.776805 109.272381 
L 205.386752 109.185405 
L 205.996699 110.424813 
L 206.606646 108.794013 
L 207.216593 108.837501 
L 207.826541 108.533085 
L 208.436488 109.207149 
L 209.046435 109.163661 
L 209.656382 108.359133 
L 210.266329 110.163885 
L 210.876276 113.512461 
L 211.486224 111.903405 
L 212.096171 108.206925 
L 212.706118 106.706589 
L 213.316065 109.815981 
L 213.926012 105.836829 
L 215.145907 104.923581 
L 215.755854 108.250413 
L 216.365801 106.837053 
L 216.975748 104.771373 
L 217.585695 105.271485 
L 218.195642 104.771373 
L 218.80559 105.314973 
L 219.415537 107.641581 
L 220.025484 103.988589 
L 220.635431 104.184285 
L 221.855325 103.879869 
L 222.465273 106.489149 
L 223.07522 103.336269 
L 223.685167 103.423245 
L 224.295114 102.879645 
L 224.905061 103.575453 
L 225.515008 102.749181 
L 226.124956 102.727437 
L 226.734903 103.184061 
L 227.34485 105.401949 
L 227.954797 103.705917 
L 228.564744 107.097981 
L 229.174691 103.684173 
L 229.784639 104.488701 
L 230.394586 104.032077 
L 231.004533 104.445213 
L 231.61448 104.401725 
L 232.224427 100.074669 
L 232.834374 100.553037 
L 233.444322 100.183389 
L 234.054269 99.291885 
L 234.664216 99.183165 
L 235.274163 100.748733 
L 235.88411 100.966173 
L 236.494057 99.183165 
L 237.104005 103.053597 
L 237.713952 103.836381 
L 238.323899 99.357117 
L 238.933846 98.748285 
L 239.543793 98.378637 
L 240.15374 98.161197 
L 240.763688 99.422349 
L 241.373635 99.509325 
L 242.593529 102.944877 
L 243.203476 99.487581 
L 243.813423 98.117709 
L 244.423371 97.117485 
L 246.253212 99.596301 
L 246.863159 96.356445 
L 247.473106 98.487357 
L 248.083054 98.139453 
L 248.693001 98.596077 
L 249.302948 96.595629 
L 249.912895 95.312733 
L 250.522842 99.726765 
L 251.132789 96.617373 
L 251.742737 95.073549 
L 252.352684 97.704573 
L 252.962631 95.138781 
L 253.572578 94.508205 
L 254.182525 97.530621 
L 254.792472 94.877853 
L 255.40242 93.855885 
L 256.012367 93.855885 
L 256.622314 94.225533 
L 257.232261 93.812397 
L 257.842208 96.204237 
L 258.452155 93.573213 
L 259.062103 94.442973 
L 259.67205 96.704349 
L 260.281997 93.312285 
L 260.891944 91.964157 
L 261.501891 93.007869 
L 262.111838 95.965053 
L 262.721786 100.009437 
L 263.331733 93.964605 
L 263.94168 92.333805 
L 264.551627 92.094621 
L 265.161574 95.464941 
L 265.771521 92.768685 
L 266.381469 92.768685 
L 266.991416 99.835485 
L 267.601363 94.508205 
L 268.21131 92.986125 
L 268.821257 93.160077 
L 269.431204 90.703005 
L 270.041152 90.311613 
L 270.651099 92.116365 
L 271.261046 90.246381 
L 271.870993 90.855213 
L 272.48094 92.159853 
L 273.090887 98.704797 
L 273.700835 90.289869 
L 274.310782 90.963933 
L 274.920729 90.594285 
L 275.530676 93.051357 
L 276.140623 94.225533 
L 276.75057 94.790877 
L 277.360518 90.246381 
L 277.970465 95.943309 
L 278.580412 93.594957 
L 279.190359 97.748061 
L 279.800306 92.942637 
L 280.410253 92.790429 
L 281.020201 93.747165 
L 281.630148 93.660189 
L 282.240095 96.552141 
L 282.850042 94.703901 
L 283.459989 91.290093 
L 284.069936 89.159181 
L 284.679884 89.507085 
L 285.289831 91.290093 
L 285.899778 90.920445 
L 286.509725 94.377741 
L 287.119672 90.072429 
L 287.729619 90.659517 
L 288.339567 90.550797 
L 288.949514 89.746269 
L 289.559461 89.920221 
L 290.169408 88.724301 
L 290.779355 88.463373 
L 291.389302 95.486685 
L 291.99925 94.029837 
L 292.609197 91.724973 
L 293.219144 96.552141 
L 293.829091 91.094397 
L 294.439038 92.659965 
L 295.048985 88.506861 
L 295.658933 90.094173 
L 296.26888 88.485117 
L 296.878827 91.398813 
L 297.488774 92.051133 
L 298.098721 96.856557 
L 298.708668 90.920445 
L 299.318616 87.745821 
L 299.928563 88.898253 
L 300.53851 88.180701 
L 301.148457 90.963933 
L 301.758404 90.811725 
L 302.368351 91.529277 
L 302.978299 92.855661 
L 303.588246 92.812173 
L 304.198193 90.529053 
L 304.80814 88.746045 
L 305.418087 87.332685 
L 306.028034 89.180925 
L 306.637982 87.571869 
L 307.247929 86.702109 
L 307.857876 86.745597 
L 308.467823 87.419661 
L 309.07777 90.007197 
L 309.687717 87.376173 
L 310.297665 86.941293 
L 310.907612 89.724525 
L 311.517559 88.202445 
L 312.127506 88.463373 
L 312.737453 86.245485 
L 313.3474 86.810829 
L 313.957348 92.399037 
L 314.567295 85.419213 
L 315.177242 86.006301 
L 315.787189 90.202893 
L 316.397136 87.223965 
L 317.007083 87.202221 
L 317.617031 90.333357 
L 318.836925 87.528381 
L 319.446872 89.811501 
L 320.056819 87.876285 
L 320.666766 85.245261 
L 321.276714 85.093053 
L 321.886661 85.440957 
L 322.496608 85.332237 
L 323.106555 86.288973 
L 323.716502 86.876061 
L 324.326449 87.637101 
L 324.936397 88.680813 
L 325.546344 88.093725 
L 326.156291 83.766669 
L 326.766238 83.331789 
L 327.376185 89.572317 
L 328.59608 84.418989 
L 329.206027 83.831901 
L 329.815974 86.180253 
L 330.425921 83.505741 
L 331.035868 84.288525 
L 331.645815 83.810157 
L 332.255763 85.788861 
L 332.86571 85.027821 
L 333.475657 83.701437 
L 334.085604 87.637101 
L 334.695551 84.201549 
L 335.305498 84.484221 
L 335.915446 86.615133 
L 336.525393 82.831677 
L 337.13534 82.070637 
L 337.745287 83.223069 
L 338.355234 83.701437 
L 339.575129 83.962365 
L 340.185076 81.657501 
L 340.795023 82.701213 
L 341.40497 81.831453 
L 342.014917 82.614237 
L 342.624865 82.440285 
L 343.234812 81.200877 
L 343.844759 80.918205 
L 344.454706 81.983661 
L 345.064653 82.788189 
L 345.6746 81.831453 
L 346.284548 83.418765 
L 346.894495 83.353533 
L 347.504442 83.549229 
L 348.114389 80.874717 
L 348.724336 81.135645 
L 349.334283 82.940397 
L 349.944231 81.135645 
L 350.554178 80.874717 
L 351.164125 81.266109 
L 351.774072 81.353085 
L 352.384019 81.244365 
L 352.993966 80.613789 
L 353.603914 80.961693 
L 354.213861 81.483549 
L 354.823808 80.374605 
L 355.433755 80.091933 
L 356.043702 80.765997 
L 356.653649 80.526813 
L 357.263597 79.983213 
L 358.483491 80.722509 
L 359.703385 79.504845 
L 360.313332 80.570301 
L 360.92328 80.852973 
L 361.533227 82.657725 
L 362.143174 82.505517 
L 362.753121 81.309597 
L 363.363068 81.070413 
L 363.363068 81.070413 
" style="fill:none;stroke:#ff7f0e;stroke-linecap:square;stroke-width:1.5;"/>
   </g>
   <g id="patch_3">
    <path d="M 43.78125 239.758125 
L 43.78125 22.318125 
" style="fill:none;stroke:#000000;stroke-linecap:square;stroke-linejoin:miter;stroke-width:0.8;"/>
   </g>
   <g id="patch_4">
    <path d="M 378.58125 239.758125 
L 378.58125 22.318125 
" style="fill:none;stroke:#000000;stroke-linecap:square;stroke-linejoin:miter;stroke-width:0.8;"/>
   </g>
   <g id="patch_5">
    <path d="M 43.78125 239.758125 
L 378.58125 239.758125 
" style="fill:none;stroke:#000000;stroke-linecap:square;stroke-linejoin:miter;stroke-width:0.8;"/>
   </g>
   <g id="patch_6">
    <path d="M 43.78125 22.318125 
L 378.58125 22.318125 
" style="fill:none;stroke:#000000;stroke-linecap:square;stroke-linejoin:miter;stroke-width:0.8;"/>
   </g>
   <g id="text_15">
    <!-- accuracy -->
    <g transform="translate(184.11 16.318125)scale(0.12 -0.12)">
     <use xlink:href="#DejaVuSans-97"/>
     <use x="61.279297" xlink:href="#DejaVuSans-99"/>
     <use x="116.259766" xlink:href="#DejaVuSans-99"/>
     <use x="171.240234" xlink:href="#DejaVuSans-117"/>
     <use x="234.619141" xlink:href="#DejaVuSans-114"/>
     <use x="275.732422" xlink:href="#DejaVuSans-97"/>
     <use x="337.011719" xlink:href="#DejaVuSans-99"/>
     <use x="391.992188" xlink:href="#DejaVuSans-121"/>
    </g>
   </g>
   <g id="legend_1">
    <g id="patch_7">
     <path d="M 282.38125 234.758125 
L 371.58125 234.758125 
Q 373.58125 234.758125 373.58125 232.758125 
L 373.58125 204.401875 
Q 373.58125 202.401875 371.58125 202.401875 
L 282.38125 202.401875 
Q 280.38125 202.401875 280.38125 204.401875 
L 280.38125 232.758125 
Q 280.38125 234.758125 282.38125 234.758125 
z
" style="fill:#ffffff;opacity:0.8;stroke:#cccccc;stroke-linejoin:miter;"/>
    </g>
    <g id="line2d_15">
     <path d="M 284.38125 210.500312 
L 304.38125 210.500312 
" style="fill:none;stroke:#1f77b4;stroke-linecap:square;stroke-width:1.5;"/>
    </g>
    <g id="line2d_16"/>
    <g id="text_16">
     <!-- training set -->
     <defs>
      <path d="M 9.421875 54.6875 
L 18.40625 54.6875 
L 18.40625 0 
L 9.421875 0 
z
M 9.421875 75.984375 
L 18.40625 75.984375 
L 18.40625 64.59375 
L 9.421875 64.59375 
z
" id="DejaVuSans-105"/>
      <path d="M 45.40625 27.984375 
Q 45.40625 37.75 41.375 43.109375 
Q 37.359375 48.484375 30.078125 48.484375 
Q 22.859375 48.484375 18.828125 43.109375 
Q 14.796875 37.75 14.796875 27.984375 
Q 14.796875 18.265625 18.828125 12.890625 
Q 22.859375 7.515625 30.078125 7.515625 
Q 37.359375 7.515625 41.375 12.890625 
Q 45.40625 18.265625 45.40625 27.984375 
z
M 54.390625 6.78125 
Q 54.390625 -7.171875 48.1875 -13.984375 
Q 42 -20.796875 29.203125 -20.796875 
Q 24.46875 -20.796875 20.265625 -20.09375 
Q 16.0625 -19.390625 12.109375 -17.921875 
L 12.109375 -9.1875 
Q 16.0625 -11.328125 19.921875 -12.34375 
Q 23.78125 -13.375 27.78125 -13.375 
Q 36.625 -13.375 41.015625 -8.765625 
Q 45.40625 -4.15625 45.40625 5.171875 
L 45.40625 9.625 
Q 42.625 4.78125 38.28125 2.390625 
Q 33.9375 0 27.875 0 
Q 17.828125 0 11.671875 7.65625 
Q 5.515625 15.328125 5.515625 27.984375 
Q 5.515625 40.671875 11.671875 48.328125 
Q 17.828125 56 27.875 56 
Q 33.9375 56 38.28125 53.609375 
Q 42.625 51.21875 45.40625 46.390625 
L 45.40625 54.6875 
L 54.390625 54.6875 
z
" id="DejaVuSans-103"/>
      <path id="DejaVuSans-32"/>
      <path d="M 44.28125 53.078125 
L 44.28125 44.578125 
Q 40.484375 46.53125 36.375 47.5 
Q 32.28125 48.484375 27.875 48.484375 
Q 21.1875 48.484375 17.84375 46.4375 
Q 14.5 44.390625 14.5 40.28125 
Q 14.5 37.15625 16.890625 35.375 
Q 19.28125 33.59375 26.515625 31.984375 
L 29.59375 31.296875 
Q 39.15625 29.25 43.1875 25.515625 
Q 47.21875 21.78125 47.21875 15.09375 
Q 47.21875 7.46875 41.1875 3.015625 
Q 35.15625 -1.421875 24.609375 -1.421875 
Q 20.21875 -1.421875 15.453125 -0.5625 
Q 10.6875 0.296875 5.421875 2 
L 5.421875 11.28125 
Q 10.40625 8.6875 15.234375 7.390625 
Q 20.0625 6.109375 24.8125 6.109375 
Q 31.15625 6.109375 34.5625 8.28125 
Q 37.984375 10.453125 37.984375 14.40625 
Q 37.984375 18.0625 35.515625 20.015625 
Q 33.0625 21.96875 24.703125 23.78125 
L 21.578125 24.515625 
Q 13.234375 26.265625 9.515625 29.90625 
Q 5.8125 33.546875 5.8125 39.890625 
Q 5.8125 47.609375 11.28125 51.796875 
Q 16.75 56 26.8125 56 
Q 31.78125 56 36.171875 55.265625 
Q 40.578125 54.546875 44.28125 53.078125 
z
" id="DejaVuSans-115"/>
      <path d="M 56.203125 29.59375 
L 56.203125 25.203125 
L 14.890625 25.203125 
Q 15.484375 15.921875 20.484375 11.0625 
Q 25.484375 6.203125 34.421875 6.203125 
Q 39.59375 6.203125 44.453125 7.46875 
Q 49.3125 8.734375 54.109375 11.28125 
L 54.109375 2.78125 
Q 49.265625 0.734375 44.1875 -0.34375 
Q 39.109375 -1.421875 33.890625 -1.421875 
Q 20.796875 -1.421875 13.15625 6.1875 
Q 5.515625 13.8125 5.515625 26.8125 
Q 5.515625 40.234375 12.765625 48.109375 
Q 20.015625 56 32.328125 56 
Q 43.359375 56 49.78125 48.890625 
Q 56.203125 41.796875 56.203125 29.59375 
z
M 47.21875 32.234375 
Q 47.125 39.59375 43.09375 43.984375 
Q 39.0625 48.390625 32.421875 48.390625 
Q 24.90625 48.390625 20.390625 44.140625 
Q 15.875 39.890625 15.1875 32.171875 
z
" id="DejaVuSans-101"/>
     </defs>
     <g transform="translate(312.38125 214.000312)scale(0.1 -0.1)">
      <use xlink:href="#DejaVuSans-116"/>
      <use x="39.208984" xlink:href="#DejaVuSans-114"/>
      <use x="80.322266" xlink:href="#DejaVuSans-97"/>
      <use x="141.601562" xlink:href="#DejaVuSans-105"/>
      <use x="169.384766" xlink:href="#DejaVuSans-110"/>
      <use x="232.763672" xlink:href="#DejaVuSans-105"/>
      <use x="260.546875" xlink:href="#DejaVuSans-110"/>
      <use x="323.925781" xlink:href="#DejaVuSans-103"/>
      <use x="387.402344" xlink:href="#DejaVuSans-32"/>
      <use x="419.189453" xlink:href="#DejaVuSans-115"/>
      <use x="471.289062" xlink:href="#DejaVuSans-101"/>
      <use x="532.8125" xlink:href="#DejaVuSans-116"/>
     </g>
    </g>
    <g id="line2d_17">
     <path d="M 284.38125 225.178437 
L 304.38125 225.178437 
" style="fill:none;stroke:#ff7f0e;stroke-linecap:square;stroke-width:1.5;"/>
    </g>
    <g id="line2d_18"/>
    <g id="text_17">
     <!-- test set -->
     <g transform="translate(312.38125 228.678437)scale(0.1 -0.1)">
      <use xlink:href="#DejaVuSans-116"/>
      <use x="39.208984" xlink:href="#DejaVuSans-101"/>
      <use x="100.732422" xlink:href="#DejaVuSans-115"/>
      <use x="152.832031" xlink:href="#DejaVuSans-116"/>
      <use x="192.041016" xlink:href="#DejaVuSans-32"/>
      <use x="223.828125" xlink:href="#DejaVuSans-115"/>
      <use x="275.927734" xlink:href="#DejaVuSans-101"/>
      <use x="337.451172" xlink:href="#DejaVuSans-116"/>
     </g>
    </g>
   </g>
  </g>
 </g>
 <defs>
  <clipPath id="p5b07738e4b">
   <rect height="217.44" width="334.8" x="43.78125" y="22.318125"/>
  </clipPath>
 </defs>
</svg>
