<?xml version="1.0" encoding="utf-8" standalone="no"?>
<!DOCTYPE svg PUBLIC "-//W3C//DTD SVG 1.1//EN"
  "http://www.w3.org/Graphics/SVG/1.1/DTD/svg11.dtd">
<svg height="277.314375pt" version="1.1" viewBox="0 0 385.78125 277.314375" width="385.78125pt" xmlns="http://www.w3.org/2000/svg" xmlns:xlink="http://www.w3.org/1999/xlink">
 <metadata>
  <rdf:RDF xmlns:cc="http://creativecommons.org/ns#" xmlns:dc="http://purl.org/dc/elements/1.1/" xmlns:rdf="http://www.w3.org/1999/02/22-rdf-syntax-ns#">
   <cc:Work>
    <dc:type rdf:resource="http://purl.org/dc/dcmitype/StillImage"/>
    <dc:date>2021-05-22T23:56:58.026908</dc:date>
    <dc:format>image/svg+xml</dc:format>
    <dc:creator>
     <cc:Agent>
      <dc:title>Matplotlib v3.4.1, https://matplotlib.org/</dc:title>
     </cc:Agent>
    </dc:creator>
   </cc:Work>
  </rdf:RDF>
 </metadata>
 <defs>
  <style type="text/css">*{stroke-linecap:butt;stroke-linejoin:round;}</style>
 </defs>
 <g id="figure_1">
  <g id="patch_1">
   <path d="M 0 277.314375 
L 385.78125 277.314375 
L 385.78125 0 
L 0 0 
z
" style="fill:none;"/>
  </g>
  <g id="axes_1">
   <g id="patch_2">
    <path d="M 43.78125 239.758125 
L 378.58125 239.758125 
L 378.58125 22.318125 
L 43.78125 22.318125 
z
" style="fill:#ffffff;"/>
   </g>
   <g id="matplotlib.axis_1">
    <g id="xtick_1">
     <g id="line2d_1">
      <defs>
       <path d="M 0 0 
L 0 3.5 
" id="m17cfe23fef" style="stroke:#000000;stroke-width:0.8;"/>
      </defs>
      <g>
       <use style="stroke:#000000;stroke-width:0.8;" x="58.999432" xlink:href="#m17cfe23fef" y="239.758125"/>
      </g>
     </g>
     <g id="text_1">
      <!-- 0 -->
      <g transform="translate(55.818182 254.356562)scale(0.1 -0.1)">
       <defs>
        <path d="M 2034 4250 
Q 1547 4250 1301 3770 
Q 1056 3291 1056 2328 
Q 1056 1369 1301 889 
Q 1547 409 2034 409 
Q 2525 409 2770 889 
Q 3016 1369 3016 2328 
Q 3016 3291 2770 3770 
Q 2525 4250 2034 4250 
z
M 2034 4750 
Q 2819 4750 3233 4129 
Q 3647 3509 3647 2328 
Q 3647 1150 3233 529 
Q 2819 -91 2034 -91 
Q 1250 -91 836 529 
Q 422 1150 422 2328 
Q 422 3509 836 4129 
Q 1250 4750 2034 4750 
z
" id="DejaVuSans-30" transform="scale(0.015625)"/>
       </defs>
       <use xlink:href="#DejaVuSans-30"/>
      </g>
     </g>
    </g>
    <g id="xtick_2">
     <g id="line2d_2">
      <g>
       <use style="stroke:#000000;stroke-width:0.8;" x="97.140238" xlink:href="#m17cfe23fef" y="239.758125"/>
      </g>
     </g>
     <g id="text_2">
      <!-- 500 -->
      <g transform="translate(87.596488 254.356562)scale(0.1 -0.1)">
       <defs>
        <path d="M 691 4666 
L 3169 4666 
L 3169 4134 
L 1269 4134 
L 1269 2991 
Q 1406 3038 1543 3061 
Q 1681 3084 1819 3084 
Q 2600 3084 3056 2656 
Q 3513 2228 3513 1497 
Q 3513 744 3044 326 
Q 2575 -91 1722 -91 
Q 1428 -91 1123 -41 
Q 819 9 494 109 
L 494 744 
Q 775 591 1075 516 
Q 1375 441 1709 441 
Q 2250 441 2565 725 
Q 2881 1009 2881 1497 
Q 2881 1984 2565 2268 
Q 2250 2553 1709 2553 
Q 1456 2553 1204 2497 
Q 953 2441 691 2322 
L 691 4666 
z
" id="DejaVuSans-35" transform="scale(0.015625)"/>
       </defs>
       <use xlink:href="#DejaVuSans-35"/>
       <use x="63.623047" xlink:href="#DejaVuSans-30"/>
       <use x="127.246094" xlink:href="#DejaVuSans-30"/>
      </g>
     </g>
    </g>
    <g id="xtick_3">
     <g id="line2d_3">
      <g>
       <use style="stroke:#000000;stroke-width:0.8;" x="135.281045" xlink:href="#m17cfe23fef" y="239.758125"/>
      </g>
     </g>
     <g id="text_3">
      <!-- 1000 -->
      <g transform="translate(122.556045 254.356562)scale(0.1 -0.1)">
       <defs>
        <path d="M 794 531 
L 1825 531 
L 1825 4091 
L 703 3866 
L 703 4441 
L 1819 4666 
L 2450 4666 
L 2450 531 
L 3481 531 
L 3481 0 
L 794 0 
L 794 531 
z
" id="DejaVuSans-31" transform="scale(0.015625)"/>
       </defs>
       <use xlink:href="#DejaVuSans-31"/>
       <use x="63.623047" xlink:href="#DejaVuSans-30"/>
       <use x="127.246094" xlink:href="#DejaVuSans-30"/>
       <use x="190.869141" xlink:href="#DejaVuSans-30"/>
      </g>
     </g>
    </g>
    <g id="xtick_4">
     <g id="line2d_4">
      <g>
       <use style="stroke:#000000;stroke-width:0.8;" x="173.421852" xlink:href="#m17cfe23fef" y="239.758125"/>
      </g>
     </g>
     <g id="text_4">
      <!-- 1500 -->
      <g transform="translate(160.696852 254.356562)scale(0.1 -0.1)">
       <use xlink:href="#DejaVuSans-31"/>
       <use x="63.623047" xlink:href="#DejaVuSans-35"/>
       <use x="127.246094" xlink:href="#DejaVuSans-30"/>
       <use x="190.869141" xlink:href="#DejaVuSans-30"/>
      </g>
     </g>
    </g>
    <g id="xtick_5">
     <g id="line2d_5">
      <g>
       <use style="stroke:#000000;stroke-width:0.8;" x="211.562658" xlink:href="#m17cfe23fef" y="239.758125"/>
      </g>
     </g>
     <g id="text_5">
      <!-- 2000 -->
      <g transform="translate(198.837658 254.356562)scale(0.1 -0.1)">
       <defs>
        <path d="M 1228 531 
L 3431 531 
L 3431 0 
L 469 0 
L 469 531 
Q 828 903 1448 1529 
Q 2069 2156 2228 2338 
Q 2531 2678 2651 2914 
Q 2772 3150 2772 3378 
Q 2772 3750 2511 3984 
Q 2250 4219 1831 4219 
Q 1534 4219 1204 4116 
Q 875 4013 500 3803 
L 500 4441 
Q 881 4594 1212 4672 
Q 1544 4750 1819 4750 
Q 2544 4750 2975 4387 
Q 3406 4025 3406 3419 
Q 3406 3131 3298 2873 
Q 3191 2616 2906 2266 
Q 2828 2175 2409 1742 
Q 1991 1309 1228 531 
z
" id="DejaVuSans-32" transform="scale(0.015625)"/>
       </defs>
       <use xlink:href="#DejaVuSans-32"/>
       <use x="63.623047" xlink:href="#DejaVuSans-30"/>
       <use x="127.246094" xlink:href="#DejaVuSans-30"/>
       <use x="190.869141" xlink:href="#DejaVuSans-30"/>
      </g>
     </g>
    </g>
    <g id="xtick_6">
     <g id="line2d_6">
      <g>
       <use style="stroke:#000000;stroke-width:0.8;" x="249.703465" xlink:href="#m17cfe23fef" y="239.758125"/>
      </g>
     </g>
     <g id="text_6">
      <!-- 2500 -->
      <g transform="translate(236.978465 254.356562)scale(0.1 -0.1)">
       <use xlink:href="#DejaVuSans-32"/>
       <use x="63.623047" xlink:href="#DejaVuSans-35"/>
       <use x="127.246094" xlink:href="#DejaVuSans-30"/>
       <use x="190.869141" xlink:href="#DejaVuSans-30"/>
      </g>
     </g>
    </g>
    <g id="xtick_7">
     <g id="line2d_7">
      <g>
       <use style="stroke:#000000;stroke-width:0.8;" x="287.844271" xlink:href="#m17cfe23fef" y="239.758125"/>
      </g>
     </g>
     <g id="text_7">
      <!-- 3000 -->
      <g transform="translate(275.119271 254.356562)scale(0.1 -0.1)">
       <defs>
        <path d="M 2597 2516 
Q 3050 2419 3304 2112 
Q 3559 1806 3559 1356 
Q 3559 666 3084 287 
Q 2609 -91 1734 -91 
Q 1441 -91 1130 -33 
Q 819 25 488 141 
L 488 750 
Q 750 597 1062 519 
Q 1375 441 1716 441 
Q 2309 441 2620 675 
Q 2931 909 2931 1356 
Q 2931 1769 2642 2001 
Q 2353 2234 1838 2234 
L 1294 2234 
L 1294 2753 
L 1863 2753 
Q 2328 2753 2575 2939 
Q 2822 3125 2822 3475 
Q 2822 3834 2567 4026 
Q 2313 4219 1838 4219 
Q 1578 4219 1281 4162 
Q 984 4106 628 3988 
L 628 4550 
Q 988 4650 1302 4700 
Q 1616 4750 1894 4750 
Q 2613 4750 3031 4423 
Q 3450 4097 3450 3541 
Q 3450 3153 3228 2886 
Q 3006 2619 2597 2516 
z
" id="DejaVuSans-33" transform="scale(0.015625)"/>
       </defs>
       <use xlink:href="#DejaVuSans-33"/>
       <use x="63.623047" xlink:href="#DejaVuSans-30"/>
       <use x="127.246094" xlink:href="#DejaVuSans-30"/>
       <use x="190.869141" xlink:href="#DejaVuSans-30"/>
      </g>
     </g>
    </g>
    <g id="xtick_8">
     <g id="line2d_8">
      <g>
       <use style="stroke:#000000;stroke-width:0.8;" x="325.985078" xlink:href="#m17cfe23fef" y="239.758125"/>
      </g>
     </g>
     <g id="text_8">
      <!-- 3500 -->
      <g transform="translate(313.260078 254.356562)scale(0.1 -0.1)">
       <use xlink:href="#DejaVuSans-33"/>
       <use x="63.623047" xlink:href="#DejaVuSans-35"/>
       <use x="127.246094" xlink:href="#DejaVuSans-30"/>
       <use x="190.869141" xlink:href="#DejaVuSans-30"/>
      </g>
     </g>
    </g>
    <g id="xtick_9">
     <g id="line2d_9">
      <g>
       <use style="stroke:#000000;stroke-width:0.8;" x="364.125884" xlink:href="#m17cfe23fef" y="239.758125"/>
      </g>
     </g>
     <g id="text_9">
      <!-- 4000 -->
      <g transform="translate(351.400884 254.356562)scale(0.1 -0.1)">
       <defs>
        <path d="M 2419 4116 
L 825 1625 
L 2419 1625 
L 2419 4116 
z
M 2253 4666 
L 3047 4666 
L 3047 1625 
L 3713 1625 
L 3713 1100 
L 3047 1100 
L 3047 0 
L 2419 0 
L 2419 1100 
L 313 1100 
L 313 1709 
L 2253 4666 
z
" id="DejaVuSans-34" transform="scale(0.015625)"/>
       </defs>
       <use xlink:href="#DejaVuSans-34"/>
       <use x="63.623047" xlink:href="#DejaVuSans-30"/>
       <use x="127.246094" xlink:href="#DejaVuSans-30"/>
       <use x="190.869141" xlink:href="#DejaVuSans-30"/>
      </g>
     </g>
    </g>
    <g id="text_10">
     <!-- count -->
     <g transform="translate(197.075 268.034687)scale(0.1 -0.1)">
      <defs>
       <path d="M 3122 3366 
L 3122 2828 
Q 2878 2963 2633 3030 
Q 2388 3097 2138 3097 
Q 1578 3097 1268 2742 
Q 959 2388 959 1747 
Q 959 1106 1268 751 
Q 1578 397 2138 397 
Q 2388 397 2633 464 
Q 2878 531 3122 666 
L 3122 134 
Q 2881 22 2623 -34 
Q 2366 -91 2075 -91 
Q 1284 -91 818 406 
Q 353 903 353 1747 
Q 353 2603 823 3093 
Q 1294 3584 2113 3584 
Q 2378 3584 2631 3529 
Q 2884 3475 3122 3366 
z
" id="DejaVuSans-63" transform="scale(0.015625)"/>
       <path d="M 1959 3097 
Q 1497 3097 1228 2736 
Q 959 2375 959 1747 
Q 959 1119 1226 758 
Q 1494 397 1959 397 
Q 2419 397 2687 759 
Q 2956 1122 2956 1747 
Q 2956 2369 2687 2733 
Q 2419 3097 1959 3097 
z
M 1959 3584 
Q 2709 3584 3137 3096 
Q 3566 2609 3566 1747 
Q 3566 888 3137 398 
Q 2709 -91 1959 -91 
Q 1206 -91 779 398 
Q 353 888 353 1747 
Q 353 2609 779 3096 
Q 1206 3584 1959 3584 
z
" id="DejaVuSans-6f" transform="scale(0.015625)"/>
       <path d="M 544 1381 
L 544 3500 
L 1119 3500 
L 1119 1403 
Q 1119 906 1312 657 
Q 1506 409 1894 409 
Q 2359 409 2629 706 
Q 2900 1003 2900 1516 
L 2900 3500 
L 3475 3500 
L 3475 0 
L 2900 0 
L 2900 538 
Q 2691 219 2414 64 
Q 2138 -91 1772 -91 
Q 1169 -91 856 284 
Q 544 659 544 1381 
z
M 1991 3584 
L 1991 3584 
z
" id="DejaVuSans-75" transform="scale(0.015625)"/>
       <path d="M 3513 2113 
L 3513 0 
L 2938 0 
L 2938 2094 
Q 2938 2591 2744 2837 
Q 2550 3084 2163 3084 
Q 1697 3084 1428 2787 
Q 1159 2491 1159 1978 
L 1159 0 
L 581 0 
L 581 3500 
L 1159 3500 
L 1159 2956 
Q 1366 3272 1645 3428 
Q 1925 3584 2291 3584 
Q 2894 3584 3203 3211 
Q 3513 2838 3513 2113 
z
" id="DejaVuSans-6e" transform="scale(0.015625)"/>
       <path d="M 1172 4494 
L 1172 3500 
L 2356 3500 
L 2356 3053 
L 1172 3053 
L 1172 1153 
Q 1172 725 1289 603 
Q 1406 481 1766 481 
L 2356 481 
L 2356 0 
L 1766 0 
Q 1100 0 847 248 
Q 594 497 594 1153 
L 594 3053 
L 172 3053 
L 172 3500 
L 594 3500 
L 594 4494 
L 1172 4494 
z
" id="DejaVuSans-74" transform="scale(0.015625)"/>
      </defs>
      <use xlink:href="#DejaVuSans-63"/>
      <use x="54.980469" xlink:href="#DejaVuSans-6f"/>
      <use x="116.162109" xlink:href="#DejaVuSans-75"/>
      <use x="179.541016" xlink:href="#DejaVuSans-6e"/>
      <use x="242.919922" xlink:href="#DejaVuSans-74"/>
     </g>
    </g>
   </g>
   <g id="matplotlib.axis_2">
    <g id="ytick_1">
     <g id="line2d_10">
      <defs>
       <path d="M 0 0 
L -3.5 0 
" id="m8ba05161d2" style="stroke:#000000;stroke-width:0.8;"/>
      </defs>
      <g>
       <use style="stroke:#000000;stroke-width:0.8;" x="43.78125" xlink:href="#m8ba05161d2" y="239.758125"/>
      </g>
     </g>
     <g id="text_11">
      <!-- 0.0 -->
      <g transform="translate(20.878125 243.557344)scale(0.1 -0.1)">
       <defs>
        <path d="M 684 794 
L 1344 794 
L 1344 0 
L 684 0 
L 684 794 
z
" id="DejaVuSans-2e" transform="scale(0.015625)"/>
       </defs>
       <use xlink:href="#DejaVuSans-30"/>
       <use x="63.623047" xlink:href="#DejaVuSans-2e"/>
       <use x="95.410156" xlink:href="#DejaVuSans-30"/>
      </g>
     </g>
    </g>
    <g id="ytick_2">
     <g id="line2d_11">
      <g>
       <use style="stroke:#000000;stroke-width:0.8;" x="43.78125" xlink:href="#m8ba05161d2" y="196.270125"/>
      </g>
     </g>
     <g id="text_12">
      <!-- 0.2 -->
      <g transform="translate(20.878125 200.069344)scale(0.1 -0.1)">
       <use xlink:href="#DejaVuSans-30"/>
       <use x="63.623047" xlink:href="#DejaVuSans-2e"/>
       <use x="95.410156" xlink:href="#DejaVuSans-32"/>
      </g>
     </g>
    </g>
    <g id="ytick_3">
     <g id="line2d_12">
      <g>
       <use style="stroke:#000000;stroke-width:0.8;" x="43.78125" xlink:href="#m8ba05161d2" y="152.782125"/>
      </g>
     </g>
     <g id="text_13">
      <!-- 0.4 -->
      <g transform="translate(20.878125 156.581344)scale(0.1 -0.1)">
       <use xlink:href="#DejaVuSans-30"/>
       <use x="63.623047" xlink:href="#DejaVuSans-2e"/>
       <use x="95.410156" xlink:href="#DejaVuSans-34"/>
      </g>
     </g>
    </g>
    <g id="ytick_4">
     <g id="line2d_13">
      <g>
       <use style="stroke:#000000;stroke-width:0.8;" x="43.78125" xlink:href="#m8ba05161d2" y="109.294125"/>
      </g>
     </g>
     <g id="text_14">
      <!-- 0.6 -->
      <g transform="translate(20.878125 113.093344)scale(0.1 -0.1)">
       <defs>
        <path d="M 2113 2584 
Q 1688 2584 1439 2293 
Q 1191 2003 1191 1497 
Q 1191 994 1439 701 
Q 1688 409 2113 409 
Q 2538 409 2786 701 
Q 3034 994 3034 1497 
Q 3034 2003 2786 2293 
Q 2538 2584 2113 2584 
z
M 3366 4563 
L 3366 3988 
Q 3128 4100 2886 4159 
Q 2644 4219 2406 4219 
Q 1781 4219 1451 3797 
Q 1122 3375 1075 2522 
Q 1259 2794 1537 2939 
Q 1816 3084 2150 3084 
Q 2853 3084 3261 2657 
Q 3669 2231 3669 1497 
Q 3669 778 3244 343 
Q 2819 -91 2113 -91 
Q 1303 -91 875 529 
Q 447 1150 447 2328 
Q 447 3434 972 4092 
Q 1497 4750 2381 4750 
Q 2619 4750 2861 4703 
Q 3103 4656 3366 4563 
z
" id="DejaVuSans-36" transform="scale(0.015625)"/>
       </defs>
       <use xlink:href="#DejaVuSans-30"/>
       <use x="63.623047" xlink:href="#DejaVuSans-2e"/>
       <use x="95.410156" xlink:href="#DejaVuSans-36"/>
      </g>
     </g>
    </g>
    <g id="ytick_5">
     <g id="line2d_14">
      <g>
       <use style="stroke:#000000;stroke-width:0.8;" x="43.78125" xlink:href="#m8ba05161d2" y="65.806125"/>
      </g>
     </g>
     <g id="text_15">
      <!-- 0.8 -->
      <g transform="translate(20.878125 69.605344)scale(0.1 -0.1)">
       <defs>
        <path d="M 2034 2216 
Q 1584 2216 1326 1975 
Q 1069 1734 1069 1313 
Q 1069 891 1326 650 
Q 1584 409 2034 409 
Q 2484 409 2743 651 
Q 3003 894 3003 1313 
Q 3003 1734 2745 1975 
Q 2488 2216 2034 2216 
z
M 1403 2484 
Q 997 2584 770 2862 
Q 544 3141 544 3541 
Q 544 4100 942 4425 
Q 1341 4750 2034 4750 
Q 2731 4750 3128 4425 
Q 3525 4100 3525 3541 
Q 3525 3141 3298 2862 
Q 3072 2584 2669 2484 
Q 3125 2378 3379 2068 
Q 3634 1759 3634 1313 
Q 3634 634 3220 271 
Q 2806 -91 2034 -91 
Q 1263 -91 848 271 
Q 434 634 434 1313 
Q 434 1759 690 2068 
Q 947 2378 1403 2484 
z
M 1172 3481 
Q 1172 3119 1398 2916 
Q 1625 2713 2034 2713 
Q 2441 2713 2670 2916 
Q 2900 3119 2900 3481 
Q 2900 3844 2670 4047 
Q 2441 4250 2034 4250 
Q 1625 4250 1398 4047 
Q 1172 3844 1172 3481 
z
" id="DejaVuSans-38" transform="scale(0.015625)"/>
       </defs>
       <use xlink:href="#DejaVuSans-30"/>
       <use x="63.623047" xlink:href="#DejaVuSans-2e"/>
       <use x="95.410156" xlink:href="#DejaVuSans-38"/>
      </g>
     </g>
    </g>
    <g id="ytick_6">
     <g id="line2d_15">
      <g>
       <use style="stroke:#000000;stroke-width:0.8;" x="43.78125" xlink:href="#m8ba05161d2" y="22.318125"/>
      </g>
     </g>
     <g id="text_16">
      <!-- 1.0 -->
      <g transform="translate(20.878125 26.117344)scale(0.1 -0.1)">
       <use xlink:href="#DejaVuSans-31"/>
       <use x="63.623047" xlink:href="#DejaVuSans-2e"/>
       <use x="95.410156" xlink:href="#DejaVuSans-30"/>
      </g>
     </g>
    </g>
    <g id="text_17">
     <!-- accuracy -->
     <g transform="translate(14.798438 153.5975)rotate(-90)scale(0.1 -0.1)">
      <defs>
       <path d="M 2194 1759 
Q 1497 1759 1228 1600 
Q 959 1441 959 1056 
Q 959 750 1161 570 
Q 1363 391 1709 391 
Q 2188 391 2477 730 
Q 2766 1069 2766 1631 
L 2766 1759 
L 2194 1759 
z
M 3341 1997 
L 3341 0 
L 2766 0 
L 2766 531 
Q 2569 213 2275 61 
Q 1981 -91 1556 -91 
Q 1019 -91 701 211 
Q 384 513 384 1019 
Q 384 1609 779 1909 
Q 1175 2209 1959 2209 
L 2766 2209 
L 2766 2266 
Q 2766 2663 2505 2880 
Q 2244 3097 1772 3097 
Q 1472 3097 1187 3025 
Q 903 2953 641 2809 
L 641 3341 
Q 956 3463 1253 3523 
Q 1550 3584 1831 3584 
Q 2591 3584 2966 3190 
Q 3341 2797 3341 1997 
z
" id="DejaVuSans-61" transform="scale(0.015625)"/>
       <path d="M 2631 2963 
Q 2534 3019 2420 3045 
Q 2306 3072 2169 3072 
Q 1681 3072 1420 2755 
Q 1159 2438 1159 1844 
L 1159 0 
L 581 0 
L 581 3500 
L 1159 3500 
L 1159 2956 
Q 1341 3275 1631 3429 
Q 1922 3584 2338 3584 
Q 2397 3584 2469 3576 
Q 2541 3569 2628 3553 
L 2631 2963 
z
" id="DejaVuSans-72" transform="scale(0.015625)"/>
       <path d="M 2059 -325 
Q 1816 -950 1584 -1140 
Q 1353 -1331 966 -1331 
L 506 -1331 
L 506 -850 
L 844 -850 
Q 1081 -850 1212 -737 
Q 1344 -625 1503 -206 
L 1606 56 
L 191 3500 
L 800 3500 
L 1894 763 
L 2988 3500 
L 3597 3500 
L 2059 -325 
z
" id="DejaVuSans-79" transform="scale(0.015625)"/>
      </defs>
      <use xlink:href="#DejaVuSans-61"/>
      <use x="61.279297" xlink:href="#DejaVuSans-63"/>
      <use x="116.259766" xlink:href="#DejaVuSans-63"/>
      <use x="171.240234" xlink:href="#DejaVuSans-75"/>
      <use x="234.619141" xlink:href="#DejaVuSans-72"/>
      <use x="275.732422" xlink:href="#DejaVuSans-61"/>
      <use x="337.011719" xlink:href="#DejaVuSans-63"/>
      <use x="391.992188" xlink:href="#DejaVuSans-79"/>
     </g>
    </g>
   </g>
   <g id="line2d_16">
    <path clip-path="url(#p3acd9c8b80)" d="M 58.999432 215.839725 
L 59.762248 220.188525 
L 60.525064 222.362925 
L 61.28788 215.839725 
L 62.050696 207.142125 
L 62.813512 220.188525 
L 63.576329 228.886125 
L 64.339145 224.537325 
L 65.101961 228.886125 
L 66.627593 202.793325 
L 67.390409 213.665325 
L 68.153225 200.618925 
L 68.916042 189.746925 
L 69.678858 209.316525 
L 71.20449 196.270125 
L 71.967306 202.793325 
L 72.730122 191.921325 
L 73.492938 209.316525 
L 74.255754 198.444525 
L 75.018571 200.618925 
L 75.781387 196.270125 
L 76.544203 207.142125 
L 77.307019 194.095725 
L 78.069835 189.746925 
L 78.832651 187.572525 
L 79.595467 200.618925 
L 80.358283 185.398125 
L 81.1211 187.572525 
L 81.883916 181.049325 
L 82.646732 183.223725 
L 83.409548 187.572525 
L 84.93518 178.874925 
L 85.697996 170.177325 
L 86.460813 163.654125 
L 87.223629 183.223725 
L 87.986445 176.700525 
L 88.749261 200.618925 
L 89.512077 181.049325 
L 90.274893 194.095725 
L 91.037709 194.095725 
L 91.800525 189.746925 
L 92.563342 187.572525 
L 93.326158 187.572525 
L 94.088974 183.223725 
L 94.85179 194.095725 
L 95.614606 168.002925 
L 96.377422 191.921325 
L 97.140238 185.398125 
L 97.903055 161.479725 
L 98.665871 178.874925 
L 99.428687 191.921325 
L 100.191503 189.746925 
L 101.717135 168.002925 
L 102.479951 194.095725 
L 103.242767 181.049325 
L 104.005584 178.874925 
L 104.7684 189.746925 
L 105.531216 168.002925 
L 106.294032 185.398125 
L 107.056848 157.130925 
L 107.819664 181.049325 
L 108.58248 178.874925 
L 109.345296 174.526125 
L 110.108113 174.526125 
L 111.633745 191.921325 
L 112.396561 194.095725 
L 113.159377 161.479725 
L 113.922193 185.398125 
L 114.685009 152.782125 
L 115.447826 159.305325 
L 116.210642 187.572525 
L 116.973458 170.177325 
L 117.736274 176.700525 
L 118.49909 196.270125 
L 119.261906 196.270125 
L 120.024722 183.223725 
L 120.787538 191.921325 
L 121.550355 174.526125 
L 122.313171 172.351725 
L 123.075987 189.746925 
L 123.838803 191.921325 
L 124.601619 187.572525 
L 125.364435 181.049325 
L 126.127251 168.002925 
L 126.890067 189.746925 
L 128.4157 161.479725 
L 129.178516 165.828525 
L 129.941332 198.444525 
L 130.704148 172.351725 
L 131.466964 191.921325 
L 132.22978 183.223725 
L 132.992597 187.572525 
L 133.755413 189.746925 
L 134.518229 163.654125 
L 135.281045 174.526125 
L 136.043861 178.874925 
L 136.806677 185.398125 
L 137.569493 185.398125 
L 139.095126 194.095725 
L 139.857942 178.874925 
L 140.620758 191.921325 
L 141.383574 183.223725 
L 142.14639 181.049325 
L 142.909206 183.223725 
L 143.672022 183.223725 
L 144.434839 163.654125 
L 145.197655 191.921325 
L 146.723287 178.874925 
L 147.486103 165.828525 
L 148.248919 176.700525 
L 149.011735 185.398125 
L 149.774551 183.223725 
L 150.537368 168.002925 
L 151.300184 194.095725 
L 152.063 185.398125 
L 152.825816 183.223725 
L 153.588632 185.398125 
L 154.351448 183.223725 
L 155.114264 178.874925 
L 155.87708 170.177325 
L 156.639897 183.223725 
L 157.402713 174.526125 
L 158.165529 174.526125 
L 158.928345 187.572525 
L 159.691161 150.607725 
L 160.453977 183.223725 
L 161.216793 176.700525 
L 161.97961 174.526125 
L 162.742426 159.305325 
L 163.505242 178.874925 
L 164.268058 161.479725 
L 165.030874 168.002925 
L 165.79369 185.398125 
L 166.556506 165.828525 
L 167.319322 163.654125 
L 168.844955 172.351725 
L 170.370587 163.654125 
L 171.133403 165.828525 
L 171.896219 152.782125 
L 172.659035 181.049325 
L 173.421852 172.351725 
L 174.184668 172.351725 
L 174.947484 161.479725 
L 175.7103 163.654125 
L 176.473116 157.130925 
L 177.235932 168.002925 
L 177.998748 154.956525 
L 178.761564 152.782125 
L 179.524381 148.433325 
L 180.287197 146.258925 
L 181.050013 168.002925 
L 181.812829 137.561325 
L 182.575645 139.735725 
L 183.338461 154.956525 
L 184.864093 163.654125 
L 185.62691 170.177325 
L 186.389726 161.479725 
L 187.152542 163.654125 
L 187.915358 146.258925 
L 188.678174 137.561325 
L 189.44099 152.782125 
L 190.203806 159.305325 
L 190.966623 154.956525 
L 191.729439 165.828525 
L 192.492255 150.607725 
L 193.255071 154.956525 
L 194.017887 170.177325 
L 194.780703 148.433325 
L 195.543519 144.084525 
L 196.306335 161.479725 
L 197.069152 146.258925 
L 197.831968 159.305325 
L 198.594784 154.956525 
L 199.3576 168.002925 
L 200.120416 159.305325 
L 200.883232 154.956525 
L 201.646048 161.479725 
L 202.408864 152.782125 
L 203.171681 165.828525 
L 203.934497 157.130925 
L 204.697313 157.130925 
L 205.460129 152.782125 
L 206.222945 144.084525 
L 206.985761 165.828525 
L 207.748577 152.782125 
L 208.511394 185.398125 
L 210.037026 117.991725 
L 210.799842 146.258925 
L 211.562658 152.782125 
L 212.325474 174.526125 
L 213.08829 154.956525 
L 213.851106 152.782125 
L 214.613923 159.305325 
L 215.376739 161.479725 
L 216.139555 133.212525 
L 216.902371 141.910125 
L 217.665187 157.130925 
L 218.428003 150.607725 
L 219.190819 159.305325 
L 219.953636 122.340525 
L 220.716452 146.258925 
L 221.479268 154.956525 
L 222.242084 146.258925 
L 223.0049 144.084525 
L 223.767716 144.084525 
L 224.530532 159.305325 
L 225.293348 165.828525 
L 226.056165 128.863725 
L 227.581797 165.828525 
L 228.344613 144.084525 
L 229.107429 141.910125 
L 229.870245 146.258925 
L 230.633061 152.782125 
L 231.395877 133.212525 
L 232.158694 161.479725 
L 232.92151 128.863725 
L 233.684326 144.084525 
L 234.447142 152.782125 
L 235.209958 157.130925 
L 235.972774 146.258925 
L 236.73559 141.910125 
L 237.498407 152.782125 
L 238.261223 141.910125 
L 239.024039 128.863725 
L 239.786855 144.084525 
L 240.549671 137.561325 
L 241.312487 150.607725 
L 242.075303 146.258925 
L 242.838119 146.258925 
L 243.600936 131.038125 
L 245.126568 157.130925 
L 245.889384 139.735725 
L 246.6522 148.433325 
L 247.415016 154.956525 
L 248.177832 135.386925 
L 248.940648 135.386925 
L 249.703465 141.910125 
L 250.466281 146.258925 
L 251.229097 133.212525 
L 251.991913 137.561325 
L 252.754729 126.689325 
L 253.517545 150.607725 
L 254.280361 128.863725 
L 255.043178 137.561325 
L 255.805994 128.863725 
L 256.56881 131.038125 
L 257.331626 135.386925 
L 258.094442 120.166125 
L 258.857258 124.514925 
L 259.620074 139.735725 
L 260.38289 135.386925 
L 261.145707 135.386925 
L 261.908523 126.689325 
L 262.671339 122.340525 
L 263.434155 126.689325 
L 264.196971 137.561325 
L 265.722603 120.166125 
L 266.48542 109.294125 
L 267.248236 128.863725 
L 268.011052 120.166125 
L 268.773868 133.212525 
L 269.536684 120.166125 
L 270.2995 128.863725 
L 271.062316 135.386925 
L 271.825132 113.642925 
L 272.587949 122.340525 
L 273.350765 133.212525 
L 274.113581 117.991725 
L 274.876397 113.642925 
L 275.639213 126.689325 
L 276.402029 137.561325 
L 277.164845 115.817325 
L 277.927661 124.514925 
L 278.690478 115.817325 
L 279.453294 131.038125 
L 280.21611 120.166125 
L 280.978926 120.166125 
L 281.741742 111.468525 
L 282.504558 120.166125 
L 283.267374 120.166125 
L 284.030191 124.514925 
L 284.793007 96.247725 
L 285.555823 115.817325 
L 286.318639 117.991725 
L 287.081455 122.340525 
L 287.844271 124.514925 
L 288.607087 100.596525 
L 289.369903 91.898925 
L 290.13272 104.945325 
L 290.895536 104.945325 
L 291.658352 124.514925 
L 292.421168 102.770925 
L 293.183984 100.596525 
L 293.9468 111.468525 
L 294.709616 102.770925 
L 295.472433 98.422125 
L 296.998065 107.119725 
L 297.760881 117.991725 
L 298.523697 102.770925 
L 299.286513 102.770925 
L 300.049329 111.468525 
L 300.812145 107.119725 
L 301.574962 133.212525 
L 302.337778 98.422125 
L 303.100594 94.073325 
L 303.86341 117.991725 
L 305.389042 104.945325 
L 306.151858 104.945325 
L 306.914674 111.468525 
L 307.677491 102.770925 
L 308.440307 78.852525 
L 309.203123 85.375725 
L 309.965939 104.945325 
L 310.728755 117.991725 
L 311.491571 98.422125 
L 312.254387 100.596525 
L 313.017204 85.375725 
L 313.78002 109.294125 
L 314.542836 102.770925 
L 315.305652 94.073325 
L 316.068468 104.945325 
L 316.831284 78.852525 
L 317.5941 113.642925 
L 318.356916 96.247725 
L 319.119733 94.073325 
L 319.882549 87.550125 
L 320.645365 109.294125 
L 321.408181 100.596525 
L 322.170997 109.294125 
L 322.933813 98.422125 
L 323.696629 83.201325 
L 324.459445 100.596525 
L 325.222262 76.678125 
L 325.985078 83.201325 
L 326.747894 81.026925 
L 327.51071 98.422125 
L 328.273526 78.852525 
L 329.036342 87.550125 
L 329.799158 85.375725 
L 330.561975 102.770925 
L 331.324791 91.898925 
L 332.087607 100.596525 
L 332.850423 76.678125 
L 333.613239 85.375725 
L 334.376055 85.375725 
L 335.138871 83.201325 
L 335.901687 87.550125 
L 336.664504 76.678125 
L 337.42732 102.770925 
L 338.190136 98.422125 
L 338.952952 85.375725 
L 339.715768 81.026925 
L 340.478584 85.375725 
L 341.2414 76.678125 
L 342.004217 91.898925 
L 342.767033 94.073325 
L 343.529849 94.073325 
L 344.292665 81.026925 
L 345.055481 78.852525 
L 345.818297 78.852525 
L 346.581113 94.073325 
L 347.343929 76.678125 
L 348.106746 81.026925 
L 348.869562 89.724525 
L 349.632378 87.550125 
L 350.395194 74.503725 
L 351.15801 67.980525 
L 351.920826 81.026925 
L 352.683642 83.201325 
L 353.446458 81.026925 
L 354.209275 87.550125 
L 354.972091 89.724525 
L 355.734907 74.503725 
L 356.497723 87.550125 
L 357.260539 89.724525 
L 358.023355 70.154925 
L 358.786171 65.806125 
L 359.548988 78.852525 
L 360.311804 85.375725 
L 361.07462 87.550125 
L 361.837436 74.503725 
L 362.600252 67.980525 
L 363.363068 67.980525 
L 363.363068 67.980525 
" style="fill:none;stroke:#1f77b4;stroke-linecap:square;stroke-width:1.5;"/>
   </g>
   <g id="line2d_17">
    <path clip-path="url(#p3acd9c8b80)" d="M 58.999432 217.818429 
L 64.339145 217.818429 
L 65.101961 217.448781 
L 65.864777 216.013677 
L 66.627593 200.140557 
L 67.390409 201.314733 
L 68.153225 204.076221 
L 68.916042 201.814845 
L 69.678858 198.509757 
L 70.441674 201.619149 
L 71.20449 198.792429 
L 71.967306 196.987677 
L 72.730122 196.639773 
L 73.492938 191.029821 
L 74.255754 196.531053 
L 75.018571 194.617581 
L 75.781387 191.529933 
L 76.544203 195.683037 
L 77.307019 195.139437 
L 78.069835 194.835021 
L 78.832651 188.529261 
L 79.595467 188.942397 
L 80.358283 190.703661 
L 81.1211 190.334013 
L 81.883916 187.311597 
L 82.646732 188.616237 
L 83.409548 184.158717 
L 84.172364 185.093709 
L 84.93518 186.767997 
L 85.697996 187.137645 
L 86.460813 184.528365 
L 87.223629 185.311149 
L 88.749261 184.006509 
L 90.274893 187.529037 
L 91.037709 189.333789 
L 91.800525 188.594493 
L 92.563342 190.312269 
L 93.326158 190.355757 
L 94.088974 188.377053 
L 94.85179 188.551005 
L 95.614606 183.158493 
L 96.377422 184.789293 
L 97.140238 183.702093 
L 97.903055 186.246141 
L 98.665871 186.441837 
L 99.428687 188.355309 
L 100.191503 185.006733 
L 100.954319 188.746701 
L 101.717135 187.746477 
L 102.479951 185.854749 
L 103.242767 182.484429 
L 104.005584 184.637085 
L 104.7684 184.919757 
L 105.531216 187.137645 
L 106.294032 185.115453 
L 107.056848 184.832781 
L 107.819664 185.224173 
L 108.58248 185.789517 
L 109.345296 186.159165 
L 110.108113 185.093709 
L 110.870929 185.680797 
L 111.633745 184.593597 
L 112.396561 184.049997 
L 113.159377 184.049997 
L 113.922193 184.637085 
L 115.447826 182.180013 
L 116.210642 182.223501 
L 116.973458 182.114781 
L 117.736274 182.245245 
L 118.49909 181.919085 
L 119.261906 181.745133 
L 120.024722 180.701421 
L 120.787538 181.571181 
L 121.550355 181.505949 
L 123.075987 180.483981 
L 124.601619 181.201533 
L 125.364435 180.962349 
L 126.127251 180.353517 
L 126.890067 180.005613 
L 127.652884 179.505501 
L 128.4157 179.157597 
L 129.941332 179.331549 
L 130.704148 178.983645 
L 131.466964 178.918413 
L 132.22978 179.157597 
L 132.992597 178.983645 
L 133.755413 178.570509 
L 134.518229 178.700973 
L 135.281045 178.113885 
L 136.043861 177.918189 
L 136.806677 177.548541 
L 138.332309 177.570285 
L 139.095126 177.026685 
L 139.857942 176.961453 
L 140.620758 177.113661 
L 141.383574 176.526573 
L 142.14639 176.939709 
L 142.909206 176.613549 
L 143.672022 176.156925 
L 144.434839 175.961229 
L 147.486103 174.482637 
L 148.248919 174.352173 
L 149.011735 174.765309 
L 149.774551 174.526125 
L 150.537368 173.895549 
L 151.300184 173.591133 
L 152.063 173.721597 
L 153.588632 172.656141 
L 154.351448 172.221261 
L 155.114264 171.568941 
L 156.639897 170.938365 
L 158.165529 169.981629 
L 159.691161 170.090349 
L 161.216793 169.611981 
L 161.97961 168.959661 
L 162.742426 168.959661 
L 163.505242 168.350829 
L 164.268058 168.089901 
L 165.030874 166.872237 
L 165.79369 166.785261 
L 166.556506 166.198173 
L 168.082139 165.719805 
L 168.844955 164.741325 
L 169.607771 164.676093 
L 170.370587 165.067485 
L 171.133403 165.176205 
L 171.896219 164.915277 
L 172.659035 164.306445 
L 173.421852 164.110749 
L 174.184668 163.262733 
L 174.947484 163.480173 
L 175.7103 162.740877 
L 177.235932 161.805885 
L 177.998748 161.762397 
L 179.524381 160.762173 
L 180.287197 161.110077 
L 181.050013 160.501245 
L 182.575645 158.435565 
L 183.338461 159.087885 
L 184.864093 158.522541 
L 185.62691 159.066141 
L 186.389726 159.283581 
L 187.152542 158.566029 
L 187.915358 158.522541 
L 188.678174 158.109405 
L 189.44099 156.826509 
L 190.203806 157.674525 
L 190.966623 156.717789 
L 191.729439 156.065469 
L 192.492255 156.021981 
L 193.255071 155.521869 
L 194.017887 155.695821 
L 195.543519 155.369661 
L 196.306335 155.456637 
L 197.069152 153.869325 
L 197.831968 153.151773 
L 198.594784 153.608397 
L 199.3576 152.977821 
L 200.120416 153.521421 
L 200.883232 153.260493 
L 201.646048 153.847581 
L 202.408864 153.521421 
L 203.171681 153.499677 
L 203.934497 153.238749 
L 204.697313 153.390957 
L 205.460129 152.847357 
L 206.222945 152.499453 
L 206.985761 151.173069 
L 207.748577 151.107837 
L 208.511394 150.325053 
L 209.27421 150.651213 
L 210.037026 150.564237 
L 210.799842 150.803421 
L 211.562658 150.042381 
L 212.325474 150.129357 
L 213.851106 149.824941 
L 214.613923 149.020413 
L 215.376739 148.498557 
L 216.139555 149.150877 
L 217.665187 147.998445 
L 219.190819 147.911469 
L 219.953636 147.650541 
L 220.716452 147.520077 
L 221.479268 146.976477 
L 222.242084 147.411357 
L 223.0049 147.476589 
L 223.767716 147.215661 
L 224.530532 147.324381 
L 226.056165 146.476365 
L 226.818981 145.889277 
L 227.581797 145.911021 
L 228.344613 144.867309 
L 229.870245 143.975805 
L 230.633061 144.541149 
L 231.395877 143.736621 
L 232.158694 143.366973 
L 232.92151 142.692909 
L 233.684326 143.497437 
L 234.447142 143.323485 
L 235.209958 142.497213 
L 237.498407 141.170829 
L 238.261223 141.127341 
L 239.024039 140.757693 
L 239.786855 140.192349 
L 240.549671 140.061885 
L 241.312487 139.627005 
L 242.075303 139.366077 
L 242.838119 139.453053 
L 245.126568 138.561549 
L 245.889384 137.735277 
L 246.6522 137.670045 
L 248.177832 136.321917 
L 248.940648 135.039021 
L 249.703465 135.104253 
L 250.466281 133.908333 
L 251.229097 134.191005 
L 251.991913 132.451485 
L 252.754729 132.799389 
L 253.517545 132.864621 
L 254.280361 131.712189 
L 255.043178 131.233821 
L 255.805994 131.994861 
L 256.56881 131.886141 
L 258.094442 131.233821 
L 258.857258 130.320573 
L 260.38289 129.537789 
L 261.145707 130.103133 
L 262.671339 128.733261 
L 263.434155 128.668029 
L 264.196971 127.015485 
L 264.959787 125.971773 
L 265.722603 125.471661 
L 266.48542 125.580381 
L 267.248236 126.080493 
L 268.773868 124.536669 
L 269.536684 123.906093 
L 270.2995 122.666685 
L 271.062316 121.992621 
L 271.825132 121.166349 
L 272.587949 121.035885 
L 273.350765 120.253101 
L 274.113581 120.774957 
L 274.876397 119.774733 
L 275.639213 119.448573 
L 277.164845 117.056733 
L 277.927661 116.991501 
L 278.690478 115.752093 
L 279.453294 116.904525 
L 280.21611 116.861037 
L 280.978926 116.230461 
L 281.741742 115.860813 
L 282.504558 115.730349 
L 283.267374 115.317213 
L 284.030191 114.251757 
L 285.555823 113.121069 
L 286.318639 113.903853 
L 287.081455 113.338509 
L 287.844271 112.316541 
L 288.607087 111.598989 
L 289.369903 109.707261 
L 290.13272 108.924477 
L 290.895536 107.945997 
L 291.658352 107.706813 
L 292.421168 107.772045 
L 293.183984 108.228669 
L 293.9468 107.706813 
L 294.709616 107.358909 
L 295.472433 107.380653 
L 296.235249 107.119725 
L 296.998065 105.706365 
L 297.760881 104.967069 
L 298.523697 105.249741 
L 299.286513 105.728109 
L 300.049329 105.184509 
L 301.574962 103.162317 
L 302.337778 102.988365 
L 303.100594 101.661981 
L 303.86341 101.922909 
L 304.626226 100.966173 
L 305.389042 101.835933 
L 306.151858 99.835485 
L 306.914674 99.726765 
L 307.677491 98.726541 
L 308.440307 99.748509 
L 309.203123 98.574333 
L 309.965939 97.878525 
L 310.728755 98.182941 
L 311.491571 98.313405 
L 312.254387 97.269693 
L 313.017204 95.834589 
L 313.78002 96.095517 
L 314.542836 94.508205 
L 315.305652 94.551693 
L 316.831284 93.377517 
L 317.5941 94.399485 
L 318.356916 95.117037 
L 319.119733 94.725645 
L 319.882549 92.920893 
L 320.645365 94.008093 
L 321.408181 93.355773 
L 322.170997 92.377293 
L 323.696629 92.051133 
L 324.459445 92.268573 
L 325.222262 91.333581 
L 325.985078 91.659741 
L 326.747894 90.442077 
L 327.51071 89.594061 
L 329.036342 88.680813 
L 329.799158 88.615581 
L 330.561975 88.919997 
L 331.324791 89.028717 
L 332.087607 89.354877 
L 333.613239 87.898029 
L 335.138871 88.354653 
L 335.901687 87.963261 
L 336.664504 87.289197 
L 338.190136 87.158733 
L 338.952952 87.397917 
L 339.715768 86.593389 
L 340.478584 86.549901 
L 342.004217 85.897581 
L 342.767033 85.897581 
L 343.529849 85.201773 
L 344.292665 85.114797 
L 345.055481 84.788637 
L 345.818297 83.918877 
L 346.581113 83.592717 
L 347.343929 83.592717 
L 348.106746 83.810157 
L 348.869562 83.549229 
L 349.632378 83.657949 
L 350.395194 82.940397 
L 351.15801 83.114349 
L 352.683642 82.875165 
L 354.209275 82.266333 
L 355.734907 81.135645 
L 356.497723 81.331341 
L 358.023355 81.157389 
L 359.548988 80.070189 
L 361.837436 80.178909 
L 363.363068 79.657053 
L 363.363068 79.657053 
" style="fill:none;stroke:#ff7f0e;stroke-linecap:square;stroke-width:1.5;"/>
   </g>
   <g id="patch_3">
    <path d="M 43.78125 239.758125 
L 43.78125 22.318125 
" style="fill:none;stroke:#000000;stroke-linecap:square;stroke-linejoin:miter;stroke-width:0.8;"/>
   </g>
   <g id="patch_4">
    <path d="M 378.58125 239.758125 
L 378.58125 22.318125 
" style="fill:none;stroke:#000000;stroke-linecap:square;stroke-linejoin:miter;stroke-width:0.8;"/>
   </g>
   <g id="patch_5">
    <path d="M 43.78125 239.758125 
L 378.58125 239.758125 
" style="fill:none;stroke:#000000;stroke-linecap:square;stroke-linejoin:miter;stroke-width:0.8;"/>
   </g>
   <g id="patch_6">
    <path d="M 43.78125 22.318125 
L 378.58125 22.318125 
" style="fill:none;stroke:#000000;stroke-linecap:square;stroke-linejoin:miter;stroke-width:0.8;"/>
   </g>
   <g id="text_18">
    <!-- accuracy -->
    <g transform="translate(184.11 16.318125)scale(0.12 -0.12)">
     <use xlink:href="#DejaVuSans-61"/>
     <use x="61.279297" xlink:href="#DejaVuSans-63"/>
     <use x="116.259766" xlink:href="#DejaVuSans-63"/>
     <use x="171.240234" xlink:href="#DejaVuSans-75"/>
     <use x="234.619141" xlink:href="#DejaVuSans-72"/>
     <use x="275.732422" xlink:href="#DejaVuSans-61"/>
     <use x="337.011719" xlink:href="#DejaVuSans-63"/>
     <use x="391.992188" xlink:href="#DejaVuSans-79"/>
    </g>
   </g>
   <g id="legend_1">
    <g id="patch_7">
     <path d="M 282.38125 234.758125 
L 371.58125 234.758125 
Q 373.58125 234.758125 373.58125 232.758125 
L 373.58125 204.401875 
Q 373.58125 202.401875 371.58125 202.401875 
L 282.38125 202.401875 
Q 280.38125 202.401875 280.38125 204.401875 
L 280.38125 232.758125 
Q 280.38125 234.758125 282.38125 234.758125 
z
" style="fill:#ffffff;opacity:0.8;stroke:#cccccc;stroke-linejoin:miter;"/>
    </g>
    <g id="line2d_18">
     <path d="M 284.38125 210.500312 
L 304.38125 210.500312 
" style="fill:none;stroke:#1f77b4;stroke-linecap:square;stroke-width:1.5;"/>
    </g>
    <g id="line2d_19"/>
    <g id="text_19">
     <!-- training set -->
     <g transform="translate(312.38125 214.000312)scale(0.1 -0.1)">
      <defs>
       <path d="M 603 3500 
L 1178 3500 
L 1178 0 
L 603 0 
L 603 3500 
z
M 603 4863 
L 1178 4863 
L 1178 4134 
L 603 4134 
L 603 4863 
z
" id="DejaVuSans-69" transform="scale(0.015625)"/>
       <path d="M 2906 1791 
Q 2906 2416 2648 2759 
Q 2391 3103 1925 3103 
Q 1463 3103 1205 2759 
Q 947 2416 947 1791 
Q 947 1169 1205 825 
Q 1463 481 1925 481 
Q 2391 481 2648 825 
Q 2906 1169 2906 1791 
z
M 3481 434 
Q 3481 -459 3084 -895 
Q 2688 -1331 1869 -1331 
Q 1566 -1331 1297 -1286 
Q 1028 -1241 775 -1147 
L 775 -588 
Q 1028 -725 1275 -790 
Q 1522 -856 1778 -856 
Q 2344 -856 2625 -561 
Q 2906 -266 2906 331 
L 2906 616 
Q 2728 306 2450 153 
Q 2172 0 1784 0 
Q 1141 0 747 490 
Q 353 981 353 1791 
Q 353 2603 747 3093 
Q 1141 3584 1784 3584 
Q 2172 3584 2450 3431 
Q 2728 3278 2906 2969 
L 2906 3500 
L 3481 3500 
L 3481 434 
z
" id="DejaVuSans-67" transform="scale(0.015625)"/>
       <path id="DejaVuSans-20" transform="scale(0.015625)"/>
       <path d="M 2834 3397 
L 2834 2853 
Q 2591 2978 2328 3040 
Q 2066 3103 1784 3103 
Q 1356 3103 1142 2972 
Q 928 2841 928 2578 
Q 928 2378 1081 2264 
Q 1234 2150 1697 2047 
L 1894 2003 
Q 2506 1872 2764 1633 
Q 3022 1394 3022 966 
Q 3022 478 2636 193 
Q 2250 -91 1575 -91 
Q 1294 -91 989 -36 
Q 684 19 347 128 
L 347 722 
Q 666 556 975 473 
Q 1284 391 1588 391 
Q 1994 391 2212 530 
Q 2431 669 2431 922 
Q 2431 1156 2273 1281 
Q 2116 1406 1581 1522 
L 1381 1569 
Q 847 1681 609 1914 
Q 372 2147 372 2553 
Q 372 3047 722 3315 
Q 1072 3584 1716 3584 
Q 2034 3584 2315 3537 
Q 2597 3491 2834 3397 
z
" id="DejaVuSans-73" transform="scale(0.015625)"/>
       <path d="M 3597 1894 
L 3597 1613 
L 953 1613 
Q 991 1019 1311 708 
Q 1631 397 2203 397 
Q 2534 397 2845 478 
Q 3156 559 3463 722 
L 3463 178 
Q 3153 47 2828 -22 
Q 2503 -91 2169 -91 
Q 1331 -91 842 396 
Q 353 884 353 1716 
Q 353 2575 817 3079 
Q 1281 3584 2069 3584 
Q 2775 3584 3186 3129 
Q 3597 2675 3597 1894 
z
M 3022 2063 
Q 3016 2534 2758 2815 
Q 2500 3097 2075 3097 
Q 1594 3097 1305 2825 
Q 1016 2553 972 2059 
L 3022 2063 
z
" id="DejaVuSans-65" transform="scale(0.015625)"/>
      </defs>
      <use xlink:href="#DejaVuSans-74"/>
      <use x="39.208984" xlink:href="#DejaVuSans-72"/>
      <use x="80.322266" xlink:href="#DejaVuSans-61"/>
      <use x="141.601562" xlink:href="#DejaVuSans-69"/>
      <use x="169.384766" xlink:href="#DejaVuSans-6e"/>
      <use x="232.763672" xlink:href="#DejaVuSans-69"/>
      <use x="260.546875" xlink:href="#DejaVuSans-6e"/>
      <use x="323.925781" xlink:href="#DejaVuSans-67"/>
      <use x="387.402344" xlink:href="#DejaVuSans-20"/>
      <use x="419.189453" xlink:href="#DejaVuSans-73"/>
      <use x="471.289062" xlink:href="#DejaVuSans-65"/>
      <use x="532.8125" xlink:href="#DejaVuSans-74"/>
     </g>
    </g>
    <g id="line2d_20">
     <path d="M 284.38125 225.178437 
L 304.38125 225.178437 
" style="fill:none;stroke:#ff7f0e;stroke-linecap:square;stroke-width:1.5;"/>
    </g>
    <g id="line2d_21"/>
    <g id="text_20">
     <!-- test set -->
     <g transform="translate(312.38125 228.678437)scale(0.1 -0.1)">
      <use xlink:href="#DejaVuSans-74"/>
      <use x="39.208984" xlink:href="#DejaVuSans-65"/>
      <use x="100.732422" xlink:href="#DejaVuSans-73"/>
      <use x="152.832031" xlink:href="#DejaVuSans-74"/>
      <use x="192.041016" xlink:href="#DejaVuSans-20"/>
      <use x="223.828125" xlink:href="#DejaVuSans-73"/>
      <use x="275.927734" xlink:href="#DejaVuSans-65"/>
      <use x="337.451172" xlink:href="#DejaVuSans-74"/>
     </g>
    </g>
   </g>
  </g>
 </g>
 <defs>
  <clipPath id="p3acd9c8b80">
   <rect height="217.44" width="334.8" x="43.78125" y="22.318125"/>
  </clipPath>
 </defs>
</svg>
