<?xml version="1.0" encoding="utf-8" standalone="no"?>
<!DOCTYPE svg PUBLIC "-//W3C//DTD SVG 1.1//EN"
  "http://www.w3.org/Graphics/SVG/1.1/DTD/svg11.dtd">
<svg height="277.314375pt" version="1.1" viewBox="0 0 385.78125 277.314375" width="385.78125pt" xmlns="http://www.w3.org/2000/svg" xmlns:xlink="http://www.w3.org/1999/xlink">
 <metadata>
  <rdf:RDF xmlns:cc="http://creativecommons.org/ns#" xmlns:dc="http://purl.org/dc/elements/1.1/" xmlns:rdf="http://www.w3.org/1999/02/22-rdf-syntax-ns#">
   <cc:Work>
    <dc:type rdf:resource="http://purl.org/dc/dcmitype/StillImage"/>
    <dc:date>2021-05-22T23:52:25.822580</dc:date>
    <dc:format>image/svg+xml</dc:format>
    <dc:creator>
     <cc:Agent>
      <dc:title>Matplotlib v3.4.1, https://matplotlib.org/</dc:title>
     </cc:Agent>
    </dc:creator>
   </cc:Work>
  </rdf:RDF>
 </metadata>
 <defs>
  <style type="text/css">*{stroke-linecap:butt;stroke-linejoin:round;}</style>
 </defs>
 <g id="figure_1">
  <g id="patch_1">
   <path d="M 0 277.314375 
L 385.78125 277.314375 
L 385.78125 0 
L 0 0 
z
" style="fill:none;"/>
  </g>
  <g id="axes_1">
   <g id="patch_2">
    <path d="M 43.78125 239.758125 
L 378.58125 239.758125 
L 378.58125 22.318125 
L 43.78125 22.318125 
z
" style="fill:#ffffff;"/>
   </g>
   <g id="matplotlib.axis_1">
    <g id="xtick_1">
     <g id="line2d_1">
      <defs>
       <path d="M 0 0 
L 0 3.5 
" id="mcf2ed3c160" style="stroke:#000000;stroke-width:0.8;"/>
      </defs>
      <g>
       <use style="stroke:#000000;stroke-width:0.8;" x="58.999432" xlink:href="#mcf2ed3c160" y="239.758125"/>
      </g>
     </g>
     <g id="text_1">
      <!-- 0 -->
      <g transform="translate(55.818182 254.356562)scale(0.1 -0.1)">
       <defs>
        <path d="M 2034 4250 
Q 1547 4250 1301 3770 
Q 1056 3291 1056 2328 
Q 1056 1369 1301 889 
Q 1547 409 2034 409 
Q 2525 409 2770 889 
Q 3016 1369 3016 2328 
Q 3016 3291 2770 3770 
Q 2525 4250 2034 4250 
z
M 2034 4750 
Q 2819 4750 3233 4129 
Q 3647 3509 3647 2328 
Q 3647 1150 3233 529 
Q 2819 -91 2034 -91 
Q 1250 -91 836 529 
Q 422 1150 422 2328 
Q 422 3509 836 4129 
Q 1250 4750 2034 4750 
z
" id="DejaVuSans-30" transform="scale(0.015625)"/>
       </defs>
       <use xlink:href="#DejaVuSans-30"/>
      </g>
     </g>
    </g>
    <g id="xtick_2">
     <g id="line2d_2">
      <g>
       <use style="stroke:#000000;stroke-width:0.8;" x="97.23607" xlink:href="#mcf2ed3c160" y="239.758125"/>
      </g>
     </g>
     <g id="text_2">
      <!-- 250 -->
      <g transform="translate(87.69232 254.356562)scale(0.1 -0.1)">
       <defs>
        <path d="M 1228 531 
L 3431 531 
L 3431 0 
L 469 0 
L 469 531 
Q 828 903 1448 1529 
Q 2069 2156 2228 2338 
Q 2531 2678 2651 2914 
Q 2772 3150 2772 3378 
Q 2772 3750 2511 3984 
Q 2250 4219 1831 4219 
Q 1534 4219 1204 4116 
Q 875 4013 500 3803 
L 500 4441 
Q 881 4594 1212 4672 
Q 1544 4750 1819 4750 
Q 2544 4750 2975 4387 
Q 3406 4025 3406 3419 
Q 3406 3131 3298 2873 
Q 3191 2616 2906 2266 
Q 2828 2175 2409 1742 
Q 1991 1309 1228 531 
z
" id="DejaVuSans-32" transform="scale(0.015625)"/>
        <path d="M 691 4666 
L 3169 4666 
L 3169 4134 
L 1269 4134 
L 1269 2991 
Q 1406 3038 1543 3061 
Q 1681 3084 1819 3084 
Q 2600 3084 3056 2656 
Q 3513 2228 3513 1497 
Q 3513 744 3044 326 
Q 2575 -91 1722 -91 
Q 1428 -91 1123 -41 
Q 819 9 494 109 
L 494 744 
Q 775 591 1075 516 
Q 1375 441 1709 441 
Q 2250 441 2565 725 
Q 2881 1009 2881 1497 
Q 2881 1984 2565 2268 
Q 2250 2553 1709 2553 
Q 1456 2553 1204 2497 
Q 953 2441 691 2322 
L 691 4666 
z
" id="DejaVuSans-35" transform="scale(0.015625)"/>
       </defs>
       <use xlink:href="#DejaVuSans-32"/>
       <use x="63.623047" xlink:href="#DejaVuSans-35"/>
       <use x="127.246094" xlink:href="#DejaVuSans-30"/>
      </g>
     </g>
    </g>
    <g id="xtick_3">
     <g id="line2d_3">
      <g>
       <use style="stroke:#000000;stroke-width:0.8;" x="135.472707" xlink:href="#mcf2ed3c160" y="239.758125"/>
      </g>
     </g>
     <g id="text_3">
      <!-- 500 -->
      <g transform="translate(125.928957 254.356562)scale(0.1 -0.1)">
       <use xlink:href="#DejaVuSans-35"/>
       <use x="63.623047" xlink:href="#DejaVuSans-30"/>
       <use x="127.246094" xlink:href="#DejaVuSans-30"/>
      </g>
     </g>
    </g>
    <g id="xtick_4">
     <g id="line2d_4">
      <g>
       <use style="stroke:#000000;stroke-width:0.8;" x="173.709345" xlink:href="#mcf2ed3c160" y="239.758125"/>
      </g>
     </g>
     <g id="text_4">
      <!-- 750 -->
      <g transform="translate(164.165595 254.356562)scale(0.1 -0.1)">
       <defs>
        <path d="M 525 4666 
L 3525 4666 
L 3525 4397 
L 1831 0 
L 1172 0 
L 2766 4134 
L 525 4134 
L 525 4666 
z
" id="DejaVuSans-37" transform="scale(0.015625)"/>
       </defs>
       <use xlink:href="#DejaVuSans-37"/>
       <use x="63.623047" xlink:href="#DejaVuSans-35"/>
       <use x="127.246094" xlink:href="#DejaVuSans-30"/>
      </g>
     </g>
    </g>
    <g id="xtick_5">
     <g id="line2d_5">
      <g>
       <use style="stroke:#000000;stroke-width:0.8;" x="211.945983" xlink:href="#mcf2ed3c160" y="239.758125"/>
      </g>
     </g>
     <g id="text_5">
      <!-- 1000 -->
      <g transform="translate(199.220983 254.356562)scale(0.1 -0.1)">
       <defs>
        <path d="M 794 531 
L 1825 531 
L 1825 4091 
L 703 3866 
L 703 4441 
L 1819 4666 
L 2450 4666 
L 2450 531 
L 3481 531 
L 3481 0 
L 794 0 
L 794 531 
z
" id="DejaVuSans-31" transform="scale(0.015625)"/>
       </defs>
       <use xlink:href="#DejaVuSans-31"/>
       <use x="63.623047" xlink:href="#DejaVuSans-30"/>
       <use x="127.246094" xlink:href="#DejaVuSans-30"/>
       <use x="190.869141" xlink:href="#DejaVuSans-30"/>
      </g>
     </g>
    </g>
    <g id="xtick_6">
     <g id="line2d_6">
      <g>
       <use style="stroke:#000000;stroke-width:0.8;" x="250.18262" xlink:href="#mcf2ed3c160" y="239.758125"/>
      </g>
     </g>
     <g id="text_6">
      <!-- 1250 -->
      <g transform="translate(237.45762 254.356562)scale(0.1 -0.1)">
       <use xlink:href="#DejaVuSans-31"/>
       <use x="63.623047" xlink:href="#DejaVuSans-32"/>
       <use x="127.246094" xlink:href="#DejaVuSans-35"/>
       <use x="190.869141" xlink:href="#DejaVuSans-30"/>
      </g>
     </g>
    </g>
    <g id="xtick_7">
     <g id="line2d_7">
      <g>
       <use style="stroke:#000000;stroke-width:0.8;" x="288.419258" xlink:href="#mcf2ed3c160" y="239.758125"/>
      </g>
     </g>
     <g id="text_7">
      <!-- 1500 -->
      <g transform="translate(275.694258 254.356562)scale(0.1 -0.1)">
       <use xlink:href="#DejaVuSans-31"/>
       <use x="63.623047" xlink:href="#DejaVuSans-35"/>
       <use x="127.246094" xlink:href="#DejaVuSans-30"/>
       <use x="190.869141" xlink:href="#DejaVuSans-30"/>
      </g>
     </g>
    </g>
    <g id="xtick_8">
     <g id="line2d_8">
      <g>
       <use style="stroke:#000000;stroke-width:0.8;" x="326.655896" xlink:href="#mcf2ed3c160" y="239.758125"/>
      </g>
     </g>
     <g id="text_8">
      <!-- 1750 -->
      <g transform="translate(313.930896 254.356562)scale(0.1 -0.1)">
       <use xlink:href="#DejaVuSans-31"/>
       <use x="63.623047" xlink:href="#DejaVuSans-37"/>
       <use x="127.246094" xlink:href="#DejaVuSans-35"/>
       <use x="190.869141" xlink:href="#DejaVuSans-30"/>
      </g>
     </g>
    </g>
    <g id="xtick_9">
     <g id="line2d_9">
      <g>
       <use style="stroke:#000000;stroke-width:0.8;" x="364.892534" xlink:href="#mcf2ed3c160" y="239.758125"/>
      </g>
     </g>
     <g id="text_9">
      <!-- 2000 -->
      <g transform="translate(352.167534 254.356562)scale(0.1 -0.1)">
       <use xlink:href="#DejaVuSans-32"/>
       <use x="63.623047" xlink:href="#DejaVuSans-30"/>
       <use x="127.246094" xlink:href="#DejaVuSans-30"/>
       <use x="190.869141" xlink:href="#DejaVuSans-30"/>
      </g>
     </g>
    </g>
    <g id="text_10">
     <!-- count -->
     <g transform="translate(197.075 268.034687)scale(0.1 -0.1)">
      <defs>
       <path d="M 3122 3366 
L 3122 2828 
Q 2878 2963 2633 3030 
Q 2388 3097 2138 3097 
Q 1578 3097 1268 2742 
Q 959 2388 959 1747 
Q 959 1106 1268 751 
Q 1578 397 2138 397 
Q 2388 397 2633 464 
Q 2878 531 3122 666 
L 3122 134 
Q 2881 22 2623 -34 
Q 2366 -91 2075 -91 
Q 1284 -91 818 406 
Q 353 903 353 1747 
Q 353 2603 823 3093 
Q 1294 3584 2113 3584 
Q 2378 3584 2631 3529 
Q 2884 3475 3122 3366 
z
" id="DejaVuSans-63" transform="scale(0.015625)"/>
       <path d="M 1959 3097 
Q 1497 3097 1228 2736 
Q 959 2375 959 1747 
Q 959 1119 1226 758 
Q 1494 397 1959 397 
Q 2419 397 2687 759 
Q 2956 1122 2956 1747 
Q 2956 2369 2687 2733 
Q 2419 3097 1959 3097 
z
M 1959 3584 
Q 2709 3584 3137 3096 
Q 3566 2609 3566 1747 
Q 3566 888 3137 398 
Q 2709 -91 1959 -91 
Q 1206 -91 779 398 
Q 353 888 353 1747 
Q 353 2609 779 3096 
Q 1206 3584 1959 3584 
z
" id="DejaVuSans-6f" transform="scale(0.015625)"/>
       <path d="M 544 1381 
L 544 3500 
L 1119 3500 
L 1119 1403 
Q 1119 906 1312 657 
Q 1506 409 1894 409 
Q 2359 409 2629 706 
Q 2900 1003 2900 1516 
L 2900 3500 
L 3475 3500 
L 3475 0 
L 2900 0 
L 2900 538 
Q 2691 219 2414 64 
Q 2138 -91 1772 -91 
Q 1169 -91 856 284 
Q 544 659 544 1381 
z
M 1991 3584 
L 1991 3584 
z
" id="DejaVuSans-75" transform="scale(0.015625)"/>
       <path d="M 3513 2113 
L 3513 0 
L 2938 0 
L 2938 2094 
Q 2938 2591 2744 2837 
Q 2550 3084 2163 3084 
Q 1697 3084 1428 2787 
Q 1159 2491 1159 1978 
L 1159 0 
L 581 0 
L 581 3500 
L 1159 3500 
L 1159 2956 
Q 1366 3272 1645 3428 
Q 1925 3584 2291 3584 
Q 2894 3584 3203 3211 
Q 3513 2838 3513 2113 
z
" id="DejaVuSans-6e" transform="scale(0.015625)"/>
       <path d="M 1172 4494 
L 1172 3500 
L 2356 3500 
L 2356 3053 
L 1172 3053 
L 1172 1153 
Q 1172 725 1289 603 
Q 1406 481 1766 481 
L 2356 481 
L 2356 0 
L 1766 0 
Q 1100 0 847 248 
Q 594 497 594 1153 
L 594 3053 
L 172 3053 
L 172 3500 
L 594 3500 
L 594 4494 
L 1172 4494 
z
" id="DejaVuSans-74" transform="scale(0.015625)"/>
      </defs>
      <use xlink:href="#DejaVuSans-63"/>
      <use x="54.980469" xlink:href="#DejaVuSans-6f"/>
      <use x="116.162109" xlink:href="#DejaVuSans-75"/>
      <use x="179.541016" xlink:href="#DejaVuSans-6e"/>
      <use x="242.919922" xlink:href="#DejaVuSans-74"/>
     </g>
    </g>
   </g>
   <g id="matplotlib.axis_2">
    <g id="ytick_1">
     <g id="line2d_10">
      <defs>
       <path d="M 0 0 
L -3.5 0 
" id="m209b97c514" style="stroke:#000000;stroke-width:0.8;"/>
      </defs>
      <g>
       <use style="stroke:#000000;stroke-width:0.8;" x="43.78125" xlink:href="#m209b97c514" y="239.758125"/>
      </g>
     </g>
     <g id="text_11">
      <!-- 0.0 -->
      <g transform="translate(20.878125 243.557344)scale(0.1 -0.1)">
       <defs>
        <path d="M 684 794 
L 1344 794 
L 1344 0 
L 684 0 
L 684 794 
z
" id="DejaVuSans-2e" transform="scale(0.015625)"/>
       </defs>
       <use xlink:href="#DejaVuSans-30"/>
       <use x="63.623047" xlink:href="#DejaVuSans-2e"/>
       <use x="95.410156" xlink:href="#DejaVuSans-30"/>
      </g>
     </g>
    </g>
    <g id="ytick_2">
     <g id="line2d_11">
      <g>
       <use style="stroke:#000000;stroke-width:0.8;" x="43.78125" xlink:href="#m209b97c514" y="196.270125"/>
      </g>
     </g>
     <g id="text_12">
      <!-- 0.2 -->
      <g transform="translate(20.878125 200.069344)scale(0.1 -0.1)">
       <use xlink:href="#DejaVuSans-30"/>
       <use x="63.623047" xlink:href="#DejaVuSans-2e"/>
       <use x="95.410156" xlink:href="#DejaVuSans-32"/>
      </g>
     </g>
    </g>
    <g id="ytick_3">
     <g id="line2d_12">
      <g>
       <use style="stroke:#000000;stroke-width:0.8;" x="43.78125" xlink:href="#m209b97c514" y="152.782125"/>
      </g>
     </g>
     <g id="text_13">
      <!-- 0.4 -->
      <g transform="translate(20.878125 156.581344)scale(0.1 -0.1)">
       <defs>
        <path d="M 2419 4116 
L 825 1625 
L 2419 1625 
L 2419 4116 
z
M 2253 4666 
L 3047 4666 
L 3047 1625 
L 3713 1625 
L 3713 1100 
L 3047 1100 
L 3047 0 
L 2419 0 
L 2419 1100 
L 313 1100 
L 313 1709 
L 2253 4666 
z
" id="DejaVuSans-34" transform="scale(0.015625)"/>
       </defs>
       <use xlink:href="#DejaVuSans-30"/>
       <use x="63.623047" xlink:href="#DejaVuSans-2e"/>
       <use x="95.410156" xlink:href="#DejaVuSans-34"/>
      </g>
     </g>
    </g>
    <g id="ytick_4">
     <g id="line2d_13">
      <g>
       <use style="stroke:#000000;stroke-width:0.8;" x="43.78125" xlink:href="#m209b97c514" y="109.294125"/>
      </g>
     </g>
     <g id="text_14">
      <!-- 0.6 -->
      <g transform="translate(20.878125 113.093344)scale(0.1 -0.1)">
       <defs>
        <path d="M 2113 2584 
Q 1688 2584 1439 2293 
Q 1191 2003 1191 1497 
Q 1191 994 1439 701 
Q 1688 409 2113 409 
Q 2538 409 2786 701 
Q 3034 994 3034 1497 
Q 3034 2003 2786 2293 
Q 2538 2584 2113 2584 
z
M 3366 4563 
L 3366 3988 
Q 3128 4100 2886 4159 
Q 2644 4219 2406 4219 
Q 1781 4219 1451 3797 
Q 1122 3375 1075 2522 
Q 1259 2794 1537 2939 
Q 1816 3084 2150 3084 
Q 2853 3084 3261 2657 
Q 3669 2231 3669 1497 
Q 3669 778 3244 343 
Q 2819 -91 2113 -91 
Q 1303 -91 875 529 
Q 447 1150 447 2328 
Q 447 3434 972 4092 
Q 1497 4750 2381 4750 
Q 2619 4750 2861 4703 
Q 3103 4656 3366 4563 
z
" id="DejaVuSans-36" transform="scale(0.015625)"/>
       </defs>
       <use xlink:href="#DejaVuSans-30"/>
       <use x="63.623047" xlink:href="#DejaVuSans-2e"/>
       <use x="95.410156" xlink:href="#DejaVuSans-36"/>
      </g>
     </g>
    </g>
    <g id="ytick_5">
     <g id="line2d_14">
      <g>
       <use style="stroke:#000000;stroke-width:0.8;" x="43.78125" xlink:href="#m209b97c514" y="65.806125"/>
      </g>
     </g>
     <g id="text_15">
      <!-- 0.8 -->
      <g transform="translate(20.878125 69.605344)scale(0.1 -0.1)">
       <defs>
        <path d="M 2034 2216 
Q 1584 2216 1326 1975 
Q 1069 1734 1069 1313 
Q 1069 891 1326 650 
Q 1584 409 2034 409 
Q 2484 409 2743 651 
Q 3003 894 3003 1313 
Q 3003 1734 2745 1975 
Q 2488 2216 2034 2216 
z
M 1403 2484 
Q 997 2584 770 2862 
Q 544 3141 544 3541 
Q 544 4100 942 4425 
Q 1341 4750 2034 4750 
Q 2731 4750 3128 4425 
Q 3525 4100 3525 3541 
Q 3525 3141 3298 2862 
Q 3072 2584 2669 2484 
Q 3125 2378 3379 2068 
Q 3634 1759 3634 1313 
Q 3634 634 3220 271 
Q 2806 -91 2034 -91 
Q 1263 -91 848 271 
Q 434 634 434 1313 
Q 434 1759 690 2068 
Q 947 2378 1403 2484 
z
M 1172 3481 
Q 1172 3119 1398 2916 
Q 1625 2713 2034 2713 
Q 2441 2713 2670 2916 
Q 2900 3119 2900 3481 
Q 2900 3844 2670 4047 
Q 2441 4250 2034 4250 
Q 1625 4250 1398 4047 
Q 1172 3844 1172 3481 
z
" id="DejaVuSans-38" transform="scale(0.015625)"/>
       </defs>
       <use xlink:href="#DejaVuSans-30"/>
       <use x="63.623047" xlink:href="#DejaVuSans-2e"/>
       <use x="95.410156" xlink:href="#DejaVuSans-38"/>
      </g>
     </g>
    </g>
    <g id="ytick_6">
     <g id="line2d_15">
      <g>
       <use style="stroke:#000000;stroke-width:0.8;" x="43.78125" xlink:href="#m209b97c514" y="22.318125"/>
      </g>
     </g>
     <g id="text_16">
      <!-- 1.0 -->
      <g transform="translate(20.878125 26.117344)scale(0.1 -0.1)">
       <use xlink:href="#DejaVuSans-31"/>
       <use x="63.623047" xlink:href="#DejaVuSans-2e"/>
       <use x="95.410156" xlink:href="#DejaVuSans-30"/>
      </g>
     </g>
    </g>
    <g id="text_17">
     <!-- accuracy -->
     <g transform="translate(14.798438 153.5975)rotate(-90)scale(0.1 -0.1)">
      <defs>
       <path d="M 2194 1759 
Q 1497 1759 1228 1600 
Q 959 1441 959 1056 
Q 959 750 1161 570 
Q 1363 391 1709 391 
Q 2188 391 2477 730 
Q 2766 1069 2766 1631 
L 2766 1759 
L 2194 1759 
z
M 3341 1997 
L 3341 0 
L 2766 0 
L 2766 531 
Q 2569 213 2275 61 
Q 1981 -91 1556 -91 
Q 1019 -91 701 211 
Q 384 513 384 1019 
Q 384 1609 779 1909 
Q 1175 2209 1959 2209 
L 2766 2209 
L 2766 2266 
Q 2766 2663 2505 2880 
Q 2244 3097 1772 3097 
Q 1472 3097 1187 3025 
Q 903 2953 641 2809 
L 641 3341 
Q 956 3463 1253 3523 
Q 1550 3584 1831 3584 
Q 2591 3584 2966 3190 
Q 3341 2797 3341 1997 
z
" id="DejaVuSans-61" transform="scale(0.015625)"/>
       <path d="M 2631 2963 
Q 2534 3019 2420 3045 
Q 2306 3072 2169 3072 
Q 1681 3072 1420 2755 
Q 1159 2438 1159 1844 
L 1159 0 
L 581 0 
L 581 3500 
L 1159 3500 
L 1159 2956 
Q 1341 3275 1631 3429 
Q 1922 3584 2338 3584 
Q 2397 3584 2469 3576 
Q 2541 3569 2628 3553 
L 2631 2963 
z
" id="DejaVuSans-72" transform="scale(0.015625)"/>
       <path d="M 2059 -325 
Q 1816 -950 1584 -1140 
Q 1353 -1331 966 -1331 
L 506 -1331 
L 506 -850 
L 844 -850 
Q 1081 -850 1212 -737 
Q 1344 -625 1503 -206 
L 1606 56 
L 191 3500 
L 800 3500 
L 1894 763 
L 2988 3500 
L 3597 3500 
L 2059 -325 
z
" id="DejaVuSans-79" transform="scale(0.015625)"/>
      </defs>
      <use xlink:href="#DejaVuSans-61"/>
      <use x="61.279297" xlink:href="#DejaVuSans-63"/>
      <use x="116.259766" xlink:href="#DejaVuSans-63"/>
      <use x="171.240234" xlink:href="#DejaVuSans-75"/>
      <use x="234.619141" xlink:href="#DejaVuSans-72"/>
      <use x="275.732422" xlink:href="#DejaVuSans-61"/>
      <use x="337.011719" xlink:href="#DejaVuSans-63"/>
      <use x="391.992188" xlink:href="#DejaVuSans-79"/>
     </g>
    </g>
   </g>
   <g id="line2d_16">
    <path clip-path="url(#pce6142a7a4)" d="M 58.999432 202.793325 
L 60.528897 183.223725 
L 62.058363 218.014125 
L 63.587828 200.618925 
L 65.117294 207.142125 
L 66.646759 172.351725 
L 69.70569 137.561325 
L 72.764621 141.910125 
L 74.294087 141.910125 
L 75.823552 131.038125 
L 77.353018 152.782125 
L 78.882483 126.689325 
L 80.411949 124.514925 
L 81.941414 139.735725 
L 83.47088 115.817325 
L 85.000345 102.770925 
L 86.529811 122.340525 
L 88.059276 102.770925 
L 89.588742 98.422125 
L 91.118208 117.991725 
L 92.647673 109.294125 
L 94.177139 107.119725 
L 95.706604 98.422125 
L 97.23607 85.375725 
L 98.765535 78.852525 
L 100.295001 102.770925 
L 101.824466 85.375725 
L 103.353932 96.247725 
L 104.883397 85.375725 
L 106.412863 78.852525 
L 107.942328 91.898925 
L 109.471794 65.806125 
L 111.001259 98.422125 
L 112.530725 67.980525 
L 114.06019 83.201325 
L 115.589656 83.201325 
L 117.119121 87.550125 
L 118.648587 76.678125 
L 120.178052 78.852525 
L 121.707518 85.375725 
L 123.236983 70.154925 
L 124.766449 78.852525 
L 127.82538 70.154925 
L 129.354845 76.678125 
L 130.884311 65.806125 
L 132.413776 89.724525 
L 133.943242 70.154925 
L 135.472707 54.934125 
L 137.002173 67.980525 
L 138.531638 65.806125 
L 140.061104 59.282925 
L 141.590569 65.806125 
L 143.120035 54.934125 
L 144.6495 72.329325 
L 146.178966 57.108525 
L 147.708431 67.980525 
L 149.237897 65.806125 
L 150.767362 48.410925 
L 152.296828 63.631725 
L 153.826293 76.678125 
L 155.355759 65.806125 
L 156.885224 63.631725 
L 158.41469 72.329325 
L 159.944155 72.329325 
L 161.473621 48.410925 
L 163.003086 59.282925 
L 164.532552 63.631725 
L 166.062017 48.410925 
L 169.120948 70.154925 
L 170.650414 63.631725 
L 172.17988 52.759725 
L 173.709345 54.934125 
L 175.238811 63.631725 
L 176.768276 61.457325 
L 178.297742 61.457325 
L 181.356673 65.806125 
L 182.886138 46.236525 
L 184.415604 61.457325 
L 185.945069 46.236525 
L 187.474535 54.934125 
L 189.004 50.585325 
L 190.533466 52.759725 
L 192.062931 57.108525 
L 193.592397 67.980525 
L 195.121862 54.934125 
L 196.651328 63.631725 
L 198.180793 44.062125 
L 199.710259 50.585325 
L 201.239724 46.236525 
L 202.76919 54.934125 
L 204.298655 39.713325 
L 205.828121 63.631725 
L 207.357586 46.236525 
L 208.887052 54.934125 
L 210.416517 52.759725 
L 211.945983 48.410925 
L 213.475448 61.457325 
L 215.004914 52.759725 
L 216.534379 48.410925 
L 218.063845 59.282925 
L 219.59331 52.759725 
L 221.122776 41.887725 
L 222.652241 57.108525 
L 224.181707 44.062125 
L 225.711172 46.236525 
L 227.240638 50.585325 
L 228.770103 52.759725 
L 230.299569 48.410925 
L 231.829034 52.759725 
L 233.3585 41.887725 
L 234.887965 57.108525 
L 236.417431 46.236525 
L 237.946896 50.585325 
L 239.476362 41.887725 
L 241.005827 44.062125 
L 244.064758 39.713325 
L 245.594224 63.631725 
L 247.123689 44.062125 
L 248.653155 48.410925 
L 250.18262 41.887725 
L 251.712086 39.713325 
L 253.241552 48.410925 
L 254.771017 48.410925 
L 256.300483 50.585325 
L 257.829948 41.887725 
L 259.359414 46.236525 
L 260.888879 35.364525 
L 262.418345 41.887725 
L 263.94781 44.062125 
L 265.477276 52.759725 
L 267.006741 37.538925 
L 268.536207 54.934125 
L 270.065672 52.759725 
L 271.595138 59.282925 
L 273.124603 59.282925 
L 274.654069 48.410925 
L 276.183534 48.410925 
L 277.713 33.190125 
L 279.242465 48.410925 
L 280.771931 44.062125 
L 282.301396 46.236525 
L 285.360327 41.887725 
L 286.889793 44.062125 
L 288.419258 37.538925 
L 289.948724 54.934125 
L 291.478189 37.538925 
L 293.007655 46.236525 
L 294.53712 41.887725 
L 296.066586 39.713325 
L 297.596051 50.585325 
L 300.654982 46.236525 
L 302.184448 39.713325 
L 303.713913 48.410925 
L 305.243379 39.713325 
L 306.772844 41.887725 
L 308.30231 48.410925 
L 309.831775 41.887725 
L 311.361241 48.410925 
L 312.890706 46.236525 
L 314.420172 54.934125 
L 315.949637 44.062125 
L 317.479103 44.062125 
L 319.008568 52.759725 
L 320.538034 48.410925 
L 322.067499 46.236525 
L 323.596965 50.585325 
L 325.12643 52.759725 
L 326.655896 39.713325 
L 328.185361 44.062125 
L 329.714827 46.236525 
L 331.244292 41.887725 
L 332.773758 48.410925 
L 334.303224 50.585325 
L 335.832689 46.236525 
L 337.362155 52.759725 
L 338.89162 35.364525 
L 340.421086 48.410925 
L 341.950551 44.062125 
L 343.480017 46.236525 
L 345.009482 37.538925 
L 346.538948 50.585325 
L 348.068413 50.585325 
L 349.597879 39.713325 
L 351.127344 39.713325 
L 352.65681 44.062125 
L 354.186275 52.759725 
L 355.715741 37.538925 
L 357.245206 48.410925 
L 358.774672 46.236525 
L 360.304137 33.190125 
L 361.833603 37.538925 
L 363.363068 52.759725 
L 363.363068 52.759725 
" style="fill:none;stroke:#1f77b4;stroke-linecap:square;stroke-width:1.5;"/>
   </g>
   <g id="line2d_17">
    <path clip-path="url(#pce6142a7a4)" d="M 58.999432 214.578573 
L 60.528897 189.290301 
L 62.058363 205.076445 
L 63.587828 191.225517 
L 65.117294 195.117693 
L 66.646759 190.638429 
L 68.176225 161.218797 
L 69.70569 141.975357 
L 71.235156 153.173517 
L 72.764621 140.018397 
L 74.294087 149.411805 
L 75.823552 149.890173 
L 77.353018 159.305325 
L 78.882483 135.408669 
L 81.941414 133.082061 
L 83.47088 119.252877 
L 85.000345 111.403293 
L 86.529811 115.208493 
L 88.059276 108.663549 
L 89.588742 103.205805 
L 91.118208 115.208493 
L 92.647673 107.467629 
L 94.177139 124.058301 
L 95.706604 107.445885 
L 97.23607 95.660637 
L 98.765535 97.443645 
L 100.295001 89.594061 
L 101.824466 91.746717 
L 103.353932 95.530173 
L 104.883397 88.724301 
L 106.412863 90.181149 
L 107.942328 90.442077 
L 109.471794 90.094173 
L 111.001259 80.657277 
L 112.530725 82.809933 
L 114.06019 81.570525 
L 115.589656 82.375053 
L 118.648587 75.808365 
L 120.178052 75.156045 
L 121.707518 77.156493 
L 123.236983 72.698973 
L 124.766449 73.112109 
L 126.295914 71.872701 
L 127.82538 73.655709 
L 129.354845 69.350397 
L 130.884311 70.655037 
L 132.413776 70.046205 
L 133.943242 71.002941 
L 135.472707 73.199085 
L 137.002173 71.850957 
L 138.531638 70.263645 
L 140.061104 67.871805 
L 141.590569 67.610877 
L 143.120035 66.023565 
L 144.6495 65.414733 
L 146.178966 67.349949 
L 147.708431 64.610205 
L 149.237897 63.653469 
L 150.767362 63.979629 
L 152.296828 63.153357 
L 153.826293 62.805453 
L 155.355759 62.240109 
L 156.885224 62.000925 
L 158.41469 62.066157 
L 159.944155 62.435805 
L 161.473621 60.217917 
L 163.003086 59.804781 
L 164.532552 58.674093 
L 166.062017 59.043741 
L 167.591483 58.065261 
L 172.17988 59.087229 
L 173.709345 57.325965 
L 175.238811 57.217245 
L 176.768276 56.499693 
L 178.297742 56.260509 
L 179.827207 56.651901 
L 181.356673 55.412493 
L 182.886138 56.325741 
L 184.415604 56.673645 
L 185.945069 55.695165 
L 187.474535 55.542957 
L 189.004 55.869117 
L 192.062931 54.520989 
L 193.592397 55.021101 
L 195.121862 53.846925 
L 196.651328 53.716461 
L 198.180793 53.238093 
L 199.710259 53.520765 
L 201.239724 53.259837 
L 202.76919 52.846701 
L 204.298655 52.977165 
L 205.828121 52.455309 
L 208.887052 51.846477 
L 210.416517 51.737757 
L 211.945983 51.911709 
L 213.475448 51.716013 
L 215.004914 51.672525 
L 216.534379 51.759501 
L 218.063845 51.215901 
L 219.59331 50.911485 
L 221.122776 51.281133 
L 222.652241 50.628813 
L 224.181707 50.976717 
L 230.299569 49.976493 
L 231.829034 50.259165 
L 233.3585 49.911261 
L 234.887965 49.693821 
L 236.417431 50.085213 
L 237.946896 49.541613 
L 239.476362 49.476381 
L 241.005827 49.019757 
L 242.535293 49.302429 
L 247.123689 48.563133 
L 250.18262 48.519645 
L 251.712086 48.780573 
L 253.241552 48.497901 
L 254.771017 48.084765 
L 256.300483 48.084765 
L 257.829948 47.932557 
L 259.359414 47.954301 
L 260.888879 47.823837 
L 265.477276 48.236973 
L 267.006741 47.671629 
L 268.536207 47.932557 
L 270.065672 47.736861 
L 271.595138 47.715117 
L 274.654069 47.128029 
L 276.183534 46.975821 
L 277.713 47.323725 
L 279.242465 47.041053 
L 280.771931 47.388957 
L 282.301396 46.780125 
L 283.830862 47.084541 
L 286.889793 46.693149 
L 288.419258 46.975821 
L 289.948724 46.366989 
L 293.007655 46.127805 
L 294.53712 46.475709 
L 296.066586 46.171293 
L 297.596051 46.584429 
L 299.125517 46.084317 
L 300.654982 45.866877 
L 302.184448 45.910365 
L 305.243379 45.692925 
L 306.772844 46.019085 
L 308.30231 45.671181 
L 309.831775 46.301757 
L 311.361241 45.801645 
L 312.890706 45.605949 
L 314.420172 45.758157 
L 315.949637 46.106061 
L 319.008568 45.127581 
L 320.538034 45.105837 
L 322.067499 44.757933 
L 323.596965 45.279789 
L 325.12643 45.345021 
L 326.655896 45.279789 
L 328.185361 44.910141 
L 329.714827 44.997117 
L 331.244292 44.823165 
L 332.773758 44.888397 
L 334.303224 44.757933 
L 335.832689 44.323053 
L 337.362155 44.997117 
L 338.89162 44.670957 
L 340.421086 44.627469 
L 341.950551 44.257821 
L 343.480017 45.084093 
L 345.009482 43.996893 
L 346.538948 44.475261 
L 348.068413 44.583981 
L 351.127344 44.366541 
L 352.65681 44.518749 
L 355.715741 44.018637 
L 357.245206 44.170845 
L 360.304137 44.170845 
L 361.833603 43.909917 
L 363.363068 43.888173 
L 363.363068 43.888173 
" style="fill:none;stroke:#ff7f0e;stroke-linecap:square;stroke-width:1.5;"/>
   </g>
   <g id="patch_3">
    <path d="M 43.78125 239.758125 
L 43.78125 22.318125 
" style="fill:none;stroke:#000000;stroke-linecap:square;stroke-linejoin:miter;stroke-width:0.8;"/>
   </g>
   <g id="patch_4">
    <path d="M 378.58125 239.758125 
L 378.58125 22.318125 
" style="fill:none;stroke:#000000;stroke-linecap:square;stroke-linejoin:miter;stroke-width:0.8;"/>
   </g>
   <g id="patch_5">
    <path d="M 43.78125 239.758125 
L 378.58125 239.758125 
" style="fill:none;stroke:#000000;stroke-linecap:square;stroke-linejoin:miter;stroke-width:0.8;"/>
   </g>
   <g id="patch_6">
    <path d="M 43.78125 22.318125 
L 378.58125 22.318125 
" style="fill:none;stroke:#000000;stroke-linecap:square;stroke-linejoin:miter;stroke-width:0.8;"/>
   </g>
   <g id="text_18">
    <!-- accuracy -->
    <g transform="translate(184.11 16.318125)scale(0.12 -0.12)">
     <use xlink:href="#DejaVuSans-61"/>
     <use x="61.279297" xlink:href="#DejaVuSans-63"/>
     <use x="116.259766" xlink:href="#DejaVuSans-63"/>
     <use x="171.240234" xlink:href="#DejaVuSans-75"/>
     <use x="234.619141" xlink:href="#DejaVuSans-72"/>
     <use x="275.732422" xlink:href="#DejaVuSans-61"/>
     <use x="337.011719" xlink:href="#DejaVuSans-63"/>
     <use x="391.992188" xlink:href="#DejaVuSans-79"/>
    </g>
   </g>
   <g id="legend_1">
    <g id="patch_7">
     <path d="M 282.38125 234.758125 
L 371.58125 234.758125 
Q 373.58125 234.758125 373.58125 232.758125 
L 373.58125 204.401875 
Q 373.58125 202.401875 371.58125 202.401875 
L 282.38125 202.401875 
Q 280.38125 202.401875 280.38125 204.401875 
L 280.38125 232.758125 
Q 280.38125 234.758125 282.38125 234.758125 
z
" style="fill:#ffffff;opacity:0.8;stroke:#cccccc;stroke-linejoin:miter;"/>
    </g>
    <g id="line2d_18">
     <path d="M 284.38125 210.500312 
L 304.38125 210.500312 
" style="fill:none;stroke:#1f77b4;stroke-linecap:square;stroke-width:1.5;"/>
    </g>
    <g id="line2d_19"/>
    <g id="text_19">
     <!-- training set -->
     <g transform="translate(312.38125 214.000312)scale(0.1 -0.1)">
      <defs>
       <path d="M 603 3500 
L 1178 3500 
L 1178 0 
L 603 0 
L 603 3500 
z
M 603 4863 
L 1178 4863 
L 1178 4134 
L 603 4134 
L 603 4863 
z
" id="DejaVuSans-69" transform="scale(0.015625)"/>
       <path d="M 2906 1791 
Q 2906 2416 2648 2759 
Q 2391 3103 1925 3103 
Q 1463 3103 1205 2759 
Q 947 2416 947 1791 
Q 947 1169 1205 825 
Q 1463 481 1925 481 
Q 2391 481 2648 825 
Q 2906 1169 2906 1791 
z
M 3481 434 
Q 3481 -459 3084 -895 
Q 2688 -1331 1869 -1331 
Q 1566 -1331 1297 -1286 
Q 1028 -1241 775 -1147 
L 775 -588 
Q 1028 -725 1275 -790 
Q 1522 -856 1778 -856 
Q 2344 -856 2625 -561 
Q 2906 -266 2906 331 
L 2906 616 
Q 2728 306 2450 153 
Q 2172 0 1784 0 
Q 1141 0 747 490 
Q 353 981 353 1791 
Q 353 2603 747 3093 
Q 1141 3584 1784 3584 
Q 2172 3584 2450 3431 
Q 2728 3278 2906 2969 
L 2906 3500 
L 3481 3500 
L 3481 434 
z
" id="DejaVuSans-67" transform="scale(0.015625)"/>
       <path id="DejaVuSans-20" transform="scale(0.015625)"/>
       <path d="M 2834 3397 
L 2834 2853 
Q 2591 2978 2328 3040 
Q 2066 3103 1784 3103 
Q 1356 3103 1142 2972 
Q 928 2841 928 2578 
Q 928 2378 1081 2264 
Q 1234 2150 1697 2047 
L 1894 2003 
Q 2506 1872 2764 1633 
Q 3022 1394 3022 966 
Q 3022 478 2636 193 
Q 2250 -91 1575 -91 
Q 1294 -91 989 -36 
Q 684 19 347 128 
L 347 722 
Q 666 556 975 473 
Q 1284 391 1588 391 
Q 1994 391 2212 530 
Q 2431 669 2431 922 
Q 2431 1156 2273 1281 
Q 2116 1406 1581 1522 
L 1381 1569 
Q 847 1681 609 1914 
Q 372 2147 372 2553 
Q 372 3047 722 3315 
Q 1072 3584 1716 3584 
Q 2034 3584 2315 3537 
Q 2597 3491 2834 3397 
z
" id="DejaVuSans-73" transform="scale(0.015625)"/>
       <path d="M 3597 1894 
L 3597 1613 
L 953 1613 
Q 991 1019 1311 708 
Q 1631 397 2203 397 
Q 2534 397 2845 478 
Q 3156 559 3463 722 
L 3463 178 
Q 3153 47 2828 -22 
Q 2503 -91 2169 -91 
Q 1331 -91 842 396 
Q 353 884 353 1716 
Q 353 2575 817 3079 
Q 1281 3584 2069 3584 
Q 2775 3584 3186 3129 
Q 3597 2675 3597 1894 
z
M 3022 2063 
Q 3016 2534 2758 2815 
Q 2500 3097 2075 3097 
Q 1594 3097 1305 2825 
Q 1016 2553 972 2059 
L 3022 2063 
z
" id="DejaVuSans-65" transform="scale(0.015625)"/>
      </defs>
      <use xlink:href="#DejaVuSans-74"/>
      <use x="39.208984" xlink:href="#DejaVuSans-72"/>
      <use x="80.322266" xlink:href="#DejaVuSans-61"/>
      <use x="141.601562" xlink:href="#DejaVuSans-69"/>
      <use x="169.384766" xlink:href="#DejaVuSans-6e"/>
      <use x="232.763672" xlink:href="#DejaVuSans-69"/>
      <use x="260.546875" xlink:href="#DejaVuSans-6e"/>
      <use x="323.925781" xlink:href="#DejaVuSans-67"/>
      <use x="387.402344" xlink:href="#DejaVuSans-20"/>
      <use x="419.189453" xlink:href="#DejaVuSans-73"/>
      <use x="471.289062" xlink:href="#DejaVuSans-65"/>
      <use x="532.8125" xlink:href="#DejaVuSans-74"/>
     </g>
    </g>
    <g id="line2d_20">
     <path d="M 284.38125 225.178437 
L 304.38125 225.178437 
" style="fill:none;stroke:#ff7f0e;stroke-linecap:square;stroke-width:1.5;"/>
    </g>
    <g id="line2d_21"/>
    <g id="text_20">
     <!-- test set -->
     <g transform="translate(312.38125 228.678437)scale(0.1 -0.1)">
      <use xlink:href="#DejaVuSans-74"/>
      <use x="39.208984" xlink:href="#DejaVuSans-65"/>
      <use x="100.732422" xlink:href="#DejaVuSans-73"/>
      <use x="152.832031" xlink:href="#DejaVuSans-74"/>
      <use x="192.041016" xlink:href="#DejaVuSans-20"/>
      <use x="223.828125" xlink:href="#DejaVuSans-73"/>
      <use x="275.927734" xlink:href="#DejaVuSans-65"/>
      <use x="337.451172" xlink:href="#DejaVuSans-74"/>
     </g>
    </g>
   </g>
  </g>
 </g>
 <defs>
  <clipPath id="pce6142a7a4">
   <rect height="217.44" width="334.8" x="43.78125" y="22.318125"/>
  </clipPath>
 </defs>
</svg>
